<svg xmlns="http://www.w3.org/2000/svg" width="34.743" height="24.679" viewBox="0 0 34.743 24.679">
  <g id="グループ_7660" data-name="グループ 7660" transform="translate(-664.476 -14430.575)">
    <path id="長方形_4699" data-name="長方形 4699" d="M2.78-.75H30.463a3.534,3.534,0,0,1,3.53,3.53V20.4a3.534,3.534,0,0,1-3.53,3.53H2.78A3.534,3.534,0,0,1-.75,20.4V2.78A3.534,3.534,0,0,1,2.78-.75ZM30.463,22.428a2.032,2.032,0,0,0,2.03-2.03V2.78A2.032,2.032,0,0,0,30.463.75H2.78A2.032,2.032,0,0,0,.75,2.78V20.4a2.032,2.032,0,0,0,2.03,2.03Z" transform="translate(665.226 14431.325)" fill="#fff"/>
    <path id="パス_14108" data-name="パス 14108" d="M3.266,32.905c-.731,0-.9-.414-.369-.92L17.6,17.9a1.4,1.4,0,0,1,1.92,0l14.7,14.081c.528.506.362.92-.369.92Z" transform="translate(663.29 14421.598)"/>
    <path id="パス_14108_-_アウトライン" data-name="パス 14108 - アウトライン" d="M33.849,33.655H3.266a1.308,1.308,0,0,1-1.353-.74,1.308,1.308,0,0,1,.465-1.471l14.7-14.081a2.154,2.154,0,0,1,2.958,0l14.7,14.081a1.215,1.215,0,0,1-.888,2.212ZM3.8,32.155H33.312L19,18.446a.654.654,0,0,0-.883,0Z" transform="translate(663.29 14421.598)" fill="#707070"/>
    <path id="パス_14109" data-name="パス 14109" d="M33.849,33.655H3.266a1.308,1.308,0,0,1-1.353-.74,1.308,1.308,0,0,1,.465-1.471l14.7-14.081a2.154,2.154,0,0,1,2.958,0l14.7,14.081a1.215,1.215,0,0,1-.888,2.212ZM3.8,32.155H33.312L19,18.446a.654.654,0,0,0-.883,0Z" transform="translate(663.29 14421.598)" fill="#fff"/>
    <path id="パス_14110" data-name="パス 14110" d="M33.849,1.226c.731,0,.9.414.369.92l-14.7,14.081a1.4,1.4,0,0,1-1.92,0L2.9,2.146c-.528-.506-.362-.92.369-.92Z" transform="translate(663.29 14430.1)"/>
    <path id="パス_14110_-_アウトライン" data-name="パス 14110 - アウトライン" d="M3.266.476H33.849a1.308,1.308,0,0,1,1.353.74,1.308,1.308,0,0,1-.465,1.471l-14.7,14.081a2.154,2.154,0,0,1-2.958,0L2.378,2.688a1.308,1.308,0,0,1-.465-1.471A1.308,1.308,0,0,1,3.266.476Zm30.046,1.5H3.8L18.116,15.685a.654.654,0,0,0,.883,0Z" transform="translate(663.29 14430.1)" fill="#707070"/>
    <path id="パス_14111" data-name="パス 14111" d="M3.266.476H33.849a1.308,1.308,0,0,1,1.353.74,1.308,1.308,0,0,1-.465,1.471l-14.7,14.081a2.154,2.154,0,0,1-2.958,0L2.378,2.688a1.308,1.308,0,0,1-.465-1.471A1.308,1.308,0,0,1,3.266.476Zm30.046,1.5H3.8L18.116,15.685a.654.654,0,0,0,.883,0Z" transform="translate(663.29 14430.1)" fill="#fff"/>
  </g>
</svg>
