<svg xmlns="http://www.w3.org/2000/svg" width="30.987" height="30.981" viewBox="0 0 30.987 30.981">
  <g id="グループ_7659" data-name="グループ 7659" transform="translate(-251.472 -14393.465)">
    <path id="パス_14104" data-name="パス 14104" d="M40.368,26.678a.75.75,0,0,1-.75-.75,6.961,6.961,0,0,0-6.952-6.953.75.75,0,0,1,0-1.5,8.462,8.462,0,0,1,8.452,8.453A.75.75,0,0,1,40.368,26.678Z" transform="translate(233.696 14383.633)" fill="#fff"/>
    <path id="パス_14105" data-name="パス 14105" d="M44.192,22a.75.75,0,0,1-.75-.75A10.786,10.786,0,0,0,32.668,10.477a.75.75,0,0,1,0-1.5A12.274,12.274,0,0,1,44.942,21.251.75.75,0,0,1,44.192,22Z" transform="translate(233.695 14388.311)" fill="#fff"/>
    <path id="パス_14106" data-name="パス 14106" d="M48.013,17.322a.75.75,0,0,1-.75-.75,14.6,14.6,0,0,0-14.6-14.6.75.75,0,1,1,0-1.5,16.1,16.1,0,0,1,16.1,16.1A.75.75,0,0,1,48.013,17.322Z" transform="translate(233.696 14392.989)" fill="#fff"/>
    <path id="パス_14107" data-name="パス 14107" d="M6.913,6.14A1.718,1.718,0,0,1,8.49,7.176l2.71,6.778a2.037,2.037,0,0,1-.455,2.081L8.779,18a.463.463,0,0,0-.124.5c.008.017.017.033.026.05l.008.015.02.035a19.685,19.685,0,0,0,3.357,4.388,19.679,19.679,0,0,0,4.388,3.356l.045.027.027.014.03.015a.367.367,0,0,0,.143.027.509.509,0,0,0,.353-.154l1.962-1.963a2.06,2.06,0,0,1,1.433-.573,1.729,1.729,0,0,1,.645.119l6.781,2.709a1.72,1.72,0,0,1,1,1.895,9.333,9.333,0,0,1-1.851,4.086,7.513,7.513,0,0,1-5.464,2.032,16.229,16.229,0,0,1-7-1.836,27.218,27.218,0,0,1-7.089-5.162A24.629,24.629,0,0,1,.967,16.965C-.041,13.211.5,10.042,2.493,8.038l.016-.016A9.333,9.333,0,0,1,6.6,6.171,1.623,1.623,0,0,1,6.913,6.14ZM7.37,19.274c-.022-.039-.043-.079-.067-.128l-.011-.024a1.968,1.968,0,0,1,.426-2.182l1.967-1.967a.567.567,0,0,0,.121-.463L7.1,7.733a.237.237,0,0,0-.184-.093l-.023,0A8.033,8.033,0,0,0,3.581,9.071l-.013.013c-1.609,1.608-2.018,4.269-1.153,7.491a23.119,23.119,0,0,0,6.121,9.94c4.046,4.046,9.038,6.559,13.027,6.559a6.055,6.055,0,0,0,4.4-1.592,7.979,7.979,0,0,0,1.442-3.321.234.234,0,0,0-.092-.207l-6.781-2.709a.27.27,0,0,0-.088-.012.59.59,0,0,0-.373.133L18.112,27.33a1.992,1.992,0,0,1-1.413.593,1.854,1.854,0,0,1-.77-.164l-.019-.009-.079-.04-.032-.017-.038-.02-.005,0-.041-.024a21.218,21.218,0,0,1-4.709-3.6A21.2,21.2,0,0,1,7.4,19.322Z" transform="translate(251 14389.872)" fill="#fff"/>
  </g>
</svg>
