<svg xmlns="http://www.w3.org/2000/svg" width="26" height="26"><g fill="#fff" stroke="#fff" stroke-miterlimit="10"><path d="M4.465 21.284a.584.584 0 0 0 .025-.8 11.332 11.332 0 0 1 16-15.989.578.578 0 0 0 .791-.025l.009-.008a.578.578 0 0 0-.026-.842A12.5 12.5 0 0 0 3.618 21.258a.582.582 0 0 0 .847.026ZM22.458 5.9l-.008.008a.578.578 0 0 0-.07.733A11.336 11.336 0 0 1 6.641 22.387a.583.583 0 0 0-.74.07.584.584 0 0 0 .085.9 12.5 12.5 0 0 0 17.36-17.369.579.579 0 0 0-.888-.088Z"/><path d="M18.332 8.474a.992.992 0 0 0-1.4.126l-5.429 6.505-2.49-2.579a.992.992 0 1 0-1.427 1.377l3.532 3.659a.635.635 0 0 0 .945-.034l.984-1.179 5.408-6.478a.992.992 0 0 0-.123-1.397Z"/></g></svg>