<svg xmlns="http://www.w3.org/2000/svg" width="456.909" height="90.5"><g data-name="グループ 6853" fill="#fff"><path data-name="パス 13741" d="M0 74h53.6V60.7H21.3l12.5-9.8c12.9-10.1 19.1-16.2 19.1-28.2v-.2C52.9 9 42.9.2 28 .2 15 .2 8.1 5.5 1 15.3l10.8 8.6c5.4-6.7 9.4-10 15.2-10 5.9 0 10.2 3.5 10.2 9.9 0 6.1-3.6 10.2-12.8 17.9L0 61.8Zm92.5 1.2c15.7 0 27.6-10.2 27.6-25v-.3c0-15-11.1-23.1-25.5-23.1a23.528 23.528 0 0 0-15.5 5.4H79c.5-7 3.8-18.3 15.3-18.3 6.2 0 10.2 2.2 15 6L117.4 8c-6.4-5.1-12.8-8-22.6-8C73.3 0 63 17.2 63 39.7v.2c0 14.5 3.3 22.2 8.6 27.6 5.1 5 11.6 7.7 20.9 7.7Zm-.6-13.1c-8.1 0-13.1-4.9-13.1-11.3v-.2c0-6.3 4.8-11 12.9-11 8.2 0 13.1 4.7 13.1 11v.3c0 6.4-4.7 11.2-12.9 11.2ZM141.3 74h15.2V.7H146l-20.7 6.2 3.2 12.6 12.8-3.2Zm26.8 16.5c12-.3 18.6-5.7 18.6-19V57.8h-16.2V74h6.2c.5 5.8-2.9 9.4-9.9 10.2ZM223.9 75c16 0 28-7.9 28-21.3v-.2c0-8.7-4.5-13.4-12-17.2 5.7-3.4 9.5-8.2 9.5-16v-.2C249.4 8.8 239.1.2 223.9.2c-15.3 0-25.6 8.7-25.6 19.9v.2c0 7.8 3.8 12.6 9.6 16-7.8 3.5-12.1 8.7-12.1 17.6v.2c0 12.6 12 20.9 28.1 20.9Zm0-43.9c-6.6 0-11-3.9-11-9.3v-.2c0-4.7 4.2-8.7 11-8.7s10.9 4.1 10.9 8.8v.2c0 5.4-4.4 9.2-10.9 9.2Zm0 31.2c-8.3 0-13.2-4.2-13.2-9.4v-.2c0-5.8 5.6-9.3 13.2-9.3 7.5 0 13.1 3.5 13.1 9.3v.2c0 5.3-4.9 9.4-13.1 9.4Zm68.3 12.9c19.4 0 32.3-16.6 32.3-37.6v-.2c0-21.1-12.9-37.4-32.1-37.4-19.3 0-32.3 16.6-32.3 37.6v.2c0 21.1 12.7 37.4 32.1 37.4Zm.2-13.8c-10 0-16.5-10.3-16.5-23.8v-.2c0-13.5 6.4-23.6 16.3-23.6s16.5 10.4 16.5 23.8v.2c0 13.4-6.3 23.6-16.3 23.6Zm73.4 13.8c19.4 0 32.3-16.6 32.3-37.6v-.2C398.1 16.3 385.2 0 366 0c-19.3 0-32.3 16.6-32.3 37.6v.2c0 21.1 12.7 37.4 32.1 37.4Zm.2-13.8c-10 0-16.5-10.3-16.5-23.8v-.2c0-13.5 6.4-23.6 16.3-23.6s16.5 10.4 16.5 23.8v.2c0 13.4-6.3 23.6-16.3 23.6Z"/><path data-name="パス 13740" d="M414.5 32.7v43.758h6.024V38.642h33.2V32.7Zm36.349 0v36.674c0 .9-.339 1.2-1.289 1.211s-4.239.061-7.147-.117a21.775 21.775 0 0 1 2.182 6c4.472 0 7.473-.117 9.542-1.108s2.772-2.681 2.772-5.919V32.7Zm-33.084 18.58v5.935h36.021V51.28Zm14.584-15.354v18.316h5.985V35.926Z"/><path data-name="パス 13739" d="M413.109 15.92a10.6 10.6 0 0 0 3.154 7.686l1.523-.678a9.918 9.918 0 0 1-2.867-7.008 9.918 9.918 0 0 1 2.867-7.007l-1.523-.678a10.6 10.6 0 0 0-3.154 7.685Zm12.458-6.8a11.634 11.634 0 0 1 1.361 2.79l1.689-.761a11.4 11.4 0 0 0-1.461-2.716Zm5.87-.729a15.549 15.549 0 0 1-1.322 2.757l1.62.6c.494-.686 1.106-1.71 1.673-2.713Zm-4.522 8.37c-.163 2.257-.515 4.124-3.068 5.181a5.2 5.2 0 0 1 1.135 1.518c3.027-1.371 3.6-3.773 3.818-6.7Zm2.728-.226v4.443c0 1.681.311 2.253 1.748 2.253h1.069c1.14 0 1.598-.631 1.759-2.91a4.946 4.946 0 0 1-1.637-.732c-.032 1.674-.096 1.918-.332 1.918h-.521c-.2 0-.232-.052-.232-.541v-4.431Zm-2.22-3.254h3.977v2.179h-3.977Zm-1.823-1.675v5.529h7.709v-5.529ZM421.454 9.9v13.521h1.865V9.9Zm-2.3 3.011v1.787h5.878v-1.79Zm2.407.718A16.02 16.02 0 0 1 418.817 19a9.839 9.839 0 0 1 .9 1.828 21.167 21.167 0 0 0 2.963-6.714Zm2.39-5.054a22.621 22.621 0 0 1-4.984 1.317 6.248 6.248 0 0 1 .533 1.466 26.765 26.765 0 0 0 5.733-1.308Zm-.667 6.561-.837.748a25.059 25.059 0 0 1 1.833 2.9l1.1-1.507c-.308-.377-1.696-1.814-2.1-2.145Zm17.687-6.059v1.812h3.378V9.077Zm2.417 0v.857h.312c.289 4.645 1.34 8.685 4.753 10.722a8.415 8.415 0 0 1 1.5-1.472c-3.344-1.684-4.312-5.541-4.553-10.107Zm-.058 3.339c-.515 3.076-1.753 5.458-3.993 6.8a10.666 10.666 0 0 1 1.477 1.45c2.366-1.654 3.794-4.366 4.494-7.966Zm-4.395 2.226H435.2v1.774h1.861v4.127h1.874Zm0 5.066h-1.751a25.949 25.949 0 0 1-2.324 1.575l.944 2a62.998 62.998 0 0 0 2.283-1.928 5.4 5.4 0 0 0 4.344 1.782c1.919.085 5.149.053 7.079-.044a9.344 9.344 0 0 1 .613-1.956c-2.156.18-5.783.228-7.661.151-1.671-.068-2.875-.521-3.527-1.58Zm-3.713-9.776a12.278 12.278 0 0 1 2.588 2.542l1.529-1.269a12.939 12.939 0 0 0-2.694-2.423Zm20.669 5.988a10.6 10.6 0 0 0-3.154-7.686l-1.523.678a9.918 9.918 0 0 1 2.867 7.008 9.918 9.918 0 0 1-2.866 7.007l1.523.678a10.6 10.6 0 0 0 3.153-7.685Z"/></g></svg>