<svg xmlns="http://www.w3.org/2000/svg" width="322.344" height="89.749" viewBox="0 0 322.344 89.749"><g transform="translate(-25.656 -861)"><path d="M2.832-11.12h9.536v-.64H1.68v-1.12H14.1V-10H2.832Zm-.544,0H4.08q-.256.768-.544,1.592T3.008-8.1L1.264-8.208q.272-.608.544-1.4T2.288-11.12Zm.16,1.744h11.52v1.12H2.112Zm10.88,0h1.808l-.008.176q-.008.176-.008.32a10.118,10.118,0,0,1-.16,1.232,1.526,1.526,0,0,1-.3.688,1.208,1.208,0,0,1-.424.272,1.679,1.679,0,0,1-.5.112q-.24.016-.64.016t-.88-.016A2.714,2.714,0,0,0,12.1-7.16a4.029,4.029,0,0,0-.208-.568q.288.032.52.048a1.987,1.987,0,0,0,.36,0A.994.994,0,0,0,12.96-7.7a.248.248,0,0,0,.144-.1.793.793,0,0,0,.144-.416q.048-.32.08-.976ZM5.344-13.6H7.088v3.312A5.89,5.89,0,0,1,6.88-8.7,3.206,3.206,0,0,1,6.1-7.344,4.758,4.758,0,0,1,4.432-6.288a12.784,12.784,0,0,1-2.864.72,3.67,3.67,0,0,0-.24-.488q-.16-.28-.336-.552a3.485,3.485,0,0,0-.336-.448A12.586,12.586,0,0,0,3.12-7.568,4.3,4.3,0,0,0,4.528-8.3a2.1,2.1,0,0,0,.648-.92,3.446,3.446,0,0,0,.168-1.1Zm3.536,0h1.808v6.464H8.88ZM4.624-4.432v.64h6.912v-.64Zm0,1.664V-2.1h6.912v-.672Zm0-3.328v.64h6.912V-6.1ZM2.752-7.184H13.488v6.176H2.752ZM8.9-.256l1.536-.96q.864.272,1.768.584t1.72.616q.816.3,1.392.544l-2.144.928Q12.7,1.216,12.016.92T10.528.32Q9.728.016,8.9-.256ZM5.376-1.2l1.712.768A13.468,13.468,0,0,1,5.568.32Q4.7.688,3.8.992t-1.736.5a4.959,4.959,0,0,0-.4-.456Q1.408.768,1.152.52A4.271,4.271,0,0,0,.672.112q.864-.144,1.736-.344T4.048-.68A10.327,10.327,0,0,0,5.376-1.2Zm14-11.328h9.808v1.84H19.376Zm0,3.7h9.84V-7.04h-9.84Zm-.032,3.776H29.28v1.808H19.344Zm-1.072-7.472H20.16v5.76q0,.944-.08,2.064a17.25,17.25,0,0,1-.312,2.248A10.446,10.446,0,0,1,19.08-.3,6.7,6.7,0,0,1,17.888,1.52a2.724,2.724,0,0,0-.432-.432q-.288-.24-.584-.464t-.5-.352a5.855,5.855,0,0,0,1.04-1.592,8.578,8.578,0,0,0,.568-1.808A14.043,14.043,0,0,0,18.216-5q.056-.936.056-1.784Zm10.24,0h1.92v11.7A2.967,2.967,0,0,1,30.24.36a1.3,1.3,0,0,1-.688.648A3.674,3.674,0,0,1,28.32,1.3q-.752.064-1.856.048a4.591,4.591,0,0,0-.24-.928A7.129,7.129,0,0,0,25.84-.5q.464.016.928.024t.824.008h.52a.467.467,0,0,0,.312-.08.406.406,0,0,0,.088-.3Zm-5.312.736h1.936V1.232H23.2Z" transform="translate(25 880)" fill="#fff"/><path d="M14.5,0h111a14.5,14.5,0,0,1,0,29H14.5a14.5,14.5,0,0,1,0-29Z" transform="translate(77 861)" fill="#efd774"/><path d="M12.054-4.676H13.4a6.352,6.352,0,0,1-.056-.882v-.994a6.743,6.743,0,0,1,.042-1.022,11.594,11.594,0,0,1-1.4.056h-.168a15.692,15.692,0,0,0,1.134-2.03l-1.4-.5a8.7,8.7,0,0,1-1.176,2.534H8.624l1.2-.378a9.123,9.123,0,0,0-.63-1.82l-1.316.35A9.222,9.222,0,0,1,8.54-7.518H6.132l1.106-.42a9.121,9.121,0,0,0-.714-1.6l-1.232.378a8.809,8.809,0,0,1,.714,1.638h-.1A8.748,8.748,0,0,1,4.816-7.56a6.8,6.8,0,0,1,.042.84v1.148a7.709,7.709,0,0,1-.042.924h.56v.728a7.031,7.031,0,0,1,1.05-.056h.826l-1.33.49a10.484,10.484,0,0,0,1.568,2A9.543,9.543,0,0,1,3.906-.2a5.422,5.422,0,0,1,.8,1.4A12.6,12.6,0,0,0,8.68-.518,11.744,11.744,0,0,0,12.922,1.26,6.268,6.268,0,0,1,13.65-.252,10.479,10.479,0,0,1,9.9-1.47,12.052,12.052,0,0,0,11.83-3.738l.434-.672ZM11.872-4.9l-.35-.434a4.15,4.15,0,0,1-.868.056H6.272V-6.286h5.6Zm-1.736.924A5.664,5.664,0,0,1,8.694-2.31,5.951,5.951,0,0,1,7.308-3.976ZM2.114-9.156H1.6A5.171,5.171,0,0,1,.6-9.226v1.484a7.966,7.966,0,0,1,.98-.056h.532v2.576a12,12,0,0,1-1.68.392L.742-3.276a4.15,4.15,0,0,1,.434-.168c.182-.07.182-.07.308-.112l.63-.21v3.08c0,.336-.084.406-.42.406a6.617,6.617,0,0,1-1.05-.1A4.812,4.812,0,0,1,.98,1.05c.294.014.49.028.616.028A3.84,3.84,0,0,0,2.926.91c.49-.154.658-.448.658-1.19v-4l.98-.392L4.536-6.062c-.5.21-.672.266-.952.378V-7.8H3.99a6.933,6.933,0,0,1,.728.042V-9.212a3.733,3.733,0,0,1-.7.056H3.584V-10.3a8.043,8.043,0,0,1,.084-1.414H2.03a9.759,9.759,0,0,1,.084,1.428Zm9.842-2.632a25.517,25.517,0,0,1-6.9.882H4.69a4.2,4.2,0,0,1,.5,1.3,52.378,52.378,0,0,0,7.112-.714l.728-.154Zm8.2,5.628v.672H17.388a9.941,9.941,0,0,1-1.428-.07V-4.3a10.061,10.061,0,0,1,1.428-.07H20.16v.7H16.45a13,13,0,0,1-1.68-.084v1.4a15.389,15.389,0,0,1,1.694-.084h2.6A10.064,10.064,0,0,1,14.49-.448,5.73,5.73,0,0,1,15.344.9,13.545,13.545,0,0,0,18.2-.28a7.786,7.786,0,0,0,2.016-1.54,9.426,9.426,0,0,0-.042.952V-.2a10.449,10.449,0,0,1-.084,1.428h1.652a7.965,7.965,0,0,1-.1-1.414V-.868a9.583,9.583,0,0,0-.042-.994A10.924,10.924,0,0,0,26.8.91a5.544,5.544,0,0,1,.8-1.428,12.016,12.016,0,0,1-2.912-.8,7.268,7.268,0,0,1-1.9-1.12h2.814a15.124,15.124,0,0,1,1.68.084v-1.4a12.366,12.366,0,0,1-1.694.084H21.672v-.7H24.6a10.277,10.277,0,0,1,1.442.07v-1.26a10.156,10.156,0,0,1-1.442.07H21.672V-6.16h3.654a10.277,10.277,0,0,1,1.442.07V-7.42a12.875,12.875,0,0,1-1.442.056H23.7c.2-.35.252-.476.518-1.036h1.4c.686,0,1.232.028,1.666.07v-1.4a11.352,11.352,0,0,1-1.582.084h-.392c.308-.434.532-.784.868-1.344l-1.442-.532A7.47,7.47,0,0,1,23.73-9.646h-.882v-.994a7.351,7.351,0,0,1,.07-1.092H21.392a9.971,9.971,0,0,1,.042,1.036v1.05H20.44V-10.7a9.428,9.428,0,0,1,.042-1.036H18.956a7.786,7.786,0,0,1,.07,1.092v.994h-.8A9.9,9.9,0,0,0,17.15-11.48l-1.4.532a5.918,5.918,0,0,1,.952,1.3h-.448a11.864,11.864,0,0,1-1.6-.084v1.4c.448-.042.98-.07,1.666-.07h1.512c.154.266.308.588.518,1.036H16.66a12.716,12.716,0,0,1-1.442-.056v1.33a10.4,10.4,0,0,1,1.442-.07Zm-.322-1.2a8.936,8.936,0,0,0-.42-1.036H22.61a8.165,8.165,0,0,1-.462,1.036Zm14.49,6.2c.308-.1.714-.21,1.33-.35l2.968-.672V-.49a10.151,10.151,0,0,1-.084,1.666h1.694a10.266,10.266,0,0,1-.084-1.652V-2.52l.14-.028A10.227,10.227,0,0,1,41.636-2.8l-.294-1.6a8.538,8.538,0,0,1-1.19.35v-6.076a9.9,9.9,0,0,1,.084-1.61H38.542a9.581,9.581,0,0,1,.084,1.624v6.4l-3.276.728a9.376,9.376,0,0,1-1.288.2,8.163,8.163,0,0,1,.392-.784,7.435,7.435,0,0,1-1.806-2.142h.5a8.142,8.142,0,0,1,1.106.056V-7.112a7.09,7.09,0,0,1-1.078.056h-.658v-3.332a8.358,8.358,0,0,1,.07-1.358H31a8.662,8.662,0,0,1,.07,1.372v3.318h-.938a6.952,6.952,0,0,1-1.26-.07v1.484a7.244,7.244,0,0,1,1.26-.07h.728a11.8,11.8,0,0,1-.742,1.582A9.206,9.206,0,0,1,28.6-2.058a4.217,4.217,0,0,1,.714,1.442,9.67,9.67,0,0,0,1.82-3.15c-.028.462-.056,1.12-.056,1.68V-.28a9.065,9.065,0,0,1-.1,1.484h1.624a8.281,8.281,0,0,1-.084-1.456v-2.31c0-.448-.014-.644-.084-1.6a10.357,10.357,0,0,0,1.414,1.974c.07-.224.084-.294.154-.476ZM28.77-10.444a11.3,11.3,0,0,1,.868,3l1.176-.5a17.027,17.027,0,0,0-.854-3.024ZM33.586-11A11.646,11.646,0,0,1,32.62-7.98l1.022.532a16.942,16.942,0,0,0,1.12-3.038Zm1.33,1.274a11.827,11.827,0,0,1,2.478,2.156l.952-1.176a13.6,13.6,0,0,0-2.45-2.058Zm-.434,3.458a12.246,12.246,0,0,1,2.464,2.156L37.9-5.25a12.774,12.774,0,0,0-2.436-2.058Z" transform="translate(125 881)" fill="#011b39"/><g transform="translate(45.659 -2476.006)"><path d="M14.5,0H88.841a14.5,14.5,0,0,1,0,29H14.5a14.5,14.5,0,0,1,0-29Z" transform="translate(199 3337.006)" fill="#efd774"/><path d="M6.16-9.59A11.063,11.063,0,0,1,5.7-6.762,10.364,10.364,0,0,1,3.3-2.618,11.059,11.059,0,0,1,.49-.42,3.927,3.927,0,0,1,1.638,1.05,13.986,13.986,0,0,0,5.11-2.114a11.744,11.744,0,0,0,2-4.228,9.049,9.049,0,0,0,.714,1.988A10.662,10.662,0,0,0,9.058-2.282a14.107,14.107,0,0,0,3.4,3.29A5.941,5.941,0,0,1,13.65-.574a10.019,10.019,0,0,1-2.072-1.512,11.326,11.326,0,0,1-2.24-2.688,10.84,10.84,0,0,1-1.5-5.544,6.606,6.606,0,0,1,.042-.882,7.629,7.629,0,0,1-1.274.07H4.382a8.524,8.524,0,0,1-1.316-.07v1.68c.546-.042.966-.07,1.344-.07ZM20.286-2.7V-.63c0,.28-.1.322-.714.322a12.743,12.743,0,0,1-1.736-.14A5.312,5.312,0,0,1,18.3,1.036c.728.042,1.19.056,1.372.056,1.26,0,1.736-.112,1.974-.462a1.352,1.352,0,0,0,.182-.882V-2.7h3.64a13.831,13.831,0,0,1,1.736.084V-4.172a11.532,11.532,0,0,1-1.722.1H21.826v-.014a19.6,19.6,0,0,0,2.8-2.044c.266-.224.266-.224.5-.42l-.77-.854A6.328,6.328,0,0,1,23.3-7.35H18.662a10.209,10.209,0,0,1-1.414-.07v1.4a13.87,13.87,0,0,1,1.4-.056H22.5a7.414,7.414,0,0,1-1.652,1.134h-.6a6.549,6.549,0,0,1,.042.77v.1H16.478a11.88,11.88,0,0,1-1.694-.1v1.554A13.64,13.64,0,0,1,16.492-2.7ZM16.548-9.618A13.464,13.464,0,0,1,14.9-9.674a9.2,9.2,0,0,1,.056,1.162v1.288a6.138,6.138,0,0,1-.07,1.078h1.526v-2.17h9.128v2.17h1.526a8.487,8.487,0,0,1-.07-1.064v-1.3a8.786,8.786,0,0,1,.056-1.162,16.851,16.851,0,0,1-1.722.056H24.7a14.668,14.668,0,0,0,1.05-1.68l-1.512-.42a9.276,9.276,0,0,1-1.148,2.1H21.9a11.077,11.077,0,0,0-.966-2.17l-1.456.406a8.188,8.188,0,0,1,.854,1.764H18.844a10.322,10.322,0,0,0-1.274-2l-1.414.42a8.11,8.11,0,0,1,1.05,1.582Zm17.584,3.01V-5.25h-3.3A10.333,10.333,0,0,1,29.3-5.334V-3.78a11.5,11.5,0,0,1,1.512-.084h3.318V-.728H30.618a15.128,15.128,0,0,1-1.736-.084V.8A13.8,13.8,0,0,1,30.618.7h8.848a12.913,12.913,0,0,1,1.68.1V-.812a13.115,13.115,0,0,1-1.652.084H35.686V-3.864h3.528a11.092,11.092,0,0,1,1.54.084V-5.334a9.949,9.949,0,0,1-1.526.084H35.686V-6.608h1.428a9.569,9.569,0,0,1,1.372.07v-.714a14.274,14.274,0,0,0,2.45,1.232,7.146,7.146,0,0,1,.756-1.54,11.6,11.6,0,0,1-3.71-1.89,8.281,8.281,0,0,1-2.156-2.156H34.09a10.8,10.8,0,0,1-5.712,4.1,6.22,6.22,0,0,1,.812,1.442A15.108,15.108,0,0,0,31.472-7.21v.672a9.81,9.81,0,0,1,1.372-.07ZM32.508-7.924a9.877,9.877,0,0,0,2.45-2.352,11.045,11.045,0,0,0,2.52,2.352c-.21.014-.21.014-.336.014L32.8-7.924ZM30.464-3.178A10.2,10.2,0,0,1,31.57-.854l1.4-.56a16.225,16.225,0,0,0-1.12-2.324Zm7.546-.546A11.7,11.7,0,0,1,36.9-1.316l1.316.49c.476-.812.532-.91.574-.994.518-1.022.518-1.022.7-1.344Z" transform="translate(230 3357)" fill="#011b39"/></g><g transform="translate(89 905.773)"><path d="M16.84,0h5.88V-6.32h3.96v-5H22.72v-18h-5.2L1.48-10.68,2.52-6.32H16.84ZM8.72-11.32l8.12-9.56v9.56ZM41.36-5.08a9.54,9.54,0,0,1-6.4-2.56L31.72-2.96A13.9,13.9,0,0,0,41.24.48C49.4.48,53.88-5.96,53.88-15.4v-.08c0-5.72-1.36-8.92-3.44-11-2.2-2.16-4.48-3.12-8.36-3.12-6.52,0-11.04,4.32-11.04,10.16v.08c0,5.84,4.08,9.36,10.36,9.36a8.446,8.446,0,0,0,6.08-2.24h.04C47.36-9.56,46-5.08,41.36-5.08ZM42.4-15.12c-3.24,0-5.24-1.84-5.24-4.52v-.08c0-2.68,1.84-4.64,5.12-4.64s5.28,1.96,5.28,4.64v.08C47.56-17.08,45.68-15.12,42.4-15.12ZM58.72,0H65.2V-6.48H58.72ZM81.28.4c6.4,0,11.2-3.16,11.2-8.52V-8.2c0-3.48-1.8-5.36-4.8-6.88a6.988,6.988,0,0,0,3.8-6.4v-.08c0-4.52-4.12-7.96-10.2-7.96-6.12,0-10.24,3.48-10.24,7.96v.08a6.952,6.952,0,0,0,3.84,6.4c-3.12,1.4-4.84,3.48-4.84,7.04v.08C70.04-2.92,74.84.4,81.28.4Zm0-17.56c-2.64,0-4.4-1.56-4.4-3.72v-.08c0-1.88,1.68-3.48,4.4-3.48s4.36,1.64,4.36,3.52v.08C85.64-18.68,83.88-17.16,81.28-17.16Zm0,12.48C77.96-4.68,76-6.36,76-8.44v-.08c0-2.32,2.24-3.72,5.28-3.72,3,0,5.24,1.4,5.24,3.72v.08C86.52-6.32,84.56-4.68,81.28-4.68Z" transform="translate(-9 23.837)" fill="#fff"/><path d="M1-13.277H16.014v1.989H1ZM6.443-8.5h6.8v1.972h-6.8Zm6.052,0h2.142l-.009.161q-.009.162-.009.383A3,3,0,0,1,14.6-7.6q-.1,1.972-.213,3.374t-.247,2.346a8.986,8.986,0,0,1-.323,1.5,2.464,2.464,0,0,1-.442.85,2.056,2.056,0,0,1-.807.612,4.082,4.082,0,0,1-1.011.238q-.51.051-1.318.051T8.585,1.343A3.954,3.954,0,0,0,8.347.331a4.4,4.4,0,0,0-.493-.994q.884.068,1.683.085t1.173.017A2.108,2.108,0,0,0,11.169-.6a.76.76,0,0,0,.34-.178,2.057,2.057,0,0,0,.45-1.062,19.591,19.591,0,0,0,.306-2.38q.128-1.556.229-3.935ZM4.981-11.577H7.14q-.051,1.445-.161,2.924a23.733,23.733,0,0,1-.4,2.915,14.116,14.116,0,0,1-.85,2.754A9.959,9.959,0,0,1,4.216-.519,9.175,9.175,0,0,1,1.8,1.5,4.583,4.583,0,0,0,1.156.62,6.047,6.047,0,0,0,.323-.153,8.381,8.381,0,0,0,2.524-1.9,8.071,8.071,0,0,0,3.876-4.046,10.953,10.953,0,0,0,4.59-6.468a21.419,21.419,0,0,0,.289-2.559Q4.947-10.319,4.981-11.577ZM19.21-13.362H32.538v2.023H21.25V1.513H19.21Zm12.359,0h2.057v12.5a3.282,3.282,0,0,1-.2,1.283,1.442,1.442,0,0,1-.731.723,3.66,3.66,0,0,1-1.318.314q-.791.059-1.93.059a5.211,5.211,0,0,0-.17-.663Q29.155.476,29,.111A6.163,6.163,0,0,0,28.7-.527q.493.034.994.043t.892.008h.544a.56.56,0,0,0,.34-.11.411.411,0,0,0,.1-.314ZM20.315-7.038H32.572v2.006H20.315Zm4.964-5.219h2.04v6.222h-2.04Z" transform="translate(87.5 22.837)" fill="#fff"/></g><path d="M8.34-4.56a7.9,7.9,0,0,1,.294-2.2,7.717,7.717,0,0,1,.834-1.9,8.981,8.981,0,0,1,1.26-1.614l.72.372A8.659,8.659,0,0,0,10.26-8.358a7.316,7.316,0,0,0-.774,1.776,7.309,7.309,0,0,0-.27,2.022,7.328,7.328,0,0,0,.27,2.016A7.183,7.183,0,0,0,10.26-.768,9.155,9.155,0,0,0,11.448.78l-.72.372a9.467,9.467,0,0,1-1.26-1.62,7.588,7.588,0,0,1-.834-1.9A7.916,7.916,0,0,1,8.34-4.56Zm9.768-5.184.756-.324a10.442,10.442,0,0,1,.642,1.05,6.148,6.148,0,0,1,.438.978l-.792.372a6.062,6.062,0,0,0-.414-1.008A8.448,8.448,0,0,0,18.108-9.744Zm4.464-.348.9.336q-.288.528-.618,1.092t-.618.972l-.756-.3q.192-.288.4-.654t.39-.744A7.519,7.519,0,0,0,22.572-10.092ZM19.224-3.936h.9a11.436,11.436,0,0,1-.24,1.524A6.1,6.1,0,0,1,19.4-1.044,4.192,4.192,0,0,1,18.552.1a4.562,4.562,0,0,1-1.344.87,2.528,2.528,0,0,0-.246-.36,2.218,2.218,0,0,0-.306-.324,4.042,4.042,0,0,0,1.212-.75,3.482,3.482,0,0,0,.744-.99,5.045,5.045,0,0,0,.414-1.182A10.4,10.4,0,0,0,19.224-3.936Zm1.9-.108H22V-.36a.575.575,0,0,0,.048.294q.048.066.24.066h.8a.22.22,0,0,0,.2-.1,1.083,1.083,0,0,0,.1-.426q.03-.324.042-.972a1.014,1.014,0,0,0,.222.138,2.816,2.816,0,0,0,.294.12l.264.09A6.836,6.836,0,0,1,24.066.054a1.054,1.054,0,0,1-.312.594.887.887,0,0,1-.57.168H22.152a1.518,1.518,0,0,1-.636-.108A.585.585,0,0,1,21.2.342a2.346,2.346,0,0,1-.084-.7ZM18.84-6.852v2.34h3.792v-2.34Zm-.864-.8H23.52V-3.72H17.976ZM15.144-9.084h.888V.936h-.888ZM13.188-6.7h4.344v.84H13.188Zm2,.324.564.24q-.18.636-.444,1.314t-.57,1.344a14,14,0,0,1-.648,1.248,6.963,6.963,0,0,1-.69.99,3.4,3.4,0,0,0-.21-.42q-.138-.24-.258-.408a6.094,6.094,0,0,0,.66-.864q.324-.5.63-1.092t.558-1.194A10.379,10.379,0,0,0,15.192-6.372Zm1.74-3.54.624.7a12.345,12.345,0,0,1-1.26.408q-.708.192-1.458.33t-1.458.234a1.561,1.561,0,0,0-.108-.342q-.084-.2-.156-.342.672-.12,1.386-.264t1.35-.33A7.99,7.99,0,0,0,16.932-9.912ZM15.984-5.16q.12.108.354.342t.51.5q.276.27.5.51t.318.348l-.54.708q-.108-.18-.306-.456t-.438-.588q-.24-.312-.456-.576t-.36-.42ZM30.06-9.468h2.52v.852H30.06Zm1.968,0h.984a24.429,24.429,0,0,0,.36,2.586,11.2,11.2,0,0,0,.666,2.22A6.809,6.809,0,0,0,35.106-2.9,5.069,5.069,0,0,0,36.648-1.68a1.332,1.332,0,0,0-.24.18q-.132.12-.258.252t-.21.24a5.694,5.694,0,0,1-1.566-1.326,7.366,7.366,0,0,1-1.086-1.824A12.024,12.024,0,0,1,32.6-6.414a24.691,24.691,0,0,1-.384-2.622h-.192Zm.048,2.316L33-7.008a11.944,11.944,0,0,1-1.278,3.54,7.635,7.635,0,0,1-2.2,2.46,1.8,1.8,0,0,0-.186-.21q-.126-.126-.27-.252t-.252-.21A6.2,6.2,0,0,0,30.93-3.912,10.717,10.717,0,0,0,32.076-7.152ZM28.344-5.34v4.248h-.876V-4.5h-1.68v-.84Zm0,3.852a2.6,2.6,0,0,0,1.2.984,5.1,5.1,0,0,0,1.812.36q.492.024,1.194.03T34.026-.12Q34.8-.132,35.52-.156t1.26-.06a1.4,1.4,0,0,0-.12.264q-.06.168-.108.342T36.48.7q-.492.024-1.164.036T33.924.75q-.72.006-1.4,0T31.356.732a6.048,6.048,0,0,1-2.01-.384,3.416,3.416,0,0,1-1.41-1.056q-.432.384-.888.774t-.948.8L25.632-.06q.432-.288.93-.666t.966-.762ZM25.92-9.252l.66-.54a8.773,8.773,0,0,1,.8.582q.408.33.75.666a5.636,5.636,0,0,1,.558.624l-.72.6a3.863,3.863,0,0,0-.522-.636q-.342-.348-.744-.69A9.7,9.7,0,0,0,25.92-9.252ZM40.944.156a3.939,3.939,0,0,1-1.206-.168,3.567,3.567,0,0,1-.912-.432,5.279,5.279,0,0,1-.7-.564l.552-.72a4.641,4.641,0,0,0,.558.474,2.7,2.7,0,0,0,.7.36,2.726,2.726,0,0,0,.9.138,1.816,1.816,0,0,0,.942-.252,1.814,1.814,0,0,0,.678-.72,2.3,2.3,0,0,0,.252-1.1,2.071,2.071,0,0,0-.5-1.47,1.727,1.727,0,0,0-1.326-.534,1.994,1.994,0,0,0-.756.132,4.209,4.209,0,0,0-.708.384l-.588-.372.288-4.1h4.272v.936H40.08l-.228,2.544a2.607,2.607,0,0,1,.606-.258,2.621,2.621,0,0,1,.714-.09A2.986,2.986,0,0,1,42.5-5.37a2.231,2.231,0,0,1,.96.918,3.163,3.163,0,0,1,.36,1.6,3.053,3.053,0,0,1-.414,1.632A2.808,2.808,0,0,1,42.336-.2,2.9,2.9,0,0,1,40.944.156ZM49.14,0V-6q0-.324.024-.792t.036-.8h-.048q-.168.312-.342.642t-.366.654l-2,3h4.908v.876H45.3v-.72L48.96-8.8h1.212V0ZM54.7,0q.06-1.248.21-2.3a12.812,12.812,0,0,1,.438-1.98,11.19,11.19,0,0,1,.738-1.806,14,14,0,0,1,1.1-1.776H52.908V-8.8h5.508v.66a13.743,13.743,0,0,0-1.254,1.908,9.459,9.459,0,0,0-.756,1.86,12.865,12.865,0,0,0-.4,2.01Q55.884-1.3,55.836,0ZM60.48,2.28l-.264-.648A2.207,2.207,0,0,0,61.1.948a1.539,1.539,0,0,0,.312-.984L61.3-1.02l.54.8a.693.693,0,0,1-.258.186.8.8,0,0,1-.294.054.844.844,0,0,1-.564-.2.7.7,0,0,1-.24-.564.693.693,0,0,1,.246-.564.883.883,0,0,1,.582-.2.79.79,0,0,1,.678.342,1.587,1.587,0,0,1,.246.942,2.492,2.492,0,0,1-.474,1.512A3.04,3.04,0,0,1,60.48,2.28Zm6.4-2.124a3.365,3.365,0,0,1-1.452-.3,2.427,2.427,0,0,1-1-.828,2.1,2.1,0,0,1-.36-1.212A2.367,2.367,0,0,1,64.3-3.246a2.749,2.749,0,0,1,.606-.816,3.894,3.894,0,0,1,.768-.558v-.048a3.441,3.441,0,0,1-.834-.834A2.007,2.007,0,0,1,64.488-6.7a2.127,2.127,0,0,1,.318-1.17,2.2,2.2,0,0,1,.864-.78,2.641,2.641,0,0,1,1.23-.282,2.63,2.63,0,0,1,1.3.3,2.084,2.084,0,0,1,.828.816,2.422,2.422,0,0,1,.288,1.2,2.059,2.059,0,0,1-.186.864,3.221,3.221,0,0,1-.45.726,3.931,3.931,0,0,1-.528.534v.06a3.926,3.926,0,0,1,.72.522,2.392,2.392,0,0,1,.546.744,2.41,2.41,0,0,1,.21,1.05,2.048,2.048,0,0,1-.342,1.146,2.336,2.336,0,0,1-.96.822A3.276,3.276,0,0,1,66.876.156Zm.6-4.932a2.9,2.9,0,0,0,.672-.846,2.034,2.034,0,0,0,.228-.93,1.747,1.747,0,0,0-.174-.792,1.37,1.37,0,0,0-.51-.558,1.486,1.486,0,0,0-.8-.21,1.388,1.388,0,0,0-1.008.384,1.371,1.371,0,0,0-.4,1.032,1.352,1.352,0,0,0,.282.87,2.358,2.358,0,0,0,.738.6A9.064,9.064,0,0,0,67.476-4.776ZM66.888-.66a1.951,1.951,0,0,0,.894-.192,1.45,1.45,0,0,0,.588-.528,1.419,1.419,0,0,0,.21-.768,1.447,1.447,0,0,0-.192-.762,1.98,1.98,0,0,0-.51-.558A3.94,3.94,0,0,0,67.14-3.9q-.42-.192-.888-.372a2.926,2.926,0,0,0-.87.846A2.011,2.011,0,0,0,65.04-2.28a1.5,1.5,0,0,0,.24.828,1.63,1.63,0,0,0,.666.582A2.1,2.1,0,0,0,66.888-.66Zm7.224.816a2.219,2.219,0,0,1-1.446-.5,3.2,3.2,0,0,1-.954-1.524,8.282,8.282,0,0,1-.336-2.556,8.107,8.107,0,0,1,.336-2.538,3.114,3.114,0,0,1,.954-1.494,2.253,2.253,0,0,1,1.446-.492,2.229,2.229,0,0,1,1.452.5,3.176,3.176,0,0,1,.948,1.494,8.049,8.049,0,0,1,.336,2.532,8.282,8.282,0,0,1-.336,2.556,3.221,3.221,0,0,1-.948,1.524A2.212,2.212,0,0,1,74.112.156Zm0-.888a1.2,1.2,0,0,0,.882-.384,2.631,2.631,0,0,0,.588-1.206,8.728,8.728,0,0,0,.21-2.106,8.576,8.576,0,0,0-.21-2.094,2.576,2.576,0,0,0-.588-1.188,1.209,1.209,0,0,0-.882-.378,1.215,1.215,0,0,0-.876.378,2.539,2.539,0,0,0-.594,1.188,8.576,8.576,0,0,0-.21,2.094,8.728,8.728,0,0,0,.21,2.106,2.594,2.594,0,0,0,.594,1.206A1.206,1.206,0,0,0,74.112-.732Zm7.26.888a2.219,2.219,0,0,1-1.446-.5,3.2,3.2,0,0,1-.954-1.524,8.282,8.282,0,0,1-.336-2.556,8.107,8.107,0,0,1,.336-2.538,3.114,3.114,0,0,1,.954-1.494,2.253,2.253,0,0,1,1.446-.492,2.229,2.229,0,0,1,1.452.5,3.176,3.176,0,0,1,.948,1.494,8.049,8.049,0,0,1,.336,2.532,8.282,8.282,0,0,1-.336,2.556,3.221,3.221,0,0,1-.948,1.524A2.212,2.212,0,0,1,81.372.156Zm0-.888a1.2,1.2,0,0,0,.882-.384,2.631,2.631,0,0,0,.588-1.206,8.728,8.728,0,0,0,.21-2.106,8.576,8.576,0,0,0-.21-2.094,2.576,2.576,0,0,0-.588-1.188,1.209,1.209,0,0,0-.882-.378,1.215,1.215,0,0,0-.876.378A2.539,2.539,0,0,0,79.9-6.522a8.576,8.576,0,0,0-.21,2.094,8.728,8.728,0,0,0,.21,2.106A2.594,2.594,0,0,0,80.5-1.116,1.206,1.206,0,0,0,81.372-.732Zm5-8.532h9.408v.888h-8.5V.972h-.912Zm9,0h.912V-.24a1.49,1.49,0,0,1-.12.666.815.815,0,0,1-.432.366,2.9,2.9,0,0,1-.822.132q-.522.024-1.338.024A1.254,1.254,0,0,0,93.5.66q-.06-.168-.126-.33A2.063,2.063,0,0,0,93.24.048q.408.012.786.012h1.05a.366.366,0,0,0,.234-.078.307.307,0,0,0,.066-.222Zm-8.5,4.428h8.928v.888H86.88ZM90.816-8.82h.9v4.428h-.9Zm10.74,4.26a7.916,7.916,0,0,1-.294,2.19,7.588,7.588,0,0,1-.834,1.9,9.467,9.467,0,0,1-1.26,1.62L98.448.78A9.155,9.155,0,0,0,99.636-.768a7.183,7.183,0,0,0,.774-1.776,7.328,7.328,0,0,0,.27-2.016,7.309,7.309,0,0,0-.27-2.022,7.315,7.315,0,0,0-.774-1.776A8.659,8.659,0,0,0,98.448-9.9l.72-.372a8.981,8.981,0,0,1,1.26,1.614,7.717,7.717,0,0,1,.834,1.9A7.9,7.9,0,0,1,101.556-4.56Z" transform="translate(91 948.469)" fill="#fff"/><g transform="translate(243 893.469)"><g transform="translate(20)"><path d="M13.08.48c6.4,0,10.44-3.96,10.44-9.44v-.08c0-5.4-3.92-7.52-7.96-8.16l7.52-7.28v-4.64H3.48v5.28H15.16L8-16.56l1,3.88h2.6c3.64,0,5.88,1.4,5.88,3.88v.08c0,2.24-1.8,3.72-4.32,3.72-3,0-5.12-1.28-7.12-3.56l-4.24,4A13.99,13.99,0,0,0,13.08.48Z" transform="translate(2 36.142)" fill="#fff"/><path d="M1-13.277H16.014v1.989H1ZM6.443-8.5h6.8v1.972h-6.8Zm6.052,0h2.142l-.009.161q-.009.162-.009.383A3,3,0,0,1,14.6-7.6q-.1,1.972-.213,3.374t-.247,2.346a8.986,8.986,0,0,1-.323,1.5,2.464,2.464,0,0,1-.442.85,2.056,2.056,0,0,1-.807.612,4.082,4.082,0,0,1-1.011.238q-.51.051-1.318.051T8.585,1.343A3.954,3.954,0,0,0,8.347.331a4.4,4.4,0,0,0-.493-.994q.884.068,1.683.085t1.173.017A2.108,2.108,0,0,0,11.169-.6a.76.76,0,0,0,.34-.178,2.057,2.057,0,0,0,.45-1.062,19.591,19.591,0,0,0,.306-2.38q.128-1.556.229-3.935ZM4.981-11.577H7.14q-.051,1.445-.161,2.924a23.733,23.733,0,0,1-.4,2.915,14.116,14.116,0,0,1-.85,2.754A9.959,9.959,0,0,1,4.216-.519,9.175,9.175,0,0,1,1.8,1.5,4.583,4.583,0,0,0,1.156.62,6.047,6.047,0,0,0,.323-.153,8.381,8.381,0,0,0,2.524-1.9,8.071,8.071,0,0,0,3.876-4.046,10.953,10.953,0,0,0,4.59-6.468a21.419,21.419,0,0,0,.289-2.559Q4.947-10.319,4.981-11.577ZM19.21-13.362H32.538v2.023H21.25V1.513H19.21Zm12.359,0h2.057v12.5a3.282,3.282,0,0,1-.2,1.283,1.442,1.442,0,0,1-.731.723,3.66,3.66,0,0,1-1.318.314q-.791.059-1.93.059a5.211,5.211,0,0,0-.17-.663Q29.155.476,29,.111A6.163,6.163,0,0,0,28.7-.527q.493.034.994.043t.892.008h.544a.56.56,0,0,0,.34-.11.411.411,0,0,0,.1-.314ZM20.315-7.038H32.572v2.006H20.315Zm4.964-5.219h2.04v6.222h-2.04Z" transform="translate(29.5 35.142)" fill="#fff"/></g><path d="M8.34-4.56a7.9,7.9,0,0,1,.294-2.2,7.717,7.717,0,0,1,.834-1.9,8.981,8.981,0,0,1,1.26-1.614l.72.372A8.659,8.659,0,0,0,10.26-8.358a7.316,7.316,0,0,0-.774,1.776,7.309,7.309,0,0,0-.27,2.022,7.328,7.328,0,0,0,.27,2.016A7.183,7.183,0,0,0,10.26-.768,9.155,9.155,0,0,0,11.448.78l-.72.372a9.467,9.467,0,0,1-1.26-1.62,7.588,7.588,0,0,1-.834-1.9A7.916,7.916,0,0,1,8.34-4.56Zm9.768-5.184.756-.324a10.442,10.442,0,0,1,.642,1.05,6.148,6.148,0,0,1,.438.978l-.792.372a6.062,6.062,0,0,0-.414-1.008A8.448,8.448,0,0,0,18.108-9.744Zm4.464-.348.9.336q-.288.528-.618,1.092t-.618.972l-.756-.3q.192-.288.4-.654t.39-.744A7.519,7.519,0,0,0,22.572-10.092ZM19.224-3.936h.9a11.436,11.436,0,0,1-.24,1.524A6.1,6.1,0,0,1,19.4-1.044,4.192,4.192,0,0,1,18.552.1a4.562,4.562,0,0,1-1.344.87,2.528,2.528,0,0,0-.246-.36,2.218,2.218,0,0,0-.306-.324,4.042,4.042,0,0,0,1.212-.75,3.482,3.482,0,0,0,.744-.99,5.045,5.045,0,0,0,.414-1.182A10.4,10.4,0,0,0,19.224-3.936Zm1.9-.108H22V-.36a.575.575,0,0,0,.048.294q.048.066.24.066h.8a.22.22,0,0,0,.2-.1,1.083,1.083,0,0,0,.1-.426q.03-.324.042-.972a1.014,1.014,0,0,0,.222.138,2.816,2.816,0,0,0,.294.12l.264.09A6.836,6.836,0,0,1,24.066.054a1.054,1.054,0,0,1-.312.594.887.887,0,0,1-.57.168H22.152a1.518,1.518,0,0,1-.636-.108A.585.585,0,0,1,21.2.342a2.346,2.346,0,0,1-.084-.7ZM18.84-6.852v2.34h3.792v-2.34Zm-.864-.8H23.52V-3.72H17.976ZM15.144-9.084h.888V.936h-.888ZM13.188-6.7h4.344v.84H13.188Zm2,.324.564.24q-.18.636-.444,1.314t-.57,1.344a14,14,0,0,1-.648,1.248,6.963,6.963,0,0,1-.69.99,3.4,3.4,0,0,0-.21-.42q-.138-.24-.258-.408a6.094,6.094,0,0,0,.66-.864q.324-.5.63-1.092t.558-1.194A10.379,10.379,0,0,0,15.192-6.372Zm1.74-3.54.624.7a12.345,12.345,0,0,1-1.26.408q-.708.192-1.458.33t-1.458.234a1.561,1.561,0,0,0-.108-.342q-.084-.2-.156-.342.672-.12,1.386-.264t1.35-.33A7.99,7.99,0,0,0,16.932-9.912ZM15.984-5.16q.12.108.354.342t.51.5q.276.27.5.51t.318.348l-.54.708q-.108-.18-.306-.456t-.438-.588q-.24-.312-.456-.576t-.36-.42ZM30.06-9.468h2.52v.852H30.06Zm1.968,0h.984a24.429,24.429,0,0,0,.36,2.586,11.2,11.2,0,0,0,.666,2.22A6.809,6.809,0,0,0,35.106-2.9,5.069,5.069,0,0,0,36.648-1.68a1.332,1.332,0,0,0-.24.18q-.132.12-.258.252t-.21.24a5.694,5.694,0,0,1-1.566-1.326,7.366,7.366,0,0,1-1.086-1.824A12.024,12.024,0,0,1,32.6-6.414a24.691,24.691,0,0,1-.384-2.622h-.192Zm.048,2.316L33-7.008a11.944,11.944,0,0,1-1.278,3.54,7.635,7.635,0,0,1-2.2,2.46,1.8,1.8,0,0,0-.186-.21q-.126-.126-.27-.252t-.252-.21A6.2,6.2,0,0,0,30.93-3.912,10.717,10.717,0,0,0,32.076-7.152ZM28.344-5.34v4.248h-.876V-4.5h-1.68v-.84Zm0,3.852a2.6,2.6,0,0,0,1.2.984,5.1,5.1,0,0,0,1.812.36q.492.024,1.194.03T34.026-.12Q34.8-.132,35.52-.156t1.26-.06a1.4,1.4,0,0,0-.12.264q-.06.168-.108.342T36.48.7q-.492.024-1.164.036T33.924.75q-.72.006-1.4,0T31.356.732a6.048,6.048,0,0,1-2.01-.384,3.416,3.416,0,0,1-1.41-1.056q-.432.384-.888.774t-.948.8L25.632-.06q.432-.288.93-.666t.966-.762ZM25.92-9.252l.66-.54a8.773,8.773,0,0,1,.8.582q.408.33.75.666a5.636,5.636,0,0,1,.558.624l-.72.6a3.863,3.863,0,0,0-.522-.636q-.342-.348-.744-.69A9.7,9.7,0,0,0,25.92-9.252ZM40.956.156A3.939,3.939,0,0,1,39.75-.012a3.434,3.434,0,0,1-.918-.444,3.868,3.868,0,0,1-.684-.6l.564-.708a4.237,4.237,0,0,0,.906.7,2.463,2.463,0,0,0,1.266.306,2.08,2.08,0,0,0,.93-.2,1.512,1.512,0,0,0,.63-.564,1.612,1.612,0,0,0,.228-.87,1.654,1.654,0,0,0-.258-.924,1.671,1.671,0,0,0-.858-.618,4.8,4.8,0,0,0-1.62-.222v-.84a3.8,3.8,0,0,0,1.44-.222,1.562,1.562,0,0,0,.762-.606,1.605,1.605,0,0,0,.234-.852,1.336,1.336,0,0,0-.4-1.014,1.517,1.517,0,0,0-1.092-.378,2.117,2.117,0,0,0-.99.24,3.371,3.371,0,0,0-.834.612l-.588-.7a4.814,4.814,0,0,1,1.1-.75,3,3,0,0,1,1.35-.294,3.241,3.241,0,0,1,1.326.258,2.087,2.087,0,0,1,.912.75,2.083,2.083,0,0,1,.33,1.188,2.034,2.034,0,0,1-.432,1.332,2.539,2.539,0,0,1-1.128.78v.06a2.611,2.611,0,0,1,.936.42,2.26,2.26,0,0,1,.672.756,2.148,2.148,0,0,1,.252,1.056A2.33,2.33,0,0,1,43.4-1.008a2.5,2.5,0,0,1-1.02.864A3.307,3.307,0,0,1,40.956.156Zm7.26,0A3.939,3.939,0,0,1,47.01-.012a3.434,3.434,0,0,1-.918-.444,3.868,3.868,0,0,1-.684-.6l.564-.708a4.237,4.237,0,0,0,.906.7,2.463,2.463,0,0,0,1.266.306,2.08,2.08,0,0,0,.93-.2,1.512,1.512,0,0,0,.63-.564,1.612,1.612,0,0,0,.228-.87,1.654,1.654,0,0,0-.258-.924,1.671,1.671,0,0,0-.858-.618,4.8,4.8,0,0,0-1.62-.222v-.84a3.8,3.8,0,0,0,1.44-.222A1.562,1.562,0,0,0,49.4-5.82a1.605,1.605,0,0,0,.234-.852,1.336,1.336,0,0,0-.4-1.014,1.517,1.517,0,0,0-1.092-.378,2.117,2.117,0,0,0-.99.24,3.371,3.371,0,0,0-.834.612l-.588-.7a4.814,4.814,0,0,1,1.1-.75,3,3,0,0,1,1.35-.294,3.241,3.241,0,0,1,1.326.258,2.087,2.087,0,0,1,.912.75,2.083,2.083,0,0,1,.33,1.188,2.034,2.034,0,0,1-.432,1.332,2.539,2.539,0,0,1-1.128.78v.06a2.611,2.611,0,0,1,.936.42,2.26,2.26,0,0,1,.672.756,2.148,2.148,0,0,1,.252,1.056,2.33,2.33,0,0,1-.384,1.344,2.5,2.5,0,0,1-1.02.864A3.307,3.307,0,0,1,48.216.156Zm5,2.124-.264-.648a2.207,2.207,0,0,0,.888-.684,1.539,1.539,0,0,0,.312-.984l-.12-.984.54.8a.693.693,0,0,1-.258.186.8.8,0,0,1-.294.054.844.844,0,0,1-.564-.2.7.7,0,0,1-.24-.564.693.693,0,0,1,.246-.564.883.883,0,0,1,.582-.2.79.79,0,0,1,.678.342,1.587,1.587,0,0,1,.246.942A2.492,2.492,0,0,1,54.5,1.284,3.04,3.04,0,0,1,53.22,2.28ZM59.592.156a2.219,2.219,0,0,1-1.446-.5,3.2,3.2,0,0,1-.954-1.524,8.282,8.282,0,0,1-.336-2.556,8.107,8.107,0,0,1,.336-2.538,3.114,3.114,0,0,1,.954-1.494,2.253,2.253,0,0,1,1.446-.492,2.229,2.229,0,0,1,1.452.5,3.176,3.176,0,0,1,.948,1.494,8.049,8.049,0,0,1,.336,2.532,8.282,8.282,0,0,1-.336,2.556,3.221,3.221,0,0,1-.948,1.524A2.212,2.212,0,0,1,59.592.156Zm0-.888a1.2,1.2,0,0,0,.882-.384,2.631,2.631,0,0,0,.588-1.206,8.728,8.728,0,0,0,.21-2.106,8.576,8.576,0,0,0-.21-2.094,2.576,2.576,0,0,0-.588-1.188,1.209,1.209,0,0,0-.882-.378,1.215,1.215,0,0,0-.876.378,2.539,2.539,0,0,0-.594,1.188,8.575,8.575,0,0,0-.21,2.094,8.728,8.728,0,0,0,.21,2.106,2.594,2.594,0,0,0,.594,1.206A1.206,1.206,0,0,0,59.592-.732Zm7.26.888a2.219,2.219,0,0,1-1.446-.5,3.2,3.2,0,0,1-.954-1.524,8.282,8.282,0,0,1-.336-2.556,8.107,8.107,0,0,1,.336-2.538,3.114,3.114,0,0,1,.954-1.494,2.253,2.253,0,0,1,1.446-.492,2.229,2.229,0,0,1,1.452.5,3.176,3.176,0,0,1,.948,1.494,8.049,8.049,0,0,1,.336,2.532,8.282,8.282,0,0,1-.336,2.556A3.221,3.221,0,0,1,68.3-.348,2.212,2.212,0,0,1,66.852.156Zm0-.888a1.2,1.2,0,0,0,.882-.384,2.631,2.631,0,0,0,.588-1.206,8.728,8.728,0,0,0,.21-2.106,8.576,8.576,0,0,0-.21-2.094,2.576,2.576,0,0,0-.588-1.188,1.209,1.209,0,0,0-.882-.378,1.215,1.215,0,0,0-.876.378,2.539,2.539,0,0,0-.594,1.188,8.576,8.576,0,0,0-.21,2.094,8.728,8.728,0,0,0,.21,2.106,2.594,2.594,0,0,0,.594,1.206A1.206,1.206,0,0,0,66.852-.732Zm7.26.888a2.219,2.219,0,0,1-1.446-.5,3.2,3.2,0,0,1-.954-1.524,8.282,8.282,0,0,1-.336-2.556,8.107,8.107,0,0,1,.336-2.538,3.114,3.114,0,0,1,.954-1.494,2.253,2.253,0,0,1,1.446-.492,2.229,2.229,0,0,1,1.452.5,3.176,3.176,0,0,1,.948,1.494,8.049,8.049,0,0,1,.336,2.532,8.282,8.282,0,0,1-.336,2.556,3.221,3.221,0,0,1-.948,1.524A2.212,2.212,0,0,1,74.112.156Zm0-.888a1.2,1.2,0,0,0,.882-.384,2.631,2.631,0,0,0,.588-1.206,8.728,8.728,0,0,0,.21-2.106,8.576,8.576,0,0,0-.21-2.094,2.576,2.576,0,0,0-.588-1.188,1.209,1.209,0,0,0-.882-.378,1.215,1.215,0,0,0-.876.378,2.539,2.539,0,0,0-.594,1.188,8.576,8.576,0,0,0-.21,2.094,8.728,8.728,0,0,0,.21,2.106,2.594,2.594,0,0,0,.594,1.206A1.206,1.206,0,0,0,74.112-.732Zm5-8.532h9.408v.888h-8.5V.972h-.912Zm9,0h.912V-.24a1.49,1.49,0,0,1-.12.666.815.815,0,0,1-.432.366,2.9,2.9,0,0,1-.822.132q-.522.024-1.338.024A1.254,1.254,0,0,0,86.244.66q-.06-.168-.126-.33A2.063,2.063,0,0,0,85.98.048q.408.012.786.012h1.05a.366.366,0,0,0,.234-.078.307.307,0,0,0,.066-.222Zm-8.5,4.428h8.928v.888H79.62ZM83.556-8.82h.9v4.428h-.9ZM94.3-4.56A7.916,7.916,0,0,1,94-2.37a7.588,7.588,0,0,1-.834,1.9,9.467,9.467,0,0,1-1.26,1.62L91.188.78A9.155,9.155,0,0,0,92.376-.768a7.183,7.183,0,0,0,.774-1.776,7.328,7.328,0,0,0,.27-2.016,7.309,7.309,0,0,0-.27-2.022,7.315,7.315,0,0,0-.774-1.776A8.659,8.659,0,0,0,91.188-9.9l.72-.372a8.981,8.981,0,0,1,1.26,1.614A7.717,7.717,0,0,1,94-6.756,7.9,7.9,0,0,1,94.3-4.56Z" transform="translate(4 54.784)" fill="#fff"/></g><g transform="translate(0 -49)"><path d="M10,0A10,10,0,1,1,0,10,10,10,0,0,1,10,0Z" transform="translate(224 955.469)" fill="#fff"/><path d="M3.71-1.512H5.7V-4.158H8.372V-6.09H5.7V-8.736H3.71V-6.09H1.05v1.932H3.71Z" transform="translate(230 970.471)" fill="#011b39"/></g><path d="M5-5.9a.722.722,0,0,1-.53-.22.722.722,0,0,1-.22-.53.722.722,0,0,1,.22-.53A.722.722,0,0,1,5-7.4a.722.722,0,0,1,.53.22.722.722,0,0,1,.22.53.722.722,0,0,1-.22.53A.722.722,0,0,1,5-5.9ZM5-4.09l3.3-3.3.29.29L5.29-3.8,8.59-.5,8.3-.21,5-3.51,1.69-.2,1.4-.49,4.71-3.8,1.41-7.1l.29-.29ZM2.9-3.8a.722.722,0,0,1-.22.53.722.722,0,0,1-.53.22.722.722,0,0,1-.53-.22A.722.722,0,0,1,1.4-3.8a.722.722,0,0,1,.22-.53.722.722,0,0,1,.53-.22.722.722,0,0,1,.53.22A.722.722,0,0,1,2.9-3.8Zm4.2,0a.722.722,0,0,1,.22-.53.722.722,0,0,1,.53-.22.722.722,0,0,1,.53.22.722.722,0,0,1,.22.53.722.722,0,0,1-.22.53.722.722,0,0,1-.53.22.722.722,0,0,1-.53-.22A.722.722,0,0,1,7.1-3.8ZM5-1.7a.722.722,0,0,1,.53.22.722.722,0,0,1,.22.53.722.722,0,0,1-.22.53A.722.722,0,0,1,5-.2a.722.722,0,0,1-.53-.22.722.722,0,0,1-.22-.53.722.722,0,0,1,.22-.53A.722.722,0,0,1,5-1.7Z" transform="translate(177 909.725)" fill="#2e2624"/></g></svg>