<svg xmlns="http://www.w3.org/2000/svg" xmlns:xlink="http://www.w3.org/1999/xlink" width="37.704" height="25" viewBox="0 0 37.704 25"><defs><clipPath id="a"><rect width="37.704" height="25" fill="#fff"/></clipPath></defs><g clip-path="url(#a)"><path d="M15.123,2.594A8.859,8.859,0,0,0,2.594,15.123a8.784,8.784,0,0,0,2.274,1.6L2.482,25H5.246l9.877-9.876a8.859,8.859,0,0,0,0-12.529" transform="translate(0 0)" fill="#fff"/><path d="M45.846,2.594A8.859,8.859,0,1,0,33.317,15.123a8.761,8.761,0,0,0,2.274,1.6L33.2,25h2.764l9.877-9.876a8.859,8.859,0,0,0,0-12.529" transform="translate(-10.737 0)" fill="#fff"/></g></svg>