<svg xmlns="http://www.w3.org/2000/svg" width="321.866" height="38" viewBox="0 0 321.866 38"><path d="M230.4,34.365h5.661l6.276,10.1,6.275-10.1h5.662V58.24H249.06V42.653l-6.719,10.2H242.2l-6.651-10.1V58.24H230.4Z" transform="translate(-179.913 -26.834)" fill="#fff"/><path d="M365.5,34.365h18.008v4.673h-12.79v4.843h11.255v4.673H370.722v5.014h12.96V58.24H365.5Z" transform="translate(-285.408 -26.834)" fill="#fff"/><path d="M469.786,34.365H480.7c3.035,0,5.389.853,6.958,2.422a7.494,7.494,0,0,1,2.046,5.457v.068a7.415,7.415,0,0,1-5.116,7.4l5.832,8.526h-6.139l-5.116-7.64h-4.127v7.64h-5.252Zm10.573,11.6c2.558,0,4.025-1.365,4.025-3.377v-.068c0-2.251-1.569-3.41-4.127-3.41h-5.218v6.855Z" transform="translate(-366.836 -26.834)" fill="#fff"/><path d="M577.491,44.913v-.068A12.134,12.134,0,0,1,589.94,32.5a12.318,12.318,0,0,1,9.414,3.684l-3.342,3.854a8.812,8.812,0,0,0-6.105-2.694c-4.024,0-6.923,3.342-6.923,7.435v.068c0,4.093,2.831,7.5,6.923,7.5,2.728,0,4.4-1.091,6.276-2.8l3.343,3.377a12.2,12.2,0,0,1-9.789,4.263,12.051,12.051,0,0,1-12.244-12.278" transform="translate(-450.939 -25.376)" fill="#fff"/><path d="M721.206,34.365H738.19V36H722.979v9.379h13.677v1.637H722.979V56.6h15.382V58.24H721.206Z" transform="translate(-563.159 -26.834)" fill="#fff"/><path d="M818.635,45.965V45.9c0-5.661,4.264-9.106,8.459-9.106a8.368,8.368,0,0,1,7.162,4.161V29.7h1.671v24.9h-1.671V50.706c-1.5,2.285-3.719,4.3-7.162,4.3a8.639,8.639,0,0,1-8.459-9.038m15.724-.034v-.068a7.264,7.264,0,0,0-7.095-7.469c-3.786,0-6.821,2.763-6.821,7.436V45.9c0,4.57,3.172,7.5,6.821,7.5a7.286,7.286,0,0,0,7.095-7.469" transform="translate(-639.238 -23.188)" fill="#fff"/><path d="M924.942,74.577V63.936h1.671V74.27c0,3.581,2.013,5.935,5.526,5.935A5.963,5.963,0,0,0,938.176,74V63.936h1.671V81.33h-1.671V78.09a6.811,6.811,0,0,1-6.275,3.649c-4.4,0-6.958-3-6.958-7.162" transform="translate(-722.25 -49.925)" fill="#fff"/><path d="M1016.459,71.243v-.068a9.033,9.033,0,0,1,8.868-9.106,9.128,9.128,0,0,1,6.957,3.206l-1.194,1.228c-1.5-1.535-3.205-2.865-5.8-2.865a7.187,7.187,0,0,0-7.026,7.469v.068a7.315,7.315,0,0,0,7.163,7.538,7.773,7.773,0,0,0,5.833-2.9l1.159,1.023a8.92,8.92,0,0,1-15.962-5.594" transform="translate(-793.711 -48.467)" fill="#fff"/><path d="M1104.243,75.309V75.24c0-3.615,3.1-5.661,7.605-5.661a20.955,20.955,0,0,1,5.765.75v-.75c0-3.513-2.149-5.321-5.73-5.321a11.658,11.658,0,0,0-5.457,1.4l-.614-1.466a13.97,13.97,0,0,1,6.173-1.5,7.517,7.517,0,0,1,5.492,1.91,6.605,6.605,0,0,1,1.773,4.911V80.357h-1.637v-2.9a7.912,7.912,0,0,1-6.651,3.308c-3.241,0-6.719-1.841-6.719-5.457m13.4-1.467V71.864a23.044,23.044,0,0,0-5.9-.785c-3.684,0-5.73,1.637-5.73,4.059v.068c0,2.524,2.388,3.99,5.048,3.99,3.547,0,6.582-2.183,6.582-5.355" transform="translate(-862.258 -48.951)" fill="#fff"/><path d="M1195.326,57.053V45.661H1192.8V44.126h2.525V38.567H1197v5.559h6.1v1.535H1197V56.882c0,2.489,1.467,3.377,3.479,3.377a5.826,5.826,0,0,0,2.558-.614v1.569a6.391,6.391,0,0,1-2.831.614c-2.693,0-4.876-1.467-4.876-4.775" transform="translate(-931.41 -30.115)" fill="#fff"/><path d="M1262.532,32.807h2.081v2.286h-2.081Zm.2,6.822h1.671V57.023h-1.671Z" transform="translate(-985.858 -25.617)" fill="#fff"/><path d="M1295.682,71.243v-.068a8.987,8.987,0,0,1,8.97-9.106,8.893,8.893,0,0,1,8.9,9.038v.068a8.987,8.987,0,0,1-8.969,9.107,8.894,8.894,0,0,1-8.9-9.038m16.064,0v-.068a7.293,7.293,0,0,0-7.161-7.537,7.177,7.177,0,0,0-7.1,7.469v.068a7.293,7.293,0,0,0,7.163,7.538,7.176,7.176,0,0,0,7.094-7.469" transform="translate(-1011.746 -48.467)" fill="#fff"/><path d="M1400.742,62.478h1.671v3.24a6.812,6.812,0,0,1,6.276-3.649c4.4,0,6.957,3,6.957,7.162V79.872h-1.671V69.538c0-3.581-2.011-5.935-5.525-5.935a5.964,5.964,0,0,0-6.037,6.208V79.872h-1.671Z" transform="translate(-1093.78 -48.467)" fill="#fff"/><path d="M59.175,72.652a1.307,1.307,0,0,1-1.307-1.307V48.1L32.192,64.818a1.308,1.308,0,0,1-1.427-2.192l27.7-18.039a1.308,1.308,0,0,1,2.021,1.1V71.344a1.307,1.307,0,0,1-1.307,1.307" transform="translate(-23.56 -34.652)" fill="#fff"/><path d="M31.479,20.654a1.308,1.308,0,0,1-.714-2.4L58.46.212A1.308,1.308,0,0,1,59.887,2.4l-27.7,18.039a1.3,1.3,0,0,1-.712.211" transform="translate(-23.559 0)" fill="#fff"/><path d="M1.307,38A1.307,1.307,0,0,1,0,36.693V1.308A1.307,1.307,0,0,1,2.012.207l10.86,6.954a1.307,1.307,0,1,1-1.41,2.2L2.615,3.7v33A1.307,1.307,0,0,1,1.307,38" transform="translate(0 0)" fill="#e84830"/></svg>