<svg xmlns="http://www.w3.org/2000/svg" xmlns:xlink="http://www.w3.org/1999/xlink" width="37.704" height="25" viewBox="0 0 37.704 25"><defs><clipPath id="a"><rect width="37.704" height="25" fill="#fff"/></clipPath></defs><g clip-path="url(#a)"><path d="M2.594,22.4A8.859,8.859,0,0,0,15.123,9.876a8.784,8.784,0,0,0-2.274-1.6L15.235,0H12.471L2.594,9.876a8.859,8.859,0,0,0,0,12.529" transform="translate(19.986 0.001)" fill="#fff"/><path d="M33.317,22.4A8.859,8.859,0,0,0,45.846,9.876a8.761,8.761,0,0,0-2.274-1.6L45.958,0H43.194L33.317,9.876a8.859,8.859,0,0,0,0,12.529" transform="translate(-30.723 0.001)" fill="#fff"/></g></svg>