<svg xmlns="http://www.w3.org/2000/svg" xmlns:xlink="http://www.w3.org/1999/xlink" width="325" height="459" viewBox="0 0 325 459"><defs><clipPath id="a"><rect width="252" height="252" transform="translate(-0.043 -0.123)" fill="none"/></clipPath><clipPath id="b"><rect width="251.753" height="251.753" fill="none"/></clipPath></defs><g transform="translate(-4273 16686.713)"><g transform="translate(4248 -18452.713)"><rect width="325" height="440" rx="20" transform="translate(25 1785)" fill="#fff"/><rect width="193" height="40" rx="20" transform="translate(91 1766)" fill="#fff"/><path d="M20,2A18,18,0,0,0,7.272,32.728,17.882,17.882,0,0,0,20,38H173A18,18,0,0,0,185.728,7.272,17.882,17.882,0,0,0,173,2H20m0-2H173a20,20,0,0,1,0,40H20A20,20,0,0,1,20,0Z" transform="translate(91 1766)" fill="#002f65"/><g transform="translate(0 -11)"><text transform="translate(87 2170)" fill="#d92a0f" font-size="14" font-family="NotoSansJP-SemiBold, Noto Sans JP" font-weight="600"><tspan x="0" y="0">初心者</tspan><tspan y="0">でも</tspan><tspan y="0">安心</tspan><tspan y="0" fill="#333">のフォロー</tspan><tspan y="0" fill="#333">体制</tspan></text><g transform="translate(31.999 489.863)"><path d="M10.7,33.317A10.9,10.9,0,1,1,15.086,12.35,1.271,1.271,0,1,1,14.11,14.7a8.36,8.36,0,1,0,5.149,7.872,8.423,8.423,0,0,0-.11-1.522,1.271,1.271,0,0,1,2.508-.414A10.911,10.911,0,0,1,10.7,33.317" transform="translate(27.001 1652.987)" fill="#011b39"/><path d="M167.406,4.707l-5.934,6.86L158.159,7.3c-.716-1.166-3.428.947-2.961,2.141l4.311,6.233c1.147,1.723,2.758,1.357,3.7-.085,0,0,10.369-15.064,9.965-15.385-1-.792-2.281.667-5.77,4.5" transform="translate(-123.187 1664.137)" fill="#d92a0f"/></g><path d="M-10759,3315.334h-100v-8h100Z" transform="translate(10944.5 -1137.334)" fill="#d92a0f" opacity="0.12"/><g transform="translate(0 -3)"><g transform="translate(0 -4)"><text transform="translate(87 2211)" fill="#333" font-size="14" font-family="NotoSansJP-SemiBold, Noto Sans JP" font-weight="600"><tspan x="0" y="0">授業外</tspan><tspan y="0">でも</tspan><tspan y="0" fill="#d92a0f">スラックで</tspan><tspan y="0" fill="#d92a0f">随時質問</tspan><tspan y="0" fill="#d92a0f">OK！</tspan></text><g transform="translate(31.999 530.863)"><path d="M10.7,33.317A10.9,10.9,0,1,1,15.086,12.35,1.271,1.271,0,1,1,14.11,14.7a8.36,8.36,0,1,0,5.149,7.872,8.423,8.423,0,0,0-.11-1.522,1.271,1.271,0,0,1,2.508-.414A10.911,10.911,0,0,1,10.7,33.317" transform="translate(27.001 1652.987)" fill="#011b39"/><path d="M167.406,4.707l-5.934,6.86L158.159,7.3c-.716-1.166-3.428.947-2.961,2.141l4.311,6.233c1.147,1.723,2.758,1.357,3.7-.085,0,0,10.369-15.064,9.965-15.385-1-.792-2.281.667-5.77,4.5" transform="translate(-123.187 1664.137)" fill="#d92a0f"/></g><path d="M-10699,3315.334h-160v-8h160Z" transform="translate(11014.5 -1097.334)" fill="#d92a0f" opacity="0.12"/></g></g></g><text transform="translate(188 1792)" fill="#002f65" font-size="16" font-family="HiraginoSans-W6, Hiragino Sans"><tspan x="-70.88" y="0">毎週の学習サイクル</tspan></text><g transform="translate(0 -13)"><g transform="translate(0 -19)"><g transform="translate(62.043 1881.123)"><g transform="translate(0 0)" clip-path="url(#a)"><path d="M563.766,120.035H678.63a5.4,5.4,0,0,0,5.4-5.4v-74A40.63,40.63,0,0,0,643.4,0H569.165a5.4,5.4,0,0,0-5.4,5.4Z" transform="translate(-432.276 -0.004)" fill="#43d1a1"/><path d="M120.263,120.035V5.4a5.4,5.4,0,0,0-5.4-5.4H40.63A40.63,40.63,0,0,0,0,40.634v74a5.4,5.4,0,0,0,5.4,5.4Z" transform="translate(0 -0.004)" fill="#9ed342"/><path d="M120.263,562.773H5.4a5.4,5.4,0,0,0-5.4,5.4v74.467a40.629,40.629,0,0,0,40.629,40.63h74.235a5.4,5.4,0,0,0,5.4-5.4Z" transform="translate(0 -431.516)" fill="#40d3e2"/><path d="M563.766,562.773v115.1a5.4,5.4,0,0,0,5.4,5.4H643.4a40.63,40.63,0,0,0,40.63-40.63V568.172a5.4,5.4,0,0,0-5.4-5.4Z" transform="translate(-432.276 -431.516)" fill="#41a7e0"/></g></g><g transform="translate(62.043 1880.867)"><g transform="translate(0 0)" clip-path="url(#b)"><path d="M101.971,80H272.465a21.971,21.971,0,0,1,21.971,21.971V272.469a21.971,21.971,0,0,1-21.971,21.971H101.971A21.971,21.971,0,0,1,80,272.469V101.975A21.971,21.971,0,0,1,101.971,80" transform="translate(-61.341 -61.345)" fill="#fff"/></g></g><g transform="translate(62.043 1880.867)" clip-path="url(#b)"><path d="M335.668,536.573h-175.7a.933.933,0,1,1,0-1.866h175.7a.933.933,0,1,1,0,1.866" transform="translate(-121.94 -409.996)" fill="#eaeaea"/><path d="M537.627,336.605a.933.933,0,0,1-.933-.933v-175.7a.933.933,0,0,1,1.866,0v175.7a.933.933,0,0,1-.933.933" transform="translate(-411.518 -121.944)" fill="#eaeaea"/></g><text transform="translate(138 1982)" fill="#011b39" font-size="12" font-family="Noto Sans JP" font-weight="500"><tspan x="-12" y="0">予習</tspan></text><text transform="translate(137 2082)" fill="#011b39" font-size="12" font-family="Noto Sans JP" font-weight="500"><tspan x="-23.88" y="0">フィード</tspan><tspan x="-18" y="14">バック</tspan></text><g transform="translate(126.66 1928.326)"><g transform="translate(0 0)"><path d="M23.777,33.065H1.6A1.549,1.549,0,0,1,.05,31.517V1.6A1.549,1.549,0,0,1,1.6.05h22.18A1.549,1.549,0,0,1,25.325,1.6v6.64a.75.75,0,0,1-1.5,0V1.6a.047.047,0,0,0-.048-.048H1.6A.047.047,0,0,0,1.55,1.6V31.517a.048.048,0,0,0,.048.048h22.18a.048.048,0,0,0,.048-.048V19.244a.75.75,0,0,1,1.5,0V31.517A1.549,1.549,0,0,1,23.777,33.065Z" transform="translate(-0.8 -0.8)" fill="#011b39"/><path d="M11.994.75H0A.75.75,0,0,1-.75,0,.75.75,0,0,1,0-.75H11.994a.75.75,0,0,1,.75.75A.75.75,0,0,1,11.994.75Z" transform="translate(5.769 6.549)" fill="#011b39"/><path d="M11.994.75H0A.75.75,0,0,1-.75,0,.75.75,0,0,1,0-.75H11.994a.75.75,0,0,1,.75.75A.75.75,0,0,1,11.994.75Z" transform="translate(5.768 12.688)" fill="#011b39"/><path d="M6.267.75H0A.75.75,0,0,1-.75,0,.75.75,0,0,1,0-.75H6.267a.75.75,0,0,1,.75.75A.75.75,0,0,1,6.267.75Z" transform="translate(5.769 18.827)" fill="#011b39"/><path d="M61.536,21.39a.75.75,0,0,1-.53-1.28l5.028-5.028-1.263-1.263a.75.75,0,0,1,1.061-1.061L67.177,14.1a1.384,1.384,0,0,1,0,1.957l-5.11,5.11A.748.748,0,0,1,61.536,21.39Z" transform="translate(-31.92 -7.199)" fill="#011b39"/><path d="M29.844,28.581a2.688,2.688,0,0,1-1.9-4.588L44.8,7.138a.75.75,0,0,1,1.061,0l2.74,2.74L47.54,10.939l-2.21-2.21L29,25.053a1.188,1.188,0,1,0,1.679,1.68L46.161,11.258l1.061,1.061L31.744,27.794A2.669,2.669,0,0,1,29.844,28.581Z" transform="translate(-14.689 -4.319)" fill="#011b39"/><path d="M.53,1.152-.53.091.091-.53,1.152.53Z" transform="translate(12.129 23.979)" fill="#011b39"/><path d="M0,1.667a.748.748,0,0,1-.53-.22A.75.75,0,0,1-.53.387L.386-.53a.75.75,0,0,1,1.061,0,.75.75,0,0,1,0,1.061L.53,1.447A.748.748,0,0,1,0,1.667Z" transform="translate(11.213 24.601)" fill="#011b39"/></g></g><g transform="translate(217.291 1928.199)"><g transform="translate(0 0)"><path d="M4.821.9H0V-.9H4.821Z" transform="translate(7.81 31.078)" fill="#011b39"/><path d="M12.416,25.885H2.867A2.82,2.82,0,0,1,.05,23.068V2.867A2.82,2.82,0,0,1,2.867.05H30.289a2.82,2.82,0,0,1,2.817,2.817V8.91h-1.5V2.867A1.319,1.319,0,0,0,30.289,1.55H2.867A1.319,1.319,0,0,0,1.55,2.867v20.2a1.319,1.319,0,0,0,1.317,1.317h9.549Z" transform="translate(-0.8 -0.8)" fill="#011b39"/><path d="M47.268,27.766a5.294,5.294,0,1,1,5.294-5.294A5.3,5.3,0,0,1,47.268,27.766Zm0-8.788a3.494,3.494,0,1,0,3.494,3.494A3.5,3.5,0,0,0,47.268,18.978Z" transform="translate(-20.093 -8.723)" fill="#011b39"/><path d="M53.368,53.581h-1.8V42.944A2.651,2.651,0,0,0,48.92,40.3H36.712a2.651,2.651,0,0,0-2.648,2.648V53.581h-1.8V42.944A4.453,4.453,0,0,1,36.712,38.5H48.92a4.453,4.453,0,0,1,4.448,4.448Z" transform="translate(-15.64 -18.498)" fill="#011b39"/><path d="M.9,4.5H-.9V0H.9Z" transform="translate(12.63 26.574)" fill="#011b39"/><path d="M3.4.9H0V-.9H3.4Z" transform="translate(11.616 24.335)" fill="#011b39"/><path d="M2.766-.9A3.666,3.666,0,1,1-.9,2.766,3.67,3.67,0,0,1,2.766-.9Zm0,5.531A1.866,1.866,0,1,0,.9,2.766,1.868,1.868,0,0,0,2.766,4.631Z" transform="translate(8.674 4.193)" fill="#011b39"/><path d="M23.76,29.587h-1.8V26.143a1.232,1.232,0,0,0-1.231-1.231h-7.9a1.232,1.232,0,0,0-1.231,1.231v3.445h-1.8V26.143a3.034,3.034,0,0,1,3.031-3.031h7.9a3.034,3.034,0,0,1,3.031,3.031Z" transform="translate(-5.336 -11.444)" fill="#011b39"/></g></g><text transform="translate(235 1982)" fill="#011b39" font-size="12" font-family="Noto Sans JP" font-weight="500"><tspan x="-12" y="0">授業</tspan></text><text transform="translate(235 2087)" fill="#011b39" font-size="12" font-family="Noto Sans JP" font-weight="500"><tspan x="-12" y="0">宿題</tspan></text><g transform="translate(119.107 2027.141)"><path d="M48.052,22.883h9.091a2.411,2.411,0,0,1,2.4,2.4V40.05a2.411,2.411,0,0,1-2.4,2.4H53.807" transform="translate(-20.405 -9.962)" fill="rgba(0,0,0,0)"/><path d="M57.143,43.2H53.807V41.7h3.336A1.655,1.655,0,0,0,58.8,40.05V25.287a1.655,1.655,0,0,0-1.654-1.654H48.052v-1.5h9.091A3.157,3.157,0,0,1,60.3,25.287V40.05A3.157,3.157,0,0,1,57.143,43.2Z" transform="translate(-20.405 -9.962)" fill="#011b39"/><path d="M45.116,56.52l-6.93-6.65H29.508a2.41,2.41,0,0,1-2.4-2.4V40.757" transform="translate(-11.713 -17.379)" fill="rgba(0,0,0,0)"/><path d="M44.6,57.061,37.884,50.62H29.508a3.157,3.157,0,0,1-3.153-3.154V40.757h1.5v6.709a1.655,1.655,0,0,0,1.653,1.654h8.678a.75.75,0,0,1,.519.209l6.93,6.65Z" transform="translate(-11.713 -17.379)" fill="#011b39"/><path d="M1.715.75H0V-.75H1.715Z" transform="translate(25.931 12.92)" fill="#011b39"/><path d="M.75,1.628H-.75V0H.75Z" transform="translate(15.391 21.751)" fill="#011b39"/><path d="M.75,1.245H-.75V0H.75Z" transform="translate(27.815 27.767)" fill="#011b39"/><path d="M.75,8.306H-.75V0H.75Z" transform="translate(27.815 17.039)" fill="#011b39"/><path d="M6.54,27.021l6.93-6.65h8.677a2.411,2.411,0,0,0,2.4-2.4V3.2a2.41,2.41,0,0,0-2.4-2.4H3.2A2.411,2.411,0,0,0,.8,3.2V17.967a2.411,2.411,0,0,0,2.4,2.4H6.54" transform="translate(-0.8 -0.8)" fill="rgba(0,0,0,0)"/><path d="M7.059,27.562,6.02,26.48l6.93-6.65a.75.75,0,0,1,.519-.209h8.677A1.655,1.655,0,0,0,23.8,17.967V3.2A1.655,1.655,0,0,0,22.147,1.55H3.2A1.655,1.655,0,0,0,1.55,3.2V17.967A1.655,1.655,0,0,0,3.2,19.621H6.54v1.5H3.2A3.157,3.157,0,0,1,.05,17.967V3.2A3.157,3.157,0,0,1,3.2.05H22.147A3.157,3.157,0,0,1,25.3,3.2V17.967a3.157,3.157,0,0,1-3.154,3.154H13.771Z" transform="translate(-0.8 -0.8)" fill="#011b39"/><path d="M19.153,16.27h0A3.727,3.727,0,0,1,20.6,13.525a3.667,3.667,0,0,0,1.428-2.684,2.877,2.877,0,1,0-5.754,0" transform="translate(-7.222 -3.773)" fill="rgba(0,0,0,0)"/><path d="M19.9,16.27H18.4A4.416,4.416,0,0,1,20.07,13c.75-.757,1.21-1.266,1.21-2.156a2.127,2.127,0,0,0-4.254,0h-1.5a3.627,3.627,0,0,1,7.254,0,4.352,4.352,0,0,1-1.645,3.212C20.371,14.824,19.9,15.343,19.9,16.27Z" transform="translate(-7.222 -3.773)" fill="#011b39"/><path d="M.75,1.5H-.75V0H.75Z" transform="translate(11.931 14.92)" fill="#011b39"/></g><g transform="translate(218.13 2030.496)"><path d="M51.262,55.013h-6.1v-1.5h6.1a.187.187,0,0,0,.186-.186v-4.7h1.5v4.7A1.688,1.688,0,0,1,51.262,55.013Z" transform="translate(-21.829 -23.471)" fill="#011b39"/><path d="M22.728,57.176H.8a.75.75,0,0,1-.75-.751L.068,43.4a2.394,2.394,0,0,1,2.391-2.387H20.338a2.393,2.393,0,0,1,2.391,2.391V54.53h-1.5V43.408a.892.892,0,0,0-.891-.891H2.459a.892.892,0,0,0-.891.889L1.55,55.676H22.728Z" transform="translate(-0.799 -20.218)" fill="#011b39"/><path d="M52.962,52.4h-11.9a.75.75,0,0,1,0-1.5h11.9a1.96,1.96,0,0,0,1.957-1.957V34.734a2.3,2.3,0,0,0-2.3-2.3H47.911a.75.75,0,0,1,0-1.5h4.711a3.8,3.8,0,0,1,3.8,3.8V48.94A3.461,3.461,0,0,1,52.962,52.4Z" transform="translate(-19.884 -15.44)" fill="#011b39"/><path d="M21.014,34.916h-1.5v-.182a3.8,3.8,0,0,1,3.8-3.8h3.361v1.5H23.312a2.3,2.3,0,0,0-2.3,2.3Z" transform="translate(-10.026 -15.44)" fill="#011b39"/><path d="M0,3.3a.75.75,0,0,1-.75-.75V0A.75.75,0,0,1,0-.75.75.75,0,0,1,.75,0V2.551A.75.75,0,0,1,0,3.3Z" transform="translate(30.37 22.607)" fill="#011b39"/><path d="M1.341.75H0A.75.75,0,0,1-.75,0,.75.75,0,0,1,0-.75H1.341a.75.75,0,0,1,.75.75A.75.75,0,0,1,1.341.75Z" transform="translate(16.647 16.247)" fill="#011b39"/><path d="M28.5,15.169l-.006-6.062a8.805,8.805,0,1,1,17.6,0v6.06h-1.5V9.106a7.306,7.306,0,1,0-14.6,0L30,15.168Z" transform="translate(-14.28 -0.8)" fill="#011b39"/><path d="M36.793,10.116a.75.75,0,0,1,.683.439A6,6,0,0,0,43,13.694a7.094,7.094,0,0,0,1.824-.236.75.75,0,0,1,.942.695v.013q0,.015,0,.03a11.1,11.1,0,0,1-1.5,5.785,4.794,4.794,0,0,1-3.984,2.587A4.794,4.794,0,0,1,36.3,19.981,11.1,11.1,0,0,1,34.8,14.2a5.8,5.8,0,0,1,1.429-3.824A.75.75,0,0,1,36.793,10.116ZM43,15.194a8.266,8.266,0,0,1-4.188-1.108,6.879,6.879,0,0,1-2.059-1.823A4.333,4.333,0,0,0,36.3,14.2a9.589,9.589,0,0,0,1.274,4.993,3.373,3.373,0,0,0,2.71,1.878,3.374,3.374,0,0,0,2.71-1.878,9.15,9.15,0,0,0,1.238-4.083A8.706,8.706,0,0,1,43,15.194Z" transform="translate(-17.27 -5.571)" fill="#011b39"/></g><g transform="translate(133.373 1999.656)"><path d="M6.294,0l6.294,12.588H0Z" transform="translate(109.093 15.105) rotate(180)" fill="#011b39"/><path d="M6.294,0l6.294,12.588H0Z" transform="translate(0)" fill="#011b39"/></g><g transform="translate(180.367 1951.824)"><path d="M6.294,0l6.294,12.588H0Z" transform="translate(0 109.093) rotate(-90)" fill="#011b39"/><path d="M6.294,0l6.294,12.588H0Z" transform="translate(15.105 0) rotate(90)" fill="#011b39"/></g><g transform="translate(445 19001)"><circle cx="37.5" cy="37.5" r="37.5" transform="translate(-403 -17140)" fill="#002f65"/><text transform="translate(-365 -17108)" fill="#fff" font-size="12" font-family="NotoSansJP-SemiBold, Noto Sans JP" font-weight="600"><tspan x="-18" y="0">知識</tspan><tspan y="0">の</tspan><tspan x="-29.82" y="16">インプット</tspan></text></g><g transform="translate(562 19001)"><circle cx="37.5" cy="37.5" r="37.5" transform="translate(-303 -17140)" fill="#002f65"/><text transform="translate(-265 -17108)" fill="#fff" font-size="12" font-family="NotoSansJP-SemiBold, Noto Sans JP" font-weight="600"><tspan x="-18" y="0">手法</tspan><tspan y="0">の</tspan><tspan x="-29.82" y="16">インプット</tspan></text></g><g transform="translate(445 19121)"><circle cx="37.5" cy="37.5" r="37.5" transform="translate(-403 -17043)" fill="#002f65"/><text transform="translate(-365 -17010)" fill="#fff" font-size="12" font-family="NotoSansJP-SemiBold, Noto Sans JP" font-weight="600"><tspan x="-18" y="0">課題</tspan><tspan y="0">の</tspan><tspan x="-30" y="16">解決・改善</tspan></text></g><g transform="translate(562 19121)"><circle cx="37.5" cy="37.5" r="37.5" transform="translate(-303 -17043)" fill="#002f65"/><text transform="translate(-265 -17007)" fill="#fff" font-size="12" font-family="NotoSansJP-SemiBold, Noto Sans JP" font-weight="600"><tspan x="-30" y="0">繰</tspan><tspan y="0">り</tspan><tspan y="0">返</tspan><tspan y="0">しの</tspan><tspan x="-12" y="16">実践</tspan></text></g></g></g></g></g></svg>