<svg xmlns="http://www.w3.org/2000/svg" width="710" height="128.418" viewBox="0 0 710 128.418"><g transform="translate(-365 -2870)"><g transform="translate(-249 -329.5)"><g transform="translate(-154 -81.918)"><g transform="translate(198 -65)"><rect width="60" height="60" transform="translate(700 3349.418)" fill="#fff"/><path d="M2,2V58H58V2H2M0,0H60V60H0Z" transform="translate(700 3349.418)" fill="#002f65"/><rect width="60" height="60" transform="translate(635 3349.418)" fill="#fff"/><path d="M2,2V58H58V2H2M0,0H60V60H0Z" transform="translate(635 3349.418)" fill="#002f65"/><rect width="60" height="60" transform="translate(830 3349.418)" fill="#fff"/><path d="M2,2V58H58V2H2M0,0H60V60H0Z" transform="translate(830 3349.418)" fill="#002f65"/><rect width="60" height="60" transform="translate(765 3349.418)" fill="#fff"/><path d="M2,2V58H58V2H2M0,0H60V60H0Z" transform="translate(765 3349.418)" fill="#002f65"/><rect width="60" height="60" transform="translate(570 3349.418)" fill="#fff"/><path d="M2,2V58H58V2H2M0,0H60V60H0Z" transform="translate(570 3349.418)" fill="#002f65"/></g></g><g transform="translate(106 -81.918)"><g transform="translate(198 -65)"><rect width="60" height="60" transform="translate(700 3349.418)" fill="#fff"/><path d="M2,2V58H58V2H2M0,0H60V60H0Z" transform="translate(700 3349.418)" fill="#002f65"/><rect width="60" height="60" transform="translate(635 3349.418)" fill="#fff"/><path d="M2,2V58H58V2H2M0,0H60V60H0Z" transform="translate(635 3349.418)" fill="#002f65"/><rect width="60" height="60" transform="translate(830 3349.418)" fill="#fff"/><path d="M2,2V58H58V2H2M0,0H60V60H0Z" transform="translate(830 3349.418)" fill="#002f65"/><rect width="60" height="60" transform="translate(895 3349.418)" fill="#fff"/><path d="M2,2V58H58V2H2M0,0H60V60H0Z" transform="translate(895 3349.418)" fill="#002f65"/><rect width="60" height="60" transform="translate(765 3349.418)" fill="#fff"/><path d="M2,2V58H58V2H2M0,0H60V60H0Z" transform="translate(765 3349.418)" fill="#002f65"/><rect width="60" height="60" transform="translate(960 3349.418)" fill="#fff"/><path d="M2,2V58H58V2H2M0,0H60V60H0Z" transform="translate(960 3349.418)" fill="#002f65"/></g></g></g><g transform="translate(-369 -411)"><rect width="60" height="60" transform="translate(963 3349.418)" fill="#e84830"/><rect width="60" height="60" transform="translate(1093 3349.418)" fill="#e84830"/><rect width="60" height="60" transform="translate(1028 3349.418)" fill="#e84830"/><rect width="60" height="60" transform="translate(1158 3349.418)" fill="#e84830"/></g><text transform="translate(721 2921)" fill="#002f65" font-size="44" font-family="NotoSansJP-Bold, Noto Sans JP" font-weight="700" letter-spacing="0.477em"><tspan x="-346.28" y="0">受講生</tspan><tspan y="0">に</tspan><tspan y="0">評価</tspan><tspan y="0">されている</tspan><tspan fill="#fff"><tspan x="-119.482" y="63">ポイント</tspan></tspan></text></g></svg>