<svg xmlns="http://www.w3.org/2000/svg" width="52" height="52" viewBox="0 0 52 52"><g transform="translate(-345 -7090.994)"><rect width="52" height="52" transform="translate(345 7090.994)" fill="none"/><g transform="translate(111.881 -43.963)"><path d="M0,6.37a1,1,0,0,1-.707-.293,1,1,0,0,1,0-1.414L4.657-.707a1,1,0,0,1,1.414,0,1,1,0,0,1,0,1.414L.707,6.077A1,1,0,0,1,0,6.37Z" transform="translate(272.838 7141.949)" fill="#fff"/><path d="M62.472,8.143a1,1,0,0,1-1-1V1.8H56.129a1,1,0,0,1,0-2h6.343a1,1,0,0,1,1,1V7.143A1,1,0,0,1,62.472,8.143Z" transform="translate(218.723 7138.156)" fill="#fff"/><path d="M5.364,6.37a1,1,0,0,1-.707-.293L-.707.707a1,1,0,0,1,0-1.414,1,1,0,0,1,1.414,0l5.364,5.37A1,1,0,0,1,5.364,6.37Z" transform="translate(240.112 7141.949)" fill="#fff"/><path d="M.8,8.143a1,1,0,0,1-1-1V.8a1,1,0,0,1,1-1H7.143a1,1,0,1,1,0,2H1.8V7.143A1,1,0,0,1,.8,8.143Z" transform="translate(236.32 7138.156)" fill="#fff"/><path d="M5.364,6.37a1,1,0,0,1-.707-.293L-.707.707a1,1,0,0,1,0-1.414,1,1,0,0,1,1.414,0l5.364,5.37A1,1,0,0,1,5.364,6.37Z" transform="translate(272.838 7174.668)" fill="#fff"/><path d="M62.472,63.472H56.129a1,1,0,0,1,0-2h5.343V56.129a1,1,0,1,1,2,0v6.343A1,1,0,0,1,62.472,63.472Z" transform="translate(218.723 7120.561)" fill="#fff"/><path d="M0,6.37a1,1,0,0,1-.707-.293,1,1,0,0,1,0-1.414L4.657-.707a1,1,0,0,1,1.414,0,1,1,0,0,1,0,1.414L.707,6.077A1,1,0,0,1,0,6.37Z" transform="translate(240.112 7174.668)" fill="#fff"/><path d="M7.143,63.472H.8a1,1,0,0,1-1-1V56.129a1,1,0,0,1,2,0v5.343H7.143a1,1,0,1,1,0,2Z" transform="translate(236.32 7120.561)" fill="#fff"/><path d="M26.625,9.537a1,1,0,0,1,.484.125l13.917,7.7a1,1,0,0,1,.516.875v15.4a1,1,0,0,1-.516.875l-13.917,7.7a1,1,0,0,1-.968,0l-13.917-7.7a1,1,0,0,1-.516-.875v-15.4a1,1,0,0,1,.516-.875l13.917-7.7A1,1,0,0,1,26.625,9.537Zm12.917,9.289L26.625,11.68,13.708,18.826V33.044L26.625,40.19l12.917-7.146Z" transform="translate(232.532 7135.06)" fill="#fff"/><path d="M28.151,31.369a1,1,0,0,1-.484-.125L17.021,25.355a1,1,0,0,1,.968-1.75l10.162,5.621L38.312,23.6a1,1,0,1,1,.968,1.75L28.635,31.244A1,1,0,0,1,28.151,31.369Z" transform="translate(231.006 7130.625)" fill="#fff"/><path d="M0,12.779a1,1,0,0,1-1-1V0A1,1,0,0,1,0-1,1,1,0,0,1,1,0V11.779A1,1,0,0,1,0,12.779Z" transform="translate(259.157 7160.994)" fill="#fff"/></g></g></svg>