<svg xmlns="http://www.w3.org/2000/svg" width="52" height="52" viewBox="0 0 52 52"><g transform="translate(-1035 -7096.994)"><rect width="52" height="52" transform="translate(1035 7096.994)" fill="none"/><g transform="translate(1039 7100.994)"><path d="M30.382,58.374H7.476a8.275,8.275,0,0,1-5.183-1.653,5.314,5.314,0,0,1,0-8.481,8.276,8.276,0,0,1,5.183-1.653h11.29a4.5,4.5,0,0,0,2.747-.829,2.051,2.051,0,0,0,0-3.433,4.5,4.5,0,0,0-2.747-.829h-3.89a1,1,0,0,1,0-2h3.89a6.493,6.493,0,0,1,3.972,1.248,4.043,4.043,0,0,1,0,6.6,6.493,6.493,0,0,1-3.972,1.248H7.476A6.285,6.285,0,0,0,3.544,49.8a3.318,3.318,0,0,0,0,5.361,6.284,6.284,0,0,0,3.932,1.213H30.382a1,1,0,0,1,0,2Z" transform="translate(-1.059 -14.041)" fill="#fff"/><path d="M9.457,4A9.447,9.447,0,0,1,17.7,18.075a1.008,1.008,0,0,1-.056.113l-5.94,10.287a2.6,2.6,0,0,1-4.5,0L1.267,18.188a1.008,1.008,0,0,1-.053-.106,9.466,9.466,0,0,1,7.2-14.024A9.808,9.808,0,0,1,9.457,4Zm6.4,13.29a1.008,1.008,0,0,1,.055-.109A7.447,7.447,0,0,0,9.457,6a7.8,7.8,0,0,0-.829.045A7.447,7.447,0,0,0,3,17.184a1.01,1.01,0,0,1,.051.1l5.883,10.19a.6.6,0,0,0,1.037,0Z" transform="translate(-1 -2.322)" fill="#fff"/><path d="M11.593,20.72a5.126,5.126,0,0,1,0-10.252,1,1,0,0,1,0,2,3.126,3.126,0,1,0,3.126,3.126,1,1,0,1,1,2,0A5.132,5.132,0,0,1,11.593,20.72Z" transform="translate(-3.135 -4.456)" fill="#fff"/><path d="M53.019,9.478a4.739,4.739,0,1,1,4.739-4.739A4.744,4.744,0,0,1,53.019,9.478Zm0-7.478a2.739,2.739,0,1,0,2.739,2.739A2.742,2.742,0,0,0,53.019,2Z" transform="translate(-16.943 -1)" fill="#fff"/><path d="M53.014,50.415h-5.42a1.679,1.679,0,0,1-1.667-1.547L44.892,34.884c-2.007-.221-3.907-1.435-4.062-3.845l-.795-10.5q0-.038,0-.075a4.917,4.917,0,0,1,4.715-4.935h11.1a4.917,4.917,0,0,1,4.715,4.935q0,.038,0,.075l-.795,10.505c-.156,2.409-2.055,3.623-4.061,3.844l-1.02,13.981A1.678,1.678,0,0,1,53.014,50.415Zm-5.115-2h4.81L53.769,33.87a1,1,0,0,1,.312-.655l.051-.046a1,1,0,0,1,.711-.251c.058,0,.118,0,.178,0a3.577,3.577,0,0,0,1.864-.484,1.83,1.83,0,0,0,.882-1.53v-.012l.792-10.47a2.9,2.9,0,0,0-2.752-2.9H44.785a2.9,2.9,0,0,0-2.752,2.9l.792,10.47v.013a1.829,1.829,0,0,0,.881,1.53,3.577,3.577,0,0,0,1.865.484c.06,0,.12,0,.178,0a1,1,0,0,1,.711.251l.051.046a1,1,0,0,1,.312.654Z" transform="translate(-14.22 -6.126)" fill="#fff"/><path d="M0,13.042l-.075,0A1,1,0,0,1-1,11.969L-.106-.074A1,1,0,0,1,.965-1,1,1,0,0,1,1.888.074L1,12.116A1,1,0,0,1,0,13.042Z" transform="translate(40.547 15.775)" fill="#fff"/><path d="M.89,13.042a1,1,0,0,1-1-.926L-1,.074A1,1,0,0,1-.074-1,1,1,0,0,1,1-.074l.891,12.042A1,1,0,0,1,.965,13.04Z" transform="translate(30.716 15.775)" fill="#fff"/></g></g></svg>