<svg xmlns="http://www.w3.org/2000/svg" width="52" height="52" viewBox="0 0 52 52"><g transform="translate(-693 -7094.988)"><g transform="translate(694 7095.988)"><rect width="52" height="52" transform="translate(-1 -1)" fill="none"/><path d="M25.593,48.257a15.406,15.406,0,0,1-1.732-30.716A15.482,15.482,0,0,1,33.622,19.7,1,1,0,0,1,32.579,21.4a13.394,13.394,0,0,0-16.466,1.967,13.411,13.411,0,1,0,22.8,10.989,13.469,13.469,0,0,0-1.875-8.493,1,1,0,1,1,1.706-1.043,15.394,15.394,0,0,1-2.26,18.922A15.307,15.307,0,0,1,25.593,48.257Z" transform="translate(-3.487 -5.364)" fill="#fff"/><path d="M28.279,43.241a7.706,7.706,0,1,1,1.962-15.158,1,1,0,1,1-.507,1.935A5.708,5.708,0,1,0,33.8,34.1a1,1,0,1,1,1.936-.5,7.7,7.7,0,0,1-7.461,9.641Z" transform="translate(-6.174 -8.051)" fill="#fff"/><path d="M55.793-.2a1,1,0,0,1,1,1V6.7h5.9a1,1,0,0,1,.707,1.707L55.98,15.836a1,1,0,0,1-.707.293h-6.9a1,1,0,0,1-1-1v-6.9a1,1,0,0,1,.293-.707L55.086.093A1,1,0,0,1,55.793-.2Zm4.49,8.9h-4.49a1,1,0,0,1-1-1V3.214L49.368,8.639v5.49h5.491Z" transform="translate(-13.104 -0.8)" fill="#fff"/><path d="M0,14.157a1,1,0,0,1-.707-.293,1,1,0,0,1,0-1.414L12.45-.707a1,1,0,0,1,1.414,0,1,1,0,0,1,0,1.414L.707,13.864A1,1,0,0,1,0,14.157Z" transform="translate(22.106 14.33)" fill="#fff"/><path d="M22.907,53.271A23.106,23.106,0,1,1,33.122,9.432a1,1,0,0,1-.884,1.794,21.08,21.08,0,1,0,9.606,9.6,1,1,0,0,1,1.794-.884,23.1,23.1,0,0,1-20.73,33.327Z" transform="translate(-0.801 -2.678)" fill="#fff"/></g></g></svg>