<svg xmlns="http://www.w3.org/2000/svg" width="20.74" height="19.99" viewBox="0 0 20.74 19.99"><g transform="translate(-27.001 -1664.137)"><path d="M9.652,31.174A9.829,9.829,0,1,1,13.6,12.269a1.146,1.146,0,1,1-.88,2.116,7.539,7.539,0,1,0,4.643,7.1,7.6,7.6,0,0,0-.1-1.373,1.146,1.146,0,0,1,2.261-.373A9.839,9.839,0,0,1,9.652,31.174" transform="translate(27.001 1652.951)" fill="#fff"/><path d="M166.2,4.244,160.85,10.43l-2.988-3.843c-.646-1.051-3.091.854-2.67,1.931l3.887,5.621c1.034,1.554,2.487,1.224,3.339-.077,0,0,9.35-13.583,8.986-13.873-.9-.715-2.057.6-5.2,4.056" transform="translate(-123.674 1664.137)" fill="#ff0"/></g></svg>