<svg xmlns="http://www.w3.org/2000/svg" width="515.764" height="90.5" viewBox="0 0 515.764 90.5"><g transform="translate(-661.756 -10768.843)"><path d="M5.5,0H59.1V-13.3H26.8l12.5-9.8C52.2-33.2,58.4-39.3,58.4-51.3v-.2c0-13.5-10-22.3-24.9-22.3-13,0-19.9,5.3-27,15.1l10.8,8.6c5.4-6.7,9.4-10,15.2-10,5.9,0,10.2,3.5,10.2,9.9,0,6.1-3.6,10.2-12.8,17.9L5.5-12.2Zm95.1,1.2c19.4,0,32.3-16.6,32.3-37.6v-.2C132.9-57.7,120-74,100.8-74,81.5-74,68.5-57.4,68.5-36.4v.2C68.5-15.1,81.2,1.2,100.6,1.2Zm.2-13.8c-10,0-16.5-10.3-16.5-23.8v-.2c0-13.5,6.4-23.6,16.3-23.6s16.5,10.4,16.5,23.8v.2C117.1-22.8,110.8-12.6,100.8-12.6Zm37.8,29.1c12-.3,18.6-5.7,18.6-19V-16.2H141V0h6.2c.5,5.8-2.9,9.4-9.9,10.2ZM168.8,0h17.4l32.6-61.2V-72.8H166.7v13.3h34.7Zm82,1.2c16.6,0,27.5-9.7,27.5-25V-24c0-16.2-11.3-23.2-25.4-23.2a35.408,35.408,0,0,0-10,1.4l.9-13.5h31.3V-72.8H230.6L228.5-37l9,6a31.431,31.431,0,0,1,12.4-2.8c7.9,0,13.3,3.8,13.3,10.3v.2c0,6.7-4.9,10.6-12.6,10.6-6.5,0-12-3-17.6-8.1L223.7-9.7A37.441,37.441,0,0,0,250.8,1.2Zm69.3,0c19.4,0,32.3-16.6,32.3-37.6v-.2c0-21.1-12.9-37.4-32.1-37.4C301-74,288-57.4,288-36.4v.2C288-15.1,300.7,1.2,320.1,1.2Zm.2-13.8c-10,0-16.5-10.3-16.5-23.8v-.2c0-13.5,6.4-23.6,16.3-23.6s16.5,10.4,16.5,23.8v.2C336.6-22.8,330.3-12.6,320.3-12.6Z" transform="translate(741 10842.843)" fill="#e84830"/><path d="M-36.8-31.44H-5.44v4.76H-32V3.56h-4.8Zm29.08,0h4.84v29.4A7.722,7.722,0,0,1-3.36.98a3.393,3.393,0,0,1-1.72,1.7,8.611,8.611,0,0,1-3.1.74q-1.86.14-4.54.14A12.262,12.262,0,0,0-13.12,2q-.28-.88-.64-1.74a14.5,14.5,0,0,0-.72-1.5q1.16.08,2.34.1t2.1.02h1.28a1.317,1.317,0,0,0,.8-.26.967.967,0,0,0,.24-.74ZM-34.2-16.56H-5.36v4.72H-34.2Zm11.68-12.28h4.8V-14.2h-4.8ZM18.2-13.48a12.8,12.8,0,0,0-2.6-2.12,6.531,6.531,0,0,0-3.36-.76,5.591,5.591,0,0,0-3.58,1.34,10.934,10.934,0,0,0-2.78,3.46l-4.4-2.4A15.018,15.018,0,0,1,6.32-19.5a10.876,10.876,0,0,1,6.04-1.82,11.778,11.778,0,0,1,5.14,1.08,14.117,14.117,0,0,1,4.3,3.32,12.528,12.528,0,0,0,2.62,2.12,6.553,6.553,0,0,0,3.34.76,5.591,5.591,0,0,0,3.58-1.34,10.934,10.934,0,0,0,2.78-3.46l4.4,2.4a15.018,15.018,0,0,1-4.84,5.54,10.876,10.876,0,0,1-6.04,1.82,11.814,11.814,0,0,1-5.12-1.08A14.026,14.026,0,0,1,18.2-13.48Z" transform="translate(1139 10840.843)" fill="#e84830"/><path d="M-18.718-5.32a9.422,9.422,0,0,1,.378-2.744,9.089,9.089,0,0,1,1.008-2.24A10.05,10.05,0,0,1-15.96-12.04l1.33.588A10.306,10.306,0,0,0-15.9-9.793a8.555,8.555,0,0,0-.9,2.023,8.406,8.406,0,0,0-.336,2.45A8.425,8.425,0,0,0-16.8-2.877a8.389,8.389,0,0,0,.9,2.023A11.026,11.026,0,0,0-14.63.812l-1.33.588A10.05,10.05,0,0,1-17.332-.336a9.089,9.089,0,0,1-1.008-2.24A9.422,9.422,0,0,1-18.718-5.32Zm10.906-5.95,1.386-.6a12.612,12.612,0,0,1,.763,1.211,5.5,5.5,0,0,1,.511,1.169l-1.47.658a7.072,7.072,0,0,0-.483-1.176A14.27,14.27,0,0,0-7.812-11.27Zm5.138-.644,1.722.574q-.378.658-.756,1.288T-2.422-8.96l-1.414-.532q.21-.336.427-.756T-3-11.1A8.576,8.576,0,0,0-2.674-11.914ZM-6.636-4.578h1.652a15.6,15.6,0,0,1-.238,1.82A6.9,6.9,0,0,1-5.74-1.141,4.636,4.636,0,0,1-6.713.217,5.549,5.549,0,0,1-8.33,1.274a3.164,3.164,0,0,0-.427-.7,4.644,4.644,0,0,0-.567-.63A4.309,4.309,0,0,0-7.973-.868a3.443,3.443,0,0,0,.784-1.057A4.782,4.782,0,0,0-6.8-3.171Q-6.692-3.836-6.636-4.578Zm2.38-.21h1.624V-.91a1.3,1.3,0,0,0,.035.4q.035.077.175.077h.448a.179.179,0,0,0,.168-.112,1.516,1.516,0,0,0,.084-.469q.028-.357.042-1.1a1.755,1.755,0,0,0,.413.266,5.027,5.027,0,0,0,.539.224q.28.1.476.154A6.6,6.6,0,0,1-.483.077a1.456,1.456,0,0,1-.49.777,1.382,1.382,0,0,1-.819.224h-.924A1.958,1.958,0,0,1-3.675.889,1,1,0,0,1-4.13.273,4.3,4.3,0,0,1-4.256-.9ZM-6.188-7.63v1.9h3.472v-1.9Zm-1.6-1.47H-1.05v4.844H-7.784Zm-3.626-1.484h1.624V1.246H-11.41Zm-2.016,2.632h5.138V-6.4h-5.138Zm2.1.63.98.42q-.2.756-.476,1.568t-.616,1.6q-.336.791-.714,1.491a8.591,8.591,0,0,1-.784,1.218,6.639,6.639,0,0,0-.357-.819q-.231-.455-.427-.777A8.081,8.081,0,0,0-13-3.605q.357-.567.679-1.211t.574-1.288Q-11.494-6.748-11.326-7.322Zm2.086-4.424,1.134,1.288q-.714.266-1.568.49t-1.743.385q-.889.161-1.7.273a4.242,4.242,0,0,0-.2-.651,5.708,5.708,0,0,0-.28-.637q.77-.126,1.575-.3t1.526-.4Q-9.772-11.522-9.24-11.746Zm-.574,5.74a4.8,4.8,0,0,1,.385.357q.259.259.56.567t.539.567q.238.259.35.371l-.966,1.33q-.126-.266-.329-.6t-.434-.7q-.231-.364-.455-.693t-.392-.539ZM8.022-10.192H9.646v7.924H8.022Zm3.3-1.414h1.666V-.784A2.882,2.882,0,0,1,12.817.35a1.215,1.215,0,0,1-.609.6,3.571,3.571,0,0,1-1.134.259q-.7.063-1.666.063A3.079,3.079,0,0,0,9.282.707q-.1-.315-.217-.63A3.968,3.968,0,0,0,8.82-.462q.686.014,1.3.021t.826.007a.44.44,0,0,0,.287-.077.343.343,0,0,0,.091-.273Zm-8.274,6.4h3.22v1.47H3.052Zm2.478,0H7.084l-.007.119q-.007.119-.007.266v.231Q7-2.9,6.916-1.827a13.778,13.778,0,0,1-.2,1.638A2.058,2.058,0,0,1,6.4.63a1.237,1.237,0,0,1-.462.378,2.081,2.081,0,0,1-.588.154,6.561,6.561,0,0,1-.742.056q-.462.014-.952-.014a3.026,3.026,0,0,0-.14-.749,3.011,3.011,0,0,0-.308-.707q.434.042.819.056t.567.014a.827.827,0,0,0,.259-.035.478.478,0,0,0,.2-.147,1.387,1.387,0,0,0,.21-.623q.084-.483.154-1.442T5.53-4.956ZM2.7-9.758V-7.84H5.334V-9.758ZM1.176-11.242H6.958v4.886H1.176ZM2.6-6.8H4.242Q4.186-5.7,4.06-4.571a14.449,14.449,0,0,1-.413,2.184A8.638,8.638,0,0,1,2.835-.4,6.126,6.126,0,0,1,1.456,1.26,4,4,0,0,0,.952.6a3.724,3.724,0,0,0-.63-.56,4.58,4.58,0,0,0,1.19-1.4A7.12,7.12,0,0,0,2.17-3.066a12.3,12.3,0,0,0,.308-1.862Q2.562-5.88,2.6-6.8ZM18.718-5.32a9.422,9.422,0,0,1-.378,2.744,9.253,9.253,0,0,1-1,2.24A9.447,9.447,0,0,1,15.96,1.4L14.63.812A11.026,11.026,0,0,0,15.9-.854a8.389,8.389,0,0,0,.9-2.023,8.425,8.425,0,0,0,.336-2.443A8.406,8.406,0,0,0,16.8-7.77a8.555,8.555,0,0,0-.9-2.023,10.306,10.306,0,0,0-1.267-1.659l1.33-.588A9.447,9.447,0,0,1,17.339-10.3a9.253,9.253,0,0,1,1,2.24A9.422,9.422,0,0,1,18.718-5.32Z" transform="translate(1123 10802.843)" fill="#e84830"/><path d="M-26.28-28.872H-8.316v4.212H-26.28Zm.036,8.6H-8.136v4.1H-26.244Zm-.216,8.5H-8.388V-7.56H-26.46Zm-2.808-17.1H-24.8v11.916q0,2.34-.27,5.04a36,36,0,0,1-.99,5.472,21.746,21.746,0,0,1-2.124,5.256A16.214,16.214,0,0,1-31.9,3.24a8.857,8.857,0,0,0-.918-1.08q-.594-.612-1.26-1.188a7.743,7.743,0,0,0-1.17-.864,14.332,14.332,0,0,0,3.258-3.834,17.9,17.9,0,0,0,1.8-4.374,24.865,24.865,0,0,0,.756-4.536q.162-2.268.162-4.356Zm18.936,0h4.608v26.6A6.843,6.843,0,0,1-6.246.72,3.38,3.38,0,0,1-8.028,2.3a9.534,9.534,0,0,1-3.24.7q-1.944.126-4.752.126a13.44,13.44,0,0,0-.432-1.476Q-16.74.828-17.1,0a10.785,10.785,0,0,0-.72-1.4q1.26.072,2.574.09t2.34.018h1.458a1.262,1.262,0,0,0,.864-.234,1.073,1.073,0,0,0,.252-.81ZM6.192-21.348H13.32v2.88H6.192ZM7.38-30.492h4v5.652h-4ZM5.508-8.856h9.72V1.08H5.508V-2.232H11.52V-5.544H5.508Zm-3.96-18.72H17.28v5.832h-3.6v-2.484H5v2.484H1.548ZM3.564-8.856H7.2V2.556H3.564Zm9.072-12.492h.684l.612-.18,2.448,1.116a21.077,21.077,0,0,1-3.2,6.066A23.359,23.359,0,0,1,8.46-9.7,26.344,26.344,0,0,1,2.808-6.516a11.939,11.939,0,0,0-.972-1.62A9.262,9.262,0,0,0,.612-9.612,21.933,21.933,0,0,0,5.706-12.2a20.221,20.221,0,0,0,4.23-3.834,15.444,15.444,0,0,0,2.7-4.734ZM7.272-23.9l3.492.9a20.627,20.627,0,0,1-3.186,5.2,22.537,22.537,0,0,1-4.23,3.978,5.5,5.5,0,0,0-.756-.828q-.5-.468-1.044-.954a7.434,7.434,0,0,0-.936-.738,18.414,18.414,0,0,0,3.906-3.312A15.422,15.422,0,0,0,7.272-23.9Zm-3.24,8.28L6.3-18.216q1.332.864,2.916,1.908t3.168,2.124q1.584,1.08,2.988,2.088t2.34,1.8l-2.448,3.06a28.149,28.149,0,0,0-2.25-1.908q-1.35-1.044-2.9-2.2T6.984-13.608Q5.4-14.724,4.032-15.624ZM17.388-29.16h16.92v3.672H17.388Zm4.968,14.508v2.232h7.128v-2.232Zm0,5.22v2.268h7.128V-9.432Zm0-10.4v2.2h7.128v-2.2Zm-3.888-3.2H33.552V-3.96H18.468Zm5.256-4.176,4.716.576q-.54,1.62-1.134,3.222t-1.1,2.754l-3.564-.684q.216-.864.414-1.89t.378-2.07Q23.616-26.352,23.724-27.216ZM21.456-3.852,24.912-1.62A19.394,19.394,0,0,1,22.68.2a28.324,28.324,0,0,1-2.7,1.692,21.3,21.3,0,0,1-2.736,1.278q-.5-.576-1.3-1.368T14.472.432A19.378,19.378,0,0,0,17.1-.756,22.94,22.94,0,0,0,19.584-2.3,15.28,15.28,0,0,0,21.456-3.852Zm5.04,2.2,3.132-2.016q.972.684,2.088,1.53T33.84-.468A18.33,18.33,0,0,1,35.5,1.044l-3.348,2.2a12.671,12.671,0,0,0-1.512-1.548q-.972-.864-2.07-1.764T26.5-1.656Z" transform="translate(697 10840.843)" fill="#e84830"/></g></svg>