<svg height="40" viewBox="0 0 190.668 40" width="190.668" xmlns="http://www.w3.org/2000/svg"><path d="m261.74 60.141h1.383l7.93 11.684 7.931-11.684h1.382v19.759h-1.466v-17.162l-7.818 11.374h-.113l-7.818-11.374v17.162h-1.411z" fill="#fff" transform="translate(-211.29 -48.549)"/><path d="m388.839 60.141h14.053v1.359h-12.586v7.761h11.317v1.349h-11.317v7.93h12.728v1.354h-14.194z" fill="#fff" transform="translate(-313.891 -48.549)"/><path d="m486.935 60.1h8.3a7.782 7.782 0 0 1 5.56 1.947 5.207 5.207 0 0 1 1.5 3.669v.058c0 3.3-2.455 5.191-5.785 5.643l6.519 8.438h-1.871l-6.293-8.184h-6.465v8.184h-1.468zm8.128 10.245c3.3 0 5.757-1.665 5.757-4.516v-.055c0-2.653-2.089-4.319-5.672-4.319h-6.748v8.89z" fill="#fff" transform="translate(-393.079 -48.506)"/><path d="m588.229 68.651v-.051a9.93 9.93 0 0 1 9.639-10.213h.239a10.422 10.422 0 0 1 7.675 3.161l-1.043 1.072a9.067 9.067 0 0 0 -6.66-2.907c-4.741 0-8.325 3.866-8.325 8.833v.054c0 4.994 3.64 8.888 8.353 8.888a9.046 9.046 0 0 0 6.8-3.075l.987.959a10.415 10.415 0 0 1 -7.845 3.442 9.819 9.819 0 0 1 -9.826-9.814q0-.173.006-.347" fill="#fff" transform="translate(-474.844 -47.125)"/><g fill="#f28427"><path d="m738.822 99.928v-.038a6.761 6.761 0 0 1 6.708-6.813h.2a7.228 7.228 0 0 1 5.175 1.807l-1.825 2.2a4.849 4.849 0 0 0 -3.443-1.336 3.957 3.957 0 0 0 -3.783 4.1v.037a3.947 3.947 0 0 0 3.708 4.172c.094.006.188.008.282.007a4.616 4.616 0 0 0 2.729-.791v-1.882h-2.916v-2.5h5.721v5.722a8.55 8.55 0 0 1 -5.627 2.088 6.593 6.593 0 0 1 -6.921-6.248q-.013-.263-.006-.526" transform="translate(-596.413 -75.129)"/><path d="m816.438 116.835v-6.53h2.862v5.626c0 1.355.639 2.052 1.731 2.052s1.787-.7 1.787-2.052v-5.626h2.861v10.086h-2.86v-1.43a3.57 3.57 0 0 1 -2.955 1.619c-2.164 0-3.425-1.43-3.425-3.745" transform="translate(-659.071 -89.044)"/><path d="m877.928 91.363h3.011v2.537h-3.011zm.072 3.651h2.859v10.086h-2.859z" transform="translate(-708.709 -73.753)"/><path d="m174.977 17.61h2.859v13.737h-2.859z"/><path d="m934.248 100.076v-.038c0-3.369 2.2-5.213 4.592-5.213a3.875 3.875 0 0 1 3.143 1.506v-4.968h2.859v13.737h-2.859v-1.449a3.707 3.707 0 0 1 -3.143 1.638c-2.352 0-4.592-1.844-4.592-5.213m7.772 0v-.038a2.475 2.475 0 1 0 -4.912 0v.038a2.475 2.475 0 1 0 4.912 0" transform="translate(-754.174 -73.753)"/><path d="m20 0a20 20 0 1 1 -20 20 20 20 0 0 1 20-20"/></g><path d="m86.122 93.023a.708.708 0 0 1 -.708-.708v-12.586l-13.9 9.053a.708.708 0 1 1 -.8-1.169l.025-.017 15-9.767a.709.709 0 0 1 1.094.594v13.892a.708.708 0 0 1 -.708.708z" fill="#fff" transform="translate(-56.836 -62.736)"/><path d="m71.2 61.58a.709.709 0 0 1 -.387-1.3l15-9.767a.708.708 0 0 1 .773 1.187l-15.001 9.767a.714.714 0 0 1 -.387.113" fill="#fff" transform="translate(-56.906 -40.685)"/><path d="m52.61 70.948a.708.708 0 0 1 -.708-.708v-19.157a.708.708 0 0 1 1.09-.6l5.88 3.766a.708.708 0 1 1 -.739 1.208l-.025-.016-4.791-3.067v17.863a.707.707 0 0 1 -.7.711z" fill="#fff" transform="translate(-41.898 -40.662)"/></svg>