<svg xmlns="http://www.w3.org/2000/svg" width="620" height="201.6" viewBox="0 0 620 201.6"><g transform="translate(-650 -850)"><circle cx="90" cy="90" r="90" transform="translate(870 855)" fill="#f8f8f8"/><circle cx="90" cy="90" r="90" transform="translate(650 855)" fill="#f8f8f8"/><circle cx="90" cy="90" r="90" transform="translate(1090 855)" fill="#f8f8f8"/><g transform="translate(-208 -973)"><path d="M-25.908,0H-3.634V-5.719H-16.749l4.9-3.784c5.332-4.128,7.912-6.622,7.912-11.653v-.086c0-5.633-4.128-9.288-10.363-9.288-5.375,0-8.256,2.193-11.223,6.235l4.644,3.741c2.236-2.752,3.827-4.042,6.149-4.042a3.692,3.692,0,0,1,4.042,3.913c0,2.494-1.462,4.128-5.2,7.224L-25.908-5.246ZM12.276.516c8.041,0,13.416-6.837,13.416-15.566v-.086c0-8.729-5.375-15.48-13.33-15.48-8,0-13.416,6.837-13.416,15.566v.086C-1.054-6.235,4.235.516,12.276.516Zm.086-5.977c-4,0-6.622-4.085-6.622-9.589v-.086c0-5.5,2.58-9.5,6.536-9.5S18.9-20.511,18.9-15.05v.086C18.9-9.5,16.361-5.461,12.362-5.461Z" transform="translate(1375 1977)" fill="#e84830"/><path d="M6.42-10.5a5.128,5.128,0,0,0,5.13-5.37v-.06a5.047,5.047,0,0,0-5.07-5.31,5.111,5.111,0,0,0-5.13,5.37v.06A5.047,5.047,0,0,0,6.42-10.5ZM8.4-15.81c0,1.35-.66,2.58-1.92,2.58-1.2,0-1.98-1.23-1.98-2.64v-.06c0-1.38.66-2.58,1.92-2.58,1.2,0,1.98,1.23,1.98,2.64Zm3.45,4.5L3.45,0H7.02l6.93-9.69L22.35-21H18.78ZM19.32.24a5.128,5.128,0,0,0,5.13-5.37v-.06a5.047,5.047,0,0,0-5.07-5.31,5.111,5.111,0,0,0-5.13,5.37v.06A5.047,5.047,0,0,0,19.32.24Zm.06-2.73c-1.2,0-1.98-1.23-1.98-2.64v-.06c0-1.38.66-2.58,1.92-2.58,1.2,0,1.98,1.23,1.98,2.64v.06C21.3-3.72,20.64-2.49,19.38-2.49Z" transform="translate(1404 1978)" fill="#e84830"/></g><g transform="translate(-428 -973)"><path d="M-15.05.516C-8.127.516-3.612-3.526-3.612-9.89v-.086c0-6.794-4.687-9.632-10.535-9.632a14.723,14.723,0,0,0-3.956.516l.344-5.2H-4.945V-30.1h-18.49l-.86,14.835,3.827,2.537a12.927,12.927,0,0,1,5.031-1.118c3.139,0,5.332,1.505,5.332,4.085v.086c0,2.666-1.935,4.171-5.031,4.171-2.666,0-4.9-1.2-7.181-3.268l-4,4.773A15.479,15.479,0,0,0-15.05.516Zm27.477,0c8.041,0,13.416-6.837,13.416-15.566v-.086c0-8.729-5.375-15.48-13.33-15.48C4.515-30.616-.9-23.779-.9-15.05v.086C-.9-6.235,4.386.516,12.427.516Zm.086-5.977c-4,0-6.622-4.085-6.622-9.589v-.086c0-5.5,2.58-9.5,6.536-9.5s6.622,4.128,6.622,9.589v.086C19.049-9.5,16.512-5.461,12.513-5.461Z" transform="translate(1375 1977)" fill="#e84830"/><path d="M6.42-10.5a5.128,5.128,0,0,0,5.13-5.37v-.06a5.047,5.047,0,0,0-5.07-5.31,5.111,5.111,0,0,0-5.13,5.37v.06A5.047,5.047,0,0,0,6.42-10.5ZM8.4-15.81c0,1.35-.66,2.58-1.92,2.58-1.2,0-1.98-1.23-1.98-2.64v-.06c0-1.38.66-2.58,1.92-2.58,1.2,0,1.98,1.23,1.98,2.64Zm3.45,4.5L3.45,0H7.02l6.93-9.69L22.35-21H18.78ZM19.32.24a5.128,5.128,0,0,0,5.13-5.37v-.06a5.047,5.047,0,0,0-5.07-5.31,5.111,5.111,0,0,0-5.13,5.37v.06A5.047,5.047,0,0,0,19.32.24Zm.06-2.73c-1.2,0-1.98-1.23-1.98-2.64v-.06c0-1.38.66-2.58,1.92-2.58,1.2,0,1.98,1.23,1.98,2.64v.06C21.3-3.72,20.64-2.49,19.38-2.49Z" transform="translate(1404 1978)" fill="#e84830"/></g><path d="M-33.264-12.784h6.912V-11.3h-6.912Zm.592,8.608h7.456v1.5h-7.456Zm-.992,3.6h9.136V.944h-9.136Zm6.816-12.208h.336l.3-.064,1.152.5A9.748,9.748,0,0,1-26.824-9.12a10.694,10.694,0,0,1-2.664,2.28,15.116,15.116,0,0,1-3.3,1.48,8.238,8.238,0,0,0-.432-.744,5.775,5.775,0,0,0-.512-.7A12.366,12.366,0,0,0-30.76-8a9.553,9.553,0,0,0,2.408-1.92,7.194,7.194,0,0,0,1.5-2.592Zm-4.048,1.3a7.626,7.626,0,0,0,2.544,2.936,11.032,11.032,0,0,0,4.032,1.72,4.914,4.914,0,0,0-.568.664,5.986,5.986,0,0,0-.472.728A11.5,11.5,0,0,1-29.584-7.5,10.225,10.225,0,0,1-32.4-10.992Zm1.04,5.28h1.7V.4h-1.7Zm-7.184-7.328,1.488.56q-.32.592-.664,1.248t-.688,1.24q-.344.584-.648,1.032l-1.152-.5a11.414,11.414,0,0,0,.608-1.1q.3-.624.584-1.28T-37.04-13.536Zm1.824,1.872,1.408.64q-.576.912-1.256,1.92t-1.36,1.928q-.68.92-1.288,1.624l-1.008-.56q.448-.544.928-1.232t.952-1.44q.472-.752.888-1.5T-35.216-11.664Zm-4.3,1.792.816-1.152a11.729,11.729,0,0,1,.88.8q.448.448.824.888a5.8,5.8,0,0,1,.584.792l-.9,1.328a5.255,5.255,0,0,0-.56-.856q-.368-.472-.8-.944T-39.52-9.872Zm3.808,2,1.136-.48q.32.528.616,1.144t.512,1.192a7.1,7.1,0,0,1,.312,1.04l-1.216.544a8.329,8.329,0,0,0-.3-1.056q-.208-.592-.48-1.224A11.2,11.2,0,0,0-35.712-7.872Zm-3.84,1.408q1.088-.032,2.592-.1l3.056-.128-.016,1.36q-1.456.112-2.9.208t-2.592.176Zm4.192,2.512,1.216-.384q.3.672.592,1.488a11.486,11.486,0,0,1,.416,1.424l-1.28.448a11.389,11.389,0,0,0-.384-1.44Q-35.072-3.248-35.36-3.952Zm-3.44-.272,1.424.256A18.762,18.762,0,0,1-37.768-1.7a10.225,10.225,0,0,1-.616,1.88q-.16-.1-.4-.216t-.488-.24a3.765,3.765,0,0,0-.44-.184,7.046,7.046,0,0,0,.584-1.728A20.144,20.144,0,0,0-38.8-4.224Zm1.776-1.5h1.5V1.408h-1.5Zm18.448-.224h8.832v1.328h-8.832Zm-.32,2.688h8.7v1.312h-8.7Zm-1.28,2.9H-8.848v1.44H-20.176ZM-15.44-7.2h1.68V.528h-1.68Zm-2.992-.064,1.536.352a11.466,11.466,0,0,1-.976,2.032A9.6,9.6,0,0,1-19.1-3.232q-.16-.128-.408-.288t-.5-.312a3.663,3.663,0,0,0-.448-.232,6.778,6.778,0,0,0,1.192-1.448A8.36,8.36,0,0,0-18.432-7.264Zm-2.8-1.712h12.48v1.488h-12.48ZM-22.32-12.3H-9.552v1.456H-22.32Zm5.488-1.248H-15.1v2.112h-1.728ZM-22.16-8.976h1.648V-6.4q0,.832-.072,1.832a20.6,20.6,0,0,1-.256,2.056,12.8,12.8,0,0,1-.536,2.056,7.723,7.723,0,0,1-.912,1.816,3.087,3.087,0,0,0-.376-.376q-.248-.216-.512-.416a3.73,3.73,0,0,0-.44-.3,6.52,6.52,0,0,0,.784-1.608A11.448,11.448,0,0,0-22.4-3.1a16.754,16.754,0,0,0,.192-1.744q.048-.856.048-1.576Zm2.3-1.728,1.552-.416a9.159,9.159,0,0,1,.512,1.024,4.895,4.895,0,0,1,.32.976l-1.664.464a5.8,5.8,0,0,0-.264-.992A7.4,7.4,0,0,0-19.856-10.7Zm6.32-.56,1.952.416q-.336.608-.68,1.192t-.616,1L-14.3-9.088q.144-.32.288-.7t.28-.768A5.473,5.473,0,0,0-13.536-11.264Zm12.656-2.3H.864v3.52A1.891,1.891,0,0,1,.68-9.12a1.2,1.2,0,0,1-.664.5,4.243,4.243,0,0,1-1.128.192Q-1.76-8.4-2.624-8.4a3.557,3.557,0,0,0-.288-.752q-.208-.416-.4-.72l.848.032q.432.016.776.008t.472-.008A.583.583,0,0,0-.944-9.9.23.23,0,0,0-.88-10.1Zm3.824,2.96,1.632.736A9.762,9.762,0,0,1,2.44-8.088a16.091,16.091,0,0,1-2.7,1.344,24.485,24.485,0,0,1-3.048.96Q-4.9-5.392-6.48-5.12q-.112-.208-.3-.488t-.392-.56q-.208-.28-.368-.456,1.616-.192,3.176-.528a25.13,25.13,0,0,0,2.944-.816A14.434,14.434,0,0,0,1.088-9.1,7.032,7.032,0,0,0,2.944-10.608ZM-3.936-12.8l1.664.528A9.455,9.455,0,0,1-3.336-10.88a15.13,15.13,0,0,1-1.3,1.256A12.258,12.258,0,0,1-5.984-8.608q-.144-.16-.392-.384t-.5-.448q-.256-.224-.448-.368a10.051,10.051,0,0,0,1.9-1.328A8.523,8.523,0,0,0-3.936-12.8Zm6.5.7,1.376-.848q.624.432,1.288.968T6.472-10.9a8.891,8.891,0,0,1,.952,1l-1.488.928a7.911,7.911,0,0,0-.88-1q-.56-.552-1.216-1.112T2.56-12.1ZM-4.224-6.88H5.408V1.328H3.664V-5.584h-6.24V1.408H-4.224Zm.816,2.192H4.368V-3.5H-3.408Zm0,2.144H4.368v1.168H-3.408Zm0,2.128H4.368V.848H-3.408ZM15.28-12.592q-.064.272-.128.6t-.128.616q-.064.336-.16.792t-.184.928q-.088.472-.184.92-.16.672-.408,1.568t-.56,1.92q-.312,1.024-.7,2.064t-.848,2.04A15.573,15.573,0,0,1,11.008.672L9.136-.064a12.161,12.161,0,0,0,1.04-1.68q.48-.928.88-1.92t.72-1.952q.32-.96.544-1.784t.352-1.432q.224-1.04.36-2.056a12.853,12.853,0,0,0,.12-1.928ZM20.8-11.04a12.074,12.074,0,0,1,.784,1.28q.416.768.816,1.616t.72,1.64q.32.792.512,1.368L21.824-4.3q-.16-.656-.448-1.472T20.72-7.44q-.368-.848-.784-1.6a7.868,7.868,0,0,0-.848-1.264ZM8.992-9.248q.416.032.816.024t.816-.024q.384-.016.944-.056l1.208-.088q.648-.048,1.288-.1t1.184-.1q.544-.04.9-.04a3.575,3.575,0,0,1,1.44.272,2.09,2.09,0,0,1,.992.92,3.629,3.629,0,0,1,.368,1.784q0,.928-.088,2.032a19.62,19.62,0,0,1-.28,2.112,6.094,6.094,0,0,1-.544,1.68A2.209,2.209,0,0,1,17.008.3a3.513,3.513,0,0,1-1.52.3,7.259,7.259,0,0,1-.976-.072q-.528-.072-.928-.152L13.28-1.5q.32.08.688.16t.712.12a5.018,5.018,0,0,0,.552.04,1.722,1.722,0,0,0,.728-.144,1.139,1.139,0,0,0,.52-.576,5,5,0,0,0,.392-1.24,14.341,14.341,0,0,0,.224-1.64q.072-.88.072-1.68a2.059,2.059,0,0,0-.184-.992.92.92,0,0,0-.544-.432A2.961,2.961,0,0,0,15.568-8q-.368,0-1.008.056t-1.376.128q-.736.072-1.36.152t-.976.128q-.32.048-.824.112T9.168-7.3Zm20.352-3.536q.56.176,1.416.368t1.792.368q.936.176,1.776.312t1.368.184l-.432,1.76q-.48-.064-1.144-.184T32.7-10.24q-.76-.144-1.488-.3t-1.336-.288q-.608-.136-.976-.232Zm-.016,3.12q-.08.352-.168.88t-.176,1.1q-.088.576-.16,1.1l-.12.88a7.8,7.8,0,0,1,2.32-1.248,8.038,8.038,0,0,1,2.528-.4,5.052,5.052,0,0,1,2.328.5,3.756,3.756,0,0,1,1.488,1.3,3.2,3.2,0,0,1,.52,1.768,4.334,4.334,0,0,1-.472,2.008A3.918,3.918,0,0,1,35.9-.216a7.554,7.554,0,0,1-2.728.9,17.33,17.33,0,0,1-4.1.056l-.56-1.872A14.516,14.516,0,0,0,32.6-1.08a4.981,4.981,0,0,0,2.472-.976A2.219,2.219,0,0,0,35.9-3.808a1.623,1.623,0,0,0-.32-.992,2.141,2.141,0,0,0-.888-.68,3.231,3.231,0,0,0-1.3-.248,6.518,6.518,0,0,0-2.6.512A5.18,5.18,0,0,0,28.816-3.76a3.491,3.491,0,0,0-.336.448,3.314,3.314,0,0,0-.224.432l-1.664-.4q.1-.464.192-1.1t.192-1.36q.1-.728.176-1.472T27.3-8.656q.064-.7.1-1.264ZM-58.048,8.608q-.064-.336-.144-.624t-.176-.56l2.032-.336q.032.24.072.584t.088.632q.048.208.152.808t.272,1.464q.168.864.368,1.872t.4,2.032q.2,1.024.376,1.936t.312,1.6q.136.688.2.992.08.352.184.76t.216.776l-2.064.368q-.064-.432-.1-.832a6.163,6.163,0,0,0-.12-.752q-.048-.288-.168-.944t-.3-1.552l-.376-1.912q-.2-1.016-.392-2.024l-.36-1.888q-.168-.88-.3-1.512T-58.048,8.608Zm-4.4,2.112q.352-.032.7-.056t.736-.056l1-.136q.648-.088,1.472-.216l1.712-.264q.888-.136,1.72-.272t1.488-.248q.656-.112,1.024-.192.384-.064.76-.152t.648-.168l.352,1.9q-.24.016-.64.072l-.752.1q-.416.064-1.112.176l-1.536.248q-.84.136-1.728.272t-1.7.272q-.808.136-1.424.232t-.936.16q-.352.064-.68.136t-.728.168Zm-.016,4.672q.32-.016.776-.064t.808-.1q.432-.064,1.16-.176t1.64-.256q.912-.144,1.88-.3l1.88-.312q.912-.152,1.672-.288t1.224-.216q.464-.08.864-.176t.7-.176l.384,1.888a6.749,6.749,0,0,0-.736.088q-.432.072-.88.152-.528.08-1.3.208l-1.7.28q-.92.152-1.88.3t-1.848.3q-.888.152-1.592.264t-1.1.192q-.5.1-.888.168a5.653,5.653,0,0,0-.648.152Zm20.8-5.456q.048.272.112.56t.128.608q.128.432.328,1.16t.448,1.608q.248.88.5,1.8t.488,1.76q.24.84.416,1.472t.272.952a2.669,2.669,0,0,1,.128.384q.064.24.144.472t.144.392l-1.952.5a6.674,6.674,0,0,0-.1-.672q-.072-.352-.168-.672t-.272-.984q-.176-.664-.408-1.528t-.48-1.792q-.248-.928-.48-1.808t-.424-1.576q-.192-.7-.32-1.08a4.558,4.558,0,0,0-.192-.576q-.112-.272-.24-.512Zm7.68,2.4q-.256.512-.656,1.176t-.888,1.36q-.488.7-.968,1.312t-.9,1.064l-1.584-.8a10.839,10.839,0,0,0,.912-.928q.48-.544.9-1.1a7.435,7.435,0,0,0,.648-.968l-.664.136-1.208.248-1.536.312q-.832.168-1.672.344t-1.6.328q-.76.152-1.328.272t-.84.184l-.432-1.712q.368-.032.7-.08t.72-.112l.672-.12q.5-.088,1.192-.216t1.488-.28q.792-.152,1.6-.3t1.528-.3l1.248-.248q.528-.1.752-.152.192-.048.4-.112a3.189,3.189,0,0,0,.352-.128Zm9.968-1.76q.112.256.3.728t.384,1.008q.2.536.368,1.008t.248.744l-1.712.608a7.711,7.711,0,0,0-.224-.76q-.16-.472-.352-.992t-.384-1q-.192-.48-.32-.784Zm5.872,1.088q-.112.352-.192.6t-.144.472a16.966,16.966,0,0,1-.848,2.456,10.545,10.545,0,0,1-1.36,2.3A11.846,11.846,0,0,1-23.216,19.9a12.9,12.9,0,0,1-2.8,1.512l-1.5-1.536a11.448,11.448,0,0,0,1.864-.728A11.516,11.516,0,0,0-23.792,18a8.591,8.591,0,0,0,1.552-1.488,8.091,8.091,0,0,0,.992-1.576,11.624,11.624,0,0,0,.72-1.9,11.188,11.188,0,0,0,.384-2.016Zm-9.584-.256q.144.3.344.776t.416,1.008q.216.536.408,1.032t.3.832L-28,15.7q-.1-.3-.28-.824t-.408-1.08q-.224-.56-.424-1.032a7.644,7.644,0,0,0-.344-.728ZM-11.1,7.44q.384.208.88.512t1.008.632q.512.328.968.624t.744.5L-8.56,11.3q-.32-.224-.776-.528t-.952-.624q-.5-.32-.976-.616t-.864-.52Zm-2.8,11.376q.9-.16,1.824-.4a16.764,16.764,0,0,0,1.84-.592,14.656,14.656,0,0,0,1.76-.816,18.475,18.475,0,0,0,2.512-1.72,16.921,16.921,0,0,0,2.1-2.032A12.807,12.807,0,0,0-2.3,11.04l1.1,1.936A16.551,16.551,0,0,1-3.92,16.1,21.159,21.159,0,0,1-7.5,18.72a16.183,16.183,0,0,1-1.776.864q-.96.4-1.9.688t-1.656.432Zm.352-7.744q.4.208.9.5t1.008.616q.512.32.968.608t.744.5l-1.04,1.616q-.336-.24-.784-.536t-.952-.624q-.5-.328-.992-.616t-.872-.48Zm25.6,1.312a2.283,2.283,0,0,0-.088.312q-.04.184-.056.3-.048.352-.136.952t-.192,1.328q-.1.728-.216,1.448t-.2,1.32q-.088.6-.152.936H9.04q.064-.3.152-.84t.192-1.184q.1-.648.192-1.3t.16-1.2q.072-.552.088-.856H5.28q-.368,0-.776.016t-.728.048v-1.9q.208.032.472.056t.536.032q.272.008.48.008h4.32q.16,0,.376-.016t.416-.048a.852.852,0,0,0,.28-.08Zm-9.76,5.888q.32.032.712.056t.792.024h8.5q.288,0,.736-.016t.752-.048v1.856q-.16-.016-.432-.024t-.544-.008H3.792q-.4,0-.736.008t-.768.024ZM28.416,7.328a6.417,6.417,0,0,1,.44.672q.232.4.456.8t.384.72l-1.168.5q-.24-.5-.592-1.128t-.672-1.1Zm1.856-.7q.208.288.456.7t.48.8a6.792,6.792,0,0,1,.36.68l-1.152.5q-.256-.512-.608-1.128A10.294,10.294,0,0,0,29.12,7.1ZM19.184,15.072q.272-.656.52-1.4t.448-1.536q.2-.792.352-1.576a14.556,14.556,0,0,0,.216-1.536l2.08.432q-.048.224-.128.5t-.136.536q-.056.264-.088.456-.08.4-.224.992T21.888,13.2q-.192.672-.4,1.352t-.432,1.256q-.288.752-.672,1.568t-.824,1.576q-.44.76-.856,1.368l-2-.832A18.56,18.56,0,0,0,18.12,17.3,17.657,17.657,0,0,0,19.184,15.072Zm7.9-.416q-.24-.624-.536-1.336t-.608-1.432q-.312-.72-.616-1.352t-.56-1.08l1.888-.624q.24.448.552,1.1t.64,1.368q.328.72.632,1.432t.528,1.3q.224.544.48,1.264t.52,1.488q.264.768.5,1.5t.392,1.3l-2.112.672q-.208-.912-.48-1.872t-.584-1.92Q27.408,15.5,27.088,14.656Zm12.9-4.08q.112.256.3.728t.384,1.008q.2.536.368,1.008t.248.744l-1.712.608a7.712,7.712,0,0,0-.224-.76q-.16-.472-.352-.992t-.384-1q-.192-.48-.32-.784Zm5.872,1.088q-.112.352-.192.6t-.144.472a16.966,16.966,0,0,1-.848,2.456,10.545,10.545,0,0,1-1.36,2.3A11.846,11.846,0,0,1,40.784,19.9a12.9,12.9,0,0,1-2.8,1.512l-1.5-1.536A11.772,11.772,0,0,0,40.208,18a8.591,8.591,0,0,0,1.552-1.488,8.091,8.091,0,0,0,.992-1.576,11.624,11.624,0,0,0,.72-1.9,11.188,11.188,0,0,0,.384-2.016Zm-9.584-.256q.144.3.344.776t.416,1.008q.216.536.408,1.032t.3.832L36,15.7q-.1-.3-.28-.824t-.408-1.08q-.224-.56-.424-1.032a7.644,7.644,0,0,0-.344-.728Zm26-1.376a5.57,5.57,0,0,0-.5,1.072,15.5,15.5,0,0,1-.592,1.64,17.188,17.188,0,0,1-.936,1.888,13.389,13.389,0,0,1-1.272,1.848,14.6,14.6,0,0,1-2.656,2.488,16.613,16.613,0,0,1-3.776,1.992l-1.68-1.5a15.74,15.74,0,0,0,2.768-1.1A12.632,12.632,0,0,0,55.7,17.008,12.452,12.452,0,0,0,57.3,15.472,9.6,9.6,0,0,0,58.352,14a13.778,13.778,0,0,0,.824-1.632,7.859,7.859,0,0,0,.472-1.44H54.1l.672-1.616h4.72a5.148,5.148,0,0,0,.712-.048,2.525,2.525,0,0,0,.584-.144Zm-5.264-2.5q-.256.384-.512.832t-.384.688a17.664,17.664,0,0,1-1.3,1.976,17.556,17.556,0,0,1-1.776,2.008,15.714,15.714,0,0,1-2.184,1.776l-1.6-1.184A14.346,14.346,0,0,0,51.1,12.3,13.4,13.4,0,0,0,52.5,10.9a14.419,14.419,0,0,0,1.032-1.336q.432-.64.72-1.168a5.754,5.754,0,0,0,.36-.712,5.339,5.339,0,0,0,.3-.84Z" transform="translate(960 1030)" fill="#333"/><path d="M-33.264-12.784h6.912V-11.3h-6.912Zm.592,8.608h7.456v1.5h-7.456Zm-.992,3.6h9.136V.944h-9.136Zm6.816-12.208h.336l.3-.064,1.152.5A9.748,9.748,0,0,1-26.824-9.12a10.694,10.694,0,0,1-2.664,2.28,15.116,15.116,0,0,1-3.3,1.48,8.238,8.238,0,0,0-.432-.744,5.775,5.775,0,0,0-.512-.7A12.366,12.366,0,0,0-30.76-8a9.553,9.553,0,0,0,2.408-1.92,7.194,7.194,0,0,0,1.5-2.592Zm-4.048,1.3a7.626,7.626,0,0,0,2.544,2.936,11.032,11.032,0,0,0,4.032,1.72,4.914,4.914,0,0,0-.568.664,5.986,5.986,0,0,0-.472.728A11.5,11.5,0,0,1-29.584-7.5,10.225,10.225,0,0,1-32.4-10.992Zm1.04,5.28h1.7V.4h-1.7Zm-7.184-7.328,1.488.56q-.32.592-.664,1.248t-.688,1.24q-.344.584-.648,1.032l-1.152-.5a11.414,11.414,0,0,0,.608-1.1q.3-.624.584-1.28T-37.04-13.536Zm1.824,1.872,1.408.64q-.576.912-1.256,1.92t-1.36,1.928q-.68.92-1.288,1.624l-1.008-.56q.448-.544.928-1.232t.952-1.44q.472-.752.888-1.5T-35.216-11.664Zm-4.3,1.792.816-1.152a11.729,11.729,0,0,1,.88.8q.448.448.824.888a5.8,5.8,0,0,1,.584.792l-.9,1.328a5.255,5.255,0,0,0-.56-.856q-.368-.472-.8-.944T-39.52-9.872Zm3.808,2,1.136-.48q.32.528.616,1.144t.512,1.192a7.1,7.1,0,0,1,.312,1.04l-1.216.544a8.329,8.329,0,0,0-.3-1.056q-.208-.592-.48-1.224A11.2,11.2,0,0,0-35.712-7.872Zm-3.84,1.408q1.088-.032,2.592-.1l3.056-.128-.016,1.36q-1.456.112-2.9.208t-2.592.176Zm4.192,2.512,1.216-.384q.3.672.592,1.488a11.486,11.486,0,0,1,.416,1.424l-1.28.448a11.389,11.389,0,0,0-.384-1.44Q-35.072-3.248-35.36-3.952Zm-3.44-.272,1.424.256A18.762,18.762,0,0,1-37.768-1.7a10.225,10.225,0,0,1-.616,1.88q-.16-.1-.4-.216t-.488-.24a3.765,3.765,0,0,0-.44-.184,7.046,7.046,0,0,0,.584-1.728A20.144,20.144,0,0,0-38.8-4.224Zm1.776-1.5h1.5V1.408h-1.5Zm18.448-.224h8.832v1.328h-8.832Zm-.32,2.688h8.7v1.312h-8.7Zm-1.28,2.9H-8.848v1.44H-20.176ZM-15.44-7.2h1.68V.528h-1.68Zm-2.992-.064,1.536.352a11.466,11.466,0,0,1-.976,2.032A9.6,9.6,0,0,1-19.1-3.232q-.16-.128-.408-.288t-.5-.312a3.663,3.663,0,0,0-.448-.232,6.778,6.778,0,0,0,1.192-1.448A8.36,8.36,0,0,0-18.432-7.264Zm-2.8-1.712h12.48v1.488h-12.48ZM-22.32-12.3H-9.552v1.456H-22.32Zm5.488-1.248H-15.1v2.112h-1.728ZM-22.16-8.976h1.648V-6.4q0,.832-.072,1.832a20.6,20.6,0,0,1-.256,2.056,12.8,12.8,0,0,1-.536,2.056,7.723,7.723,0,0,1-.912,1.816,3.087,3.087,0,0,0-.376-.376q-.248-.216-.512-.416a3.73,3.73,0,0,0-.44-.3,6.52,6.52,0,0,0,.784-1.608A11.448,11.448,0,0,0-22.4-3.1a16.754,16.754,0,0,0,.192-1.744q.048-.856.048-1.576Zm2.3-1.728,1.552-.416a9.159,9.159,0,0,1,.512,1.024,4.895,4.895,0,0,1,.32.976l-1.664.464a5.8,5.8,0,0,0-.264-.992A7.4,7.4,0,0,0-19.856-10.7Zm6.32-.56,1.952.416q-.336.608-.68,1.192t-.616,1L-14.3-9.088q.144-.32.288-.7t.28-.768A5.473,5.473,0,0,0-13.536-11.264Zm12.656-2.3H.864v3.52A1.891,1.891,0,0,1,.68-9.12a1.2,1.2,0,0,1-.664.5,4.243,4.243,0,0,1-1.128.192Q-1.76-8.4-2.624-8.4a3.557,3.557,0,0,0-.288-.752q-.208-.416-.4-.72l.848.032q.432.016.776.008t.472-.008A.583.583,0,0,0-.944-9.9.23.23,0,0,0-.88-10.1Zm3.824,2.96,1.632.736A9.762,9.762,0,0,1,2.44-8.088a16.091,16.091,0,0,1-2.7,1.344,24.485,24.485,0,0,1-3.048.96Q-4.9-5.392-6.48-5.12q-.112-.208-.3-.488t-.392-.56q-.208-.28-.368-.456,1.616-.192,3.176-.528a25.13,25.13,0,0,0,2.944-.816A14.434,14.434,0,0,0,1.088-9.1,7.032,7.032,0,0,0,2.944-10.608ZM-3.936-12.8l1.664.528A9.455,9.455,0,0,1-3.336-10.88a15.13,15.13,0,0,1-1.3,1.256A12.258,12.258,0,0,1-5.984-8.608q-.144-.16-.392-.384t-.5-.448q-.256-.224-.448-.368a10.051,10.051,0,0,0,1.9-1.328A8.523,8.523,0,0,0-3.936-12.8Zm6.5.7,1.376-.848q.624.432,1.288.968T6.472-10.9a8.891,8.891,0,0,1,.952,1l-1.488.928a7.911,7.911,0,0,0-.88-1q-.56-.552-1.216-1.112T2.56-12.1ZM-4.224-6.88H5.408V1.328H3.664V-5.584h-6.24V1.408H-4.224Zm.816,2.192H4.368V-3.5H-3.408Zm0,2.144H4.368v1.168H-3.408Zm0,2.128H4.368V.848H-3.408ZM15.28-12.592q-.064.272-.128.6t-.128.616q-.064.336-.16.792t-.184.928q-.088.472-.184.92-.16.672-.408,1.568t-.56,1.92q-.312,1.024-.7,2.064t-.848,2.04A15.573,15.573,0,0,1,11.008.672L9.136-.064a12.161,12.161,0,0,0,1.04-1.68q.48-.928.88-1.92t.72-1.952q.32-.96.544-1.784t.352-1.432q.224-1.04.36-2.056a12.853,12.853,0,0,0,.12-1.928ZM20.8-11.04a12.074,12.074,0,0,1,.784,1.28q.416.768.816,1.616t.72,1.64q.32.792.512,1.368L21.824-4.3q-.16-.656-.448-1.472T20.72-7.44q-.368-.848-.784-1.6a7.868,7.868,0,0,0-.848-1.264ZM8.992-9.248q.416.032.816.024t.816-.024q.384-.016.944-.056l1.208-.088q.648-.048,1.288-.1t1.184-.1q.544-.04.9-.04a3.575,3.575,0,0,1,1.44.272,2.09,2.09,0,0,1,.992.92,3.629,3.629,0,0,1,.368,1.784q0,.928-.088,2.032a19.62,19.62,0,0,1-.28,2.112,6.094,6.094,0,0,1-.544,1.68A2.209,2.209,0,0,1,17.008.3a3.513,3.513,0,0,1-1.52.3,7.259,7.259,0,0,1-.976-.072q-.528-.072-.928-.152L13.28-1.5q.32.08.688.16t.712.12a5.018,5.018,0,0,0,.552.04,1.722,1.722,0,0,0,.728-.144,1.139,1.139,0,0,0,.52-.576,5,5,0,0,0,.392-1.24,14.341,14.341,0,0,0,.224-1.64q.072-.88.072-1.68a2.059,2.059,0,0,0-.184-.992.92.92,0,0,0-.544-.432A2.961,2.961,0,0,0,15.568-8q-.368,0-1.008.056t-1.376.128q-.736.072-1.36.152t-.976.128q-.32.048-.824.112T9.168-7.3Zm20.352-3.536q.56.176,1.416.368t1.792.368q.936.176,1.776.312t1.368.184l-.432,1.76q-.48-.064-1.144-.184T32.7-10.24q-.76-.144-1.488-.3t-1.336-.288q-.608-.136-.976-.232Zm-.016,3.12q-.08.352-.168.88t-.176,1.1q-.088.576-.16,1.1l-.12.88a7.8,7.8,0,0,1,2.32-1.248,8.038,8.038,0,0,1,2.528-.4,5.052,5.052,0,0,1,2.328.5,3.756,3.756,0,0,1,1.488,1.3,3.2,3.2,0,0,1,.52,1.768,4.334,4.334,0,0,1-.472,2.008A3.918,3.918,0,0,1,35.9-.216a7.554,7.554,0,0,1-2.728.9,17.33,17.33,0,0,1-4.1.056l-.56-1.872A14.516,14.516,0,0,0,32.6-1.08a4.981,4.981,0,0,0,2.472-.976A2.219,2.219,0,0,0,35.9-3.808a1.623,1.623,0,0,0-.32-.992,2.141,2.141,0,0,0-.888-.68,3.231,3.231,0,0,0-1.3-.248,6.518,6.518,0,0,0-2.6.512A5.18,5.18,0,0,0,28.816-3.76a3.491,3.491,0,0,0-.336.448,3.314,3.314,0,0,0-.224.432l-1.664-.4q.1-.464.192-1.1t.192-1.36q.1-.728.176-1.472T27.3-8.656q.064-.7.1-1.264ZM-58.048,8.608q-.064-.336-.144-.624t-.176-.56l2.032-.336q.032.24.072.584t.088.632q.048.208.152.808t.272,1.464q.168.864.368,1.872t.4,2.032q.2,1.024.376,1.936t.312,1.6q.136.688.2.992.08.352.184.76t.216.776l-2.064.368q-.064-.432-.1-.832a6.163,6.163,0,0,0-.12-.752q-.048-.288-.168-.944t-.3-1.552l-.376-1.912q-.2-1.016-.392-2.024l-.36-1.888q-.168-.88-.3-1.512T-58.048,8.608Zm-4.4,2.112q.352-.032.7-.056t.736-.056l1-.136q.648-.088,1.472-.216l1.712-.264q.888-.136,1.72-.272t1.488-.248q.656-.112,1.024-.192.384-.064.76-.152t.648-.168l.352,1.9q-.24.016-.64.072l-.752.1q-.416.064-1.112.176l-1.536.248q-.84.136-1.728.272t-1.7.272q-.808.136-1.424.232t-.936.16q-.352.064-.68.136t-.728.168Zm-.016,4.672q.32-.016.776-.064t.808-.1q.432-.064,1.16-.176t1.64-.256q.912-.144,1.88-.3l1.88-.312q.912-.152,1.672-.288t1.224-.216q.464-.08.864-.176t.7-.176l.384,1.888a6.749,6.749,0,0,0-.736.088q-.432.072-.88.152-.528.08-1.3.208l-1.7.28q-.92.152-1.88.3t-1.848.3q-.888.152-1.592.264t-1.1.192q-.5.1-.888.168a5.653,5.653,0,0,0-.648.152Zm20.8-5.456q.048.272.112.56t.128.608q.128.432.328,1.16t.448,1.608q.248.88.5,1.8t.488,1.76q.24.84.416,1.472t.272.952a2.669,2.669,0,0,1,.128.384q.064.24.144.472t.144.392l-1.952.5a6.674,6.674,0,0,0-.1-.672q-.072-.352-.168-.672t-.272-.984q-.176-.664-.408-1.528t-.48-1.792q-.248-.928-.48-1.808t-.424-1.576q-.192-.7-.32-1.08a4.558,4.558,0,0,0-.192-.576q-.112-.272-.24-.512Zm7.68,2.4q-.256.512-.656,1.176t-.888,1.36q-.488.7-.968,1.312t-.9,1.064l-1.584-.8a10.839,10.839,0,0,0,.912-.928q.48-.544.9-1.1a7.435,7.435,0,0,0,.648-.968l-.664.136-1.208.248-1.536.312q-.832.168-1.672.344t-1.6.328q-.76.152-1.328.272t-.84.184l-.432-1.712q.368-.032.7-.08t.72-.112l.672-.12q.5-.088,1.192-.216t1.488-.28q.792-.152,1.6-.3t1.528-.3l1.248-.248q.528-.1.752-.152.192-.048.4-.112a3.189,3.189,0,0,0,.352-.128Zm9.968-1.76q.112.256.3.728t.384,1.008q.2.536.368,1.008t.248.744l-1.712.608a7.711,7.711,0,0,0-.224-.76q-.16-.472-.352-.992t-.384-1q-.192-.48-.32-.784Zm5.872,1.088q-.112.352-.192.6t-.144.472a16.966,16.966,0,0,1-.848,2.456,10.545,10.545,0,0,1-1.36,2.3A11.846,11.846,0,0,1-23.216,19.9a12.9,12.9,0,0,1-2.8,1.512l-1.5-1.536a11.448,11.448,0,0,0,1.864-.728A11.516,11.516,0,0,0-23.792,18a8.591,8.591,0,0,0,1.552-1.488,8.091,8.091,0,0,0,.992-1.576,11.624,11.624,0,0,0,.72-1.9,11.188,11.188,0,0,0,.384-2.016Zm-9.584-.256q.144.3.344.776t.416,1.008q.216.536.408,1.032t.3.832L-28,15.7q-.1-.3-.28-.824t-.408-1.08q-.224-.56-.424-1.032a7.644,7.644,0,0,0-.344-.728ZM-11.1,7.44q.384.208.88.512t1.008.632q.512.328.968.624t.744.5L-8.56,11.3q-.32-.224-.776-.528t-.952-.624q-.5-.32-.976-.616t-.864-.52Zm-2.8,11.376q.9-.16,1.824-.4a16.764,16.764,0,0,0,1.84-.592,14.656,14.656,0,0,0,1.76-.816,18.475,18.475,0,0,0,2.512-1.72,16.921,16.921,0,0,0,2.1-2.032A12.807,12.807,0,0,0-2.3,11.04l1.1,1.936A16.551,16.551,0,0,1-3.92,16.1,21.159,21.159,0,0,1-7.5,18.72a16.183,16.183,0,0,1-1.776.864q-.96.4-1.9.688t-1.656.432Zm.352-7.744q.4.208.9.5t1.008.616q.512.32.968.608t.744.5l-1.04,1.616q-.336-.24-.784-.536t-.952-.624q-.5-.328-.992-.616t-.872-.48Zm25.6,1.312a2.283,2.283,0,0,0-.088.312q-.04.184-.056.3-.048.352-.136.952t-.192,1.328q-.1.728-.216,1.448t-.2,1.32q-.088.6-.152.936H9.04q.064-.3.152-.84t.192-1.184q.1-.648.192-1.3t.16-1.2q.072-.552.088-.856H5.28q-.368,0-.776.016t-.728.048v-1.9q.208.032.472.056t.536.032q.272.008.48.008h4.32q.16,0,.376-.016t.416-.048a.852.852,0,0,0,.28-.08Zm-9.76,5.888q.32.032.712.056t.792.024h8.5q.288,0,.736-.016t.752-.048v1.856q-.16-.016-.432-.024t-.544-.008H3.792q-.4,0-.736.008t-.768.024ZM28.416,7.328a6.417,6.417,0,0,1,.44.672q.232.4.456.8t.384.72l-1.168.5q-.24-.5-.592-1.128t-.672-1.1Zm1.856-.7q.208.288.456.7t.48.8a6.792,6.792,0,0,1,.36.68l-1.152.5q-.256-.512-.608-1.128A10.294,10.294,0,0,0,29.12,7.1ZM19.184,15.072q.272-.656.52-1.4t.448-1.536q.2-.792.352-1.576a14.556,14.556,0,0,0,.216-1.536l2.08.432q-.048.224-.128.5t-.136.536q-.056.264-.088.456-.08.4-.224.992T21.888,13.2q-.192.672-.4,1.352t-.432,1.256q-.288.752-.672,1.568t-.824,1.576q-.44.76-.856,1.368l-2-.832A18.56,18.56,0,0,0,18.12,17.3,17.657,17.657,0,0,0,19.184,15.072Zm7.9-.416q-.24-.624-.536-1.336t-.608-1.432q-.312-.72-.616-1.352t-.56-1.08l1.888-.624q.24.448.552,1.1t.64,1.368q.328.72.632,1.432t.528,1.3q.224.544.48,1.264t.52,1.488q.264.768.5,1.5t.392,1.3l-2.112.672q-.208-.912-.48-1.872t-.584-1.92Q27.408,15.5,27.088,14.656Zm12.9-4.08q.112.256.3.728t.384,1.008q.2.536.368,1.008t.248.744l-1.712.608a7.712,7.712,0,0,0-.224-.76q-.16-.472-.352-.992t-.384-1q-.192-.48-.32-.784Zm5.872,1.088q-.112.352-.192.6t-.144.472a16.966,16.966,0,0,1-.848,2.456,10.545,10.545,0,0,1-1.36,2.3A11.846,11.846,0,0,1,40.784,19.9a12.9,12.9,0,0,1-2.8,1.512l-1.5-1.536A11.772,11.772,0,0,0,40.208,18a8.591,8.591,0,0,0,1.552-1.488,8.091,8.091,0,0,0,.992-1.576,11.624,11.624,0,0,0,.72-1.9,11.188,11.188,0,0,0,.384-2.016Zm-9.584-.256q.144.3.344.776t.416,1.008q.216.536.408,1.032t.3.832L36,15.7q-.1-.3-.28-.824t-.408-1.08q-.224-.56-.424-1.032a7.644,7.644,0,0,0-.344-.728Zm26-1.376a5.57,5.57,0,0,0-.5,1.072,15.5,15.5,0,0,1-.592,1.64,17.188,17.188,0,0,1-.936,1.888,13.389,13.389,0,0,1-1.272,1.848,14.6,14.6,0,0,1-2.656,2.488,16.613,16.613,0,0,1-3.776,1.992l-1.68-1.5a15.74,15.74,0,0,0,2.768-1.1A12.632,12.632,0,0,0,55.7,17.008,12.452,12.452,0,0,0,57.3,15.472,9.6,9.6,0,0,0,58.352,14a13.778,13.778,0,0,0,.824-1.632,7.859,7.859,0,0,0,.472-1.44H54.1l.672-1.616h4.72a5.148,5.148,0,0,0,.712-.048,2.525,2.525,0,0,0,.584-.144Zm-5.264-2.5q-.256.384-.512.832t-.384.688a17.664,17.664,0,0,1-1.3,1.976,17.556,17.556,0,0,1-1.776,2.008,15.714,15.714,0,0,1-2.184,1.776l-1.6-1.184A14.346,14.346,0,0,0,51.1,12.3,13.4,13.4,0,0,0,52.5,10.9a14.419,14.419,0,0,0,1.032-1.336q.432-.64.72-1.168a5.754,5.754,0,0,0,.36-.712,5.339,5.339,0,0,0,.3-.84Z" transform="translate(1180 1030)" fill="#333"/><g transform="translate(696 903)"><path d="M956.549,52.374H875.11c-.221,0-.442,0-.662,0h-.063c.134,0-.291-.006-.06.007.146.008-.027,0-.054-.012-.072-.021-.145-.04-.216-.062.24.074-.064-.047-.137-.088-.164-.092.134.134,0,0-.038-.038-.078-.078-.118-.114-.016-.014-.127-.154-.039-.037s-.034-.063-.052-.1c-.027-.048-.054-.1-.077-.147.078.168.024.051,0-.059-.012-.055-.028-.11-.036-.166.006.04,0,.19.019.056.008-.052,0-.039,0-.06s0-.014,0-.021c.022-.936,0-1.876,0-2.812V4.151c0-.064,0-.129,0-.193,0-.021.009-.008,0-.061-.02-.134-.013.016-.019.056.008-.056.023-.111.036-.166.009-.037.083-.262.024-.11-.052.137.014-.027.027-.047.04-.062.074-.126.115-.188-.067.1-.087.088,0,.007.04-.036.08-.076.118-.114.133-.132-.165.095,0,0,.073-.041.377-.161.137-.088a2.29,2.29,0,0,1,.328-.084c-.067.01-.236.01,0,.017.131,0,.263,0,.395,0h79.753c.655,0,1.31.011,1.965,0h.053c.018,0,.216,0,.06-.007s.068.016.109.026.108.031.162.048c-.115-.035-.111-.065,0,0,.062.04.126.074.188.115-.018-.012-.149-.133-.047-.032.068.068.249.3.122.108.036.055.186.352.141.235-.057-.147.061.389.05.219-.009-.134-.006.038-.007.092-.006.3,0,.594,0,.89V51.4c0,.066,0,.131,0,.2,0,.121,0,.145.017.007-.007.05-.106.4-.06.277s-.105.18-.141.235c.127-.193-.054.04-.122.108-.1.1.029-.02.047-.032-.062.04-.126.075-.188.115-.176.113.107,0-.1.037-.075.012-.146.038-.221.05.058-.009.249-.024,0-.017a1.295,1.295,0,1,0,0,2.589,3.425,3.425,0,0,0,3.363-3.461c0-.372,0-.745,0-1.117V4.878c0-.3.006-.6,0-.895a3.42,3.42,0,0,0-3.376-3.39c-.578-.012-1.157,0-1.735,0H874.74c-.2,0-.394-.007-.589.013a3.425,3.425,0,0,0-3.13,3.467c-.005,1.127,0,2.253,0,3.38V48.765c0,.938-.019,1.878,0,2.817a3.42,3.42,0,0,0,3.381,3.381c.179,0,.358,0,.537,0h81.609a1.295,1.295,0,0,0,0-2.589" transform="translate(-871.013 -0.487)" fill="#333"/><path d="M966.691,146.4a1.44,1.44,0,0,1-.011.159l.046-.344a1.261,1.261,0,0,1-.083.3l.13-.309a1.271,1.271,0,0,1-.154.258l.2-.262a1.3,1.3,0,0,1-.19.19l.262-.2a1.264,1.264,0,0,1-.258.154l.309-.131a1.26,1.26,0,0,1-.3.083l.344-.046a1.284,1.284,0,0,1-.317,0l.344.046a1.257,1.257,0,0,1-.3-.083l.309.131a1.265,1.265,0,0,1-.258-.154l.262.2a1.306,1.306,0,0,1-.19-.19l.2.262a1.262,1.262,0,0,1-.154-.258l.13.309a1.261,1.261,0,0,1-.083-.3l.046.344a1.274,1.274,0,0,1,0-.318l-.046.344a1.261,1.261,0,0,1,.083-.3l-.13.309a1.262,1.262,0,0,1,.154-.258l-.2.262a1.3,1.3,0,0,1,.19-.19l-.262.2a1.271,1.271,0,0,1,.258-.154l-.309.131a1.26,1.26,0,0,1,.3-.083l-.344.046a1.283,1.283,0,0,1,.317,0l-.344-.046a1.262,1.262,0,0,1,.3.083l-.309-.131a1.27,1.27,0,0,1,.258.154l-.262-.2a1.305,1.305,0,0,1,.19.19l-.2-.262a1.271,1.271,0,0,1,.154.258l-.13-.309a1.261,1.261,0,0,1,.083.3l-.046-.344a1.44,1.44,0,0,1,.011.159,1.343,1.343,0,0,0,.379.915,1.294,1.294,0,0,0,1.831,0,1.33,1.33,0,0,0,.379-.915,3.554,3.554,0,0,0-.057-.5,1.249,1.249,0,0,0-.045-.2,2.334,2.334,0,0,0-.295-.631,3.454,3.454,0,0,0-.3-.377,3.005,3.005,0,0,0-.383-.313,2.422,2.422,0,0,0-1.318-.423,1.246,1.246,0,0,0-.191.008,3.237,3.237,0,0,0-.512.08,2.376,2.376,0,0,0-1.154.716,3.364,3.364,0,0,0-.289.384,3.013,3.013,0,0,0-.207.457,2.439,2.439,0,0,0-.134.687,2.281,2.281,0,0,0,.072.722,1.3,1.3,0,0,0,.057.175,3.093,3.093,0,0,0,.205.458,3.3,3.3,0,0,0,.288.386,1.3,1.3,0,0,0,.133.142,2.375,2.375,0,0,0,.563.4,3.323,3.323,0,0,0,.452.183,3.092,3.092,0,0,0,.511.082,2.43,2.43,0,0,0,.708-.054,1.221,1.221,0,0,0,.222-.064,3.043,3.043,0,0,0,.472-.211,3.128,3.128,0,0,0,.409-.307,1.294,1.294,0,0,0,.148-.148,2.735,2.735,0,0,0,.523-.895,1.206,1.206,0,0,0,.058-.207,3.412,3.412,0,0,0,.065-.549,1.329,1.329,0,0,0-.379-.915,1.294,1.294,0,0,0-1.831,0,1.359,1.359,0,0,0-.379.915" transform="translate(-948.272 -119.107)" fill="#333"/><path d="M1266.691,146.4a1.44,1.44,0,0,1-.011.159l.046-.344a1.255,1.255,0,0,1-.083.3l.131-.309a1.287,1.287,0,0,1-.154.258l.2-.262a1.3,1.3,0,0,1-.19.19l.262-.2a1.267,1.267,0,0,1-.258.154l.309-.131a1.259,1.259,0,0,1-.3.083l.344-.046a1.284,1.284,0,0,1-.317,0l.344.046a1.258,1.258,0,0,1-.3-.083l.309.131a1.263,1.263,0,0,1-.258-.154l.262.2a1.3,1.3,0,0,1-.19-.19l.2.262a1.259,1.259,0,0,1-.154-.258l.13.309a1.261,1.261,0,0,1-.083-.3l.046.344a1.257,1.257,0,0,1,0-.318l-.046.344a1.262,1.262,0,0,1,.083-.3l-.13.309a1.259,1.259,0,0,1,.154-.258l-.2.262a1.29,1.29,0,0,1,.19-.19l-.262.2a1.269,1.269,0,0,1,.258-.154l-.309.131a1.26,1.26,0,0,1,.3-.083l-.344.046a1.283,1.283,0,0,1,.317,0l-.344-.046a1.261,1.261,0,0,1,.3.083l-.309-.131a1.277,1.277,0,0,1,.258.154l-.262-.2a1.3,1.3,0,0,1,.19.19l-.2-.262a1.288,1.288,0,0,1,.154.258l-.131-.309a1.256,1.256,0,0,1,.083.3l-.046-.344a1.44,1.44,0,0,1,.011.159,1.342,1.342,0,0,0,.379.915,1.294,1.294,0,0,0,1.831,0,1.331,1.331,0,0,0,.379-.915,3.563,3.563,0,0,0-.057-.5,1.243,1.243,0,0,0-.045-.2,2.332,2.332,0,0,0-.295-.631,3.455,3.455,0,0,0-.3-.377,2.993,2.993,0,0,0-.383-.313,2.42,2.42,0,0,0-1.318-.423,1.246,1.246,0,0,0-.191.008,3.24,3.24,0,0,0-.512.08,2.376,2.376,0,0,0-1.154.716,3.365,3.365,0,0,0-.289.384,2.989,2.989,0,0,0-.207.457,2.435,2.435,0,0,0-.134.687,2.281,2.281,0,0,0,.072.722,1.3,1.3,0,0,0,.057.175,3.063,3.063,0,0,0,.205.458,3.292,3.292,0,0,0,.287.386,1.294,1.294,0,0,0,.133.142,2.372,2.372,0,0,0,.563.4,3.323,3.323,0,0,0,.452.183,3.092,3.092,0,0,0,.511.082,2.432,2.432,0,0,0,.708-.054,1.218,1.218,0,0,0,.222-.064,3.038,3.038,0,0,0,.472-.211,3.116,3.116,0,0,0,.409-.307,1.285,1.285,0,0,0,.148-.148,2.733,2.733,0,0,0,.523-.895,1.189,1.189,0,0,0,.058-.207,3.426,3.426,0,0,0,.065-.549,1.329,1.329,0,0,0-.379-.915,1.294,1.294,0,0,0-1.831,0,1.359,1.359,0,0,0-.379.915" transform="translate(-1196.491 -119.107)" fill="#333"/><path d="M1205.684,87.7h13.868c.642,0,1.285.014,1.926,0h.028A1.314,1.314,0,0,0,1222.8,86.4a4.808,4.808,0,0,1,.041-.6l-.046.344a4.5,4.5,0,0,1,.287-1.058l-.131.309a4.443,4.443,0,0,1,.4-.748c.031-.047.065-.092.1-.138.122-.176-.231.283-.03.04q.126-.151.265-.29t.29-.265c.242-.2-.216.152-.04.03.046-.032.092-.065.138-.1a4.439,4.439,0,0,1,.748-.4l-.309.13a4.507,4.507,0,0,1,1.058-.287l-.344.046a4.573,4.573,0,0,1,.6-.041,1.313,1.313,0,0,0,1.295-1.295V59.377c0-1.044.017-2.089,0-3.133,0-.015,0-.031,0-.046a1.313,1.313,0,0,0-1.295-1.295,4.573,4.573,0,0,1-.6-.041l.344.046a4.506,4.506,0,0,1-1.058-.287l.309.13a4.44,4.44,0,0,1-.748-.4c-.047-.031-.092-.065-.138-.1-.176-.122.282.231.04.03q-.151-.126-.29-.265t-.265-.29c-.2-.242.152.216.03.04-.032-.046-.066-.092-.1-.138a4.461,4.461,0,0,1-.4-.748l.131.309a4.5,4.5,0,0,1-.287-1.058l.046.344a4.808,4.808,0,0,1-.041-.6,1.314,1.314,0,0,0-1.295-1.295h-13.868c-.641,0-1.284-.014-1.926,0h-.028a1.295,1.295,0,1,0,0,2.589h13.868c.641,0,1.285.02,1.926,0h.028l-1.294-1.295a5.61,5.61,0,0,0,5.61,5.61l-1.295-1.295V78.911c0,1.043-.025,2.09,0,3.133,0,.015,0,.031,0,.046l1.295-1.295a5.61,5.61,0,0,0-5.61,5.61l1.294-1.295h-13.868c-.641,0-1.284-.014-1.926,0h-.028a1.295,1.295,0,1,0,0,2.589" transform="translate(-1146.847 -41.852)" fill="#333"/><path d="M942.456,50.589H928.588c-.641,0-1.285-.014-1.926,0h-.028a1.314,1.314,0,0,0-1.295,1.295,4.8,4.8,0,0,1-.041.6q.023-.172.046-.344a4.5,4.5,0,0,1-.287,1.058l.13-.309a4.443,4.443,0,0,1-.4.748c-.031.047-.065.092-.1.138-.122.176.231-.283.029-.04q-.126.151-.265.29t-.29.265c-.242.2.216-.152.04-.03-.046.032-.092.065-.138.1a4.45,4.45,0,0,1-.748.4l.309-.13a4.505,4.505,0,0,1-1.058.287l.344-.046a4.836,4.836,0,0,1-.6.041,1.314,1.314,0,0,0-1.295,1.295V78.911c0,1.044-.017,2.089,0,3.133,0,.015,0,.031,0,.046a1.314,1.314,0,0,0,1.295,1.295,4.833,4.833,0,0,1,.6.041l-.344-.046a4.506,4.506,0,0,1,1.058.287l-.309-.13a4.449,4.449,0,0,1,.748.4c.047.031.092.065.138.1.176.122-.283-.231-.04-.03q.151.126.29.265t.265.29c.2.242-.151-.216-.029-.04.032.046.065.092.1.138a4.451,4.451,0,0,1,.4.748l-.13-.309a4.5,4.5,0,0,1,.287,1.058q-.023-.172-.046-.344a4.8,4.8,0,0,1,.041.6,1.314,1.314,0,0,0,1.295,1.295H940.5c.641,0,1.285.014,1.926,0h.028a1.295,1.295,0,1,0,0-2.589H928.588c-.641,0-1.285-.02-1.926,0h-.028l1.294,1.295a5.61,5.61,0,0,0-5.61-5.61l1.294,1.295V59.377c0-1.043.025-2.09,0-3.133,0-.015,0-.031,0-.046l-1.294,1.295a5.61,5.61,0,0,0,5.61-5.61l-1.294,1.295H940.5c.641,0,1.285.014,1.926,0h.028a1.295,1.295,0,1,0,0-2.589" transform="translate(-912.386 -41.852)" fill="#333"/><path d="M871.031,289.927l.411,3.632q.494,4.362.987,8.724l1.2,10.6,1.033,9.128c.167,1.48.328,2.961.5,4.44,0,.021,0,.042.007.063a1.326,1.326,0,0,0,1.294,1.295h74.511c1.01,0,2.022.019,3.031,0h.129a1.332,1.332,0,0,0,1.295-1.295l.446-3.632,1.071-8.724,1.3-10.6,1.12-9.128c.181-1.47.453-2.96.545-4.44,0-.021.005-.042.008-.063a1.3,1.3,0,0,0-1.295-1.295,1.334,1.334,0,0,0-1.294,1.295l-.446,3.632-1.071,8.724-1.3,10.6-1.12,9.128c-.181,1.473-.439,2.959-.545,4.44,0,.021-.005.042-.008.063l1.294-1.295H879.626c-1.008,0-2.024-.035-3.031,0-.043,0-.086,0-.129,0l1.294,1.295-.411-3.632-.987-8.724-1.2-10.6-1.033-9.128c-.167-1.48-.328-2.961-.5-4.44l-.007-.063a1.326,1.326,0,0,0-1.295-1.295c-.636.028-1.376.574-1.294,1.295" transform="translate(-871.023 -238.813)" fill="#333"/><path d="M1045.948,1.3V48.551c0,1.519-.053,3.048,0,4.567.01.283.058.566.09.847q.185,1.594.369,3.187.634,5.472,1.267,10.944l1.392,12.025q.419,3.617.838,7.233.021.177.041.353A1.326,1.326,0,0,0,1051.24,89h17.578a1.333,1.333,0,0,0,1.295-1.295l.642-5.139,1.429-11.436q.731-5.847,1.462-11.693c.257-2.053.587-4.111.772-6.172.089-.991.01-2.022.01-3.016V1.4a1.295,1.295,0,0,0-2.589,0V48.593c0,1.5.059,3.023,0,4.528-.012.291-.065.583-.1.871l-.4,3.187q-.685,5.479-1.37,10.958l-1.5,12.019q-.45,3.6-.9,7.2l-.044.353,1.295-1.295H1051.24l1.295,1.295q-.3-2.569-.6-5.139-.662-5.718-1.324-11.436l-1.362-11.761c-.235-2.034-.542-4.073-.708-6.114-.081-1-.008-2.038-.008-3.043V1.3a1.295,1.295,0,0,0-2.589,0" transform="translate(-1015.734 -0.004)" fill="#333"/><path d="M4.476,9.055A1,1,0,0,1,3.6,8.541L-.874.486A1,1,0,0,1-.486-.874a1,1,0,0,1,1.36.389L5.349,7.569a1,1,0,0,1-.873,1.486Z" transform="translate(39.979 19.504)" fill="#333"/><path d="M0,9.458a1,1,0,0,1-1-1V0A1,1,0,0,1,0-1,1,1,0,0,1,1,0V8.458A1,1,0,0,1,0,9.458Z" transform="translate(44.453 27.559)" fill="#333"/><path d="M0,9.055a1,1,0,0,1-.485-.126,1,1,0,0,1-.389-1.36L3.6-.486a1,1,0,0,1,1.36-.389A1,1,0,0,1,5.349.486L.874,8.541A1,1,0,0,1,0,9.055Z" transform="translate(44.453 19.504)" fill="#333"/><path d="M12.082,1H0A1,1,0,0,1-1,0,1,1,0,0,1,0-1H12.082a1,1,0,0,1,1,1A1,1,0,0,1,12.082,1Z" transform="translate(38.412 27.559)" fill="#333"/><path d="M12.082,1H0A1,1,0,0,1-1,0,1,1,0,0,1,0-1H12.082a1,1,0,0,1,1,1A1,1,0,0,1,12.082,1Z" transform="translate(38.412 32.391)" fill="#333"/></g><g transform="translate(916 903)"><path d="M117.13,1052.378v29.529c0,.084,0,.168,0,.252,0,.032,0,.245,0,.1,0,.195.036-.021.013-.06a.9.9,0,0,1-.1.359s.154-.271.015-.059c-.032.049-.065.105-.095.156-.1.167.039-.02.037-.046,0,.042-.137.13-.159.162-.089.131.25-.142.012-.006-.051.029-.109.062-.156.095-.107.073-.055.1.059-.015a.69.69,0,0,1-.176.059c-.026.007-.179.036-.183.043.013-.027.322-.013.06-.013l-.1,0c-.584.012-1.169,0-1.753,0H50.867c-.148,0-.3,0-.444,0-.032,0-.486,0-.1,0-.2,0,.021.036.059.013a.9.9,0,0,1-.359-.1s.271.154.059.015c-.05-.033-.105-.064-.156-.095-.225-.135.05.036.046.037a1.255,1.255,0,0,1-.192-.192s.171.271.037.046c-.03-.051-.062-.108-.095-.156-.073-.107-.1-.055.015.059a.689.689,0,0,1-.059-.176c-.007-.026-.036-.179-.043-.183.026.013.013.322.013.06,0-.033,0-.067,0-.1,0-.1,0-.191,0-.286v-29.492a1.295,1.295,0,0,0-2.589,0v29.6a3.433,3.433,0,0,0,3.074,3.522,16.923,16.923,0,0,0,1.921.02H115.98a5.412,5.412,0,0,0,1.1-.082,3.393,3.393,0,0,0,2.627-3.087c.011-.137.009-.274.009-.411v-29.563a1.295,1.295,0,0,0-2.589,0" transform="translate(-38.937 -1046.291)" fill="#333"/><path d="M202.266,1053.309c.122.143.24.289.359.435s-.073-.092-.086-.113c.022.035.052.068.077.1q.086.114.17.23.339.469.641.964a16.154,16.154,0,0,1,1.071,2.095l-.13-.309a18.087,18.087,0,0,1,1.23,4.533l-.046-.344a19.524,19.524,0,0,1,0,5.19l.046-.344a18.063,18.063,0,0,1-1.234,4.546l.13-.31a16.244,16.244,0,0,1-.919,1.838q-.256.438-.541.859-.129.189-.263.375-.067.092-.135.183c-.023.03-.046.06-.068.09.249-.34.125-.161.064-.083a13.089,13.089,0,0,1-1.289,1.412q-.344.325-.713.623c-.084.067-.306.231.051-.037l-.17.129q-.192.142-.39.276a10.568,10.568,0,0,1-1.789.973l.309-.13a9.668,9.668,0,0,1-2.388.658l.344-.046a9.416,9.416,0,0,1-2.51,0l.344.046a9.668,9.668,0,0,1-2.388-.658l.309.13a10.514,10.514,0,0,1-1.591-.842q-.189-.122-.373-.251a3.653,3.653,0,0,0-.386-.284c-.006,0,.28.221.135.1l-.084-.067-.166-.136q-.187-.156-.367-.32a12.948,12.948,0,0,1-1.31-1.381c-.048-.058-.095-.116-.141-.175a.745.745,0,0,1-.087-.111s.214.282.1.127c-.1-.137-.2-.274-.3-.414q-.282-.4-.537-.822a16.108,16.108,0,0,1-1.053-2.063l.13.31a18.063,18.063,0,0,1-1.234-4.546l.046.344a19.524,19.524,0,0,1,0-5.19l-.046.344a18.078,18.078,0,0,1,1.23-4.533l-.13.309a16.152,16.152,0,0,1,1.071-2.095q.293-.481.622-.938.083-.116.169-.23l.076-.1c.093-.124-.184.233-.086.113.125-.155.249-.309.378-.46a1.379,1.379,0,0,0,.379-.915,1.295,1.295,0,0,0-2.21-.915,17.332,17.332,0,0,0-3.51,6.695,19.977,19.977,0,0,0-.55,7.788,19.12,19.12,0,0,0,2.158,6.834,14.854,14.854,0,0,0,4.268,4.874,11.14,11.14,0,0,0,5.706,2.081,10.777,10.777,0,0,0,5.918-1.348,13.766,13.766,0,0,0,4.63-4.322,17.534,17.534,0,0,0,2.63-6.182,20.833,20.833,0,0,0,.171-7.916A17.721,17.721,0,0,0,205.26,1053a17.362,17.362,0,0,0-1.162-1.517,1.3,1.3,0,0,0-1.831,0,1.328,1.328,0,0,0,0,1.831" transform="translate(-150.889 -1046.307)" fill="#333"/><path d="M124.708,1110.638a1.148,1.148,0,0,1-.009.129l.046-.344a1.024,1.024,0,0,1-.067.24l.13-.309a1.02,1.02,0,0,1-.125.21l.2-.262a1.059,1.059,0,0,1-.154.154l.262-.2a1.044,1.044,0,0,1-.21.125l.309-.13a1.033,1.033,0,0,1-.24.067l.344-.046a1.046,1.046,0,0,1-.258,0l.344.046a1.036,1.036,0,0,1-.24-.067l.309.13a1.038,1.038,0,0,1-.21-.125l.262.2a1.042,1.042,0,0,1-.154-.154l.2.262a1.019,1.019,0,0,1-.125-.21l.13.309a1.024,1.024,0,0,1-.067-.24l.046.344a1.04,1.04,0,0,1,0-.258l-.046.344a1.018,1.018,0,0,1,.067-.24l-.13.309a1.029,1.029,0,0,1,.125-.21l-.2.262a1.047,1.047,0,0,1,.154-.154l-.262.2a1.027,1.027,0,0,1,.21-.125l-.309.13a1.036,1.036,0,0,1,.24-.067l-.344.046a1.023,1.023,0,0,1,.258,0l-.344-.046a1.033,1.033,0,0,1,.24.067l-.309-.13a1.032,1.032,0,0,1,.21.125l-.262-.2a1.064,1.064,0,0,1,.154.154l-.2-.262a1.031,1.031,0,0,1,.125.21l-.13-.309a1.018,1.018,0,0,1,.067.24l-.046-.344a1.154,1.154,0,0,1,.009.129,1.342,1.342,0,0,0,.379.915,1.294,1.294,0,0,0,1.831,0,1.331,1.331,0,0,0,.379-.915,3.372,3.372,0,0,0-.055-.473,1.027,1.027,0,0,0-.037-.159,3.294,3.294,0,0,0-.182-.435,1.006,1.006,0,0,0-.082-.135,3.221,3.221,0,0,0-.28-.356,2.816,2.816,0,0,0-.361-.293,2.141,2.141,0,0,0-.553-.269.991.991,0,0,0-.156-.045,3.292,3.292,0,0,0-.484-.063,1.032,1.032,0,0,0-.155.006,3.021,3.021,0,0,0-.48.074,2.982,2.982,0,0,0-.426.172,1.064,1.064,0,0,0-.14.075,2.133,2.133,0,0,0-.478.4,3.1,3.1,0,0,0-.273.361,2.775,2.775,0,0,0-.193.429,2.23,2.23,0,0,0-.118.623.948.948,0,0,0,0,.169,3.292,3.292,0,0,0,.068.482,1.066,1.066,0,0,0,.046.142,2.874,2.874,0,0,0,.191.43,3.078,3.078,0,0,0,.272.362,1.053,1.053,0,0,0,.108.115,2.155,2.155,0,0,0,.507.362,3.045,3.045,0,0,0,.425.173,2.877,2.877,0,0,0,.48.075,2.223,2.223,0,0,0,.639-.052,1.016,1.016,0,0,0,.18-.052,2.831,2.831,0,0,0,.441-.2,2.887,2.887,0,0,0,.381-.287,1.061,1.061,0,0,0,.12-.12,2.491,2.491,0,0,0,.487-.834.982.982,0,0,0,.047-.168,3.171,3.171,0,0,0,.061-.511,1.329,1.329,0,0,0-.379-.915,1.295,1.295,0,0,0-1.831,0,1.36,1.36,0,0,0-.379.915" transform="translate(-101.637 -1093.722)" fill="#333"/><path d="M368.284,1110.638a1.152,1.152,0,0,1-.009.129l.046-.344a1.015,1.015,0,0,1-.067.24l.131-.309a1.018,1.018,0,0,1-.125.21l.2-.262a1.059,1.059,0,0,1-.154.154l.262-.2a1.045,1.045,0,0,1-.21.125l.309-.13a1.033,1.033,0,0,1-.24.067l.344-.046a1.046,1.046,0,0,1-.258,0l.344.046a1.036,1.036,0,0,1-.24-.067l.309.13a1.039,1.039,0,0,1-.21-.125l.262.2a1.043,1.043,0,0,1-.154-.154l.2.262a1.019,1.019,0,0,1-.125-.21l.13.309a1.025,1.025,0,0,1-.067-.24l.046.344a1.039,1.039,0,0,1,0-.258l-.046.344a1.019,1.019,0,0,1,.067-.24l-.13.309a1.03,1.03,0,0,1,.125-.21l-.2.262a1.048,1.048,0,0,1,.154-.154l-.262.2a1.028,1.028,0,0,1,.21-.125l-.309.13a1.036,1.036,0,0,1,.24-.067l-.344.046a1.023,1.023,0,0,1,.258,0l-.344-.046a1.033,1.033,0,0,1,.24.067l-.309-.13a1.034,1.034,0,0,1,.21.125l-.262-.2a1.065,1.065,0,0,1,.154.154l-.2-.262a1.029,1.029,0,0,1,.125.21l-.131-.309a1.009,1.009,0,0,1,.067.24l-.046-.344a1.158,1.158,0,0,1,.009.129,1.342,1.342,0,0,0,.379.915,1.294,1.294,0,0,0,1.831,0,1.331,1.331,0,0,0,.379-.915,3.369,3.369,0,0,0-.055-.473,1.023,1.023,0,0,0-.037-.159,3.3,3.3,0,0,0-.182-.435,1.007,1.007,0,0,0-.082-.135,3.221,3.221,0,0,0-.28-.356,2.816,2.816,0,0,0-.361-.293,2.141,2.141,0,0,0-.553-.269.992.992,0,0,0-.156-.045,3.292,3.292,0,0,0-.484-.063,1.032,1.032,0,0,0-.155.006,3.021,3.021,0,0,0-.48.074,2.979,2.979,0,0,0-.426.172,1.064,1.064,0,0,0-.14.075,2.134,2.134,0,0,0-.478.4,3.1,3.1,0,0,0-.273.361,2.772,2.772,0,0,0-.193.429,2.23,2.23,0,0,0-.118.623.945.945,0,0,0,0,.169,3.3,3.3,0,0,0,.068.482,1.066,1.066,0,0,0,.046.142,2.874,2.874,0,0,0,.191.43,3.08,3.08,0,0,0,.272.362,1.051,1.051,0,0,0,.108.115,2.155,2.155,0,0,0,.507.362,3.047,3.047,0,0,0,.425.173,2.878,2.878,0,0,0,.48.075,2.223,2.223,0,0,0,.639-.052,1.015,1.015,0,0,0,.18-.052,2.837,2.837,0,0,0,.441-.2,2.89,2.89,0,0,0,.381-.287,1.06,1.06,0,0,0,.12-.12,2.491,2.491,0,0,0,.487-.834.984.984,0,0,0,.047-.168,3.171,3.171,0,0,0,.061-.511,1.329,1.329,0,0,0-.379-.915,1.295,1.295,0,0,0-1.831,0,1.36,1.36,0,0,0-.379.915" transform="translate(-303.171 -1093.722)" fill="#333"/><path d="M318.989,1080.035h12.846a1.314,1.314,0,0,0,1.295-1.294,4.047,4.047,0,0,1,.032-.475l-.046.344a3.7,3.7,0,0,1,.243-.888l-.13.309a3.68,3.68,0,0,1,.307-.572c.031-.047.066-.091.1-.138.082-.125-.213.258-.082.107.074-.084.147-.169.226-.249s.15-.14.227-.208c.177-.155-.109.075-.108.08,0-.018.114-.082.137-.1a3.652,3.652,0,0,1,.6-.323l-.309.13a3.713,3.713,0,0,1,.888-.243l-.344.046a4.042,4.042,0,0,1,.475-.032,1.314,1.314,0,0,0,1.295-1.295V1056.8c0-.848.016-1.7,0-2.545,0-.012,0-.024,0-.036a1.295,1.295,0,1,0-2.589,0v18.441c0,.847-.023,1.7,0,2.545,0,.012,0,.024,0,.035l1.295-1.294a4.8,4.8,0,0,0-4.8,4.8l1.295-1.295H318.989a1.294,1.294,0,1,0,0,2.589" transform="translate(-262.859 -1047.812)" fill="#333"/><path d="M87.622,1054.216v18.441c0,.848-.017,1.7,0,2.545,0,.012,0,.024,0,.035a1.315,1.315,0,0,0,1.295,1.295,4.043,4.043,0,0,1,.475.032l-.344-.046a3.7,3.7,0,0,1,.888.243l-.309-.13a3.682,3.682,0,0,1,.572.307c.047.031.091.066.138.1.125.082-.258-.213-.107-.082.085.074.169.147.249.226s.14.15.208.227c.155.177-.075-.109-.08-.108.018,0,.082.115.1.137a3.642,3.642,0,0,1,.323.6l-.13-.309a3.7,3.7,0,0,1,.243.888l-.046-.344a4.045,4.045,0,0,1,.032.475,1.314,1.314,0,0,0,1.295,1.294h12.846a1.294,1.294,0,1,0,0-2.589H92.42l1.295,1.295a4.8,4.8,0,0,0-4.8-4.8l1.295,1.294V1056.8c0-.848.017-1.7,0-2.545,0-.012,0-.024,0-.036a1.295,1.295,0,1,0-2.589,0" transform="translate(-72.492 -1047.812)" fill="#333"/><path d="M48.807,1265.235h67.074c.906,0,1.813.012,2.719,0h.119a1.295,1.295,0,0,0,0-2.589H51.645c-.906,0-1.813-.012-2.719,0h-.119a1.295,1.295,0,0,0,0,2.589" transform="translate(-39.311 -1221.333)" fill="#333"/><path d="M48.807,1322.571h67.074c.906,0,1.813.013,2.719,0h.119a1.294,1.294,0,1,0,0-2.589H51.645c-.906,0-1.813-.012-2.719,0h-.119a1.294,1.294,0,1,0,0,2.589" transform="translate(-39.311 -1268.772)" fill="#333"/><path d="M48.807,1293.9h67.074c.906,0,1.813.012,2.719,0h.119a1.294,1.294,0,1,0,0-2.589H51.645c-.906,0-1.813-.012-2.719,0h-.119a1.294,1.294,0,1,0,0,2.589" transform="translate(-39.311 -1245.052)" fill="#333"/><path d="M47.486,1219.312v15.441c0,.71-.015,1.422,0,2.131,0,.01,0,.021,0,.031a1.295,1.295,0,1,0,2.589,0v-15.441c0-.71.015-1.422,0-2.131,0-.01,0-.021,0-.031a1.295,1.295,0,1,0-2.589,0" transform="translate(-39.284 -1184.411)" fill="#333"/><path d="M452.988,1219.312v15.441c0,.71-.015,1.422,0,2.131,0,.01,0,.021,0,.031a1.295,1.295,0,1,0,2.589,0v-15.441c0-.71.015-1.422,0-2.131,0-.01,0-.021,0-.031a1.295,1.295,0,1,0-2.589,0" transform="translate(-374.795 -1184.411)" fill="#333"/><path d="M48.807,1322.235h67.074c.906,0,1.813.012,2.719,0h.119a1.294,1.294,0,1,0,0-2.589H51.645c-.906,0-1.813-.012-2.719,0h-.119a1.294,1.294,0,1,0,0,2.589" transform="translate(-39.311 -1268.495)" fill="#333"/><path d="M5.616,1040.585H4.063c-.277,0-.554,0-.832,0H3.1c-.02,0-.214-.014-.062,0,.168.02-.057-.016-.055-.018s-.209-.066-.059-.009-.072-.044-.1-.057c-.123-.061.013.025.035.043a1.451,1.451,0,0,1-.122-.113,1.436,1.436,0,0,1-.113-.122c.123.155,0,.008.014-.012-.006.008-.086-.2-.028-.049s-.012-.055-.009-.059-.038-.223-.018-.055c.019.152,0-.043,0-.062,0-.039,0-.078,0-.118,0-.279,0-.559,0-.839v-12.355c0-.093,0-.187,0-.28,0-.018,0-.037,0-.055v-.008c0-.005,0-.114,0-.119-.009.2.028.027.009,0,0,0,.066-.208.009-.059s.022-.056.028-.049.112-.187.022-.054c-.078.116.019-.024.038-.042.075-.069.254-.181.078-.08a1.241,1.241,0,0,1,.145-.083c.181-.073-.189.054,0,0l.166-.042c-.036.009-.195,0-.054.014a.169.169,0,0,0,.06,0h.139c.234,0,.468,0,.7,0h79.76c.65,0,1.3,0,1.949,0H85.8l.119,0c-.2-.009-.028.028,0,.01,0,0,.209.066.059.009s.056.023.049.028.187.112.054.022c-.116-.078.024.019.041.038.069.075.181.254.08.078a1.243,1.243,0,0,1,.083.145c.073.181-.054-.188,0,0,.015.055.028.11.042.166-.009-.036,0-.194-.014-.054a.64.64,0,0,0,0,.064c0,.017,0,.035,0,.052,0,.09,0,.181,0,.271V1039.1c0,.284,0,.568,0,.853,0,.042,0,.084,0,.126,0,.128-.018.132.012.006-.018.075-.036.147-.058.221,0-.015.075-.191.021-.051a1.127,1.127,0,0,1-.083.145c.009-.017.134-.15.035-.042-.071.077-.3.229-.115.122-.087.05-.294.121-.094.063-.1.028-.325.052-.107.042-.071,0-.141,0-.212,0-.256,0-.511,0-.767,0H83.4a1.294,1.294,0,1,0,0,2.589c1.252,0,2.8.228,3.931-.4a3.163,3.163,0,0,0,1.566-2.711c0-.2,0-.4,0-.6v-7.538c0-1.831.049-3.67,0-5.5a3.153,3.153,0,0,0-3.15-3.1c-.188,0-.377,0-.565,0H4.762c-.54,0-1.081-.011-1.621,0a3.152,3.152,0,0,0-3.134,3.106c-.016.624,0,1.249,0,1.873v11.286c0,.162,0,.325,0,.487a3.163,3.163,0,0,0,2.13,2.94,5.819,5.819,0,0,0,1.926.157H5.616a1.294,1.294,0,1,0,0-2.589" transform="translate(0 -1023.32)" fill="#333"/><path d="M4.476,9.055A1,1,0,0,1,3.6,8.541L-.874.486A1,1,0,0,1-.486-.874a1,1,0,0,1,1.36.389L5.349,7.569a1,1,0,0,1-.873,1.486Z" transform="translate(39.878 9.783)" fill="#333"/><path d="M0,9.458a1,1,0,0,1-1-1V0A1,1,0,0,1,0-1,1,1,0,0,1,1,0V8.458A1,1,0,0,1,0,9.458Z" transform="translate(44.353 17.838)" fill="#333"/><path d="M0,9.055a1,1,0,0,1-.485-.126,1,1,0,0,1-.389-1.36L3.6-.486a1,1,0,0,1,1.36-.389A1,1,0,0,1,5.349.486L.874,8.541A1,1,0,0,1,0,9.055Z" transform="translate(44.353 9.783)" fill="#333"/><path d="M12.082,1H0A1,1,0,0,1-1,0,1,1,0,0,1,0-1H12.082a1,1,0,0,1,1,1A1,1,0,0,1,12.082,1Z" transform="translate(38.312 17.838)" fill="#333"/><path d="M12.082,1H0A1,1,0,0,1-1,0,1,1,0,0,1,0-1H12.082a1,1,0,0,1,1,1A1,1,0,0,1,12.082,1Z" transform="translate(38.312 22.671)" fill="#333"/></g><g transform="translate(1136 903)"><path d="M117.13,159.378v29.529c0,.084,0,.168,0,.252,0,.032,0,.245,0,.1,0,.195.036-.021.013-.06a.9.9,0,0,1-.1.359s.154-.271.015-.06c-.032.05-.065.106-.095.156-.1.166.039-.019.037-.046,0,.042-.137.13-.159.162-.089.131.25-.142.012-.006-.051.029-.109.062-.156.095-.107.073-.055.1.059-.015a.68.68,0,0,1-.176.059c-.026.007-.179.036-.183.043.013-.026.322-.013.06-.013l-.1,0c-.584.012-1.169,0-1.753,0H50.867c-.148,0-.3,0-.444,0-.032,0-.486,0-.1,0-.2,0,.021.036.059.013a.892.892,0,0,1-.359-.1s.271.154.059.015c-.05-.033-.105-.064-.156-.095-.225-.134.05.036.046.037a1.241,1.241,0,0,1-.192-.192s.171.271.037.046c-.03-.051-.062-.108-.095-.156-.073-.107-.1-.055.015.06a.691.691,0,0,1-.059-.176c-.007-.026-.036-.179-.043-.183.026.013.013.322.013.06,0-.033,0-.067,0-.1,0-.1,0-.191,0-.286V159.378a1.295,1.295,0,0,0-2.589,0v29.6a3.432,3.432,0,0,0,3.074,3.521,16.9,16.9,0,0,0,1.921.02H115.98a5.411,5.411,0,0,0,1.1-.082,3.394,3.394,0,0,0,2.627-3.087c.011-.137.009-.274.009-.411V159.378a1.295,1.295,0,0,0-2.589,0" transform="translate(-38.937 -153.291)" fill="#333"/><path d="M202.266,160.309c.122.143.24.289.359.435s-.073-.092-.086-.113c.022.035.052.067.077.1q.086.114.17.23.339.469.641.964a16.153,16.153,0,0,1,1.071,2.1l-.13-.309a18.084,18.084,0,0,1,1.23,4.533l-.046-.344a19.523,19.523,0,0,1,0,5.19l.046-.344a18.059,18.059,0,0,1-1.234,4.546l.13-.309a16.257,16.257,0,0,1-.919,1.837q-.256.438-.541.859-.129.189-.263.375-.067.092-.135.183l-.068.09c.249-.34.125-.161.064-.083a13.12,13.12,0,0,1-1.289,1.412q-.344.325-.713.623c-.084.067-.306.231.051-.037l-.17.129q-.192.142-.39.276a10.565,10.565,0,0,1-1.789.973l.309-.13a9.667,9.667,0,0,1-2.388.658l.344-.046a9.435,9.435,0,0,1-2.51,0l.344.046a9.667,9.667,0,0,1-2.388-.658l.309.13a10.514,10.514,0,0,1-1.591-.842q-.189-.122-.373-.251a3.625,3.625,0,0,0-.386-.284c-.006,0,.28.221.135.1l-.084-.067-.166-.137q-.187-.156-.367-.32a12.929,12.929,0,0,1-1.31-1.381q-.071-.087-.141-.175a.746.746,0,0,1-.087-.111s.214.282.1.127c-.1-.137-.2-.274-.3-.414q-.282-.4-.537-.822a16.122,16.122,0,0,1-1.053-2.063l.13.309a18.06,18.06,0,0,1-1.234-4.546l.046.344a19.523,19.523,0,0,1,0-5.19l-.046.344a18.076,18.076,0,0,1,1.23-4.533l-.13.309a16.151,16.151,0,0,1,1.071-2.1q.293-.481.622-.938.083-.116.169-.23l.076-.1c.093-.124-.184.233-.086.112.125-.154.249-.309.378-.46a1.379,1.379,0,0,0,.379-.915,1.295,1.295,0,0,0-2.21-.915,17.335,17.335,0,0,0-3.51,6.695,19.979,19.979,0,0,0-.55,7.788,19.119,19.119,0,0,0,2.158,6.834,14.853,14.853,0,0,0,4.268,4.874,11.14,11.14,0,0,0,5.706,2.081,10.78,10.78,0,0,0,5.918-1.348,13.767,13.767,0,0,0,4.63-4.322,17.533,17.533,0,0,0,2.63-6.182,20.834,20.834,0,0,0,.171-7.916A17.723,17.723,0,0,0,205.26,160a17.394,17.394,0,0,0-1.162-1.517,1.3,1.3,0,0,0-1.831,0,1.328,1.328,0,0,0,0,1.831" transform="translate(-150.89 -153.307)" fill="#333"/><path d="M124.708,217.638a1.149,1.149,0,0,1-.009.129l.046-.344a1.022,1.022,0,0,1-.067.24l.13-.309a1.025,1.025,0,0,1-.125.21l.2-.262a1.061,1.061,0,0,1-.154.154l.262-.2a1.034,1.034,0,0,1-.21.125l.309-.13a1.029,1.029,0,0,1-.24.067l.344-.046a1.039,1.039,0,0,1-.258,0l.344.046a1.031,1.031,0,0,1-.24-.067l.309.13a1.029,1.029,0,0,1-.21-.125l.262.2a1.045,1.045,0,0,1-.154-.154l.2.262a1.024,1.024,0,0,1-.125-.21l.13.309a1.022,1.022,0,0,1-.067-.24l.046.344a1.039,1.039,0,0,1,0-.258l-.046.344a1.022,1.022,0,0,1,.067-.24l-.13.309a1.029,1.029,0,0,1,.125-.21l-.2.262a1.054,1.054,0,0,1,.154-.154l-.262.2a1.029,1.029,0,0,1,.21-.125l-.309.13a1.032,1.032,0,0,1,.24-.067l-.344.046a1.037,1.037,0,0,1,.258,0l-.344-.046a1.029,1.029,0,0,1,.24.067l-.309-.13a1.034,1.034,0,0,1,.21.125l-.262-.2a1.071,1.071,0,0,1,.154.154l-.2-.262a1.03,1.03,0,0,1,.125.21l-.13-.309a1.022,1.022,0,0,1,.067.24l-.046-.344a1.149,1.149,0,0,1,.009.129,1.342,1.342,0,0,0,.379.915,1.294,1.294,0,0,0,1.831,0,1.331,1.331,0,0,0,.379-.915,3.371,3.371,0,0,0-.055-.473,1.026,1.026,0,0,0-.037-.159,3.278,3.278,0,0,0-.182-.435,1,1,0,0,0-.082-.136,3.229,3.229,0,0,0-.28-.356,2.816,2.816,0,0,0-.361-.293,2.149,2.149,0,0,0-.553-.269.983.983,0,0,0-.156-.045,3.3,3.3,0,0,0-.484-.062,1.04,1.04,0,0,0-.155.006,2.046,2.046,0,0,0-.907.245,1.064,1.064,0,0,0-.14.075,2.137,2.137,0,0,0-.478.4,3.121,3.121,0,0,0-.273.361,2.785,2.785,0,0,0-.193.429,2.231,2.231,0,0,0-.118.623.948.948,0,0,0,0,.169,3.293,3.293,0,0,0,.068.482,1.081,1.081,0,0,0,.046.142,2.884,2.884,0,0,0,.191.43,3.084,3.084,0,0,0,.272.362,1.05,1.05,0,0,0,.108.115,2.155,2.155,0,0,0,.507.362,3.077,3.077,0,0,0,.425.173,2.9,2.9,0,0,0,.48.075,2.221,2.221,0,0,0,.639-.052,1.007,1.007,0,0,0,.18-.052,2.831,2.831,0,0,0,.441-.2,2.885,2.885,0,0,0,.381-.287,1.069,1.069,0,0,0,.12-.12,2.491,2.491,0,0,0,.487-.834.981.981,0,0,0,.047-.168,3.165,3.165,0,0,0,.061-.511,1.329,1.329,0,0,0-.379-.915,1.294,1.294,0,0,0-1.831,0,1.359,1.359,0,0,0-.379.915" transform="translate(-101.637 -200.722)" fill="#333"/><path d="M368.284,217.638a1.153,1.153,0,0,1-.009.129l.046-.344a1.013,1.013,0,0,1-.067.24l.131-.309a1.023,1.023,0,0,1-.125.21l.2-.262a1.062,1.062,0,0,1-.154.154l.262-.2a1.035,1.035,0,0,1-.21.125l.309-.13a1.029,1.029,0,0,1-.24.067l.344-.046a1.039,1.039,0,0,1-.258,0l.344.046a1.032,1.032,0,0,1-.24-.067l.309.13a1.029,1.029,0,0,1-.21-.125l.262.2a1.045,1.045,0,0,1-.154-.154l.2.262a1.024,1.024,0,0,1-.125-.21l.13.309a1.023,1.023,0,0,1-.067-.24l.046.344a1.039,1.039,0,0,1,0-.258l-.046.344a1.024,1.024,0,0,1,.067-.24l-.13.309a1.03,1.03,0,0,1,.125-.21l-.2.262a1.055,1.055,0,0,1,.154-.154l-.262.2a1.029,1.029,0,0,1,.21-.125l-.309.13a1.033,1.033,0,0,1,.24-.067l-.344.046a1.037,1.037,0,0,1,.258,0l-.344-.046a1.029,1.029,0,0,1,.24.067l-.309-.13a1.035,1.035,0,0,1,.21.125l-.262-.2a1.071,1.071,0,0,1,.154.154l-.2-.262a1.029,1.029,0,0,1,.125.21l-.131-.309a1.014,1.014,0,0,1,.067.24l-.046-.344a1.152,1.152,0,0,1,.009.129,1.342,1.342,0,0,0,.379.915,1.294,1.294,0,0,0,1.831,0,1.331,1.331,0,0,0,.379-.915,3.368,3.368,0,0,0-.055-.473,1.021,1.021,0,0,0-.037-.159,3.28,3.28,0,0,0-.182-.435,1,1,0,0,0-.082-.136,3.229,3.229,0,0,0-.28-.356,2.816,2.816,0,0,0-.361-.293,2.148,2.148,0,0,0-.553-.269.983.983,0,0,0-.156-.045,3.3,3.3,0,0,0-.484-.062,1.04,1.04,0,0,0-.155.006,2.046,2.046,0,0,0-.906.245,1.064,1.064,0,0,0-.14.075,2.138,2.138,0,0,0-.478.4,3.119,3.119,0,0,0-.273.361,2.782,2.782,0,0,0-.193.429,2.231,2.231,0,0,0-.118.623.946.946,0,0,0,0,.169,3.3,3.3,0,0,0,.068.482,1.081,1.081,0,0,0,.046.142,2.883,2.883,0,0,0,.191.43,3.086,3.086,0,0,0,.272.362,1.048,1.048,0,0,0,.108.115,2.155,2.155,0,0,0,.507.362,3.079,3.079,0,0,0,.425.173,2.9,2.9,0,0,0,.48.075,2.22,2.22,0,0,0,.639-.052,1.007,1.007,0,0,0,.18-.052,2.836,2.836,0,0,0,.441-.2,2.888,2.888,0,0,0,.381-.287,1.068,1.068,0,0,0,.12-.12,2.491,2.491,0,0,0,.487-.834.983.983,0,0,0,.047-.168,3.165,3.165,0,0,0,.061-.511,1.329,1.329,0,0,0-.379-.915,1.294,1.294,0,0,0-1.831,0,1.359,1.359,0,0,0-.379.915" transform="translate(-303.172 -200.722)" fill="#333"/><path d="M318.989,187.035h12.846a1.314,1.314,0,0,0,1.295-1.295,4.049,4.049,0,0,1,.032-.475l-.046.344a3.7,3.7,0,0,1,.243-.889l-.13.309a3.693,3.693,0,0,1,.307-.572c.031-.047.066-.091.1-.138.082-.126-.213.258-.082.107.074-.085.147-.169.226-.249s.15-.14.227-.208c.177-.155-.109.075-.108.08,0-.018.114-.082.137-.1a3.645,3.645,0,0,1,.6-.323l-.309.13a3.7,3.7,0,0,1,.888-.244l-.344.046a4.086,4.086,0,0,1,.475-.032,1.314,1.314,0,0,0,1.295-1.295V163.8c0-.847.016-1.7,0-2.545,0-.012,0-.024,0-.036a1.295,1.295,0,0,0-2.589,0v18.441c0,.847-.023,1.7,0,2.545,0,.012,0,.024,0,.035l1.295-1.295a4.8,4.8,0,0,0-4.8,4.8l1.295-1.295H318.989a1.295,1.295,0,0,0,0,2.589" transform="translate(-262.859 -154.811)" fill="#333"/><path d="M87.622,161.216v18.441c0,.848-.017,1.7,0,2.545,0,.012,0,.024,0,.036a1.314,1.314,0,0,0,1.295,1.295,4.057,4.057,0,0,1,.475.032l-.344-.046a3.7,3.7,0,0,1,.888.243l-.309-.13a3.675,3.675,0,0,1,.572.307c.047.031.091.066.138.1.125.082-.258-.213-.107-.082.085.074.169.147.249.226s.14.15.208.227c.155.177-.075-.109-.08-.108.018,0,.082.114.1.137a3.647,3.647,0,0,1,.323.6l-.13-.309a3.706,3.706,0,0,1,.243.888l-.046-.344a4.049,4.049,0,0,1,.032.475,1.314,1.314,0,0,0,1.295,1.295h12.846a1.295,1.295,0,0,0,0-2.589H92.42l1.295,1.295a4.8,4.8,0,0,0-4.8-4.8l1.295,1.295V163.8c0-.848.017-1.7,0-2.545,0-.012,0-.024,0-.036a1.295,1.295,0,1,0-2.589,0" transform="translate(-72.492 -154.811)" fill="#333"/><path d="M48.807,372.235h67.074c.906,0,1.813.012,2.719,0h.119a1.295,1.295,0,0,0,0-2.589H51.645c-.906,0-1.813-.012-2.719,0h-.119a1.295,1.295,0,0,0,0,2.589" transform="translate(-39.311 -328.333)" fill="#333"/><path d="M47.486,268.977v15.441c0,.71-.015,1.421,0,2.131,0,.01,0,.021,0,.031a1.295,1.295,0,1,0,2.589,0V271.14c0-.71.015-1.421,0-2.131,0-.01,0-.021,0-.031a1.295,1.295,0,0,0-2.589,0" transform="translate(-39.284 -243.973)" fill="#333"/><path d="M452.988,268.977v15.441c0,.71-.015,1.421,0,2.131,0,.01,0,.021,0,.031a1.295,1.295,0,0,0,2.589,0V271.14c0-.71.015-1.421,0-2.131,0-.01,0-.021,0-.031a1.295,1.295,0,0,0-2.589,0" transform="translate(-374.795 -243.973)" fill="#333"/><path d="M5.616,147.585H4.063c-.277,0-.554,0-.832,0H3.1c-.02,0-.214-.014-.062,0,.168.02-.057-.016-.055-.018s-.209-.066-.059-.009-.072-.045-.1-.057c-.123-.061.013.025.035.043a2.056,2.056,0,0,1-.235-.235c.123.155,0,.008.014-.012-.006.008-.086-.2-.028-.049s-.012-.055-.009-.059-.038-.223-.018-.055c.019.152,0-.043,0-.062,0-.039,0-.078,0-.117,0-.279,0-.559,0-.839V133.765c0-.093,0-.186,0-.28,0-.018,0-.036,0-.055v-.008c0-.005,0-.114,0-.119-.009.2.028.027.009,0,0,0,.066-.208.009-.059s.022-.056.028-.049.112-.187.022-.054c-.078.116.019-.024.038-.041.075-.069.254-.181.078-.08a1.243,1.243,0,0,1,.145-.083c.181-.073-.189.054,0,0L3.1,132.9c-.036.009-.195,0-.054.014a.177.177,0,0,0,.06,0h.139c.234,0,.468,0,.7,0h79.76c.65,0,1.3,0,1.949,0H85.8l.119,0c-.2-.01-.028.028,0,.009,0,0,.209.066.059.009s.056.022.049.028.187.112.054.022c-.116-.078.024.019.041.038.069.075.181.254.08.078a1.247,1.247,0,0,1,.083.145c.073.181-.054-.189,0,0,.015.055.028.11.042.166-.009-.036,0-.195-.014-.054a.64.64,0,0,0,0,.064c0,.017,0,.035,0,.052,0,.09,0,.181,0,.271V146.1c0,.284,0,.569,0,.853,0,.042,0,.084,0,.126,0,.128-.018.132.012.006-.018.075-.036.146-.058.221,0-.015.075-.191.021-.051a1.132,1.132,0,0,1-.083.145c.009-.017.134-.15.035-.042-.071.077-.3.229-.115.122-.087.05-.294.121-.094.062-.1.028-.325.052-.107.042-.071,0-.141,0-.212,0-.256,0-.511,0-.767,0H83.4a1.295,1.295,0,0,0,0,2.589c1.252,0,2.8.228,3.931-.4a3.163,3.163,0,0,0,1.566-2.711c0-.2,0-.4,0-.6v-7.538c0-1.831.049-3.67,0-5.5a3.153,3.153,0,0,0-3.15-3.1c-.188,0-.377,0-.565,0H4.762c-.54,0-1.081-.011-1.621,0a3.152,3.152,0,0,0-3.134,3.106c-.016.623,0,1.249,0,1.873V146.59c0,.162,0,.325,0,.487a3.163,3.163,0,0,0,2.13,2.94,5.82,5.82,0,0,0,1.926.158H5.616a1.295,1.295,0,0,0,0-2.589" transform="translate(0 -130.32)" fill="#333"/><path d="M4.476,9.055A1,1,0,0,1,3.6,8.541L-.874.486A1,1,0,0,1-.486-.874a1,1,0,0,1,1.36.389L5.349,7.569a1,1,0,0,1-.873,1.486Z" transform="translate(39.878 9.783)" fill="#333"/><path d="M0,9.458a1,1,0,0,1-1-1V0A1,1,0,0,1,0-1,1,1,0,0,1,1,0V8.458A1,1,0,0,1,0,9.458Z" transform="translate(44.353 17.838)" fill="#333"/><path d="M0,9.055a1,1,0,0,1-.485-.126,1,1,0,0,1-.389-1.36L3.6-.486a1,1,0,0,1,1.36-.389A1,1,0,0,1,5.349.486L.874,8.541A1,1,0,0,1,0,9.055Z" transform="translate(44.353 9.783)" fill="#333"/><path d="M12.082,1H0A1,1,0,0,1-1,0,1,1,0,0,1,0-1H12.082a1,1,0,0,1,1,1A1,1,0,0,1,12.082,1Z" transform="translate(38.312 17.838)" fill="#333"/><path d="M12.082,1H0A1,1,0,0,1-1,0,1,1,0,0,1,0-1H12.082a1,1,0,0,1,1,1A1,1,0,0,1,12.082,1Z" transform="translate(38.312 22.671)" fill="#333"/></g><path d="M600,82.256a1,1,0,0,1-.707-1.707l9.293-9.293-9.293-9.293a1,1,0,0,1,1.414-1.414l10,10a1,1,0,0,1,0,1.414l-10,10A1,1,0,0,1,600,82.256Z" transform="translate(245.5 873.244)" fill="#333"/><path d="M600,82.256a1,1,0,0,1-.707-1.707l9.293-9.293-9.293-9.293a1,1,0,0,1,1.414-1.414l10,10a1,1,0,0,1,0,1.414l-10,10A1,1,0,0,1,600,82.256Z" transform="translate(465.5 873.244)" fill="#333"/><rect width="100" height="30" rx="15" transform="translate(690 850)" fill="#fff"/><path d="M15,2A13,13,0,0,0,5.808,24.192,12.915,12.915,0,0,0,15,28H85A13,13,0,0,0,94.192,5.808,12.915,12.915,0,0,0,85,2H15m0-2H85a15,15,0,0,1,0,30H15A15,15,0,0,1,15,0Z" transform="translate(690 850)" fill="#707070"/><rect width="100" height="30" rx="15" transform="translate(910 850)" fill="#fff"/><path d="M15,2A13,13,0,0,0,5.808,24.192,12.915,12.915,0,0,0,15,28H85A13,13,0,0,0,94.192,5.808,12.915,12.915,0,0,0,85,2H15m0-2H85a15,15,0,0,1,0,30H15A15,15,0,0,1,15,0Z" transform="translate(910 850)" fill="#707070"/><rect width="100" height="30" rx="15" transform="translate(1130 850)" fill="#fff"/><path d="M15,2A13,13,0,0,0,5.808,24.192,12.915,12.915,0,0,0,15,28H85A13,13,0,0,0,94.192,5.808,12.915,12.915,0,0,0,85,2H15m0-2H85a15,15,0,0,1,0,30H15A15,15,0,0,1,15,0Z" transform="translate(1130 850)" fill="#707070"/><path d="M-30.96-8.944h13.936V-5.52H-18.7V-7.456h-10.64V-5.52H-30.96Zm2.208,2.88h8.592V-4.48h-8.592Zm9.888-7.568L-17.7-12.24q-1.312.256-2.864.456t-3.224.344q-1.672.144-3.36.248t-3.272.152a3.191,3.191,0,0,0-.144-.76q-.128-.424-.24-.712,1.584-.048,3.232-.152t3.232-.24q1.584-.136,2.984-.328T-18.864-13.632Zm-10.56,2.9,1.5-.416a9.162,9.162,0,0,1,.584,1,5.4,5.4,0,0,1,.392.952l-1.584.464A5.658,5.658,0,0,0-28.88-9.7,8.86,8.86,0,0,0-29.424-10.736Zm4.24-.336,1.52-.352a11.414,11.414,0,0,1,.48,1.112A5.156,5.156,0,0,1-22.9-9.264l-1.6.4a7.214,7.214,0,0,0-.256-1.072A8.722,8.722,0,0,0-25.184-11.072ZM-20-11.456l1.808.448q-.272.512-.576,1.016t-.6.968q-.3.464-.568.816l-1.392-.432q.24-.384.488-.872t.472-1Q-20.144-11.024-20-11.456Zm-.8,5.392h.368l.3-.064,1.152.7a9.239,9.239,0,0,1-1.872,2.7A10.99,10.99,0,0,1-23.488-.8,17.158,17.158,0,0,1-26.712.488a26.691,26.691,0,0,1-3.608.776,3.458,3.458,0,0,0-.256-.5q-.176-.3-.368-.576a3.235,3.235,0,0,0-.368-.456A28.953,28.953,0,0,0-27.824-.88a15.426,15.426,0,0,0,3.04-1.056,9.615,9.615,0,0,0,2.4-1.6A6.538,6.538,0,0,0-20.8-5.776Zm-6.144,1.152a8,8,0,0,0,2.4,2.208,14.307,14.307,0,0,0,3.488,1.512,23.975,23.975,0,0,0,4.336.824,4.592,4.592,0,0,0-.376.48Q-17.3.4-17.472.7t-.3.544A23.511,23.511,0,0,1-22.192.216a13.812,13.812,0,0,1-3.584-1.824,11.349,11.349,0,0,1-2.672-2.7ZM-9.5-12.368H-.768v1.248H-9.5ZM-9.92-8.384H-.5v1.312H-9.92Zm-.032,6.016H-.464v1.36H-9.952ZM-8.336-4.32H-1.92v1.088H-8.336ZM-9.2-10.384h8.1v1.2H-9.2Zm1.44-3.168h1.536v5.76H-7.76Zm3.584,0h1.552v5.76H-4.176ZM-5.968-7.728h1.424v6.16H-5.968Zm3.1,1.344H-1.3V-.16A2.119,2.119,0,0,1-1.432.7a.992.992,0,0,1-.52.472,2.937,2.937,0,0,1-.96.192q-.576.032-1.392.032a3.454,3.454,0,0,0-.152-.68A6.546,6.546,0,0,0-4.7.048q.5.016.96.024t.608.008A.35.35,0,0,0-2.912.008a.282.282,0,0,0,.048-.184Zm-6.24,0h6.816v1.2h-5.36V1.392H-9.1Zm-5.68-2.176h4.368v1.312h-4.368Zm.1-4.464h4.208v1.3h-4.208Zm-.1,6.688h4.368v1.312h-4.368Zm-.7-4.5h5.52v1.36h-5.52Zm1.5,6.752h3.632V.72h-3.632V-.64h2.192V-2.72h-2.192Zm-.832,0h1.424V1.376h-1.424ZM4.1-6.432H11.9v1.36H4.1ZM3.84-3.712h8.352v1.424H3.84Zm4.944-2.3H10.3v7.1H8.784Zm-3.168.064H7.088v3.024a5.472,5.472,0,0,1-.1.928A6.531,6.531,0,0,1,6.664-.84,5.112,5.112,0,0,1,6.016.352,4.147,4.147,0,0,1,4.96,1.36,5.921,5.921,0,0,0,4.44.84a4.86,4.86,0,0,0-.6-.472,3.392,3.392,0,0,0,1.1-1.056A4.014,4.014,0,0,0,5.472-1.9a4.582,4.582,0,0,0,.144-1.024ZM2.16-10.72H6.32v1.136H2.16Zm7.424,0H13.76v1.136H9.584Zm3.5-2.192h1.68V-.656A3.09,3.09,0,0,1,14.616.416a1.117,1.117,0,0,1-.552.608A2.85,2.85,0,0,1,13,1.3a14.943,14.943,0,0,1-1.544.04A4.507,4.507,0,0,0,11.344.8q-.08-.3-.184-.624a3.248,3.248,0,0,0-.216-.528q.56.016,1.1.016h.728a.322.322,0,0,0,.248-.08.376.376,0,0,0,.072-.256Zm-10.768,0H7.408v5.6H2.32V-8.56H5.792v-3.12H2.32Zm11.632,0v1.232h-3.76v3.152h3.76V-7.28H8.56v-5.632Zm-12.64,0h1.68v14.3H1.312ZM24.688-.816h5.248V.736H24.688Zm-.864-4.448h7.008V1.328h-1.7V-3.7h-3.68V1.392H23.824ZM22.768-8.192l2.2-.112q1.24-.064,2.624-.152t2.76-.168l-.016,1.536q-1.312.1-2.632.208t-2.536.192q-1.216.08-2.208.16Zm5.12-2.176,1.376-.688q.512.672,1,1.448t.888,1.528a8.229,8.229,0,0,1,.592,1.36l-1.488.8A9.392,9.392,0,0,0,29.712-7.3q-.368-.776-.84-1.576A16.73,16.73,0,0,0,27.888-10.368Zm-2.24-3.2,1.9.368q-.32,1.008-.7,2.08t-.784,2.064q-.4.992-.768,1.76L23.84-7.68q.256-.592.52-1.328t.5-1.528q.24-.792.448-1.568T25.648-13.568ZM16.64-10.32h5.216v1.584H16.64Zm2.24-3.248,1.616.192q-.256,1.248-.552,2.64T19.32-7.944q-.328,1.4-.656,2.688t-.616,2.344l-1.392-.752q.272-.928.576-2.144t.6-2.568q.3-1.352.568-2.68T18.88-13.568ZM17.52-3.984l.944-1.2q.848.512,1.768,1.168t1.72,1.328a8.309,8.309,0,0,1,1.264,1.28L22.192-.032a11.229,11.229,0,0,0-1.24-1.3q-.776-.712-1.672-1.416A18.339,18.339,0,0,0,17.52-3.984Zm3.7-6.336H21.5l.3-.048,1.008.176a26.239,26.239,0,0,1-.792,5.376,12.327,12.327,0,0,1-1.672,3.784,8.648,8.648,0,0,1-2.624,2.488,6.471,6.471,0,0,0-.48-.728,4.954,4.954,0,0,0-.56-.648,6.586,6.586,0,0,0,2.3-2.1A11.05,11.05,0,0,0,20.5-5.416,22.668,22.668,0,0,0,21.216-10Z" transform="translate(740 870)" fill="#333"/><path d="M-30.96-8.944h13.936V-5.52H-18.7V-7.456h-10.64V-5.52H-30.96Zm2.208,2.88h8.592V-4.48h-8.592Zm9.888-7.568L-17.7-12.24q-1.312.256-2.864.456t-3.224.344q-1.672.144-3.36.248t-3.272.152a3.191,3.191,0,0,0-.144-.76q-.128-.424-.24-.712,1.584-.048,3.232-.152t3.232-.24q1.584-.136,2.984-.328T-18.864-13.632Zm-10.56,2.9,1.5-.416a9.162,9.162,0,0,1,.584,1,5.4,5.4,0,0,1,.392.952l-1.584.464A5.658,5.658,0,0,0-28.88-9.7,8.86,8.86,0,0,0-29.424-10.736Zm4.24-.336,1.52-.352a11.414,11.414,0,0,1,.48,1.112A5.156,5.156,0,0,1-22.9-9.264l-1.6.4a7.214,7.214,0,0,0-.256-1.072A8.722,8.722,0,0,0-25.184-11.072ZM-20-11.456l1.808.448q-.272.512-.576,1.016t-.6.968q-.3.464-.568.816l-1.392-.432q.24-.384.488-.872t.472-1Q-20.144-11.024-20-11.456Zm-.8,5.392h.368l.3-.064,1.152.7a9.239,9.239,0,0,1-1.872,2.7A10.99,10.99,0,0,1-23.488-.8,17.158,17.158,0,0,1-26.712.488a26.691,26.691,0,0,1-3.608.776,3.458,3.458,0,0,0-.256-.5q-.176-.3-.368-.576a3.235,3.235,0,0,0-.368-.456A28.953,28.953,0,0,0-27.824-.88a15.426,15.426,0,0,0,3.04-1.056,9.615,9.615,0,0,0,2.4-1.6A6.538,6.538,0,0,0-20.8-5.776Zm-6.144,1.152a8,8,0,0,0,2.4,2.208,14.307,14.307,0,0,0,3.488,1.512,23.975,23.975,0,0,0,4.336.824,4.592,4.592,0,0,0-.376.48Q-17.3.4-17.472.7t-.3.544A23.511,23.511,0,0,1-22.192.216a13.812,13.812,0,0,1-3.584-1.824,11.349,11.349,0,0,1-2.672-2.7ZM-9.5-12.368H-.768v1.248H-9.5ZM-9.92-8.384H-.5v1.312H-9.92Zm-.032,6.016H-.464v1.36H-9.952ZM-8.336-4.32H-1.92v1.088H-8.336ZM-9.2-10.384h8.1v1.2H-9.2Zm1.44-3.168h1.536v5.76H-7.76Zm3.584,0h1.552v5.76H-4.176ZM-5.968-7.728h1.424v6.16H-5.968Zm3.1,1.344H-1.3V-.16A2.119,2.119,0,0,1-1.432.7a.992.992,0,0,1-.52.472,2.937,2.937,0,0,1-.96.192q-.576.032-1.392.032a3.454,3.454,0,0,0-.152-.68A6.546,6.546,0,0,0-4.7.048q.5.016.96.024t.608.008A.35.35,0,0,0-2.912.008a.282.282,0,0,0,.048-.184Zm-6.24,0h6.816v1.2h-5.36V1.392H-9.1Zm-5.68-2.176h4.368v1.312h-4.368Zm.1-4.464h4.208v1.3h-4.208Zm-.1,6.688h4.368v1.312h-4.368Zm-.7-4.5h5.52v1.36h-5.52Zm1.5,6.752h3.632V.72h-3.632V-.64h2.192V-2.72h-2.192Zm-.832,0h1.424V1.376h-1.424Zm23.792.128.976-1.072q.576.224,1.192.528t1.176.624a9.175,9.175,0,0,1,.944.608L12.256-2.08a8.262,8.262,0,0,0-.928-.648q-.56-.344-1.176-.664T8.976-3.952ZM7.232-1.04l.992-1.2q.784.208,1.624.5t1.656.616q.816.328,1.544.664t1.272.64L13.328,1.52A15.539,15.539,0,0,0,11.6.592q-1.024-.48-2.168-.9T7.232-1.04Zm2-12.512,1.68.288a18.817,18.817,0,0,1-1.6,2.84,12.531,12.531,0,0,1-2.384,2.6,3.82,3.82,0,0,0-.336-.392q-.208-.216-.424-.408a2.594,2.594,0,0,0-.408-.3A10.521,10.521,0,0,0,7.3-10.384a11.657,11.657,0,0,0,1.16-1.6A10.146,10.146,0,0,0,9.232-13.552Zm.16,1.568h4.08v1.472H8.656Zm3.6,0h.336l.288-.064,1.056.592a12.153,12.153,0,0,1-1.864,3.184,13.788,13.788,0,0,1-2.592,2.464,14.61,14.61,0,0,1-2.968,1.68,2.893,2.893,0,0,0-.28-.464q-.184-.256-.392-.5a3,3,0,0,0-.384-.392A13.15,13.15,0,0,0,9.024-6.936a12.066,12.066,0,0,0,2.392-2.112,8.515,8.515,0,0,0,1.576-2.632ZM9.2-10.816a10.47,10.47,0,0,0,1.624,2.232A12.465,12.465,0,0,0,13.08-6.7a11.861,11.861,0,0,0,2.648,1.3,4.221,4.221,0,0,0-.384.408q-.208.248-.4.512a4.244,4.244,0,0,0-.3.472,12.714,12.714,0,0,1-2.72-1.536A13.729,13.729,0,0,1,9.6-7.7a14.247,14.247,0,0,1-1.776-2.632Zm-6.24-2.72,1.488.56q-.32.592-.664,1.248T3.1-10.488q-.344.584-.648,1.032L1.3-9.952a11.413,11.413,0,0,0,.608-1.1q.3-.624.584-1.28T2.96-13.536Zm1.824,1.872,1.408.64q-.576.912-1.256,1.92T3.576-7.176q-.68.92-1.288,1.624L1.28-6.112q.448-.544.928-1.232t.952-1.44q.472-.752.888-1.5T4.784-11.664ZM.48-9.872,1.3-11.024a11.729,11.729,0,0,1,.88.8q.448.448.824.888a5.8,5.8,0,0,1,.584.792l-.9,1.328a5.255,5.255,0,0,0-.56-.856q-.368-.472-.8-.944T.48-9.872Zm3.808,2,1.136-.48a12.586,12.586,0,0,1,.608,1.136q.288.608.5,1.176a7.08,7.08,0,0,1,.312,1.016l-1.232.56a6.427,6.427,0,0,0-.288-1.048Q5.12-6.1,4.848-6.72T4.288-7.872ZM.448-6.464Q1.536-6.5,3.04-6.56L6.1-6.688,6.08-5.328q-1.456.112-2.9.208T.592-4.944ZM4.64-3.952l1.216-.384q.3.672.592,1.488a11.486,11.486,0,0,1,.416,1.424l-1.28.448A11.39,11.39,0,0,0,5.2-2.416Q4.928-3.248,4.64-3.952ZM1.2-4.224l1.424.256A18.761,18.761,0,0,1,2.232-1.7,10.225,10.225,0,0,1,1.616.176q-.16-.1-.4-.216T.728-.28a3.765,3.765,0,0,0-.44-.184A7.046,7.046,0,0,0,.872-2.192,20.145,20.145,0,0,0,1.2-4.224Zm1.776-1.5h1.5V1.408h-1.5ZM23.168-8.08h1.824V-.64A2.4,2.4,0,0,1,24.768.512a1.349,1.349,0,0,1-.784.592,5.339,5.339,0,0,1-1.408.24q-.848.048-2.032.048a5.536,5.536,0,0,0-.288-.88,8.553,8.553,0,0,0-.4-.864l1.176.032q.584.016,1.04.016T22.7-.32a.608.608,0,0,0,.36-.08.344.344,0,0,0,.1-.288ZM17.6-12.4H28.88v1.7H17.6Zm10.64,0H28.7l.416-.112,1.344.992a23.419,23.419,0,0,1-1.64,1.792A25.754,25.754,0,0,1,26.9-8a19.838,19.838,0,0,1-1.984,1.424,3.061,3.061,0,0,0-.344-.416q-.216-.224-.44-.44t-.4-.36a15.119,15.119,0,0,0,1.3-.92q.664-.52,1.272-1.1t1.112-1.136a10.342,10.342,0,0,0,.824-1.024Z" transform="translate(960 870)" fill="#333"/><path d="M-35.3,0V-1.712h2.576v-7.84h-2.144v-1.312a9.284,9.284,0,0,0,1.5-.392,6.01,6.01,0,0,0,1.16-.568h1.568V-1.712h2.272V0Zm12.032-13.616,1.76.448a18.941,18.941,0,0,1-1.024,2.312,18.257,18.257,0,0,1-1.28,2.1,13.174,13.174,0,0,1-1.408,1.688q-.176-.144-.448-.36t-.544-.424a4.547,4.547,0,0,0-.5-.336,9.85,9.85,0,0,0,1.384-1.5,13.321,13.321,0,0,0,1.176-1.864A13.951,13.951,0,0,0-23.264-13.616Zm.176,1.872h10.224v1.664H-23.9ZM-24.112-8h10.88v1.6H-22.4v3.472h-1.712Zm-2.576,4.24h14.656v1.648H-26.688Zm7.3-7.12h1.776V1.392h-1.776Zm13.76,7.1H-1.12v1.248H-5.632Zm-.1-2.384H-.3V-.1H-5.728v-1.28H-1.92v-3.5H-5.728Zm-.7,0H-4.88V.72H-6.432ZM-9.2-10.672h4.144V-9.5H-9.2Zm7.424,0H2.4V-9.5H-1.776ZM1.7-12.912H3.424V-.688A2.931,2.931,0,0,1,3.248.432a1.255,1.255,0,0,1-.624.64,3.546,3.546,0,0,1-1.16.264q-.7.056-1.72.056A3.892,3.892,0,0,0-.376.824Q-.464.512-.584.184A3.653,3.653,0,0,0-.832-.368q.448.032.88.032H1.312a.433.433,0,0,0,.3-.08A.4.4,0,0,0,1.7-.7Zm-10.752,0h5.072V-7.2H-9.056V-8.448h3.472v-3.216H-9.056Zm11.648,0v1.248H-1.152v3.248H2.592v1.248H-2.784v-5.744Zm-12.64,0h1.712v14.3h-1.712ZM8.4-13.552h1.744V-10.8H8.4ZM5.376-11.664h7.76v1.552H5.376ZM13.008-9.5h7.04v1.632h-7.04ZM7.728-7.7v1.584h3.056V-7.7ZM6.16-9.12h6.288v4.448H6.16ZM8.512-5.264H10.16v4.88a2.644,2.644,0,0,1-.128.9,1.044,1.044,0,0,1-.512.552,2.286,2.286,0,0,1-.888.232q-.52.04-1.208.04a4.457,4.457,0,0,0-.2-.784A4.809,4.809,0,0,0,6.9-.208q.448.016.848.016h.528q.24,0,.24-.224ZM6.32-4l1.568.336a13.571,13.571,0,0,1-.672,2.2A9.013,9.013,0,0,1,6.256.368Q6.112.24,5.88.048T5.4-.312q-.248-.168-.424-.28a6.608,6.608,0,0,0,.808-1.552A12.065,12.065,0,0,0,6.32-4Zm4.3.32,1.344-.48A13.392,13.392,0,0,1,12.6-2.752a9.973,9.973,0,0,1,.424,1.328L11.616-.9a11.671,11.671,0,0,0-.408-1.36Q10.928-3.04,10.624-3.68Zm6.336-8.88,1.328-.608a8.019,8.019,0,0,1,1.032,1.28,7.166,7.166,0,0,1,.7,1.3L18.592-9.9a7.71,7.71,0,0,0-.656-1.32A8.888,8.888,0,0,0,16.96-12.56Zm-2-1.008h1.664V-9.68q0,1.248-.112,2.7A18.76,18.76,0,0,1,16.04-4.04a12.926,12.926,0,0,1-1.08,2.9,9.717,9.717,0,0,1-1.936,2.568,3.926,3.926,0,0,0-.416-.352Q12.352.88,12.072.7a3.327,3.327,0,0,0-.5-.28,8.743,8.743,0,0,0,1.848-2.36A11.6,11.6,0,0,0,14.432-4.6a16.18,16.18,0,0,0,.432-2.672q.1-1.3.1-2.392Zm1.152,6.4h1.552V-.752a.477.477,0,0,0,.024.152.193.193,0,0,0,.072.1.39.39,0,0,0,.288.112h.416a.789.789,0,0,0,.192-.024A.3.3,0,0,0,18.8-.48a.389.389,0,0,0,.112-.152.782.782,0,0,0,.064-.232q.032-.24.048-.736t0-1.12a3.561,3.561,0,0,0,.584.392,3.655,3.655,0,0,0,.664.3q-.016.432-.04.872t-.064.792A3.8,3.8,0,0,1,20.08.16a1.515,1.515,0,0,1-.56.848,1.255,1.255,0,0,1-.432.176,2.3,2.3,0,0,1-.528.064h-.976a2.1,2.1,0,0,1-.6-.088,1.4,1.4,0,0,1-.52-.28,1.27,1.27,0,0,1-.208-.32A1.555,1.555,0,0,1,16.144.1a7.283,7.283,0,0,1-.032-.768Zm5.456,3.44H35.776V-2.32H21.568Zm.048-7.136h14.1v1.408h-14.1Zm.656,2.832H35.1v1.344H22.272Zm.8,2.192h11.28v1.248H23.072ZM27.76-7.36h1.712V1.392H27.76Zm-1.408-6.208h1.616v3.376H26.352Zm2.992,0h1.632v3.28H29.344ZM27.408-3.12l1.36.624A10.19,10.19,0,0,1,26.944-.96,15.3,15.3,0,0,1,24.656.3a16.844,16.844,0,0,1-2.448.88A3.526,3.526,0,0,0,21.9.7q-.192-.264-.4-.52a4.058,4.058,0,0,0-.4-.432,19.267,19.267,0,0,0,2.4-.68,14.611,14.611,0,0,0,2.224-.992A8.2,8.2,0,0,0,27.408-3.12Zm2.448-.032a7.706,7.706,0,0,0,1.192.928,10.4,10.4,0,0,0,1.536.808,15.927,15.927,0,0,0,1.76.632,19.005,19.005,0,0,0,1.848.448q-.176.176-.4.448T35.368.68q-.2.3-.328.52A14.117,14.117,0,0,1,33.176.584,14.657,14.657,0,0,1,31.408-.28a12.35,12.35,0,0,1-1.584-1.08,9.115,9.115,0,0,1-1.3-1.264Zm3.168-10.256,1.792.432q-.368.656-.752,1.288t-.72,1.08l-1.392-.448a6.6,6.6,0,0,0,.408-.736q.2-.416.376-.84T33.024-13.408ZM30.912-10l1.808.432q-.32.56-.624,1.08t-.56.888L30.08-8q.224-.448.456-1T30.912-10ZM22.8-12.96l1.472-.5a12.938,12.938,0,0,1,.736,1.16,6.573,6.573,0,0,1,.528,1.128l-1.552.576a6.866,6.866,0,0,0-.488-1.144Q23.152-12.4,22.8-12.96Zm2.048,3.552,1.664-.272a7.815,7.815,0,0,1,.44.8,5.409,5.409,0,0,1,.312.768l-1.744.32a5.819,5.819,0,0,0-.272-.784A7.6,7.6,0,0,0,24.848-9.408Z" transform="translate(1180 870)" fill="#333"/></g></svg>