<svg xmlns="http://www.w3.org/2000/svg" width="646.31" height="352.172"><defs><filter id="g" width="108.05" height="124.468" x="400.846" y="137.075" filterUnits="userSpaceOnUse"><feOffset/><feGaussianBlur result="blur-7" stdDeviation="10"/><feFlood flood-color="#1558c4"/><feComposite in2="blur-7" operator="in"/><feComposite in="SourceGraphic"/></filter><filter id="a" width="120.414" height="124.757" x="3.7" y="136.569" filterUnits="userSpaceOnUse"><feOffset/><feGaussianBlur result="blur" stdDeviation="10"/><feFlood flood-color="#1558c4"/><feComposite in2="blur" operator="in"/><feComposite in="SourceGraphic"/></filter><filter id="c" width="109.654" height="121.505" x="147.226" y="139.387" filterUnits="userSpaceOnUse"><feOffset/><feGaussianBlur result="blur-3" stdDeviation="10"/><feFlood flood-color="#1558c4"/><feComposite in2="blur-3" operator="in"/><feComposite in="SourceGraphic"/></filter><filter id="d" width="124.192" height="120.276" x="210.146" y="140.761" filterUnits="userSpaceOnUse"><feOffset/><feGaussianBlur result="blur-4" stdDeviation="10"/><feFlood flood-color="#1558c4"/><feComposite in2="blur-4" operator="in"/><feComposite in="SourceGraphic"/></filter><filter id="e" width="101.762" height="102.785" x="273.376" y="156.589" filterUnits="userSpaceOnUse"><feOffset/><feGaussianBlur result="blur-5" stdDeviation="10"/><feFlood flood-color="#1558c4"/><feComposite in2="blur-5" operator="in"/><feComposite in="SourceGraphic"/></filter><filter id="f" width="129.807" height="126.925" x="319.922" y="136.641" filterUnits="userSpaceOnUse"><feOffset/><feGaussianBlur result="blur-6" stdDeviation="10"/><feFlood flood-color="#1558c4"/><feComposite in2="blur-6" operator="in"/><feComposite in="SourceGraphic"/></filter><filter id="b" width="116.018" height="114.855" x="76.998" y="149.362" filterUnits="userSpaceOnUse"><feOffset/><feGaussianBlur result="blur-2" stdDeviation="10"/><feFlood flood-color="#1558c4"/><feComposite in2="blur-2" operator="in"/><feComposite in="SourceGraphic"/></filter><filter id="h" width="132.497" height="128.659" x="460.154" y="134.401" filterUnits="userSpaceOnUse"><feOffset/><feGaussianBlur result="blur-8" stdDeviation="10"/><feFlood flood-color="#1558c4"/><feComposite in2="blur-8" operator="in"/><feComposite in="SourceGraphic"/></filter><filter id="i" width="104.753" height="127.069" x="541.557" y="135.774" filterUnits="userSpaceOnUse"><feOffset/><feGaussianBlur result="blur-9" stdDeviation="10"/><feFlood flood-color="#1558c4"/><feComposite in2="blur-9" operator="in"/><feComposite in="SourceGraphic"/></filter><filter id="j" width="175.924" height="172.396" x="0" y=".602" filterUnits="userSpaceOnUse"><feOffset/><feGaussianBlur result="blur-10" stdDeviation="10"/><feFlood flood-color="#1558c4"/><feComposite in2="blur-10" operator="in"/><feComposite in="SourceGraphic"/></filter><filter id="k" width="172.705" height="174.925" x="125.557" y="0" filterUnits="userSpaceOnUse"><feOffset/><feGaussianBlur result="blur-11" stdDeviation="10"/><feFlood flood-color="#1558c4"/><feComposite in2="blur-11" operator="in"/><feComposite in="SourceGraphic"/></filter><filter id="l" width="121.962" height="118.613" x="244.723" y="47.59" filterUnits="userSpaceOnUse"><feOffset/><feGaussianBlur result="blur-12" stdDeviation="10"/><feFlood flood-color="#1558c4"/><feComposite in2="blur-12" operator="in"/><feComposite in="SourceGraphic"/></filter></defs><g data-name="グループ 8509"><path fill="#efd774" d="M386.05 47.875c-12.699 2.243-29.92 26.86-26.851 44.235 1.077 6.095 5.63 9.098 11.516 8.058 10.85-1.917 20.135-16.428 24.735-24.334.675-1.144.813-1.607.7-2.245a.89.89 0 0 0-1.097-.83c-.78.138-1.293.96-1.885 2.161-3.266 6.355-12.07 20.27-22.85 22.174-3.9.689-7.005-1.98-7.77-6.307-2.693-15.248 13.72-38.259 24.074-40.088a2.225 2.225 0 0 1 2.908 1.973c.79 4.468-2.572 10.693-5.705 11.978-1.899.843-1.936 1.878-1.799 2.654s.731 1.26 2.011 1.034c3.054-.54 10.17-9.914 9.017-16.439-.617-3.47-3.746-4.6-7.004-4.024Zm19.04 20.844c-.284.05-1.849-1.356-3.196-1.118-5.799 1.098-12.293 9.485-11.015 16.719a2.8 2.8 0 0 0 2.616 2.39c1.631-.288 3.58-2.095 6.399-5.591 1.31-1.694 2.206-3.242 2.632-3.318.142-.025.18.188.254.614.113.638.147 1.656.284 2.436a3.209 3.209 0 0 0 3.922 2.744c3.546-.626 8.114-7.064 10.804-11.708.604-1.13.813-1.606.7-2.244a.91.91 0 0 0-1.167-.814c-.71.125-1.223.947-1.815 2.149-2.023 3.864-5.477 9.154-8.03 9.605-.638.113-1.06-.617-1.222-1.539a9.165 9.165 0 0 1 .567-4.265c.988-3.1 2.406-5.837 2.243-6.759-.15-.85-.972-1.364-2.107-1.163-1.21.21-1.302 1.762-1.87 1.862Zm-3.713 1.753a.773.773 0 0 1 .93.713c.138.78 1.306.354 1.37.709.212 1.205-7.592 10.848-8.797 11.061a.83.83 0 0 1-1.002-.7c-.614-3.476 4.45-11.245 7.5-11.783Zm16.41-6.048c-.992.175-1.338 1.114-1.534 2.904a62.016 62.016 0 0 1-1.35 7.26c-.6 2.815-1.196 6.065-1.059 6.841a1.986 1.986 0 0 0 1.92 1.347c.638-.113 1.188-4.451 2.368-7.293 1.64-3.946 5.522-9.312 6.515-9.488.426-.075.676.1.725.38a14.65 14.65 0 0 0-.154 2.002 1.415 1.415 0 0 0 1.583 1.114c1.773-.313 2.118-2.495 1.73-4.694a2.435 2.435 0 0 0-2.992-2.03c-1.773.312-3.554 2.236-5.69 5.465-.291.417-.466.668-.75.718-.142.025-.154-.046-.18-.188-.112-.638.555-2.657.405-3.508a1.29 1.29 0 0 0-1.536-.826Zm14.398-1.3c-.851.15-1.306.889-1.106 2.024.188 1.063.272 1.122.41 1.902.513 2.908-.55 8.068-.274 9.629a2.93 2.93 0 0 0 3.21 2.435c4.893-.864 10.26-15.196 9.132-21.578-.752-4.256-2.337-4.122-3.188-3.972a1.645 1.645 0 0 0-1.13 1.882c.15.851 1.293 1.527 1.569 3.087 1.215 6.88-4.182 16.901-5.955 17.214-.354.063-.475-.208-.512-.417-.15-.851.654-7.063.19-9.683-.314-1.781-1.707-2.632-2.346-2.52Zm17.975 11.09a2.085 2.085 0 0 1-2.504-1.752c-.125-.71-.13-1.147 1.097-1.657 4.222-1.77 9.665-6.972 9.026-10.59-.238-1.347-1.998-2.206-3.346-1.968-3.617.639-7.896 4.174-9.61 11.424a2.166 2.166 0 0 0-.905 1.915c.125.71.376.885.501 1.594.4 2.266 3.272 4.03 5.47 3.641 3.262-.576 5.335-2.917 7.175-4.924.855-.955 1.192-1.531 1.08-2.165a.945.945 0 0 0-1.168-.818c-.78.138-1.156.936-2.136 1.986-1.101 1.219-2.694 2.963-4.68 3.314Zm3.91-13.05c.568-.1.877-.01.977.558.263 1.49-4.638 6.45-7.108 6.96.763-1.89 3.933-7.13 6.132-7.519Zm26.224-7.631c-4.964.876-9.381 8.166-8.217 14.757.54 3.054 2.788 4.188 4.773 3.837 4.965-.876 7.237-7.055 7.975-11.574a16.726 16.726 0 0 0 5.957-2.295c2.153-1.478 2.924-2.491 2.799-3.2a1.231 1.231 0 0 0-1.494-.98c-.709.125-3.124 2.6-6.032 3.113-1.134.2-1.422-1.43-1.523-1.998-.183-1.06-1.614-2.124-4.238-1.66Zm.138 3.266a.191.191 0 0 1 .25.175 14.022 14.022 0 0 0 .063 1.598c.163.922 1.29 1.093 1.327 1.301.376 2.128-2.113 9.15-4.88 9.638a1.91 1.91 0 0 1-2.135-1.743c-.815-4.61 2.326-10.43 5.375-10.969Zm23.89 6.896c-.568.1-1.023-.404-1.21-1.468a16.45 16.45 0 0 1 .145-4.56 16.104 16.104 0 0 1 1.489-4.797 4.473 4.473 0 0 0 .562-1.782c-.112-.638-.521-1.297-1.727-1.084-.425.075-1.034.768-1.522 1.732-.767 1.455-1.64 4.384-2.39 6.345-1.551 3.639-5.618 7.94-6.894 8.166-.71.125-.927-.275-1.027-.843-.363-2.056 3.144-7.868 2.405-12.053-.213-1.205-.53-2.173-1.878-1.935s-1.56 1.519-1.271 3.15c.713 4.038-2.936 8.636-2.31 12.182a2.823 2.823 0 0 0 3.497 2.381c2.978-.526 6.182-4.749 8.28-7.752.087.493.058 1.16.196 1.94.3 1.702 1.144 3.6 3.63 3.162 3.12-.552 6.966-6.935 9.656-11.58.605-1.13.813-1.605.7-2.244a.91.91 0 0 0-1.168-.817c-.709.125-1.222.947-1.814 2.149-2.019 3.867-5.647 9.408-7.35 9.708Zm14.389-21.63c1.217-3.871 2.277-6.983 3.307-8.19 1.16-1.301 1.201-1.894 1.05-2.745s-.793-1.18-1.715-1.017-1.577 1.01-2.482 2.925a87.01 87.01 0 0 0-3.59 9.483 12.653 12.653 0 0 1-2.148.672c-.851.15-1.151-.304-2.215-.116a1.7 1.7 0 0 0-1.543 2.027c.263 1.49 3.525.913 4.73.7-2.213 7.34-4.252 15.67-3.525 19.784.313 1.773 1.21 2.712 2.274 2.524a1.5 1.5 0 0 0 1.239-1.682c-.113-.638-.601-.917-.764-1.84-.652-3.687 1.438-11.731 4.052-19.29 2.624-.464 6.666-1.179 6.328-3.093-.176-.993-.547-1.44-1.682-1.24-1.063.189-1.969.86-3.316 1.099Zm-64.835 74.3a6.539 6.539 0 0 1 1.593-.501c2.128-.376 3.53.107 3.68.958.126.71-.012 1.173.126 1.953s.63 1.497 1.977 1.26a2.493 2.493 0 0 0 1.735-3.013c-.588-3.333-4.41-4.267-7.743-3.678a10.744 10.744 0 0 0-1.465.405c-.51-4.956-.857-10.234-1.308-14.03-.463-3.867.366-5.404.203-6.326a1.071 1.071 0 0 0-1.41-.92 4.814 4.814 0 0 0-2.423 1.598 34.372 34.372 0 0 0-1.869 3.913c-.984 2.295-5.05 10.327-6.823 10.64-.425.075-.617-.184-.743-.893a37.897 37.897 0 0 1 1.722-9.3c.684-1.51 1.042-2.377.942-2.945-.113-.638-.922-1.08-1.986-.892s-1.76 1.631-2.352 4.072c-.534 2.361-1.525 9.192-1.187 11.106s1.636 2.637 2.841 2.424c3.617-.64 7.905-9.076 9.272-12.1a.386.386 0 0 1 .246-.263c.284-.05.446.872.51 1.23s.648 8.223 1.045 13.784a33.35 33.35 0 0 0-9.614 9.743c-4.175 6.588-5.23 12.625-4.666 15.817a5.21 5.21 0 0 0 5.953 4.283c8.936-1.579 12.18-17.579 11.744-28.326Zm-3.183 1.44c.69 7.63-2.061 23.108-8.87 24.31a2.215 2.215 0 0 1-2.598-1.877c-.476-2.695.17-8.147 3.435-13.259a35.409 35.409 0 0 1 8.033-9.175Zm13.57-27.921c-4.964.877-9.38 8.166-8.216 14.757.54 3.054 2.787 4.188 4.773 3.838 4.964-.877 7.237-7.056 7.975-11.575a16.726 16.726 0 0 0 5.957-2.295c2.152-1.477 2.924-2.491 2.799-3.2a1.231 1.231 0 0 0-1.494-.98c-.71.125-3.124 2.6-6.032 3.113-1.135.2-1.423-1.43-1.523-1.998-.183-1.06-1.614-2.124-4.239-1.66Zm.139 3.266a.191.191 0 0 1 .25.175 14.022 14.022 0 0 0 .063 1.598c.163.922 1.29 1.093 1.327 1.302.376 2.127-2.114 9.149-4.88 9.637a1.91 1.91 0 0 1-2.136-1.743c-.814-4.61 2.326-10.43 5.376-10.969Zm23.89 6.896c-.568.1-1.023-.404-1.21-1.468a16.45 16.45 0 0 1 .144-4.56 16.104 16.104 0 0 1 1.49-4.797 4.473 4.473 0 0 0 .562-1.782c-.113-.638-.522-1.297-1.727-1.084-.426.075-1.035.768-1.523 1.732-.767 1.455-1.639 4.385-2.39 6.345-1.55 3.639-5.617 7.94-6.894 8.166-.71.125-.926-.275-1.026-.842-.364-2.057 3.144-7.87 2.405-12.053-.213-1.206-.53-2.174-1.878-1.936s-1.56 1.519-1.272 3.15c.714 4.039-2.935 8.636-2.309 12.182a2.823 2.823 0 0 0 3.492 2.382c2.979-.526 6.182-4.749 8.28-7.752.087.492.059 1.16.197 1.94.3 1.702 1.144 3.6 3.63 3.161 3.12-.55 6.966-6.935 9.656-11.578.605-1.131.813-1.607.7-2.245a.91.91 0 0 0-1.168-.817c-.71.125-1.222.947-1.814 2.148-2.015 3.867-5.648 9.408-7.346 9.708Zm9.633-16.255c-.992.175-1.339 1.114-1.534 2.904a62.016 62.016 0 0 1-1.35 7.26c-.601 2.811-1.197 6.061-1.06 6.841a1.986 1.986 0 0 0 1.916 1.344c.638-.113 1.188-4.452 2.369-7.293 1.639-3.946 5.521-9.313 6.514-9.488.426-.075.676.1.726.38a14.65 14.65 0 0 0-.155 2.002 1.415 1.415 0 0 0 1.587 1.113c1.773-.313 2.118-2.495 1.73-4.694a2.435 2.435 0 0 0-2.991-2.03c-1.773.312-3.555 2.236-5.69 5.465-.292.418-.467.668-.75.718-.143.025-.155-.046-.18-.188-.113-.638.554-2.657.404-3.508a1.29 1.29 0 0 0-1.536-.826Zm21.794-.413c.15.851.643.764 2.35.463-1.58 6.788-2.789 17.752-1.786 23.425.35 1.986 1.398 2.533 2.107 2.407a1.542 1.542 0 0 0 1.192-1.53c-.226-1.281-.51-1.231-.722-2.433-.877-4.964.498-15.007 2.42-22.733 2.657-.689 6.083-1.582 9.203-2.134a1.03 1.03 0 0 0 .818-1.164 1.2 1.2 0 0 0-1.406-.922l-7.872 1.391a112.728 112.728 0 0 1 4.053-13.075c2.397-6.279 5.263-9.125 6.823-9.4.78-.138.984.191 1.097.83.1.567.656.834 1.298.72.85-.15 1.63-1.53 1.38-2.949-.213-1.206-2.173-1.952-4.23-1.589-2.766.489-7.224 5.884-9.53 12.288a106.297 106.297 0 0 0-4.082 13.739l-1.773.313a1.894 1.894 0 0 0-1.34 2.353Zm26.088 6.508c-.567.1-1.022-.404-1.21-1.468a16.45 16.45 0 0 1 .145-4.56 16.104 16.104 0 0 1 1.49-4.797 4.473 4.473 0 0 0 .562-1.782c-.113-.638-.522-1.297-1.727-1.084-.426.075-1.035.768-1.523 1.731-.766 1.456-1.638 4.385-2.39 6.346-1.55 3.638-5.617 7.94-6.894 8.166-.709.125-.926-.275-1.026-.843-.364-2.056 3.144-7.868 2.405-12.053-.213-1.205-.53-2.173-1.878-1.935s-1.56 1.519-1.272 3.15c.714 4.038-2.935 8.636-2.309 12.182a2.823 2.823 0 0 0 3.492 2.382c2.98-.526 6.182-4.749 8.28-7.752.088.492.06 1.16.197 1.94.3 1.702 1.144 3.6 3.63 3.161 3.12-.551 6.966-6.935 9.656-11.579.605-1.13.813-1.606.7-2.244a.91.91 0 0 0-1.168-.818c-.709.126-1.222.948-1.814 2.15-2.015 3.866-5.64 9.406-7.346 9.707Zm6.597-20.619a1.8 1.8 0 0 0-1.531 2.1c.175.992 1.114 1.338 3.242.962a10.636 10.636 0 0 0 1.476-.334c-2.214 7.335-4.252 15.67-3.526 19.784.314 1.773 1.21 2.712 2.275 2.524a1.5 1.5 0 0 0 1.238-1.682c-.112-.638-.6-.918-.763-1.84-.652-3.687 1.733-12.958 4.347-20.513a17.938 17.938 0 0 1 5.235-2.246c1.064-.188 2.01-.209 2.111.359.063.354-.03.663.046 1.089s.255.613.893.5c.922-.163 1.935-1.878 1.71-3.154-.25-1.418-1.68-2.04-4.16-1.602a16.725 16.725 0 0 0-4.4 1.582c1.698-4.464 1.876-5.524 2.906-6.73 1.16-1.301 1.202-1.894 1.051-2.745s-.793-1.18-1.715-1.017-1.577 1.01-2.482 2.925a87.01 87.01 0 0 0-3.59 9.483 12.653 12.653 0 0 1-2.149.672c-.85.154-1.15-.304-2.214-.117Zm22.69 15.446c-.568.1-1.023-.405-1.21-1.469a16.45 16.45 0 0 1 .144-4.56 16.104 16.104 0 0 1 1.49-4.797 4.473 4.473 0 0 0 .562-1.781c-.113-.638-.522-1.298-1.727-1.085-.426.076-1.035.768-1.523 1.732-.766 1.456-1.638 4.385-2.39 6.346-1.55 3.638-5.617 7.94-6.894 8.165-.709.126-.926-.275-1.026-.842-.364-2.057 3.144-7.869 2.405-12.053-.213-1.206-.53-2.174-1.878-1.936s-1.56 1.52-1.272 3.15c.714 4.039-2.935 8.637-2.309 12.183a2.823 2.823 0 0 0 3.492 2.381c2.98-.526 6.182-4.748 8.28-7.752.088.493.06 1.16.197 1.94.3 1.702 1.144 3.601 3.63 3.162 3.12-.551 6.966-6.935 9.656-11.579.605-1.13.813-1.606.7-2.244a.91.91 0 0 0-1.168-.818c-.709.125-1.222.947-1.814 2.149-2.011 3.865-5.64 9.406-7.346 9.708Zm9.634-16.256c-.993.176-1.34 1.115-1.535 2.904a62.016 62.016 0 0 1-1.35 7.26c-.6 2.812-1.197 6.062-1.06 6.842a1.986 1.986 0 0 0 1.92 1.343c.638-.113 1.188-4.452 2.369-7.293 1.639-3.946 5.522-9.313 6.514-9.488.426-.075.676.1.726.38a14.65 14.65 0 0 0-.155 2.001 1.415 1.415 0 0 0 1.586 1.11c1.773-.313 2.119-2.495 1.73-4.694a2.435 2.435 0 0 0-2.991-2.031c-1.773.313-3.554 2.237-5.69 5.466-.292.417-.467.668-.75.718-.142.025-.155-.046-.18-.188-.113-.638.555-2.657.404-3.508a1.29 1.29 0 0 0-1.534-.822Zm16.698 12.555a2.085 2.085 0 0 1-2.504-1.752c-.125-.71-.13-1.147 1.097-1.656 4.222-1.77 9.665-6.973 9.026-10.59-.238-1.348-1.998-2.207-3.346-1.969-3.617.64-7.896 4.174-9.61 11.425a2.166 2.166 0 0 0-.905 1.915c.125.709.376.884.501 1.593a4.751 4.751 0 0 0 5.057 3.787c7.872-1.39 12.576-8.73 15.263-13.373.604-1.13.813-1.606.7-2.245a.91.91 0 0 0-1.168-.817c-.71.125-1.222.947-1.886 2.161-1.947 3.855-5.98 10.418-12.221 11.52Zm3.91-13.05c.568-.1.877-.009.977.558.263 1.49-4.638 6.45-7.108 6.96.767-1.89 3.937-7.13 6.136-7.52Z" data-name="パス 15469"/><g data-name="グループ 8508"><g data-name="グループ 8494"><g filter="url(#a)"><path fill="#fff" d="m54.45 168.521 12.577-1.951c.091 1.446.074 4.12.279 5.927.05 1.084.295 3.252.557 6.07a487.032 487.032 0 0 0 13.03-2.168c2.433-.433 5.76-1.156 7.843-1.734l1.1 11.419c-1.9.145-5.28.651-7.627.939-2.794.435-7.8 1.229-13.315 2.1.3 3.18.664 6.5 1.02 9.9 6.11-1.012 11.633-1.951 14.732-2.53 2.88-.578 5.99-1.3 8.143-1.879l1.317 11.492c-2.189.144-5.577.723-8.372 1.156-3.236.506-8.681 1.374-14.711 2.313.553 5.276 1.032 9.758 1.324 12.215.318 2.168.81 4.842 1.242 7.371l-12.809 2.166c-.116-2.819-.033-5.42-.279-7.589-.166-2.241-.639-6.794-1.174-12.287-6.993 1.156-13.327 2.24-16.353 2.818-3.315.578-6.116 1.085-7.822 1.518L33.7 204.224c2.038-.072 5.7-.506 8.2-.868 3.236-.506 9.485-1.445 16.4-2.529a774.423 774.423 0 0 1-1.02-9.9c-6.1.939-11.4 1.806-13.393 2.168-2.511.506-4.508.939-7.255 1.662l-1.281-11.925c2.552-.145 4.886-.289 7.16-.579 2.347-.289 7.634-1.011 13.665-1.951-.274-2.674-.526-4.77-.636-6a68.141 68.141 0 0 0-1.091-5.782" data-name="パス 14223"/></g><g filter="url(#b)"><path fill="#fff" d="M129.947 185.283c.356 1.735.747 3.9 1.191 6.288 8.707-1.663 17.854-3.4 20.958-4.048a21.4 21.4 0 0 0 4.249-1.3l6.674 4.987c-3.682 6.432-11.851 17.707-17.5 23.416l-9.232-4.77c3.531-3.036 8.824-8.818 10.765-11.925-1.694.289-7.453 1.445-14.1 2.818 1.837 9.685 3.762 20.02 4.641 24.068.255 1.228 1.088 4.987 1.536 6.5l-12.151 2.891a47.1 47.1 0 0 0-.844-6.938c-.794-4.192-2.561-14.672-4.266-24.212a9434.825 9434.825 0 0 1-13.089 2.819l-1.772-10.407c2.412-.217 4.536-.434 7.113-.868.955-.144 3.164-.506 6.037-1.012-.377-2.313-.774-4.408-1.149-5.926a28.443 28.443 0 0 0-1.762-5.566l11.993-2.746c.12 1.951.444 4.047.715 5.926" data-name="パス 14224"/></g><g filter="url(#c)"><path fill="#fff" d="m192.439 175.75-2.15 24.573c-.158 1.807-.277 4.842-.3 6.722H177.22c.2-1.446.762-4.554.958-6.794l2.143-24.5a55.278 55.278 0 0 0 .209-5.71h12.7c-.3 1.806-.562 3.108-.79 5.71m33.464 1.445-1.384 15.754c-1.271 14.527-5.313 21.754-11.333 27.536-5.3 5.06-13.243 8.745-18.686 10.408l-8.365-9.685c7.69-1.663 13.583-4.337 18.328-8.818 5.309-5.132 6.775-10.263 7.648-20.237l1.308-14.959a56.627 56.627 0 0 0 .175-7.806h13.276c-.335 2.168-.695 4.625-.973 7.806" data-name="パス 14225"/></g><g filter="url(#d)"><path fill="#fff" d="m249.646 231.033-9.5-8.312a31.369 31.369 0 0 0 8.656-4.408c8.584-6.071 10.935-12.214 11.965-23.994a40.6 40.6 0 0 0 .052-7.227h12.771c-1.486 16.984-2.488 32.6-23.941 43.942m51.041-49.436c-4.232 6.071-11.914 15.1-18.854 19.8l-8.436-7.227c5.665-3.4 11.151-8.889 13.013-11.925h-35.84a88.727 88.727 0 0 0-9.264.578l1.057-12.07a61.978 61.978 0 0 0 9.144.8h37.653a51.4 51.4 0 0 0 8.77-.723l6.4 6.432c-.964 1.085-2.816 3.18-3.643 4.337" data-name="パス 14226"/></g><g filter="url(#e)"><path fill="#fff" d="M325.415 191.6a115.177 115.177 0 0 0 13.129-1.349l-.639 6.745c-4.548.578-10.535 1.012-15.679 1.2a40.473 40.473 0 0 1-2.185 3.421 24.3 24.3 0 0 1 4.83-.481c2.854 0 5.074 1.156 6.138 3.372 2.015-.914 3.665-1.542 5.426-2.313 2.208-.915 4.27-1.83 6.439-2.842l2.263 6.745c-1.735.482-4.879 1.59-6.78 2.313s-4.351 1.638-7.012 2.746c-.184 2.651-.37 5.878-.509 8.047h-6.966c.206-1.253.459-3.035.669-4.866-3.2 1.783-4.649 3.373-4.817 5.3-.177 2.023 1.25 2.842 5.8 2.842a75.163 75.163 0 0 0 14.206-1.493l-.9 7.516a120.545 120.545 0 0 1-14.054.867c-7.931 0-13.457-2.072-12.9-8.48.552-6.311 6.658-10.311 12.27-13.106a3.281 3.281 0 0 0-2.571-1.011 12.564 12.564 0 0 0-7.392 3.228 60.527 60.527 0 0 0-4.975 5.445l-5.83-4.674a51.947 51.947 0 0 0 11.437-12.431c-1.982 0-5.505-.1-8.047-.337l.589-6.745a62.948 62.948 0 0 0 8.656.577h1.886a31.7 31.7 0 0 0 1.281-5.251l7.684.626c-.286 1.06-.756 2.555-1.448 4.385" data-name="パス 14227"/></g><g filter="url(#f)"><path fill="#fff" d="M369.339 208.709c1.09 0 1.446-1.59 2.309-8.962a24.041 24.041 0 0 0 8.913 4.265c-1.971 10.913-4.838 14.671-11 14.671h-5.151c-7.617 0-9.226-3.18-8.321-13.516l.923-10.551-6.268 1.156-.815-9.757 7.955-1.373 1.575-18H369.9l-1.409 16.116 13.043-2.313.834 9.541-14.748 2.678-1.094 12.5c-.277 3.18-.237 3.542.778 3.542Zm50.392-39.459s-.407 3.831-.6 5.2c-3.844 35.63-5.615 48.423-8.733 52.542a11.635 11.635 0 0 1-7.624 5.059c-2.808.578-6.791.506-10.7.434a25.808 25.808 0 0 0-2.389-10.841c3.53.289 6.65.289 8.391.289a3.264 3.264 0 0 0 2.961-1.518c2.1-2.385 3.814-13.732 6.725-41.2h-9c-2.543 23.272-6.052 42.641-24.561 54.349a26.145 26.145 0 0 0-6.653-8.528c16.372-9.684 18.562-25.584 20.622-45.821h-9.867l.872-9.974Z" data-name="パス 14228"/></g><g filter="url(#g)"><path fill="#fff" d="M444.54 179.728c4.17-4.553 10.222-9.035 17.767-9.035 10.374 0 17.844 9.974 16.416 26.308-1.809 20.67-15.178 30.861-35.453 34.546l-5.782-10.19c16.545-2.53 27.766-7.227 29.264-24.356.961-10.985-2.3-16.045-7.447-16.045-8.27 0-16.415 12.648-17.25 22.189a60.321 60.321 0 0 0-.172 6.938l-10.873.723a84.119 84.119 0 0 1 .138-12.358 179.944 179.944 0 0 1 3.9-23.055 82.979 82.979 0 0 0 1.308-8.312l11.925.506a113.244 113.244 0 0 0-3.746 12.142" data-name="パス 14229"/></g><g filter="url(#h)"><path fill="#fff" d="M540.881 178.856a155.9 155.9 0 0 1-6.742 15.684h24.3L555.1 232.7h-10.369l.316-3.613h-14.583l-.347 3.975h-9.867l1.795-20.525a52.69 52.69 0 0 1-3.969 3.9 53.038 53.038 0 0 0-6.189-8.023 44.78 44.78 0 0 0 6-6.36c-2.616.867-5.309 1.807-8 2.674l-1.492 17.056c-.416 4.77-1.437 7.3-4.325 8.817-2.9 1.59-6.695 1.88-11.917 1.88a33.3 33.3 0 0 0-2-9.468c2.532.072 5.507.072 6.449.072 1.017 0 1.411-.361 1.5-1.373l1.183-13.515-6.2 2.024-2.028-9.974c2.6-.651 5.719-1.518 9.145-2.53l.9-10.335h-8.487l.847-9.685h8.487l1.165-13.3h10.3l-1.165 13.3h7.039l-.848 9.685h-7.04l-.618 7.082c2.167-.723 4.4-1.372 6.567-2.1l1.023 9.035a83.627 83.627 0 0 0 11.332-22.549h-9.794l.872-9.974h41.862l-.875 9.974Zm6.328 25.513h-14.583l-1.3 14.888h14.583Z" data-name="パス 14230"/></g><g filter="url(#i)"><path fill="#fff" d="M608.727 180.23c-4.868 3.4-14.544 10.335-19.463 14.311-3.82 3.035-3.731 3.685-.521 6.793 4.428 4.12 17.753 15.178 24.406 22.044l-11.13 9.468a154.846 154.846 0 0 0-6.452-7.516c-3.622-4.192-13.293-13.082-19.4-18.719-6.845-6.36-6.029-10.7 2.211-16.984 6.214-4.7 16.243-12.359 21.509-16.985a59.741 59.741 0 0 0 6.985-6.865l9.44 9.034c-2.854 1.951-5.487 3.83-7.584 5.42" data-name="パス 14231"/></g><g filter="url(#j)"><path fill="#fff" d="M107.677 68.31c7.815 18.07 21.781 34.695 38.217 43.729a69.36 69.36 0 0 0-12.222 13.011 86.639 86.639 0 0 1-18.221-16.14l-1.2 13.733h-20l-1.781 20.36H77.412l1.782-20.359H58.473l1.106-12.649a116.12 116.12 0 0 1-20.141 15.415c-2.214-3.61-6.307-9.151-9.438-11.922 17.8-9.278 34.494-26.623 45.393-45.178H38.651l1.264-14.453h45.3l2.03-23.247H102.3l-2.033 23.25h45.656l-1.262 14.45Zm-27.21 39.757 2.298-26.257a159.147 159.147 0 0 1-21.21 26.262Zm34.213 0a118.921 118.921 0 0 1-16.836-26.5l-2.319 26.5Z" data-name="パス 14232"/></g><g filter="url(#k)"><path fill="#fff" d="M224.049 94.45A117.3 117.3 0 0 1 209.656 113a129.414 129.414 0 0 1 17.684 15.419l-12.392 10.842c-3.805-4.7-9.716-10.119-16.471-15.54a151.939 151.939 0 0 1-33.3 21.2 73.588 73.588 0 0 0-9.621-11.2 119.391 119.391 0 0 0 32.074-18.19c-6.466-4.578-13.083-8.794-19.151-12.408l11.06-9.4c5.98 3.253 12.609 7.349 19.1 11.685a89.188 89.188 0 0 0 11.959-15.54Zm25.6-17.227c-2.771 28.912-3.2 51.68 3.791 51.68 1.817-.119 2.847-6.384 3.942-16.143a50.885 50.885 0 0 0 8.5 8.915c-2.4 15.058-5.49 21.443-14.766 21.443-17.588 0-19.069-23.009-17.093-53.848h-64.57l.874-10-1.168.964a104.255 104.255 0 0 0-12.223-9.034c12.716-9.035 23.111-24.576 29.264-41.2l14.664 3.132c-1.227 3.011-2.455 6.023-3.792 8.914h71.195l-1.043 11.926H190.73a93.989 93.989 0 0 1-3.628 5.662h68.665L254.754 71.2h-69.509l.885-10.12a108.826 108.826 0 0 1-13.579 16.143Z" data-name="パス 14233"/></g><g filter="url(#l)"><path fill="#fff" d="M282.227 81.491c6.87-.579 17.9-1.446 31.279-2.6 7.305-.578 15.91-1.084 21.225-1.3l-.911 11.271c-3.779.073-9.944.073-14.005.868-7.988 1.735-15.474 10.19-16.226 18.791-.93 10.624 8.715 14.816 21.2 15.539l-5.2 12.142c-16.072-1.229-29.164-9.974-27.816-25.368a32.54 32.54 0 0 1 11.06-21.1c-6.3.651-19.192 2.1-28.068 4.047l-.045-11.929c2.908-.073 6.113-.217 7.5-.361m45.577 23.129-6.7 2.818a52.132 52.132 0 0 0-4.647-9.9l6.539-2.6a85.461 85.461 0 0 1 4.808 9.682m8.889-3.758-6.65 3.035a54.009 54.009 0 0 0-5.035-9.612l6.486-2.819a101.311 101.311 0 0 1 5.2 9.4" data-name="パス 14234"/></g></g><g data-name="グループ 8507"><path fill="#011b39" d="M25.626 260.963h452.708l-11.678 77.849H13.949Z" data-name="パス 14222"/><path fill="#fff" d="M39.814 306.887h6.536v1.94h-4.422v10.884h-2.114Zm13.4 15.616q1.607-.06 3.736-.147t4.525-.2q2.4-.113 4.755-.233l-.047 1.947-4.581.324q-2.309.163-4.415.294t-3.773.237Zm5.168-9.854 2.436.508q-.34 1.347-.759 2.763t-.876 2.792q-.456 1.376-.913 2.615t-.883 2.239l-2.035-.535q.427-1.02.856-2.3t.842-2.669q.413-1.393.755-2.782t.58-2.632Zm3.687 5.492 1.994-.863q.866 1.133 1.739 2.457t1.579 2.61a15.9 15.9 0 0 1 1.077 2.327l-2.2 1.01a16.07 16.07 0 0 0-.992-2.32q-.666-1.307-1.5-2.68t-1.694-2.542Zm-9.709-8.577h15.693v2.054H52.36Zm-1.05 0h2.154v5.123q0 1.181-.083 2.6t-.31 2.912a19.251 19.251 0 0 1-.66 2.888 10.781 10.781 0 0 1-1.15 2.525 5.545 5.545 0 0 0-.528-.422q-.335-.241-.7-.462a4.158 4.158 0 0 0-.616-.321 9.593 9.593 0 0 0 1.032-2.297 16.978 16.978 0 0 0 .567-2.554q.187-1.307.24-2.554t.053-2.314Zm7.132-2.612h2.228v3.608h-2.221Zm13.683 7.177h17.681v2H72.129Zm3.308-4.5h13.068v1.96H75.433Zm.168 13.086h10.948v1.987H75.606Zm4.7-15.77h2.269v8.388h-2.269Zm-5.832 10.773h13.286v7.949h-2.282v-5.975h-8.809v6.029h-2.195Zm1.051-10.687 2.148.528a18.964 18.964 0 0 1-1 2.41 22.106 22.106 0 0 1-1.257 2.207 15.219 15.219 0 0 1-1.36 1.8 5.107 5.107 0 0 0-.575-.392q-.361-.217-.737-.428t-.648-.331a11.113 11.113 0 0 0 1.993-2.592 17.267 17.267 0 0 0 1.44-3.202Zm22.628 7.74v7.3h-2.061v-5.313h-2.331v-1.987Zm0 6.44a3.685 3.685 0 0 0 1.74 1.508 7.645 7.645 0 0 0 2.726.556q.881.033 2.128.043t2.618-.007q1.371-.017 2.678-.067t2.315-.13a5.356 5.356 0 0 0-.258.612q-.137.378-.247.773t-.17.709q-.9.047-2.088.073t-2.457.037q-1.27.01-2.454-.007t-2.078-.05a9.723 9.723 0 0 1-3.147-.593 5.21 5.21 0 0 1-2.205-1.681q-.613.606-1.273 1.209t-1.413 1.256l-1.036-2.125q.646-.439 1.372-.988t1.386-1.128Zm-4.286-12.548 1.633-1.2q.593.447 1.213 1.013t1.143 1.133a7.626 7.626 0 0 1 .837 1.06l-1.767 1.352a6.99 6.99 0 0 0-.776-1.09q-.5-.6-1.1-1.19t-1.178-1.078Zm10.473.872h2.081v13.252h-2.081Zm-2.325 7.046v.955h6.8v-.955Zm0-2.2v.935h6.8v-.929Zm-1.84-1.344h10.579v5.842h-10.57Zm-.986-5.441h12.569v2.708h-1.994v-1.163h-8.682v1.163h-1.893Zm.528 3.067h11.426v1.5H99.712Zm-.746 9.071h13.039v1.578H98.966Zm20.107-11.431h12.466v2.047h-12.461Zm0 4.626h12.481v2.007h-12.476Zm-.06 4.733h12.608v2.025h-12.602Zm-1.164-9.357h2.121v7.213q0 1.174-.1 2.541a21.688 21.688 0 0 1-.39 2.755 13.1 13.1 0 0 1-.847 2.655 8.252 8.252 0 0 1-1.484 2.266 3.363 3.363 0 0 0-.475-.488q-.315-.274-.643-.525a4.853 4.853 0 0 0-.57-.385 7.543 7.543 0 0 0 1.306-2.01 10.862 10.862 0 0 0 .713-2.26 16.86 16.86 0 0 0 .3-2.337q.067-1.167.067-2.227Zm12.917 0h2.135v14.717a3.3 3.3 0 0 1-.23 1.376 1.556 1.556 0 0 1-.8.749 4.606 4.606 0 0 1-1.511.318q-.93.064-2.317.044a5.624 5.624 0 0 0-.274-1.03 8.583 8.583 0 0 0-.428-1.03q.608.032 1.208.038t1.059 0h.646a.619.619 0 0 0 .4-.11.5.5 0 0 0 .113-.376Zm-6.718.81h2.168v16.28h-2.167Zm13.922 4h17.955v1.893h-17.957Zm1.74-3.907h11.485v1.867h-11.487Zm3.449 10.8h9.069v1.645h-9.069Zm0 3.2h9.069v1.815h-9.069Zm1.39-16.263h2.121v7.221h-2.121Zm8.787.612 1.84.963a28.26 28.26 0 0 1-4.576 4.918 36.736 36.736 0 0 1-5.645 3.949 43.278 43.278 0 0 1-6.25 2.927 4.421 4.421 0 0 0-.356-.577q-.237-.331-.495-.666a6.489 6.489 0 0 0-.458-.542 37.8 37.8 0 0 0 6.22-2.676 32.389 32.389 0 0 0 5.463-3.706 24.561 24.561 0 0 0 4.252-4.589Zm-11.372 9.2h11.625v8.8h-2.24v-7.027H144.1v7.105h-2.141Zm20.867-1.332h10.832v1.752h-8.683v8.458h-2.148Zm10.15 0h2.168v8.138a2.431 2.431 0 0 1-.227 1.18 1.46 1.46 0 0 1-.8.612 5.1 5.1 0 0 1-1.445.237q-.871.037-2.091.037a4.923 4.923 0 0 0-.267-.87 7.842 7.842 0 0 0-.395-.856q.519.02 1.059.033t.967 0q.427-.01.573-.01a.566.566 0 0 0 .36-.093.377.377 0 0 0 .093-.287Zm-8.845 2.854h9.66v1.5h-9.66Zm-4.064-9.556h17.742v1.88h-17.746Zm5.142 1.137 2.409.635q-.694.92-1.47 1.833t-1.4 1.552l-1.713-.615q.386-.48.789-1.073t.769-1.206q.358-.612.612-1.126Zm5.918 1.375 1.733-1.07q.839.567 1.779 1.277t1.776 1.433a14.233 14.233 0 0 1 1.37 1.33l-1.868 1.231a13.07 13.07 0 0 0-1.284-1.349q-.8-.747-1.719-1.5t-1.792-1.352Zm-10.34 1.334q1.374 0 3.1-.023t3.671-.057l3.987-.067q2.04-.033 4.04-.08l-.114 1.745q-2.627.093-5.29.18t-5.067.15q-2.4.063-4.264.1Zm3.344 8.33h9.627v1.5h-9.627Zm3.687-13.967h2.208v2.741h-2.208Zm16.706 7.533h4.717v1.967h-4.717Zm3.894 0h2.081v.15q0 .15-.007.344t-.007.321q-.033 2.152-.1 3.519a19.01 19.01 0 0 1-.187 2.107 2.424 2.424 0 0 1-.35 1.034 1.64 1.64 0 0 1-.588.5 2.911 2.911 0 0 1-.754.22 7.5 7.5 0 0 1-1.017.067q-.623.007-1.343-.013a4.567 4.567 0 0 0-.181-1.037 3.989 3.989 0 0 0-.4-.97q.579.053 1.084.07t.752.017a1.1 1.1 0 0 0 .353-.05.591.591 0 0 0 .26-.184 1.709 1.709 0 0 0 .213-.766q.073-.593.116-1.8t.07-3.207Zm5.9-6.331 1.3-1.3q.579.286 1.222.676t1.219.78a7.5 7.5 0 0 1 .943.736l-1.372 1.445a7.983 7.983 0 0 0-.9-.766q-.56-.42-1.192-.833t-1.228-.738Zm2.509 5.231 2.153.522a23.609 23.609 0 0 1-3.453 6.867 18.242 18.242 0 0 1-5.192 4.788 4.974 4.974 0 0 0-.432-.566q-.284-.331-.585-.662a6.441 6.441 0 0 0-.542-.539 15.159 15.159 0 0 0 4.958-4.238 19.349 19.349 0 0 0 3.085-6.172Zm-12.173-3.3h15.438v2.108h-15.448Zm-1.425 0h2.248v5.812q0 1.107-.08 2.415a26.3 26.3 0 0 1-.3 2.665 16.523 16.523 0 0 1-.65 2.618 9.16 9.16 0 0 1-1.113 2.261 3.755 3.755 0 0 0-.519-.512q-.345-.291-.7-.559a3.569 3.569 0 0 0-.613-.388 8.5 8.5 0 0 0 1.152-2.69 17.913 17.913 0 0 0 .463-3.007q.1-1.52.1-2.82Zm8.178-3.09h2.237q-.033 2.544.156 4.939t.556 4.462a27.4 27.4 0 0 0 .869 3.62 9.32 9.32 0 0 0 1.119 2.424 1.643 1.643 0 0 0 1.25.874q.373 0 .569-.833a16.4 16.4 0 0 0 .281-2.746 5.857 5.857 0 0 0 .887.7 4.88 4.88 0 0 0 .947.5 13.547 13.547 0 0 1-.5 2.808 2.549 2.549 0 0 1-.892 1.374 2.566 2.566 0 0 1-1.46.38 2.918 2.918 0 0 1-1.927-.715 6.405 6.405 0 0 1-1.527-2.018 15.711 15.711 0 0 1-1.144-3.049 33.87 33.87 0 0 1-.79-3.821q-.313-2.07-.466-4.33t-.173-4.572Zm19.656 1.461h10.922v1.545h-10.922Zm-.526 4.974h11.789v1.639h-11.789Zm-.027 7.515h11.856v1.7h-11.856Zm2.008-2.438h8.026v1.357h-8.026Zm-1.074-7.583h10.121v1.511h-10.121Zm1.8-3.958h1.92v7.194h-1.92Zm4.479 0h1.94v7.194h-1.94Zm-2.242 7.281h1.773v7.695h-1.773Zm3.892 1.672h1.953v7.788a2.662 2.662 0 0 1-.17 1.069 1.239 1.239 0 0 1-.651.6 3.571 3.571 0 0 1-1.2.237q-.727.037-1.741.037a5.121 5.121 0 0 0-.191-.846 5.6 5.6 0 0 0-.318-.826q.625.02 1.208.03t.77 0a.467.467 0 0 0 .273-.091.33.33 0 0 0 .067-.237Zm-7.8 0h8.52v1.5h-6.712v8.236h-1.813Zm-7.1-2.706h5.445v1.639h-5.449Zm.107-5.595h5.264v1.639h-5.268Zm-.111 8.376h5.449v1.639h-5.449Zm-.88-5.635h6.9v1.712h-6.9Zm1.884 8.442h4.525v6.006h-4.525v-1.7h2.725v-2.594h-2.725Zm-1.057 0h1.779v6.834h-1.779Zm31.074-7.239h2.074V324.2h-2.074Zm-5.176 7.623h12.707v1.859h-12.707Zm-1.27 4.122h15.115v1.855h-15.115Zm2.882-11.468 1.967.153a12.568 12.568 0 0 1-1.049 3.832 7.535 7.535 0 0 1-2.113 2.71 3.05 3.05 0 0 0-.442-.418q-.294-.237-.6-.468a5.986 5.986 0 0 0-.535-.365 5.461 5.461 0 0 0 1.919-2.258 10.327 10.327 0 0 0 .85-3.184Zm-.345 3.322 1.154-1.254q.487.393 1.026.893t1.023.986a8.721 8.721 0 0 1 .77.866l-1.21 1.43a9.775 9.775 0 0 0-.746-.9q-.467-.51-1-1.043t-1.02-.976Zm8.4-3.322 1.927.214a12.243 12.243 0 0 1-1.14 3.67 7.747 7.747 0 0 1-2.133 2.63 3.834 3.834 0 0 0-.418-.421q-.273-.239-.573-.48a5.113 5.113 0 0 0-.5-.375 5.739 5.739 0 0 0 1.9-2.182 9.943 9.943 0 0 0 .933-3.054Zm-.592 3.3 1.23-1.305q.593.466 1.276 1.039t1.32 1.119a12.624 12.624 0 0 1 1.037.979l-1.283 1.484a12.9 12.9 0 0 0-1-1.026q-.62-.58-1.3-1.186t-1.285-1.1Zm-4.945-8.167h2.228v3.4h-2.228Zm-6.274 1.9h15.869v1.994h-15.866Zm-1.131 0h2.094v5.5q0 1.194-.073 2.638t-.273 2.962a21.76 21.76 0 0 1-.594 2.945 12.389 12.389 0 0 1-1.027 2.6 3.941 3.941 0 0 0-.532-.428q-.335-.23-.69-.444a4.71 4.71 0 0 0-.6-.321 10.493 10.493 0 0 0 .933-2.35 18.94 18.94 0 0 0 .5-2.61q.163-1.34.213-2.624t.05-2.377Zm27.04 16.835h-6.535v-1.939h4.422v-10.885h2.114Zm22.723-13.951q.867.08 1.724.127t1.757.047q1.82 0 3.63-.157a28.7 28.7 0 0 0 3.351-.477v2.221q-1.58.24-3.384.363t-3.6.137q-.88 0-1.731-.033t-1.731-.093Zm7.442-3.438q-.04.293-.07.62t-.05.647q-.02.333-.037.883t-.023 1.21q-.007.66-.007 1.348 0 1.309.047 2.483t.107 2.2q.06 1.026.107 1.9t.047 1.609a4.552 4.552 0 0 1-.2 1.372 2.992 2.992 0 0 1-.641 1.124 2.9 2.9 0 0 1-1.165.757 5.14 5.14 0 0 1-1.785.27 5.541 5.541 0 0 1-3.23-.815 2.673 2.673 0 0 1-1.165-2.326 2.917 2.917 0 0 1 .527-1.719 3.469 3.469 0 0 1 1.5-1.174 5.813 5.813 0 0 1 2.328-.424 9.8 9.8 0 0 1 2.509.3 9.975 9.975 0 0 1 2.078.794 11.691 11.691 0 0 1 1.7 1.074q.757.58 1.356 1.126l-1.221 1.887a20.666 20.666 0 0 0-2.188-1.831 9.776 9.776 0 0 0-2.157-1.19 6.183 6.183 0 0 0-2.255-.42 2.825 2.825 0 0 0-1.513.362 1.1 1.1 0 0 0-.582.974 1.033 1.033 0 0 0 .579.967 3.016 3.016 0 0 0 1.456.316 2.12 2.12 0 0 0 1.07-.23 1.259 1.259 0 0 0 .555-.659 2.922 2.922 0 0 0 .163-1.035q0-.52-.04-1.386t-.093-1.919q-.053-1.053-.093-2.183t-.04-2.191q0-1.108-.007-2.031t-.014-1.39q0-.24-.033-.623t-.087-.677Zm-9.792.194q-.067.187-.16.515t-.164.648l-.11.5q-.1.452-.223 1.181t-.256 1.62q-.133.89-.247 1.813t-.18 1.76q-.068.838-.068 1.458 0 .409.026.85t.093.87q.14-.386.309-.781t.342-.784q.173-.388.319-.748l1.11.89q-.267.788-.56 1.672t-.527 1.677q-.233.794-.347 1.327-.04.2-.073.474a2.931 2.931 0 0 0-.027.447q.007.153.013.374t.022.414l-2.017.154a20.517 20.517 0 0 1-.547-2.7 25.582 25.582 0 0 1-.236-3.674q0-1.12.1-2.34t.243-2.37q.143-1.15.283-2.1t.227-1.546q.053-.4.107-.889t.067-.923Zm28.717 1.352q.274.394.627.97t.7 1.17q.343.593.57 1.067l-1.618.709q-.281-.614-.574-1.164t-.6-1.073a11.174 11.174 0 0 0-.674-1.017Zm2.654-1.074q.293.38.657.947t.717 1.147q.353.58.58 1.033l-1.578.762q-.294-.607-.6-1.144t-.633-1.046q-.323-.51-.69-.983Zm-7.918-.546q-.087.6-.147 1.256t-.093 1.23q-.033.813-.077 2t-.08 2.509q-.037 1.319-.067 2.591t-.03 2.25a3.024 3.024 0 0 0 .386 1.639 2.144 2.144 0 0 0 1.047.868 4.02 4.02 0 0 0 1.484.26 7.51 7.51 0 0 0 2.315-.337 7.412 7.412 0 0 0 1.881-.903 8.5 8.5 0 0 0 1.52-1.31 13.02 13.02 0 0 0 1.217-1.547l1.619 1.974a12.3 12.3 0 0 1-1.27 1.5 10.673 10.673 0 0 1-1.831 1.483 9.822 9.822 0 0 1-2.435 1.119 10.184 10.184 0 0 1-3.058.43 7.233 7.233 0 0 1-2.751-.484 3.784 3.784 0 0 1-1.832-1.531 5.109 5.109 0 0 1-.65-2.728q0-.832.02-1.9t.053-2.21q.033-1.146.057-2.243t.043-2q.02-.9.02-1.438 0-.682-.053-1.323a8.319 8.319 0 0 0-.181-1.189Zm26.846-.427q-.033.287-.067.637t-.053.757q-.013.367-.027 1.018t-.02 1.438q-.007.787-.007 1.564v1.417q0 .878.047 1.928t.11 2.1q.063 1.047.11 1.944t.047 1.465a2.809 2.809 0 0 1-.408 1.482 2.858 2.858 0 0 1-1.252 1.08 4.979 4.979 0 0 1-2.158.407 6.187 6.187 0 0 1-3.548-.847 2.739 2.739 0 0 1-1.211-2.386 2.745 2.745 0 0 1 .58-1.738 3.8 3.8 0 0 1 1.671-1.168 7.147 7.147 0 0 1 2.592-.424 12.555 12.555 0 0 1 3.044.353 13.882 13.882 0 0 1 2.6.913 16.052 16.052 0 0 1 2.09 1.173q.91.613 1.531 1.114l-1.3 2.007a18.638 18.638 0 0 0-1.594-1.321 13.82 13.82 0 0 0-1.937-1.2 11.635 11.635 0 0 0-2.233-.867 9.314 9.314 0 0 0-2.489-.327 3.318 3.318 0 0 0-1.782.4 1.137 1.137 0 0 0-.618.961 1.074 1.074 0 0 0 .25.7 1.582 1.582 0 0 0 .755.472 4.151 4.151 0 0 0 1.276.166 3.327 3.327 0 0 0 .975-.13 1.223 1.223 0 0 0 .662-.469 1.606 1.606 0 0 0 .239-.938q0-.486-.037-1.338t-.073-1.858l-.073-1.973q-.036-.967-.037-1.674 0-.707.007-1.481t.007-1.528q0-.754.007-1.4t.007-1.1q0-.267-.023-.667a3.9 3.9 0 0 0-.084-.654Zm-8.113 1.957q.521.08 1.184.16t1.363.15q.7.07 1.332.1t1.106.03q2.008 0 4.018-.133t4.126-.48l-.013 2.061q-1.046.133-2.376.253t-2.8.193q-1.471.073-2.932.073-.646 0-1.566-.053t-1.833-.14q-.913-.087-1.567-.16Zm-.107 4.3q.5.08 1.159.157t1.353.117q.693.04 1.316.07t1.049.03q1.743 0 3.215-.073t2.794-.2q1.323-.127 2.563-.293l-.013 2.114q-1.027.127-2.007.213t-1.98.143q-1 .057-2.125.08t-2.474.023q-.606 0-1.479-.033t-1.766-.093q-.893-.06-1.58-.14Zm22.913-5.267q.394.047.852.07t.852.023q.313 0 .97-.013l1.483-.033q.826-.02 1.649-.047t1.482-.06q.66-.033 1-.053.575-.053.9-.1a3.742 3.742 0 0 0 .5-.1l1.19 1.612q-.321.207-.658.42t-.664.467q-.394.28-.98.749t-1.248 1.015l-1.3 1.068q-.635.522-1.148.935a6.068 6.068 0 0 1 1.086-.222 9.994 9.994 0 0 1 1.06-.056 6.863 6.863 0 0 1 3.021.644 5.342 5.342 0 0 1 2.108 1.751 4.327 4.327 0 0 1 .774 2.542 5.14 5.14 0 0 1-.813 2.847 5.474 5.474 0 0 1-2.4 1.988 9.417 9.417 0 0 1-3.93.728 7.142 7.142 0 0 1-2.448-.39 3.913 3.913 0 0 1-1.682-1.1 2.483 2.483 0 0 1-.608-1.666 2.676 2.676 0 0 1 .431-1.455 3.155 3.155 0 0 1 1.212-1.1 3.768 3.768 0 0 1 1.8-.417 4.447 4.447 0 0 1 2.3.55 3.8 3.8 0 0 1 1.431 1.464 4.358 4.358 0 0 1 .533 1.988l-2.081.287a3.073 3.073 0 0 0-.625-1.86 1.89 1.89 0 0 0-1.549-.715 1.462 1.462 0 0 0-.974.316.939.939 0 0 0-.376.735 1.092 1.092 0 0 0 .615.968 3.12 3.12 0 0 0 1.6.363 8.527 8.527 0 0 0 2.863-.42 3.683 3.683 0 0 0 1.772-1.223 3.109 3.109 0 0 0 .6-1.914 2.575 2.575 0 0 0-.556-1.635 3.666 3.666 0 0 0-1.519-1.109 5.629 5.629 0 0 0-2.175-.4 7.712 7.712 0 0 0-2.156.284 7.516 7.516 0 0 0-1.833.807 10.828 10.828 0 0 0-1.673 1.274q-.816.75-1.662 1.676l-1.626-1.683q.559-.453 1.259-1.029t1.418-1.171q.723-.6 1.363-1.143t1.073-.9q.42-.34 1-.816t1.205-1l1.182-.989q.559-.469.926-.8-.307.007-.829.03t-1.144.047q-.622.023-1.243.05t-1.147.057l-.839.05q-.38.02-.795.057t-.755.09Zm26.577 10.044-.494-7.1-.083-2.804h3l-.08 2.805-.495 7.1Zm.923 5.217a1.594 1.594 0 0 1-1.166-.461 1.593 1.593 0 0 1-.465-1.186 1.58 1.58 0 0 1 .471-1.186 1.6 1.6 0 0 1 1.16-.455 1.6 1.6 0 0 1 1.16.458 1.58 1.58 0 0 1 .471 1.186 1.581 1.581 0 0 1-.471 1.183 1.6 1.6 0 0 1-1.16.461Z" data-name="パス 15472"/><g data-name="グループ 8456"><g fill="#d92a0f" data-name="パス 14222"><path d="M625.814 351.172H380.11l6.686-44.57h245.703l-6.685 44.57Z"/><path fill="#011b39" d="m387.657 307.602-6.386 42.57h243.682l6.385-42.57H387.657m-1.722-2H633.66l-6.985 46.57H378.949l6.986-46.57Z"/></g><path fill="#fff" d="M404.312 321.374h10.375v1.467h-10.375Zm-.5 4.726h11.2v1.552h-11.2Zm-.026 7.139h11.263v1.613h-11.263Zm1.907-2.318h7.625v1.289h-7.625Zm-1.021-7.2h9.616v1.431h-9.616Zm1.708-3.761h1.824v6.832h-1.824Zm4.255 0h1.843v6.832h-1.843Zm-2.127 6.918h1.684v7.31h-1.684Zm3.7 1.588h1.856v7.4a2.529 2.529 0 0 1-.163 1.009 1.177 1.177 0 0 1-.619.565 3.392 3.392 0 0 1-1.141.225q-.691.035-1.654.035a4.865 4.865 0 0 0-.181-.8 5.316 5.316 0 0 0-.3-.785q.594.019 1.148.028t.731 0a.444.444 0 0 0 .26-.082.313.313 0 0 0 .063-.225Zm-7.414 0h8.094v1.429h-6.372v7.82h-1.722Zm-6.744-2.571h5.176v1.557h-5.177Zm.1-5.315h5.005v1.557h-5.006Zm-.1 7.957h5.176v1.557h-5.177Zm-.836-5.353h6.557v1.627h-6.557Zm1.789 8.02h4.3v5.706h-4.3v-1.621h2.589v-2.461h-2.589Zm-1 0h1.69v6.49h-1.69Zm20.42-9.39h15.3v1.525h-15.3Zm1.007 2.357h13.294v1.429h-13.3Zm-1.875 2.281h17.006v1.557h-17.006Zm-.026 4.378h17.12v1.522H417.53Zm7.438-8.163h2.1v4.566h-2.1Zm4.078-2.744 2.232.463q-.387.57-.767 1.079t-.677.87l-1.748-.463q.253-.425.528-.975a10.18 10.18 0 0 0 .436-.977Zm-11.585 13.629q1.115-.057 2.552-.136t3.065-.177q1.628-.1 3.261-.205l-.013 1.391q-1.551.133-3.112.259t-2.989.234q-1.428.107-2.594.2Zm3.912-4.7h1.97v7.026a2.272 2.272 0 0 1-.193 1.054 1.175 1.175 0 0 1-.7.521 4.509 4.509 0 0 1-1.249.216q-.742.038-1.818.038a4.653 4.653 0 0 0-.242-.8 7.569 7.569 0 0 0-.349-.775q.449.019.9.032t.81 0q.364-.012.497-.012a.459.459 0 0 0 .291-.07.33.33 0 0 0 .082-.26Zm3.539-.836 1.182 1.2q-1.058.254-2.391.437t-2.735.3q-1.4.114-2.7.171a3.8 3.8 0 0 0-.175-.632 4.863 4.863 0 0 0-.263-.619q1.253-.069 2.573-.187t2.5-.291q1.186-.177 2.009-.38Zm1.641.255h1.945a13.513 13.513 0 0 0 .446 2.973 10.682 10.682 0 0 0 .958 2.417 5.358 5.358 0 0 0 1.306 1.61 2.386 2.386 0 0 0 1.521.567.51.51 0 0 0 .5-.332 4.612 4.612 0 0 0 .212-1.2 3.043 3.043 0 0 0 .721.477 5.789 5.789 0 0 0 .791.324 5.489 5.489 0 0 1-.416 1.609 1.542 1.542 0 0 1-.73.763 2.9 2.9 0 0 1-1.174.215 4.111 4.111 0 0 1-2.343-.716 6.535 6.535 0 0 1-1.865-1.992 11.368 11.368 0 0 1-1.282-3 17.223 17.223 0 0 1-.593-3.716Zm5.067 4.071 1.735.591a9.781 9.781 0 0 1-2.163 2.045 16.21 16.21 0 0 1-2.798 1.574 25.714 25.714 0 0 1-3.075 1.127 3.606 3.606 0 0 0-.264-.512q-.181-.3-.384-.61a4.277 4.277 0 0 0-.369-.493 22.135 22.135 0 0 0 2.875-.85 14.266 14.266 0 0 0 2.567-1.243 7.19 7.19 0 0 0 1.877-1.629Zm-2.216-3.14 1.119-1.182a12.125 12.125 0 0 1 1.159.481q.6.285 1.147.6a5.666 5.666 0 0 1 .887.611l-1.176 1.29a5.618 5.618 0 0 0-.852-.624q-.529-.326-1.128-.64a12.292 12.292 0 0 0-1.156-.536Zm-8.284-8.65 1.78-.591a6.356 6.356 0 0 1 .727.914 5.147 5.147 0 0 1 .5.915l-1.882.705a5.031 5.031 0 0 0-.446-.953 7.193 7.193 0 0 0-.679-.99Zm23.233.946h8.806v1.926h-8.809Zm8.063 0h2.079v.664q0 .251-.013.4-.063 3.6-.145 6.092t-.2 4.082a20.239 20.239 0 0 1-.3 2.47 3.5 3.5 0 0 1-.457 1.246 2.446 2.446 0 0 1-.739.755 2.726 2.726 0 0 1-.9.318 6.578 6.578 0 0 1-1.235.092q-.735 0-1.514-.035a4.466 4.466 0 0 0-.2-1.049 4.477 4.477 0 0 0-.451-1.055q.785.063 1.427.076t.972.013a.837.837 0 0 0 .734-.355 2.54 2.54 0 0 0 .364-1.083q.149-.83.259-2.378t.183-3.948q.073-2.4.136-5.812Zm-5.147.884h2.081q-.038 1.742-.133 3.5t-.355 3.436a18.485 18.485 0 0 1-.789 3.211 12.069 12.069 0 0 1-1.423 2.856 9.689 9.689 0 0 1-2.27 2.341 5.624 5.624 0 0 0-.689-.855 5.81 5.81 0 0 0-.842-.741 8.186 8.186 0 0 0 2.101-2.061 10.113 10.113 0 0 0 1.282-2.551 15.54 15.54 0 0 0 .671-2.9q.206-1.519.275-3.1t.091-3.134Zm-7.308 7.2 2-2.4v10.524h-2Zm-2.556-6.213h5.745v1.837H437.4Zm2.556-3.4h2v4.4h-2Zm1.83 8.3q.228.177.675.6t.953.905q.507.487.928.908l.605.6-1.214 1.545q-.254-.355-.64-.849t-.83-1.023q-.443-.529-.849-.991t-.7-.76Zm.8-4.9h.394l.349-.089 1.144.763a20.925 20.925 0 0 1-1.738 3.516 23.487 23.487 0 0 1-2.3 3.149 18.64 18.64 0 0 1-2.49 2.415 4.018 4.018 0 0 0-.286-.629q-.2-.362-.407-.706a3.085 3.085 0 0 0-.381-.521 14.026 14.026 0 0 0 2.285-2.026 18.514 18.514 0 0 0 2.025-2.644 14.531 14.531 0 0 0 1.411-2.827Zm1.475 3.6 1.318 1.083q-.577.583-1.1 1.178t-.957 1.013l-.934-.832q.393-.475.884-1.185a14.322 14.322 0 0 0 .792-1.252Zm15.424-5.827h13.035v16.293h-2.185v-14.229h-8.75v14.279h-2.1Zm1.424 6.439h10.336v2.015h-10.333Zm-.012 6.6h10.364v2.056h-10.362Zm21.864-9.151q-.052.243-.11.531t-.115.536q-.056.294-.136.693t-.159.811q-.079.412-.168.8-.145.6-.355 1.382t-.488 1.679q-.278.894-.621 1.807t-.738 1.783a14.067 14.067 0 0 1-.851 1.59l-1.63-.651a10.792 10.792 0 0 0 .913-1.47q.422-.812.772-1.676t.628-1.706q.278-.842.476-1.566t.31-1.246q.2-.916.312-1.807a11.422 11.422 0 0 0 .1-1.68Zm4.825 1.361a10.229 10.229 0 0 1 .69 1.116q.364.668.711 1.415t.634 1.44q.287.693.45 1.188l-1.583.735q-.14-.574-.392-1.289t-.574-1.454q-.322-.74-.688-1.4a7.169 7.169 0 0 0-.74-1.109Zm-10.321 1.571q.364.023.71.019t.72-.019q.332-.014.824-.049t1.054-.079q.562-.044 1.124-.093t1.04-.079q.478-.03.777-.03a3.229 3.229 0 0 1 1.264.231 1.791 1.791 0 0 1 .871.8 3.179 3.179 0 0 1 .322 1.562q0 .821-.075 1.785a15.983 15.983 0 0 1-.245 1.842 5.7 5.7 0 0 1-.476 1.477 1.92 1.92 0 0 1-.9.992 3.091 3.091 0 0 1-1.325.264 6.61 6.61 0 0 1-.861-.061q-.46-.061-.815-.14l-.267-1.653q.285.079.609.147t.623.105a4.068 4.068 0 0 0 .481.037 1.488 1.488 0 0 0 .641-.131 1.015 1.015 0 0 0 .459-.5 4.452 4.452 0 0 0 .336-1.086 13.375 13.375 0 0 0 .2-1.434q.065-.767.065-1.471a1.792 1.792 0 0 0-.163-.869.811.811 0 0 0-.475-.38 2.55 2.55 0 0 0-.756-.1q-.326 0-.891.049t-1.2.114q-.639.065-1.187.133l-.851.105q-.285.042-.725.1t-.748.115Zm18.506-3.1q.49.154 1.237.322t1.566.327q.819.159 1.554.273t1.2.166l-.375 1.536q-.416-.056-1-.161t-1.246-.233q-.661-.128-1.3-.259t-1.169-.254q-.527-.124-.859-.208Zm-.02 2.737q-.07.307-.147.771t-.152.967q-.075.5-.14.962t-.107.771a6.7 6.7 0 0 1 2.035-1.1 7.085 7.085 0 0 1 2.212-.349 4.432 4.432 0 0 1 2.035.431 3.282 3.282 0 0 1 1.3 1.142 2.813 2.813 0 0 1 .458 1.558 3.756 3.756 0 0 1-.41 1.751 3.469 3.469 0 0 1-1.33 1.359 6.558 6.558 0 0 1-2.389.79 15.33 15.33 0 0 1-3.589.054l-.482-1.643a12.855 12.855 0 0 0 3.573.048 4.321 4.321 0 0 0 2.168-.859 1.957 1.957 0 0 0 .73-1.539 1.392 1.392 0 0 0-.284-.861 1.916 1.916 0 0 0-.778-.592 2.808 2.808 0 0 0-1.137-.217 5.751 5.751 0 0 0-2.279.447 4.5 4.5 0 0 0-1.73 1.268 3.24 3.24 0 0 0-.292.395 3.263 3.263 0 0 0-.2.381l-1.456-.356q.084-.406.17-.959t.17-1.188q.084-.635.156-1.283t.128-1.265q.056-.616.084-1.107Zm14.094 7.137q1.526-.057 3.549-.139t4.3-.19q2.276-.108 4.517-.222l-.044 1.85-4.349.308q-2.193.155-4.194.279t-3.579.225Zm4.91-9.361 2.314.483q-.323 1.28-.721 2.625t-.828 2.653q-.433 1.307-.867 2.485t-.839 2.131l-1.932-.513q.405-.969.813-2.181t.8-2.535q.392-1.323.718-2.643t.546-2.505Zm3.5 5.218 1.895-.82q.823 1.076 1.652 2.334t1.5 2.48a15.1 15.1 0 0 1 1.026 2.21l-2.083.955a15.267 15.267 0 0 0-.943-2.2q-.633-1.242-1.427-2.546t-1.613-2.414Zm-9.216-8.148h14.906v1.951h-14.906Zm-1 0h2.049v4.868q0 1.122-.079 2.468t-.295 2.771a18.287 18.287 0 0 1-.63 2.741 10.242 10.242 0 0 1-1.093 2.4 5.269 5.269 0 0 0-.5-.4q-.32-.235-.663-.441a3.95 3.95 0 0 0-.583-.309 9.114 9.114 0 0 0 .979-2.179 16.131 16.131 0 0 0 .539-2.427q.177-1.242.228-2.426t.054-2.198Zm6.775-2.481h2.119v3.428h-2.117Zm12.052 6.818h16.8v1.9h-16.8Zm3.142-4.275h12.415v1.862h-12.415Zm.159 12.432h10.4v1.888h-10.4Zm4.466-14.981h2.155v7.969h-2.155Zm-5.54 10.234h12.622v7.551h-2.17v-5.676h-8.367v5.727h-2.085Zm1-10.153 2.04.5a18.017 18.017 0 0 1-.953 2.29 21 21 0 0 1-1.194 2.1 14.457 14.457 0 0 1-1.292 1.713 4.85 4.85 0 0 0-.547-.372q-.343-.207-.7-.407t-.616-.314a10.557 10.557 0 0 0 1.893-2.463 16.4 16.4 0 0 0 1.368-3.047Zm22.308 4.826q-.079.4-.226.987a10.685 10.685 0 0 1-.441 1.333q-.228.549-.54 1.137a9.187 9.187 0 0 1-.649 1.052 2.382 2.382 0 0 1 .507-.19 4.653 4.653 0 0 1 .615-.118 4.644 4.644 0 0 1 .568-.039 2.133 2.133 0 0 1 1.436.493 1.791 1.791 0 0 1 .574 1.44v.686q0 .406.016.851l.023.872q.011.427.012.758h-1.5q.023-.252.035-.594t.014-.721q.007-.38.009-.732t0-.632a1.088 1.088 0 0 0-.364-.922 1.35 1.35 0 0 0-.83-.268 2.809 2.809 0 0 0-1.215.289 3.983 3.983 0 0 0-1.037.695q-.3.3-.614.682t-.67.836l-1.34-1.008a19.345 19.345 0 0 0 1.6-1.678 12.011 12.011 0 0 0 1.12-1.563 9.776 9.776 0 0 0 .726-1.481 9 9 0 0 0 .352-1.171 6.679 6.679 0 0 0 .166-1.13Zm-5.139 1.356q.551.079 1.235.119t1.2.04q.929 0 2.023-.044t2.225-.145q1.125-.1 2.133-.278l-.013 1.461q-.737.107-1.589.186t-1.73.128q-.878.049-1.683.07t-1.449.021q-.289 0-.693-.007t-.836-.033l-.824-.049Zm10.983 3.808q-.206.061-.484.157t-.557.2q-.278.1-.5.2-.695.271-1.625.655t-1.92.9a8.373 8.373 0 0 0-1.114.674 3.061 3.061 0 0 0-.71.694 1.325 1.325 0 0 0-.249.775.9.9 0 0 0 .144.53.946.946 0 0 0 .423.321 2.543 2.543 0 0 0 .682.163 8.077 8.077 0 0 0 .921.047q.873 0 1.945-.1t2-.28l-.063 1.602q-.475.061-1.155.121t-1.4.093q-.721.033-1.375.033a8.279 8.279 0 0 1-1.917-.2 2.766 2.766 0 0 1-1.346-.704 1.866 1.866 0 0 1-.5-1.38 2.545 2.545 0 0 1 .322-1.278 3.945 3.945 0 0 1 .852-1.032 8.176 8.176 0 0 1 1.167-.845q.637-.383 1.263-.7.658-.345 1.2-.59t1.016-.447q.475-.2.9-.4.383-.168.734-.33t.711-.344Zm13.481-3.377h5.411v1.945h-5.411Zm-.973 0h2.015v8.02a1.079 1.079 0 0 0 .164.732 1.188 1.188 0 0 0 .748.155h2.365a.711.711 0 0 0 .573-.227 1.8 1.8 0 0 0 .278-.883q.085-.656.136-1.953a4.359 4.359 0 0 0 .559.34 5.751 5.751 0 0 0 .671.3q.346.127.62.2a12.19 12.19 0 0 1-.371 2.493 2.24 2.24 0 0 1-.806 1.27 2.612 2.612 0 0 1-1.5.374h-2.81a4.23 4.23 0 0 1-1.58-.238 1.464 1.464 0 0 1-.818-.845 4.716 4.716 0 0 1-.244-1.7Zm-.07-5.831h7.472v8.991h-1.977v-7.027h-5.494Zm-9.019 3.363h7.875v13.155h-1.632v-11.448h-4.662v11.708h-1.581Zm.839 7.657h6.179v1.429h-6.178Zm0 2.931h6.179v1.599h-6.178Zm-1.225-14.11h8.647v1.8h-8.646Zm2.608.425h1.359v4.413h-1.358Zm2.218 0h1.385v4.413h-1.384Zm-1.9 4.394h.984v1.919a8.027 8.027 0 0 1-.095 1.183 5.166 5.166 0 0 1-.348 1.252 3.662 3.662 0 0 1-.75 1.117 2.733 2.733 0 0 0-.36-.357 2.7 2.7 0 0 0-.421-.309 2.84 2.84 0 0 0 .647-.933 4.065 4.065 0 0 0 .275-1.001 7.162 7.162 0 0 0 .069-.965Zm1.747 0h.994v3.625a.631.631 0 0 0 .025.229q.025.05.148.05h.437q.221 0 .266-.064a1.537 1.537 0 0 0 .416.232 4.61 4.61 0 0 0 .5.168.863.863 0 0 1-.327.533 1.177 1.177 0 0 1-.676.165h-.732a1.074 1.074 0 0 1-.823-.251 1.694 1.694 0 0 1-.223-1.05Zm22.339-4.729h8.765v1.608h-8.765Zm-.279 5.417h9.386v1.614h-9.386Zm0 2.692h9.322v1.614h-9.322Zm.8 6.414h7.765v1.628h-7.764Zm-2.326-11.835h12.273v1.659h-12.273Zm1.26 8.122h9.895v6.075h-2.055v-4.485h-5.89v4.542h-1.95Zm-2.445-11.554 1.9.61a29.425 29.425 0 0 1-1.523 3.205 29.96 29.96 0 0 1-1.891 3.013 19.483 19.483 0 0 1-2.091 2.487 6.869 6.869 0 0 0-.279-.642q-.191-.394-.407-.791a6.3 6.3 0 0 0-.394-.646 16.743 16.743 0 0 0 1.8-2.035 21.427 21.427 0 0 0 1.617-2.488 20.63 20.63 0 0 0 1.268-2.713Zm-1.874 5.152 1.932-1.932.013.021v14.403h-1.944Zm25.492 6.092-.47-6.744-.077-2.665h2.846l-.076 2.665-.47 6.744Zm.877 4.953a1.514 1.514 0 0 1-1.108-.435 1.513 1.513 0 0 1-.441-1.127 1.5 1.5 0 0 1 .448-1.127 1.52 1.52 0 0 1 1.1-.435 1.52 1.52 0 0 1 1.1.435 1.5 1.5 0 0 1 .448 1.127 1.5 1.5 0 0 1-.448 1.127 1.52 1.52 0 0 1-1.099.435Z" data-name="パス 15473"/></g><g data-name="グループ 8501"><path fill="#fff" d="M105.117 280.69q.587-.02 1.108-.05t.807-.05l1.488-.14q.907-.087 2.05-.19t2.445-.213q1.3-.11 2.683-.23 1.053-.087 2.073-.157t1.925-.123q.9-.053 1.591-.073l.013 2.3q-.547-.007-1.253.013t-1.4.073a6.985 6.985 0 0 0-1.227.193 5.164 5.164 0 0 0-1.741.872 6.6 6.6 0 0 0-1.376 1.415 6.734 6.734 0 0 0-.9 1.722 5.483 5.483 0 0 0-.317 1.806 4.323 4.323 0 0 0 .359 1.821 3.873 3.873 0 0 0 1 1.332 5.582 5.582 0 0 0 1.472.906 8.753 8.753 0 0 0 1.8.54 13.922 13.922 0 0 0 1.967.23l-.836 2.436a12.022 12.022 0 0 1-2.389-.374 10.171 10.171 0 0 1-2.2-.854 7.32 7.32 0 0 1-1.813-1.347 5.96 5.96 0 0 1-1.23-1.847 5.958 5.958 0 0 1-.447-2.36 7.408 7.408 0 0 1 .486-2.721 8.41 8.41 0 0 1 1.221-2.172 7.007 7.007 0 0 1 1.48-1.442q-.586.067-1.418.156t-1.794.2q-.962.11-1.941.237t-1.871.27q-.893.143-1.573.29Zm13.316 3.165q.247.34.543.83t.583.99q.287.5.486.919l-1.377.615q-.367-.8-.74-1.47a13.385 13.385 0 0 0-.84-1.316Zm2.221-.894q.253.34.567.817t.616.97q.3.493.516.9l-1.364.655q-.4-.788-.786-1.433a15.474 15.474 0 0 0-.873-1.3Zm8.869-3.67q.474.06 1.015.1t1.028.037h6.657q.487 0 1.035-.033t1.041-.1v2.321q-.5-.04-1.038-.057t-1.038-.017h-6.644q-.507 0-1.061.017t-.995.057Zm-2.333 5.087q.433.047.921.08t.947.033h13.093q.32 0 .844-.027a8.94 8.94 0 0 0 .911-.087v2.335q-.36-.033-.851-.043t-.9-.01h-13.093q-.447 0-.951.013t-.918.053Zm10.007 1.225a17.323 17.323 0 0 1-.32 3.487 10.785 10.785 0 0 1-.967 2.8 7.285 7.285 0 0 1-.96 1.384 10.882 10.882 0 0 1-1.377 1.33 9.1 9.1 0 0 1-1.657 1.074l-2.1-1.525a8.347 8.347 0 0 0 2.079-1.233 7.42 7.42 0 0 0 1.584-1.692 6.687 6.687 0 0 0 1-2.58 18.594 18.594 0 0 0 .247-3.036Zm4.249-7.764a9.935 9.935 0 0 1 .553.854q.293.5.573 1t.473.886l-1.458.628q-.307-.613-.743-1.407a15.281 15.281 0 0 0-.836-1.367Zm2.315-.874q.267.373.573.877t.6.993q.29.49.463.85l-1.444.628q-.313-.64-.76-1.417a14.143 14.143 0 0 0-.86-1.337Zm18.433 2.046q.274.394.614.947t.666 1.116q.326.563.553 1.036l-1.565.682q-.28-.607-.557-1.13t-.569-1.026a10.084 10.084 0 0 0-.66-.99Zm2.715-.967a9.958 9.958 0 0 1 .647.917q.34.537.673 1.09t.573 1.006l-1.552.7q-.294-.607-.594-1.117t-.61-.989q-.31-.48-.677-.953Zm-11.363.606q.48.26 1.094.643t1.257.793q.643.41 1.214.78t.938.637l-1.338 1.968q-.394-.287-.961-.667t-1.19-.78q-.623-.4-1.227-.77t-1.077-.644Zm-3.506 14.226q1.12-.2 2.277-.5a21.767 21.767 0 0 0 2.3-.743 18.2 18.2 0 0 0 2.2-1.02 22.544 22.544 0 0 0 3.141-2.15 21.358 21.358 0 0 0 2.621-2.541 16.589 16.589 0 0 0 1.96-2.767l1.378 2.416a21.09 21.09 0 0 1-3.4 3.914 25.752 25.752 0 0 1-4.478 3.263 20.289 20.289 0 0 1-2.22 1.073q-1.207.5-2.374.867a17.792 17.792 0 0 1-2.066.537Zm.445-9.678q.487.253 1.114.627t1.267.77q.64.4 1.207.757t.934.627l-1.311 2.007q-.414-.293-.978-.667t-1.19-.777q-.627-.4-1.233-.763t-1.1-.614Zm27.294 1.742q.933.54 2.02 1.24t2.18 1.453q1.1.754 2.078 1.464t1.68 1.29l-1.7 2.014q-.666-.613-1.63-1.39t-2.068-1.588q-1.1-.81-2.181-1.557t-1.963-1.307Zm9.336-3.471a5.552 5.552 0 0 0-.324.625q-.164.364-.284.705a18.459 18.459 0 0 1-.807 2.085 22.943 22.943 0 0 1-1.221 2.319 20.147 20.147 0 0 1-1.6 2.293 20.865 20.865 0 0 1-3.394 3.295 18.455 18.455 0 0 1-4.86 2.654l-2.068-1.8a17.975 17.975 0 0 0 3.562-1.5 16.682 16.682 0 0 0 2.693-1.873 18.278 18.278 0 0 0 2.022-2.024 15.013 15.013 0 0 0 1.325-1.834 18.247 18.247 0 0 0 1.076-2.008 10.06 10.06 0 0 0 .649-1.814h-6.948l.842-2.034h5.881a6.787 6.787 0 0 0 .882-.057 3.634 3.634 0 0 0 .735-.164Zm-6.65-3.021q-.327.488-.645 1.042t-.491.862a22.162 22.162 0 0 1-1.672 2.511 25.211 25.211 0 0 1-2.3 2.627 20.661 20.661 0 0 1-2.765 2.316l-1.927-1.486a16.985 16.985 0 0 0 2.987-2.313 18.97 18.97 0 0 0 2.073-2.385 21.119 21.119 0 0 0 1.32-2.039 6.824 6.824 0 0 0 .465-.9 6.685 6.685 0 0 0 .371-1.042Zm20.99 15.36a5.439 5.439 0 0 0 .11-.635 6.142 6.142 0 0 0 .043-.735v-11.75a8.081 8.081 0 0 0-.067-1.119q-.067-.471-.073-.537h2.65l-.064.544a9.636 9.636 0 0 0-.057 1.125v10.757a11.052 11.052 0 0 0 1.782-1.025 14.431 14.431 0 0 0 1.824-1.511 12.263 12.263 0 0 0 1.587-1.874l1.372 1.968a15.6 15.6 0 0 1-1.993 2.141 23.263 23.263 0 0 1-2.407 1.9 20.955 20.955 0 0 1-2.393 1.441 3.786 3.786 0 0 0-.491.3l-.324.25Zm-9.234-.235a8.208 8.208 0 0 0 2.158-2.21 10.553 10.553 0 0 0 1.268-2.615 8.4 8.4 0 0 0 .332-1.643q.117-.983.173-2.1t.067-2.216q.01-1.1.01-1.984a8.651 8.651 0 0 0-.047-.969 7.091 7.091 0 0 0-.127-.761h2.629l-.037.327q-.03.267-.06.631t-.03.745q0 .874-.02 2.031t-.083 2.38q-.063 1.223-.177 2.317a11.651 11.651 0 0 1-.32 1.847 11.353 11.353 0 0 1-1.37 3.114 11.48 11.48 0 0 1-2.191 2.551Zm39.975-11.951-.351.4a3.107 3.107 0 0 0-.277.371q-.58.947-1.394 2.057t-1.81 2.254q-1 1.143-2.126 2.213a23.6 23.6 0 0 1-2.348 1.955l-1.78-1.64a17.559 17.559 0 0 0 2-1.6q.942-.872 1.744-1.774t1.425-1.74a14.4 14.4 0 0 0 1.009-1.545h-10.909q-.393 0-.831.023t-.814.053q-.377.03-.584.063v-2.529l.657.083q.391.05.811.073t.761.023h11.326a5.681 5.681 0 0 0 1.7-.2Zm-10.23 9.561q-.447-.447-1.026-.983t-1.206-1.086q-.626-.55-1.2-1.02t-1.014-.777l1.874-1.519q.387.28.94.727t1.19.976q.636.53 1.28 1.1t1.21 1.107q.654.627 1.357 1.36t1.347 1.43q.644.7 1.1 1.271l-2.1 1.673q-.4-.554-1.037-1.294t-1.354-1.524q-.714-.788-1.36-1.441Zm15.2-6.027.875.053q.528.033 1.115.05t1.107.017h10.8q.72 0 1.317-.05t.978-.07v2.81l-.991-.06q-.651-.04-1.3-.04h-10.799q-.84 0-1.7.03t-1.4.07Zm28.875-6.517q-.16.367-.324.8t-.291.764q-.16.48-.4 1.081t-.5 1.208q-.264.607-.537 1.14a17.555 17.555 0 0 1-.963 1.643 18.984 18.984 0 0 1-1.22 1.66 11.266 11.266 0 0 1-1.3 1.357l-2.248-1.358a7.911 7.911 0 0 0 1.043-.916q.5-.523.96-1.1t.833-1.133q.377-.556.657-1.023a10.625 10.625 0 0 0 .69-1.45q.283-.737.463-1.3a7.471 7.471 0 0 0 .261-.972 6.348 6.348 0 0 0 .12-.945Zm-2.972 3.184h10.6q.387 0 .967-.03a10.534 10.534 0 0 0 1.054-.1v2.448q-.541-.047-1.111-.057t-.91-.01H262.86Zm7.678 1.278a20.355 20.355 0 0 1-.48 4.086 14.049 14.049 0 0 1-1.2 3.334 11.779 11.779 0 0 1-1.884 2.665 12.993 12.993 0 0 1-2.524 2.071l-2.411-1.625a8.131 8.131 0 0 0 .988-.484 5.645 5.645 0 0 0 .827-.57 10.615 10.615 0 0 0 1.577-1.488 9.875 9.875 0 0 0 1.329-2 11.623 11.623 0 0 0 .935-2.625 15.939 15.939 0 0 0 .382-3.37Zm17.032 1.839q.933.54 2.02 1.24t2.18 1.453q1.1.754 2.078 1.464t1.68 1.29l-1.7 2.014q-.666-.613-1.63-1.39t-2.068-1.588q-1.1-.81-2.181-1.557t-1.963-1.307Zm9.336-3.471a5.552 5.552 0 0 0-.324.625q-.164.364-.284.705a18.459 18.459 0 0 1-.807 2.085 22.942 22.942 0 0 1-1.221 2.319 20.148 20.148 0 0 1-1.6 2.293 20.865 20.865 0 0 1-3.394 3.295 18.455 18.455 0 0 1-4.857 2.657l-2.068-1.8a17.975 17.975 0 0 0 3.562-1.5 16.682 16.682 0 0 0 2.693-1.873 18.278 18.278 0 0 0 2.019-2.027 15.014 15.014 0 0 0 1.325-1.834 18.247 18.247 0 0 0 1.076-2.008 10.059 10.059 0 0 0 .649-1.814h-6.947l.842-2.034h5.881a6.787 6.787 0 0 0 .882-.057 3.634 3.634 0 0 0 .735-.164Zm-6.65-3.021q-.327.488-.645 1.042t-.491.862a22.161 22.161 0 0 1-1.672 2.511 25.21 25.21 0 0 1-2.3 2.627 20.661 20.661 0 0 1-2.77 2.315l-1.927-1.486a16.985 16.985 0 0 0 2.987-2.313 18.969 18.969 0 0 0 2.073-2.385 21.117 21.117 0 0 0 1.32-2.039 6.824 6.824 0 0 0 .465-.9 6.685 6.685 0 0 0 .374-1.045Zm12.706 6.708.875.053q.528.033 1.115.05t1.107.017h10.8q.72 0 1.317-.05t.978-.07v2.81l-.991-.06q-.651-.04-1.3-.04h-10.804q-.84 0-1.7.03t-1.4.07Zm29.108-4.759q.894.127 2.028.183t2.321.043q1.187-.013 2.274-.08t1.874-.16v2.308q-.881.08-1.975.13t-2.247.05q-1.153 0-2.257-.05t-2-.13Zm1.367 8.43q-.12.513-.183.916a5.21 5.21 0 0 0-.063.81 1.291 1.291 0 0 0 .153.619 1.281 1.281 0 0 0 .5.489 2.923 2.923 0 0 0 .909.315 7.336 7.336 0 0 0 1.4.113 23.3 23.3 0 0 0 2.533-.13 24.407 24.407 0 0 0 2.461-.4l.047 2.416a20.809 20.809 0 0 1-2.2.293q-1.25.107-2.911.107a6.738 6.738 0 0 1-3.795-.854 2.7 2.7 0 0 1-1.234-2.348 8.335 8.335 0 0 1 .087-1.171q.087-.61.254-1.358Zm-4.647-9.822q-.067.187-.16.515t-.174.645q-.08.318-.12.5l-.216 1.142q-.13.69-.26 1.52-.13.83-.243 1.69t-.187 1.657q-.073.8-.073 1.423 0 .409.023.85t.083.87l.33-.764.339-.784q.17-.392.309-.738l1.123.883q-.273.794-.567 1.712t-.527 1.734q-.23.82-.337 1.334-.04.213-.077.49a2.653 2.653 0 0 0-.03.437q.007.153.013.374t.031.414l-2.063.139a20.072 20.072 0 0 1-.537-2.752 27.86 27.86 0 0 1-.23-3.748q0-1.12.1-2.274t.24-2.233q.143-1.08.283-1.966t.227-1.48q.053-.4.114-.885t.066-.919Zm18.019 2.278q.621.073 1.322.1t1.28.03q1.195 0 2.439-.124t2.431-.357a20.8 20.8 0 0 0 2.2-.553l.06 2.081q-.886.246-2.069.47t-2.487.367a23.481 23.481 0 0 1-2.571.144q-.58 0-1.2-.017t-1.244-.046Zm7.579-3.077q-.12.507-.314 1.284t-.43 1.641q-.237.864-.5 1.672a29.494 29.494 0 0 1-1.183 3.057q-.723 1.617-1.563 3.147a25.474 25.474 0 0 1-1.687 2.7l-2.179-1.113a20.906 20.906 0 0 0 1.338-1.837q.663-1.017 1.25-2.1t1.05-2.109q.47-1.023.763-1.862a21.052 21.052 0 0 0 .647-2.315 13.2 13.2 0 0 0 .327-2.408Zm4.7 6.214q-.033.627-.033 1.221t.02 1.229l.05 1.179q.03.719.07 1.523.04.8.07 1.526t.03 1.169a3.489 3.489 0 0 1-.37 1.612 2.671 2.671 0 0 1-1.189 1.151 4.775 4.775 0 0 1-2.2.427 6.335 6.335 0 0 1-2.174-.354 3.532 3.532 0 0 1-1.558-1.061 2.7 2.7 0 0 1-.584-1.775 2.935 2.935 0 0 1 .523-1.719 3.486 3.486 0 0 1 1.491-1.185 5.575 5.575 0 0 1 2.283-.431 10.036 10.036 0 0 1 3.2.49 11.756 11.756 0 0 1 2.628 1.237 16.1 16.1 0 0 1 2 1.487l-1.196 1.932q-.553-.5-1.25-1.084a11.751 11.751 0 0 0-1.55-1.091 9.318 9.318 0 0 0-1.843-.834 6.686 6.686 0 0 0-2.11-.327 2.714 2.714 0 0 0-1.5.369 1.1 1.1 0 0 0-.565.947 1.163 1.163 0 0 0 .492.971 2.3 2.3 0 0 0 1.409.373 2.284 2.284 0 0 0 1.138-.242 1.357 1.357 0 0 0 .6-.676 2.581 2.581 0 0 0 .176-.98q0-.485-.037-1.345t-.087-1.883q-.052-1.028-.097-2.043t-.08-1.813Zm3.6.911a12.949 12.949 0 0 0-1.421-1.007q-.854-.534-1.747-1.024t-1.574-.79l1.151-1.76q.54.24 1.224.583t1.377.727q.694.383 1.294.747t.974.637Zm8.882-6.183q.394.047.852.07t.852.023q.313 0 .97-.013l1.482-.033q.826-.02 1.649-.047t1.482-.06q.66-.033 1-.053.575-.053.9-.1a3.743 3.743 0 0 0 .5-.1l1.19 1.612q-.321.207-.658.42t-.664.467q-.394.28-.98.749t-1.248 1.015l-1.3 1.068q-.635.522-1.148.935a6.068 6.068 0 0 1 1.086-.222 9.994 9.994 0 0 1 1.06-.056 6.863 6.863 0 0 1 3.021.644 5.342 5.342 0 0 1 2.108 1.751 4.327 4.327 0 0 1 .774 2.542 5.14 5.14 0 0 1-.813 2.847 5.474 5.474 0 0 1-2.4 1.988 9.417 9.417 0 0 1-3.93.728 7.142 7.142 0 0 1-2.448-.39 3.913 3.913 0 0 1-1.682-1.1 2.483 2.483 0 0 1-.608-1.666 2.676 2.676 0 0 1 .431-1.455 3.155 3.155 0 0 1 1.222-1.099 3.768 3.768 0 0 1 1.8-.417 4.447 4.447 0 0 1 2.3.55 3.8 3.8 0 0 1 1.431 1.464 4.358 4.358 0 0 1 .533 1.988l-2.081.287a3.073 3.073 0 0 0-.625-1.86 1.89 1.89 0 0 0-1.549-.715 1.462 1.462 0 0 0-.974.316.939.939 0 0 0-.376.735 1.092 1.092 0 0 0 .615.968 3.12 3.12 0 0 0 1.6.363 8.527 8.527 0 0 0 2.863-.42 3.684 3.684 0 0 0 1.763-1.224 3.109 3.109 0 0 0 .6-1.914 2.575 2.575 0 0 0-.556-1.635 3.666 3.666 0 0 0-1.519-1.109 5.629 5.629 0 0 0-2.175-.4 7.712 7.712 0 0 0-2.156.284 7.516 7.516 0 0 0-1.833.807 10.827 10.827 0 0 0-1.671 1.274q-.816.75-1.662 1.676l-1.628-1.683q.559-.453 1.259-1.029t1.418-1.171q.723-.6 1.363-1.143t1.073-.9q.42-.34 1-.816t1.205-1l1.182-.989q.559-.469.926-.8-.307.007-.829.03t-1.144.047q-.622.023-1.243.05t-1.147.057l-.839.05q-.38.02-.795.057t-.755.09Zm26.8-.8q-.107.387-.22.938t-.18.865q-.14.693-.34 1.667t-.447 2.051q-.249 1.079-.513 2.079-.26 1.053-.64 2.293t-.809 2.507q-.427 1.267-.867 2.41t-.847 2.026l-2.489-.843a18.778 18.778 0 0 0 .933-1.853q.487-1.093.95-2.347t.869-2.493q.4-1.24.683-2.287.193-.707.37-1.46t.327-1.466q.15-.713.257-1.329t.167-1.05q.067-.521.083-1.052a6.994 6.994 0 0 0-.017-.871Zm-4.912 3.09q1.194 0 2.5-.117t2.657-.34q1.347-.223 2.634-.53v2.235q-1.24.287-2.63.487t-2.734.31q-1.344.11-2.457.11-.7 0-1.278-.027l-1.117-.053-.06-2.228q.761.08 1.327.117t1.156.034Zm6.293 2.976q.834-.087 1.831-.14t1.964-.053q.86 0 1.75.037t1.751.137l-.056 2.153q-.753-.1-1.63-.173t-1.79-.073q-1 0-1.941.05t-1.88.163Zm.893 4.982q-.113.439-.193.893a4.7 4.7 0 0 0-.08.806 1.51 1.51 0 0 0 .133.633 1.314 1.314 0 0 0 .45.519 2.437 2.437 0 0 0 .888.352 6.9 6.9 0 0 0 1.45.126 19.534 19.534 0 0 0 2.024-.107q1.024-.107 2.058-.3l-.089 2.287q-.834.107-1.837.193t-2.178.087a7.3 7.3 0 0 1-3.786-.8 2.554 2.554 0 0 1-1.311-2.3 8.321 8.321 0 0 1 .107-1.337q.107-.664.234-1.264Zm24.24-10.774q-.067.26-.147.614t-.15.7q-.07.347-.137.581-.3 1.308-.7 2.688t-.894 2.727a23.231 23.231 0 0 1-1.086 2.516 12.79 12.79 0 0 1-1.288 2.065 18.379 18.379 0 0 1-1.652 1.895 6.068 6.068 0 0 1-1.56 1.148 3.829 3.829 0 0 1-1.7.382 2.773 2.773 0 0 1-1.5-.444 3.162 3.162 0 0 1-1.135-1.311 4.738 4.738 0 0 1-.431-2.122 7.586 7.586 0 0 1 .48-2.625 9.076 9.076 0 0 1 1.34-2.428 8.034 8.034 0 0 1 2-1.858 10.875 10.875 0 0 1 3.095-1.457 11.651 11.651 0 0 1 3.114-.423 7.438 7.438 0 0 1 3.615.86 6.308 6.308 0 0 1 2.478 2.395 6.967 6.967 0 0 1 .9 3.582 6.757 6.757 0 0 1-.92 3.585 6.78 6.78 0 0 1-2.537 2.414 10.938 10.938 0 0 1-3.723 1.224l-1.371-2.061a10.142 10.142 0 0 0 2.807-.6 5.955 5.955 0 0 0 1.939-1.173 4.525 4.525 0 0 0 1.122-1.609 4.983 4.983 0 0 0 .362-1.887 4.9 4.9 0 0 0-.606-2.465 4.305 4.305 0 0 0-1.711-1.672 5.307 5.307 0 0 0-2.591-.606 7.568 7.568 0 0 0-2.8.5 10.5 10.5 0 0 0-2.345 1.291 5.834 5.834 0 0 0-1.372 1.382 6.748 6.748 0 0 0-.889 1.715 5.35 5.35 0 0 0-.31 1.745 2.184 2.184 0 0 0 .332 1.273 1.041 1.041 0 0 0 .9.475 1.7 1.7 0 0 0 .845-.243 4.243 4.243 0 0 0 .852-.659 8.605 8.605 0 0 0 .835-.955q.41-.539.8-1.132a14.608 14.608 0 0 0 1.048-1.888q.493-1.054.9-2.21t.71-2.279q.3-1.123.466-2.088a7.4 7.4 0 0 0 .117-.926 8.281 8.281 0 0 0 .023-.871Zm-8.369.731q.093.481.2.958t.223.917q.214.807.517 1.741t.647 1.861q.343.927.707 1.717a13.109 13.109 0 0 0 .7 1.337q.52.819 1.187 1.709a12.905 12.905 0 0 0 1.366 1.563l-1.808 1.442q-.593-.667-1.1-1.322t-1.004-1.473a13.606 13.606 0 0 1-.858-1.531q-.43-.884-.848-1.911t-.8-2.118q-.384-1.091-.711-2.146-.16-.527-.344-1.017a10.193 10.193 0 0 0-.431-.985Zm28.228 1.2q-.207 1.54-.52 3.25a30.825 30.825 0 0 1-.841 3.438 18.476 18.476 0 0 1-1.357 3.464 7.374 7.374 0 0 1-1.668 2.2 2.961 2.961 0 0 1-1.945.764 3.046 3.046 0 0 1-1.946-.721 5.009 5.009 0 0 1-1.441-2.009 7.56 7.56 0 0 1-.544-2.961 7.673 7.673 0 0 1 .694-3.222 8.639 8.639 0 0 1 1.927-2.695 9.161 9.161 0 0 1 2.885-1.847 9.327 9.327 0 0 1 3.558-.674 8.753 8.753 0 0 1 3.3.59 7.375 7.375 0 0 1 2.508 1.641 7.235 7.235 0 0 1 1.6 2.448 8.024 8.024 0 0 1 .557 3 7.888 7.888 0 0 1-.866 3.74 7.068 7.068 0 0 1-2.553 2.7 10.778 10.778 0 0 1-4.172 1.438l-1.349-2.127q.554-.06.994-.137t.834-.163a7.4 7.4 0 0 0 1.809-.683 5.839 5.839 0 0 0 1.5-1.146 5.063 5.063 0 0 0 1.018-1.618 5.59 5.59 0 0 0 .369-2.08 6.285 6.285 0 0 0-.37-2.189 4.958 4.958 0 0 0-1.089-1.749 4.937 4.937 0 0 0-1.758-1.159 6.4 6.4 0 0 0-2.378-.413 6.766 6.766 0 0 0-2.859.576 6.687 6.687 0 0 0-2.118 1.5 6.678 6.678 0 0 0-1.312 2 5.337 5.337 0 0 0-.446 2.051 5.238 5.238 0 0 0 .259 1.78 2.566 2.566 0 0 0 .648 1.055 1.2 1.2 0 0 0 .8.346 1.244 1.244 0 0 0 .872-.44 4.962 4.962 0 0 0 .865-1.368 18.493 18.493 0 0 0 .871-2.372 27.093 27.093 0 0 0 .767-3.067 32.192 32.192 0 0 0 .453-3.2Z" data-name="パス 15470"/><path fill="#efd774" d="M49.881 294.944c5.28 0 8.613-3.267 8.613-7.788v-.066c0-4.455-3.234-6.2-6.567-6.732l6.2-6.006v-3.828h-16.17v4.356h9.636l-5.907 6.006.825 3.2h2.145c3 0 4.851 1.155 4.851 3.2v.066c0 1.848-1.485 3.069-3.564 3.069a7.392 7.392 0 0 1-5.874-2.937l-3.5 3.3a11.542 11.542 0 0 0 9.312 4.16Zm24.349-8.114a10.732 10.732 0 0 1 1.767.057v-2.052a9.307 9.307 0 0 1-1.652.109h-6.632a.712.712 0 0 0-.209.019 11.506 11.506 0 0 0 .721-1.648 5.846 5.846 0 0 1 .3-.665l-2.2-.494a8.209 8.209 0 0 1-.8 2.318 12.057 12.057 0 0 1-3.208 4.161 7.317 7.317 0 0 1 1.691 1.273 12.873 12.873 0 0 0 2.584-3.064l3.477-.019a7.242 7.242 0 0 1-2.375 5.419 8.82 8.82 0 0 1-2.949 1.6 5.119 5.119 0 0 1 1.41 1.821c4.085-1.805 5.79-4.313 6.042-8.835Zm18.087 3.325v3.289c0 .418-.133.513-.7.513a19.211 19.211 0 0 1-2.793-.228 6.874 6.874 0 0 1 .551 2.128c.969.057 1.6.076 2.2.076a3.767 3.767 0 0 0 2.2-.38c.475-.3.684-.855.684-1.8v-12.319a14.332 14.332 0 0 1 .095-2.147 17.126 17.126 0 0 1-2.2.1h-7.922a19.17 19.17 0 0 1-2.223-.1 26.776 26.776 0 0 1 .1 2.869c0 4.94-.19 7.163-.76 8.93a7.194 7.194 0 0 1-2.038 3.344 7.35 7.35 0 0 1 1.767 1.748 10.654 10.654 0 0 0 2.242-3.762 14.082 14.082 0 0 0 .551-2.261Zm-8.017-1.938c.114-1.539.152-1.957.152-2.546h7.866v2.546Zm.171-4.484v-2.375h7.847v2.375Z" data-name="パス 15471"/></g></g></g></g></svg>