<svg xmlns="http://www.w3.org/2000/svg" width="367.716" height="240.017"><defs><filter id="g" x="210.378" y="71.942" width="85.218" height="93.835" filterUnits="userSpaceOnUse"><feOffset/><feGaussianBlur stdDeviation="10" result="blur-7"/><feFlood flood-color="#1558c4"/><feComposite operator="in" in2="blur-7"/><feComposite in="SourceGraphic"/></filter><filter id="a" x="1.942" y="71.676" width="91.708" height="93.987" filterUnits="userSpaceOnUse"><feOffset/><feGaussianBlur stdDeviation="10" result="blur"/><feFlood flood-color="#1558c4"/><feComposite operator="in" in2="blur"/><feComposite in="SourceGraphic"/></filter><filter id="c" x="77.269" y="73.155" width="86.06" height="92.28" filterUnits="userSpaceOnUse"><feOffset/><feGaussianBlur stdDeviation="10" result="blur-3"/><feFlood flood-color="#1558c4"/><feComposite operator="in" in2="blur-3"/><feComposite in="SourceGraphic"/></filter><filter id="d" x="110.292" y="73.876" width="93.69" height="91.635" filterUnits="userSpaceOnUse"><feOffset/><feGaussianBlur stdDeviation="10" result="blur-4"/><feFlood flood-color="#1558c4"/><feComposite operator="in" in2="blur-4"/><feComposite in="SourceGraphic"/></filter><filter id="e" x="143.477" y="82.183" width="81.918" height="82.455" filterUnits="userSpaceOnUse"><feOffset/><feGaussianBlur stdDeviation="10" result="blur-5"/><feFlood flood-color="#1558c4"/><feComposite operator="in" in2="blur-5"/><feComposite in="SourceGraphic"/></filter><filter id="f" x="167.906" y="71.714" width="96.637" height="95.124" filterUnits="userSpaceOnUse"><feOffset/><feGaussianBlur stdDeviation="10" result="blur-6"/><feFlood flood-color="#1558c4"/><feComposite operator="in" in2="blur-6"/><feComposite in="SourceGraphic"/></filter><filter id="b" x="40.411" y="78.39" width="89.4" height="88.79" filterUnits="userSpaceOnUse"><feOffset/><feGaussianBlur stdDeviation="10" result="blur-2"/><feFlood flood-color="#1558c4"/><feComposite operator="in" in2="blur-2"/><feComposite in="SourceGraphic"/></filter><filter id="h" x="241.505" y="70.538" width="98.049" height="96.035" filterUnits="userSpaceOnUse"><feOffset/><feGaussianBlur stdDeviation="10" result="blur-8"/><feFlood flood-color="#1558c4"/><feComposite operator="in" in2="blur-8"/><feComposite in="SourceGraphic"/></filter><filter id="i" x="284.228" y="71.259" width="83.488" height="95.2" filterUnits="userSpaceOnUse"><feOffset/><feGaussianBlur stdDeviation="10" result="blur-9"/><feFlood flood-color="#1558c4"/><feComposite operator="in" in2="blur-9"/><feComposite in="SourceGraphic"/></filter><filter id="j" x="0" y=".316" width="120.841" height="118.989" filterUnits="userSpaceOnUse"><feOffset/><feGaussianBlur stdDeviation="10" result="blur-10"/><feFlood flood-color="#1558c4"/><feComposite operator="in" in2="blur-10"/><feComposite in="SourceGraphic"/></filter><filter id="k" x="65.897" y="0" width="119.151" height="120.316" filterUnits="userSpaceOnUse"><feOffset/><feGaussianBlur stdDeviation="10" result="blur-11"/><feFlood flood-color="#1558c4"/><feComposite operator="in" in2="blur-11"/><feComposite in="SourceGraphic"/></filter><filter id="l" x="128.439" y="24.977" width="92.52" height="90.762" filterUnits="userSpaceOnUse"><feOffset/><feGaussianBlur stdDeviation="10" result="blur-12"/><feFlood flood-color="#1558c4"/><feComposite operator="in" in2="blur-12"/><feComposite in="SourceGraphic"/></filter></defs><g data-name="グループ 8503"><g data-name="グループ 7898"><g filter="url(#a)"><path data-name="パス 14223" d="m42.829 102.704 6.6-1.024c.048.759.039 2.162.146 3.111.026.569.155 1.707.292 3.186 2.971-.455 5.6-.91 6.839-1.138 1.277-.227 3.023-.607 4.116-.91l.58 5.993c-1 .076-2.771.342-4 .493-1.466.228-4.092.645-6.988 1.1.159 1.669.349 3.414.535 5.2 3.207-.531 6.105-1.024 7.732-1.328 1.511-.3 3.144-.683 4.274-.986l.691 6.031c-1.149.075-2.927.379-4.394.606-1.7.266-4.556.721-7.721 1.214.29 2.769.541 5.121.695 6.411.167 1.138.425 2.541.652 3.869l-6.725 1.138c-.061-1.48-.017-2.845-.146-3.983-.087-1.176-.335-3.566-.616-6.448-3.67.607-6.994 1.176-8.582 1.479-1.74.3-3.21.569-4.105.8l-.764-6.076c1.069-.038 2.993-.265 4.3-.455 1.7-.265 4.978-.758 8.607-1.327-.19-1.745-.376-3.528-.535-5.2-3.2.493-5.985.948-7.029 1.138a60.93 60.93 0 0 0-3.808.872l-.671-6.258c1.339-.076 2.564-.152 3.758-.3 1.232-.152 4.007-.531 7.172-1.024-.144-1.4-.276-2.5-.334-3.148a35.949 35.949 0 0 0-.572-3.034" fill="#fff"/></g><g filter="url(#b)"><path data-name="パス 14224" d="M82.454 111.497c.187.91.392 2.048.625 3.3 4.569-.873 9.37-1.783 11-2.125a11.229 11.229 0 0 0 2.23-.682l3.5 2.617a74.6 74.6 0 0 1-9.185 12.29l-4.845-2.5a36.792 36.792 0 0 0 5.65-6.259c-.889.152-3.912.758-7.4 1.479.964 5.083 1.975 10.507 2.436 12.632.134.645.571 2.617.806 3.414l-6.377 1.517a24.723 24.723 0 0 0-.443-3.641c-.417-2.2-1.344-7.7-2.239-12.707-2.988.645-5.628 1.214-6.87 1.48l-.93-5.462c1.266-.114 2.381-.228 3.733-.455.5-.076 1.66-.265 3.168-.531-.2-1.214-.406-2.314-.6-3.11a14.928 14.928 0 0 0-.925-2.921l6.294-1.441c.063 1.024.233 2.124.375 3.11" fill="#fff"/></g><g filter="url(#c)"><path data-name="パス 14225" d="m115.258 106.497-1.128 12.9a56.445 56.445 0 0 0-.157 3.528h-6.7c.1-.759.4-2.39.5-3.566l1.125-12.858a29.011 29.011 0 0 0 .11-3h6.662c-.159.948-.3 1.631-.415 3m17.563.758-.723 8.269c-.667 7.624-2.788 11.417-5.948 14.452a26.589 26.589 0 0 1-9.807 5.462l-4.39-5.083a19.286 19.286 0 0 0 9.62-4.629c2.787-2.693 3.556-5.386 4.014-10.621l.687-7.852a29.718 29.718 0 0 0 .092-4.1h6.968a58.867 58.867 0 0 0-.511 4.1" fill="#fff"/></g><g filter="url(#d)"><path data-name="パス 14226" d="m145.281 135.512-4.987-4.362a16.462 16.462 0 0 0 4.543-2.314c4.505-3.186 5.739-6.41 6.28-12.593a21.307 21.307 0 0 0 .027-3.793h6.7c-.78 8.914-1.306 17.107-12.565 23.062m26.791-25.945c-2.221 3.186-6.253 7.928-9.9 10.393l-4.428-3.793a23.5 23.5 0 0 0 6.83-6.258h-18.81a46.567 46.567 0 0 0-4.862.3l.555-6.335a32.526 32.526 0 0 0 4.8.417h19.761a26.975 26.975 0 0 0 4.6-.38l3.359 3.376c-.506.569-1.478 1.669-1.912 2.276" fill="#fff"/></g><g filter="url(#e)"><path data-name="パス 14227" d="M185.043 114.809a60.452 60.452 0 0 0 6.89-.708l-.335 3.54c-2.387.3-5.529.531-8.229.632a21.242 21.242 0 0 1-1.147 1.8 12.759 12.759 0 0 1 2.535-.253 3.328 3.328 0 0 1 3.221 1.77c1.058-.48 1.924-.809 2.848-1.214a83.144 83.144 0 0 0 3.38-1.492l1.188 3.54c-.911.253-2.561.835-3.558 1.214s-2.284.86-3.68 1.441c-.1 1.391-.194 3.085-.267 4.223h-3.656c.108-.658.241-1.593.351-2.554-1.681.936-2.44 1.77-2.528 2.782-.093 1.062.656 1.492 3.042 1.492a39.447 39.447 0 0 0 7.455-.784l-.472 3.945a63.269 63.269 0 0 1-7.376.455c-4.163 0-7.063-1.087-6.769-4.451.29-3.312 3.494-5.412 6.44-6.878a1.722 1.722 0 0 0-1.349-.531 6.594 6.594 0 0 0-3.879 1.694 31.77 31.77 0 0 0-2.611 2.858l-3.06-2.453a27.262 27.262 0 0 0 6-6.524c-1.04 0-2.889-.05-4.223-.177l.309-3.54a33.035 33.035 0 0 0 4.543.3h.99a16.639 16.639 0 0 0 .672-2.756l4.033.328c-.15.557-.4 1.341-.76 2.3" fill="#fff"/></g><g filter="url(#f)"><path data-name="パス 14228" d="M208.094 123.792c.572 0 .759-.835 1.212-4.7a12.618 12.618 0 0 0 4.678 2.238c-1.034 5.727-2.539 7.7-5.776 7.7h-2.7c-4 0-4.842-1.669-4.367-7.093l.484-5.538-3.289.607-.428-5.121 4.175-.721.827-9.445h5.483l-.74 8.458 6.846-1.214.438 5.007-7.738 1.4-.574 6.562c-.146 1.669-.125 1.859.409 1.859Zm26.448-20.711s-.214 2.011-.315 2.731c-2.017 18.7-2.947 25.414-4.583 27.576a6.106 6.106 0 0 1-4 2.655 28.823 28.823 0 0 1-5.617.228 13.545 13.545 0 0 0-1.254-5.69c1.853.152 3.49.152 4.4.152a1.713 1.713 0 0 0 1.554-.8c1.1-1.252 2-7.207 3.53-21.621h-4.722c-1.335 12.214-3.176 22.379-12.891 28.524a13.722 13.722 0 0 0-3.492-4.476c8.592-5.083 9.742-13.428 10.823-24.048H212.8l.458-5.235Z" fill="#fff"/></g><g filter="url(#g)"><path data-name="パス 14229" d="M247.564 108.578c2.189-2.389 5.365-4.742 9.325-4.742 5.444 0 9.365 5.235 8.616 13.807-.949 10.849-7.966 16.2-18.607 18.131l-3.034-5.348c8.683-1.328 14.572-3.793 15.359-12.783.5-5.765-1.205-8.421-3.909-8.421-4.341 0-8.615 6.638-9.053 11.645a31.689 31.689 0 0 0-.09 3.641l-5.706.379a44.159 44.159 0 0 1 .073-6.486 94.435 94.435 0 0 1 2.048-12.1 43.543 43.543 0 0 0 .687-4.362l6.259.266a59.419 59.419 0 0 0-1.966 6.372" fill="#fff"/></g><g filter="url(#h)"><path data-name="パス 14230" d="M298.126 108.128a81.833 81.833 0 0 1-3.538 8.231h12.756l-1.752 20.028h-5.442l.166-1.9h-7.654l-.182 2.086h-5.178l.942-10.772a27.649 27.649 0 0 1-2.083 2.048 27.835 27.835 0 0 0-3.248-4.211 23.5 23.5 0 0 0 3.147-3.338c-1.373.455-2.787.948-4.2 1.4l-.783 8.952c-.219 2.5-.754 3.831-2.27 4.627-1.52.835-3.514.986-6.255.986a17.478 17.478 0 0 0-1.05-4.969c1.329.038 2.89.038 3.385.038.534 0 .741-.19.787-.721l.621-7.093-3.254 1.062-1.065-5.235c1.363-.342 3-.8 4.8-1.328l.474-5.424h-4.455l.445-5.083h4.454l.611-6.979h5.407l-.611 6.979h3.694l-.445 5.083h-3.694l-.324 3.717c1.137-.379 2.309-.72 3.447-1.1l.537 4.742a43.889 43.889 0 0 0 5.947-11.835h-5.14l.458-5.235h21.969l-.459 5.235Zm3.321 13.39h-7.654l-.683 7.814h7.654Z" fill="#fff"/></g><g filter="url(#i)"><path data-name="パス 14231" d="M333.736 108.845c-2.555 1.783-7.633 5.424-10.215 7.511-2.005 1.593-1.958 1.934-.273 3.565 2.324 2.163 9.317 7.966 12.809 11.569l-5.842 4.969a81.983 81.983 0 0 0-3.386-3.945c-1.9-2.2-6.976-6.866-10.182-9.824-3.593-3.338-3.164-5.614 1.161-8.914 3.261-2.466 8.525-6.487 11.289-8.914a31.364 31.364 0 0 0 3.666-3.6l4.954 4.741a100.74 100.74 0 0 0-3.98 2.845" fill="#fff"/></g><g filter="url(#j)"><path data-name="パス 14232" d="M70.768 50.107C74.87 59.59 82.2 68.32 90.826 73.057a36.4 36.4 0 0 0-6.414 6.828 45.471 45.471 0 0 1-9.563-8.472l-.632 7.207h-10.5l-.935 10.685h-7.9l.937-10.685H44.944l.581-6.639a60.944 60.944 0 0 1-10.571 8.094A32.692 32.692 0 0 0 30 73.82c9.34-4.869 18.1-13.973 23.823-23.709H34.541l.659-7.591h23.777l1.068-12.2h7.9l-1.065 12.2h23.962l-.664 7.587ZM56.487 70.971l1.206-13.783a83.526 83.526 0 0 1-11.132 13.783Zm17.956 0a62.414 62.414 0 0 1-8.836-13.91l-1.217 13.91Z" fill="#fff"/></g><g filter="url(#k)"><path data-name="パス 14233" d="M131.846 63.825a61.564 61.564 0 0 1-7.554 9.737 67.92 67.92 0 0 1 9.281 8.093l-6.5 5.69a59.586 59.586 0 0 0-8.644-8.156 79.743 79.743 0 0 1-17.479 11.127 38.621 38.621 0 0 0-5.049-5.88 62.661 62.661 0 0 0 16.831-9.547 154.91 154.91 0 0 0-10.051-6.512l5.8-4.932c3.139 1.707 6.618 3.857 10.023 6.133a46.808 46.808 0 0 0 6.277-8.156Zm13.436-9.041c-1.454 15.174-1.678 27.123 1.99 27.123.954-.063 1.494-3.351 2.069-8.472a26.706 26.706 0 0 0 4.459 4.679c-1.261 7.9-2.881 11.254-7.75 11.254-9.231 0-10.008-12.076-8.971-28.261H103.19l.459-5.248-.613.506a54.719 54.719 0 0 0-6.413-4.742c6.674-4.742 12.129-12.9 15.359-21.623l7.7 1.644c-.644 1.58-1.288 3.161-1.99 4.679h37.366l-.547 6.259h-40.154a51.682 51.682 0 0 1-1.9 2.972h36.038l-.531 6.07H111.48l.464-5.311a57.114 57.114 0 0 1-7.127 8.472Z" fill="#fff"/></g><g filter="url(#l)"><path data-name="パス 14234" d="M162.382 57.026c3.606-.3 9.4-.759 16.416-1.366 3.834-.3 8.35-.569 11.14-.683l-.48 5.917a49 49 0 0 0-7.35.455c-4.192.91-8.121 5.348-8.516 9.862-.488 5.576 4.574 7.776 11.128 8.155l-2.728 6.373c-8.435-.645-15.306-5.235-14.6-13.314a17.078 17.078 0 0 1 5.8-11.076c-3.3.342-10.073 1.1-14.731 2.124l-.023-6.258c1.526-.038 3.209-.114 3.938-.19m23.916 12.138-3.518 1.479a27.355 27.355 0 0 0-2.439-5.2l3.432-1.366a44.85 44.85 0 0 1 2.526 5.083m4.665-1.973-3.49 1.593a28.346 28.346 0 0 0-2.642-5.045l3.4-1.48a53.166 53.166 0 0 1 2.729 4.931" fill="#fff"/></g></g><path data-name="パス 15462" d="M215.553 37.473c-6.058 1.07-14.278 12.817-12.813 21.108a4.421 4.421 0 0 0 5.495 3.845c5.177-.915 9.607-7.84 11.802-11.612.322-.545.388-.766.334-1.074a.425.425 0 0 0-.524-.396c-.373.065-.617.458-.9 1.031-1.558 3.032-5.76 9.671-10.903 10.58-1.861.329-3.342-.945-3.707-3.009-1.285-7.276 6.547-18.255 11.488-19.128a1.061 1.061 0 0 1 1.385.942c.377 2.131-1.232 5.103-2.724 5.715-.906.404-.924.895-.858 1.269s.35.601.96.493c1.455-.257 4.852-4.73 4.302-7.843-.29-1.656-1.781-2.196-3.337-1.92Zm9.085 9.946c-.135.024-.882-.646-1.525-.533-2.769.524-5.866 4.527-5.256 7.978a1.337 1.337 0 0 0 1.249 1.14c.778-.137 1.707-.999 3.052-2.672.625-.808 1.053-1.547 1.256-1.583.068-.012.086.087.122.293.054.304.07.79.135 1.162a1.531 1.531 0 0 0 1.872 1.31c1.692-.299 3.874-3.371 5.156-5.583.289-.54.388-.767.333-1.075a.434.434 0 0 0-.557-.39c-.34.06-.584.453-.866 1.026-.965 1.845-2.614 4.37-3.831 4.585-.305.054-.506-.295-.584-.735a4.373 4.373 0 0 1 .268-2.036c.471-1.479 1.148-2.785 1.07-3.225-.071-.406-.464-.65-1.004-.555-.576.105-.62.846-.89.893Zm-1.772.837a.37.37 0 0 1 .444.34c.066.372.623.169.653.338.102.576-3.622 5.176-4.197 5.278a.4.4 0 0 1-.477-.334c-.294-1.658 2.122-5.365 3.577-5.622Zm7.831-2.884c-.474.084-.638.531-.732 1.386a29.591 29.591 0 0 1-.645 3.466 17.287 17.287 0 0 0-.505 3.264.948.948 0 0 0 .916.64c.304-.053.567-2.124 1.13-3.479.785-1.883 2.635-4.444 3.11-4.528.202-.035.32.045.345.183a6.99 6.99 0 0 0-.075.956.675.675 0 0 0 .757.53c.846-.15 1.008-1.194.823-2.24a1.162 1.162 0 0 0-1.427-.966c-.846.15-1.695 1.067-2.713 2.612-.14.2-.224.319-.358.343-.068.012-.074-.022-.086-.087-.054-.304.265-1.265.193-1.674a.615.615 0 0 0-.733-.406Zm6.87-.62c-.406.071-.623.424-.528.965.09.508.13.536.195.908.245 1.388-.262 3.85-.13 4.594a1.4 1.4 0 0 0 1.53 1.161c2.336-.412 4.897-7.25 4.359-10.296-.359-2.03-1.116-1.967-1.521-1.895a.785.785 0 0 0-.54.898c.072.405.618.728.749 1.472.58 3.283-1.995 8.065-2.841 8.215-.17.03-.227-.1-.245-.201a42.144 42.144 0 0 0 .09-4.622 1.306 1.306 0 0 0-1.118-1.2Zm8.577 5.29a.994.994 0 0 1-1.195-.836c-.06-.339-.063-.548.523-.79 2.015-.845 4.612-3.328 4.307-5.054a1.414 1.414 0 0 0-1.597-.937c-1.725.305-3.765 1.992-4.586 5.451a1.033 1.033 0 0 0-.431.915c.06.339.176.423.236.76a2.428 2.428 0 0 0 2.615 1.739 6.24 6.24 0 0 0 3.423-2.35c.408-.456.57-.728.515-1.034a.451.451 0 0 0-.557-.39c-.373.066-.55.446-1.02.948a4.395 4.395 0 0 1-2.234 1.577Zm1.865-6.227c.271-.048.418-.004.466.267.126.71-2.213 3.078-3.392 3.322.365-.904 1.877-3.405 2.926-3.59Zm12.513-3.641c-2.364.417-4.477 3.896-3.92 7.043a1.978 1.978 0 0 0 2.277 1.833c2.364-.418 3.453-3.367 3.806-5.523a7.981 7.981 0 0 0 2.842-1.095c1.028-.705 1.395-1.189 1.336-1.527a.588.588 0 0 0-.71-.468c-.34.06-1.491 1.24-2.88 1.486-.54.096-.678-.682-.726-.953-.089-.508-.772-1.018-2.024-.797Zm.066 1.558a.091.091 0 0 1 .116.081 6.69 6.69 0 0 0 .033.762c.078.44.615.52.633.62.18 1.016-1.009 4.367-2.328 4.6a.911.911 0 0 1-1.02-.835c-.387-2.192 1.111-4.97 2.566-5.228Zm11.399 3.29c-.27.049-.488-.192-.578-.7a7.849 7.849 0 0 1 .07-2.175 7.686 7.686 0 0 1 .713-2.29 2.135 2.135 0 0 0 .268-.85c-.054-.304-.248-.62-.824-.518-.203.036-.494.367-.726.827-.366.692-.782 2.092-1.14 3.028-.74 1.736-2.683 3.79-3.29 3.896-.34.06-.442-.13-.49-.402-.174-.985 1.5-3.755 1.147-5.751-.101-.576-.253-1.037-.895-.924s-.745.725-.607 1.503c.34 1.929-1.405 4.122-1.106 5.813a1.346 1.346 0 0 0 1.666 1.137c1.422-.25 2.952-2.266 3.953-3.7.042.237.028.554.094.926.143.813.547 1.719 1.732 1.51 1.49-.263 3.324-3.31 4.61-5.526.289-.54.388-.766.334-1.074a.434.434 0 0 0-.558-.39c-.339.06-.583.452-.866 1.025-.962 1.848-2.694 4.492-3.506 4.636Zm6.866-10.32a14.43 14.43 0 0 1 1.578-3.908c.554-.621.573-.904.502-1.308s-.379-.56-.818-.483-.753.482-1.185 1.396a41.52 41.52 0 0 0-1.713 4.525 6.038 6.038 0 0 1-1.026.32c-.405.072-.549-.147-1.057-.057a.813.813 0 0 0-.736.968c.126.71 1.682.435 2.257.334-1.056 3.502-2.03 7.478-1.684 9.439.15.846.578 1.293 1.085 1.204a.717.717 0 0 0 .59-.802c-.053-.305-.286-.438-.364-.879-.31-1.76.686-5.6 1.93-9.204 1.251-.22 3.18-.562 3.018-1.476-.083-.473-.26-.686-.802-.59-.5.086-.931.407-1.575.52Zm-31.02 34.982a3.12 3.12 0 0 1 .762-.236c1.015-.179 1.684.052 1.755.458.06.339-.002.56.063.932s.301.714.944.6a1.19 1.19 0 0 0 .828-1.437c-.28-1.59-2.104-2.036-3.695-1.755a5.127 5.127 0 0 0-.698.193c-.244-2.365-.41-4.883-.624-6.695a14.274 14.274 0 0 1 .094-3.018.511.511 0 0 0-.67-.44 2.3 2.3 0 0 0-1.157.763 16.404 16.404 0 0 0-.89 1.866c-.468 1.099-2.409 4.928-3.255 5.077-.203.036-.294-.087-.354-.426a18.084 18.084 0 0 1 .82-4.437c.327-.721.498-1.135.45-1.406-.054-.305-.44-.516-.948-.426s-.84.776-1.122 1.943a24.248 24.248 0 0 0-.564 5.3c.161.914.78 1.257 1.356 1.156 1.726-.305 3.771-4.33 4.425-5.772a.184.184 0 0 1 .117-.123c.135-.024.213.417.243.585s.309 3.924.498 6.577a15.913 15.913 0 0 0-4.587 4.65c-1.993 3.142-2.49 6.026-2.222 7.546a2.486 2.486 0 0 0 2.832 2.043c4.26-.753 5.808-8.39 5.6-13.518Zm-1.518.687c.329 3.641-.984 11.027-4.232 11.6a1.057 1.057 0 0 1-1.24-.897 9.861 9.861 0 0 1 1.638-6.327 16.897 16.897 0 0 1 3.834-4.376Zm6.475-13.322c-2.364.417-4.477 3.897-3.92 7.044a1.978 1.978 0 0 0 2.277 1.832c2.364-.418 3.453-3.367 3.806-5.523a7.981 7.981 0 0 0 2.842-1.095c1.028-.704 1.395-1.189 1.336-1.527a.588.588 0 0 0-.71-.467c-.34.06-1.491 1.24-2.88 1.485-.54.096-.678-.682-.726-.953-.086-.511-.772-1.018-2.025-.796Zm.066 1.558a.091.091 0 0 1 .116.081 6.69 6.69 0 0 0 .033.762c.078.44.615.52.633.621.18 1.013-1.006 4.372-2.326 4.605a.911.911 0 0 1-1.02-.836c-.389-2.198 1.11-4.976 2.564-5.233Zm11.399 3.29c-.27.049-.488-.192-.578-.7a7.849 7.849 0 0 1 .07-2.175 7.686 7.686 0 0 1 .713-2.29 2.135 2.135 0 0 0 .268-.85c-.054-.304-.248-.619-.824-.517-.203.035-.494.366-.726.826-.366.692-.782 2.092-1.14 3.028-.74 1.736-2.683 3.79-3.29 3.897-.34.06-.442-.132-.49-.403-.174-.985 1.5-3.755 1.147-5.751-.101-.575-.253-1.037-.895-.924s-.745.725-.607 1.503c.34 1.929-1.405 4.122-1.106 5.814a1.346 1.346 0 0 0 1.666 1.136c1.422-.25 2.952-2.266 3.953-3.7.042.237.028.554.094.927.143.812.547 1.718 1.732 1.509 1.49-.263 3.324-3.31 4.61-5.526.289-.54.388-.766.334-1.074a.434.434 0 0 0-.558-.39c-.339.06-.583.452-.866 1.025-.962 1.848-2.694 4.492-3.506 4.636Zm4.597-7.756c-.474.084-.638.531-.732 1.386a29.59 29.59 0 0 1-.644 3.466 17.287 17.287 0 0 0-.502 3.262.948.948 0 0 0 .916.641c.304-.054.567-2.124 1.13-3.48.785-1.883 2.635-4.443 3.11-4.527.202-.036.32.045.345.183a6.99 6.99 0 0 0-.075.955.675.675 0 0 0 .757.53c.846-.15 1.008-1.194.823-2.239a1.162 1.162 0 0 0-1.427-.967c-.846.15-1.695 1.068-2.713 2.613-.14.2-.224.318-.358.342-.068.012-.074-.021-.086-.086-.054-.305.265-1.266.193-1.675a.615.615 0 0 0-.737-.404Zm10.4-.196c.07.405.307.364 1.12.22-.754 3.24-1.33 8.47-.852 11.178.167.947.667 1.208 1.005 1.148a.736.736 0 0 0 .57-.728c-.108-.609-.243-.585-.345-1.158-.417-2.364.236-7.16 1.155-10.848 1.269-.326 2.902-.756 4.39-1.02a.491.491 0 0 0 .39-.557.573.573 0 0 0-.67-.44l-3.755.664a53.787 53.787 0 0 1 1.934-6.24c1.146-2.993 2.51-4.352 3.255-4.483.373-.066.47.091.524.396.048.27.316.398.62.344.406-.071.778-.73.658-1.407-.101-.575-1.037-.934-2.018-.76-1.32.233-3.447 2.806-4.55 5.864a50.72 50.72 0 0 0-1.946 6.555l-.846.149a.9.9 0 0 0-.639 1.122Zm12.447 3.105c-.27.048-.488-.193-.578-.7a7.849 7.849 0 0 1 .07-2.176 7.686 7.686 0 0 1 .713-2.29 2.135 2.135 0 0 0 .268-.85c-.054-.304-.248-.619-.824-.517-.202.035-.493.366-.726.826-.366.692-.782 2.092-1.14 3.028-.74 1.736-2.683 3.79-3.29 3.897-.34.06-.442-.132-.49-.403-.174-.985 1.5-3.755 1.147-5.751-.101-.575-.253-1.037-.895-.924s-.744.725-.607 1.503c.34 1.929-1.405 4.122-1.106 5.814a1.346 1.346 0 0 0 1.672 1.135c1.422-.25 2.952-2.266 3.953-3.7.042.237.028.554.094.927.143.812.548 1.718 1.732 1.509 1.49-.263 3.324-3.31 4.61-5.526.289-.54.388-.766.334-1.074a.434.434 0 0 0-.558-.39c-.339.06-.583.452-.866 1.025-.968 1.85-2.7 4.493-3.512 4.637Zm3.148-9.839a.86.86 0 0 0-.73 1.002c.083.473.53.638 1.546.459a5.075 5.075 0 0 0 .705-.16c-1.057 3.503-2.031 7.479-1.685 9.44.15.846.578 1.293 1.085 1.204a.717.717 0 0 0 .591-.802c-.054-.305-.287-.438-.364-.879-.311-1.76.827-6.183 2.074-9.788a8.56 8.56 0 0 1 2.506-1.068c.508-.09.96-.1 1.008.171.03.17-.014.316.022.52s.121.292.426.238c.44-.078.923-.896.815-1.505-.119-.677-.8-.976-1.985-.767a7.981 7.981 0 0 0-2.1.755c.809-2.132.895-2.635 1.386-3.21.554-.622.573-.904.502-1.308s-.379-.561-.818-.484-.753.483-1.185 1.396a41.52 41.52 0 0 0-1.713 4.525 6.038 6.038 0 0 1-1.025.32c-.409.07-.553-.149-1.06-.06Zm10.828 7.37c-.27.048-.488-.193-.578-.7a7.849 7.849 0 0 1 .07-2.176 7.686 7.686 0 0 1 .713-2.29 2.135 2.135 0 0 0 .268-.85c-.053-.304-.248-.619-.823-.517-.203.036-.494.366-.727.826-.366.692-.782 2.092-1.14 3.028-.74 1.736-2.683 3.79-3.29 3.897-.34.06-.442-.132-.49-.402-.174-.985 1.5-3.755 1.148-5.752-.102-.575-.254-1.037-.896-.924s-.744.725-.607 1.503c.34 1.929-1.405 4.122-1.106 5.814a1.346 1.346 0 0 0 1.667 1.136c1.42-.25 2.951-2.266 3.952-3.7.042.237.028.554.094.927.143.812.548 1.718 1.732 1.509 1.49-.263 3.324-3.31 4.61-5.526.29-.54.388-.766.334-1.074a.434.434 0 0 0-.558-.39c-.338.06-.583.452-.866 1.025-.962 1.848-2.693 4.492-3.506 4.636Zm4.597-7.757c-.473.084-.638.532-.732 1.386a29.59 29.59 0 0 1-.644 3.466 17.288 17.288 0 0 0-.505 3.264.948.948 0 0 0 .915.641c.305-.054.568-2.125 1.13-3.48.785-1.883 2.636-4.444 3.11-4.527.202-.036.321.044.346.182a6.99 6.99 0 0 0-.075.956.675.675 0 0 0 .757.53c.846-.15 1.008-1.194.823-2.24a1.162 1.162 0 0 0-1.427-.966c-.846.15-1.696 1.068-2.714 2.613-.14.199-.223.318-.358.342-.068.012-.074-.021-.085-.086-.054-.305.265-1.266.192-1.675a.615.615 0 0 0-.732-.406Zm7.966 5.99a.994.994 0 0 1-1.195-.835c-.06-.34-.062-.548.523-.79 2.015-.845 4.612-3.328 4.307-5.054a1.414 1.414 0 0 0-1.596-.937c-1.726.305-3.766 1.992-4.586 5.451a1.033 1.033 0 0 0-.432.915c.06.338.176.422.236.76a2.268 2.268 0 0 0 2.413 1.809c3.757-.664 6-4.166 7.283-6.382.288-.54.388-.766.333-1.074a.434.434 0 0 0-.557-.39c-.34.06-.584.452-.9 1.03-.923 1.84-2.848 4.972-5.825 5.498Zm1.866-6.226c.27-.048.418-.004.465.267.126.71-2.213 3.078-3.392 3.321.37-.903 1.882-3.404 2.93-3.589Z" fill="#efd774"/><g data-name="グループ 8488"><path data-name="パス 14222" d="M24.579 150.016h326.487l-8.513 57H16.066Z" fill="#011b39"/><path data-name="パス 15472" d="M69.572 183.169h4.575v1.358h-3.1v7.62h-1.48Zm9.382 10.93q1.125-.042 2.615-.1t3.168-.14q1.677-.079 3.328-.163l-.033 1.363-3.207.227q-1.616.114-3.09.206t-2.641.166Zm3.618-6.9 1.705.356q-.238.943-.532 1.934t-.613 1.955q-.319.963-.639 1.831t-.618 1.567l-1.424-.373q.3-.714.6-1.607t.59-1.868q.289-.975.529-1.948t.401-1.844Zm2.581 3.845 1.4-.6q.606.793 1.217 1.72t1.106 1.827a11.128 11.128 0 0 1 .746 1.627l-1.537.707a11.248 11.248 0 0 0-.695-1.624q-.466-.915-1.052-1.876t-1.186-1.779Zm-6.8-6h10.985v1.438H78.356Zm-.735 0h1.508v3.587q0 .826-.058 1.819t-.217 2.038a13.474 13.474 0 0 1-.465 2.02 7.547 7.547 0 0 1-.805 1.767 3.882 3.882 0 0 0-.37-.3q-.234-.169-.487-.323a2.911 2.911 0 0 0-.431-.225 6.716 6.716 0 0 0 .723-1.606 11.886 11.886 0 0 0 .4-1.788q.131-.915.168-1.788t.037-1.62Zm4.992-1.828h1.56v2.526h-1.56Zm9.578 5.024h12.378v1.4H92.192Zm2.315-3.15h9.148v1.372h-9.148Zm.117 9.16h7.66v1.39h-7.66Zm3.291-11.039h1.588v5.872h-1.588Zm-4.082 7.541h9.3v5.563h-1.6v-4.183h-6.163v4.22H93.83Zm.737-7.483 1.5.37a13.274 13.274 0 0 1-.7 1.687 15.474 15.474 0 0 1-.88 1.545 10.653 10.653 0 0 1-.952 1.262 3.575 3.575 0 0 0-.4-.274q-.253-.152-.516-.3t-.454-.232a7.779 7.779 0 0 0 1.4-1.815 12.086 12.086 0 0 0 1.002-2.243Zm15.84 5.418v5.107h-1.44v-3.715h-1.632v-1.391Zm0 4.508a2.579 2.579 0 0 0 1.221 1.057 5.351 5.351 0 0 0 1.908.389q.616.023 1.489.03t1.832 0q.959-.012 1.875-.047t1.621-.091a3.749 3.749 0 0 0-.18.429q-.1.265-.173.541t-.119.5q-.631.033-1.462.051t-1.721.015q-.889.007-1.718 0t-1.454-.037a6.806 6.806 0 0 1-2.2-.415 3.647 3.647 0 0 1-1.549-1.176q-.429.424-.891.846t-.989.879l-.73-1.489q.452-.308.961-.692t.97-.79Zm-3-8.783 1.143-.843q.415.313.849.709t.8.793a5.339 5.339 0 0 1 .586.742l-1.237.946a4.894 4.894 0 0 0-.543-.763q-.352-.418-.772-.833t-.824-.751Zm7.331.61h1.457v9.279h-1.457Zm-1.627 4.932v.669h4.763v-.669Zm0-1.539v.654h4.763v-.655Zm-1.288-.941h7.4v4.095h-7.4Zm-.69-3.809h8.8v1.9h-1.4v-.814h-6.077v.814h-1.325Zm.369 2.147h8v1.057h-8Zm-.522 6.35h9.128v1.1h-9.128Zm14.075-8h8.723v1.433h-8.723Zm0 3.238h8.737v1.4h-8.737Zm-.042 3.313h8.826v1.419h-8.826Zm-.82-6.551h1.485v5.049q0 .822-.072 1.779a15.182 15.182 0 0 1-.273 1.928 9.169 9.169 0 0 1-.593 1.858 5.776 5.776 0 0 1-1.036 1.587 2.354 2.354 0 0 0-.333-.342q-.22-.192-.45-.368a3.4 3.4 0 0 0-.4-.269 5.28 5.28 0 0 0 .914-1.407 7.6 7.6 0 0 0 .5-1.582 11.8 11.8 0 0 0 .21-1.636q.047-.817.047-1.559Zm9.042 0h1.494v10.3a2.313 2.313 0 0 1-.162.965 1.089 1.089 0 0 1-.563.524 3.224 3.224 0 0 1-1.058.222q-.651.045-1.622.031a3.936 3.936 0 0 0-.192-.721 6.008 6.008 0 0 0-.3-.721q.429.023.848.028t.741 0h.452a.433.433 0 0 0 .28-.077.349.349 0 0 0 .084-.264Zm-4.7.567h1.518v11.4h-1.518Zm9.746 2.8h12.569v1.325h-12.57Zm1.218-2.735h8.04v1.307h-8.04Zm2.414 7.562h6.348v1.152h-6.348Zm0 2.239h6.348v1.269h-6.348Zm.971-11.385h1.483v5.059h-1.485Zm6.151.429 1.288.674a19.782 19.782 0 0 1-3.2 3.443 25.715 25.715 0 0 1-3.956 2.76 30.3 30.3 0 0 1-4.371 2.053 3.1 3.1 0 0 0-.251-.4q-.166-.232-.346-.466a4.543 4.543 0 0 0-.321-.379 26.46 26.46 0 0 0 4.354-1.873 22.672 22.672 0 0 0 3.824-2.594 17.192 17.192 0 0 0 2.979-3.219Zm-7.961 6.44h8.138v6.158h-1.565v-4.918h-5.075v4.974h-1.5Zm14.607-.933h7.586v1.223h-6.078v5.92h-1.5Zm7.1 0h1.522v5.7a1.7 1.7 0 0 1-.154.823 1.022 1.022 0 0 1-.561.428 3.572 3.572 0 0 1-1.012.166q-.61.026-1.464.026a3.446 3.446 0 0 0-.187-.61 5.489 5.489 0 0 0-.276-.6q.363.014.741.023t.677 0q.3-.007.4-.007a.4.4 0 0 0 .252-.065.264.264 0 0 0 .065-.2Zm-6.191 2h6.762v1.048h-6.762Zm-2.845-6.689h12.422v1.312h-12.417Zm3.6.8 1.686.445q-.486.644-1.029 1.283t-.978 1.084l-1.2-.431q.27-.336.552-.751t.538-.844q.258-.433.435-.793Zm4.142.962 1.213-.749q.588.4 1.245.894t1.243 1a9.963 9.963 0 0 1 .959.931l-1.307.861a9.149 9.149 0 0 0-.9-.943q-.56-.523-1.2-1.048t-1.248-.952Zm-7.238.934q.962 0 2.168-.016t2.569-.04l2.791-.047q1.428-.023 2.828-.056l-.075 1.222q-1.839.065-3.7.126t-3.547.105q-1.683.044-2.985.072Zm2.341 5.831h6.739v1.053h-6.739Zm2.581-9.777h1.546v1.912h-1.546Zm11.696 5.262h3.3v1.377h-3.3Zm2.726 0h1.457v.571q-.023 1.507-.067 2.463a13.306 13.306 0 0 1-.131 1.475 1.7 1.7 0 0 1-.245.724 1.148 1.148 0 0 1-.411.351 2.038 2.038 0 0 1-.528.154 5.247 5.247 0 0 1-.712.047q-.436 0-.94-.009a3.2 3.2 0 0 0-.126-.726 2.792 2.792 0 0 0-.281-.679q.405.037.759.049t.527.012a.768.768 0 0 0 .239-.032.414.414 0 0 0 .182-.129 1.2 1.2 0 0 0 .151-.535q.051-.415.081-1.257t.049-2.245Zm4.128-4.432.909-.908q.406.2.856.473t.853.546a5.249 5.249 0 0 1 .66.515l-.96 1.012a5.588 5.588 0 0 0-.629-.536q-.392-.294-.835-.583t-.852-.514Zm1.756 3.662 1.515.37a16.527 16.527 0 0 1-2.417 4.807 12.77 12.77 0 0 1-3.634 3.352 3.482 3.482 0 0 0-.3-.4q-.2-.232-.41-.464a4.508 4.508 0 0 0-.379-.377 10.611 10.611 0 0 0 3.47-2.967 13.544 13.544 0 0 0 2.158-4.316Zm-8.521-2.312h10.811v1.482h-10.809Zm-1 0h1.574v4.071q0 .775-.056 1.69a18.408 18.408 0 0 1-.207 1.87 11.566 11.566 0 0 1-.455 1.833 6.412 6.412 0 0 1-.779 1.583 2.629 2.629 0 0 0-.363-.358q-.241-.2-.487-.391a2.5 2.5 0 0 0-.424-.272 5.953 5.953 0 0 0 .808-1.886 12.539 12.539 0 0 0 .324-2.1q.072-1.064.072-1.974Zm5.725-2.163h1.574q-.023 1.781.109 3.458t.389 3.123a19.183 19.183 0 0 0 .614 2.538 6.524 6.524 0 0 0 .778 1.7 1.15 1.15 0 0 0 .878.612q.261 0 .4-.583a11.482 11.482 0 0 0 .191-1.923 4.1 4.1 0 0 0 .621.492 3.416 3.416 0 0 0 .663.351 9.483 9.483 0 0 1-.352 1.966 1.784 1.784 0 0 1-.624.962 1.8 1.8 0 0 1-1.022.266 2.042 2.042 0 0 1-1.345-.5 4.484 4.484 0 0 1-1.069-1.417 11 11 0 0 1-.8-2.134 23.709 23.709 0 0 1-.553-2.675q-.219-1.449-.326-3.031t-.121-3.2Zm13.77 1.029h7.645v1.081h-7.645Zm-.369 3.482h8.252v1.147h-8.252Zm-.015 5.261h8.3v1.189h-8.3Zm1.4-1.708h5.62v.95h-5.62Zm-.751-5.307h7.085v1.058h-7.085Zm1.258-2.771h1.345v5.036h-1.344Zm3.136 0h1.357v5.036h-1.357Zm-1.567 5.1h1.241v5.386h-1.241Zm2.724 1.167h1.367v5.45a1.863 1.863 0 0 1-.119.749.867.867 0 0 1-.456.417 2.5 2.5 0 0 1-.841.166q-.509.026-1.218.026a3.585 3.585 0 0 0-.133-.594 3.917 3.917 0 0 0-.222-.578q.438.014.846.021t.539 0a.327.327 0 0 0 .191-.06.231.231 0 0 0 .046-.164Zm-5.463 0h5.963v1.053h-4.7v5.763h-1.263Zm-4.969-1.894h3.814v1.147h-3.814Zm.074-3.914h3.688v1.147h-3.688Zm-.074 5.861h3.814v1.147h-3.814Zm-.616-3.945h4.831v1.2h-4.831Zm1.318 5.91h3.168v4.206h-3.168v-1.194h1.908v-1.814h-1.908Zm-.74 0h1.246v4.784h-1.246Zm21.752-5.068H208v8.861h-1.452Zm-3.623 5.337h8.895v1.305h-8.895Zm-.891 2.887h10.583v1.3h-10.583Zm2.018-8.028 1.377.107a8.8 8.8 0 0 1-.732 2.681 5.275 5.275 0 0 1-1.479 1.9 2.135 2.135 0 0 0-.309-.293q-.206-.166-.421-.328a4.19 4.19 0 0 0-.375-.255 3.823 3.823 0 0 0 1.343-1.58 7.229 7.229 0 0 0 .595-2.232Zm-.241 2.325.809-.879q.341.275.718.625t.716.69a6.1 6.1 0 0 1 .539.606l-.847 1a6.843 6.843 0 0 0-.522-.632q-.327-.357-.7-.73t-.714-.68Zm5.879-2.325 1.349.15a8.57 8.57 0 0 1-.8 2.569 5.423 5.423 0 0 1-1.493 1.841 2.684 2.684 0 0 0-.293-.295q-.19-.169-.4-.337a3.58 3.58 0 0 0-.356-.262 4.017 4.017 0 0 0 1.339-1.528 6.96 6.96 0 0 0 .653-2.138Zm-.415 2.312.861-.914q.415.326.893.727t.924.783a8.836 8.836 0 0 1 .726.685l-.894 1.035a9.026 9.026 0 0 0-.7-.718q-.434-.406-.91-.83t-.901-.769Zm-3.456-5.72h1.56v2.383h-1.56Zm-4.393 1.332h11.106v1.4h-11.106Zm-.792 0h1.466v3.85q0 .836-.051 1.847t-.191 2.073a15.232 15.232 0 0 1-.416 2.062 8.673 8.673 0 0 1-.719 1.821 2.759 2.759 0 0 0-.372-.3q-.236-.165-.485-.315a3.3 3.3 0 0 0-.424-.225 7.345 7.345 0 0 0 .653-1.645 13.258 13.258 0 0 0 .352-1.827q.114-.938.149-1.837t.035-1.664Zm18.926 11.783h-4.575v-1.361h3.1v-7.62h1.48Zm15.906-9.766q.607.056 1.207.089t1.23.033q1.274 0 2.541-.11a20.091 20.091 0 0 0 2.346-.334v1.555q-1.106.168-2.369.254t-2.523.1q-.616 0-1.211-.023t-1.211-.07Zm5.207-2.407q-.028.205-.049.434t-.035.453q-.014.233-.026.618t-.016.847v.944q0 .916.033 1.738t.075 1.54q.042.718.075 1.331t.033 1.126a3.187 3.187 0 0 1-.14.96 2.1 2.1 0 0 1-.449.787 2.033 2.033 0 0 1-.815.53 3.6 3.6 0 0 1-1.249.189 3.879 3.879 0 0 1-2.263-.572 1.871 1.871 0 0 1-.815-1.628 2.042 2.042 0 0 1 .369-1.2 2.428 2.428 0 0 1 1.051-.822 4.069 4.069 0 0 1 1.629-.3 6.859 6.859 0 0 1 1.756.21 6.982 6.982 0 0 1 1.454.556 8.184 8.184 0 0 1 1.19.752q.53.406.949.788l-.856 1.321a14.466 14.466 0 0 0-1.531-1.282 6.844 6.844 0 0 0-1.51-.833 4.328 4.328 0 0 0-1.579-.294 1.978 1.978 0 0 0-1.059.254.772.772 0 0 0-.407.682.723.723 0 0 0 .405.677 2.111 2.111 0 0 0 1.019.221 1.484 1.484 0 0 0 .749-.161.881.881 0 0 0 .389-.461 2.046 2.046 0 0 0 .114-.725q0-.364-.028-.97t-.065-1.343q-.037-.737-.065-1.528t-.028-1.533v-1.422q0-.647-.012-.972 0-.168-.023-.436t-.061-.474Zm-6.855.136q-.047.131-.112.36t-.115.454l-.077.351q-.07.316-.156.827t-.179 1.134q-.093.623-.173 1.269t-.126 1.232q-.047.586-.047 1.019 0 .287.018.6t.065.609q.1-.27.216-.547t.24-.549q.121-.272.223-.523l.777.623q-.187.551-.392 1.17t-.369 1.174q-.163.556-.243.929-.028.14-.051.332a2.051 2.051 0 0 0-.016.312q0 .107.009.262t.019.29l-1.415.103a14.362 14.362 0 0 1-.383-1.888 17.907 17.907 0 0 1-.165-2.574q0-.784.07-1.638t.17-1.659q.1-.805.2-1.472t.159-1.082q.037-.28.075-.622t.047-.646Zm20.1.946q.192.276.439.679t.487.819q.24.415.4.747l-1.133.5q-.2-.43-.4-.815t-.42-.751a7.822 7.822 0 0 0-.472-.712Zm1.858-.752q.205.266.46.663t.5.8q.247.406.406.723l-1.1.534q-.206-.425-.423-.8t-.443-.732q-.226-.357-.483-.688Zm-5.542-.382q-.061.421-.1.879t-.068.861q-.023.569-.054 1.4t-.056 1.756q-.026.923-.047 1.814t-.021 1.575a2.117 2.117 0 0 0 .278 1.149 1.5 1.5 0 0 0 .732.606 2.814 2.814 0 0 0 1.039.182 5.257 5.257 0 0 0 1.62-.236 5.188 5.188 0 0 0 1.32-.634 5.951 5.951 0 0 0 1.064-.917 9.113 9.113 0 0 0 .852-1.083l1.128 1.382a8.611 8.611 0 0 1-.889 1.053 7.471 7.471 0 0 1-1.281 1.036 6.876 6.876 0 0 1-1.7.784 7.129 7.129 0 0 1-2.14.3 5.063 5.063 0 0 1-1.932-.337 2.649 2.649 0 0 1-1.282-1.072 3.576 3.576 0 0 1-.455-1.91q0-.583.014-1.327t.037-1.547q.023-.8.04-1.57t.03-1.4q.014-.63.014-1.007 0-.477-.037-.926a5.824 5.824 0 0 0-.126-.833Zm18.792-.3q-.023.2-.047.446t-.037.53q-.009.257-.019.713t-.014 1.006V188.587q0 .615.033 1.349t.077 1.467q.044.733.077 1.361t.033 1.025a1.966 1.966 0 0 1-.285 1.037 2 2 0 0 1-.878.758 3.485 3.485 0 0 1-1.511.285 4.331 4.331 0 0 1-2.482-.591 1.917 1.917 0 0 1-.848-1.67 1.922 1.922 0 0 1 .406-1.217 2.662 2.662 0 0 1 1.17-.818 5 5 0 0 1 1.814-.3 8.789 8.789 0 0 1 2.131.247 9.718 9.718 0 0 1 1.818.639 11.236 11.236 0 0 1 1.463.821q.637.429 1.072.78l-.909 1.409a13.048 13.048 0 0 0-1.116-.925 9.673 9.673 0 0 0-1.356-.84 8.144 8.144 0 0 0-1.563-.607 6.52 6.52 0 0 0-1.742-.228 2.322 2.322 0 0 0-1.247.277.8.8 0 0 0-.433.672.752.752 0 0 0 .175.489 1.107 1.107 0 0 0 .528.33 2.905 2.905 0 0 0 .893.116 2.329 2.329 0 0 0 .683-.091.856.856 0 0 0 .463-.328 1.124 1.124 0 0 0 .168-.657q0-.34-.026-.937t-.051-1.3l-.051-1.381q-.025-.681-.026-1.172v-3.857q0-.187-.016-.467a2.73 2.73 0 0 0-.059-.458Zm-5.679 1.37q.364.056.829.112t.954.105q.49.049.933.07t.774.021q1.405 0 2.813-.093t2.888-.336l-.009 1.442q-.732.093-1.663.177t-1.961.135q-1.03.051-2.053.051-.452 0-1.1-.037t-1.283-.1q-.639-.061-1.1-.112Zm-.075 3.01q.35.056.812.11t.947.082q.485.028.921.049t.734.021q1.22 0 2.25-.051t1.956-.14q.926-.089 1.794-.205l-.009 1.48q-.719.089-1.4.149t-1.386.1q-.7.04-1.487.056t-1.732.016q-.424 0-1.035-.023t-1.237-.06q-.625-.042-1.106-.1Zm16.043-3.687q.276.033.6.049t.6.016q.219 0 .679-.009l1.038-.023q.578-.014 1.154-.033t1.038-.042l.7-.037q.4-.037.63-.07a2.62 2.62 0 0 0 .353-.07l.833 1.129-.46.294q-.236.149-.465.327-.276.2-.686.524t-.874.71l-.908.747-.8.654a4.248 4.248 0 0 1 .76-.156 7 7 0 0 1 .742-.039 4.8 4.8 0 0 1 2.115.451 3.739 3.739 0 0 1 1.475 1.226 3.029 3.029 0 0 1 .542 1.779 3.6 3.6 0 0 1-.569 1.993 3.832 3.832 0 0 1-1.68 1.392 6.592 6.592 0 0 1-2.751.509 5 5 0 0 1-1.723-.27 2.739 2.739 0 0 1-1.177-.771 1.738 1.738 0 0 1-.425-1.166 1.873 1.873 0 0 1 .3-1.019 2.209 2.209 0 0 1 .848-.769 2.637 2.637 0 0 1 1.262-.292 3.113 3.113 0 0 1 1.608.385 2.659 2.659 0 0 1 1 1.025 3.051 3.051 0 0 1 .373 1.391l-1.457.2a2.151 2.151 0 0 0-.437-1.3 1.323 1.323 0 0 0-1.084-.5 1.023 1.023 0 0 0-.682.221.657.657 0 0 0-.263.514.764.764 0 0 0 .43.677 2.184 2.184 0 0 0 1.12.254 5.969 5.969 0 0 0 2-.294 2.578 2.578 0 0 0 1.238-.855 2.176 2.176 0 0 0 .419-1.34 1.8 1.8 0 0 0-.389-1.145 2.567 2.567 0 0 0-1.063-.776 3.941 3.941 0 0 0-1.522-.28 5.4 5.4 0 0 0-1.509.2 5.261 5.261 0 0 0-1.282.56 7.579 7.579 0 0 0-1.171.892q-.571.525-1.163 1.173l-1.139-1.172q.391-.317.881-.72t1-.825q.506-.422.954-.8t.751-.63l.7-.571q.408-.333.844-.7l.827-.692q.392-.329.648-.557-.215 0-.58.021l-.8.033-.87.035q-.435.019-.8.04l-.587.035q-.266.014-.556.04t-.528.063Zm18.6 7.029-.346-4.969-.056-1.964h2.1l-.056 1.964-.346 4.969Zm.651 3.655a1.116 1.116 0 0 1-.816-.321 1.115 1.115 0 0 1-.325-.83 1.106 1.106 0 0 1 .33-.83 1.12 1.12 0 0 1 .812-.32 1.12 1.12 0 0 1 .812.32 1.106 1.106 0 0 1 .33.83 1.107 1.107 0 0 1-.33.83 1.12 1.12 0 0 1-.813.321Z" fill="#fff"/><g data-name="グループ 8462"><path data-name="パス 15470" d="M83.921 165.225q.411-.014.775-.035t.565-.035l1.042-.1q.635-.061 1.435-.133t1.712-.149l1.878-.161q.737-.061 1.451-.11t1.347-.086q.633-.037 1.114-.051l.009 1.607q-.383 0-.877.009t-.98.051a4.89 4.89 0 0 0-.859.135 3.614 3.614 0 0 0-1.219.61 4.617 4.617 0 0 0-.963.99 4.714 4.714 0 0 0-.627 1.205 3.838 3.838 0 0 0-.222 1.264 3.026 3.026 0 0 0 .252 1.28 2.711 2.711 0 0 0 .7.932 3.907 3.907 0 0 0 1.031.634 6.127 6.127 0 0 0 1.257.378 9.745 9.745 0 0 0 1.377.161l-.585 1.705a8.415 8.415 0 0 1-1.672-.262 7.12 7.12 0 0 1-1.543-.6 5.124 5.124 0 0 1-1.269-.943 4.172 4.172 0 0 1-.861-1.293 4.171 4.171 0 0 1-.315-1.652 5.186 5.186 0 0 1 .34-1.9 5.887 5.887 0 0 1 .855-1.52 4.905 4.905 0 0 1 1.036-1.009l-.993.109q-.582.063-1.256.14t-1.358.166q-.685.089-1.31.189t-1.1.2Zm9.321 2.215q.173.238.38.581t.408.693q.2.35.34.644l-.964.431q-.257-.56-.518-1.029a9.369 9.369 0 0 0-.588-.921Zm1.554-.626q.177.238.4.572t.431.679q.212.345.361.63l-.955.459q-.28-.551-.55-1a10.832 10.832 0 0 0-.611-.91Zm6.208-2.569q.332.042.71.068t.72.026h4.66q.341 0 .724-.023t.729-.07v1.625q-.35-.028-.726-.04t-.727-.015h-4.65q-.355 0-.743.012t-.7.04Zm-1.63 3.562q.3.033.645.056t.663.023h9.165q.224 0 .591-.019a6.258 6.258 0 0 0 .638-.061v1.635q-.252-.023-.6-.03t-.633-.007h-9.165q-.313 0-.665.009t-.642.037Zm7 .858a12.125 12.125 0 0 1-.224 2.441 7.549 7.549 0 0 1-.677 1.96 5.1 5.1 0 0 1-.672.969 7.618 7.618 0 0 1-.964.932 6.373 6.373 0 0 1-1.16.752l-1.471-1.068a5.843 5.843 0 0 0 1.455-.863 5.194 5.194 0 0 0 1.113-1.186 4.681 4.681 0 0 0 .7-1.8 13.016 13.016 0 0 0 .173-2.125Zm2.975-5.435a6.953 6.953 0 0 1 .387.6q.205.35.4.7t.331.62l-1.02.44q-.215-.429-.52-.985a10.7 10.7 0 0 0-.585-.957Zm1.62-.612q.187.261.4.614t.418.7q.2.343.324.595l-1.011.44q-.219-.448-.532-.992a9.9 9.9 0 0 0-.6-.936Zm12.9 1.432q.192.276.43.663t.466.781q.228.394.387.725l-1.1.477q-.2-.425-.39-.791t-.4-.718a7.058 7.058 0 0 0-.462-.693Zm1.9-.677a6.97 6.97 0 0 1 .453.642q.238.376.471.763t.4.7l-1.086.487q-.206-.425-.416-.782t-.427-.692q-.217-.336-.474-.667Zm-7.954.424q.336.182.766.45t.88.555q.45.287.85.546t.656.446l-.937 1.377q-.276-.2-.672-.467t-.833-.546q-.436-.28-.859-.539t-.754-.451Zm-2.448 9.958q.784-.14 1.594-.352a15.237 15.237 0 0 0 1.61-.52 12.737 12.737 0 0 0 1.543-.714 15.78 15.78 0 0 0 2.2-1.505 14.951 14.951 0 0 0 1.835-1.776 11.613 11.613 0 0 0 1.372-1.937l.965 1.691a14.763 14.763 0 0 1-2.381 2.74 18.027 18.027 0 0 1-3.137 2.287 14.2 14.2 0 0 1-1.556.747q-.845.35-1.662.607a12.455 12.455 0 0 1-1.446.377Zm.312-6.775q.341.177.78.439t.887.539q.448.278.845.53t.654.439l-.918 1.405q-.29-.205-.684-.467t-.833-.544q-.439-.282-.863-.534t-.771-.43Zm19.1 1.22q.653.378 1.414.868t1.531 1.018q.768.528 1.454 1.025t1.176.9l-1.19 1.41q-.466-.429-1.141-.973t-1.449-1.109q-.773-.567-1.527-1.09t-1.373-.915Zm6.535-2.43a3.887 3.887 0 0 0-.227.437q-.115.255-.2.494a12.921 12.921 0 0 1-.565 1.46 16.061 16.061 0 0 1-.848 1.623 14.1 14.1 0 0 1-1.118 1.605 14.606 14.606 0 0 1-2.376 2.307 12.919 12.919 0 0 1-3.406 1.858l-1.447-1.26a12.582 12.582 0 0 0 2.497-1.048 11.677 11.677 0 0 0 1.885-1.311 12.8 12.8 0 0 0 1.413-1.419 10.51 10.51 0 0 0 .928-1.286 12.773 12.773 0 0 0 .753-1.405 7.042 7.042 0 0 0 .454-1.27h-4.863l.59-1.424h4.117a4.751 4.751 0 0 0 .617-.04 2.544 2.544 0 0 0 .515-.115Zm-4.652-2.115q-.229.341-.451.73t-.344.6a15.513 15.513 0 0 1-1.17 1.758 17.646 17.646 0 0 1-1.613 1.839 14.463 14.463 0 0 1-1.934 1.624l-1.349-1.04a11.89 11.89 0 0 0 2.091-1.619 13.279 13.279 0 0 0 1.451-1.67 14.784 14.784 0 0 0 .924-1.427 4.777 4.777 0 0 0 .325-.631 4.679 4.679 0 0 0 .26-.73Zm14.695 10.753a3.808 3.808 0 0 0 .077-.444 4.3 4.3 0 0 0 .03-.514v-8.226a5.657 5.657 0 0 0-.047-.783q-.047-.33-.051-.376h1.855q0 .046-.045.381a6.744 6.744 0 0 0-.04.788v7.53a7.736 7.736 0 0 0 1.249-.718 10.1 10.1 0 0 0 1.277-1.058 8.584 8.584 0 0 0 1.112-1.315l.96 1.377a10.92 10.92 0 0 1-1.4 1.5 16.284 16.284 0 0 1-1.682 1.335 14.669 14.669 0 0 1-1.678 1.006 2.649 2.649 0 0 0-.343.213l-.227.171Zm-6.463-.165a5.746 5.746 0 0 0 1.51-1.547 7.387 7.387 0 0 0 .888-1.831 5.884 5.884 0 0 0 .235-1.149q.082-.688.121-1.472t.047-1.551q.007-.768.007-1.389a6.057 6.057 0 0 0-.033-.678 4.964 4.964 0 0 0-.089-.533h1.841l-.026.229q-.021.187-.042.442t-.021.522q0 .612-.014 1.422t-.058 1.666q-.044.856-.124 1.622a8.155 8.155 0 0 1-.224 1.293 7.947 7.947 0 0 1-.959 2.18 8.036 8.036 0 0 1-1.537 1.786Zm27.98-8.365-.246.283a2.174 2.174 0 0 0-.194.26q-.406.663-.976 1.44t-1.264 1.577q-.7.8-1.488 1.549a16.523 16.523 0 0 1-1.644 1.369l-1.246-1.148a12.291 12.291 0 0 0 1.4-1.118q.659-.61 1.221-1.242t1-1.224a10.078 10.078 0 0 0 .707-1.082h-7.64q-.275 0-.581.016t-.57.037q-.264.021-.409.044v-1.77l.46.058q.273.035.568.051t.532.016h7.928a3.977 3.977 0 0 0 1.194-.14Zm-7.161 6.692q-.313-.313-.718-.688t-.844-.76q-.438-.385-.84-.714t-.71-.544l1.312-1.063q.271.2.658.509t.833.683q.445.371.9.767t.847.775q.458.439.95.952t.943 1q.451.488.773.89l-1.473 1.172q-.28-.388-.726-.906t-.944-1.067q-.506-.548-.959-1.006Zm10.643-4.219.612.037q.369.023.781.035t.775.012h7.563q.5 0 .922-.035t.685-.049v1.965l-.694-.042q-.456-.028-.908-.028h-7.568q-.588 0-1.189.021t-.979.049Zm20.218-4.561q-.112.257-.227.563t-.2.535q-.112.336-.28.757t-.353.845q-.185.425-.376.8a12.289 12.289 0 0 1-.674 1.15 13.289 13.289 0 0 1-.854 1.162 7.886 7.886 0 0 1-.913.95l-1.574-.951a5.538 5.538 0 0 0 .73-.641q.352-.366.672-.77t.583-.793q.264-.389.46-.716a7.437 7.437 0 0 0 .483-1.015q.2-.516.324-.912a5.229 5.229 0 0 0 .183-.681 4.443 4.443 0 0 0 .084-.661Zm-2.084 2.226h7.419q.271 0 .677-.021a7.374 7.374 0 0 0 .738-.072v1.714q-.378-.033-.778-.04t-.637-.007h-7.569Zm5.374.9a14.249 14.249 0 0 1-.336 2.86 9.834 9.834 0 0 1-.84 2.334 8.245 8.245 0 0 1-1.314 1.863 9.1 9.1 0 0 1-1.771 1.45l-1.691-1.138a5.692 5.692 0 0 0 .692-.339 3.952 3.952 0 0 0 .579-.4 7.43 7.43 0 0 0 1.1-1.041 6.913 6.913 0 0 0 .93-1.4 8.136 8.136 0 0 0 .661-1.837 11.157 11.157 0 0 0 .268-2.359Zm11.917 1.284q.653.378 1.414.868t1.529 1.018q.768.528 1.454 1.025t1.176.9l-1.19 1.41q-.466-.429-1.141-.973t-1.449-1.109q-.773-.567-1.527-1.09t-1.373-.915Zm6.535-2.43a3.886 3.886 0 0 0-.227.437q-.115.255-.2.494a12.921 12.921 0 0 1-.565 1.46 16.06 16.06 0 0 1-.85 1.623 14.1 14.1 0 0 1-1.118 1.605 14.605 14.605 0 0 1-2.376 2.307 12.919 12.919 0 0 1-3.406 1.858l-1.443-1.26a12.582 12.582 0 0 0 2.493-1.048 11.678 11.678 0 0 0 1.885-1.312 12.794 12.794 0 0 0 1.413-1.418 10.51 10.51 0 0 0 .928-1.286 12.773 12.773 0 0 0 .753-1.405 7.042 7.042 0 0 0 .454-1.27h-4.862l.59-1.424h4.117a4.751 4.751 0 0 0 .617-.04 2.544 2.544 0 0 0 .515-.115Zm-4.652-2.115q-.229.341-.451.73t-.344.6a15.513 15.513 0 0 1-1.171 1.761 17.647 17.647 0 0 1-1.612 1.839 14.463 14.463 0 0 1-1.936 1.621l-1.349-1.04a11.89 11.89 0 0 0 2.09-1.619 13.279 13.279 0 0 0 1.451-1.67 14.782 14.782 0 0 0 .924-1.427 4.777 4.777 0 0 0 .325-.631 4.679 4.679 0 0 0 .26-.73Zm8.894 4.7.612.037q.369.023.781.035t.775.012h7.563q.5 0 .922-.035t.685-.049v1.961l-.694-.042q-.456-.028-.908-.028h-7.568q-.588 0-1.189.021t-.979.049Zm20.375-3.339q.626.089 1.42.128t1.624.03q.831-.009 1.592-.056t1.312-.112v1.616q-.617.056-1.382.091t-1.573.035q-.807 0-1.58-.035t-1.4-.091Zm.957 5.9q-.084.359-.128.641a3.647 3.647 0 0 0-.044.567.9.9 0 0 0 .107.434.9.9 0 0 0 .347.342 2.046 2.046 0 0 0 .636.221 5.135 5.135 0 0 0 .982.079 16.311 16.311 0 0 0 1.774-.084 17.085 17.085 0 0 0 1.722-.282l.033 1.691a14.566 14.566 0 0 1-1.545.203q-.875.075-2.038.075a4.717 4.717 0 0 1-2.656-.6 1.893 1.893 0 0 1-.864-1.644 5.834 5.834 0 0 1 .061-.82q.061-.427.178-.95Zm-3.253-6.87q-.047.131-.112.36t-.122.452q-.056.222-.084.348l-.151.8q-.091.483-.182 1.064-.091.581-.17 1.183t-.132 1.163q-.051.558-.051 1 0 .287.016.595t.058.609l.231-.535.237-.549q.119-.274.217-.516l.786.618q-.191.556-.4 1.2t-.366 1.216q-.161.574-.236.934-.028.149-.054.343a1.857 1.857 0 0 0-.021.306q0 .107.009.262t.019.29l-1.443.1a14.05 14.05 0 0 1-.373-1.928 19.5 19.5 0 0 1-.163-2.623q0-.784.068-1.592t.168-1.563q.1-.756.2-1.376t.159-1.036l.08-.62q.043-.34.052-.644Zm12.613 1.595q.435.051.925.072t.9.021q.836 0 1.707-.087t1.7-.25a14.557 14.557 0 0 0 1.543-.387l.042 1.456q-.62.172-1.448.329t-1.745.258a16.437 16.437 0 0 1-1.8.1q-.406 0-.84-.012t-.873-.035Zm5.306-2.154q-.084.355-.22.9t-.3 1.149q-.166.6-.353 1.17a20.646 20.646 0 0 1-.828 2.14q-.506 1.132-1.094 2.2a17.831 17.831 0 0 1-1.182 1.89l-1.522-.777a14.635 14.635 0 0 0 .936-1.286q.464-.712.875-1.47t.739-1.474q.329-.716.534-1.3a14.736 14.736 0 0 0 .453-1.621 9.241 9.241 0 0 0 .229-1.686Zm3.29 4.35q-.023.439-.023.855t.014.86l.035.826q.021.504.049 1.066t.049 1.068.021.818a2.442 2.442 0 0 1-.259 1.128 1.87 1.87 0 0 1-.831.806 3.343 3.343 0 0 1-1.539.3 4.434 4.434 0 0 1-1.524-.248 2.472 2.472 0 0 1-1.091-.743 1.887 1.887 0 0 1-.409-1.243 2.055 2.055 0 0 1 .366-1.2 2.44 2.44 0 0 1 1.044-.83 3.9 3.9 0 0 1 1.6-.3 7.026 7.026 0 0 1 2.243.343 8.229 8.229 0 0 1 1.839.866 11.268 11.268 0 0 1 1.4 1.041l-.841 1.347q-.387-.35-.875-.759a8.226 8.226 0 0 0-1.085-.763 6.523 6.523 0 0 0-1.29-.584 4.68 4.68 0 0 0-1.477-.229 1.9 1.9 0 0 0-1.052.258.769.769 0 0 0-.4.663.814.814 0 0 0 .345.68 1.61 1.61 0 0 0 .987.261 1.6 1.6 0 0 0 .8-.17.95.95 0 0 0 .417-.473 1.806 1.806 0 0 0 .123-.686q0-.34-.026-.942t-.061-1.318l-.068-1.43q-.033-.714-.053-1.269Zm2.517.638a9.064 9.064 0 0 0-.995-.7q-.6-.374-1.223-.717t-1.1-.553l.806-1.232q.378.168.857.408t.964.509q.486.268.906.523t.682.446Zm6.224-4.327q.276.033.6.049t.6.016q.219 0 .679-.009l1.038-.023q.578-.014 1.154-.033t1.038-.042l.7-.037q.4-.037.63-.07a2.62 2.62 0 0 0 .353-.07l.833 1.129-.46.294q-.236.149-.465.327-.276.2-.686.524t-.874.71l-.908.747-.8.654a4.248 4.248 0 0 1 .76-.156 7 7 0 0 1 .742-.039 4.8 4.8 0 0 1 2.115.451 3.739 3.739 0 0 1 1.462 1.226 3.029 3.029 0 0 1 .542 1.779 3.6 3.6 0 0 1-.566 1.993 3.832 3.832 0 0 1-1.683 1.392 6.592 6.592 0 0 1-2.751.509 5 5 0 0 1-1.714-.273 2.739 2.739 0 0 1-1.177-.771 1.738 1.738 0 0 1-.425-1.166 1.873 1.873 0 0 1 .3-1.019 2.209 2.209 0 0 1 .848-.769 2.637 2.637 0 0 1 1.262-.292 3.113 3.113 0 0 1 1.608.385 2.659 2.659 0 0 1 1 1.025 3.051 3.051 0 0 1 .373 1.391l-1.457.2a2.151 2.151 0 0 0-.437-1.3 1.323 1.323 0 0 0-1.084-.5 1.023 1.023 0 0 0-.682.221.657.657 0 0 0-.263.514.764.764 0 0 0 .43.677 2.184 2.184 0 0 0 1.12.254 5.969 5.969 0 0 0 2-.294 2.578 2.578 0 0 0 1.238-.855 2.176 2.176 0 0 0 .419-1.34 1.8 1.8 0 0 0-.383-1.141 2.567 2.567 0 0 0-1.063-.776 3.941 3.941 0 0 0-1.522-.28 5.4 5.4 0 0 0-1.509.2 5.261 5.261 0 0 0-1.283.565 7.579 7.579 0 0 0-1.171.892q-.571.525-1.163 1.173l-1.144-1.181q.391-.317.881-.72t1-.825q.506-.422.954-.8t.751-.63l.7-.571q.408-.333.844-.7l.827-.692q.392-.329.648-.557-.215 0-.58.021l-.8.033-.87.035q-.435.019-.8.04l-.587.035q-.266.014-.556.04t-.528.063Zm18.757-.563q-.075.271-.154.657t-.126.605q-.1.485-.238 1.167t-.313 1.435q-.173.754-.359 1.459-.18.736-.45 1.608t-.565 1.755q-.3.887-.607 1.687t-.592 1.413l-1.742-.59a13.143 13.143 0 0 0 .653-1.3q.341-.765.665-1.643t.607-1.746q.282-.868.478-1.6.135-.495.259-1.022t.229-1.026q.1-.5.18-.931t.117-.735q.047-.365.058-.736a4.9 4.9 0 0 0-.012-.61Zm-3.44 2.163q.836 0 1.753-.082t1.86-.238q.943-.156 1.844-.371v1.564q-.868.2-1.841.341t-1.914.217q-.941.077-1.72.077-.49 0-.894-.019l-.782-.037-.042-1.56q.532.056.929.082t.807.026Zm4.4 2.083q.584-.061 1.282-.1t1.375-.037q.6 0 1.225.026t1.225.1l-.037 1.505q-.527-.07-1.141-.121t-1.249-.052q-.7 0-1.359.035t-1.316.114Zm.63 3.485q-.079.308-.135.625a3.287 3.287 0 0 0-.056.564 1.057 1.057 0 0 0 .093.443.92.92 0 0 0 .315.363 1.706 1.706 0 0 0 .622.247 4.833 4.833 0 0 0 1.015.088 13.674 13.674 0 0 0 1.417-.075q.717-.075 1.441-.21l-.062 1.605q-.584.075-1.286.135t-1.524.061a5.109 5.109 0 0 1-2.65-.563 1.788 1.788 0 0 1-.917-1.613 5.824 5.824 0 0 1 .075-.928q.075-.465.164-.885Zm16.968-7.542q-.047.182-.1.43t-.105.491q-.049.243-.1.407-.21.915-.49 1.882t-.626 1.909a16.264 16.264 0 0 1-.761 1.762 8.953 8.953 0 0 1-.9 1.445 12.864 12.864 0 0 1-1.154 1.326 4.248 4.248 0 0 1-1.094.8 2.681 2.681 0 0 1-1.192.268 1.941 1.941 0 0 1-1.053-.311 2.213 2.213 0 0 1-.794-.918 3.316 3.316 0 0 1-.3-1.485 5.31 5.31 0 0 1 .336-1.837 6.353 6.353 0 0 1 .938-1.7 5.624 5.624 0 0 1 1.4-1.3 7.613 7.613 0 0 1 2.167-1.015 8.156 8.156 0 0 1 2.18-.3 5.206 5.206 0 0 1 2.53.6 4.415 4.415 0 0 1 1.734 1.676 4.877 4.877 0 0 1 .628 2.507 4.73 4.73 0 0 1-.644 2.51 4.746 4.746 0 0 1-1.778 1.695 7.657 7.657 0 0 1-2.606.857l-.951-1.442a7.1 7.1 0 0 0 1.965-.42 4.168 4.168 0 0 0 1.357-.821 3.168 3.168 0 0 0 .785-1.126 3.488 3.488 0 0 0 .254-1.321 3.43 3.43 0 0 0-.424-1.727 3.014 3.014 0 0 0-1.2-1.17 3.715 3.715 0 0 0-1.814-.424 5.3 5.3 0 0 0-1.96.348 7.351 7.351 0 0 0-1.641.9 4.084 4.084 0 0 0-.961.968 4.723 4.723 0 0 0-.622 1.2 3.745 3.745 0 0 0-.217 1.222 1.529 1.529 0 0 0 .233.891.729.729 0 0 0 .628.333 1.187 1.187 0 0 0 .594-.168 2.97 2.97 0 0 0 .6-.461 6.024 6.024 0 0 0 .585-.669q.287-.378.557-.793a10.226 10.226 0 0 0 .733-1.321q.345-.738.632-1.547t.5-1.6q.21-.786.326-1.461a5.176 5.176 0 0 0 .082-.648 5.8 5.8 0 0 0 .016-.61Zm-5.858.512q.065.336.142.67t.156.642q.15.565.362 1.219t.453 1.3q.24.649.495 1.2a9.177 9.177 0 0 0 .488.936q.364.574.831 1.2a9.035 9.035 0 0 0 .956 1.094l-1.264 1.014q-.415-.467-.767-.925t-.706-1.032a9.525 9.525 0 0 1-.6-1.072q-.3-.619-.593-1.338t-.562-1.478q-.269-.764-.5-1.5-.112-.369-.241-.712a7.134 7.134 0 0 0-.3-.689Zm19.76.842q-.145 1.078-.364 2.275a21.577 21.577 0 0 1-.588 2.407 12.934 12.934 0 0 1-.95 2.425 5.162 5.162 0 0 1-1.168 1.543 2.072 2.072 0 0 1-1.36.538 2.132 2.132 0 0 1-1.362-.5 3.506 3.506 0 0 1-1.009-1.406 5.292 5.292 0 0 1-.381-2.073 5.371 5.371 0 0 1 .486-2.255 6.047 6.047 0 0 1 1.349-1.886 6.412 6.412 0 0 1 2.017-1.302 6.529 6.529 0 0 1 2.491-.472 6.127 6.127 0 0 1 2.309.414 5.162 5.162 0 0 1 1.755 1.149 5.064 5.064 0 0 1 1.12 1.713 5.617 5.617 0 0 1 .39 2.1 5.521 5.521 0 0 1-.606 2.618 4.947 4.947 0 0 1-1.787 1.89 7.545 7.545 0 0 1-2.918 1l-.941-1.489q.388-.042.7-.1t.584-.114a5.178 5.178 0 0 0 1.267-.478 4.087 4.087 0 0 0 1.049-.8 3.544 3.544 0 0 0 .713-1.133 3.913 3.913 0 0 0 .258-1.456 4.4 4.4 0 0 0-.259-1.532 3.471 3.471 0 0 0-.762-1.224 3.456 3.456 0 0 0-1.231-.811 4.482 4.482 0 0 0-1.664-.289 4.736 4.736 0 0 0-2 .4 4.681 4.681 0 0 0-1.483 1.052 4.675 4.675 0 0 0-.918 1.4 3.736 3.736 0 0 0-.312 1.436 3.666 3.666 0 0 0 .175 1.248 1.8 1.8 0 0 0 .454.738.841.841 0 0 0 .561.242.871.871 0 0 0 .611-.308 3.473 3.473 0 0 0 .605-.958 12.944 12.944 0 0 0 .61-1.661 18.966 18.966 0 0 0 .537-2.147 22.534 22.534 0 0 0 .317-2.24Z" fill="#fff"/><path data-name="パス 15471" d="M46.458 176.004c3.84 0 6.264-2.376 6.264-5.664v-.048c0-3.24-2.352-4.512-4.776-4.9l4.512-4.368v-2.784h-11.76v3.176h7.008l-4.3 4.368.6 2.328h1.56c2.184 0 3.528.84 3.528 2.328v.048a2.317 2.317 0 0 1-2.588 2.228 5.376 5.376 0 0 1-4.272-2.136l-2.544 2.4a8.394 8.394 0 0 0 6.768 3.024Zm17.844-5.972a7.908 7.908 0 0 1 1.3.042v-1.512a6.858 6.858 0 0 1-1.216.084H59.5a.525.525 0 0 0-.154.014 8.478 8.478 0 0 0 .532-1.218 4.307 4.307 0 0 1 .224-.49l-1.624-.364a6.049 6.049 0 0 1-.588 1.708 8.884 8.884 0 0 1-2.366 3.066 5.391 5.391 0 0 1 1.242.938 9.485 9.485 0 0 0 1.9-2.254l2.57-.014a5.336 5.336 0 0 1-1.75 3.99 6.5 6.5 0 0 1-2.17 1.176 3.772 3.772 0 0 1 1.036 1.344c3.014-1.326 4.27-3.178 4.452-6.51Zm13.328 2.45v2.422c0 .308-.1.378-.518.378a14.156 14.156 0 0 1-2.058-.166 5.065 5.065 0 0 1 .406 1.566c.714.042 1.176.056 1.624.056a2.775 2.775 0 0 0 1.624-.28c.35-.224.5-.63.5-1.33v-9.072a10.56 10.56 0 0 1 .07-1.582 12.619 12.619 0 0 1-1.624.07H71.82a14.125 14.125 0 0 1-1.638-.07 19.73 19.73 0 0 1 .07 2.114c0 3.64-.14 5.278-.56 6.58a5.3 5.3 0 0 1-1.5 2.464 5.416 5.416 0 0 1 1.304 1.284 7.85 7.85 0 0 0 1.652-2.772 10.376 10.376 0 0 0 .406-1.666Zm-5.908-1.428c.084-1.134.112-1.442.112-1.876h5.8v1.876Zm.126-3.3v-1.75h5.782v1.75Z" fill="#efd774"/></g><g data-name="グループ 8487"><g data-name="グループ 8456"><g data-name="パス 14222" fill="#d92a0f"><path d="M345.963 239.516H150.646l4.915-33h195.317l-4.915 33Z"/><path d="m155.992 207.016-4.766 32h194.306l4.766-32H155.992m-.862-1h196.328l-5.064 34H150.066l5.064-34Z" fill="#011b39"/></g><path data-name="パス 15473" d="M169.614 215.78h8.737v1.236h-8.737Zm-.421 3.979h9.431v1.312h-9.431Zm-.021 6.012h9.484v1.36h-9.484Zm1.606-1.952h6.421v1.086h-6.421Zm-.86-6.066h8.1v1.209h-8.1Zm1.438-3.167h1.536v5.755h-1.536Zm3.583 0h1.552v5.755h-1.552Zm-1.795 5.827h1.418v6.156h-1.418Zm3.113 1.338h1.563v6.227a2.13 2.13 0 0 1-.136.855.991.991 0 0 1-.521.476 2.857 2.857 0 0 1-.961.19q-.582.029-1.393.029a4.1 4.1 0 0 0-.153-.677 4.477 4.477 0 0 0-.253-.66q.5.016.967.024t.616 0a.374.374 0 0 0 .218-.066.264.264 0 0 0 .053-.189Zm-6.244 0h6.816v1.2h-5.365v6.59h-1.45Zm-5.679-2.165h4.359v1.311h-4.359Zm.085-4.476h4.215v1.311h-4.215Zm-.085 6.7h4.359v1.311h-4.359Zm-.7-4.508h5.522v1.37h-5.522Zm1.507 6.754h3.62v4.807h-3.62v-1.364h2.18v-2.073h-2.18Zm-.846 0h1.419v5.468h-1.423Zm16.4-7.908h12.885v1.284h-12.893Zm.848 1.985h11.2v1.2h-11.2Zm-1.573 1.92h14.321v1.311h-14.329Zm-.03 3.688h14.418v1.284H179.94Zm6.264-6.874h1.767v3.844h-1.767Zm3.435-2.311 1.879.39q-.325.48-.646.909t-.57.733l-1.472-.39q.213-.358.444-.821a8.57 8.57 0 0 0 .364-.821Zm-9.757 11.477q.939-.048 2.149-.114t2.581-.149q1.371-.082 2.746-.173l-.011 1.172q-1.307.112-2.621.218t-2.517.2q-1.2.09-2.184.17Zm3.294-3.956h1.659v5.917a1.913 1.913 0 0 1-.16.888.989.989 0 0 1-.588.438 3.8 3.8 0 0 1-1.052.182q-.625.032-1.531.032a3.919 3.919 0 0 0-.2-.674 6.375 6.375 0 0 0-.294-.653q.378.016.762.027t.682 0q.3-.008.411-.008a.387.387 0 0 0 .245-.059.278.278 0 0 0 .069-.219Zm2.98-.7 1 1.011q-.891.214-2.013.368t-2.3.25q-1.181.1-2.274.144a3.2 3.2 0 0 0-.147-.532 4.094 4.094 0 0 0-.222-.522q1.056-.059 2.167-.157t2.108-.245q.988-.153 1.681-.321Zm1.382.215h1.638a11.379 11.379 0 0 0 .375 2.5 9 9 0 0 0 .807 2.036 4.512 4.512 0 0 0 1.1 1.356 2.009 2.009 0 0 0 1.281.477.43.43 0 0 0 .424-.279 3.884 3.884 0 0 0 .179-1.014 2.562 2.562 0 0 0 .607.4 4.875 4.875 0 0 0 .665.273 4.622 4.622 0 0 1-.353 1.359 1.3 1.3 0 0 1-.615.643 2.441 2.441 0 0 1-.988.181 3.462 3.462 0 0 1-1.974-.603 5.5 5.5 0 0 1-1.57-1.68 9.573 9.573 0 0 1-1.08-2.52 14.5 14.5 0 0 1-.496-3.133Zm4.267 3.428 1.461.5a8.237 8.237 0 0 1-1.821 1.721 13.651 13.651 0 0 1-2.357 1.318 21.654 21.654 0 0 1-2.59.949 3.037 3.037 0 0 0-.222-.431q-.153-.254-.324-.514a3.6 3.6 0 0 0-.31-.415 18.64 18.64 0 0 0 2.421-.716 12.013 12.013 0 0 0 2.162-1.047 6.055 6.055 0 0 0 1.58-1.369Zm-1.867-2.644.942-.995a10.211 10.211 0 0 1 .976.405q.507.24.966.5a4.771 4.771 0 0 1 .747.515l-.99 1.086a4.731 4.731 0 0 0-.717-.526q-.446-.275-.95-.539a10.35 10.35 0 0 0-.973-.449Zm-6.976-7.282 1.5-.5a5.352 5.352 0 0 1 .613.77 4.334 4.334 0 0 1 .421.77l-1.584.594a4.237 4.237 0 0 0-.375-.8 6.057 6.057 0 0 0-.574-.837Zm18.765.8h7.416v1.622h-7.416Zm6.79 0h1.75v.559q0 .211-.011.334-.053 3.034-.123 5.13t-.171 3.437a17.043 17.043 0 0 1-.256 2.08 2.946 2.946 0 0 1-.377 1.048 2.06 2.06 0 0 1-.622.636 2.3 2.3 0 0 1-.761.267 5.54 5.54 0 0 1-1.04.078q-.619 0-1.275-.029a3.761 3.761 0 0 0-.166-.883 3.77 3.77 0 0 0-.38-.889q.661.053 1.2.064t.818.011a.7.7 0 0 0 .618-.3 2.139 2.139 0 0 0 .306-.912q.125-.7.218-2t.154-3.325q.061-2.021.115-4.895Zm-4.334.744h1.75q-.032 1.467-.112 2.948t-.3 2.894a15.566 15.566 0 0 1-.664 2.7 10.163 10.163 0 0 1-1.2 2.4 8.16 8.16 0 0 1-1.912 1.971 4.736 4.736 0 0 0-.58-.72 4.892 4.892 0 0 0-.709-.624 6.894 6.894 0 0 0 1.77-1.736 8.516 8.516 0 0 0 1.079-2.148 13.086 13.086 0 0 0 .565-2.439q.173-1.28.232-2.607t.081-2.646Zm-6.154 6.063 1.685-2.025v8.858h-1.686Zm-2.153-5.232h4.838v1.547h-4.841Zm2.153-2.863h1.685v3.7h-1.686Zm1.541 6.993q.192.149.568.5t.8.762q.427.411.781.765l.51.509-1.022 1.3q-.214-.3-.539-.715t-.7-.861q-.373-.445-.715-.835t-.587-.64Zm.677-4.13h.332l.294-.075.963.642a17.621 17.621 0 0 1-1.464 2.961 19.778 19.778 0 0 1-1.939 2.644 15.7 15.7 0 0 1-2.1 2.033 3.384 3.384 0 0 0-.242-.533q-.166-.305-.342-.594a2.6 2.6 0 0 0-.321-.439 11.811 11.811 0 0 0 1.924-1.706 15.591 15.591 0 0 0 1.706-2.226 12.237 12.237 0 0 0 1.188-2.38Zm1.242 3.035 1.108.91q-.486.491-.924.992t-.806.853l-.786-.7q.331-.4.744-1a12.061 12.061 0 0 0 .663-1.062Zm12.189-4.907h10.977v13.708h-1.841v-11.982h-7.368v12.025h-1.767Zm1.2 5.423h8.7v1.7h-8.7Zm-.011 5.556h8.728v1.721h-8.728Zm17.708-7.872q-.044.208-.094.455t-.1.459q-.048.252-.116.594t-.136.695q-.068.353-.144.685-.124.512-.3 1.184t-.418 1.439q-.238.766-.532 1.549t-.641 1.519a12.057 12.057 0 0 1-.73 1.364l-1.4-.558a9.25 9.25 0 0 0 .782-1.26q.362-.7.662-1.436t.538-1.462q.238-.722.408-1.342t.266-1.068q.168-.785.268-1.549a9.79 9.79 0 0 0 .088-1.44Zm4.136 1.167a8.767 8.767 0 0 1 .592.956q.312.572.61 1.212t.544 1.234q.246.594.386 1.018l-1.357.63q-.12-.492-.336-1.1t-.492-1.247q-.276-.634-.59-1.2a6.145 6.145 0 0 0-.634-.951Zm-8.849 1.344q.312.02.609.016t.617-.016q.284-.012.706-.042t.9-.068q.482-.038.964-.08t.892-.068q.41-.026.666-.026a2.768 2.768 0 0 1 1.083.2 1.535 1.535 0 0 1 .747.685 2.725 2.725 0 0 1 .277 1.325q0 .7-.064 1.53a13.7 13.7 0 0 1-.212 1.58 4.889 4.889 0 0 1-.408 1.266 1.646 1.646 0 0 1-.771.85 2.65 2.65 0 0 1-1.134.231 5.666 5.666 0 0 1-.738-.052q-.394-.052-.7-.12l-.229-1.417q.244.068.522.126t.534.09a3.487 3.487 0 0 0 .412.032 1.276 1.276 0 0 0 .551-.116.87.87 0 0 0 .393-.431 3.816 3.816 0 0 0 .288-.931 11.464 11.464 0 0 0 .168-1.229q.056-.658.056-1.261a1.536 1.536 0 0 0-.14-.745.7.7 0 0 0-.408-.325 2.186 2.186 0 0 0-.648-.078q-.28 0-.763.042t-1.031.1q-.547.056-1.017.114l-.729.09q-.245.036-.621.086t-.641.1Zm15.26-2.664q.42.132 1.061.276t1.342.28q.7.136 1.332.234t1.026.142l-.321 1.317q-.356-.048-.858-.138t-1.068-.2q-.566-.11-1.116-.222t-1-.218q-.452-.106-.736-.178Zm-.017 2.346q-.06.263-.126.661t-.13.829q-.064.431-.12.825t-.092.661a5.743 5.743 0 0 1 1.745-.942 6.073 6.073 0 0 1 1.9-.3 3.8 3.8 0 0 1 1.744.37 2.813 2.813 0 0 1 1.119.979 2.411 2.411 0 0 1 .392 1.333 3.219 3.219 0 0 1-.356 1.5 2.974 2.974 0 0 1-1.145 1.165 5.621 5.621 0 0 1-2.046.675 13.14 13.14 0 0 1-3.076.046l-.413-1.405a11.019 11.019 0 0 0 3.063.041 3.7 3.7 0 0 0 1.858-.735 1.677 1.677 0 0 0 .624-1.319 1.193 1.193 0 0 0-.243-.74 1.643 1.643 0 0 0-.667-.507 2.407 2.407 0 0 0-.975-.186 4.93 4.93 0 0 0-1.954.383 3.854 3.854 0 0 0-1.483 1.087 2.777 2.777 0 0 0-.25.339 2.8 2.8 0 0 0-.17.326l-1.248-.305q.072-.348.146-.822t.146-1.018q.072-.544.134-1.1t.11-1.084q.048-.528.072-.949Zm11.423 6.136q1.286-.048 2.986-.117t3.62-.16q1.917-.091 3.8-.187l-.03 1.558-3.665.259q-1.847.13-3.532.235t-3.018.189Zm4.135-7.883 1.951.406q-.274 1.078-.61 2.211t-.7 2.234q-.365 1.1-.73 2.092t-.707 1.791l-1.627-.428q.341-.816.685-1.837t.674-2.135q.33-1.114.6-2.226t.464-2.108Zm2.951 4.391 1.6-.69q.693.907 1.391 1.965t1.263 2.088a12.718 12.718 0 0 1 .853 1.865l-1.756.808a12.856 12.856 0 0 0-.794-1.856q-.533-1.045-1.2-2.144t-1.357-2.036Zm-7.769-6.859H266.4v1.643h-12.555Zm-.84 0h1.724v4.1q0 .945-.067 2.079t-.248 2.329a15.4 15.4 0 0 1-.53 2.308 8.625 8.625 0 0 1-.92 2.02 4.437 4.437 0 0 0-.424-.337q-.267-.193-.556-.37a3.327 3.327 0 0 0-.493-.256 7.675 7.675 0 0 0 .823-1.836 13.584 13.584 0 0 0 .457-2.043q.149-1.046.192-2.043t.043-1.851Zm5.709-2.089h1.78v2.887h-1.78Zm9.347 5.742h14.141v1.6h-14.144Zm2.646-3.6h10.452v1.568h-10.455Zm.131 10.469h8.755v1.589h-8.755Zm3.761-12.616h1.815v6.711h-1.815Zm-4.665 8.618h10.628v6.359h-1.825v-4.78h-7.047v4.823h-1.756Zm.84-8.55 1.718.423a15.172 15.172 0 0 1-.8 1.928 17.685 17.685 0 0 1-1.005 1.765 12.175 12.175 0 0 1-1.088 1.443 4.085 4.085 0 0 0-.46-.313q-.289-.174-.589-.342t-.519-.265a8.89 8.89 0 0 0 1.595-2.074 13.813 13.813 0 0 0 1.148-2.565Zm18.086 3.9q-.068.34-.194.846a9.159 9.159 0 0 1-.378 1.139q-.2.471-.463.974a7.874 7.874 0 0 1-.554.9 2.042 2.042 0 0 1 .435-.163 3.988 3.988 0 0 1 .527-.1 3.981 3.981 0 0 1 .487-.034 1.828 1.828 0 0 1 1.231.422 1.535 1.535 0 0 1 .494 1.235v.588q0 .348.014.73l.02.748q.01.366.01.65h-1.288q.02-.216.03-.509t.016-.619q.006-.326.008-.627t0-.542a.933.933 0 0 0-.312-.79 1.157 1.157 0 0 0-.711-.23 2.408 2.408 0 0 0-1.041.248 3.414 3.414 0 0 0-.889.6q-.26.26-.526.584t-.574.716l-1.156-.863a16.581 16.581 0 0 0 1.373-1.438 10.3 10.3 0 0 0 .96-1.34 8.379 8.379 0 0 0 .623-1.269 7.713 7.713 0 0 0 .3-1 5.724 5.724 0 0 0 .142-.968Zm-4.4 1.162q.472.068 1.058.1t1.031.034q.8 0 1.734-.038t1.9-.124q.964-.086 1.829-.238l-.008 1.252q-.632.092-1.362.16t-1.483.11q-.752.042-1.442.06t-1.242.018q-.248 0-.594-.006t-.716-.028l-.706-.042Zm9.411 3.264q-.176.052-.415.134t-.477.17q-.239.088-.431.168-.6.232-1.393.562t-1.646.77a7.177 7.177 0 0 0-.955.577 2.624 2.624 0 0 0-.609.595 1.136 1.136 0 0 0-.213.665.773.773 0 0 0 .124.455.811.811 0 0 0 .363.275 2.18 2.18 0 0 0 .585.14 6.923 6.923 0 0 0 .789.04q.749 0 1.667-.088t1.71-.24l-.047 1.377q-.407.052-.99.1t-1.2.08q-.619.032-1.179.032a7.1 7.1 0 0 1-1.64-.174 2.371 2.371 0 0 1-1.156-.6 1.6 1.6 0 0 1-.43-1.179 2.181 2.181 0 0 1 .276-1.1 3.382 3.382 0 0 1 .731-.885 7.007 7.007 0 0 1 1-.724q.546-.328 1.082-.6.564-.3 1.027-.506t.871-.383q.407-.174.775-.346.329-.144.629-.283t.61-.295Zm10.788-2.75h4.555v1.638h-4.558Zm-.819 0h1.7v6.75a.909.909 0 0 0 .138.616 1 1 0 0 0 .63.131h1.993a.6.6 0 0 0 .482-.191 1.515 1.515 0 0 0 .231-.747q.072-.552.114-1.645a3.671 3.671 0 0 0 .471.286 4.843 4.843 0 0 0 .565.249q.292.107.522.166a10.265 10.265 0 0 1-.313 2.1 1.886 1.886 0 0 1-.678 1.07 2.2 2.2 0 0 1-1.263.315h-2.37a3.562 3.562 0 0 1-1.33-.2 1.233 1.233 0 0 1-.689-.711 3.971 3.971 0 0 1-.206-1.435Zm-.059-4.911h6.291v7.572h-1.667v-5.918h-4.627Zm-7.6 2.832h6.633v11.072h-1.374v-9.64h-3.926v9.856h-1.331Zm.707 6.448h5.2v1.2h-5.2Zm0 2.468h5.2v1.341h-5.2Zm-1.03-11.884h7.282v1.515h-7.282Zm2.2.358h1.14v3.716h-1.144Zm1.868 0h1.166v3.716h-1.17Zm-1.6 3.7h.828v1.616a6.76 6.76 0 0 1-.08 1 4.35 4.35 0 0 1-.3 1.05 3.084 3.084 0 0 1-.628.943 2.3 2.3 0 0 0-.3-.3 2.273 2.273 0 0 0-.354-.26 2.392 2.392 0 0 0 .545-.786 3.423 3.423 0 0 0 .231-.847 6.031 6.031 0 0 0 .058-.812Zm1.471 0h.834v3.053a.531.531 0 0 0 .021.193q.021.042.125.042h.368q.186 0 .224-.053a1.294 1.294 0 0 0 .35.2 3.882 3.882 0 0 0 .42.142.726.726 0 0 1-.275.449.991.991 0 0 1-.569.139h-.621a.9.9 0 0 1-.693-.211 1.426 1.426 0 0 1-.187-.884Zm18.007-3.984h7.381v1.354h-7.381Zm-.235 4.561h7.9v1.359h-7.9Zm0 2.267h7.851v1.359h-7.851Zm.674 5.4h6.539v1.371h-6.538Zm-1.958-9.966h10.335v1.4h-10.335Zm1.06 6.839h8.333v5.115h-1.73v-3.772h-4.96v3.821h-1.644Zm-2.057-9.73 1.6.514a24.779 24.779 0 0 1-1.283 2.7 25.228 25.228 0 0 1-1.591 2.536 16.406 16.406 0 0 1-1.761 2.094 5.784 5.784 0 0 0-.235-.541q-.16-.332-.342-.667a5.3 5.3 0 0 0-.332-.544 14.1 14.1 0 0 0 1.514-1.714 18.043 18.043 0 0 0 1.362-2.1 17.373 17.373 0 0 0 1.067-2.278Zm-1.574 4.339 1.622-1.628.011.018v12.127h-1.633Zm20.661 5.127-.4-5.679-.061-2.244h2.4l-.064 2.244-.4 5.679Zm.739 4.174a1.275 1.275 0 0 1-.933-.366 1.274 1.274 0 0 1-.372-.949 1.264 1.264 0 0 1 .377-.949 1.28 1.28 0 0 1 .928-.365 1.28 1.28 0 0 1 .928.366 1.264 1.264 0 0 1 .377.949 1.265 1.265 0 0 1-.377.949 1.28 1.28 0 0 1-.928.365Z" fill="#fff"/></g></g></g></g></svg>