<svg xmlns="http://www.w3.org/2000/svg" width="55.473" height="18" viewBox="0 0 55.473 18"><g transform="translate(-408.5 -6712.625)"><path d="M13.1,9.86l-.021-.054a5.569,5.569,0,0,0-.272-.587,5.764,5.764,0,0,0-.343-.558l-1.6-2.3-.28,1.407c-.017.083-.038.17-.064.256s-.057.174-.09.253A3.482,3.482,0,0,1,9.724,9.33q.016-.076.03-.151A7.43,7.43,0,0,0,8.693,3.792L8.33,3.223a7.4,7.4,0,0,0-1.155-1.4A11.827,11.827,0,0,0,5.3.389h0L4.615,0h0l.627,1.264a1.676,1.676,0,0,1,.091.222,1.609,1.609,0,0,1,.056.23,2.66,2.66,0,0,1-.063,1.143,3.426,3.426,0,0,1-.673,1.273l-.821.991L1.945,7.343A9.693,9.693,0,0,0,1.1,8.507,9.266,9.266,0,0,0,.444,9.762a5.459,5.459,0,0,0-.335,3.244,5.758,5.758,0,0,0,1.147,2.437l.138.175c.062.078.125.155.186.229a5.509,5.509,0,0,0,1.851,1.42l.025.011a8.168,8.168,0,0,0,1.16.431L5.632,18l-.6-.773a2.358,2.358,0,0,1-.307-.534c-.043-.1-.089-.217-.134-.329l-.019-.047a3.731,3.731,0,0,1-.178-.561l-.005-.022h0c-.017-.074-.031-.148-.043-.22a3.555,3.555,0,0,1-.042-.357,3.789,3.789,0,0,1,.133-1.3l.01-.034a3.515,3.515,0,0,1,.237-.611l.024-.048a1.635,1.635,0,0,0,.4.527l.919.806-.16-1.485-.035-.766c0-.052,0-.105,0-.158a3.491,3.491,0,0,1,.071-.7,7.834,7.834,0,0,1,.559-1.422c.135-.285.255-.517.351-.693q.014.131.039.26a2.962,2.962,0,0,0,.359.939l.364.611L8.4,12.441a5.915,5.915,0,0,1,.344.655,6.178,6.178,0,0,1,.265.71,3.989,3.989,0,0,1,.174,1.171,4.127,4.127,0,0,1-.043.589,3.8,3.8,0,0,1-.444,1.313l-.061.107c-.026.045-.05.087-.075.128l-.009.015-.007.011-.518.791.97-.337a7.978,7.978,0,0,0,2.249-1.215l.015-.012a4.6,4.6,0,0,0,1.151-1.32c.09-.155.183-.321.273-.481l.077-.138a5.682,5.682,0,0,0,.461-1.046l.011-.032c.042-.135.08-.273.112-.412l.005-.025A5.164,5.164,0,0,0,13.1,9.86" transform="translate(408.5 6712.625)" fill="#d92a0f"/><path d="M13.1,9.86l-.021-.054a5.569,5.569,0,0,0-.272-.587,5.764,5.764,0,0,0-.343-.558l-1.6-2.3-.28,1.407c-.017.083-.038.17-.064.256s-.057.174-.09.253A3.482,3.482,0,0,1,9.724,9.33q.016-.076.03-.151A7.43,7.43,0,0,0,8.693,3.792L8.33,3.223a7.4,7.4,0,0,0-1.155-1.4A11.827,11.827,0,0,0,5.3.389h0L4.615,0h0l.627,1.264a1.676,1.676,0,0,1,.091.222,1.609,1.609,0,0,1,.056.23,2.66,2.66,0,0,1-.063,1.143,3.426,3.426,0,0,1-.673,1.273l-.821.991L1.945,7.343A9.693,9.693,0,0,0,1.1,8.507,9.266,9.266,0,0,0,.444,9.762a5.459,5.459,0,0,0-.335,3.244,5.758,5.758,0,0,0,1.147,2.437l.138.175c.062.078.125.155.186.229a5.509,5.509,0,0,0,1.851,1.42l.025.011a8.168,8.168,0,0,0,1.16.431L5.632,18l-.6-.773a2.358,2.358,0,0,1-.307-.534c-.043-.1-.089-.217-.134-.329l-.019-.047a3.731,3.731,0,0,1-.178-.561l-.005-.022h0c-.017-.074-.031-.148-.043-.22a3.555,3.555,0,0,1-.042-.357,3.789,3.789,0,0,1,.133-1.3l.01-.034a3.515,3.515,0,0,1,.237-.611l.024-.048a1.635,1.635,0,0,0,.4.527l.919.806-.16-1.485-.035-.766c0-.052,0-.105,0-.158a3.491,3.491,0,0,1,.071-.7,7.834,7.834,0,0,1,.559-1.422c.135-.285.255-.517.351-.693q.014.131.039.26a2.962,2.962,0,0,0,.359.939l.364.611L8.4,12.441a5.915,5.915,0,0,1,.344.655,6.178,6.178,0,0,1,.265.71,3.989,3.989,0,0,1,.174,1.171,4.127,4.127,0,0,1-.043.589,3.8,3.8,0,0,1-.444,1.313l-.061.107c-.026.045-.05.087-.075.128l-.009.015-.007.011-.518.791.97-.337a7.978,7.978,0,0,0,2.249-1.215l.015-.012a4.6,4.6,0,0,0,1.151-1.32c.09-.155.183-.321.273-.481l.077-.138a5.682,5.682,0,0,0,.461-1.046l.011-.032c.042-.135.08-.273.112-.412l.005-.025A5.164,5.164,0,0,0,13.1,9.86" transform="translate(429.5 6712.625)" fill="#d92a0f"/><path d="M13.1,9.86l-.021-.054a5.569,5.569,0,0,0-.272-.587,5.764,5.764,0,0,0-.343-.558l-1.6-2.3-.28,1.407c-.017.083-.038.17-.064.256s-.057.174-.09.253A3.482,3.482,0,0,1,9.724,9.33q.016-.076.03-.151A7.43,7.43,0,0,0,8.693,3.792L8.33,3.223a7.4,7.4,0,0,0-1.155-1.4A11.827,11.827,0,0,0,5.3.389h0L4.615,0h0l.627,1.264a1.676,1.676,0,0,1,.091.222,1.609,1.609,0,0,1,.056.23,2.66,2.66,0,0,1-.063,1.143,3.426,3.426,0,0,1-.673,1.273l-.821.991L1.945,7.343A9.693,9.693,0,0,0,1.1,8.507,9.266,9.266,0,0,0,.444,9.762a5.459,5.459,0,0,0-.335,3.244,5.758,5.758,0,0,0,1.147,2.437l.138.175c.062.078.125.155.186.229a5.509,5.509,0,0,0,1.851,1.42l.025.011a8.168,8.168,0,0,0,1.16.431L5.632,18l-.6-.773a2.358,2.358,0,0,1-.307-.534c-.043-.1-.089-.217-.134-.329l-.019-.047a3.731,3.731,0,0,1-.178-.561l-.005-.022h0c-.017-.074-.031-.148-.043-.22a3.555,3.555,0,0,1-.042-.357,3.789,3.789,0,0,1,.133-1.3l.01-.034a3.515,3.515,0,0,1,.237-.611l.024-.048a1.635,1.635,0,0,0,.4.527l.919.806-.16-1.485-.035-.766c0-.052,0-.105,0-.158a3.491,3.491,0,0,1,.071-.7,7.834,7.834,0,0,1,.559-1.422c.135-.285.255-.517.351-.693q.014.131.039.26a2.962,2.962,0,0,0,.359.939l.364.611L8.4,12.441a5.915,5.915,0,0,1,.344.655,6.178,6.178,0,0,1,.265.71,3.989,3.989,0,0,1,.174,1.171,4.127,4.127,0,0,1-.043.589,3.8,3.8,0,0,1-.444,1.313l-.061.107c-.026.045-.05.087-.075.128l-.009.015-.007.011-.518.791.97-.337a7.978,7.978,0,0,0,2.249-1.215l.015-.012a4.6,4.6,0,0,0,1.151-1.32c.09-.155.183-.321.273-.481l.077-.138a5.682,5.682,0,0,0,.461-1.046l.011-.032c.042-.135.08-.273.112-.412l.005-.025A5.164,5.164,0,0,0,13.1,9.86" transform="translate(450.5 6712.625)" fill="#d92a0f"/></g></svg>