<svg xmlns="http://www.w3.org/2000/svg" width="31.017" height="31.016" viewBox="0 0 31.017 31.016"><g transform="translate(-251.442 -14393.465)"><path d="M32.666,18.225a7.7,7.7,0,0,1,7.7,7.7" transform="translate(233.696 14383.633)" fill="none" stroke="#fff" stroke-linecap="round" stroke-linejoin="round" stroke-width="1.5"/><path d="M32.668,9.727A11.524,11.524,0,0,1,44.192,21.251" transform="translate(233.695 14388.311)" fill="none" stroke="#fff" stroke-linecap="round" stroke-linejoin="round" stroke-width="1.5"/><path d="M32.666,1.226A15.346,15.346,0,0,1,48.013,16.572" transform="translate(233.696 14392.989)" fill="none" stroke="#fff" stroke-linecap="round" stroke-linejoin="round" stroke-width="1.5"/><path d="M3.039,8.552h0C-.7,12.287,1.526,20.566,8.006,27.045s14.756,8.7,18.491,4.967a8.933,8.933,0,0,0,1.646-3.7.965.965,0,0,0-.548-1.051l-6.782-2.709a1.286,1.286,0,0,0-1.27.288L17.582,26.8a1.212,1.212,0,0,1-1.343.276l-.1-.052L16.1,27a20.405,20.405,0,0,1-4.56-3.485,20.409,20.409,0,0,1-3.484-4.558c-.008-.014-.016-.026-.023-.04-.019-.034-.036-.067-.054-.1a1.211,1.211,0,0,1,.273-1.344L10.216,15.5a1.284,1.284,0,0,0,.287-1.271L7.793,7.454a.966.966,0,0,0-1.05-.548A8.931,8.931,0,0,0,3.039,8.552Z" transform="translate(251 14389.872)" fill="none" stroke="#fff" stroke-linecap="round" stroke-linejoin="round" stroke-width="1.5"/></g></svg>