<svg xmlns="http://www.w3.org/2000/svg" width="359.408" height="42.432" viewBox="0 0 359.408 42.432"><path d="M230.4,34.365h6.322l7.008,11.273,7.007-11.273h6.322V61.024h-5.827v-17.4l-7.5,11.388h-.153l-7.426-11.274V61.024H230.4Z" transform="translate(-174.024 -25.956)" fill="#2e2624"/><path d="M365.5,34.365h20.109v5.218H371.331v5.408H383.9v5.218H371.331v5.6H385.8v5.218H365.5Z" transform="translate(-276.066 -25.956)" fill="#2e2624"/><path d="M469.786,34.365h12.187c3.39,0,6.017.952,7.769,2.7a8.368,8.368,0,0,1,2.285,6.094v.076a8.279,8.279,0,0,1-5.712,8.265l6.512,9.521h-6.855l-5.713-8.531h-4.608v8.531h-5.865Zm11.806,12.949c2.856,0,4.494-1.524,4.494-3.771v-.076c0-2.514-1.752-3.808-4.608-3.808h-5.827v7.655Z" transform="translate(-354.828 -25.956)" fill="#2e2624"/><path d="M577.491,46.361v-.076a13.55,13.55,0,0,1,13.9-13.786A13.754,13.754,0,0,1,601.9,36.611l-3.732,4.3a9.84,9.84,0,0,0-6.818-3.008c-4.494,0-7.731,3.732-7.731,8.3v.076c0,4.57,3.161,8.379,7.731,8.379,3.047,0,4.913-1.219,7.008-3.123l3.733,3.771a13.628,13.628,0,0,1-10.931,4.76,13.456,13.456,0,0,1-13.672-13.71" transform="translate(-436.178 -24.546)" fill="#2e2624"/><path d="M721.206,34.365h18.965v1.828H723.186V46.666h15.272v1.828H723.186V59.2h17.176v1.828H721.206Z" transform="translate(-544.725 -25.956)" fill="#2e2624"/><path d="M818.635,47.862v-.076c0-6.322,4.761-10.168,9.446-10.168a9.344,9.344,0,0,1,8,4.646V29.7h1.866V57.5h-1.866V53.156c-1.676,2.552-4.152,4.8-8,4.8-4.685,0-9.446-3.77-9.446-10.092m17.558-.038v-.076a8.111,8.111,0,0,0-7.922-8.341c-4.228,0-7.617,3.085-7.617,8.3v.076c0,5.1,3.542,8.379,7.617,8.379a8.136,8.136,0,0,0,7.922-8.341" transform="translate(-618.314 -22.429)" fill="#2e2624"/><path d="M924.942,75.818V63.936h1.866V75.475c0,4,2.248,6.627,6.17,6.627a6.659,6.659,0,0,0,6.741-6.932V63.936h1.866V83.359h-1.866V79.741a7.605,7.605,0,0,1-7.007,4.075c-4.913,0-7.77-3.351-7.77-8" transform="translate(-698.608 -48.291)" fill="#2e2624"/><path d="M1016.459,72.313v-.076a10.087,10.087,0,0,1,9.9-10.168,10.193,10.193,0,0,1,7.769,3.58L1032.8,67.02c-1.674-1.714-3.579-3.2-6.474-3.2a8.025,8.025,0,0,0-7.846,8.341v.076a8.168,8.168,0,0,0,8,8.417,8.679,8.679,0,0,0,6.513-3.237l1.294,1.143a9.961,9.961,0,0,1-17.824-6.246" transform="translate(-767.729 -46.881)" fill="#2e2624"/><path d="M1104.243,76.781V76.7c0-4.037,3.465-6.322,8.493-6.322a23.4,23.4,0,0,1,6.437.837v-.837c0-3.923-2.4-5.942-6.4-5.942A13.015,13.015,0,0,0,1106.681,66l-.686-1.637a15.6,15.6,0,0,1,6.893-1.676,8.394,8.394,0,0,1,6.132,2.133A7.375,7.375,0,0,1,1121,70.306V82.417h-1.827V79.18a8.835,8.835,0,0,1-7.426,3.694c-3.619,0-7.5-2.056-7.5-6.094m14.967-1.638V72.934a25.731,25.731,0,0,0-6.588-.876c-4.114,0-6.4,1.828-6.4,4.532v.076c0,2.818,2.667,4.456,5.638,4.456,3.959,0,7.349-2.438,7.349-5.98" transform="translate(-834.033 -47.349)" fill="#2e2624"/><path d="M1195.621,59.209V46.489h-2.82V44.775h2.82V38.567h1.865v6.208h6.817v1.714h-6.817v12.53c0,2.78,1.638,3.77,3.885,3.77a6.5,6.5,0,0,0,2.857-.686v1.752a7.139,7.139,0,0,1-3.162.686c-3.008,0-5.445-1.638-5.445-5.332" transform="translate(-900.922 -29.13)" fill="#2e2624"/><path d="M1262.532,32.807h2.323v2.552h-2.323Zm.228,7.617h1.866V59.848h-1.866Z" transform="translate(-953.587 -24.779)" fill="#2e2624"/><path d="M1295.682,72.313v-.076A10.036,10.036,0,0,1,1305.7,62.069a9.931,9.931,0,0,1,9.94,10.092v.076a10.036,10.036,0,0,1-10.015,10.169,9.931,9.931,0,0,1-9.941-10.092m17.938,0v-.076a8.144,8.144,0,0,0-8-8.416c-4.609,0-7.923,3.77-7.923,8.341v.076a8.144,8.144,0,0,0,8,8.417c4.609,0,7.921-3.77,7.921-8.341" transform="translate(-978.627 -46.881)" fill="#2e2624"/><path d="M1400.742,62.526h1.866v3.618a7.606,7.606,0,0,1,7.008-4.075c4.912,0,7.769,3.351,7.769,8V81.949h-1.866V70.409c0-4-2.247-6.627-6.169-6.627a6.659,6.659,0,0,0-6.742,6.932V81.949h-1.866Z" transform="translate(-1057.977 -46.881)" fill="#2e2624"/><path d="M62.557,75.95a1.46,1.46,0,0,1-1.46-1.46V48.529L32.428,67.2a1.46,1.46,0,0,1-1.593-2.447L61.761,44.612a1.46,1.46,0,0,1,2.256,1.224V74.49a1.46,1.46,0,0,1-1.46,1.46" transform="translate(-22.788 -33.517)" fill="#2e2624"/><path d="M31.632,23.063a1.46,1.46,0,0,1-.8-2.684L61.76.236a1.46,1.46,0,0,1,1.593,2.448L32.427,22.827a1.454,1.454,0,0,1-.8.236" transform="translate(-22.787 0)" fill="#2e2624"/><path d="M1.46,42.432A1.46,1.46,0,0,1,0,40.972V1.46A1.46,1.46,0,0,1,2.247.231L14.374,8A1.46,1.46,0,1,1,12.8,10.455L2.92,4.129V40.972a1.46,1.46,0,0,1-1.46,1.46" transform="translate(0 0)" fill="#e84730"/></svg>