<svg xmlns="http://www.w3.org/2000/svg" width="185.382" height="45" viewBox="0 0 185.382 45">
  <g id="グループ_614" data-name="グループ 614" transform="translate(-809 -989)">
    <path id="パス_31" data-name="パス 31" d="M73.544,34.9V16.439L65.587,28.516h-.162L57.549,16.56V34.9H51.41V6.624h6.7L65.547,18.58,72.979,6.624h6.7V34.9Z" transform="translate(826.807 991.294)" fill="#241e1c"/>
    <path id="パス_32" data-name="パス 32" d="M77.449,34.9V6.624H98.737v5.534H83.59v5.736H96.918v5.534H83.59v5.938H98.937V34.9Z" transform="translate(835.826 991.294)" fill="#241e1c"/>
    <path id="パス_33" data-name="パス 33" d="M114.716,34.9l-6.059-9.048H103.77V34.9H97.55V6.624h12.925q5.049,0,7.856,2.464a8.662,8.662,0,0,1,2.807,6.867v.081a8.866,8.866,0,0,1-1.676,5.594A9.709,9.709,0,0,1,115.08,24.8l6.907,10.1Zm.121-18.62a3.607,3.607,0,0,0-1.293-3.029,5.71,5.71,0,0,0-3.595-1.01h-6.18v8.119h6.3a5.165,5.165,0,0,0,3.534-1.091,3.7,3.7,0,0,0,1.232-2.908Z" transform="translate(842.789 991.294)" fill="#241e1c"/>
    <path id="パス_34" data-name="パス 34" d="M142.141,32.559a13.489,13.489,0,0,1-2.565,1.6,13.274,13.274,0,0,1-3.05,1.01,18.377,18.377,0,0,1-3.717.343,14.64,14.64,0,0,1-5.776-1.131,13.94,13.94,0,0,1-7.634-7.715,14.893,14.893,0,0,1-1.089-5.7v-.081a14.742,14.742,0,0,1,1.089-5.675,14.59,14.59,0,0,1,3.029-4.645,14.049,14.049,0,0,1,4.646-3.151,15.115,15.115,0,0,1,5.978-1.151,18.709,18.709,0,0,1,3.615.323,15.191,15.191,0,0,1,2.969.889A12.909,12.909,0,0,1,142.1,8.849a16.749,16.749,0,0,1,2.1,1.777l-3.957,4.564a14.962,14.962,0,0,0-3.373-2.343A8.6,8.6,0,0,0,133.012,12a7.885,7.885,0,0,0-3.293.687,7.8,7.8,0,0,0-2.6,1.9,8.846,8.846,0,0,0-1.7,2.807,9.506,9.506,0,0,0-.606,3.413v.081a9.664,9.664,0,0,0,.606,3.433,8.995,8.995,0,0,0,1.676,2.827,7.774,7.774,0,0,0,5.917,2.625,8.663,8.663,0,0,0,4.1-.889,15.863,15.863,0,0,0,3.331-2.423l3.96,4a20.491,20.491,0,0,1-2.262,2.1" transform="translate(849.979 991.17)" fill="#241e1c"/>
    <path id="パス_35" data-name="パス 35" d="M40.161,42.037a1.549,1.549,0,0,1-1.548-1.548V12.957L8.21,32.76a1.548,1.548,0,1,1-1.691-2.594L39.315,8.8a1.549,1.549,0,0,1,2.394,1.3V40.489a1.549,1.549,0,0,1-1.548,1.548" transform="translate(811.014 991.962)" fill="#040c4d"/>
    <path id="パス_36" data-name="パス 36" d="M7.366,24.458a1.548,1.548,0,0,1-.847-2.845L39.315.25a1.548,1.548,0,1,1,1.691,2.594L8.21,24.208a1.546,1.546,0,0,1-.844.25" transform="translate(811.014 989)" fill="#040c4d"/>
    <path id="パス_37" data-name="パス 37" d="M1.548,45A1.549,1.549,0,0,1,0,43.452V1.548A1.548,1.548,0,0,1,2.383.245L15.244,8.479a1.548,1.548,0,1,1-1.67,2.608L3.1,4.378V43.452A1.549,1.549,0,0,1,1.548,45" transform="translate(809 989)" fill="#ffaf00"/>
  </g>
</svg>
