<svg xmlns="http://www.w3.org/2000/svg" width="227.552" height="300.6" viewBox="0 0 227.552 300.6"><g transform="translate(-70.448 -289)"><g transform="translate(0 -1359)"><rect width="220" height="34" transform="translate(78 1648)" fill="#333"/><path d="M2,2V32H218V2H2M0,0H220V34H0Z" transform="translate(78 1648)" fill="#333"/><path d="M-95,0V-11.856h2.624l2.016,5.568q.192.528.368,1.112t.352,1.144h.08q.192-.56.368-1.144t.336-1.112l1.984-5.568h2.624V0h-2.16V-4.944q0-.576.048-1.264t.12-1.384q.072-.7.136-1.24h-.064l-.976,2.784-1.824,4.976h-1.36l-1.84-4.976-.944-2.784h-.064q.064.544.128,1.24t.12,1.384q.056.688.056,1.264V0Zm14.448,0V-11.856h7.264v1.984h-4.9v2.736h4.144v1.984h-4.144v3.168h5.072V0Zm10.64,0V-11.856H-65.8a7.325,7.325,0,0,1,2.272.328,3.159,3.159,0,0,1,1.6,1.12,3.518,3.518,0,0,1,.592,2.152A3.651,3.651,0,0,1-61.928-6.1a3.425,3.425,0,0,1-1.6,1.232A6.227,6.227,0,0,1-65.8-4.48h-1.744V0Zm2.368-6.352h1.536a2.754,2.754,0,0,0,1.752-.48,1.714,1.714,0,0,0,.6-1.424,1.45,1.45,0,0,0-.6-1.336,3.328,3.328,0,0,0-1.752-.376h-1.536ZM-63.48,0l-2.752-5.088,1.664-1.472L-60.824,0Zm10.1.224a5.571,5.571,0,0,1-2.1-.392A4.832,4.832,0,0,1-57.2-1.344a5.586,5.586,0,0,1-1.168-1.92,7.43,7.43,0,0,1-.424-2.608,7.372,7.372,0,0,1,.432-2.616,5.713,5.713,0,0,1,1.192-1.944,5.115,5.115,0,0,1,1.76-1.216,5.464,5.464,0,0,1,2.12-.416,4.368,4.368,0,0,1,2.024.456,5.125,5.125,0,0,1,1.448,1.064l-1.232,1.5a3.855,3.855,0,0,0-.984-.72,2.631,2.631,0,0,0-1.208-.272,2.778,2.778,0,0,0-1.608.488,3.205,3.205,0,0,0-1.112,1.4,5.437,5.437,0,0,0-.4,2.192,5.853,5.853,0,0,0,.376,2.216A3.145,3.145,0,0,0-54.912-2.32a2.726,2.726,0,0,0,1.624.5,2.805,2.805,0,0,0,1.368-.328,4.046,4.046,0,0,0,1.064-.84l1.264,1.472a4.945,4.945,0,0,1-1.68,1.3A4.94,4.94,0,0,1-53.384.224ZM-42.472,0V-11.856h7.264v1.984h-4.9v2.736h4.144v1.984H-40.1v3.168h5.072V0Zm13.328.224a3.375,3.375,0,0,1-1.944-.56A3.582,3.582,0,0,1-32.36-1.952a6.453,6.453,0,0,1-.448-2.528,5.439,5.439,0,0,1,.536-2.5,4.2,4.2,0,0,1,1.4-1.624,3.235,3.235,0,0,1,1.824-.576,2.787,2.787,0,0,1,1.272.264,4.371,4.371,0,0,1,1,.712l-.08-1.408v-3.152H-24.5V0h-1.92L-26.6-.928h-.064A4.892,4.892,0,0,1-27.8-.112,2.853,2.853,0,0,1-29.144.224Zm.608-1.936a1.869,1.869,0,0,0,.888-.216,2.541,2.541,0,0,0,.792-.712V-6.576a2.447,2.447,0,0,0-.824-.52,2.52,2.52,0,0,0-.856-.152,1.521,1.521,0,0,0-.92.312,2.135,2.135,0,0,0-.68.92,3.884,3.884,0,0,0-.256,1.5,4.8,4.8,0,0,0,.216,1.552,1.909,1.909,0,0,0,.632.936A1.632,1.632,0,0,0-28.536-1.712ZM-18.52.224a2.382,2.382,0,0,1-2.112-.952,4.617,4.617,0,0,1-.656-2.648V-8.96h2.336v5.3a2.57,2.57,0,0,0,.3,1.456,1.127,1.127,0,0,0,.976.416,1.713,1.713,0,0,0,.952-.264,3.583,3.583,0,0,0,.856-.856V-8.96h2.352V0h-1.92l-.176-1.3h-.064a5.221,5.221,0,0,1-1.248,1.1A2.979,2.979,0,0,1-18.52.224Zm12.128,0a4.444,4.444,0,0,1-2.224-.56,4.029,4.029,0,0,1-1.568-1.608A5.2,5.2,0,0,1-10.76-4.48a4.823,4.823,0,0,1,.632-2.536,4.3,4.3,0,0,1,1.68-1.608,4.73,4.73,0,0,1,2.264-.56,3.642,3.642,0,0,1,1.472.28,4.18,4.18,0,0,1,1.136.728L-4.7-6.688a2.4,2.4,0,0,0-.656-.432,1.769,1.769,0,0,0-.7-.144,2.139,2.139,0,0,0-1.208.344,2.214,2.214,0,0,0-.8.968,3.571,3.571,0,0,0-.28,1.472,3.571,3.571,0,0,0,.28,1.472,2.257,2.257,0,0,0,.784.968A1.982,1.982,0,0,0-6.136-1.7,2.18,2.18,0,0,0-5.208-1.9a3.762,3.762,0,0,0,.816-.512l.928,1.552A4.179,4.179,0,0,1-4.88-.04,4.681,4.681,0,0,1-6.392.224Zm7.344,0A2.733,2.733,0,0,1-.432-.12a2.379,2.379,0,0,1-.928-.952,2.851,2.851,0,0,1-.328-1.376A2.5,2.5,0,0,1-.456-4.664a9.356,9.356,0,0,1,3.92-1.08,2.248,2.248,0,0,0-.16-.792,1.184,1.184,0,0,0-.472-.552A1.645,1.645,0,0,0,1.944-7.3a3.33,3.33,0,0,0-1.232.24A7.875,7.875,0,0,0-.52-6.432L-1.352-8a7.986,7.986,0,0,1,1.12-.592,8.371,8.371,0,0,1,1.248-.424,5.46,5.46,0,0,1,1.36-.168,3.726,3.726,0,0,1,1.9.448A2.767,2.767,0,0,1,5.432-7.408a5.444,5.444,0,0,1,.384,2.176V0H3.9l-.16-.96h-.08a5.73,5.73,0,0,1-1.248.848A3.21,3.21,0,0,1,.952.224Zm.784-1.84a1.8,1.8,0,0,0,.9-.232A3.938,3.938,0,0,0,3.464-2.5V-4.288a7.614,7.614,0,0,0-1.728.368,2.146,2.146,0,0,0-.912.568,1.113,1.113,0,0,0-.272.728.888.888,0,0,0,.328.768A1.415,1.415,0,0,0,1.736-1.616ZM11.9.224A3.107,3.107,0,0,1,10.184-.2,2.371,2.371,0,0,1,9.24-1.376,4.86,4.86,0,0,1,8.952-3.12V-7.1H7.688V-8.848L9.08-8.96l.272-2.416h1.936V-8.96h2.224V-7.1H11.288v3.968A1.7,1.7,0,0,0,11.608-2a1.144,1.144,0,0,0,.912.368,1.8,1.8,0,0,0,.464-.064q.24-.064.416-.128l.4,1.712q-.368.112-.84.224A4.621,4.621,0,0,1,11.9.224ZM16.152,0V-8.96H18.5V0Zm1.184-10.416a1.394,1.394,0,0,1-.992-.344,1.219,1.219,0,0,1-.368-.936,1.225,1.225,0,0,1,.368-.928,1.375,1.375,0,0,1,.992-.352,1.388,1.388,0,0,1,.976.352,1.2,1.2,0,0,1,.384.928,1.193,1.193,0,0,1-.384.936A1.408,1.408,0,0,1,17.336-10.416ZM25.56.224a4.186,4.186,0,0,1-2.1-.56,4.268,4.268,0,0,1-1.592-1.608,4.974,4.974,0,0,1-.608-2.536,4.974,4.974,0,0,1,.608-2.536,4.268,4.268,0,0,1,1.592-1.608,4.186,4.186,0,0,1,2.1-.56,4.16,4.16,0,0,1,1.616.32,4.3,4.3,0,0,1,1.376.92,4.3,4.3,0,0,1,.96,1.472,5.287,5.287,0,0,1,.352,1.992,4.974,4.974,0,0,1-.608,2.536A4.268,4.268,0,0,1,27.664-.336,4.186,4.186,0,0,1,25.56.224Zm0-1.92a1.585,1.585,0,0,0,1.032-.344,2.089,2.089,0,0,0,.64-.968,4.507,4.507,0,0,0,.216-1.472,4.507,4.507,0,0,0-.216-1.472,2.089,2.089,0,0,0-.64-.968,1.585,1.585,0,0,0-1.032-.344,1.585,1.585,0,0,0-1.032.344,2.089,2.089,0,0,0-.64.968,4.507,4.507,0,0,0-.216,1.472,4.507,4.507,0,0,0,.216,1.472,2.089,2.089,0,0,0,.64.968A1.585,1.585,0,0,0,25.56-1.7ZM32.632,0V-8.96h1.92l.176,1.184h.048a6.85,6.85,0,0,1,1.3-.992,3.116,3.116,0,0,1,1.616-.416,2.382,2.382,0,0,1,2.112.952,4.617,4.617,0,0,1,.656,2.648V0H38.1V-5.3a2.627,2.627,0,0,0-.3-1.456,1.105,1.105,0,0,0-.968-.416,1.753,1.753,0,0,0-.952.256,5.36,5.36,0,0,0-.9.752V0ZM47.848-9.008H61.88v3.5H60.008v-1.84H49.656V-5.5H47.848Zm2.32,2.9H58.6v1.776H50.168Zm9.84-7.568,1.3,1.552q-1.36.256-2.936.456t-3.264.344q-1.688.144-3.384.24t-3.3.128a3.747,3.747,0,0,0-.152-.832,8.277,8.277,0,0,0-.264-.8q1.584-.048,3.24-.144t3.248-.232q1.592-.136,3-.32T60.008-13.68ZM49.416-10.656l1.664-.464a8.929,8.929,0,0,1,.552.96,5.371,5.371,0,0,1,.376.928l-1.776.512a4.689,4.689,0,0,0-.32-.944A10.738,10.738,0,0,0,49.416-10.656Zm4.224-.336,1.7-.384q.24.5.456,1.072a5.047,5.047,0,0,1,.28,1.008l-1.808.448a5.971,5.971,0,0,0-.232-1.04A11.407,11.407,0,0,0,53.64-10.992Zm5.072-.416,2.032.48q-.272.512-.56,1.008t-.576.936q-.288.44-.528.776L57.5-8.656q.224-.4.456-.872t.432-.968Q58.584-10.992,58.712-11.408Zm-.816,5.3h.4l.336-.064,1.312.784A9.255,9.255,0,0,1,58.08-2.68,10.841,10.841,0,0,1,55.448-.752,16.789,16.789,0,0,1,52.224.528,25.79,25.79,0,0,1,48.6,1.28a4.39,4.39,0,0,0-.288-.568Q48.12.384,47.9.072a4.105,4.105,0,0,0-.416-.5,28.936,28.936,0,0,0,3.5-.576,15.356,15.356,0,0,0,3.024-1.016,8.9,8.9,0,0,0,2.352-1.56A6.431,6.431,0,0,0,57.9-5.792ZM52.072-4.8a7.944,7.944,0,0,0,2.376,2.072,14.272,14.272,0,0,0,3.44,1.416,24.048,24.048,0,0,0,4.3.752,3.583,3.583,0,0,0-.432.544q-.224.336-.424.664a6.417,6.417,0,0,0-.328.6A22.46,22.46,0,0,1,56.616.272,14,14,0,0,1,53.064-1.5a11.085,11.085,0,0,1-2.672-2.632Zm18.064-7.68H78.92v1.36H70.136ZM69.72-8.464h9.488v1.456H69.72ZM69.7-2.416H79.24v1.5H69.7Zm1.632-1.952h6.4v1.2h-6.4Zm-.9-6.112h8.128v1.328H70.44Zm1.376-3.12h1.712v5.776H71.816Zm3.568,0h1.728v5.776H75.384Zm-1.76,5.872h1.568v6.192H73.624Zm3.072,1.3h1.728V-.256a2.343,2.343,0,0,1-.144.928,1.068,1.068,0,0,1-.544.512,2.99,2.99,0,0,1-1,.216q-.6.04-1.416.04a3.82,3.82,0,0,0-.16-.752,6.363,6.363,0,0,0-.272-.736q.464.016.92.024t.616.008a.362.362,0,0,0,.216-.072A.253.253,0,0,0,76.7-.272Zm-6.208,0H77.32V-5.1H72.1V1.44H70.488ZM64.84-8.576h4.4V-7.12h-4.4Zm.08-4.512h4.256v1.44H64.92Zm-.08,6.752h4.4V-4.88h-4.4Zm-.7-4.544H69.72v1.52H64.136Zm1.6,6.816H69.3V.8H65.736V-.72H67.7V-2.544H65.736Zm-.944,0h1.584V1.424H64.792ZM83.5-13.52h1.76V1.392H83.5ZM81.064-8.256h6.56v1.792h-6.56Zm2.08.944,1.072.528q-.208.8-.48,1.688t-.608,1.768q-.336.88-.7,1.656A8.608,8.608,0,0,1,81.64-.32a4.99,4.99,0,0,0-.232-.664q-.152-.36-.32-.712T80.776-2.3a8.811,8.811,0,0,0,.936-1.464q.456-.872.84-1.808A13.69,13.69,0,0,0,83.144-7.312Zm2.1.928q.128.128.376.4t.552.616q.3.344.584.688t.512.616a4.943,4.943,0,0,1,.328.416l-1.168,1.5q-.16-.352-.416-.824t-.56-.976q-.3-.5-.592-.952t-.5-.736Zm-4.192-5.9,1.344-.352a12.868,12.868,0,0,1,.376,1.248q.168.672.28,1.312t.16,1.152l-1.44.384a9.221,9.221,0,0,0-.12-1.16q-.1-.648-.256-1.328A12.831,12.831,0,0,0,81.048-12.288Zm5.264-.432,1.616.352q-.192.656-.416,1.344T87.064-9.7q-.224.632-.416,1.112l-1.216-.352q.176-.512.344-1.176t.312-1.352Q86.232-12.16,86.312-12.72Zm6.064-.88h1.792V1.424H92.376ZM87.592-3.584l8.224-1.472L96.1-3.28,87.88-1.792Zm.9-7.84.944-1.3q.448.256.936.592t.928.688a4.985,4.985,0,0,1,.7.656L91-9.344a4.594,4.594,0,0,0-.664-.688q-.424-.368-.9-.736T88.488-11.424Zm-.72,4.032.9-1.376a10.8,10.8,0,0,1,.992.568q.512.328.976.656a5.068,5.068,0,0,1,.752.632l-.976,1.536a5.114,5.114,0,0,0-.7-.664q-.448-.36-.952-.72A11.2,11.2,0,0,0,87.768-7.392Z" transform="translate(188.86 1670.583)" fill="#fff"/></g><g transform="translate(2759 -3715)"><path d="M-32.02-12.576h12.544v1.9H-30.1v12.1h-1.92Zm11.632,0h1.936V-.816A3.089,3.089,0,0,1-18.644.392a1.357,1.357,0,0,1-.688.68,3.444,3.444,0,0,1-1.24.3q-.744.056-1.816.056A4.9,4.9,0,0,0-22.548.8Q-22.66.448-22.8.1a5.8,5.8,0,0,0-.288-.6q.464.032.936.04t.84.008h.512a.527.527,0,0,0,.32-.1.387.387,0,0,0,.1-.3ZM-30.98-6.624h11.536v1.888H-30.98Zm4.672-4.912h1.92V-5.68h-1.92ZM-8.544-4.56A8.076,8.076,0,0,1-8.22-6.912a7.791,7.791,0,0,1,.864-1.92A8.614,8.614,0,0,1-6.18-10.32l1.14.5A8.833,8.833,0,0,0-6.126-8.394,7.333,7.333,0,0,0-6.9-6.66a7.2,7.2,0,0,0-.288,2.1A7.221,7.221,0,0,0-6.9-2.466,7.191,7.191,0,0,0-6.126-.732,9.451,9.451,0,0,0-5.04.7l-1.14.5A8.614,8.614,0,0,1-7.356-.288a7.791,7.791,0,0,1-.864-1.92A8.076,8.076,0,0,1-8.544-4.56ZM1.4-9.66l1.188-.516a10.811,10.811,0,0,1,.654,1.038,4.714,4.714,0,0,1,.438,1l-1.26.564A6.062,6.062,0,0,0,2.01-8.58,12.232,12.232,0,0,0,1.4-9.66Zm4.4-.552,1.476.492q-.324.564-.648,1.1t-.612.936L4.812-8.136q.18-.288.366-.648t.354-.732A7.351,7.351,0,0,0,5.808-10.212Zm-3.4,6.288H3.828a13.368,13.368,0,0,1-.2,1.56A5.915,5.915,0,0,1,3.18-.978,3.973,3.973,0,0,1,2.346.186,4.756,4.756,0,0,1,.96,1.092a2.712,2.712,0,0,0-.366-.6,3.98,3.98,0,0,0-.486-.54,3.693,3.693,0,0,0,1.158-.7,2.951,2.951,0,0,0,.672-.906,4.1,4.1,0,0,0,.33-1.068Q2.364-3.288,2.412-3.924Zm2.04-.18H5.844V-.78a1.118,1.118,0,0,0,.03.342q.03.066.15.066h.384a.154.154,0,0,0,.144-.1,1.3,1.3,0,0,0,.072-.4q.024-.306.036-.942a1.5,1.5,0,0,0,.354.228,4.308,4.308,0,0,0,.462.192q.24.084.408.132a5.653,5.653,0,0,1-.2,1.326,1.248,1.248,0,0,1-.42.666,1.185,1.185,0,0,1-.7.192H5.772A1.678,1.678,0,0,1,4.95.762.856.856,0,0,1,4.56.234a3.683,3.683,0,0,1-.108-1ZM2.8-6.54v1.632H5.772V-6.54ZM1.428-7.8H7.2v4.152H1.428ZM-1.68-9.072H-.288V1.068H-1.68ZM-3.408-6.816H1v1.332h-4.4Zm1.8.54.84.36q-.168.648-.408,1.344T-1.7-3.2q-.288.678-.612,1.278A7.364,7.364,0,0,1-2.988-.876a5.69,5.69,0,0,0-.306-.7q-.2-.39-.366-.666a6.927,6.927,0,0,0,.618-.846q.306-.486.582-1.038t.492-1.1Q-1.752-5.784-1.608-6.276ZM.18-10.068l.972,1.1q-.612.228-1.344.42t-1.494.33q-.762.138-1.458.234a3.636,3.636,0,0,0-.168-.558,4.892,4.892,0,0,0-.24-.546q.66-.108,1.35-.258t1.308-.342Q-.276-9.876.18-10.068Zm-.492,4.92a4.114,4.114,0,0,1,.33.306q.222.222.48.486T.96-3.87q.2.222.3.318L.432-2.412Q.324-2.64.15-2.928t-.372-.6q-.2-.312-.39-.594t-.336-.462ZM13.548-9.7h2.544v1.368H13.548Zm1.812,0h1.512a22.939,22.939,0,0,0,.264,2.448,10.808,10.808,0,0,0,.576,2.154A6.294,6.294,0,0,0,18.72-3.348a4.842,4.842,0,0,0,1.572,1.236,3.317,3.317,0,0,0-.39.312q-.21.192-.408.4a4.2,4.2,0,0,0-.33.39,5.77,5.77,0,0,1-1.608-1.41A7.335,7.335,0,0,1,16.506-4.3a11.977,11.977,0,0,1-.612-2.244A23.16,23.16,0,0,1,15.6-9.048h-.24Zm-.036,2.508,1.476.2a11.97,11.97,0,0,1-1.212,3.54A7.166,7.166,0,0,1,13.44-1a3.794,3.794,0,0,0-.306-.348q-.2-.2-.42-.414a3.826,3.826,0,0,0-.39-.33A5.44,5.44,0,0,0,14.31-4.152,9.393,9.393,0,0,0,15.324-7.188Zm-3.3,1.668v4.428h-1.4v-3.1H9.228V-5.52Zm0,3.8a2.181,2.181,0,0,0,1.044.864,4.708,4.708,0,0,0,1.608.312q.528.024,1.254.03t1.53-.006q.8-.012,1.578-.048t1.374-.084q-.072.168-.168.432t-.174.54a4.641,4.641,0,0,0-.114.492q-.54.036-1.236.054T17.292.894Q16.56.9,15.876.888T14.652.852A6.119,6.119,0,0,1,12.768.51a3.394,3.394,0,0,1-1.38-.99q-.4.336-.81.7T9.672.96L8.964-.54q.42-.252.876-.552t.876-.624ZM9.24-9.048l1.068-.864a7.936,7.936,0,0,1,.756.558q.384.318.72.648a5.235,5.235,0,0,1,.54.606l-1.14.96a4.075,4.075,0,0,0-.5-.624q-.318-.336-.7-.678T9.24-9.048Zm16.1,4.488a8.076,8.076,0,0,1-.324,2.352,7.931,7.931,0,0,1-.858,1.92A8.1,8.1,0,0,1,22.98,1.2L21.84.7A9.451,9.451,0,0,0,22.926-.732,7.191,7.191,0,0,0,23.7-2.466a7.221,7.221,0,0,0,.288-2.094,7.2,7.2,0,0,0-.288-2.1,7.333,7.333,0,0,0-.774-1.734A8.834,8.834,0,0,0,21.84-9.816l1.14-.5a8.1,8.1,0,0,1,1.182,1.488,7.931,7.931,0,0,1,.858,1.92A8.076,8.076,0,0,1,25.344-4.56Z" transform="translate(-2504 4070)" fill="#333"/><path d="M10.464.384c5.12,0,8.352-3.168,8.352-7.552v-.064c0-4.32-3.136-6.016-6.368-6.528l6.016-5.824V-23.3H2.784v4.224h9.344L6.4-13.248l.8,3.1H9.28c2.912,0,4.7,1.12,4.7,3.1v.064C13.984-5.184,12.544-4,10.528-4a7.168,7.168,0,0,1-5.7-2.848L1.44-3.648A11.192,11.192,0,0,0,10.464.384ZM21.056,0H38.208V-4.256H27.872l4-3.136c4.128-3.232,6.112-5.184,6.112-9.024v-.064c0-4.32-3.2-7.136-7.968-7.136-4.16,0-6.368,1.7-8.64,4.832l3.456,2.752c1.728-2.144,3.008-3.2,4.864-3.2a3,3,0,0,1,3.264,3.168c0,1.952-1.152,3.264-4.1,5.728L21.056-3.9Zm20.48,0H47.1L57.536-19.584V-23.3H40.864v4.256h11.1Zm14.4,5.28c3.84-.1,5.952-1.824,5.952-6.08V-5.184H56.7V0h1.984c.16,1.856-.928,3.008-3.168,3.264ZM73.152.32c5.12,0,8.96-2.528,8.96-6.816V-6.56c0-2.784-1.44-4.288-3.84-5.5a5.591,5.591,0,0,0,3.04-5.12v-.064c0-3.616-3.3-6.368-8.16-6.368-4.9,0-8.192,2.784-8.192,6.368v.064a5.561,5.561,0,0,0,3.072,5.12c-2.5,1.12-3.872,2.784-3.872,5.632v.064C64.16-2.336,68,.32,73.152.32Zm0-14.048c-2.112,0-3.52-1.248-3.52-2.976v-.064c0-1.5,1.344-2.784,3.52-2.784s3.488,1.312,3.488,2.816v.064C76.64-14.944,75.232-13.728,73.152-13.728Zm0,9.984c-2.656,0-4.224-1.344-4.224-3.008v-.064c0-1.856,1.792-2.976,4.224-2.976,2.4,0,4.192,1.12,4.192,2.976v.064C77.344-5.056,75.776-3.744,73.152-3.744ZM94.368.384c6.208,0,10.336-5.312,10.336-12.032v-.064c0-6.752-4.128-11.968-10.272-11.968-6.176,0-10.336,5.312-10.336,12.032v.064C84.1-4.832,88.16.384,94.368.384Zm.064-4.416c-3.2,0-5.28-3.3-5.28-7.616v-.064c0-4.32,2.048-7.552,5.216-7.552s5.28,3.328,5.28,7.616v.064C99.648-7.3,97.632-4.032,94.432-4.032ZM117.28.384c6.208,0,10.336-5.312,10.336-12.032v-.064c0-6.752-4.128-11.968-10.272-11.968-6.176,0-10.336,5.312-10.336,12.032v.064C107.008-4.832,111.072.384,117.28.384Zm.064-4.416c-3.2,0-5.28-3.3-5.28-7.616v-.064c0-4.32,2.048-7.552,5.216-7.552s5.28,3.328,5.28,7.616v.064C122.56-7.3,120.544-4.032,117.344-4.032Z" transform="translate(-2668 4072)" fill="#333"/></g><g transform="translate(3155 -3090)"><rect width="45" height="168" transform="translate(-2993 3454)" fill="#e84830" opacity="0.1"/><path d="M44.5,0,89,42H0Z" transform="translate(-2926 3664) rotate(180)" fill="#e84830" opacity="0.1"/></g><g transform="translate(0 -25)"><g transform="translate(-6 -1348)"><path d="M7.56,0h6.08V-29.32H9.44L1.16-26.84,2.44-21.8l5.12-1.28ZM23.2,0h6.08V-29.32h-4.2L16.8-26.84l1.28,5.04,5.12-1.28ZM44.12-5.08a9.54,9.54,0,0,1-6.4-2.56L34.48-2.96A13.9,13.9,0,0,0,44,.48c8.16,0,12.64-6.44,12.64-15.88v-.08c0-5.72-1.36-8.92-3.44-11-2.2-2.16-4.48-3.12-8.36-3.12-6.52,0-11.04,4.32-11.04,10.16v.08c0,5.84,4.08,9.36,10.36,9.36a8.446,8.446,0,0,0,6.08-2.24h.04C50.12-9.56,48.76-5.08,44.12-5.08Zm1.04-10.04c-3.24,0-5.24-1.84-5.24-4.52v-.08c0-2.68,1.84-4.64,5.12-4.64s5.28,1.96,5.28,4.64v.08C50.32-17.08,48.44-15.12,45.16-15.12ZM58.52,6.6c4.8-.12,7.44-2.28,7.44-7.6V-6.48H59.48V0h2.48c.2,2.32-1.16,3.76-3.96,4.08ZM68.96,0H90.4V-5.32H77.48l5-3.92c5.16-4.04,7.64-6.48,7.64-11.28v-.08c0-5.4-4-8.92-9.96-8.92-5.2,0-7.96,2.12-10.8,6.04l4.32,3.44c2.16-2.68,3.76-4,6.08-4a3.748,3.748,0,0,1,4.08,3.96c0,2.44-1.44,4.08-5.12,7.16L68.96-4.88ZM106.2.48c7.76,0,12.92-6.64,12.92-15.04v-.08c0-8.44-5.16-14.96-12.84-14.96-7.72,0-12.92,6.64-12.92,15.04v.08C93.36-6.04,98.44.48,106.2.48Zm.08-5.52c-4,0-6.6-4.12-6.6-9.52v-.08c0-5.4,2.56-9.44,6.52-9.44s6.6,4.16,6.6,9.52v.08C112.8-9.12,110.28-5.04,106.28-5.04ZM134.84.48c7.76,0,12.92-6.64,12.92-15.04v-.08c0-8.44-5.16-14.96-12.84-14.96C127.2-29.6,122-22.96,122-14.56v.08C122-6.04,127.08.48,134.84.48Zm.08-5.52c-4,0-6.6-4.12-6.6-9.52v-.08c0-5.4,2.56-9.44,6.52-9.44s6.6,4.16,6.6,9.52v.08C141.44-9.12,138.92-5.04,134.92-5.04Z" transform="translate(93 1956)" fill="#e84830"/><path d="M1.328-12.512H13.872v1.7H3.056V1.392H1.328Zm11.728,0H14.8V-.672A2.756,2.756,0,0,1,14.616.44a1.285,1.285,0,0,1-.664.632,3.505,3.505,0,0,1-1.192.256q-.728.048-1.816.048a3.056,3.056,0,0,0-.136-.552Q10.7.512,10.576.2a4.635,4.635,0,0,0-.256-.536q.48.032.96.032h1.376a.436.436,0,0,0,.312-.088.409.409,0,0,0,.088-.3ZM2.256-6.576H13.9v1.7H2.256ZM7.088-11.6H8.816v5.872H7.088ZM24.864-4.56a8.1,8.1,0,0,1,.312-2.3,7.739,7.739,0,0,1,.852-1.92,8.258,8.258,0,0,1,1.212-1.524l1.02.468a8.956,8.956,0,0,0-1.116,1.458,7.245,7.245,0,0,0-.774,1.746,7.257,7.257,0,0,0-.282,2.076,7.274,7.274,0,0,0,.282,2.07,7.109,7.109,0,0,0,.774,1.746A9.556,9.556,0,0,0,28.26.72l-1.02.468a8.725,8.725,0,0,1-1.212-1.53,7.632,7.632,0,0,1-.852-1.914A8.1,8.1,0,0,1,24.864-4.56Zm9.9-5.124,1.068-.456A10.067,10.067,0,0,1,36.48-9.1a5.682,5.682,0,0,1,.444.99l-1.14.516a5.284,5.284,0,0,0-.4-1.008A10.5,10.5,0,0,0,34.764-9.684Zm4.416-.492,1.32.444q-.312.552-.642,1.1t-.618.942L38.16-8.1q.18-.288.372-.648T38.9-9.48A6.527,6.527,0,0,0,39.18-10.176ZM35.8-3.936h1.272a12.547,12.547,0,0,1-.21,1.56A5.824,5.824,0,0,1,36.4-1,4.157,4.157,0,0,1,35.568.162a4.5,4.5,0,0,1-1.38.894,3.106,3.106,0,0,0-.336-.528,3.325,3.325,0,0,0-.432-.48A3.846,3.846,0,0,0,34.6-.666a3.1,3.1,0,0,0,.69-.924,4.3,4.3,0,0,0,.354-1.1A11.828,11.828,0,0,0,35.8-3.936Zm2-.144h1.248V-.66a.889.889,0,0,0,.036.33q.036.066.168.066h.516a.165.165,0,0,0,.15-.1A1.234,1.234,0,0,0,40-.78q.024-.312.036-.948a1.365,1.365,0,0,0,.318.2,4.281,4.281,0,0,0,.414.174q.216.078.372.126a6.244,6.244,0,0,1-.18,1.29,1.128,1.128,0,0,1-.39.642,1.139,1.139,0,0,1-.666.18h-.864a1.638,1.638,0,0,1-.768-.144A.772.772,0,0,1,37.9.264a3.255,3.255,0,0,1-.1-.912ZM35.964-6.624V-4.8h3.2V-6.624ZM34.74-7.752h5.712v4.08H34.74ZM31.7-9.084h1.26V1.032H31.7Zm-1.788,2.3h4.392v1.2H29.916Zm1.86.468.768.336q-.18.648-.426,1.338t-.54,1.368q-.294.678-.624,1.272a7.242,7.242,0,0,1-.678,1.026,3.71,3.71,0,0,0-.27-.63q-.186-.354-.342-.594a6.378,6.378,0,0,0,.636-.852q.312-.492.594-1.05t.51-1.128A10.628,10.628,0,0,0,31.776-6.312Zm1.776-3.708.876.984a13.356,13.356,0,0,1-1.326.42q-.726.192-1.482.33t-1.464.234a2.764,2.764,0,0,0-.144-.5,3.5,3.5,0,0,0-.216-.48q.672-.12,1.362-.264t1.314-.336Q33.1-9.828,33.552-10.02Zm-.624,4.872a4.227,4.227,0,0,1,.336.312l.492.492q.264.264.474.492t.294.336l-.732,1.008q-.108-.2-.288-.492t-.4-.6L32.7-4.188q-.192-.276-.336-.456ZM46.86-9.624h2.52v1.212H46.86Zm1.848,0h1.368a23.517,23.517,0,0,0,.288,2.478,10.769,10.769,0,0,0,.6,2.172A6.536,6.536,0,0,0,51.99-3.222a4.806,4.806,0,0,0,1.554,1.23q-.144.108-.336.276t-.372.36q-.18.192-.3.348a5.9,5.9,0,0,1-1.59-1.386,7.19,7.19,0,0,1-1.062-1.86,12.1,12.1,0,0,1-.63-2.25,23.5,23.5,0,0,1-.318-2.544h-.228ZM48.7-7.176l1.32.192a12.01,12.01,0,0,1-1.23,3.534A7.3,7.3,0,0,1,46.62-1a3.056,3.056,0,0,0-.27-.312q-.174-.18-.372-.366a3.171,3.171,0,0,0-.354-.294A5.6,5.6,0,0,0,47.646-4.08,9.907,9.907,0,0,0,48.7-7.176Zm-3.42,1.7v4.38h-1.26v-3.18H42.54v-1.2Zm0,3.816a2.255,2.255,0,0,0,1.086.9,5.038,5.038,0,0,0,1.662.336q.516.012,1.236.018t1.518-.006q.8-.012,1.554-.042t1.344-.078a3.393,3.393,0,0,0-.156.384q-.084.24-.15.486t-.1.438q-.54.036-1.224.048t-1.41.018q-.726.006-1.41,0T48.012.816A6.127,6.127,0,0,1,46.086.462,3.343,3.343,0,0,1,44.7-.552q-.4.36-.822.726T42.96.936L42.312-.408q.42-.252.888-.582t.9-.666ZM42.588-9.108l.96-.768a7.909,7.909,0,0,1,.762.564q.39.324.732.654a4.482,4.482,0,0,1,.546.618l-1.02.84a4.33,4.33,0,0,0-.51-.618q-.33-.342-.714-.684A8.8,8.8,0,0,0,42.588-9.108ZM58.536-4.56a8.1,8.1,0,0,1-.312,2.3,7.632,7.632,0,0,1-.852,1.914,8.725,8.725,0,0,1-1.212,1.53L55.14.72A9.556,9.556,0,0,0,56.256-.744,7.109,7.109,0,0,0,57.03-2.49a7.274,7.274,0,0,0,.282-2.07,7.257,7.257,0,0,0-.282-2.076,7.245,7.245,0,0,0-.774-1.746A8.956,8.956,0,0,0,55.14-9.84l1.02-.468a8.258,8.258,0,0,1,1.212,1.524,7.739,7.739,0,0,1,.852,1.92A8.1,8.1,0,0,1,58.536-4.56Z" transform="translate(244 1955)" fill="#e84830"/><path d="M-.882-11.872H.854v2.226H-.882Zm-5.124,1.2h12v3.01H4.256V-9.2h-8.6v1.54H-6.006Zm1.26,2.59H4.872V-6.72H-4.746ZM-6.118-3.654H6.188V-2.2H-6.118Zm1.6-2.226h9.1v1.344h-9.1ZM.826-3.36a4.689,4.689,0,0,0,2,2.17A9.016,9.016,0,0,0,6.384-.182a5.189,5.189,0,0,0-.539.7,7.561,7.561,0,0,0-.455.77A10.42,10.42,0,0,1,2.632.5,6.156,6.156,0,0,1,.665-.917,7.376,7.376,0,0,1-.672-3.038ZM-.924-8.876H.77v3.892A7.339,7.339,0,0,1,.623-3.528,4.744,4.744,0,0,1,.091-2.121,5.149,5.149,0,0,1-.987-.826,7.887,7.887,0,0,1-2.744.315a14.744,14.744,0,0,1-2.59.945A3.374,3.374,0,0,0-5.607.819q-.175-.245-.378-.5a3.176,3.176,0,0,0-.4-.42A14.864,14.864,0,0,0-3.941-.854a6.489,6.489,0,0,0,1.582-.91,3.8,3.8,0,0,0,.9-1.029,3.663,3.663,0,0,0,.42-1.092A5.663,5.663,0,0,0-.924-5.012Zm-.42,12.99,1.022.994q-.588.168-1.309.308t-1.463.224q-.742.084-1.428.126a3.961,3.961,0,0,0-.147-.511,2.366,2.366,0,0,0-.231-.5q.644-.07,1.295-.161t1.246-.217A9.454,9.454,0,0,0-1.344,4.114Zm6.062.014,1.022.98a11.069,11.069,0,0,1-1.4.329q-.77.133-1.575.217t-1.547.14a3.271,3.271,0,0,0-.154-.525q-.112-.3-.21-.511Q1.54,4.7,2.254,4.6T3.619,4.38Q4.27,4.254,4.718,4.128Zm-10.08.294,1.806.448q-.014.168-.336.224V5.78a7.237,7.237,0,0,1-.126,1.253,5.731,5.731,0,0,1-.455,1.414,4.252,4.252,0,0,1-.973,1.309,2.736,2.736,0,0,0-.308-.371q-.2-.2-.406-.392a2.069,2.069,0,0,0-.392-.287,3.036,3.036,0,0,0,.777-.98,3.86,3.86,0,0,0,.329-1.043A6.263,6.263,0,0,0-5.362,5.7Zm5.81.014,1.792.406q-.014.2-.336.238v.714a5.137,5.137,0,0,1-.14,1.113,3.827,3.827,0,0,1-.532,1.232A3.676,3.676,0,0,1,.1,9.224a2.06,2.06,0,0,0-.266-.385q-.182-.217-.378-.42a1.589,1.589,0,0,0-.378-.3,2.956,2.956,0,0,0,.875-.77,2.471,2.471,0,0,0,.392-.826,3.344,3.344,0,0,0,.1-.812ZM-4.7,6.2H-.042V7.418H-4.7Zm5.768,0H6.3V7.418H1.064Zm-3.92.406h1.484V8.874H-2.856Zm5.88,0h1.5V8.888h-1.5ZM-3,11.7v.616h6.1V11.7Zm0,1.568v.616h6.1V13.27Zm0-3.122v.6h6.1v-.6ZM-4.62,9.14H4.8v5.74H-4.62Zm5.4,6.482,1.4-.8q.756.266,1.533.567t1.484.6q.707.3,1.2.539l-1.96.756q-.392-.224-.98-.518t-1.267-.6Q1.512,15.874.784,15.622Zm-3.094-.854,1.526.7a10.577,10.577,0,0,1-1.316.714q-.756.35-1.554.637t-1.512.483q-.154-.168-.371-.4t-.455-.462a5.006,5.006,0,0,0-.42-.371q.742-.14,1.505-.336a14.544,14.544,0,0,0,1.442-.448A8.329,8.329,0,0,0-2.31,14.768Z" transform="translate(83 1940)" fill="#e84830"/></g><path d="M6-7.08a.867.867,0,0,1-.636-.264A.867.867,0,0,1,5.1-7.98a.867.867,0,0,1,.264-.636A.867.867,0,0,1,6-8.88a.867.867,0,0,1,.636.264A.867.867,0,0,1,6.9-7.98a.867.867,0,0,1-.264.636A.867.867,0,0,1,6-7.08ZM6-4.908l3.96-3.96.348.348L6.348-4.56,10.308-.6,9.96-.252,6-4.212,2.028-.24,1.68-.588,5.652-4.56,1.692-8.52l.348-.348ZM3.48-4.56a.867.867,0,0,1-.264.636.867.867,0,0,1-.636.264.867.867,0,0,1-.636-.264A.867.867,0,0,1,1.68-4.56.867.867,0,0,1,1.944-5.2.867.867,0,0,1,2.58-5.46a.867.867,0,0,1,.636.264A.867.867,0,0,1,3.48-4.56Zm5.04,0A.867.867,0,0,1,8.784-5.2.867.867,0,0,1,9.42-5.46a.867.867,0,0,1,.636.264.867.867,0,0,1,.264.636.867.867,0,0,1-.264.636.867.867,0,0,1-.636.264.867.867,0,0,1-.636-.264A.867.867,0,0,1,8.52-4.56ZM6-2.04a.867.867,0,0,1,.636.264A.867.867,0,0,1,6.9-1.14.867.867,0,0,1,6.636-.5.867.867,0,0,1,6-.24.867.867,0,0,1,5.364-.5.867.867,0,0,1,5.1-1.14a.867.867,0,0,1,.264-.636A.867.867,0,0,1,6-2.04ZM12.528,0V-.648A27.214,27.214,0,0,0,14.8-2.856,8.767,8.767,0,0,0,16.128-4.71a3.606,3.606,0,0,0,.432-1.614,2.216,2.216,0,0,0-.174-.9,1.342,1.342,0,0,0-.534-.618,1.711,1.711,0,0,0-.912-.222,1.859,1.859,0,0,0-1,.288,3.309,3.309,0,0,0-.822.732l-.636-.624A4.582,4.582,0,0,1,13.62-8.6a2.89,2.89,0,0,1,1.452-.348,2.754,2.754,0,0,1,1.362.318,2.237,2.237,0,0,1,.888.9,2.8,2.8,0,0,1,.318,1.362A4.036,4.036,0,0,1,17.2-4.6a9.152,9.152,0,0,1-1.212,1.83,21.731,21.731,0,0,1-1.806,1.9q.348-.024.726-.054t.714-.03H18.06V0Z" transform="translate(237 587)" fill="#333"/></g><g transform="translate(3 -18)"><path d="M6-7.08a.867.867,0,0,1-.636-.264A.867.867,0,0,1,5.1-7.98a.867.867,0,0,1,.264-.636A.867.867,0,0,1,6-8.88a.867.867,0,0,1,.636.264A.867.867,0,0,1,6.9-7.98a.867.867,0,0,1-.264.636A.867.867,0,0,1,6-7.08ZM6-4.908l3.96-3.96.348.348L6.348-4.56,10.308-.6,9.96-.252,6-4.212,2.028-.24,1.68-.588,5.652-4.56,1.692-8.52l.348-.348ZM3.48-4.56a.867.867,0,0,1-.264.636.867.867,0,0,1-.636.264.867.867,0,0,1-.636-.264A.867.867,0,0,1,1.68-4.56.867.867,0,0,1,1.944-5.2.867.867,0,0,1,2.58-5.46a.867.867,0,0,1,.636.264A.867.867,0,0,1,3.48-4.56Zm5.04,0A.867.867,0,0,1,8.784-5.2.867.867,0,0,1,9.42-5.46a.867.867,0,0,1,.636.264.867.867,0,0,1,.264.636.867.867,0,0,1-.264.636.867.867,0,0,1-.636.264.867.867,0,0,1-.636-.264A.867.867,0,0,1,8.52-4.56ZM6-2.04a.867.867,0,0,1,.636.264A.867.867,0,0,1,6.9-1.14.867.867,0,0,1,6.636-.5.867.867,0,0,1,6-.24.867.867,0,0,1,5.364-.5.867.867,0,0,1,5.1-1.14a.867.867,0,0,1,.264-.636A.867.867,0,0,1,6-2.04ZM13.056,0V-.912h1.968V-7.476H13.452v-.7a6.676,6.676,0,0,0,1.026-.264,5.059,5.059,0,0,0,.8-.36h.84V-.912H17.88V0Z" transform="translate(225 425)" fill="#333"/><g transform="translate(-3 -1344)"><path d="M-72.72-14.28a7.086,7.086,0,0,0-.19-.8q-.11-.36-.21-.72l2.82-.46q.04.3.09.75a7.652,7.652,0,0,0,.13.81q.04.28.18,1.04t.34,1.84q.2,1.08.45,2.33t.49,2.52q.24,1.27.47,2.41t.4,2.02q.17.88.25,1.3.1.44.24.96t.28,1l-2.9.52Q-69.96.68-70,.17a6.63,6.63,0,0,0-.14-.95q-.08-.4-.23-1.23t-.36-1.95q-.21-1.12-.45-2.38l-.48-2.52-.45-2.36q-.21-1.1-.37-1.91T-72.72-14.28Zm-5.46,2.54q.48-.02.94-.05t.92-.09l1.24-.17q.8-.11,1.84-.26t2.15-.33l2.15-.35q1.04-.17,1.85-.31l1.27-.22,1-.21q.52-.11.88-.21l.48,2.62q-.32.02-.86.1t-.98.14q-.54.08-1.41.22l-1.93.31q-1.06.17-2.16.34t-2.1.34q-1,.17-1.76.29l-1.14.18-.9.19q-.42.09-.94.23Zm.02,5.88q.4-.02,1.01-.09t1.07-.13q.54-.08,1.44-.22t2.03-.32l2.33-.37q1.2-.19,2.34-.39t2.08-.36L-64.34-8q.58-.12,1.11-.24t.93-.24l.54,2.64a9.384,9.384,0,0,0-.97.11q-.57.09-1.15.19-.64.1-1.6.26l-2.11.35q-1.15.19-2.35.38t-2.3.38q-1.1.19-1.98.33t-1.38.24q-.64.12-1.15.22t-.85.2ZM-52-12.7q.06.34.15.73t.17.79q.18.58.43,1.5t.55,2.02q.3,1.1.61,2.23t.61,2.16q.3,1.03.52,1.82t.34,1.21a2.48,2.48,0,0,1,.16.48q.08.32.19.64t.19.52l-2.72.68q-.06-.42-.14-.88a6.065,6.065,0,0,0-.22-.88q-.12-.44-.34-1.27T-52-2.84q-.28-1.06-.59-2.2t-.59-2.23q-.28-1.09-.53-1.98t-.41-1.39a5.342,5.342,0,0,0-.25-.76q-.15-.36-.31-.66Zm9.6,3.08a14.568,14.568,0,0,1-.81,1.5q-.51.84-1.11,1.72t-1.2,1.67q-.6.79-1.14,1.37l-2.2-1.1a12.628,12.628,0,0,0,1.1-1.12q.58-.66,1.09-1.33a7.622,7.622,0,0,0,.75-1.15q-.22.04-.83.16t-1.47.3l-1.87.39q-1.01.21-2.03.43t-1.94.41q-.92.19-1.62.34t-1.06.23l-.62-2.4q.48-.04.92-.1t.92-.14l.85-.14q.61-.1,1.46-.26t1.83-.35q.98-.19,1.98-.38l1.88-.36,1.54-.3q.66-.13.96-.21a3.514,3.514,0,0,0,.54-.13,3.428,3.428,0,0,0,.48-.19Zm12.5-2.26q.14.32.37.91l.49,1.26q.26.67.46,1.27t.32.94l-2.4.84a8.346,8.346,0,0,0-.28-.96q-.2-.58-.44-1.23t-.48-1.25q-.24-.6-.42-1Zm7.38,1.46q-.16.48-.27.82t-.21.64a19.171,19.171,0,0,1-1.04,3.03A13.372,13.372,0,0,1-25.72-3.1,14.9,14.9,0,0,1-28.89-.05a15.71,15.71,0,0,1-3.53,1.91l-2.1-2.14a13.557,13.557,0,0,0,2.32-.89A14.945,14.945,0,0,0-29.84-2.6a10.445,10.445,0,0,0,1.96-1.86,10.356,10.356,0,0,0,1.21-1.97,14.376,14.376,0,0,0,.88-2.38,14.809,14.809,0,0,0,.47-2.51Zm-12.02-.4q.2.38.45.98t.51,1.26q.26.66.51,1.28t.39,1.04l-2.44.92q-.12-.4-.35-1.04t-.51-1.35q-.28-.71-.53-1.31a9.177,9.177,0,0,0-.43-.92Zm20.72-5.02q.48.28,1.1.66l1.27.78q.65.4,1.22.77t.97.65l-1.5,2.22q-.4-.3-.98-.68t-1.2-.78q-.62-.4-1.23-.77t-1.11-.65Zm-3.72,14.2q1.14-.2,2.29-.49a20.38,20.38,0,0,0,2.3-.73,19.24,19.24,0,0,0,2.23-1.02A22.481,22.481,0,0,0-7.55-6.04,20.924,20.924,0,0,0-4.91-8.6a17.278,17.278,0,0,0,1.97-2.78L-1.4-8.66A21.159,21.159,0,0,1-4.85-4.74,26.741,26.741,0,0,1-9.36-1.48,19.832,19.832,0,0,1-11.59-.4q-1.21.5-2.38.87A16.656,16.656,0,0,1-16.04,1Zm.64-9.64q.5.28,1.13.65t1.27.77q.64.4,1.21.76t.95.64L-13.8-6.22q-.44-.3-1-.67t-1.19-.78q-.63-.41-1.24-.77t-1.13-.62ZM15.18-9.54a2.122,2.122,0,0,0-.12.44q-.04.24-.08.4-.06.42-.17,1.16t-.24,1.63q-.13.89-.27,1.79t-.25,1.64q-.11.74-.19,1.18H11.12q.08-.42.18-1.07t.23-1.42q.13-.77.24-1.55t.19-1.44q.08-.66.1-1.06H6.66q-.48,0-1.03.03t-.97.07v-2.64q.26.04.62.06l.73.04q.37.02.63.02h5.12q.22,0,.52-.02a5.306,5.306,0,0,0,.58-.07.905.905,0,0,0,.38-.13ZM2.82-2.28q.4.04.93.07t1.05.03H15.28q.38,0,.98-.02t.98-.06V.32q-.2-.02-.55-.03L15.97.27Q15.6.26,15.32.26H4.8q-.52,0-.96.01T2.82.32ZM35.6-15.96q.26.36.55.86t.57,1q.28.5.46.88l-1.6.7q-.32-.62-.74-1.41a14.017,14.017,0,0,0-.82-1.37Zm2.36-.9q.26.38.57.89t.59,1q.28.49.46.83l-1.6.68q-.3-.62-.75-1.4t-.85-1.34ZM23.84-6.22q.34-.84.65-1.77t.55-1.92q.24-.99.43-1.97a18.076,18.076,0,0,0,.27-1.94l2.92.6q-.08.28-.18.66t-.18.74q-.08.36-.12.6-.1.52-.28,1.26t-.42,1.57q-.24.83-.49,1.66T26.48-5.2q-.36.96-.85,2t-1.04,2q-.55.96-1.07,1.72L20.72-.66A21.356,21.356,0,0,0,22.51-3.4,21.9,21.9,0,0,0,23.84-6.22Zm9.88-.42q-.3-.8-.66-1.7t-.76-1.8q-.4-.9-.78-1.7t-.7-1.38l2.66-.86q.3.58.7,1.4t.8,1.73q.4.91.78,1.81t.68,1.62q.26.66.57,1.56t.64,1.87q.33.97.62,1.89t.49,1.66L35.8.42q-.26-1.18-.6-2.4t-.71-2.4Q34.12-5.56,33.72-6.64ZM50.1-11.88q.14.32.37.91l.49,1.26q.26.67.46,1.27t.32.94l-2.4.84a8.346,8.346,0,0,0-.28-.96q-.2-.58-.44-1.23t-.48-1.25q-.24-.6-.42-1Zm7.38,1.46q-.16.48-.27.82T57-8.96a19.171,19.171,0,0,1-1.04,3.03A13.372,13.372,0,0,1,54.28-3.1,14.9,14.9,0,0,1,51.11-.05a15.71,15.71,0,0,1-3.53,1.91L45.48-.28a13.557,13.557,0,0,0,2.32-.89A14.945,14.945,0,0,0,50.16-2.6a10.445,10.445,0,0,0,1.96-1.86,10.356,10.356,0,0,0,1.21-1.97,14.376,14.376,0,0,0,.88-2.38,14.808,14.808,0,0,0,.47-2.51Zm-12.02-.4q.2.38.45.98t.51,1.26q.26.66.51,1.28t.39,1.04l-2.44.92q-.12-.4-.35-1.04t-.51-1.35q-.28-.71-.53-1.31a9.177,9.177,0,0,0-.43-.92Zm32.52-1.62q-.16.28-.34.67t-.32.77a20.317,20.317,0,0,1-.73,2.01,21.106,21.106,0,0,1-1.16,2.34,17.773,17.773,0,0,1-1.59,2.33A18.963,18.963,0,0,1,70.49-1.2a21.278,21.278,0,0,1-4.73,2.52L63.4-.8a19.191,19.191,0,0,0,3.52-1.38A15.813,15.813,0,0,0,69.5-3.85a15.109,15.109,0,0,0,1.96-1.89,10.851,10.851,0,0,0,1.28-1.77,17.677,17.677,0,0,0,1-1.97,8.484,8.484,0,0,0,.56-1.72H67.56l.92-2.26H74.2a7.338,7.338,0,0,0,.93-.06,3.959,3.959,0,0,0,.81-.18ZM71.46-15.6q-.36.52-.7,1.12t-.52.92a21.668,21.668,0,0,1-1.67,2.49,22.274,22.274,0,0,1-2.25,2.5,22.9,22.9,0,0,1-2.68,2.21L61.38-8.02A19.3,19.3,0,0,0,63.71-9.7a16.483,16.483,0,0,0,1.75-1.71,16.625,16.625,0,0,0,1.27-1.64q.53-.79.91-1.41a7.11,7.11,0,0,0,.5-.99,9.182,9.182,0,0,0,.4-1.11Z" transform="translate(188 1876)" fill="#e84830"/><g transform="translate(2 -41)"><g transform="translate(-4 -256)"><path d="M-3.87-11.286v.738H3.8v-.738Zm0-2.034v.72H3.8v-.72Zm-2.07-1.4h11.9v5.58H-5.94ZM-8.064-8.5H8.028v1.71H-8.064ZM.2-6.12H6.084v1.656H.2Zm-5.49.054h4.086v1.494H-5.292Zm0,2.268h4.086V-2.3H-5.292Zm7.686-.828A7.441,7.441,0,0,0,4.707-1.782,9.659,9.659,0,0,0,8.424-.09q-.2.2-.45.5a6.724,6.724,0,0,0-.468.621q-.216.324-.36.576A10.135,10.135,0,0,1,3.213-.558,10.433,10.433,0,0,1,.666-4.14ZM5.436-6.12h.4l.36-.054,1.332.5a10.977,10.977,0,0,1-1.53,3.285A10.166,10.166,0,0,1,3.663.009,12.421,12.421,0,0,1,.7,1.6,5.914,5.914,0,0,0,.18.711a5.812,5.812,0,0,0-.648-.8A9.927,9.927,0,0,0,1.521-.954,8.825,8.825,0,0,0,3.24-2.232,8.559,8.559,0,0,0,4.581-3.87,7.291,7.291,0,0,0,5.436-5.8ZM-8.226-1.188q.918-.054,2.052-.135T-3.78-1.5q1.26-.1,2.538-.207V.054Q-3.06.216-4.851.387t-3.213.3ZM-2.3-7.938H-.252V1.62H-2.3ZM-6.642-7.9H-4.68V-.54H-6.642ZM-7.992,9.56H8.028v2.232H-7.992Zm9.252.9a17.557,17.557,0,0,0,1.494,3.834,12.074,12.074,0,0,0,2.367,3.114,10.644,10.644,0,0,0,3.3,2.106,4.983,4.983,0,0,0-.567.594q-.3.36-.576.747t-.459.693a12.011,12.011,0,0,1-3.555-2.5A13.942,13.942,0,0,1,.774,15.473,25.694,25.694,0,0,1-.918,10.964ZM-1.224,4.718H1.134q-.018,1.368-.081,2.889T.774,10.694A19.45,19.45,0,0,1,.081,13.8a13.28,13.28,0,0,1-1.332,2.952,11.964,11.964,0,0,1-2.2,2.637,13.672,13.672,0,0,1-3.267,2.16,6.58,6.58,0,0,0-.7-.954,5.548,5.548,0,0,0-.918-.864,12.312,12.312,0,0,0,3.078-1.917,10.428,10.428,0,0,0,2.025-2.358,11.123,11.123,0,0,0,1.2-2.646,15.456,15.456,0,0,0,.567-2.781q.153-1.4.189-2.754T-1.224,4.718Z" transform="translate(124 2084)" fill="#e84830"/><path d="M-41.958,0h12.876L-4.958-45.288v-8.584H-43.512v9.842h25.678Zm62.6.888c14.356,0,23.9-12.284,23.9-27.824v-.148C44.548-42.7,35-54.76,20.794-54.76c-14.282,0-23.9,12.284-23.9,27.824v.148C-3.108-11.174,6.29.888,20.646.888Zm.148-10.212c-7.4,0-12.21-7.622-12.21-17.612v-.148c0-9.99,4.736-17.464,12.062-17.464s12.21,7.7,12.21,17.612v.148C32.856-16.872,28.194-9.324,20.794-9.324Z" transform="translate(180 2105)" fill="#e84830"/><path d="M9.04-14.56c4.24,0,7.08-3.36,7.08-7.44v-.08c0-4.08-2.8-7.36-7-7.36S2.04-26.12,2.04-22v.08C2.04-17.84,4.88-14.56,9.04-14.56Zm7.56-1.08L4.96,0h4.8L19.4-13.48,31.04-29.12h-4.8ZM9.04-25.8c1.72,0,2.84,1.76,2.84,3.8v.08c0,1.96-.96,3.68-2.76,3.68-1.68,0-2.84-1.72-2.84-3.76v-.08C6.28-24.08,7.24-25.8,9.04-25.8ZM26.88.32c4.2,0,7.08-3.36,7.08-7.44V-7.2c0-4.04-2.84-7.36-7-7.36-4.24,0-7.08,3.36-7.08,7.44v.08C19.88-2.96,22.68.32,26.88.32Zm.08-3.64c-1.72,0-2.84-1.76-2.84-3.8V-7.2c0-1.96.96-3.68,2.76-3.68,1.68,0,2.84,1.72,2.84,3.76v.08C29.72-5.08,28.76-3.32,26.96-3.32Z" transform="translate(228 2105)" fill="#e84830"/></g></g><path d="M608.808,88.678a1,1,0,0,1-.833-.445l-8.807-13.211a1,1,0,0,1,0-1.109L607.975,60.7a1,1,0,1,1,1.664,1.109L601.2,74.467l8.437,12.656a1,1,0,0,1-.831,1.555Z" transform="translate(-513 1761.093)" fill="#333"/><path d="M600,88.678a1,1,0,0,1-.831-1.555l8.437-12.656-8.437-12.656a1,1,0,1,1,1.664-1.109l8.807,13.211a1,1,0,0,1,0,1.109l-8.807,13.211A1,1,0,0,1,600,88.678Z" transform="translate(-320.307 1761.093)" fill="#333"/><g transform="translate(103.256 1814.863)"><path d="M1.28-12.576H13.824v1.9H3.2v12.1H1.28Zm11.632,0h1.936V-.816A3.089,3.089,0,0,1,14.656.392a1.357,1.357,0,0,1-.688.68,3.444,3.444,0,0,1-1.24.3q-.744.056-1.816.056A4.905,4.905,0,0,0,10.752.8Q10.64.448,10.5.1a5.8,5.8,0,0,0-.288-.6q.464.032.936.04t.84.008H12.5a.527.527,0,0,0,.32-.1.387.387,0,0,0,.1-.3ZM2.32-6.624H13.856v1.888H2.32Zm4.672-4.912h1.92V-5.68H6.992Z" transform="translate(153.744 32.137)" fill="#333"/><path d="M-2.58-7.524v.492H2.532v-.492Zm0-1.356v.48H2.532v-.48Zm-1.38-.936H3.972V-6.1H-3.96ZM-5.376-5.664H5.352v1.14H-5.376ZM.132-4.08H4.056v1.1H.132Zm-3.66.036H-.8v1H-3.528Zm0,1.512H-.8v1H-3.528ZM1.6-3.084a4.961,4.961,0,0,0,1.542,1.9A6.439,6.439,0,0,0,5.616-.06q-.132.132-.3.33A4.483,4.483,0,0,0,5,.684q-.144.216-.24.384A6.757,6.757,0,0,1,2.142-.372,6.955,6.955,0,0,1,.444-2.76Zm2.028-1h.264l.24-.036.888.336A7.318,7.318,0,0,1,4-1.59,6.777,6.777,0,0,1,2.442.006,8.281,8.281,0,0,1,.468,1.068,3.943,3.943,0,0,0,.12.474,3.875,3.875,0,0,0-.312-.06,6.618,6.618,0,0,0,1.014-.636,5.883,5.883,0,0,0,2.16-1.488,5.706,5.706,0,0,0,3.054-2.58a4.861,4.861,0,0,0,.57-1.284ZM-5.484-.792q.612-.036,1.368-.09T-2.52-1q.84-.066,1.692-.138V.036Q-2.04.144-3.234.258t-2.142.2Zm3.948-4.5H-.168V1.08H-1.536Zm-2.892.024H-3.12V-.36H-4.428Zm-.9,11.308H5.352V7.528H-5.328Zm6.168.6a11.7,11.7,0,0,0,1,2.556,8.049,8.049,0,0,0,1.578,2.076,7.1,7.1,0,0,0,2.2,1.4,3.322,3.322,0,0,0-.378.4q-.2.24-.384.5t-.306.462a8.007,8.007,0,0,1-2.37-1.668A9.3,9.3,0,0,1,.516,9.982,17.129,17.129,0,0,1-.612,6.976ZM-.816,2.812H.756Q.744,3.724.7,4.738T.516,6.8a12.967,12.967,0,0,1-.462,2.07,8.853,8.853,0,0,1-.888,1.968A7.976,7.976,0,0,1-2.3,12.592a9.115,9.115,0,0,1-2.178,1.44,4.387,4.387,0,0,0-.468-.636,3.7,3.7,0,0,0-.612-.576A8.208,8.208,0,0,0-3.5,11.542,6.952,6.952,0,0,0-2.154,9.97a7.416,7.416,0,0,0,.8-1.764A10.3,10.3,0,0,0-.978,6.352q.1-.936.126-1.836T-.816,2.812Z" transform="translate(6.744 20.137)" fill="#333"/><path d="M1.76,0H18.912V-4.256H8.576l4-3.136c4.128-3.232,6.112-5.184,6.112-9.024v-.064c0-4.32-3.2-7.136-7.968-7.136-4.16,0-6.368,1.7-8.64,4.832l3.456,2.752c1.728-2.144,3.008-3.2,4.864-3.2a3,3,0,0,1,3.264,3.168c0,1.952-1.152,3.264-4.1,5.728L1.76-3.9ZM31.552.384c6.208,0,10.336-5.312,10.336-12.032v-.064c0-6.752-4.128-11.968-10.272-11.968-6.176,0-10.336,5.312-10.336,12.032v.064C21.28-4.832,25.344.384,31.552.384Zm.064-4.416c-3.2,0-5.28-3.3-5.28-7.616v-.064c0-4.32,2.048-7.552,5.216-7.552s5.28,3.328,5.28,7.616v.064C36.832-7.3,34.816-4.032,31.616-4.032ZM52.864.32c5.12,0,8.96-2.528,8.96-6.816V-6.56c0-2.784-1.44-4.288-3.84-5.5a5.591,5.591,0,0,0,3.04-5.12v-.064c0-3.616-3.3-6.368-8.16-6.368-4.9,0-8.192,2.784-8.192,6.368v.064a5.561,5.561,0,0,0,3.072,5.12c-2.5,1.12-3.872,2.784-3.872,5.632v.064C43.872-2.336,47.712.32,52.864.32Zm0-14.048c-2.112,0-3.52-1.248-3.52-2.976v-.064c0-1.5,1.344-2.784,3.52-2.784s3.488,1.312,3.488,2.816v.064C56.352-14.944,54.944-13.728,52.864-13.728Zm0,9.984c-2.656,0-4.224-1.344-4.224-3.008v-.064c0-1.856,1.792-2.976,4.224-2.976,2.4,0,4.192,1.12,4.192,2.976v.064C57.056-5.056,55.488-3.744,52.864-3.744ZM63.328,5.28c3.84-.1,5.952-1.824,5.952-6.08V-5.184H64.1V0H66.08c.16,1.856-.928,3.008-3.168,3.264ZM81.312.384c5.024,0,8.832-3.264,8.832-8v-.1c0-4.8-3.552-7.392-8.16-7.392a7.529,7.529,0,0,0-4.96,1.728h-.032c.16-2.24,1.216-5.856,4.9-5.856a7.12,7.12,0,0,1,4.8,1.92L89.28-21.12a10.653,10.653,0,0,0-7.232-2.56c-6.88,0-10.176,5.5-10.176,12.7v.064c0,4.64,1.056,7.1,2.752,8.832A8.938,8.938,0,0,0,81.312.384ZM81.12-3.808c-2.592,0-4.192-1.568-4.192-3.616v-.064c0-2.016,1.536-3.52,4.128-3.52,2.624,0,4.192,1.5,4.192,3.52v.1C85.248-5.344,83.744-3.808,81.12-3.808ZM102.784.384c6.208,0,10.336-5.312,10.336-12.032v-.064c0-6.752-4.128-11.968-10.272-11.968-6.176,0-10.336,5.312-10.336,12.032v.064C92.512-4.832,96.576.384,102.784.384Zm.064-4.416c-3.2,0-5.28-3.3-5.28-7.616v-.064c0-4.32,2.048-7.552,5.216-7.552s5.28,3.328,5.28,7.616v.064C108.064-7.3,106.048-4.032,102.848-4.032ZM125.7.384c6.208,0,10.336-5.312,10.336-12.032v-.064c0-6.752-4.128-11.968-10.272-11.968-6.176,0-10.336,5.312-10.336,12.032v.064C115.424-4.832,119.488.384,125.7.384Zm.064-4.416c-3.2,0-5.28-3.3-5.28-7.616v-.064c0-4.32,2.048-7.552,5.216-7.552s5.28,3.328,5.28,7.616v.064C130.976-7.3,128.96-4.032,125.76-4.032Z" transform="translate(14.744 33.137)" fill="#333"/></g></g></g></g></svg>