<svg xmlns="http://www.w3.org/2000/svg" width="44.047" height="11.794"><path data-name="パス 13937" d="M5.007 11.266c2.182 0 3.722-1.134 3.722-3.14v-.028c0-1.75-1.162-2.506-3.248-3.038-1.792-.462-2.24-.7-2.24-1.4v-.024c0-.518.476-.952 1.372-.952a4.673 4.673 0 0 1 2.674 1.022l1.134-1.624A5.868 5.868 0 0 0 4.655.794c-2.072 0-3.556 1.218-3.556 3.038v.028c0 2 1.3 2.59 3.388 3.108 1.736.434 2.1.742 2.1 1.344v.028c0 .63-.588 1.036-1.54 1.036a4.69 4.69 0 0 1-3.08-1.26L.693 9.642a6.419 6.419 0 0 0 4.314 1.624Zm9.674.028a3.9 3.9 0 0 0 3.176-1.428l-1.25-1.246a2.548 2.548 0 0 1-1.834.854 2.067 2.067 0 0 1-2.04-2.226V7.22a2.049 2.049 0 0 1 1.96-2.184 2.332 2.332 0 0 1 1.806.882l1.316-1.4a3.854 3.854 0 0 0-3.108-1.316 3.993 3.993 0 0 0-4.074 4.046v.028a3.963 3.963 0 0 0 4.046 4.018Zm5.178-.168h2.128v-2.9c0-1.888.938-2.8 2.42-2.8h.112V3.202a2.479 2.479 0 0 0-2.532 1.75v-1.61h-2.128Zm10.192.168a4.07 4.07 0 0 0 4.214-4.046V7.22a4.037 4.037 0 0 0-4.172-4.018 4.079 4.079 0 0 0-4.214 4.046v.028a4.028 4.028 0 0 0 4.172 4.018Zm.042-1.82a2.138 2.138 0 0 1-2.114-2.226V7.22a2.052 2.052 0 0 1 2.072-2.184 2.126 2.126 0 0 1 2.114 2.212v.028a2.063 2.063 0 0 1-2.072 2.198Zm6.454 1.652h2.114V.5h-2.114Zm4.886 0h2.114V.5h-2.114Z" fill="#333"/><path data-name="パス 13937 - アウトライン" d="M30.051 11.794a4.732 4.732 0 0 1-3.333-1.311 4.436 4.436 0 0 1-1.339-3.207v-.028a4.583 4.583 0 0 1 4.714-4.546 4.548 4.548 0 0 1 4.672 4.518v.028a4.458 4.458 0 0 1-1.35 3.221 4.777 4.777 0 0 1-3.364 1.325Zm.042-8.092a3.778 3.778 0 0 0-2.666 1.046 3.465 3.465 0 0 0-1.048 2.5v.028a3.518 3.518 0 0 0 3.672 3.518 3.783 3.783 0 0 0 2.666-1.041 3.466 3.466 0 0 0 1.048-2.5v-.028a3.443 3.443 0 0 0-1.038-2.491 3.734 3.734 0 0 0-2.634-1.032Zm-15.414 8.092a4.534 4.534 0 0 1-3.255-1.322 4.5 4.5 0 0 1-1.291-3.2v-.028a4.538 4.538 0 0 1 1.288-3.2 4.553 4.553 0 0 1 3.286-1.342 4.36 4.36 0 0 1 3.48 1.482l.306.342L16.5 6.647l-.364-.385a1.837 1.837 0 0 0-1.443-.726 1.549 1.549 0 0 0-1.46 1.684v.028a1.571 1.571 0 0 0 1.544 1.726 2.053 2.053 0 0 0 1.49-.717l.353-.335 1.926 1.926-.317.353a4.382 4.382 0 0 1-3.55 1.593Zm.028-8.092a3.561 3.561 0 0 0-2.573 1.044 3.544 3.544 0 0 0-1 2.5v.028a3.455 3.455 0 0 0 3.545 3.52 3.361 3.361 0 0 0 2.476-.923l-.567-.567a2.816 2.816 0 0 1-1.811.67 2.553 2.553 0 0 1-2.544-2.726V7.22a2.552 2.552 0 0 1 2.46-2.684 2.648 2.648 0 0 1 1.787.672l.639-.679a3.423 3.423 0 0 0-2.412-.827Zm-9.7 8.064a6.938 6.938 0 0 1-4.646-1.752l-.359-.322 1.9-2.28.384.32a4.167 4.167 0 0 0 2.761 1.144c.174 0 1.04-.026 1.04-.536v-.028c0-.2 0-.429-1.721-.859C2.381 6.96.599 6.314.599 3.86v-.028C.599 1.749 2.267.294 4.655.294a6.378 6.378 0 0 1 4.078 1.4l.367.293-1.693 2.421-.412-.3a4.2 4.2 0 0 0-2.382-.928c-.522 0-.872.182-.872.452v.028c0 .271 0 .435 1.865.916a6.259 6.259 0 0 1 2.608 1.167A2.923 2.923 0 0 1 9.23 8.098v.028c-.001 2.213-1.659 3.64-4.223 3.64Zm-3.606-2.19a5.97 5.97 0 0 0 3.606 1.19 3.715 3.715 0 0 0 2.366-.706 2.358 2.358 0 0 0 .856-1.934v-.028c0-1.345-.751-2.013-2.872-2.554-1.671-.431-2.616-.731-2.616-1.884v-.024c0-.7.586-1.452 1.872-1.452a4.824 4.824 0 0 1 2.545.833l.573-.82a5.43 5.43 0 0 0-3.076-.9c-1.828 0-3.056 1.02-3.056 2.538v.028c0 1.6.928 2.106 3.008 2.623 1.68.42 2.48.8 2.48 1.829v.028a1.38 1.38 0 0 1-.633 1.168 2.507 2.507 0 0 1-1.407.368A4.926 4.926 0 0 1 2.04 8.812Zm42.646 2.05h-3.114V0h3.114Zm-2.114-1h1.114V1h-1.114Zm-2.772 1h-3.114V0h3.114Zm-2.114-1h1.114V1h-1.114Zm-14.56 1h-3.128V2.842h3.128v.524a2.841 2.841 0 0 1 2.055-.663l.479.02v3.203h-.614c-1.273 0-1.92.776-1.92 2.3Zm-2.128-1h1.128v-2.4a3.53 3.53 0 0 1 .784-2.442 2.665 2.665 0 0 1 1.75-.836V3.726a2.023 2.023 0 0 0-1.574 1.421l-.96-.195v-1.11h-1.128Zm9.734-.652a2.643 2.643 0 0 1-2.614-2.726V7.22a2.543 2.543 0 0 1 2.572-2.684 2.542 2.542 0 0 1 1.9.822 2.78 2.78 0 0 1 .716 1.89v.028a2.807 2.807 0 0 1-.68 1.878 2.491 2.491 0 0 1-1.894.82Zm-.042-4.438a1.567 1.567 0 0 0-1.572 1.684v.028a1.642 1.642 0 0 0 1.614 1.726 1.575 1.575 0 0 0 1.572-1.7v-.028a1.634 1.634 0 0 0-1.614-1.71Z" fill="rgba(0,0,0,0)"/></svg>