<svg xmlns="http://www.w3.org/2000/svg" width="46.188" height="43.764"><g fill="#333"><path data-name="パス 13978" d="M11.556 43.764c6.984 0 11.628-5.976 11.628-13.532v-.072c0-7.6-4.644-13.464-11.556-13.464C4.68 16.692.004 22.668.004 30.232v.072c0 7.592 4.568 13.46 11.552 13.46Zm.072-4.968c-3.6 0-5.94-3.708-5.94-8.568v-.072c0-4.86 2.3-8.5 5.868-8.5s5.94 3.744 5.94 8.568v.072c0 4.828-2.268 8.5-5.868 8.5Zm25.164 4.968c5.76 0 9.4-3.564 9.4-8.5v-.072c0-4.86-3.528-6.768-7.164-7.344l6.768-6.552V17.12H28.152v4.752h10.512l-6.444 6.56.9 3.492h2.34c3.276 0 5.292 1.26 5.292 3.492v.072c0 2.016-1.62 3.348-3.888 3.348a8.064 8.064 0 0 1-6.408-3.2l-3.816 3.596a12.591 12.591 0 0 0 10.152 4.532Z"/><path data-name="パス 13979" d="M9.718 10.472c2.186 0 3.724-1.134 3.724-3.14v-.028c0-1.75-1.162-2.506-3.248-3.038-1.792-.462-2.24-.7-2.24-1.4v-.024c0-.518.476-.952 1.372-.952a4.673 4.673 0 0 1 2.678 1.022l1.13-1.624A5.868 5.868 0 0 0 9.368 0C7.296 0 5.812 1.218 5.812 3.038v.028c0 2 1.3 2.59 3.388 3.108 1.736.434 2.1.742 2.1 1.344v.028c0 .63-.588 1.036-1.54 1.036a4.69 4.69 0 0 1-3.08-1.26L5.404 8.848a6.419 6.419 0 0 0 4.314 1.624Zm8.008-.14h2.156v-8.2h3.122V.144H14.59v1.988h3.136Zm7.14 0h7.728V8.414h-5.6V6.16h4.872V4.242h-4.872V2.058h5.53V.14h-7.658Zm9.87 0h2.142V7.224h1.778c2.268 0 4.1-1.2 4.1-3.556V3.64c0-2.072-1.47-3.5-3.892-3.5h-4.13Zm2.142-5.026v-3.22h1.806c1.162 0 1.9.56 1.9 1.6v.028a1.649 1.649 0 0 1-1.862 1.6Z"/></g></svg>