<svg xmlns="http://www.w3.org/2000/svg" xmlns:xlink="http://www.w3.org/1999/xlink" width="325" height="93.5" viewBox="0 0 325 93.5"><defs><clipPath id="a"><rect width="37.704" height="25" fill="#e84830"/></clipPath></defs><g transform="translate(-25 -6924)"><g transform="translate(25 6924)"><g clip-path="url(#a)"><path d="M2.594,22.4A8.859,8.859,0,0,0,15.123,9.876a8.784,8.784,0,0,0-2.274-1.6L15.235,0H12.471L2.594,9.876a8.859,8.859,0,0,0,0,12.529" transform="translate(19.986 0.001)" fill="#e84830"/><path d="M33.317,22.4A8.859,8.859,0,0,0,45.846,9.876a8.761,8.761,0,0,0-2.274-1.6L45.958,0H43.194L33.317,9.876a8.859,8.859,0,0,0,0,12.529" transform="translate(-30.723 0.001)" fill="#e84830"/></g></g><g transform="translate(312.296 6992.5)"><g transform="translate(0 0)"><g clip-path="url(#a)"><path d="M15.123,2.594A8.859,8.859,0,0,0,2.594,15.123a8.784,8.784,0,0,0,2.274,1.6L2.482,25H5.246l9.877-9.876a8.859,8.859,0,0,0,0-12.529" transform="translate(0 0)" fill="#e84830"/><path d="M45.846,2.594A8.859,8.859,0,0,0,33.317,15.123a8.761,8.761,0,0,0,2.274,1.6L33.2,25h2.764l9.877-9.876a8.859,8.859,0,0,0,0-12.529" transform="translate(-10.737 0)" fill="#e84830"/></g></g></g><g transform="translate(0 -6)"><path d="M-97.608-7.416h3V2.136h-3Zm-9.216,1.536h21.7v2.76h-21.7Zm9.216-14.5h3v3.864h-3Zm-8.544,2.784h20.328v2.712h-20.328Zm4.56,2.592,2.928.648a17.581,17.581,0,0,1-2.352,4.62,14.928,14.928,0,0,1-3.336,3.42,5.891,5.891,0,0,0-.672-.66q-.432-.372-.888-.72a9.062,9.062,0,0,0-.816-.564,11.489,11.489,0,0,0,3.144-2.868A12.3,12.3,0,0,0-101.592-15Zm9.216.048,2.9.6a14.121,14.121,0,0,1-2.352,4.4,13.869,13.869,0,0,1-3.432,3.132,5.68,5.68,0,0,0-.66-.648q-.42-.36-.864-.732a5.564,5.564,0,0,0-.78-.564,10.623,10.623,0,0,0,3.216-2.58A10.257,10.257,0,0,0-92.376-14.952Zm-9.384,4.08,1.632-1.824q.552.312,1.2.756t1.236.876a8.336,8.336,0,0,1,.948.792l-1.7,2.016q-.36-.36-.924-.828t-1.2-.948Q-101.208-10.512-101.76-10.872Zm8.664.264,1.9-1.92q.864.528,1.908,1.224t2,1.392a14.963,14.963,0,0,1,1.56,1.272l-2.016,2.184a15.833,15.833,0,0,0-1.476-1.32q-.924-.744-1.956-1.476T-93.1-10.608Zm10.44,4.9h21.408v2.376H-82.656Zm.072-10.752H-61.32v2.352H-82.584Zm.984,4.3h19.344v2.256H-81.6Zm1.176,3.312H-63.36v2.088H-80.424Zm6.96-2.184h2.856V2.16h-2.856Zm-2.088-9.384h2.688v5.088h-2.688Zm4.464,0h2.712v4.92h-2.712Zm-2.9,15.768,2.28,1.032a14.557,14.557,0,0,1-2.724,2.316A22.326,22.326,0,0,1-77.856.564a26.171,26.171,0,0,1-3.672,1.308,6.914,6.914,0,0,0-.516-.8q-.324-.444-.672-.876a6.72,6.72,0,0,0-.66-.72,32.752,32.752,0,0,0,3.588-.984,21.006,21.006,0,0,0,3.3-1.416A12.143,12.143,0,0,0-73.992-4.656Zm3.96-.072a10.349,10.349,0,0,0,1.776,1.356A16.243,16.243,0,0,0-65.988-2.22a22.307,22.307,0,0,0,2.616.9,23.819,23.819,0,0,0,2.8.6q-.336.336-.708.78a10.137,10.137,0,0,0-.7.936q-.324.492-.54.9A20.743,20.743,0,0,1-65.34.972,21.614,21.614,0,0,1-67.968-.312,18.48,18.48,0,0,1-70.32-1.92a13.673,13.673,0,0,1-1.944-1.9Zm4.464-15.48,3,.72q-.552.984-1.128,1.908t-1.056,1.572l-2.352-.72q.288-.48.576-1.092t.54-1.248Q-65.736-19.7-65.568-20.208Zm-3.168,5.136,3.048.72q-.5.84-.96,1.62t-.816,1.332l-2.448-.672q.312-.672.648-1.5A15,15,0,0,0-68.736-15.072ZM-80.88-19.44l2.472-.84a16.963,16.963,0,0,1,1.056,1.716,11.435,11.435,0,0,1,.768,1.668l-2.592.96a8.9,8.9,0,0,0-.7-1.7Q-80.376-18.624-80.88-19.44Zm3.048,5.376,2.808-.456a11.453,11.453,0,0,1,.612,1.14,8.216,8.216,0,0,1,.444,1.116l-2.928.5a10.533,10.533,0,0,0-.384-1.128A9.048,9.048,0,0,0-77.832-14.064Zm22.824-1.968h16.7v2.808h-16.7Zm-1.008,7.056H-39.24v2.784H-56.016Zm-2.76,7.632h21.7V1.464h-21.7ZM-49.464-20.4h3.024V.024h-3.024Zm-5.544.312,2.976.672a30.666,30.666,0,0,1-1.248,3.648,31.755,31.755,0,0,1-1.608,3.348,18.83,18.83,0,0,1-1.8,2.7,7.208,7.208,0,0,0-.756-.588q-.468-.324-.972-.636t-.864-.5a12.589,12.589,0,0,0,1.764-2.4,22.629,22.629,0,0,0,1.44-3A28.937,28.937,0,0,0-55.008-20.088Zm20.5,10.752a42,42,0,0,0,5.868-1.956,34.908,34.908,0,0,0,4.62-2.34A26.185,26.185,0,0,0-21.516-15.4q1.26-1,2.376-2.052a20.135,20.135,0,0,0,1.884-2.016l2.592,2.472q-1.1,1.08-2.412,2.184T-19.8-12.7q-1.416,1.008-2.808,1.848-1.368.792-3.06,1.632t-3.564,1.584Q-31.1-6.888-33-6.312Zm9.984-2.76,3.408-.792v10.8q0,.528.024,1.152t.072,1.164a5.725,5.725,0,0,0,.12.828H-24.7q.048-.288.084-.828t.06-1.164q.024-.624.024-1.152ZM-6.216-18.24q.624.432,1.464,1.056t1.74,1.356q.9.732,1.692,1.428a16.742,16.742,0,0,1,1.3,1.248l-2.448,2.5q-.456-.5-1.2-1.2T-5.28-13.3q-.864-.744-1.7-1.416T-8.472-15.84Zm-3,15.984A25.417,25.417,0,0,0-5.688-3,24.6,24.6,0,0,0-2.616-4.1,27.932,27.932,0,0,0-.024-5.4,23.209,23.209,0,0,0,3.72-8.184,23.865,23.865,0,0,0,6.7-11.436a18.4,18.4,0,0,0,2.016-3.3l1.872,3.384A22.346,22.346,0,0,1,8.34-8.136a25.827,25.827,0,0,1-3.012,3.06A25.087,25.087,0,0,1,1.7-2.472a27.214,27.214,0,0,1-2.64,1.4A26.993,26.993,0,0,1-3.924.108,22.526,22.526,0,0,1-7.2.912ZM22.3-11.232q1.1.624,2.412,1.476T27.36-7.992q1.344.912,2.532,1.776t2,1.536l-2.28,2.712q-.792-.72-1.956-1.668T25.152-5.58q-1.344-1-2.652-1.908t-2.34-1.56Zm11.28-4.08a7.065,7.065,0,0,0-.432.792,7.184,7.184,0,0,0-.36.912,24.6,24.6,0,0,1-.972,2.46,27.109,27.109,0,0,1-1.452,2.76A24.338,24.338,0,0,1,28.44-5.64a25.975,25.975,0,0,1-4.092,4.008A21.9,21.9,0,0,1,18.5,1.584L15.72-.84a21.356,21.356,0,0,0,4.368-1.824,19.165,19.165,0,0,0,3.2-2.256,22.888,22.888,0,0,0,2.364-2.4A16.787,16.787,0,0,0,27.2-9.42a20.9,20.9,0,0,0,1.272-2.328,11.143,11.143,0,0,0,.756-2.076H21.12l1.1-2.736H29.04a8.994,8.994,0,0,0,1.14-.072,5.619,5.619,0,0,0,.948-.192Zm-7.92-3.7q-.432.624-.852,1.344t-.636,1.1A26.413,26.413,0,0,1,22.1-13.5a31.744,31.744,0,0,1-2.8,3.156,24.448,24.448,0,0,1-3.276,2.736L13.44-9.6a20.854,20.854,0,0,0,3.588-2.772,22.686,22.686,0,0,0,2.46-2.808,26.487,26.487,0,0,0,1.584-2.412,7.947,7.947,0,0,0,.612-1.164,9.995,9.995,0,0,0,.492-1.332Zm28.056-.432q.312.432.672,1.032t.684,1.2q.324.6.564,1.056l-1.944.816q-.36-.744-.876-1.692a18.459,18.459,0,0,0-1-1.644Zm2.832-1.08q.336.456.7,1.056t.708,1.188a10.188,10.188,0,0,1,.54,1.02l-1.9.816q-.384-.768-.912-1.7a14.873,14.873,0,0,0-1.032-1.608ZM43.368-18.408a12.264,12.264,0,0,0-.144,1.272q-.048.72-.048,1.224v12.12a1.246,1.246,0,0,0,.384,1.056,3.046,3.046,0,0,0,1.176.456q.552.072,1.272.108t1.512.036q.936,0,2.076-.06t2.3-.156q1.164-.1,2.2-.264t1.776-.36v3.5Q54.744.7,53.256.8T50.22.972q-1.548.06-2.892.06-1.176,0-2.22-.072T43.3.768A4.564,4.564,0,0,1,40.872-.42a3.286,3.286,0,0,1-.864-2.412v-13.08q0-.264-.024-.72t-.06-.936a7,7,0,0,0-.108-.84ZM41.784-11.04q1.152-.24,2.448-.588t2.616-.756q1.32-.408,2.508-.828t2.124-.828a13.786,13.786,0,0,0,1.284-.552q.636-.312,1.332-.744l1.3,3.048q-.7.264-1.452.588t-1.356.54q-1.056.408-2.412.864t-2.82.9q-1.464.444-2.892.828T41.808-7.9Zm36.432-.408a2.546,2.546,0,0,0-.144.528q-.048.288-.1.48-.072.5-.2,1.392t-.288,1.956q-.156,1.068-.324,2.148t-.3,1.968q-.132.888-.228,1.416H73.344q.1-.5.216-1.284t.276-1.7q.156-.924.288-1.86t.228-1.728q.1-.792.12-1.272h-6.48q-.576,0-1.236.036t-1.164.084v-3.168q.312.048.744.072l.876.048q.444.024.756.024h6.144q.264,0,.624-.024a6.367,6.367,0,0,0,.7-.084,1.086,1.086,0,0,0,.456-.156ZM63.384-2.736q.48.048,1.116.084t1.26.036H78.336q.456,0,1.176-.024t1.176-.072v3.1q-.24-.024-.66-.036L79.164.324q-.444-.012-.78-.012H65.76q-.624,0-1.152.012t-1.224.06Zm22.824-8.376,1.1.06q.672.036,1.4.06t1.356.024H102.96q.84,0,1.584-.06t1.224-.084v3.768l-1.224-.072q-.816-.048-1.584-.048H90.072q-1.032,0-2.112.036t-1.752.084Z" transform="translate(188 6967)" fill="#333"/><g transform="translate(0 -15)"><rect width="220" height="30" rx="15" transform="translate(78 6998)" fill="#fff"/><path d="M15,2A13,13,0,0,0,5.808,24.192,12.915,12.915,0,0,0,15,28H205a13,13,0,0,0,9.192-22.192A12.915,12.915,0,0,0,205,2H15m0-2H205a15,15,0,0,1,0,30H15A15,15,0,0,1,15,0Z" transform="translate(78 6998)" fill="#333"/><path d="M-92.317-6.193h9.647v2.409h-1.287V-5.049h-7.117v1.265h-1.243Zm1.6,1.991h5.8v1.221h-5.8Zm6.765-5.2.891,1.067q-.935.176-2.019.313t-2.244.237q-1.16.1-2.326.165t-2.266.088a2.576,2.576,0,0,0-.1-.572,5.693,5.693,0,0,0-.182-.55q1.089-.033,2.228-.1t2.233-.16q1.095-.093,2.063-.22T-83.957-9.405Zm-7.282,2.079,1.144-.319a6.14,6.14,0,0,1,.38.66,3.694,3.694,0,0,1,.258.638L-90.678-6a3.224,3.224,0,0,0-.22-.649A7.383,7.383,0,0,0-91.239-7.326Zm2.9-.231,1.166-.264q.165.341.313.737a3.47,3.47,0,0,1,.192.693l-1.243.308a4.106,4.106,0,0,0-.16-.715A7.844,7.844,0,0,0-88.335-7.557Zm3.487-.286,1.4.33q-.187.352-.385.693t-.4.643q-.2.3-.363.534l-1.089-.308q.154-.275.313-.6t.3-.665Q-84.936-7.557-84.848-7.843ZM-85.409-4.2h.275l.231-.044.9.539a6.363,6.363,0,0,1-1.282,1.865,7.453,7.453,0,0,1-1.81,1.326,11.542,11.542,0,0,1-2.216.88A17.731,17.731,0,0,1-91.8.88,3.018,3.018,0,0,0-92,.49q-.132-.226-.286-.44A2.823,2.823,0,0,0-92.57-.3a19.894,19.894,0,0,0,2.409-.4,10.557,10.557,0,0,0,2.079-.7,6.119,6.119,0,0,0,1.617-1.072,4.421,4.421,0,0,0,1.056-1.518Zm-4,.9A5.461,5.461,0,0,0-87.78-1.876,9.812,9.812,0,0,0-85.415-.9a16.533,16.533,0,0,0,2.953.517,2.464,2.464,0,0,0-.3.374q-.154.231-.291.457a4.412,4.412,0,0,0-.226.413A15.441,15.441,0,0,1-86.289.187a9.622,9.622,0,0,1-2.442-1.216,7.621,7.621,0,0,1-1.837-1.81Zm11.869-5.28h6.039v.935h-6.039Zm-.286,2.761h6.523v1H-77.83Zm-.011,4.158h6.556V-.627h-6.556ZM-76.719-3h4.4v.825h-4.4Zm-.616-4.2h5.588v.913h-5.588Zm.946-2.145h1.177v3.971h-1.177Zm2.453,0h1.188v3.971h-1.188Zm-1.21,4.037h1.078v4.257h-1.078Zm2.112.891h1.188V-.176a1.611,1.611,0,0,1-.1.638.734.734,0,0,1-.374.352,2.056,2.056,0,0,1-.687.149q-.413.027-.974.027a2.626,2.626,0,0,0-.11-.517,4.373,4.373,0,0,0-.187-.506q.319.011.632.016l.424.005a.249.249,0,0,0,.148-.05.174.174,0,0,0,.038-.127Zm-4.268,0h4.7v.913h-3.586V.99H-77.3ZM-81.185-5.9h3.025v1h-3.025ZM-81.13-9H-78.2v.99H-81.13Zm-.055,4.642h3.025v1h-3.025Zm-.484-3.124h3.839v1.045h-3.839Zm1.1,4.686h2.453V.55h-2.453V-.5h1.353V-1.749h-1.353Zm-.649,0h1.089V.979h-1.089Zm12.507-4.554h7.656v1.287h-7.656Zm-.462,3.234h7.689v1.276h-7.689Zm-1.265,3.5h9.944V.671h-9.944ZM-66.17-9.35h1.386V.011H-66.17Zm-2.541.143,1.364.308a14.055,14.055,0,0,1-.572,1.672,14.554,14.554,0,0,1-.737,1.534,8.63,8.63,0,0,1-.825,1.238,3.3,3.3,0,0,0-.346-.269q-.214-.148-.446-.292t-.4-.231a5.77,5.77,0,0,0,.808-1.1,10.37,10.37,0,0,0,.66-1.375A13.265,13.265,0,0,0-68.711-9.207ZM-53.5-7.535q-.11.836-.286,1.782a17.335,17.335,0,0,1-.473,1.914,9.832,9.832,0,0,1-.748,1.914,4.2,4.2,0,0,1-.94,1.238,1.689,1.689,0,0,1-1.117.434,1.741,1.741,0,0,1-1.117-.413A2.817,2.817,0,0,1-58.993-1.8a4.257,4.257,0,0,1-.3-1.65,4.309,4.309,0,0,1,.385-1.8,4.8,4.8,0,0,1,1.072-1.5,5.085,5.085,0,0,1,1.606-1.028,5.214,5.214,0,0,1,1.985-.374,4.895,4.895,0,0,1,1.843.33,4.147,4.147,0,0,1,1.4.913,3.963,3.963,0,0,1,.891,1.364A4.546,4.546,0,0,1-49.8-3.872,4.429,4.429,0,0,1-50.275-1.8,3.91,3.91,0,0,1-51.678-.3a6.014,6.014,0,0,1-2.316.814l-.825-1.309q.319-.033.561-.077t.462-.1a4.186,4.186,0,0,0,.985-.38,3.073,3.073,0,0,0,.8-.616,2.7,2.7,0,0,0,.534-.863,2.981,2.981,0,0,0,.193-1.089,3.422,3.422,0,0,0-.2-1.188,2.675,2.675,0,0,0-.583-.941A2.569,2.569,0,0,0-53-6.661a3.465,3.465,0,0,0-1.265-.214,3.627,3.627,0,0,0-1.551.313,3.631,3.631,0,0,0-1.133.809,3.55,3.55,0,0,0-.7,1.067A2.851,2.851,0,0,0-57.887-3.6a2.751,2.751,0,0,0,.132.918,1.39,1.39,0,0,0,.325.55.594.594,0,0,0,.412.182.643.643,0,0,0,.457-.237,2.638,2.638,0,0,0,.445-.72,9.747,9.747,0,0,0,.44-1.221,15.024,15.024,0,0,0,.429-1.694,17.239,17.239,0,0,0,.253-1.76Zm5.159-.979h9.658V-7.4h-9.658Zm.715,1.793h8.437v1.1h-8.437Zm1.012,3.938h6.358v1.111h-6.358Zm.022-2.222h7.249v3.927h-1.331v-2.86H-46.59Zm-.858,0h1.309V-3.63a10.784,10.784,0,0,1-.066,1.144,7.724,7.724,0,0,1-.242,1.248,5.842,5.842,0,0,1-.5,1.221,4.162,4.162,0,0,1-.825,1.062,2.53,2.53,0,0,0-.286-.308Q-48.24.561-48.444.4A3.433,3.433,0,0,0-48.79.143,3.51,3.51,0,0,0-47.9-1.078a4.957,4.957,0,0,0,.368-1.336,10.023,10.023,0,0,0,.083-1.227Zm3.256-4.345h1.331v3.212h-1.331Zm.033,4.708h1.287V-2.09h-1.287ZM-33.7-6.754q.473.044.951.071t.974.028q1.012,0,2.013-.088a14.469,14.469,0,0,0,1.848-.275v1.375q-.858.121-1.859.192t-2,.072q-.484,0-.962-.016t-.962-.049Zm4.18-1.859q-.022.154-.038.341t-.028.374q-.011.176-.022.473t-.011.665v.776q0,.748.022,1.4t.055,1.21l.061,1.018q.027.462.028.858a2.6,2.6,0,0,1-.116.792,1.685,1.685,0,0,1-.368.638A1.639,1.639,0,0,1-30.6.358a2.989,2.989,0,0,1-1.006.149,3.1,3.1,0,0,1-1.8-.462,1.525,1.525,0,0,1-.66-1.331,1.671,1.671,0,0,1,.3-.985,1.938,1.938,0,0,1,.847-.66,3.269,3.269,0,0,1,1.3-.237A5.668,5.668,0,0,1-30.211-3a5.493,5.493,0,0,1,1.166.44,6,6,0,0,1,.941.6q.412.325.743.622l-.759,1.155A12.043,12.043,0,0,0-29.342-1.21a5.4,5.4,0,0,0-1.183-.66A3.3,3.3,0,0,0-31.74-2.1a1.442,1.442,0,0,0-.753.176.55.55,0,0,0-.292.5.51.51,0,0,0,.3.484,1.563,1.563,0,0,0,.726.154,1.07,1.07,0,0,0,.539-.115.633.633,0,0,0,.28-.341,1.59,1.59,0,0,0,.083-.544q0-.286-.022-.748t-.049-1.034q-.028-.572-.05-1.194T-31-5.984q0-.627-.006-1.139t-.005-.764q0-.121-.022-.341t-.055-.385Zm-5.368.121-.093.308q-.06.2-.1.385t-.061.286q-.055.231-.121.622t-.137.88q-.072.49-.138,1t-.1.968q-.033.457-.033.786,0,.165.006.358a2.136,2.136,0,0,0,.038.357q.077-.2.16-.385t.171-.374q.088-.187.165-.374l.671.55q-.154.451-.313.946t-.286.935q-.127.44-.193.737-.022.11-.038.264A2.465,2.465,0,0,0-35.3.011q0,.088.006.215t.016.237l-1.243.1A10.554,10.554,0,0,1-36.833-.93a14.182,14.182,0,0,1-.132-2.03q0-.616.055-1.292t.126-1.3q.071-.627.148-1.15t.121-.841q.033-.231.066-.523t.044-.556Zm14.927-.88h3.652v1.188H-18.65v5.841h-1.309ZM-14.91,0l.286-2.387h-.946V-3.443H-14.5l.187-1.507h-1V-6h1.133l.264-2.123h.946L-13.227-6h1.386l.275-2.123h.946L-10.873-6h.99V-4.95h-1.122l-.187,1.507h1.056v1.056h-1.188L-11.6,0h-.968l.286-2.387h-1.386L-13.953,0Zm1.364-3.443h1.386l.187-1.507h-1.386ZM-8.64,0V-6.16h1.32l.121.825h.033a4.792,4.792,0,0,1,.836-.687,1.9,1.9,0,0,1,1.056-.292,1.818,1.818,0,0,1,1.062.28,1.805,1.805,0,0,1,.622.8A5.74,5.74,0,0,1-2.684-6a1.862,1.862,0,0,1,1.061-.313A1.64,1.64,0,0,1-.176-5.66,3.145,3.145,0,0,1,.281-3.839V0H-1.325V-3.641a1.767,1.767,0,0,0-.209-1,.75.75,0,0,0-.649-.286,1.1,1.1,0,0,0-.556.17,3.091,3.091,0,0,0-.632.523V0H-4.988V-3.641a1.767,1.767,0,0,0-.209-1,.75.75,0,0,0-.649-.286,1.148,1.148,0,0,0-.556.17,2.569,2.569,0,0,0-.622.523V0ZM4.647.154A3.139,3.139,0,0,1,3.1-.231,2.85,2.85,0,0,1,1.991-1.342,3.463,3.463,0,0,1,1.578-3.08a3.6,3.6,0,0,1,.237-1.342A3.062,3.062,0,0,1,2.464-5.44a2.939,2.939,0,0,1,.924-.649,2.6,2.6,0,0,1,1.061-.226,2.512,2.512,0,0,1,1.419.38A2.356,2.356,0,0,1,6.732-4.89a3.764,3.764,0,0,1,.291,1.523A3.941,3.941,0,0,1,7-2.943a2.17,2.17,0,0,1-.055.325h-3.8a1.922,1.922,0,0,0,.3.836,1.454,1.454,0,0,0,.594.512,1.918,1.918,0,0,0,.825.171,2.319,2.319,0,0,0,.7-.1,3.054,3.054,0,0,0,.671-.314l.55.99A4.059,4.059,0,0,1,5.78-.033,3.562,3.562,0,0,1,4.647.154ZM3.118-3.707H5.637a1.585,1.585,0,0,0-.28-.984,1.042,1.042,0,0,0-.886-.368,1.3,1.3,0,0,0-.6.148,1.288,1.288,0,0,0-.484.451A1.85,1.85,0,0,0,3.118-3.707ZM8.354,0V-6.16h1.32L9.8-5.071h.033a2.713,2.713,0,0,1,.8-.924,1.647,1.647,0,0,1,.946-.319A1.871,1.871,0,0,1,12-6.276a1.944,1.944,0,0,1,.292.094l-.264,1.4q-.176-.044-.314-.071a1.813,1.813,0,0,0-.346-.028,1.3,1.3,0,0,0-.743.275,2.026,2.026,0,0,0-.655.935V0Zm7.238.154a3.056,3.056,0,0,1-1.529-.385,2.77,2.77,0,0,1-1.078-1.106,3.572,3.572,0,0,1-.4-1.743,3.316,3.316,0,0,1,.434-1.744,2.959,2.959,0,0,1,1.155-1.106,3.252,3.252,0,0,1,1.557-.385,2.5,2.5,0,0,1,1.012.193,2.874,2.874,0,0,1,.781.5L16.758-4.6a1.651,1.651,0,0,0-.451-.3,1.216,1.216,0,0,0-.484-.1,1.47,1.47,0,0,0-.83.237,1.522,1.522,0,0,0-.55.666A2.455,2.455,0,0,0,14.25-3.08a2.455,2.455,0,0,0,.192,1.012,1.551,1.551,0,0,0,.539.665,1.362,1.362,0,0,0,.786.237,1.5,1.5,0,0,0,.638-.143,2.586,2.586,0,0,0,.561-.352l.638,1.067a2.873,2.873,0,0,1-.973.567A3.218,3.218,0,0,1,15.592.154Zm5.478,0A3.139,3.139,0,0,1,19.52-.231a2.85,2.85,0,0,1-1.106-1.111A3.463,3.463,0,0,1,18-3.08a3.6,3.6,0,0,1,.237-1.342,3.062,3.062,0,0,1,.649-1.018,2.939,2.939,0,0,1,.924-.649,2.6,2.6,0,0,1,1.061-.226,2.512,2.512,0,0,1,1.419.38,2.356,2.356,0,0,1,.864,1.045,3.764,3.764,0,0,1,.292,1.523,3.941,3.941,0,0,1-.022.424,2.17,2.17,0,0,1-.055.325h-3.8a1.922,1.922,0,0,0,.3.836,1.454,1.454,0,0,0,.594.512,1.918,1.918,0,0,0,.825.171,2.319,2.319,0,0,0,.7-.1,3.054,3.054,0,0,0,.671-.314l.55.99A4.059,4.059,0,0,1,22.2-.033,3.562,3.562,0,0,1,21.071.154ZM19.542-3.707h2.519a1.585,1.585,0,0,0-.28-.984,1.042,1.042,0,0,0-.885-.368,1.3,1.3,0,0,0-.605.148,1.288,1.288,0,0,0-.484.451A1.85,1.85,0,0,0,19.542-3.707Zm7.4,3.861a2.32,2.32,0,0,1-1.336-.385,2.462,2.462,0,0,1-.875-1.111,4.437,4.437,0,0,1-.308-1.738A3.739,3.739,0,0,1,24.794-4.8a2.884,2.884,0,0,1,.962-1.117,2.224,2.224,0,0,1,1.254-.4,1.916,1.916,0,0,1,.875.181,3.005,3.005,0,0,1,.688.49l-.055-.968V-8.778h1.617V0h-1.32l-.121-.638H28.65a3.363,3.363,0,0,1-.781.561A1.961,1.961,0,0,1,26.944.154Zm.418-1.331a1.285,1.285,0,0,0,.611-.148,1.747,1.747,0,0,0,.545-.49V-4.521a1.682,1.682,0,0,0-.567-.358,1.733,1.733,0,0,0-.588-.1,1.045,1.045,0,0,0-.632.214,1.468,1.468,0,0,0-.468.633A2.67,2.67,0,0,0,26.087-3.1a3.3,3.3,0,0,0,.149,1.067,1.312,1.312,0,0,0,.434.643A1.122,1.122,0,0,0,27.363-1.177ZM33.7.154A1.637,1.637,0,0,1,32.247-.5,3.174,3.174,0,0,1,31.8-2.321V-6.16H33.4v3.641a1.767,1.767,0,0,0,.209,1,.775.775,0,0,0,.671.286,1.178,1.178,0,0,0,.654-.181A2.463,2.463,0,0,0,35.525-2V-6.16h1.617V0h-1.32L35.7-.891h-.044a3.589,3.589,0,0,1-.858.759A2.048,2.048,0,0,1,33.7.154Zm8.261.858H38.307V-.176H40.65V-6.017h1.309Zm7.8-8.558q.33-.011.627-.028t.451-.027q.341-.022.841-.072t1.122-.1q.622-.055,1.326-.11t1.463-.121q.572-.055,1.139-.094T57.8-8.168q.511-.027.9-.038L58.712-6.8q-.3,0-.682.011t-.764.038a3.805,3.805,0,0,0-.677.1,2.762,2.762,0,0,0-.924.445,3.452,3.452,0,0,0-.743.737,3.541,3.541,0,0,0-.49.913,2.892,2.892,0,0,0-.176.984,2.227,2.227,0,0,0,.193.951,2.094,2.094,0,0,0,.528.7,2.96,2.96,0,0,0,.786.484,4.7,4.7,0,0,0,.974.291A8.5,8.5,0,0,0,57.821-1L57.3.506a6.846,6.846,0,0,1-1.347-.22A5.7,5.7,0,0,1,54.73-.2a3.936,3.936,0,0,1-1-.754,3.436,3.436,0,0,1-.671-1.023,3.25,3.25,0,0,1-.247-1.293,4.07,4.07,0,0,1,.253-1.457A4.653,4.653,0,0,1,53.7-5.891a3.813,3.813,0,0,1,.754-.775q-.308.044-.743.088t-.935.1q-.5.061-1.017.127t-1,.148q-.479.082-.863.16ZM57.139-5.72q.143.2.3.468t.313.539q.154.27.264.49l-.836.374q-.209-.462-.4-.814a6.623,6.623,0,0,0-.457-.715Zm1.232-.506q.143.2.313.457t.335.528q.165.27.275.478l-.825.4q-.22-.44-.424-.781a7.743,7.743,0,0,0-.479-.7Zm2.123-.847H64.08v1.221H60.494ZM61.847-9.35h1.221V.979H61.847Zm0,3.124.748.242q-.121.66-.3,1.364T61.9-3.24a13.088,13.088,0,0,1-.489,1.26,6.462,6.462,0,0,1-.561,1.012,4.036,4.036,0,0,0-.27-.605q-.181-.341-.335-.572a5.4,5.4,0,0,0,.517-.847q.242-.484.457-1.034t.374-1.116Q61.748-5.709,61.847-6.226Zm1.166.825q.088.11.275.38t.4.577q.209.308.385.578t.242.38l-.682,1.023q-.088-.242-.231-.566T63.085-3.7q-.17-.347-.33-.649L62.5-4.84ZM65.3-6.809h4.015v1.078H65.3ZM67.27-8.2a6.15,6.15,0,0,1-.753.9,8.788,8.788,0,0,1-1,.858,7.635,7.635,0,0,1-1.117.688,4.138,4.138,0,0,0-.286-.572,6.137,6.137,0,0,0-.341-.528,6.069,6.069,0,0,0,1.139-.666,7.337,7.337,0,0,0,.99-.874,5.932,5.932,0,0,0,.732-.935h1.2a7.426,7.426,0,0,0,.874,1,7.569,7.569,0,0,0,1.045.836,5.822,5.822,0,0,0,1.127.589,5.235,5.235,0,0,0-.363.555q-.187.325-.319.6a7.868,7.868,0,0,1-1.083-.666,9.483,9.483,0,0,1-1.034-.864A7.158,7.158,0,0,1,67.27-8.2Zm-1.683,4.18v1.034H69.03V-4.015ZM64.443-5.027h5.775v3.058H64.443Zm2.233-1.1h1.188v2.816a6.138,6.138,0,0,1-.126,1.227,3.646,3.646,0,0,1-.49,1.2A3.908,3.908,0,0,1,66.2.2a6.326,6.326,0,0,1-1.771.847,1.7,1.7,0,0,0-.181-.33q-.127-.187-.27-.369a2.3,2.3,0,0,0-.253-.281,6.725,6.725,0,0,0,1.595-.7,2.882,2.882,0,0,0,.88-.831,2.643,2.643,0,0,0,.379-.918,4.979,4.979,0,0,0,.094-.968Zm1.276,3.5a5.222,5.222,0,0,0,.77,1.32,3.23,3.23,0,0,0,.94.775,6.124,6.124,0,0,0,1.15.468,2.748,2.748,0,0,0-.446.5,2.61,2.61,0,0,0-.325.6A6.62,6.62,0,0,1,68.75.363,4.237,4.237,0,0,1,67.688-.687a6.85,6.85,0,0,1-.847-1.7Zm7.854.616h1.32v3h-1.32ZM75.8-9.35H77.1v3.179H75.8Zm-.286,3.377,1.2.561q-.5.44-1.034.858t-.99.715l-.935-.506a7.315,7.315,0,0,0,.621-.495q.324-.286.627-.583A7.3,7.3,0,0,0,75.509-5.973Zm2.376.693,1.177.638q-.671.517-1.463,1.034t-1.584.984q-.792.468-1.485.82l-.869-.605q.517-.264,1.094-.611T75.9-3.751q.567-.385,1.078-.776T77.885-5.28ZM72.792-4.125l.858-.748q.4.2.841.451t.858.522a6.135,6.135,0,0,1,.676.5l-.913.825a5.985,5.985,0,0,0-.632-.512q-.39-.28-.836-.556T72.792-4.125Zm5.148.858.869-.66q.44.264.935.611t.951.7a6.723,6.723,0,0,1,.731.638l-.924.759a7.907,7.907,0,0,0-.693-.649q-.429-.363-.919-.732T77.94-3.267ZM77.753-.891l1.012-.649q.429.22.935.511t.979.6a8.9,8.9,0,0,1,.781.561L80.371.88a6.2,6.2,0,0,0-.71-.567Q79.216,0,78.71-.319T77.753-.891ZM71.67-2.662q.781,0,1.766-.005l2.106-.011q1.122-.005,2.315-.027t2.371-.033l-.066,1q-1.507.055-3.042.1t-2.915.088q-1.381.039-2.469.061Zm2.255,1.155,1.243.473a7.112,7.112,0,0,1-.819.737,10.42,10.42,0,0,1-.974.671q-.506.308-.968.539a3.645,3.645,0,0,0-.3-.308q-.187-.176-.38-.347T71.4-.022a8.567,8.567,0,0,0,1.4-.655A5.741,5.741,0,0,0,73.925-1.507ZM71.8-8.492h9.372v1.133H71.8Zm-.1,1.815h9.614v2.288H80.008V-5.577H72.957v1.188H71.7Zm15.235,3.85-.3-3.762-.055-1.639h1.826l-.055,1.639-.3,3.762ZM87.5.1a.94.94,0,0,1-.693-.275.94.94,0,0,1-.275-.693.953.953,0,0,1,.275-.7.94.94,0,0,1,.693-.275.94.94,0,0,1,.693.275.953.953,0,0,1,.275.7.94.94,0,0,1-.275.693A.94.94,0,0,1,87.5.1Z" transform="translate(188 7016.6)" fill="#333"/></g></g></g></svg>