<svg xmlns="http://www.w3.org/2000/svg" width="357.938" height="58.428" viewBox="0 0 357.938 58.428"><g transform="translate(-756.866 -1240.572)"><path d="M-66.444-7.56q-.132.144-.234.264a1.81,1.81,0,0,0-.174.24q-.36.576-.852,1.248T-68.8-4.452q-.6.684-1.266,1.32A13.528,13.528,0,0,1-71.436-1.98L-72.624-3.1A9.46,9.46,0,0,0-71.49-4q.534-.5,1-1.014t.822-1.008q.36-.492.6-.9H-75.42q-.24,0-.51.012t-.51.036l-.36.036V-8.52q.156.012.4.048t.51.048q.264.012.468.012h6.66a3.758,3.758,0,0,0,1.116-.132ZM-72.78-1.812q-.264-.264-.606-.582t-.708-.642q-.366-.324-.708-.606t-.618-.474l1.272-1.02q.24.18.57.444t.7.576q.372.312.756.648t.732.66q.4.384.822.828t.816.864q.39.42.666.78L-70.488.78q-.252-.336-.642-.786t-.822-.93Q-72.384-1.416-72.78-1.812Zm10.4-3.744.552.03q.336.018.7.03t.678.012H-54q.42,0,.792-.03t.612-.042v1.884l-.612-.036q-.408-.024-.792-.024h-6.444q-.516,0-1.056.018t-.876.042Zm24.084-1.908q-.1.168-.2.4t-.192.462a12.19,12.19,0,0,1-.438,1.206,12.663,12.663,0,0,1-.7,1.4,10.664,10.664,0,0,1-.954,1.4A11.378,11.378,0,0,1-42.786-.72,12.767,12.767,0,0,1-45.624.792L-47.04-.48a11.515,11.515,0,0,0,2.112-.828,9.488,9.488,0,0,0,1.548-1A9.065,9.065,0,0,0-42.2-3.444a6.51,6.51,0,0,0,.768-1.062,10.606,10.606,0,0,0,.6-1.182A5.09,5.09,0,0,0-40.5-6.72h-4.044l.552-1.356h3.432A4.4,4.4,0,0,0-40-8.112a2.376,2.376,0,0,0,.486-.108ZM-42.2-9.36q-.216.312-.42.672l-.312.552a13,13,0,0,1-1,1.494,13.365,13.365,0,0,1-1.35,1.5A13.742,13.742,0,0,1-46.9-3.816l-1.356-1a11.579,11.579,0,0,0,1.4-1.008A9.89,9.89,0,0,0-45.8-6.846a9.974,9.974,0,0,0,.762-.984q.318-.474.546-.846a4.266,4.266,0,0,0,.3-.594,5.509,5.509,0,0,0,.24-.666Zm9.192.984q.24.024.564.048t.576.024h6.528q.276,0,.576-.024t.552-.048v1.644q-.264-.024-.564-.036t-.564-.012h-6.528q-.24,0-.576.012t-.564.036ZM-29.556-1V-7.452h1.68V-1Zm-4.236-.984q.288.048.6.072t.588.024H-24.7a5.916,5.916,0,0,0,.612-.03q.288-.03.516-.066V-.24q-.264-.036-.588-.048T-24.7-.3H-32.6q-.264,0-.576.012t-.612.048Zm15.768-7.08q.288.048.636.072t.648.024h3.924q.312,0,.648-.024t.648-.072v1.548q-.312-.024-.648-.03t-.648-.006H-16.74q-.312,0-.66.006t-.624.03Zm-1.392,3.072q.264.036.57.054t.582.018h7.86q.192,0,.522-.018t.57-.054v1.56q-.216-.024-.528-.03t-.564-.006h-7.86q-.264,0-.582.012t-.57.036Zm6.144.84a9.808,9.808,0,0,1-.2,2.094,6.822,6.822,0,0,1-.588,1.674,4.276,4.276,0,0,1-.57.84,6.455,6.455,0,0,1-.834.816,5.151,5.151,0,0,1-1.008.648L-17.88-.1A4.461,4.461,0,0,0-16.656-.81a4.71,4.71,0,0,0,.948-1A4.049,4.049,0,0,0-15.1-3.336a9.929,9.929,0,0,0,.156-1.812Zm2.472-4.74q.156.216.33.516t.336.6q.162.3.282.528l-.96.42Q-11-8.2-11.262-8.67a9.228,9.228,0,0,0-.5-.822Zm1.416-.54q.156.228.336.534l.354.6q.174.294.282.5l-.96.42q-.18-.384-.45-.852t-.51-.8Zm12.612,4.7a1.273,1.273,0,0,0-.072.264q-.024.144-.048.24-.036.252-.1.7t-.144.978q-.078.534-.162,1.074t-.15.984q-.066.444-.114.708H.792Q.84-1.032.9-1.422t.138-.852q.078-.462.144-.93T1.3-4.068q.048-.4.06-.636h-3.24q-.288,0-.618.018t-.582.042V-6.228q.156.024.372.036l.438.024q.222.012.378.012H1.176q.132,0,.312-.012a3.184,3.184,0,0,0,.348-.042.543.543,0,0,0,.228-.078ZM-4.188-1.368q.24.024.558.042t.63.018H3.288q.228,0,.588-.012t.588-.036V.192Q4.344.18,4.134.174L3.7.162Q3.48.156,3.312.156H-3q-.312,0-.576.006t-.612.03ZM13.908-9.4q-.108.228-.216.5t-.18.468q-.108.3-.258.672T12.942-7q-.162.378-.33.69a9.8,9.8,0,0,1-.57.978,12.216,12.216,0,0,1-.726,1,6.228,6.228,0,0,1-.792.822l-1.5-.912a4.066,4.066,0,0,0,.618-.54q.294-.312.564-.648t.5-.666q.228-.33.4-.618a5.984,5.984,0,0,0,.414-.852q.174-.444.282-.78a4.412,4.412,0,0,0,.174-.63,4,4,0,0,0,.078-.606Zm-1.9,1.848h6.336q.24,0,.6-.018a5.7,5.7,0,0,0,.648-.066v1.644q-.336-.036-.69-.042t-.558-.006H11.88Zm4.68.864a12.02,12.02,0,0,1-.276,2.442,8.509,8.509,0,0,1-.714,2.01A7.263,7.263,0,0,1,14.568-.606,7.49,7.49,0,0,1,13.032.66L11.412-.432a5.009,5.009,0,0,0,.624-.306,3.728,3.728,0,0,0,.516-.354A6.363,6.363,0,0,0,13.506-2a5.872,5.872,0,0,0,.78-1.188,6.776,6.776,0,0,0,.54-1.542,9.247,9.247,0,0,0,.21-1.956Zm7.332,1.128.552.03q.336.018.7.03t.678.012H32.4q.42,0,.792-.03t.612-.042v1.884l-.612-.036q-.408-.024-.792-.024H25.956q-.516,0-1.056.018t-.876.042ZM40.788-9.5q.288.168.66.4l.762.468q.39.24.732.462t.582.39l-.9,1.332q-.24-.18-.588-.408t-.72-.468q-.372-.24-.738-.462t-.666-.39ZM38.556-.984q.684-.12,1.374-.294a12.228,12.228,0,0,0,1.38-.438,11.544,11.544,0,0,0,1.338-.612,13.489,13.489,0,0,0,1.9-1.3A12.555,12.555,0,0,0,46.134-5.16a10.367,10.367,0,0,0,1.182-1.668L48.24-5.2a12.7,12.7,0,0,1-2.07,2.352A16.045,16.045,0,0,1,43.464-.888a11.9,11.9,0,0,1-1.338.648Q41.4.06,40.7.282A9.993,9.993,0,0,1,39.456.6Zm.384-5.784q.3.168.678.39t.762.462l.726.456q.342.216.57.384L40.8-3.732q-.264-.18-.6-.4T39.486-4.6q-.378-.246-.744-.462t-.678-.372Zm15.1-.012.42.03q.264.018.552.024t.516.006H60.06q.216,0,.5-.006t.426-.018q-.012.12-.012.366V.084q0,.144.006.4T60.984.9H59.472q.012-.156.012-.432V-5.376h-3.96q-.228,0-.516.006t-.558.018q-.27.012-.414.024Zm.312,2.82q.24.012.606.024t.7.012H60.18v1.356H55.656q-.336,0-.714.006t-.594.018ZM53.9-1.02l.432.03q.276.018.612.018h5.244V.42H54.936q-.252,0-.564.012T53.9.456Zm14.868-8.1q.312.216.732.528t.87.678q.45.366.846.714a8.371,8.371,0,0,1,.648.624L70.644-5.328q-.228-.252-.6-.6t-.8-.72q-.432-.372-.852-.708t-.744-.564Zm-1.5,7.992A12.709,12.709,0,0,0,69.036-1.5a12.3,12.3,0,0,0,1.536-.552,13.966,13.966,0,0,0,1.3-.648A11.6,11.6,0,0,0,73.74-4.092a11.932,11.932,0,0,0,1.488-1.626,9.2,9.2,0,0,0,1.008-1.65l.936,1.692A11.173,11.173,0,0,1,76.05-4.068a12.914,12.914,0,0,1-1.506,1.53,12.544,12.544,0,0,1-1.812,1.3,13.606,13.606,0,0,1-1.32.7,13.5,13.5,0,0,1-1.494.588,11.263,11.263,0,0,1-1.638.4Z" transform="translate(935.866 1251)" fill="#fff"/><g transform="translate(-0.134 -8)"><path d="M81.2,33.058V16.65L74.124,27.385h-.142l-7-10.628v16.3H61.524V7.927h5.959l6.606,10.625,6.6-10.625h5.961V33.058Z" transform="translate(757 1267)" fill="#fff"/><path d="M92.685,33.058V7.927h18.921v4.918H98.143v5.1h11.848v4.919H98.143v5.278h13.643v4.919Z" transform="translate(757 1267)" fill="#fff"/><path d="M132,33.058l-5.385-8.043h-4.344v8.043H116.74V7.927h11.49a10.232,10.232,0,0,1,6.981,2.19,7.69,7.69,0,0,1,2.5,6.1v.072a7.879,7.879,0,0,1-1.491,4.972,8.626,8.626,0,0,1-3.894,2.818l6.138,8.976Zm.108-16.551a3.2,3.2,0,0,0-1.149-2.693,5.073,5.073,0,0,0-3.195-.9h-5.493v7.215h5.6a4.585,4.585,0,0,0,3.141-.969,3.285,3.285,0,0,0,1.095-2.585Z" transform="translate(757 1267)" fill="#fff"/><path d="M162.766,30.868a11.973,11.973,0,0,1-2.28,1.418,11.747,11.747,0,0,1-2.71.9,16.373,16.373,0,0,1-3.3.305,13.014,13.014,0,0,1-5.135-1,12.38,12.38,0,0,1-6.785-6.858,13.253,13.253,0,0,1-.969-5.061v-.071a13.064,13.064,0,0,1,3.661-9.175,12.535,12.535,0,0,1,4.13-2.8A13.435,13.435,0,0,1,154.688,7.5a16.761,16.761,0,0,1,3.214.286,13.587,13.587,0,0,1,2.639.79,11.6,11.6,0,0,1,2.189,1.221,14.9,14.9,0,0,1,1.866,1.579l-3.518,4.058a13.3,13.3,0,0,0-3-2.083,7.649,7.649,0,0,0-3.429-.754,6.975,6.975,0,0,0-5.242,2.3,7.89,7.89,0,0,0-1.507,2.495,8.46,8.46,0,0,0-.539,3.034v.073a8.586,8.586,0,0,0,.539,3.05,7.987,7.987,0,0,0,1.49,2.514,6.906,6.906,0,0,0,5.259,2.333,7.7,7.7,0,0,0,3.645-.79,14.124,14.124,0,0,0,2.961-2.153L164.776,29a18.2,18.2,0,0,1-2.01,1.868" transform="translate(757 1267)" fill="#fff"/><path d="M185.5,33.058V7.927h17.88V9.614H187.371v9.945h14.395v1.686H187.371V31.37h16.19v1.688Z" transform="translate(757 1267)" fill="#fff"/><path d="M224.421,33.059V28.966a16.9,16.9,0,0,1-1.346,1.723,8.391,8.391,0,0,1-3.7,2.423,7.883,7.883,0,0,1-2.495.377,8.57,8.57,0,0,1-3.249-.647,8.788,8.788,0,0,1-2.853-1.866,9.218,9.218,0,0,1-2.029-3,9.915,9.915,0,0,1-.773-4V23.9a9.933,9.933,0,0,1,.773-4,9.432,9.432,0,0,1,2.029-3.015,8.893,8.893,0,0,1,2.853-1.9,8.567,8.567,0,0,1,5.762-.3,7.988,7.988,0,0,1,2.064.968,9.362,9.362,0,0,1,1.652,1.4,13.14,13.14,0,0,1,1.31,1.653V6.85h1.759V33.059Zm.108-9.192a8,8,0,0,0-.63-3.213,7.605,7.605,0,0,0-4.067-4.075A7.068,7.068,0,0,0,217.044,16a7.379,7.379,0,0,0-2.826.538,6.639,6.639,0,0,0-2.286,1.545,7.183,7.183,0,0,0-1.529,2.459,9.131,9.131,0,0,0-.558,3.284V23.9a8.9,8.9,0,0,0,.576,3.268,7.419,7.419,0,0,0,1.566,2.494,7.014,7.014,0,0,0,5.057,2.136,7.068,7.068,0,0,0,2.788-.574,7.542,7.542,0,0,0,2.394-1.616,7.954,7.954,0,0,0,1.673-2.478,7.86,7.86,0,0,0,.63-3.195Z" transform="translate(757 1267)" fill="#fff"/><path d="M246.429,33.058V29.647a8.533,8.533,0,0,1-2.513,2.728,6.961,6.961,0,0,1-4.092,1.113,8.11,8.11,0,0,1-3.088-.556,6.446,6.446,0,0,1-3.751-3.949,9.1,9.1,0,0,1-.485-3.034v-11.2h1.758V25.625a6.607,6.607,0,0,0,1.508,4.542,5.443,5.443,0,0,0,4.308,1.706,6.426,6.426,0,0,0,2.5-.485,6.25,6.25,0,0,0,2.029-1.346,6.125,6.125,0,0,0,1.346-2.065,7,7,0,0,0,.484-2.639V14.747h1.76V33.058Z" transform="translate(757 1267)" fill="#fff"/><path d="M267.2,32.448a8.36,8.36,0,0,1-4.291,1.04,8.821,8.821,0,0,1-3.679-.771,9.548,9.548,0,0,1-2.958-2.064,9.412,9.412,0,0,1-1.958-3.016,9.574,9.574,0,0,1-.7-3.662V23.9a9.583,9.583,0,0,1,.7-3.663,9.8,9.8,0,0,1,1.958-3.05,9.248,9.248,0,0,1,2.958-2.1,8.807,8.807,0,0,1,3.679-.772,9.272,9.272,0,0,1,2.351.276,8.959,8.959,0,0,1,1.956.75,9.622,9.622,0,0,1,1.634,1.09,16.525,16.525,0,0,1,1.383,1.294l-1.257,1.293a14.025,14.025,0,0,0-2.62-2.118,6.449,6.449,0,0,0-3.482-.9,7.031,7.031,0,0,0-2.927.607,7.247,7.247,0,0,0-2.334,1.662,7.912,7.912,0,0,0-1.562,2.484,8.178,8.178,0,0,0-.574,3.073V23.9a8.125,8.125,0,0,0,2.208,5.612,7.467,7.467,0,0,0,2.388,1.678,7.153,7.153,0,0,0,2.943.608,6.816,6.816,0,0,0,3.465-.879,10.741,10.741,0,0,0,2.675-2.173l1.22,1.076a12.97,12.97,0,0,1-3.176,2.623" transform="translate(757 1267)" fill="#fff"/><path d="M287.931,33.058V30A9.028,9.028,0,0,1,286.8,31.28a7.691,7.691,0,0,1-1.527,1.113,8.7,8.7,0,0,1-1.956.79,8.874,8.874,0,0,1-2.386.305,9.212,9.212,0,0,1-2.55-.359,7.324,7.324,0,0,1-2.262-1.076,5.75,5.75,0,0,1-1.632-1.795,4.893,4.893,0,0,1-.629-2.514v-.072a5.349,5.349,0,0,1,.591-2.55,5.445,5.445,0,0,1,1.634-1.866,7.624,7.624,0,0,1,2.514-1.149,12.6,12.6,0,0,1,3.266-.395,22.539,22.539,0,0,1,3.339.215,25.47,25.47,0,0,1,2.729.575v-.785a5.245,5.245,0,0,0-1.6-4.177,6.528,6.528,0,0,0-4.434-1.393,10.858,10.858,0,0,0-3.087.414,15.189,15.189,0,0,0-2.657,1.059l-.646-1.545a18.428,18.428,0,0,1,3.052-1.174,12.527,12.527,0,0,1,3.446-.442,8.2,8.2,0,0,1,5.6,1.8,6.786,6.786,0,0,1,2.046,5.385V33.058Zm.035-8.943q-1.147-.288-2.693-.555a20.667,20.667,0,0,0-3.517-.268,7.387,7.387,0,0,0-4.469,1.162,3.663,3.663,0,0,0-1.563,3.092v.072a3.563,3.563,0,0,0,.431,1.77,4.055,4.055,0,0,0,1.167,1.3,5.541,5.541,0,0,0,1.706.823,7.117,7.117,0,0,0,2.01.285,8.5,8.5,0,0,0,2.657-.411,7.3,7.3,0,0,0,2.207-1.143,5.515,5.515,0,0,0,1.508-1.77,4.758,4.758,0,0,0,.556-2.288Z" transform="translate(757 1267)" fill="#fff"/><path d="M303.638,33.219a6.947,6.947,0,0,1-1.561.161,6.835,6.835,0,0,1-2.013-.287,4.221,4.221,0,0,1-2.728-2.495,5.816,5.816,0,0,1-.4-2.244V16.362h-2.656V14.747h2.656V8.9H298.7v5.852h6.424v1.615H298.7V28.147a3.284,3.284,0,0,0,1.022,2.758,4.2,4.2,0,0,0,2.638.788,5.915,5.915,0,0,0,1.293-.136,8.151,8.151,0,0,0,1.4-.474v1.651a7.7,7.7,0,0,1-1.418.485" transform="translate(757 1267)" fill="#fff"/><path d="M310.369,7.567h2.19v2.4h-2.19Zm.215,7.18h1.76V33.058h-1.76Z" transform="translate(757 1267)" fill="#fff"/><path d="M336.128,27.566a9.605,9.605,0,0,1-1.974,3.05,9.475,9.475,0,0,1-3,2.1,9.124,9.124,0,0,1-3.77.771,9.007,9.007,0,0,1-3.752-.771,9.632,9.632,0,0,1-2.961-2.064,9.306,9.306,0,0,1-1.957-3.016,9.629,9.629,0,0,1-.7-3.662V23.9a9.6,9.6,0,0,1,2.676-6.713,9.466,9.466,0,0,1,3-2.1,9.13,9.13,0,0,1,3.77-.771,9,9,0,0,1,3.752.771,9.654,9.654,0,0,1,2.962,2.064,9.3,9.3,0,0,1,1.957,3.016,9.649,9.649,0,0,1,.7,3.662V23.9a9.657,9.657,0,0,1-.7,3.663M334.96,23.9a8.268,8.268,0,0,0-.577-3.092,7.715,7.715,0,0,0-1.605-2.519,7.446,7.446,0,0,0-2.417-1.679,7.584,7.584,0,0,0-5.988.016,7.43,7.43,0,0,0-2.381,1.681,7.659,7.659,0,0,0-1.552,2.484,8.305,8.305,0,0,0-.558,3.038V23.9a8.278,8.278,0,0,0,.577,3.091,7.76,7.76,0,0,0,1.606,2.521,7.423,7.423,0,0,0,2.417,1.678,7.579,7.579,0,0,0,5.988-.017,7.406,7.406,0,0,0,2.381-1.68,7.624,7.624,0,0,0,1.55-2.484,8.263,8.263,0,0,0,.559-3.038Z" transform="translate(757 1267)" fill="#fff"/><path d="M356.179,33.058V22.18a6.6,6.6,0,0,0-1.508-4.541,5.443,5.443,0,0,0-4.307-1.707,6.39,6.39,0,0,0-2.513.485,6.256,6.256,0,0,0-2.011,1.347,6.129,6.129,0,0,0-1.347,2.063,7.006,7.006,0,0,0-.485,2.639V33.058H342.25V14.747h1.758v3.41a8.539,8.539,0,0,1,2.513-2.727,6.962,6.962,0,0,1,4.093-1.113,8.1,8.1,0,0,1,3.087.556,6.568,6.568,0,0,1,2.317,1.562,6.644,6.644,0,0,1,1.436,2.387,9.094,9.094,0,0,1,.485,3.034v11.2Z" transform="translate(757 1267)" fill="#fff"/><path d="M37.487,40a1.378,1.378,0,0,1-1.377-1.377V14.15L9.087,31.753a1.377,1.377,0,1,1-1.5-2.307L36.736,10.458a1.377,1.377,0,0,1,2.128,1.154V38.623A1.378,1.378,0,0,1,37.487,40" transform="translate(757 1267)" fill="#fff"/><path d="M8.337,21.741a1.377,1.377,0,0,1-.753-2.53L36.736.223a1.377,1.377,0,1,1,1.5,2.307L9.087,21.518a1.372,1.372,0,0,1-.75.223" transform="translate(757 1267)" fill="#fff"/><path d="M1.377,40A1.378,1.378,0,0,1,0,38.623V1.377A1.377,1.377,0,0,1,2.119.217L13.55,7.538a1.376,1.376,0,1,1-1.484,2.318L2.754,3.893v34.73A1.378,1.378,0,0,1,1.377,40" transform="translate(757 1267)" fill="#e84730"/><path d="M0,0H357.939V40H0Z" transform="translate(757 1267)" fill="none"/></g></g></svg>