<svg xmlns="http://www.w3.org/2000/svg" xmlns:xlink="http://www.w3.org/1999/xlink" width="402.681" height="45" viewBox="0 0 402.681 45"><defs><clipPath id="a"><rect width="402.681" height="45" fill="none"/></clipPath></defs><path d="M83.656,36.2V17.74L75.7,29.817h-.16L67.662,17.861V36.2H61.524V7.927h6.7L75.66,19.88,83.09,7.927H89.8V36.2Z" transform="translate(7.69 0.991)" fill="#2e2624"/><path d="M92.685,36.2V7.927h21.286V13.46H98.825v5.734h13.329v5.534H98.825v5.938h15.348V36.2Z" transform="translate(11.585 0.991)" fill="#2e2624"/><g clip-path="url(#a)"><path d="M133.905,36.2l-6.058-9.048H122.96V36.2h-6.22V7.927h12.926q5.046,0,7.854,2.464a8.651,8.651,0,0,1,2.808,6.866v.081a8.864,8.864,0,0,1-1.677,5.593,9.7,9.7,0,0,1-4.381,3.17l6.905,10.1Zm.122-18.62a3.605,3.605,0,0,0-1.293-3.03,5.707,5.707,0,0,0-3.594-1.009h-6.18v8.117h6.3a5.158,5.158,0,0,0,3.534-1.09,3.7,3.7,0,0,0,1.232-2.908Z" transform="translate(14.592 0.991)" fill="#2e2624"/><path d="M165.414,33.789a13.465,13.465,0,0,1-2.565,1.6,13.216,13.216,0,0,1-3.049,1.009,18.42,18.42,0,0,1-3.716.343,14.641,14.641,0,0,1-5.777-1.131,13.928,13.928,0,0,1-7.633-7.715,14.91,14.91,0,0,1-1.09-5.694v-.08A14.7,14.7,0,0,1,145.7,11.8a14.1,14.1,0,0,1,4.646-3.15,15.114,15.114,0,0,1,5.977-1.15,18.857,18.857,0,0,1,3.616.322,15.286,15.286,0,0,1,2.969.889,13.042,13.042,0,0,1,2.462,1.374,16.756,16.756,0,0,1,2.1,1.776l-3.958,4.565a14.959,14.959,0,0,0-3.372-2.343,8.605,8.605,0,0,0-3.858-.848,7.847,7.847,0,0,0-5.9,2.585,8.876,8.876,0,0,0-1.7,2.807,9.518,9.518,0,0,0-.606,3.413v.082a9.661,9.661,0,0,0,.606,3.431,8.986,8.986,0,0,0,1.676,2.828A7.769,7.769,0,0,0,156.285,31a8.666,8.666,0,0,0,4.1-.889,15.89,15.89,0,0,0,3.331-2.422l3.958,4a20.463,20.463,0,0,1-2.261,2.1" transform="translate(17.698 0.937)" fill="#2e2624"/><path d="M185.5,36.2V7.927h20.115v1.9H187.6V21.013H203.8v1.9H187.6V34.3h18.214v1.9Z" transform="translate(23.187 0.991)" fill="#2e2624"/><path d="M226.476,36.335v-4.6a19.036,19.036,0,0,1-1.514,1.938,9.44,9.44,0,0,1-4.16,2.726,8.87,8.87,0,0,1-2.807.424,9.639,9.639,0,0,1-3.655-.728,9.885,9.885,0,0,1-3.21-2.1,10.371,10.371,0,0,1-2.283-3.374,11.157,11.157,0,0,1-.87-4.5v-.082a11.177,11.177,0,0,1,.87-4.5,10.613,10.613,0,0,1,2.283-3.392A10,10,0,0,1,214.34,16a9.637,9.637,0,0,1,6.482-.343,8.987,8.987,0,0,1,2.322,1.089A10.533,10.533,0,0,1,225,18.319a14.786,14.786,0,0,1,1.474,1.86V6.85h1.979V36.335Zm.122-10.341a9,9,0,0,0-.709-3.615,8.556,8.556,0,0,0-4.575-4.584,7.952,7.952,0,0,0-3.137-.646,8.3,8.3,0,0,0-3.179.605,7.468,7.468,0,0,0-2.572,1.738,8.08,8.08,0,0,0-1.72,2.766,10.271,10.271,0,0,0-.628,3.694v.081a10.015,10.015,0,0,0,.648,3.676,8.346,8.346,0,0,0,1.762,2.806,7.89,7.89,0,0,0,5.689,2.4,7.952,7.952,0,0,0,3.137-.646,8.484,8.484,0,0,0,2.693-1.818,8.949,8.949,0,0,0,1.882-2.788,8.841,8.841,0,0,0,.709-3.594Z" transform="translate(25.997 0.856)" fill="#2e2624"/><path d="M248.17,35.347V31.509a9.6,9.6,0,0,1-2.827,3.069,7.831,7.831,0,0,1-4.6,1.252,9.123,9.123,0,0,1-3.474-.625,7.253,7.253,0,0,1-4.22-4.443,10.233,10.233,0,0,1-.546-3.413v-12.6h1.978V26.985a7.432,7.432,0,0,0,1.7,5.11,6.123,6.123,0,0,0,4.847,1.919,7.229,7.229,0,0,0,2.808-.546,7.031,7.031,0,0,0,2.283-1.514,6.892,6.892,0,0,0,1.514-2.323,7.873,7.873,0,0,0,.545-2.969V14.747h1.98v20.6Z" transform="translate(29.062 1.843)" fill="#2e2624"/><path d="M268.9,34.714a9.4,9.4,0,0,1-4.828,1.17,9.923,9.923,0,0,1-4.139-.867,10.741,10.741,0,0,1-3.328-2.322,10.588,10.588,0,0,1-2.2-3.393,10.771,10.771,0,0,1-.791-4.12V25.1a10.781,10.781,0,0,1,.791-4.121,11.027,11.027,0,0,1,2.2-3.431,10.4,10.4,0,0,1,3.328-2.364,9.906,9.906,0,0,1,4.139-.868,10.432,10.432,0,0,1,2.645.31,10.081,10.081,0,0,1,2.2.844,10.827,10.827,0,0,1,1.838,1.226,18.6,18.6,0,0,1,1.556,1.456l-1.414,1.455a15.781,15.781,0,0,0-2.948-2.383,7.254,7.254,0,0,0-3.917-1.009,7.91,7.91,0,0,0-3.293.683,8.152,8.152,0,0,0-2.626,1.87,8.9,8.9,0,0,0-1.757,2.795,9.2,9.2,0,0,0-.646,3.457V25.1a9.142,9.142,0,0,0,2.484,6.313,8.4,8.4,0,0,0,2.686,1.888,8.047,8.047,0,0,0,3.311.684,7.667,7.667,0,0,0,3.9-.989,12.084,12.084,0,0,0,3.009-2.445l1.372,1.211a14.587,14.587,0,0,1-3.573,2.951" transform="translate(31.7 1.79)" fill="#2e2624"/><path d="M289.69,35.383V31.948a10.156,10.156,0,0,1-1.272,1.434,8.651,8.651,0,0,1-1.718,1.252,9.787,9.787,0,0,1-2.2.889,9.984,9.984,0,0,1-2.684.343,10.363,10.363,0,0,1-2.869-.4,8.242,8.242,0,0,1-2.545-1.21,6.469,6.469,0,0,1-1.836-2.019,5.505,5.505,0,0,1-.708-2.828v-.081a6.017,6.017,0,0,1,.665-2.869,6.124,6.124,0,0,1,1.838-2.1,8.577,8.577,0,0,1,2.828-1.293,14.17,14.17,0,0,1,3.674-.444,25.355,25.355,0,0,1,3.756.242,28.653,28.653,0,0,1,3.07.647v-.883a5.9,5.9,0,0,0-1.8-4.7,7.344,7.344,0,0,0-4.988-1.567,12.214,12.214,0,0,0-3.473.466,17.085,17.085,0,0,0-2.989,1.191l-.727-1.738a20.731,20.731,0,0,1,3.433-1.321,14.093,14.093,0,0,1,3.877-.5,9.228,9.228,0,0,1,6.3,2.02q2.3,2.02,2.3,6.058V35.383Zm.039-10.061Q288.438,25,286.7,24.7a23.249,23.249,0,0,0-3.957-.3,8.31,8.31,0,0,0-5.028,1.307,4.121,4.121,0,0,0-1.758,3.478v.081a4.009,4.009,0,0,0,.485,1.991,4.563,4.563,0,0,0,1.313,1.467,6.235,6.235,0,0,0,1.919.926,8.006,8.006,0,0,0,2.261.321,9.559,9.559,0,0,0,2.989-.462,8.216,8.216,0,0,0,2.483-1.286,6.205,6.205,0,0,0,1.7-1.991,5.353,5.353,0,0,0,.625-2.574Z" transform="translate(34.232 1.807)" fill="#2e2624"/><path d="M304.807,36.259a7.812,7.812,0,0,1-1.756.181,7.692,7.692,0,0,1-2.265-.323,4.747,4.747,0,0,1-3.069-2.807,6.539,6.539,0,0,1-.446-2.524V17.3h-2.988V15.478h2.988V8.9h1.982v6.583h7.227V17.3h-7.227V30.553a3.694,3.694,0,0,0,1.15,3.1,4.722,4.722,0,0,0,2.968.886,6.652,6.652,0,0,0,1.454-.153,9.173,9.173,0,0,0,1.576-.533v1.857a8.669,8.669,0,0,1-1.6.546" transform="translate(36.785 1.112)" fill="#2e2624"/><path d="M310.369,7.567h2.464v2.706h-2.464Zm.242,8.077h1.98v20.6h-1.98Z" transform="translate(38.795 0.946)" fill="#2e2624"/><path d="M338.392,29.222a10.8,10.8,0,0,1-2.221,3.431,10.659,10.659,0,0,1-3.374,2.364,10.265,10.265,0,0,1-4.241.867,10.132,10.132,0,0,1-4.221-.867A10.836,10.836,0,0,1,321,32.695a10.469,10.469,0,0,1-2.2-3.393,10.833,10.833,0,0,1-.787-4.12V25.1a10.8,10.8,0,0,1,3.01-7.552,10.65,10.65,0,0,1,3.371-2.364,10.272,10.272,0,0,1,4.241-.867,10.122,10.122,0,0,1,4.221.867,10.859,10.859,0,0,1,3.332,2.322,10.463,10.463,0,0,1,2.2,3.393,10.853,10.853,0,0,1,.788,4.12V25.1a10.863,10.863,0,0,1-.788,4.121M337.078,25.1a9.3,9.3,0,0,0-.649-3.478,8.68,8.68,0,0,0-1.806-2.834A8.376,8.376,0,0,0,331.9,16.9a8.532,8.532,0,0,0-6.736.018,8.359,8.359,0,0,0-2.679,1.891,8.617,8.617,0,0,0-1.746,2.794,9.346,9.346,0,0,0-.628,3.418v.08a9.313,9.313,0,0,0,.649,3.477,8.731,8.731,0,0,0,1.807,2.836A8.351,8.351,0,0,0,325.29,33.3a8.526,8.526,0,0,0,6.736-.019,8.332,8.332,0,0,0,2.679-1.89,8.577,8.577,0,0,0,1.744-2.794,9.3,9.3,0,0,0,.629-3.418Z" transform="translate(39.751 1.79)" fill="#2e2624"/><path d="M357.92,35.4V23.163a7.427,7.427,0,0,0-1.7-5.109,6.123,6.123,0,0,0-4.845-1.92,7.189,7.189,0,0,0-2.827.546,7.037,7.037,0,0,0-2.262,1.515,6.9,6.9,0,0,0-1.515,2.321,7.883,7.883,0,0,0-.546,2.969V35.4H342.25V14.8h1.978v3.836a9.609,9.609,0,0,1,2.827-3.068,7.832,7.832,0,0,1,4.6-1.252,9.118,9.118,0,0,1,3.473.626,7.392,7.392,0,0,1,2.607,1.757,7.475,7.475,0,0,1,1.615,2.685A10.233,10.233,0,0,1,359.9,22.8V35.4Z" transform="translate(42.78 1.79)" fill="#2e2624"/><path d="M41.3,43.72a1.55,1.55,0,0,1-1.549-1.549V14.639l-30.4,19.8a1.549,1.549,0,0,1-1.691-2.6l32.8-21.361a1.55,1.55,0,0,1,2.394,1.3V42.171A1.55,1.55,0,0,1,41.3,43.72" transform="translate(0.87 1.279)" fill="#2e2624"/><path d="M8.509,24.458a1.549,1.549,0,0,1-.847-2.846L40.458.251a1.549,1.549,0,0,1,1.691,2.6L9.353,24.208a1.543,1.543,0,0,1-.844.251" transform="translate(0.87 0)" fill="#2e2624"/><path d="M1.549,45A1.55,1.55,0,0,1,0,43.451V1.549A1.55,1.55,0,0,1,2.384.244L15.244,8.48a1.548,1.548,0,1,1-1.67,2.608L3.1,4.38V43.451A1.55,1.55,0,0,1,1.549,45" transform="translate(0 0)" fill="#e84730"/></g></svg>