<svg xmlns="http://www.w3.org/2000/svg" width="456.656" height="103.84"><g data-name="グループ 8222"><g data-name="グループ 6995" fill="#e84830"><path data-name="パス 13881" d="M98.036 73.8h15.2V.5h-10.5l-20.7 6.2 3.2 12.6 12.8-3.2Zm27.7 0h53.6V60.5h-32.3l12.5-9.8c12.9-10.1 19.1-16.2 19.1-28.2v-.2c0-13.5-10-22.3-24.9-22.3-13 0-19.9 5.3-27 15.1l10.8 8.6c5.4-6.7 9.4-10 15.2-10 5.9 0 10.2 3.5 10.2 9.9 0 6.1-3.6 10.2-12.8 17.9l-24.4 20.1Zm61.5 16.5c12-.3 18.6-5.7 18.6-19V57.6h-16.2v16.2h6.2c.5 5.8-2.9 9.4-9.9 10.2Zm64.7-16.5h14.7V58h9.9V45.5h-9.9V.5h-13l-40.1 46.6 2.6 10.9h35.8Zm-20.3-28.3 20.3-23.9v23.9Zm64.4 28.3h15.2V.5h-10.5l-20.7 6.2 3.2 12.6 12.8-3.2Zm31.8 0h17.4l32.6-61.2V1h-52.1v13.3h34.7Z"/><path data-name="パス 13883" d="M400.376 55.24V45.16h10v10.08Zm-14.16-10.08h9.44v10.08h-9.44Zm28.96-4.72h-33.76v34.8h4.8V59.96h24.16v9.68c0 .68-.28.92-1.04.96-.8 0-3.4.04-5.68-.12a19.442 19.442 0 0 1 1.72 4.76c3.56 0 5.96-.08 7.56-.88 1.68-.76 2.24-2.08 2.24-4.68Zm21.16 17.88a12.1 12.1 0 0 0 9.44 4.4c4.28 0 8.2-2.4 10.88-7.36l-4.4-2.4c-1.52 2.84-3.8 4.8-6.36 4.8-2.76 0-4.24-1.04-5.96-2.88a12.1 12.1 0 0 0-9.44-4.4c-4.28 0-8.2 2.4-10.88 7.36l4.4 2.4c1.52-2.84 3.8-4.8 6.36-4.8 2.8 0 4.24 1.08 5.96 2.88Z"/><path data-name="パス 13884" d="M383.418 28.48a9.226 9.226 0 0 0 2.758 6.72l1.33-.588A8.7 8.7 0 0 1 385 28.48a8.7 8.7 0 0 1 2.506-6.132l-1.33-.588a9.226 9.226 0 0 0-2.758 6.72Zm10.738 1.176c-.266-.308-1.414-1.526-1.792-1.834v-.406h1.5v-1.554h-1.5v-1.974a14.6 14.6 0 0 0 1.666-.532l-1.106-1.274a20.013 20.013 0 0 1-4.34 1.162 5.771 5.771 0 0 1 .462 1.274 28.81 28.81 0 0 0 1.708-.28v1.624h-2v1.554h1.778a13.681 13.681 0 0 1-2.072 3.752 8.264 8.264 0 0 1 .77 1.582 12.441 12.441 0 0 0 1.526-2.772V35h1.61v-5.46a12.268 12.268 0 0 1 .84 1.414Zm5.236-1.582h-3.456v-1.9h3.458Zm.294 5.264c-.182 0-.21-.042-.21-.462V29.53h1.582v-4.8h-1.288c.406-.588.91-1.428 1.372-2.24l-1.706-.548a15.043 15.043 0 0 1-1.15 2.394l1.092.392h-3.29l.9-.392a10.75 10.75 0 0 0-1.274-2.38l-1.372.6a12.6 12.6 0 0 1 1.092 2.17h-1.082v4.8h1.12c-.154 1.838-.546 3.336-2.636 4.19a4.832 4.832 0 0 1 .97 1.316c2.52-1.132 3.108-3.094 3.304-5.502h.77v3.36c0 1.456.266 1.946 1.512 1.946h.924c1.008 0 1.386-.536 1.526-2.536a4.322 4.322 0 0 1-1.414-.63c-.028 1.458-.084 1.668-.292 1.668Zm5.166-9.282h2.632v1.918h-2.632Zm1.428 4.55.084-1.148h2.73v-4.872h-5.758v4.872h1.4c-.108 2.324-.388 4.842-2.222 6.356a4.374 4.374 0 0 1 1.106 1.218 7.942 7.942 0 0 0 2.464-4.97h1.552c-.1 2.212-.222 3.108-.432 3.346a.5.5 0 0 1-.462.182 11.28 11.28 0 0 1-1.372-.07 3.414 3.414 0 0 1 .42 1.442 10.331 10.331 0 0 0 1.694-.042 1.465 1.465 0 0 0 1.052-.52c.378-.476.532-1.82.672-5.194 0-.2.014-.6.014-.6Zm5.488-4.97h-1.624v7.882h1.624Zm1.668-1.414V33c0 .252-.112.336-.378.336-.294 0-1.19 0-2.1-.028a6.084 6.084 0 0 1 .574 1.722 7.436 7.436 0 0 0 2.784-.32c.574-.266.77-.728.77-1.708v-10.78Zm7.42 6.258a9.226 9.226 0 0 0-2.758-6.72l-1.33.588a8.7 8.7 0 0 1 2.504 6.132 8.7 8.7 0 0 1-2.506 6.132l1.33.588a9.226 9.226 0 0 0 2.758-6.72Z"/><path data-name="パス 13882" d="M10.116 60.028c.144-1.512.216-3.024.252-4.392h14.436v4.392Zm14.688-12.852v4.392H10.368v-4.392ZM29.336 43h-23.4v11.844c0 5.472-.5 12.348-5.94 16.992a16.908 16.908 0 0 1 3.312 3.1 19.365 19.365 0 0 0 6.088-10.768h15.408v5.22c0 .756-.288 1.044-1.152 1.044-.792 0-3.816.036-6.336-.108a18.378 18.378 0 0 1 1.8 4.5c3.708 0 6.228-.072 7.956-.828 1.656-.72 2.264-1.944 2.264-4.536Zm35.248 11.2h-7.128V52h7.128Zm0 5.148h-7.128v-2.2h7.128Zm0 5.256h-7.128v-2.236h7.128ZM53.604 48.8v18.968h15.012V48.8h-6.372c.288-.756.576-1.584.864-2.448h6.228v-3.636H52.524v3.636h6.048c-.144.788-.288 1.648-.436 2.448Zm-13.356-1.192h8.6v2.484h3.568v-5.8h-5.868V41.38h-4v2.92h-5.756v5.8h3.456Zm6.48 21.924h-4.356V66.22h4.356Zm-4.284-6.624a26.174 26.174 0 0 0 3.024-2.34c1.08.828 2.16 1.62 3.06 2.34Zm4.32-9.576A15.386 15.386 0 0 1 45 55.888l-2.484-1.62c.252-.324.5-.612.756-.936Zm3.6 11.088.072.072 2.412-2.992a56.553 56.553 0 0 0-4.9-3.6 20.948 20.948 0 0 0 3.564-6.48L49.1 50.304l-.648.18h-3.344a14.209 14.209 0 0 0 .828-1.656l-3.492-.864a17.312 17.312 0 0 1-6.588 7.528 16.15 16.15 0 0 1 2.7 2.484 16.487 16.487 0 0 0 1.548-1.224l2.376 1.656a21.351 21.351 0 0 1-6.624 3.78 12.357 12.357 0 0 1 2.16 3.06l.756-.324v9.324h3.6v-1.44h7.992a25.393 25.393 0 0 1 1.98 2.052 25.6 25.6 0 0 0 7.668-4.788l-3.456-2.16a20.4 20.4 0 0 1-6.192 3.96Zm11.232 5.616a39.669 39.669 0 0 1 5.616 4.932l3.312-2.2a45.319 45.319 0 0 0-5.832-4.68Z"/></g><path data-name="パス 13885" d="M275.696 94.72a10.63 10.63 0 0 0 3.184 7.616l.96-.5a10.012 10.012 0 0 1-2.976-7.12 10.012 10.012 0 0 1 2.972-7.116l-.96-.5a10.63 10.63 0 0 0-3.18 7.62Zm6.288 6.08h6.432v-1.216h-2.352V89.056h-1.12a7.065 7.065 0 0 1-2.432.848v.928h2.08v8.752h-2.608Zm11.7.208c2.08 0 3.76-1.248 3.76-3.344a3.017 3.017 0 0 0-2.48-2.976v-.064a2.929 2.929 0 0 0 2.072-2.832c0-1.856-1.44-2.944-3.408-2.944a4.7 4.7 0 0 0-3.28 1.408l.784.928a3.424 3.424 0 0 1 2.432-1.136 1.8 1.8 0 0 1 1.988 1.852c0 1.264-.832 2.24-3.248 2.24v1.12c2.7 0 3.648.944 3.648 2.336a2.163 2.163 0 0 1-2.384 2.192 3.877 3.877 0 0 1-2.912-1.34l-.736.96a4.855 4.855 0 0 0 3.76 1.6Zm5.852 2.832a3.56 3.56 0 0 0 2.336-3.34c0-1.072-.464-1.728-1.232-1.728a1.04 1.04 0 0 0-1.1 1.024 1 1 0 0 0 1.068 1.02.656.656 0 0 0 .176-.016 2.4 2.4 0 0 1-1.6 2.176Zm7.936-9.232c1.424 0 2.128 1.008 2.128 2.592 0 1.6-.88 2.672-2 2.672-1.472 0-2.352-1.328-2.528-3.76a3.032 3.032 0 0 1 2.4-1.504Zm.128 6.4a3.522 3.522 0 0 0 3.36-3.808c0-2.448-1.264-3.68-3.248-3.68a3.648 3.648 0 0 0-2.676 1.424c.064-3.648 1.424-4.88 3.024-4.88a2.48 2.48 0 0 1 1.888.9l.8-.912a3.6 3.6 0 0 0-2.736-1.2c-2.272 0-4.336 1.76-4.336 6.352.004 3.868 1.668 5.804 3.924 5.804Zm8.24 0a3.809 3.809 0 0 0 3.84-4.032c0-2.576-1.584-3.728-3.536-3.728a3.411 3.411 0 0 0-1.744.464l.288-3.392h4.432v-1.264h-5.712l-.368 5.5.784.48a3.191 3.191 0 0 1 1.952-.688 2.373 2.373 0 0 1 2.432 2.672 2.535 2.535 0 0 1-2.5 2.768 3.858 3.858 0 0 1-2.872-1.288l-.72.96a4.982 4.982 0 0 0 3.72 1.548Zm9.168 0c2.208 0 3.68-1.328 3.68-3.04a3.422 3.422 0 0 0-1.984-3.068v-.08a3.846 3.846 0 0 0 1.568-2.832 2.966 2.966 0 0 0-3.216-3.088 2.984 2.984 0 0 0-3.22 2.972 3.261 3.261 0 0 0 1.584 2.7v.08a3.757 3.757 0 0 0-2.16 3.232c.004 1.816 1.588 3.124 3.748 3.124Zm.8-6.576c-1.376-.544-2.64-1.152-2.64-2.56a1.806 1.806 0 0 1 1.872-1.9 1.944 1.944 0 0 1 1.984 2.1 3.146 3.146 0 0 1-1.216 2.36Zm-.772 5.488a2.249 2.249 0 0 1-2.448-2.16 3.188 3.188 0 0 1 1.6-2.656c1.664.672 3.1 1.264 3.1 2.832a2.032 2.032 0 0 1-2.252 1.984Zm12.928-5.568v-4.688h4.872v4.688Zm-5.856-4.688h4.688v4.688h-4.688Zm11.928-1.152h-13.1v13.52h1.184v-6.5h10.716v4.9c0 .3-.112.4-.4.4-.3.016-1.344.032-2.432-.016a5.116 5.116 0 0 1 .444 1.184 10.075 10.075 0 0 0 2.848-.208c.54-.208.74-.592.74-1.36Zm14.64-1.1a16.845 16.845 0 0 1-1.44 2.764l.992.4a27.154 27.154 0 0 0 1.648-2.752Zm-3.472 2.7a11.844 11.844 0 0 0-1.428-2.672l-.992.416a12.245 12.245 0 0 1 1.376 2.752Zm-3.012 6.064c-.32-.368-1.68-1.776-2.176-2.192v-.976h2v-1.12h-2v-2.7a13.266 13.266 0 0 0 2.032-.64l-.832-.9a23.43 23.43 0 0 1-5.056 1.28 4.479 4.479 0 0 1 .368.928c.736-.112 1.552-.24 2.336-.4v2.432h-2.608v1.12h2.448a16.523 16.523 0 0 1-2.752 5.008 5.5 5.5 0 0 1 .592 1.084 17 17 0 0 0 2.32-4.188v7.072h1.152v-6.848a18.324 18.324 0 0 1 1.456 1.984Zm1.552-4.512h5.008v3.12h-5.008Zm4.56 9.088c-.352 0-.4-.064-.4-.464V95.84h2.032v-5.216h-7.328v5.216h1.628c-.252 2.272-.892 4.272-3.388 5.28a3.759 3.759 0 0 1 .72.912c2.768-1.216 3.552-3.504 3.84-6.192h1.36v4.448c0 1.184.256 1.536 1.36 1.536h1.36c.944 0 1.248-.544 1.36-2.592a2.948 2.948 0 0 1-1.04-.48c-.032 1.744-.112 2-.448 2Zm9.616-12.528v1.12h2.916c.08.7.16 1.376.272 2.032l-.512-.08c-.64 3.264-1.984 5.76-4.32 7.248a6.978 6.978 0 0 1 .928.88 11.432 11.432 0 0 0 4.24-6.48c.72 2.912 2.016 5.168 4.256 6.48a5.517 5.517 0 0 1 .944-.9c-3.2-1.648-4.448-5.424-4.832-10.3Zm-1.824 2.048a12.175 12.175 0 0 0-2.784-2.464l-.88.72a11.039 11.039 0 0 1 2.72 2.528Zm-.448 3.408h-3.392v1.12h2.224v4.048a26.717 26.717 0 0 1-2.432 1.824l.64 1.2a78.524 78.524 0 0 0 2.416-2.048 5.7 5.7 0 0 0 4.532 1.888c1.76.064 5.04.032 6.784-.032a5.414 5.414 0 0 1 .384-1.216c-1.872.128-5.424.176-7.168.112-1.84-.08-3.232-.624-3.984-1.792Zm19.328 1.488a4.8 4.8 0 0 0 3.6 1.712 4.779 4.779 0 0 0 4.176-2.8l-1.136-.608a3.53 3.53 0 0 1-3.024 2.112 3.694 3.694 0 0 1-2.72-1.312 4.8 4.8 0 0 0-3.6-1.712 4.779 4.779 0 0 0-4.176 2.8l1.136.608a3.529 3.529 0 0 1 3.024-2.112 3.667 3.667 0 0 1 2.72 1.312Zm8.624 8.5h1.072l4.784-15.568H398.4Zm10.464-7.768a20.088 20.088 0 0 0 .172-2.684h7.312V95.9Zm7.488-6.48v2.66h-7.316v-2.656Zm1.232-1.168h-9.748v4.9c0 2.544-.256 5.792-2.8 8.032a4.5 4.5 0 0 1 .88.864 9.025 9.025 0 0 0 2.752-4.976h7.68v3.2c0 .352-.128.464-.5.48-.368 0-1.648.016-2.976-.032a5.675 5.675 0 0 1 .5 1.232 12.866 12.866 0 0 0 3.38-.224c.592-.192.832-.608.832-1.44Zm7.792 6.468a10.63 10.63 0 0 0-3.184-7.62l-.96.5a10.012 10.012 0 0 1 2.976 7.12 10.012 10.012 0 0 1-2.972 7.12l.96.5a10.63 10.63 0 0 0 3.18-7.62Z" fill="#333"/></g></svg>