<svg xmlns="http://www.w3.org/2000/svg" width="128.3" height="102" viewBox="0 0 128.3 102"><g transform="translate(-366.1 -7335.541)"><path d="M1.86,0H4.92V-4.44H7.46c3.24,0,5.86-1.72,5.86-5.08v-.04c0-2.96-2.1-5-5.56-5H1.86ZM4.92-7.18v-4.6H7.5c1.66,0,2.72.8,2.72,2.28v.04c0,1.3-1,2.28-2.66,2.28ZM22.96.24A7.525,7.525,0,0,0,30.7-7.28v-.04A7.446,7.446,0,0,0,23-14.8a7.525,7.525,0,0,0-7.74,7.52v.04A7.446,7.446,0,0,0,22.96.24ZM23-2.58a4.544,4.544,0,0,1-4.52-4.7v-.04a4.477,4.477,0,0,1,4.48-4.66,4.544,4.544,0,0,1,4.52,4.7v.04A4.477,4.477,0,0,1,23-2.58ZM33.9,0h3.08V-14.56H33.9Zm6.94,0h3.02V-9.48L51.1,0h2.62V-14.56H50.68v9.18l-7.02-9.18H40.84ZM60.86,0h3.08V-11.72H68.4v-2.84H56.38v2.84h4.48Z" transform="translate(390 7350.341)" fill="#e84830"/><path d="M38.2,1.2c19.4,0,32.3-16.6,32.3-37.6v-.2C70.5-57.7,57.6-74,38.4-74,19.1-74,6.1-57.4,6.1-36.4v.2C6.1-15.1,18.8,1.2,38.2,1.2Zm.2-13.8c-10,0-16.5-10.3-16.5-23.8v-.2c0-13.5,6.4-23.6,16.3-23.6S54.7-49.8,54.7-36.4v.2C54.7-22.8,48.4-12.6,38.4-12.6ZM108.3,1.2c16,0,26.1-9.9,26.1-23.6v-.2c0-13.5-9.8-18.8-19.9-20.4l18.8-18.2V-72.8h-49v13.2h29.2L95.6-41.4l2.5,9.7h6.5c9.1,0,14.7,3.5,14.7,9.7v.2c0,5.6-4.5,9.3-10.8,9.3-7.5,0-12.8-3.2-17.8-8.9l-10.6,10C86.3-4,95.3,1.2,108.3,1.2Z" transform="translate(360 7436.341)" fill="#e84830"/></g></svg>