<svg xmlns="http://www.w3.org/2000/svg" width="72.87" height="74.221" viewBox="0 0 72.87 74.221"><g transform="translate(-4.2 -2.9)"><path d="M-15.33.84C-1.75.84,7.28-10.78,7.28-25.48v-.14c0-14.77-9.03-26.18-22.47-26.18C-28.7-51.8-37.8-40.18-37.8-25.48v.14C-37.8-10.57-28.91.84-15.33.84Zm.14-9.66c-7,0-11.55-7.21-11.55-16.66v-.14c0-9.45,4.48-16.52,11.41-16.52S-3.78-34.86-3.78-25.48v.14C-3.78-15.96-8.19-8.82-15.19-8.82ZM24.43,0H35.07V-51.31H27.72L13.23-46.97l2.24,8.82,8.96-2.24Z" transform="translate(42 76.281)" fill="#e84830"/><path d="M-24.555,0h2.3V-3.33h1.9c2.43,0,4.4-1.29,4.4-3.81v-.03c0-2.22-1.575-3.75-4.17-3.75h-4.425Zm2.3-5.385v-3.45h1.935c1.245,0,2.04.6,2.04,1.71v.03a1.767,1.767,0,0,1-1.995,1.71ZM-8.73.18A5.644,5.644,0,0,0-2.925-5.46v-.03A5.585,5.585,0,0,0-8.7-11.1a5.644,5.644,0,0,0-5.805,5.64v.03A5.585,5.585,0,0,0-8.73.18Zm.03-2.115A3.408,3.408,0,0,1-12.09-5.46v-.03A3.358,3.358,0,0,1-8.73-8.985,3.408,3.408,0,0,1-5.34-5.46v.03A3.358,3.358,0,0,1-8.7-1.935ZM-.525,0h2.31V-10.92H-.525ZM4.68,0H6.945V-7.11L12.375,0H14.34V-10.92H12.06v6.885L6.8-10.92H4.68ZM19.695,0h2.31V-8.79H25.35v-2.13H16.335v2.13h3.36Z" transform="translate(42 14)" fill="#e84830"/></g></svg>