<svg xmlns="http://www.w3.org/2000/svg" width="302" height="127" viewBox="0 0 302 127"><g transform="translate(-37 -15371.137)"><rect width="40" height="40" transform="translate(103.423 15457.83)" fill="#e84830"/><rect width="40" height="40" transform="translate(189.423 15457.83)" fill="#e84830"/><rect width="40" height="40" transform="translate(146.423 15457.83)" fill="#e84830"/><rect width="40" height="40" transform="translate(232.423 15457.83)" fill="#e84830"/><rect width="40" height="40" transform="translate(39.423 15414.83)" fill="#fff"/><path d="M1,1V39H39V1H1M0,0H40V40H0Z" transform="translate(39.423 15414.83)" fill="#707070"/><rect width="40" height="40" transform="translate(125.423 15414.83)" fill="#fff"/><path d="M1,1V39H39V1H1M0,0H40V40H0Z" transform="translate(125.423 15414.83)" fill="#707070"/><rect width="40" height="40" transform="translate(254.423 15414.83)" fill="#fff"/><path d="M1,1V39H39V1H1M0,0H40V40H0Z" transform="translate(254.423 15414.83)" fill="#707070"/><rect width="40" height="40" transform="translate(82.423 15414.83)" fill="#fff"/><path d="M1,1V39H39V1H1M0,0H40V40H0Z" transform="translate(82.423 15414.83)" fill="#707070"/><rect width="40" height="40" transform="translate(211.423 15414.83)" fill="#fff"/><path d="M1,1V39H39V1H1M0,0H40V40H0Z" transform="translate(211.423 15414.83)" fill="#707070"/><rect width="40" height="40" transform="translate(168.423 15414.83)" fill="#fff"/><path d="M1,1V39H39V1H1M0,0H40V40H0Z" transform="translate(168.423 15414.83)" fill="#707070"/><rect width="40" height="40" transform="translate(297.423 15414.83)" fill="#fff"/><path d="M1,1V39H39V1H1M0,0H40V40H0Z" transform="translate(297.423 15414.83)" fill="#707070"/><rect width="40" height="40" transform="translate(104.423 15372.137)" fill="#fff"/><path d="M1,1V39H39V1H1M0,0H40V40H0Z" transform="translate(104.423 15372.137)" fill="#707070"/><rect width="40" height="40" transform="translate(190.423 15372.137)" fill="#fff"/><path d="M1,1V39H39V1H1M0,0H40V40H0Z" transform="translate(190.423 15372.137)" fill="#707070"/><rect width="40" height="40" transform="translate(147.423 15372.137)" fill="#fff"/><path d="M1,1V39H39V1H1M0,0H40V40H0Z" transform="translate(147.423 15372.137)" fill="#707070"/><rect width="40" height="40" transform="translate(233.423 15372.137)" fill="#fff"/><path d="M1,1V39H39V1H1M0,0H40V40H0Z" transform="translate(233.423 15372.137)" fill="#707070"/><text transform="translate(37 15371.137)" fill="#333" font-size="28" font-family="NotoSansJP-Bold, Noto Sans JP" font-weight="700" letter-spacing="0.54em"><tspan x="72.32" y="32">受講生</tspan><tspan y="32">に</tspan><tspan x="8.06" y="75">評価</tspan><tspan y="75">されている</tspan><tspan fill="#fff"><tspan x="72.32" y="118">ポイント</tspan></tspan></text></g></svg>