<svg xmlns="http://www.w3.org/2000/svg" width="90.02" height="74.221" viewBox="0 0 90.02 74.221"><g transform="translate(-4.388 -2.9)"><path d="M-24.555,0h2.3V-3.33h1.9c2.43,0,4.4-1.29,4.4-3.81v-.03c0-2.22-1.575-3.75-4.17-3.75h-4.425Zm2.3-5.385v-3.45h1.935c1.245,0,2.04.6,2.04,1.71v.03a1.767,1.767,0,0,1-1.995,1.71ZM-8.73.18A5.644,5.644,0,0,0-2.925-5.46v-.03A5.585,5.585,0,0,0-8.7-11.1a5.644,5.644,0,0,0-5.805,5.64v.03A5.585,5.585,0,0,0-8.73.18Zm.03-2.115A3.408,3.408,0,0,1-12.09-5.46v-.03A3.358,3.358,0,0,1-8.73-8.985,3.408,3.408,0,0,1-5.34-5.46v.03A3.358,3.358,0,0,1-8.7-1.935ZM-.525,0h2.31V-10.92H-.525ZM4.68,0H6.945V-7.11L12.375,0H14.34V-10.92H12.06v6.885L6.8-10.92H4.68ZM19.695,0h2.31V-8.79H25.35v-2.13H16.335v2.13h3.36Z" transform="translate(49 14)" fill="#e84830"/><path d="M-22.61.84C-9.03.84,0-10.78,0-25.48v-.14C0-40.39-9.03-51.8-22.47-51.8c-13.51,0-22.61,11.62-22.61,26.32v.14C-45.08-10.57-36.19.84-22.61.84Zm.14-9.66c-7,0-11.55-7.21-11.55-16.66v-.14c0-9.45,4.48-16.52,11.41-16.52s11.55,7.28,11.55,16.66v.14C-11.06-15.96-15.47-8.82-22.47-8.82ZM7.42,0H44.94V-9.31H22.33l8.75-6.86c9.03-7.07,13.37-11.34,13.37-19.74v-.14c0-9.45-7-15.61-17.43-15.61-9.1,0-13.93,3.71-18.9,10.57l7.56,6.02c3.78-4.69,6.58-7,10.64-7,4.13,0,7.14,2.45,7.14,6.93,0,4.27-2.52,7.14-8.96,12.53L7.42-8.54Z" transform="translate(49.468 76.281)" fill="#e84830"/></g></svg>