<svg xmlns="http://www.w3.org/2000/svg" width="298" height="125.693" viewBox="0 0 298 125.693"><g transform="translate(7096 15267)"><g transform="translate(-7135 -19781.307)"><g transform="translate(-8.003 -25)"><path d="M0,0H40V40H0Z" transform="translate(111.003 4625)" fill="#e84830"/><path d="M0,0H40V40H0Z" transform="translate(197.003 4625)" fill="#e84830"/><path d="M0,0H40V40H0Z" transform="translate(154.003 4625)" fill="#e84830"/><path d="M0,0H40V40H0Z" transform="translate(240.003 4625)" fill="#e84830"/></g><g transform="translate(-9)"><path d="M1,1V39H39V1H1M0,0H40V40H0Z" transform="translate(48 4557)" fill="#707070"/><path d="M1,1V39H39V1H1M0,0H40V40H0Z" transform="translate(134 4557)" fill="#707070"/><path d="M1,1V39H39V1H1M0,0H40V40H0Z" transform="translate(263 4557)" fill="#707070"/><path d="M1,1V39H39V1H1M0,0H40V40H0Z" transform="translate(91 4557)" fill="#707070"/><path d="M1,1V39H39V1H1M0,0H40V40H0Z" transform="translate(220 4557)" fill="#707070"/><path d="M1,1V39H39V1H1M0,0H40V40H0Z" transform="translate(177 4557)" fill="#707070"/><path d="M1,1V39H39V1H1M0,0H40V40H0Z" transform="translate(306 4557)" fill="#707070"/></g><path d="M74.056,16.236H98.612v6.132H95.336v-3.22H77.22v3.22H74.056Zm4.06,5.068H92.872v3.108H78.116ZM95.336,8.06,97.6,10.776q-2.38.448-5.138.8t-5.712.6q-2.954.252-5.922.42t-5.768.224a6.557,6.557,0,0,0-.266-1.456,14.485,14.485,0,0,0-.462-1.4q2.772-.084,5.67-.252t5.684-.406q2.786-.238,5.25-.56T95.336,8.06ZM76.8,13.352l2.912-.812a15.626,15.626,0,0,1,.966,1.68,9.4,9.4,0,0,1,.658,1.624l-3.108.9a8.206,8.206,0,0,0-.56-1.652A18.791,18.791,0,0,0,76.8,13.352Zm7.392-.588,2.968-.672q.42.868.8,1.876a8.833,8.833,0,0,1,.49,1.764l-3.164.784a10.449,10.449,0,0,0-.406-1.82A19.963,19.963,0,0,0,84.192,12.764Zm8.876-.728,3.556.84q-.476.9-.98,1.764t-1.008,1.638q-.5.77-.924,1.358l-2.772-.784q.392-.7.8-1.526t.756-1.694Q92.844,12.764,93.068,12.036ZM91.64,21.3h.7l.588-.112,2.3,1.372a16.2,16.2,0,0,1-3.262,4.746,18.972,18.972,0,0,1-4.606,3.374,29.381,29.381,0,0,1-5.642,2.24,45.133,45.133,0,0,1-6.342,1.316,7.682,7.682,0,0,0-.5-.994q-.336-.574-.728-1.12a7.184,7.184,0,0,0-.728-.882,50.639,50.639,0,0,0,6.132-1.008,26.873,26.873,0,0,0,5.292-1.778,15.574,15.574,0,0,0,4.116-2.73,11.253,11.253,0,0,0,2.688-3.864ZM81.448,23.6a13.9,13.9,0,0,0,4.158,3.626,24.975,24.975,0,0,0,6.02,2.478,42.083,42.083,0,0,0,7.518,1.316,6.27,6.27,0,0,0-.756.952q-.392.588-.742,1.162a11.232,11.232,0,0,0-.574,1.05A39.3,39.3,0,0,1,89.4,32.476a24.493,24.493,0,0,1-6.216-3.094,19.4,19.4,0,0,1-4.676-4.606ZM126.78,10.16h15.372v2.38H126.78Zm-.728,7.028h16.6v2.548h-16.6Zm-.028,10.584h16.688V30.4H126.024Zm2.856-3.416h11.2v2.1h-11.2Zm-1.568-10.7h14.224v2.324H127.312ZM129.72,8.2h3V18.308h-3Zm6.244,0h3.024V18.308h-3.024Zm-3.08,10.276h2.744V29.312h-2.744Zm5.376,2.268h3.024V31.552a4.1,4.1,0,0,1-.252,1.624,1.869,1.869,0,0,1-.952.9,5.233,5.233,0,0,1-1.75.378q-1.05.07-2.478.07a6.685,6.685,0,0,0-.28-1.316,11.136,11.136,0,0,0-.476-1.288q.812.028,1.61.042t1.078.014a.634.634,0,0,0,.378-.126.443.443,0,0,0,.1-.322Zm-10.864,0h11.956v2.324h-9.128V34.52H127.4Zm-9.884-3.752h7.7V19.54h-7.7Zm.14-7.9H125.1v2.52h-7.448Zm-.14,11.816h7.7V23.46h-7.7ZM116.28,12.96h9.772v2.66H116.28Zm2.8,11.928h6.244V33.4H119.08V30.74h3.444V27.548H119.08Zm-1.652,0H120.2v9.6h-2.772ZM164.384,13.3h19.488v3.276H164.384Zm-1.176,8.232H182.78v3.248H163.208Zm-3.22,8.9H185.3v3.276H159.988ZM170.852,8.2h3.528V32.028h-3.528Zm-6.468.364,3.472.784A35.775,35.775,0,0,1,166.4,13.6a37.047,37.047,0,0,1-1.876,3.906,21.97,21.97,0,0,1-2.1,3.15,8.409,8.409,0,0,0-.882-.686q-.546-.378-1.134-.742t-1.008-.588a14.687,14.687,0,0,0,2.058-2.8,26.4,26.4,0,0,0,1.68-3.5A33.759,33.759,0,0,0,164.384,8.564Zm49.84,3.864q1.288.168,2.9.238t3.276.056q1.666-.014,3.206-.112t2.66-.21v3.612q-1.288.112-2.828.182t-3.164.07q-1.624,0-3.178-.07t-2.87-.182Zm2.24,11.956q-.168.7-.252,1.246a7.263,7.263,0,0,0-.084,1.106,1.591,1.591,0,0,0,.224.826,1.836,1.836,0,0,0,.686.644,3.647,3.647,0,0,0,1.2.392,11,11,0,0,0,1.806.126,32.276,32.276,0,0,0,3.528-.182q1.652-.182,3.5-.546l.056,3.78a29.9,29.9,0,0,1-3.094.392q-1.75.14-4.13.14a9.541,9.541,0,0,1-5.376-1.218,3.878,3.878,0,0,1-1.764-3.374,11.986,11.986,0,0,1,.126-1.694q.126-.882.35-1.946Zm-6.552-13.832a7.956,7.956,0,0,0-.252.784q-.14.5-.266.98t-.182.728q-.084.588-.266,1.526t-.364,2.1q-.182,1.162-.35,2.366t-.266,2.324q-.1,1.12-.1,1.96,0,.392.014.9a5.5,5.5,0,0,0,.1.924q.2-.476.42-.952t.448-.966q.224-.49.392-.938l1.736,1.372q-.392,1.148-.8,2.464T209.45,28.6q-.322,1.162-.49,1.918-.056.308-.1.7a6.14,6.14,0,0,0-.042.616q0,.224.014.546t.042.6l-3.248.224a28.83,28.83,0,0,1-.756-3.878,38.525,38.525,0,0,1-.336-5.278q0-1.568.14-3.192t.336-3.122q.2-1.5.378-2.73t.322-2.044q.056-.588.154-1.33t.126-1.414ZM31.384,56.632l3.164.672q-.336,1.176-.7,2.394t-.728,2.324q-.364,1.106-.7,1.946l-2.576-.644q.308-.924.6-2.086t.546-2.38Q31.244,57.64,31.384,56.632Zm-10.668.84,2.66-.588q.336,1.008.6,2.184t.448,2.3q.182,1.12.238,1.988l-2.828.672a17.8,17.8,0,0,0-.2-2.03q-.168-1.134-.406-2.324T20.716,57.472Zm-.28-4.872h14.28v3.136H20.436Zm-.98,12.152H35.22v3.164H19.456Zm6.216-11.06h3.3v23.8h-3.3ZM10.244,59.8h8.68v2.548h-8.68Zm.112-7.7h8.512v2.52H10.356Zm-.112,11.536h8.68v2.52h-8.68ZM8.9,55.848h11v2.66H8.9ZM11.784,67.5h7.084v8.54H11.784v-2.66h4.2v-3.22h-4.2Zm-1.624,0h2.856v9.632H10.16ZM60.028,53.944H77.92v3.024H60.028Zm.28,6.524H77.78V76.736H74.532V63.408H63.388V76.9h-3.08Zm4.536-6.132h3.164v8.316H64.844Zm5.012-.028H73.02v8.316H69.856ZM61.708,72.424h15.2v2.884h-15.2Zm3.444-9.8H67.98v12.04H65.152Zm4.7-.028h2.828v12.04H69.856ZM57.62,51.284l3.024.952a42.837,42.837,0,0,1-2.016,4.62,42.41,42.41,0,0,1-2.548,4.382,28.771,28.771,0,0,1-2.828,3.626q-.168-.392-.462-1.036t-.644-1.3a9.654,9.654,0,0,0-.63-1.05,20.737,20.737,0,0,0,2.366-2.87,30.065,30.065,0,0,0,2.086-3.514A34.018,34.018,0,0,0,57.62,51.284ZM54.932,59.1l3.136-3.164.028.056v21.5H54.932ZM108.5,55.12q-.168-.476-.392-1.176t-.5-1.4l3.78-.448q.224,1.092.5,2.17t.616,2.1q.336,1.022.672,1.918a28.308,28.308,0,0,0,1.526,3.4,24.875,24.875,0,0,0,1.554,2.618q.364.532.742.994t.77.882l-1.736,2.52q-.588-.112-1.484-.238t-1.946-.238L110.5,68q-1.05-.112-1.918-.168l.28-2.968q.7.056,1.484.126t1.47.126q.686.056,1.134.084-.5-.812-1.064-1.848t-1.092-2.17q-.532-1.134-.98-2.282-.448-1.176-.77-2.128T108.5,55.12ZM98.3,56.436q2.6.308,4.9.42t4.284.056q1.988-.056,3.64-.252,1.288-.168,2.506-.364t2.408-.476q1.19-.28,2.254-.616l.448,3.528q-.924.252-2,.476t-2.226.406q-1.148.182-2.268.322-2.828.308-6.216.364t-7.672-.28Zm5.6,9.548A10.3,10.3,0,0,0,102.9,67.9a5.118,5.118,0,0,0-.364,1.862,2.685,2.685,0,0,0,1.54,2.562,9.752,9.752,0,0,0,4.4.8,39.992,39.992,0,0,0,4.158-.2q1.862-.2,3.346-.476l-.2,3.528q-1.176.224-3.066.448a38.552,38.552,0,0,1-4.466.224,15.822,15.822,0,0,1-4.928-.742,6.929,6.929,0,0,1-3.248-2.128,5.226,5.226,0,0,1-1.148-3.4,8.683,8.683,0,0,1,.378-2.534,16.48,16.48,0,0,1,1.106-2.674Zm60.816,7.56a8.666,8.666,0,0,1-2.268,1.484,7.15,7.15,0,0,1-3,.588,3.221,3.221,0,0,1-2.534-1.092,4.586,4.586,0,0,1-.966-3.136,20.7,20.7,0,0,1,.154-2.422q.154-1.3.35-2.618t.35-2.506a16.848,16.848,0,0,0,.154-2.142,2.147,2.147,0,0,0-.5-1.554,1.863,1.863,0,0,0-1.4-.518,4.5,4.5,0,0,0-2.184.686,16.565,16.565,0,0,0-2.464,1.75,28.9,28.9,0,0,0-2.394,2.268q-1.134,1.2-1.974,2.3l-.028-4.312q.5-.56,1.33-1.316t1.876-1.568a25.045,25.045,0,0,1,2.212-1.526,13.743,13.743,0,0,1,2.352-1.162,6.538,6.538,0,0,1,2.31-.448,5,5,0,0,1,2.478.546,3.5,3.5,0,0,1,1.442,1.484,4.6,4.6,0,0,1,.476,2.114,21.753,21.753,0,0,1-.14,2.366q-.14,1.274-.336,2.59t-.322,2.6q-.126,1.288-.126,2.352a1.412,1.412,0,0,0,.28.91.947.947,0,0,0,.784.35,3.69,3.69,0,0,0,1.736-.518,8.1,8.1,0,0,0,1.9-1.5ZM145.372,60.188l-1.148.14q-.7.084-1.5.2l-1.61.224q-.812.112-1.512.2l-.364-3.584q.616.028,1.162.014t1.274-.042q.672-.056,1.61-.154t1.9-.238q.966-.14,1.806-.308a10.082,10.082,0,0,0,1.316-.336l1.12,1.428q-.252.336-.574.84t-.658,1.022q-.336.518-.588.91L145.96,65.76q-.448.644-1.106,1.624t-1.386,2.072q-.728,1.092-1.428,2.1t-1.26,1.764l-2.212-3.052q.532-.672,1.218-1.554t1.442-1.876q.756-.994,1.484-1.988t1.358-1.876q.63-.882,1.05-1.526l.056-.728Zm-.336-5.376V53.566a7.425,7.425,0,0,0-.112-1.274l4.088.14q-.168.644-.35,1.862T148.3,57.08q-.182,1.568-.336,3.29t-.252,3.43q-.1,1.708-.1,3.192,0,1.148.014,2.324t.042,2.408q.028,1.232.112,2.548.028.364.084,1.022t.112,1.134h-3.864q.056-.5.07-1.12t.014-.952q.028-1.372.056-2.548t.042-2.492q.014-1.316.07-3.052.028-.644.084-1.638t.126-2.184q.07-1.19.154-2.422t.154-2.31q.07-1.078.112-1.848T145.036,54.812Zm36.652.924q.84-.028,1.6-.07t1.176-.07q.868-.084,2.128-.2l2.842-.252q1.582-.14,3.374-.294l3.724-.322q1.456-.112,2.912-.21t2.758-.168q1.3-.07,2.254-.1l.028,3.584q-.756,0-1.736.028t-1.946.1a11.987,11.987,0,0,0-1.722.238,6.881,6.881,0,0,0-2.338,1.134,9.071,9.071,0,0,0-1.89,1.89,8.694,8.694,0,0,0-1.246,2.338,7.574,7.574,0,0,0-.434,2.506,5.811,5.811,0,0,0,.476,2.422,5.173,5.173,0,0,0,1.33,1.792,7.535,7.535,0,0,0,2,1.232,11.969,11.969,0,0,0,2.478.742,21.627,21.627,0,0,0,2.758.336L200.9,76.232a17.427,17.427,0,0,1-3.43-.56,14.2,14.2,0,0,1-3.108-1.232,10.36,10.36,0,0,1-2.534-1.918,8.224,8.224,0,0,1-2.324-5.894,10.328,10.328,0,0,1,.644-3.724,12.2,12.2,0,0,1,1.6-2.954,9.435,9.435,0,0,1,1.9-1.974q-.784.084-1.89.21t-2.38.28q-1.274.154-2.59.322t-2.534.378q-1.218.21-2.2.406ZM230.1,54.98a10.628,10.628,0,0,0-.182,1.148q-.07.644-.112,1.26t-.042,1.008q-.028.924-.014,1.9t.056,2q.042,1.022.126,2.03a26.925,26.925,0,0,0,.56,3.556,7.165,7.165,0,0,0,.952,2.394,1.749,1.749,0,0,0,1.484.854,1.282,1.282,0,0,0,.938-.532,5.5,5.5,0,0,0,.84-1.386,16.454,16.454,0,0,0,.672-1.806q.294-.952.518-1.792l2.8,3.416a22.122,22.122,0,0,1-1.834,3.878,6.579,6.579,0,0,1-1.89,2.072,3.86,3.86,0,0,1-2.128.63,4.738,4.738,0,0,1-2.87-1.008,7.659,7.659,0,0,1-2.31-3.262,21.535,21.535,0,0,1-1.344-6.006q-.14-1.288-.21-2.716t-.084-2.716q-.014-1.288-.014-2.128,0-.588-.056-1.4a14.312,14.312,0,0,0-.168-1.456Zm14,.644a13.915,13.915,0,0,1,1.512,2.324,28.506,28.506,0,0,1,1.344,2.94q.616,1.568,1.092,3.206t.77,3.192a23.7,23.7,0,0,1,.378,2.842l-3.7,1.428q-.14-1.708-.5-3.724a36.612,36.612,0,0,0-.98-4.06,28.318,28.318,0,0,0-1.47-3.864,13.384,13.384,0,0,0-2-3.136Zm28-1.96q.588.084,1.26.112t1.288.028q.448,0,1.344-.014t2.03-.042l2.254-.056q1.12-.028,2.03-.07t1.414-.07q.868-.084,1.372-.154a4.54,4.54,0,0,0,.756-.154l1.82,2.492q-.476.308-.98.616a11.389,11.389,0,0,0-.98.672q-.56.392-1.344,1.022t-1.666,1.33q-.882.7-1.708,1.372t-1.5,1.2a10.743,10.743,0,0,1,1.344-.238,12.173,12.173,0,0,1,1.316-.07,9.6,9.6,0,0,1,4.27.924,7.692,7.692,0,0,1,3,2.506,6.172,6.172,0,0,1,1.106,3.626,7.4,7.4,0,0,1-1.12,4,7.73,7.73,0,0,1-3.374,2.856,13.2,13.2,0,0,1-5.642,1.064,10.23,10.23,0,0,1-3.486-.56,5.721,5.721,0,0,1-2.45-1.6,3.606,3.606,0,0,1-.9-2.436,3.928,3.928,0,0,1,.63-2.142,4.682,4.682,0,0,1,1.764-1.61,5.4,5.4,0,0,1,2.618-.616,6.416,6.416,0,0,1,3.262.77,5.344,5.344,0,0,1,2.044,2.058,5.965,5.965,0,0,1,.742,2.828l-3.276.448a4,4,0,0,0-.77-2.478,2.39,2.39,0,0,0-1.974-.938,1.875,1.875,0,0,0-1.26.406,1.207,1.207,0,0,0-.476.938,1.43,1.43,0,0,0,.784,1.26,3.9,3.9,0,0,0,2.044.476,11.862,11.862,0,0,0,3.976-.574,4.963,4.963,0,0,0,2.394-1.652,4.186,4.186,0,0,0,.8-2.562,3.414,3.414,0,0,0-.77-2.212A5.049,5.049,0,0,0,284,64.948a7.86,7.86,0,0,0-2.968-.532,10.234,10.234,0,0,0-2.968.406,10.516,10.516,0,0,0-2.534,1.148,15.51,15.51,0,0,0-2.324,1.792,30.09,30.09,0,0,0-2.254,2.338L268.4,67.468q.756-.616,1.708-1.386t1.946-1.61q.994-.84,1.876-1.582t1.5-1.246q.588-.476,1.372-1.12t1.624-1.33q.84-.686,1.6-1.316t1.26-1.078q-.42,0-1.092.028t-1.47.056l-1.6.056q-.8.028-1.484.07l-1.134.07q-.56.028-1.176.084t-1.12.14Z" transform="translate(36.577 4513.307)" fill="#333"/><path d="M94.02,11a1.44,1.44,0,0,0,.448,1.078,1.511,1.511,0,0,0,1.092.434,1.477,1.477,0,0,0,1.064-.434,1.519,1.519,0,0,0-1.064-2.59,1.486,1.486,0,0,0-1.092.448A1.454,1.454,0,0,0,94.02,11Zm-1.708,0a3.111,3.111,0,0,1,.434-1.624A3.378,3.378,0,0,1,93.922,8.2a3.109,3.109,0,0,1,1.638-.448,3.037,3.037,0,0,1,1.624.448,3.417,3.417,0,0,1,1.162,1.176A3.111,3.111,0,0,1,98.78,11a3.185,3.185,0,0,1-.434,1.638,3.264,3.264,0,0,1-1.162,1.176,3.111,3.111,0,0,1-1.624.434,3.185,3.185,0,0,1-1.638-.434,3.229,3.229,0,0,1-1.176-1.176A3.185,3.185,0,0,1,92.312,11ZM88.448,9.908q-.028.2-.084.644t-.112.938a7.651,7.651,0,0,0-.056.854V30.992a2.592,2.592,0,0,1-.714,1.918,2.994,2.994,0,0,1-2.2.714q-.756,0-1.54-.028t-1.54-.084q-.756-.056-1.484-.14L80.384,29.9q.9.168,1.75.252t1.358.084A1.05,1.05,0,0,0,84.276,30a1.2,1.2,0,0,0,.252-.77q0-.252.014-1.092t.014-1.988v-13.8a12.506,12.506,0,0,0-.084-1.33A9.256,9.256,0,0,0,84.3,9.908ZM74.728,14.36q.644.084,1.344.154t1.372.07H94.72q.588,0,1.386-.056t1.386-.14v3.668q-.644-.056-1.4-.07t-1.344-.014h-17.3q-.616,0-1.358.028t-1.358.084Zm7.14,7.588q-.476.952-1.148,2.044t-1.442,2.184q-.77,1.092-1.5,2.03a20.347,20.347,0,0,1-1.316,1.554L73.44,27.688a16.558,16.558,0,0,0,1.442-1.526q.742-.882,1.456-1.862t1.316-1.96q.6-.98,1.05-1.876Zm12.04-1.568q.532.672,1.19,1.6t1.33,1.974q.672,1.05,1.26,2.044t1.008,1.75l-3.3,1.792q-.448-.9-1.022-1.932t-1.19-2.072q-.616-1.036-1.218-1.946t-1.106-1.554Zm23.268.728a49,49,0,0,0,6.846-2.282,40.727,40.727,0,0,0,5.39-2.73,30.55,30.55,0,0,0,2.926-2.058q1.47-1.162,2.772-2.394a23.491,23.491,0,0,0,2.2-2.352l3.024,2.884q-1.288,1.26-2.814,2.548t-3.178,2.464q-1.652,1.176-3.276,2.156-1.6.924-3.57,1.9T123.336,23.1q-2.184.868-4.4,1.54Zm11.648-3.22,3.976-.924v12.6q0,.616.028,1.344t.084,1.358a6.68,6.68,0,0,0,.14.966h-4.424q.056-.336.1-.966t.07-1.358q.028-.728.028-1.344Zm36.484-7.168q.728.5,1.708,1.232t2.03,1.582q1.05.854,1.974,1.666a19.532,19.532,0,0,1,1.512,1.456l-2.856,2.912q-.532-.588-1.4-1.4t-1.876-1.68q-1.008-.868-1.988-1.652t-1.736-1.316Zm-3.5,18.648a29.653,29.653,0,0,0,4.116-.868,28.7,28.7,0,0,0,3.584-1.288,32.586,32.586,0,0,0,3.024-1.512,27.077,27.077,0,0,0,4.368-3.248,27.842,27.842,0,0,0,3.472-3.794,21.461,21.461,0,0,0,2.352-3.85l2.184,3.948a26.07,26.07,0,0,1-2.618,3.752,30.132,30.132,0,0,1-3.514,3.57,29.269,29.269,0,0,1-4.228,3.038,31.75,31.75,0,0,1-3.08,1.638,31.491,31.491,0,0,1-3.486,1.372,26.28,26.28,0,0,1-3.822.938Zm48.664-.056v-16.1q0-.728-.07-1.68a14.694,14.694,0,0,0-.21-1.68h4.368q-.084.728-.168,1.61t-.084,1.75v16.1q0,.392.028,1.106t.112,1.47q.084.756.112,1.344h-4.368q.112-.84.2-1.96T210.472,29.312Zm3-12.208q1.4.364,3.136.938t3.5,1.218q1.764.644,3.318,1.274t2.59,1.162l-1.6,3.864q-1.176-.616-2.6-1.246t-2.9-1.218q-1.47-.588-2.884-1.092t-2.562-.9Z" transform="translate(36.577 4600)" fill="#fff"/></g><g transform="translate(65 129.307)"><path d="M1,1V39H39V1H1M0,0H40V40H0Z" transform="translate(-7096 -15396.307)" fill="#707070"/><path d="M1,1V39H39V1H1M0,0H40V40H0Z" transform="translate(-7010 -15396.307)" fill="#707070"/><path d="M1,1V39H39V1H1M0,0H40V40H0Z" transform="translate(-7053 -15396.307)" fill="#707070"/><path d="M1,1V39H39V1H1M0,0H40V40H0Z" transform="translate(-6967 -15396.307)" fill="#707070"/></g></g></svg>