<svg xmlns="http://www.w3.org/2000/svg" width="89.81" height="73.939" viewBox="0 0 89.81 73.939"><g transform="translate(-3.955 -2.9)"><path d="M-24.555,0h2.3V-3.33h1.9c2.43,0,4.4-1.29,4.4-3.81v-.03c0-2.22-1.575-3.75-4.17-3.75h-4.425Zm2.3-5.385v-3.45h1.935c1.245,0,2.04.6,2.04,1.71v.03a1.767,1.767,0,0,1-1.995,1.71ZM-8.73.18A5.644,5.644,0,0,0-2.925-5.46v-.03A5.585,5.585,0,0,0-8.7-11.1a5.644,5.644,0,0,0-5.805,5.64v.03A5.585,5.585,0,0,0-8.73.18Zm.03-2.115A3.408,3.408,0,0,1-12.09-5.46v-.03A3.358,3.358,0,0,1-8.73-8.985,3.408,3.408,0,0,1-5.34-5.46v.03A3.358,3.358,0,0,1-8.7-1.935ZM-.525,0h2.31V-10.92H-.525ZM4.68,0H6.945V-7.11L12.375,0H14.34V-10.92H12.06v6.885L6.8-10.92H4.68ZM19.695,0h2.31V-8.79H25.35v-2.13H16.335v2.13h3.36Z" transform="translate(49 14)" fill="#e84830"/><path d="M-22.575.84C-8.995.84.035-10.78.035-25.48v-.14c0-14.77-9.03-26.18-22.47-26.18-13.51,0-22.61,11.62-22.61,26.32v.14C-45.045-10.57-36.155.84-22.575.84Zm.14-9.66c-7,0-11.55-7.21-11.55-16.66v-.14c0-9.45,4.48-16.52,11.41-16.52s11.55,7.28,11.55,16.66v.14C-11.025-15.96-15.435-8.82-22.435-8.82ZM26.495.84c11.2,0,18.27-6.93,18.27-16.52v-.14c0-9.45-6.86-13.16-13.93-14.28L44-42.84v-8.12H9.695v9.24h20.44L17.6-28.98l1.75,6.79H23.9c6.37,0,10.29,2.45,10.29,6.79v.14c0,3.92-3.15,6.51-7.56,6.51-5.25,0-8.96-2.24-12.46-6.23l-7.42,7C11.095-2.8,17.4.84,26.495.84Z" transform="translate(49 76)" fill="#e84830"/></g></svg>