<svg xmlns="http://www.w3.org/2000/svg" width="710" height="125.418" viewBox="0 0 710 125.418"><g transform="translate(-605 -3423.898)"><g transform="translate(-129 139.898)"><path d="M0,0H60V60H0Z" transform="translate(963 3349.418)" fill="#e84830"/><path d="M0,0H60V60H0Z" transform="translate(1093 3349.418)" fill="#e84830"/><path d="M0,0H60V60H0Z" transform="translate(1028 3349.418)" fill="#e84830"/><path d="M0,0H60V60H0Z" transform="translate(1158 3349.418)" fill="#e84830"/></g><path d="M-343.552-24.772h38.588v9.636h-5.148V-20.2H-338.58v5.06h-4.972Zm6.38,7.964h23.188v4.884h-23.188Zm27.06-20.812,3.564,4.268q-3.74.7-8.074,1.254t-8.976.946q-4.642.4-9.306.66t-9.064.352a10.3,10.3,0,0,0-.418-2.288,22.771,22.771,0,0,0-.726-2.2q4.356-.132,8.91-.4t8.932-.638q4.378-.374,8.25-.88T-310.112-37.62ZM-339.24-29.3l4.576-1.276a24.561,24.561,0,0,1,1.518,2.64,14.775,14.775,0,0,1,1.034,2.552L-337-23.98a12.9,12.9,0,0,0-.88-2.6A29.531,29.531,0,0,0-339.24-29.3Zm11.616-.924,4.664-1.056q.66,1.364,1.254,2.948a13.881,13.881,0,0,1,.77,2.772l-4.972,1.232a16.424,16.424,0,0,0-.638-2.86A31.377,31.377,0,0,0-327.624-30.228Zm13.948-1.144,5.588,1.32q-.748,1.408-1.54,2.772t-1.584,2.574q-.792,1.21-1.452,2.134L-317.02-23.8q.616-1.1,1.254-2.4t1.188-2.662Q-314.028-30.228-313.676-31.372Zm-2.244,14.564h1.1l.924-.176,3.608,2.156a25.452,25.452,0,0,1-5.126,7.458,29.813,29.813,0,0,1-7.238,5.3,46.17,46.17,0,0,1-8.866,3.52,70.923,70.923,0,0,1-9.966,2.068,12.07,12.07,0,0,0-.792-1.562q-.528-.9-1.144-1.76a11.291,11.291,0,0,0-1.144-1.386,79.575,79.575,0,0,0,9.636-1.584,42.228,42.228,0,0,0,8.316-2.794,24.474,24.474,0,0,0,6.468-4.29,17.684,17.684,0,0,0,4.224-6.072ZM-331.936-13.2A21.846,21.846,0,0,0-325.4-7.5a39.247,39.247,0,0,0,9.46,3.894A66.13,66.13,0,0,0-304.128-1.54a9.854,9.854,0,0,0-1.188,1.5q-.616.924-1.166,1.826a17.654,17.654,0,0,0-.9,1.65A61.764,61.764,0,0,1-319.44.748a38.489,38.489,0,0,1-9.768-4.862,30.485,30.485,0,0,1-7.348-7.238Zm68.464-21.12h24.156v3.74h-24.156Zm-1.144,11.044h26.092v4h-26.092Zm-.044,16.632h26.224v4.136H-264.66Zm4.488-5.368h17.6v3.3h-17.6Zm-2.464-16.808h22.352v3.652h-22.352Zm3.784-8.58h4.708v15.884h-4.708Zm9.812,0h4.752v15.884h-4.752Zm-4.84,16.148h4.312V-4.224h-4.312Zm8.448,3.564h4.752V-.7a6.443,6.443,0,0,1-.4,2.552,2.937,2.937,0,0,1-1.5,1.408,8.223,8.223,0,0,1-2.75.594q-1.65.11-3.894.11a10.506,10.506,0,0,0-.44-2.068A17.5,17.5,0,0,0-250.4-.132q1.276.044,2.53.066t1.694.022a1,1,0,0,0,.594-.2.7.7,0,0,0,.154-.506Zm-17.072,0h18.788v3.652H-258.06v18H-262.5Zm-15.532-5.9h12.1v4h-12.1Zm.22-12.408h11.7v3.96h-11.7Zm-.22,18.568h12.1v4h-12.1Zm-1.936-12.5h15.356v4.18h-15.356Zm4.4,18.744h9.812V2.2h-9.812V-1.98h5.412V-7h-5.412Zm-2.6,0h4.356V3.916h-4.356Zm71.016-18.216h30.624v5.148h-30.624ZM-209-16.456h30.756v5.1H-209Zm-5.06,13.992h39.776V2.684H-214.06ZM-196.988-37.4h5.544V.044h-5.544Zm-10.164.572L-201.7-35.6a56.217,56.217,0,0,1-2.288,6.688,58.218,58.218,0,0,1-2.948,6.138,34.522,34.522,0,0,1-3.3,4.95,13.214,13.214,0,0,0-1.386-1.078q-.858-.594-1.782-1.166t-1.584-.924a23.081,23.081,0,0,0,3.234-4.4,41.486,41.486,0,0,0,2.64-5.5A53.053,53.053,0,0,0-207.152-36.828Zm75.548,6.072q2.024.264,4.554.374t5.148.088q2.618-.022,5.038-.176t4.18-.33v5.676q-2.024.176-4.444.286t-4.972.11q-2.552,0-4.994-.11t-4.51-.286Zm3.52,18.788q-.264,1.1-.4,1.958a11.414,11.414,0,0,0-.132,1.738,2.5,2.5,0,0,0,.352,1.3,2.885,2.885,0,0,0,1.078,1.012,5.73,5.73,0,0,0,1.892.616,17.288,17.288,0,0,0,2.838.2,50.72,50.72,0,0,0,5.544-.286q2.6-.286,5.5-.858l.088,5.94a46.982,46.982,0,0,1-4.862.616q-2.75.22-6.49.22-5.676,0-8.448-1.914a6.093,6.093,0,0,1-2.772-5.3,18.834,18.834,0,0,1,.2-2.662q.2-1.386.55-3.058ZM-138.38-33.7a12.5,12.5,0,0,0-.4,1.232q-.22.792-.418,1.54t-.286,1.144q-.132.924-.418,2.4t-.572,3.3q-.286,1.826-.55,3.718t-.418,3.652q-.154,1.76-.154,3.08,0,.616.022,1.408a8.646,8.646,0,0,0,.154,1.452q.308-.748.66-1.5t.7-1.518q.352-.77.616-1.474l2.728,2.156q-.616,1.8-1.254,3.872t-1.144,3.894q-.506,1.826-.77,3.014-.088.484-.154,1.1a9.65,9.65,0,0,0-.066.968q0,.352.022.858t.066.946l-5.1.352A45.307,45.307,0,0,1-146.3-4.2a60.538,60.538,0,0,1-.528-8.294q0-2.464.22-5.016t.528-4.906q.308-2.354.594-4.29t.506-3.212q.088-.924.242-2.09t.2-2.222Zm88.7,4.84,4.972,1.056q-.528,1.848-1.1,3.762t-1.144,3.652q-.572,1.738-1.1,3.058L-52.1-18.348q.484-1.452.946-3.278t.858-3.74Q-49.9-27.28-49.676-28.864Zm-16.764,1.32,4.18-.924q.528,1.584.946,3.432t.7,3.608q.286,1.76.374,3.124l-4.444,1.056a27.974,27.974,0,0,0-.308-3.19q-.264-1.782-.638-3.652T-66.44-27.544Zm-.44-7.656h22.44v4.928H-66.88Zm-1.54,19.1h24.772v4.972H-68.42Zm9.768-17.38h5.192v37.4h-5.192ZM-82.9-23.892h13.64v4H-82.9Zm.176-12.1h13.376v3.96H-82.72ZM-82.9-17.864h13.64v3.96H-82.9ZM-85.008-30.1h17.292v4.18H-85.008Zm4.532,18.3h11.132V1.628H-80.476v-4.18h6.6v-5.06h-6.6Zm-2.552,0h4.488V3.344h-4.488Zm75.592-21.3H20.68v4.752H-7.436ZM-7-22.836H20.46V2.728h-5.1V-18.216H-2.156V2.992H-7ZM.132-32.472H5.1V-19.4H.132Zm7.876-.044H12.98v13.068H8.008ZM-4.8-4.048H19.1V.484H-4.8Zm5.412-15.4H5.06V-.528H.616Zm7.392-.044h4.444V-.572H8.008ZM-11.22-37.268l4.752,1.5a67.315,67.315,0,0,1-3.168,7.26,66.644,66.644,0,0,1-4,6.886,45.211,45.211,0,0,1-4.444,5.7q-.264-.616-.726-1.628T-19.822-19.6a15.171,15.171,0,0,0-.99-1.65,32.586,32.586,0,0,0,3.718-4.51,47.245,47.245,0,0,0,3.278-5.522A53.458,53.458,0,0,0-11.22-37.268Zm-4.224,12.276,4.928-4.972.044.088V3.916h-4.972Zm81.4-6.248q-.264-.748-.616-1.848t-.792-2.2l5.94-.7q.352,1.716.792,3.41t.968,3.3q.528,1.606,1.056,3.014a44.485,44.485,0,0,0,2.4,5.346,39.09,39.09,0,0,0,2.442,4.114q.572.836,1.166,1.562t1.21,1.386L77.792-9.9q-.924-.176-2.332-.374T72.4-10.648L69.1-11q-1.65-.176-3.014-.264l.44-4.664q1.1.088,2.332.2t2.31.2q1.078.088,1.782.132-.792-1.276-1.672-2.9t-1.716-3.41q-.836-1.782-1.54-3.586-.7-1.848-1.21-3.344T65.956-31.24ZM49.94-29.172q4.092.484,7.7.66t6.732.088q3.124-.088,5.72-.4,2.024-.264,3.938-.572t3.784-.748q1.87-.44,3.542-.968l.7,5.544q-1.452.4-3.146.748t-3.5.638q-1.8.286-3.564.506-4.444.484-9.768.572t-12.056-.44Zm8.8,15a16.178,16.178,0,0,0-1.584,3.014,8.043,8.043,0,0,0-.572,2.926A4.22,4.22,0,0,0,59-4.2a15.325,15.325,0,0,0,6.908,1.254,62.845,62.845,0,0,0,6.534-.308Q75.372-3.564,77.7-4L77.4,1.54q-1.848.352-4.818.7A60.58,60.58,0,0,1,65.56,2.6,24.864,24.864,0,0,1,57.816,1.43a10.888,10.888,0,0,1-5.1-3.344,8.213,8.213,0,0,1-1.8-5.346,13.645,13.645,0,0,1,.594-3.982,25.9,25.9,0,0,1,1.738-4.2Zm92.8,11.88A13.617,13.617,0,0,1,147.972.044a11.236,11.236,0,0,1-4.708.924,5.062,5.062,0,0,1-3.982-1.716,7.207,7.207,0,0,1-1.518-4.928,32.535,32.535,0,0,1,.242-3.806q.242-2.046.55-4.114t.55-3.938a26.478,26.478,0,0,0,.242-3.366,3.374,3.374,0,0,0-.792-2.442,2.927,2.927,0,0,0-2.2-.814,7.069,7.069,0,0,0-3.432,1.078,26.029,26.029,0,0,0-3.872,2.75,45.418,45.418,0,0,0-3.762,3.564q-1.782,1.892-3.1,3.608l-.044-6.776q.792-.88,2.09-2.068t2.948-2.464a39.358,39.358,0,0,1,3.476-2.4,21.6,21.6,0,0,1,3.7-1.826,10.274,10.274,0,0,1,3.63-.7,7.852,7.852,0,0,1,3.894.858,5.508,5.508,0,0,1,2.266,2.332,7.236,7.236,0,0,1,.748,3.322,34.184,34.184,0,0,1-.22,3.718q-.22,2-.528,4.07T143.638-11q-.2,2.024-.2,3.7a2.219,2.219,0,0,0,.44,1.43,1.489,1.489,0,0,0,1.232.55,5.8,5.8,0,0,0,2.728-.814,12.728,12.728,0,0,0,2.992-2.354Zm-30.4-20.988q-.7.088-1.8.22t-2.354.308q-1.254.176-2.53.352t-2.376.308L111.5-27.72q.968.044,1.826.022t2-.066q1.056-.088,2.53-.242t2.992-.374q1.518-.22,2.838-.484a15.844,15.844,0,0,0,2.068-.528l1.76,2.244q-.4.528-.9,1.32t-1.034,1.606q-.528.814-.924,1.43l-2.6,8.272q-.7,1.012-1.738,2.552T118.14-8.712Q117-7,115.9-5.412t-1.98,2.772l-3.476-4.8q.836-1.056,1.914-2.442t2.266-2.948q1.188-1.562,2.332-3.124t2.134-2.948q.99-1.386,1.65-2.4l.088-1.144Zm-.528-8.448v-1.958a11.667,11.667,0,0,0-.176-2l6.424.22q-.264,1.012-.55,2.926t-.572,4.378q-.286,2.464-.528,5.17t-.4,5.39q-.154,2.684-.154,5.016,0,1.8.022,3.652t.066,3.784q.044,1.936.176,4,.044.572.132,1.606t.176,1.782h-6.072q.088-.792.11-1.76t.022-1.5q.044-2.156.088-4t.066-3.916q.022-2.068.11-4.8.044-1.012.132-2.574t.2-3.432q.11-1.87.242-3.806t.242-3.63q.11-1.694.176-2.9T120.6-31.724Zm54.824,1.452q1.32-.044,2.508-.11t1.848-.11q1.364-.132,3.344-.308l4.466-.4q2.486-.22,5.3-.462l5.852-.506q2.288-.176,4.576-.33t4.334-.264q2.046-.11,3.542-.154l.044,5.632q-1.188,0-2.728.044t-3.058.154a18.836,18.836,0,0,0-2.706.374,10.812,10.812,0,0,0-3.674,1.782,14.253,14.253,0,0,0-2.97,2.97,13.662,13.662,0,0,0-1.958,3.674,11.9,11.9,0,0,0-.682,3.938,9.132,9.132,0,0,0,.748,3.806,8.129,8.129,0,0,0,2.09,2.816,11.841,11.841,0,0,0,3.146,1.936,18.809,18.809,0,0,0,3.894,1.166,33.986,33.986,0,0,0,4.334.528l-2.068,6.028a27.385,27.385,0,0,1-5.39-.88A22.313,22.313,0,0,1,195.338-.88a16.28,16.28,0,0,1-3.982-3.014,13.2,13.2,0,0,1-2.684-4.092,13.257,13.257,0,0,1-.968-5.17,16.23,16.23,0,0,1,1.012-5.852,19.164,19.164,0,0,1,2.508-4.642,14.826,14.826,0,0,1,2.992-3.1q-1.232.132-2.97.33t-3.74.44q-2,.242-4.07.506t-3.982.594q-1.914.33-3.454.638Zm73.3-1.188a16.7,16.7,0,0,0-.286,1.8q-.11,1.012-.176,1.98t-.066,1.584q-.044,1.452-.022,2.992t.088,3.146q.066,1.606.2,3.19a42.311,42.311,0,0,0,.88,5.588,11.259,11.259,0,0,0,1.5,3.762,2.748,2.748,0,0,0,2.332,1.342,2.014,2.014,0,0,0,1.474-.836,8.648,8.648,0,0,0,1.32-2.178,25.857,25.857,0,0,0,1.056-2.838q.462-1.5.814-2.816l4.4,5.368a34.761,34.761,0,0,1-2.882,6.094,10.338,10.338,0,0,1-2.97,3.256,6.065,6.065,0,0,1-3.344.99,7.445,7.445,0,0,1-4.51-1.584,12.035,12.035,0,0,1-3.63-5.126,33.839,33.839,0,0,1-2.112-9.438q-.22-2.024-.33-4.268t-.132-4.268q-.022-2.024-.022-3.344,0-.924-.088-2.2a22.489,22.489,0,0,0-.264-2.288Zm22,1.012a21.867,21.867,0,0,1,2.376,3.652,44.8,44.8,0,0,1,2.112,4.62q.968,2.464,1.716,5.038t1.21,5.016a37.243,37.243,0,0,1,.594,4.466l-5.808,2.244q-.22-2.684-.792-5.852a57.532,57.532,0,0,0-1.54-6.38,44.507,44.507,0,0,0-2.31-6.072,21.032,21.032,0,0,0-3.146-4.928Zm41.228-3.08q.924.132,1.98.176t2.024.044q.7,0,2.112-.022t3.19-.066l3.542-.088q1.76-.044,3.19-.11t2.222-.11q1.364-.132,2.156-.242a7.136,7.136,0,0,0,1.188-.242l2.86,3.916q-.748.484-1.54.968a17.906,17.906,0,0,0-1.54,1.056q-.88.616-2.112,1.606t-2.618,2.09q-1.386,1.1-2.684,2.156T323.576-20.5a16.882,16.882,0,0,1,2.112-.374,19.128,19.128,0,0,1,2.068-.11,15.079,15.079,0,0,1,6.71,1.452,12.087,12.087,0,0,1,4.708,3.938,9.7,9.7,0,0,1,1.738,5.7,11.63,11.63,0,0,1-1.76,6.292A12.148,12.148,0,0,1,333.85.88a20.744,20.744,0,0,1-8.866,1.672,16.076,16.076,0,0,1-5.478-.88,8.99,8.99,0,0,1-3.85-2.508,5.666,5.666,0,0,1-1.408-3.828,6.173,6.173,0,0,1,.99-3.366,7.358,7.358,0,0,1,2.772-2.53,8.483,8.483,0,0,1,4.114-.968,10.082,10.082,0,0,1,5.126,1.21,8.4,8.4,0,0,1,3.212,3.234,9.374,9.374,0,0,1,1.166,4.444l-5.148.7a6.289,6.289,0,0,0-1.21-3.894,3.756,3.756,0,0,0-3.1-1.474,2.947,2.947,0,0,0-1.98.638,1.9,1.9,0,0,0-.748,1.474,2.247,2.247,0,0,0,1.232,1.98,6.125,6.125,0,0,0,3.212.748,18.64,18.64,0,0,0,6.248-.9,7.8,7.8,0,0,0,3.762-2.6,6.579,6.579,0,0,0,1.254-4.026,5.365,5.365,0,0,0-1.21-3.476A7.935,7.935,0,0,0,330.66-15.8,12.351,12.351,0,0,0,326-16.632a16.082,16.082,0,0,0-4.664.638,16.525,16.525,0,0,0-3.982,1.8,24.372,24.372,0,0,0-3.652,2.816A47.279,47.279,0,0,0,310.156-7.7l-4-4.136q1.188-.968,2.684-2.178t3.058-2.53q1.562-1.32,2.948-2.486t2.354-1.958q.924-.748,2.156-1.76t2.552-2.09q1.32-1.078,2.508-2.068t1.98-1.694q-.66,0-1.716.044t-2.31.088l-2.508.088q-1.254.044-2.332.11l-1.782.11q-.88.044-1.848.132t-1.76.22Z" transform="translate(961 3471.898)" fill="#333"/><g transform="translate(-9 221.398)"><g transform="translate(-154 -81.918)"><g transform="translate(198 -65)"><path d="M1,1V59H59V1H1M0,0H60V60H0Z" transform="translate(700 3349.418)" fill="#707070"/><path d="M1,1V59H59V1H1M0,0H60V60H0Z" transform="translate(635 3349.418)" fill="#707070"/><path d="M1,1V59H59V1H1M0,0H60V60H0Z" transform="translate(830 3349.418)" fill="#707070"/><path d="M1,1V59H59V1H1M0,0H60V60H0Z" transform="translate(765 3349.418)" fill="#707070"/><path d="M1,1V59H59V1H1M0,0H60V60H0Z" transform="translate(570 3349.418)" fill="#707070"/></g></g><g transform="translate(106 -81.918)"><g transform="translate(198 -65)"><path d="M1,1V59H59V1H1M0,0H60V60H0Z" transform="translate(700 3349.418)" fill="#707070"/><path d="M1,1V59H59V1H1M0,0H60V60H0Z" transform="translate(635 3349.418)" fill="#707070"/><path d="M1,1V59H59V1H1M0,0H60V60H0Z" transform="translate(830 3349.418)" fill="#707070"/><path d="M1,1V59H59V1H1M0,0H60V60H0Z" transform="translate(895 3349.418)" fill="#707070"/><path d="M1,1V59H59V1H1M0,0H60V60H0Z" transform="translate(765 3349.418)" fill="#707070"/><path d="M1,1V59H59V1H1M0,0H60V60H0Z" transform="translate(960 3349.418)" fill="#707070"/></g></g></g><path d="M-85.382-33a2.263,2.263,0,0,0,.7,1.694,2.374,2.374,0,0,0,1.716.682,2.321,2.321,0,0,0,1.672-.682,2.263,2.263,0,0,0,.7-1.694,2.284,2.284,0,0,0-.7-1.672,2.284,2.284,0,0,0-1.672-.7,2.335,2.335,0,0,0-1.716.7A2.284,2.284,0,0,0-85.382-33Zm-2.684,0a4.889,4.889,0,0,1,.682-2.552A5.308,5.308,0,0,1-85.536-37.4a4.885,4.885,0,0,1,2.574-.7,4.772,4.772,0,0,1,2.552.7,5.37,5.37,0,0,1,1.826,1.848A4.889,4.889,0,0,1-77.9-33a5.005,5.005,0,0,1-.682,2.574,5.129,5.129,0,0,1-1.826,1.848,4.889,4.889,0,0,1-2.552.682,5.005,5.005,0,0,1-2.574-.682,5.075,5.075,0,0,1-1.848-1.848A5.005,5.005,0,0,1-88.066-33Zm-6.072-1.716q-.044.308-.132,1.012t-.176,1.474a12.021,12.021,0,0,0-.088,1.342v29.3A4.073,4.073,0,0,1-95.656,1.43,4.7,4.7,0,0,1-99.11,2.552q-1.188,0-2.42-.044t-2.42-.132q-1.188-.088-2.332-.22L-106.81-3.3q1.408.264,2.75.4t2.134.132a1.65,1.65,0,0,0,1.232-.374,1.88,1.88,0,0,0,.4-1.21q0-.4.022-1.716t.022-3.124V-30.888a19.65,19.65,0,0,0-.132-2.09,14.547,14.547,0,0,0-.264-1.738Zm-21.56,7q1.012.132,2.112.242t2.156.11h27.148q.924,0,2.178-.088t2.178-.22v5.764q-1.012-.088-2.2-.11t-2.112-.022H-111.43q-.968,0-2.134.044t-2.134.132Zm11.22,11.924q-.748,1.5-1.8,3.212t-2.266,3.432q-1.21,1.716-2.354,3.19A31.981,31.981,0,0,1-112.97-3.52l-4.752-3.256a26.02,26.02,0,0,0,2.266-2.4q1.166-1.386,2.288-2.926t2.068-3.08q.946-1.54,1.65-2.948Zm18.92-2.464q.836,1.056,1.87,2.508t2.09,3.1q1.056,1.65,1.98,3.212t1.584,2.75l-5.192,2.816q-.7-1.408-1.606-3.036t-1.87-3.256q-.968-1.628-1.914-3.058t-1.738-2.442Zm33.792,1.144A77,77,0,0,0-41.008-20.7a64,64,0,0,0,8.47-4.29,48.006,48.006,0,0,0,4.6-3.234q2.31-1.826,4.356-3.762a36.913,36.913,0,0,0,3.454-3.7l4.752,4.532q-2.024,1.98-4.422,4t-4.994,3.872q-2.6,1.848-5.148,3.388-2.508,1.452-5.61,2.992t-6.534,2.9q-3.432,1.364-6.908,2.42Zm18.3-5.06,6.248-1.452v19.8q0,.968.044,2.112t.132,2.134a10.5,10.5,0,0,0,.22,1.518H-33.77q.088-.528.154-1.518t.11-2.134q.044-1.144.044-2.112ZM21.1-33.44q1.144.792,2.684,1.936t3.19,2.486q1.65,1.342,3.1,2.618a30.694,30.694,0,0,1,2.376,2.288l-4.488,4.576q-.836-.924-2.2-2.2t-2.948-2.64q-1.584-1.364-3.124-2.6T16.962-29.04Zm-5.5,29.3A46.6,46.6,0,0,0,22.066-5.5,45.1,45.1,0,0,0,27.7-7.524,51.21,51.21,0,0,0,32.45-9.9,42.55,42.55,0,0,0,39.314-15a43.752,43.752,0,0,0,5.456-5.962,33.724,33.724,0,0,0,3.7-6.05l3.432,6.2a40.967,40.967,0,0,1-4.114,5.9,47.349,47.349,0,0,1-5.522,5.61,45.993,45.993,0,0,1-6.644,4.774,49.892,49.892,0,0,1-4.84,2.574A49.487,49.487,0,0,1,25.3.2a41.3,41.3,0,0,1-6.006,1.474Zm73.7-.088v-25.3q0-1.144-.11-2.64a23.088,23.088,0,0,0-.33-2.64h6.864q-.132,1.144-.264,2.53t-.132,2.75v25.3q0,.616.044,1.738t.176,2.31q.132,1.188.176,2.112H88.858q.176-1.32.308-3.08T89.3-4.224Zm4.708-19.184q2.2.572,4.928,1.474t5.5,1.914q2.772,1.012,5.214,2t4.07,1.826L111.21-10.12q-1.848-.968-4.092-1.958t-4.554-1.914q-2.31-.924-4.532-1.716t-4.026-1.408Z" transform="translate(961 3534.898)" fill="#fff"/></g></svg>