<svg xmlns="http://www.w3.org/2000/svg" xmlns:xlink="http://www.w3.org/1999/xlink" width="67.866" height="45" viewBox="0 0 67.866 45"><defs><clipPath id="a"><rect width="67.866" height="45" fill="#e84830"/></clipPath></defs><g transform="translate(0 0)"><g clip-path="url(#a)"><path d="M27.221,4.67A15.946,15.946,0,0,0,4.67,27.221,15.81,15.81,0,0,0,8.762,30.1L4.468,45H9.443L27.221,27.221a15.947,15.947,0,0,0,0-22.551" transform="translate(0 0)" fill="#e84830"/><path d="M57.944,4.67A15.946,15.946,0,1,0,35.393,27.221,15.771,15.771,0,0,0,39.485,30.1L35.19,45h4.975L57.944,27.221a15.947,15.947,0,0,0,0-22.551" transform="translate(5.252 0)" fill="#e84830"/></g></g></svg>