<svg xmlns="http://www.w3.org/2000/svg" width="564.373" height="83.734" viewBox="0 0 564.373 83.734"><g transform="translate(-759.3 -1149)"><path d="M-16.46-13.9H-4.54v-.8H-17.9v-1.4H-2.38v3.6H-16.46Zm-.68,0h2.24q-.32.96-.68,1.99t-.66,1.79l-2.18-.14q.34-.76.68-1.75T-17.14-13.9Zm.2,2.18h14.4v1.4H-17.36Zm13.6,0h2.26l-.01.22q-.01.22-.01.4a12.647,12.647,0,0,1-.2,1.54,1.908,1.908,0,0,1-.38.86,1.509,1.509,0,0,1-.53.34,2.1,2.1,0,0,1-.63.14q-.3.02-.8.02t-1.1-.02a3.392,3.392,0,0,0-.14-.73,5.036,5.036,0,0,0-.26-.71q.36.04.65.06a2.484,2.484,0,0,0,.45,0,1.242,1.242,0,0,0,.24-.02.31.31,0,0,0,.18-.12.991.991,0,0,0,.18-.52q.06-.4.1-1.22ZM-13.32-17h2.18v4.14a7.363,7.363,0,0,1-.26,1.99,4.008,4.008,0,0,1-.98,1.69,5.948,5.948,0,0,1-2.08,1.32,15.98,15.98,0,0,1-3.58.9,4.587,4.587,0,0,0-.3-.61q-.2-.35-.42-.69a4.356,4.356,0,0,0-.42-.56,15.733,15.733,0,0,0,3.08-.64,5.372,5.372,0,0,0,1.76-.92,2.631,2.631,0,0,0,.81-1.15,4.308,4.308,0,0,0,.21-1.37Zm4.42,0h2.26v8.08H-8.9ZM-14.22-5.54v.8h8.64v-.8Zm0,2.08v.84h8.64v-.84Zm0-4.16v.8h8.64v-.8Zm-2.34-1.36H-3.14v7.72H-16.56ZM-8.88-.32l1.92-1.2q1.08.34,2.21.73t2.15.77Q-1.58.36-.86.66L-3.54,1.82q-.58-.3-1.44-.67T-6.84.4Q-7.84.02-8.88-.32Zm-4.4-1.18,2.14.96a16.835,16.835,0,0,1-1.9.94q-1.08.46-2.21.84t-2.17.62a6.2,6.2,0,0,0-.5-.57q-.32-.33-.64-.64a5.339,5.339,0,0,0-.6-.51q1.08-.18,2.17-.43t2.05-.56A12.908,12.908,0,0,0-13.28-1.5ZM4.22-15.66H16.48v2.3H4.22Zm0,4.62h12.3V-8.8H4.22ZM4.18-6.32H16.6v2.26H4.18ZM2.84-15.66H5.2v7.2q0,1.18-.1,2.58a21.562,21.562,0,0,1-.39,2.81A13.058,13.058,0,0,1,3.85-.38,8.369,8.369,0,0,1,2.36,1.9a3.4,3.4,0,0,0-.54-.54q-.36-.3-.73-.58T.46.34a7.319,7.319,0,0,0,1.3-1.99,10.722,10.722,0,0,0,.71-2.26,17.554,17.554,0,0,0,.3-2.34q.07-1.17.07-2.23Zm12.8,0h2.4V-1.04A3.708,3.708,0,0,1,17.8.45a1.629,1.629,0,0,1-.86.81,4.592,4.592,0,0,1-1.54.36q-.94.08-2.32.06a5.738,5.738,0,0,0-.3-1.16A8.912,8.912,0,0,0,12.3-.62q.58.02,1.16.03t1.03.01h.65a.584.584,0,0,0,.39-.1.507.507,0,0,0,.11-.38ZM9-14.74h2.42V1.54H9Z" transform="translate(778.48 1197.246)" fill="#2e2624"/><g transform="translate(939.931 1157.303)"><path d="M3.52,0h34.3V-8.512H17.152l8-6.272c8.256-6.464,12.224-10.368,12.224-18.048v-.128c0-8.64-6.4-14.272-15.936-14.272-8.32,0-12.736,3.392-17.28,9.664l6.912,5.5c3.456-4.288,6.016-6.4,9.728-6.4,3.776,0,6.528,2.24,6.528,6.336,0,3.9-2.3,6.528-8.192,11.456L3.52-7.808ZM62.4-8.128c-3.9,0-6.848-1.344-10.24-4.1L46.976-4.736A22.246,22.246,0,0,0,62.208.768c13.056,0,20.224-10.3,20.224-25.408v-.128c0-9.152-2.176-14.272-5.5-17.6-3.52-3.456-7.168-4.992-13.376-4.992-10.432,0-17.664,6.912-17.664,16.256v.128C45.888-21.632,52.416-16,62.464-16a13.514,13.514,0,0,0,9.728-3.584h.064C72-15.3,69.824-8.128,62.4-8.128Zm1.664-16.064c-5.184,0-8.384-2.944-8.384-7.232v-.128c0-4.288,2.944-7.424,8.192-7.424s8.448,3.136,8.448,7.424v.128C72.32-27.328,69.312-24.192,64.064-24.192ZM90.176,0h10.368V-10.368H90.176Zm36.1.64c10.24,0,17.92-5.056,17.92-13.632v-.128c0-5.568-2.88-8.576-7.68-11.008,3.648-2.176,6.08-5.248,6.08-10.24V-34.5c0-7.232-6.592-12.736-16.32-12.736-9.792,0-16.384,5.568-16.384,12.736v.128c0,4.992,2.432,8.064,6.144,10.24-4.992,2.24-7.744,5.568-7.744,11.264v.128C108.288-4.672,115.968.64,126.272.64Zm0-28.1c-4.224,0-7.04-2.5-7.04-5.952v-.128c0-3.008,2.688-5.568,7.04-5.568s6.976,2.624,6.976,5.632v.128C133.248-29.888,130.432-27.456,126.272-27.456Zm0,19.968c-5.312,0-8.448-2.688-8.448-6.016v-.128c0-3.712,3.584-5.952,8.448-5.952,4.8,0,8.384,2.24,8.384,5.952v.128C134.656-10.112,131.52-7.488,126.272-7.488Z" transform="translate(-40 51.961)" fill="#2e2624"/><path d="M1.3-17.182H20.724v2.574H1.3ZM8.338-11h8.8v2.552h-8.8Zm7.832,0h2.772l-.011.209q-.011.209-.011.5a3.881,3.881,0,0,1-.022.462q-.132,2.552-.275,4.367T18.3-2.431a11.63,11.63,0,0,1-.418,1.947,3.189,3.189,0,0,1-.572,1.1,2.661,2.661,0,0,1-1.045.792,5.282,5.282,0,0,1-1.309.308q-.66.066-1.7.066T11.11,1.738A5.118,5.118,0,0,0,10.8.429a5.694,5.694,0,0,0-.638-1.287q1.144.088,2.178.11t1.518.022a2.729,2.729,0,0,0,.594-.055.983.983,0,0,0,.44-.231,2.661,2.661,0,0,0,.583-1.375,25.353,25.353,0,0,0,.4-3.08q.165-2.013.3-5.093ZM6.446-14.982H9.24q-.066,1.87-.209,3.784a30.713,30.713,0,0,1-.517,3.773,18.268,18.268,0,0,1-1.1,3.564A12.889,12.889,0,0,1,5.456-.671,11.874,11.874,0,0,1,2.332,1.936,5.931,5.931,0,0,0,1.5.8,7.825,7.825,0,0,0,.418-.2,10.846,10.846,0,0,0,3.267-2.464,10.445,10.445,0,0,0,5.016-5.236,14.174,14.174,0,0,0,5.94-8.371a27.719,27.719,0,0,0,.374-3.311Q6.4-13.354,6.446-14.982Zm18.414-2.31H42.108v2.618H27.5V1.958H24.86Zm15.994,0h2.662v16.17A4.247,4.247,0,0,1,43.252.539a1.866,1.866,0,0,1-.946.935,4.736,4.736,0,0,1-1.705.407q-1.023.077-2.5.077a6.744,6.744,0,0,0-.22-.858Q37.73.616,37.532.143a7.975,7.975,0,0,0-.4-.825q.638.044,1.287.055t1.155.011h.7a.724.724,0,0,0,.44-.143.532.532,0,0,0,.132-.407ZM26.29-9.108H42.152v2.6H26.29Zm6.424-6.754h2.64V-7.81h-2.64Z" transform="translate(106.67 49.961)" fill="#2e2624"/></g><path d="M9.035-4.94a8.556,8.556,0,0,1,.319-2.379,8.36,8.36,0,0,1,.9-2.06,9.729,9.729,0,0,1,1.365-1.749l.78.4a9.381,9.381,0,0,0-1.287,1.67,7.925,7.925,0,0,0-.839,1.924,7.918,7.918,0,0,0-.292,2.19,7.939,7.939,0,0,0,.292,2.184,7.782,7.782,0,0,0,.839,1.924A9.918,9.918,0,0,0,12.4.845l-.78.4A10.256,10.256,0,0,1,10.257-.507a8.22,8.22,0,0,1-.9-2.061A8.576,8.576,0,0,1,9.035-4.94Zm10.582-5.616.819-.351a11.313,11.313,0,0,1,.7,1.137,6.661,6.661,0,0,1,.474,1.059l-.858.4A6.567,6.567,0,0,0,20.3-9.4,9.152,9.152,0,0,0,19.617-10.556Zm4.836-.377.975.364q-.312.572-.67,1.183t-.67,1.053l-.819-.325q.208-.312.429-.708t.422-.806A8.147,8.147,0,0,0,24.453-10.933ZM20.826-4.264H21.8a12.389,12.389,0,0,1-.26,1.651,6.6,6.6,0,0,1-.527,1.482A4.541,4.541,0,0,1,20.1.111a4.942,4.942,0,0,1-1.456.942,2.739,2.739,0,0,0-.267-.39,2.4,2.4,0,0,0-.332-.351A4.379,4.379,0,0,0,19.357-.5a3.772,3.772,0,0,0,.806-1.072,5.466,5.466,0,0,0,.448-1.281A11.271,11.271,0,0,0,20.826-4.264Zm2.054-.117h.949V-.39a.623.623,0,0,0,.052.318q.052.072.26.072h.871a.238.238,0,0,0,.214-.111,1.173,1.173,0,0,0,.1-.462q.032-.351.045-1.053a1.1,1.1,0,0,0,.24.15,3.051,3.051,0,0,0,.319.13l.286.1a7.406,7.406,0,0,1-.15,1.307A1.141,1.141,0,0,1,25.733.7a.961.961,0,0,1-.617.182H24a1.644,1.644,0,0,1-.689-.117.633.633,0,0,1-.338-.4,2.542,2.542,0,0,1-.091-.76ZM20.41-7.423v2.535h4.108V-7.423Zm-.936-.871H25.48V-4.03H19.474ZM16.406-9.841h.962V1.014h-.962ZM14.287-7.254h4.706v.91H14.287Zm2.171.351.611.26q-.195.689-.481,1.424T15.97-3.763a15.162,15.162,0,0,1-.7,1.352,7.543,7.543,0,0,1-.747,1.072,3.685,3.685,0,0,0-.227-.455q-.149-.26-.28-.442a6.6,6.6,0,0,0,.715-.936q.351-.546.682-1.183t.6-1.293A11.244,11.244,0,0,0,16.458-6.9Zm1.885-3.835.676.754a13.374,13.374,0,0,1-1.365.442q-.767.208-1.58.358t-1.579.253a1.691,1.691,0,0,0-.117-.371q-.091-.214-.169-.37.728-.13,1.5-.286t1.463-.358A8.656,8.656,0,0,0,18.343-10.738ZM17.316-5.59q.13.117.383.371t.552.546q.3.293.54.553t.344.377l-.585.767q-.117-.195-.331-.494t-.475-.637q-.26-.338-.494-.624t-.39-.455Zm15.249-4.667h2.73v.923h-2.73Zm2.132,0h1.066a26.464,26.464,0,0,0,.39,2.8,12.132,12.132,0,0,0,.722,2.4,7.376,7.376,0,0,0,1.157,1.9A5.491,5.491,0,0,0,39.7-1.82a1.443,1.443,0,0,0-.26.2q-.143.13-.28.273t-.228.26a6.169,6.169,0,0,1-1.7-1.437A7.98,7.98,0,0,1,36.062-4.5a13.026,13.026,0,0,1-.741-2.444A26.748,26.748,0,0,1,34.9-9.789H34.7Zm.052,2.509,1,.156a12.94,12.94,0,0,1-1.384,3.835A8.271,8.271,0,0,1,31.98-1.092a1.945,1.945,0,0,0-.2-.227q-.137-.137-.292-.273t-.273-.228a6.714,6.714,0,0,0,2.295-2.418A11.61,11.61,0,0,0,34.749-7.748ZM30.706-5.785v4.6h-.949V-4.875h-1.82v-.91Zm0,4.173a2.822,2.822,0,0,0,1.3,1.066,5.525,5.525,0,0,0,1.963.39q.533.026,1.294.033t1.6-.006Q37.7-.143,38.48-.169t1.365-.065a1.513,1.513,0,0,0-.13.286q-.065.182-.117.37T39.52.754q-.533.026-1.261.039t-1.508.02q-.78.006-1.514,0T33.969.793A6.552,6.552,0,0,1,31.792.377,3.7,3.7,0,0,1,30.264-.767Q29.8-.351,29.3.072T28.275.936l-.507-1q.468-.312,1.007-.721t1.046-.826ZM28.08-10.023l.715-.585a9.5,9.5,0,0,1,.871.63q.442.358.813.721a6.106,6.106,0,0,1,.6.676l-.78.65a4.185,4.185,0,0,0-.566-.689q-.37-.377-.806-.748A10.5,10.5,0,0,0,28.08-10.023ZM44.369.169a4.267,4.267,0,0,1-1.306-.182,3.72,3.72,0,0,1-.994-.481,4.19,4.19,0,0,1-.741-.65l.611-.767a4.59,4.59,0,0,0,.982.76,2.668,2.668,0,0,0,1.371.332A2.253,2.253,0,0,0,45.3-1.033a1.638,1.638,0,0,0,.683-.611,1.746,1.746,0,0,0,.247-.942,1.792,1.792,0,0,0-.279-1,1.81,1.81,0,0,0-.93-.669,5.2,5.2,0,0,0-1.755-.24v-.91a4.118,4.118,0,0,0,1.56-.24,1.692,1.692,0,0,0,.826-.657,1.739,1.739,0,0,0,.253-.923,1.447,1.447,0,0,0-.429-1.1,1.643,1.643,0,0,0-1.183-.41,2.293,2.293,0,0,0-1.072.26,3.652,3.652,0,0,0-.9.663l-.637-.754a5.215,5.215,0,0,1,1.189-.812A3.254,3.254,0,0,1,44.33-9.7a3.511,3.511,0,0,1,1.437.28,2.261,2.261,0,0,1,.988.813,2.257,2.257,0,0,1,.357,1.287,2.2,2.2,0,0,1-.468,1.443,2.751,2.751,0,0,1-1.222.845v.065a2.829,2.829,0,0,1,1.014.455,2.449,2.449,0,0,1,.728.819,2.327,2.327,0,0,1,.273,1.144,2.524,2.524,0,0,1-.416,1.456,2.706,2.706,0,0,1-1.1.936A3.582,3.582,0,0,1,44.369.169ZM49.387,0V-.7A29.482,29.482,0,0,0,51.85-3.094,9.5,9.5,0,0,0,53.287-5.1a3.906,3.906,0,0,0,.468-1.749,2.4,2.4,0,0,0-.188-.975,1.454,1.454,0,0,0-.578-.67A1.854,1.854,0,0,0,52-8.736a2.014,2.014,0,0,0-1.086.312,3.584,3.584,0,0,0-.89.793l-.689-.676A4.963,4.963,0,0,1,50.57-9.321,3.131,3.131,0,0,1,52.143-9.7a2.983,2.983,0,0,1,1.476.344,2.423,2.423,0,0,1,.962.975A3.03,3.03,0,0,1,54.925-6.9a4.372,4.372,0,0,1-.474,1.924A9.914,9.914,0,0,1,53.137-3,23.542,23.542,0,0,1,51.181-.936q.377-.026.786-.058t.773-.033H55.38V0Zm9.867,0q.065-1.352.227-2.489a13.88,13.88,0,0,1,.475-2.145,12.123,12.123,0,0,1,.8-1.957,15.166,15.166,0,0,1,1.189-1.924H57.317V-9.529h5.967v.715a14.888,14.888,0,0,0-1.359,2.067,10.248,10.248,0,0,0-.819,2.015,13.936,13.936,0,0,0-.429,2.177Q60.541-1.4,60.489,0ZM65.52,2.47l-.286-.7a2.391,2.391,0,0,0,.962-.741,1.667,1.667,0,0,0,.338-1.066L66.4-1.105l.585.871a.751.751,0,0,1-.28.2.866.866,0,0,1-.318.058.914.914,0,0,1-.611-.221.759.759,0,0,1-.26-.611.751.751,0,0,1,.267-.611.957.957,0,0,1,.631-.221.855.855,0,0,1,.734.371,1.719,1.719,0,0,1,.267,1.02A2.7,2.7,0,0,1,66.9,1.391,3.294,3.294,0,0,1,65.52,2.47Zm6.929-2.3a3.645,3.645,0,0,1-1.573-.325,2.629,2.629,0,0,1-1.079-.9,2.275,2.275,0,0,1-.39-1.313,2.564,2.564,0,0,1,.254-1.151,2.978,2.978,0,0,1,.657-.884,4.219,4.219,0,0,1,.832-.6v-.052a3.727,3.727,0,0,1-.9-.9,2.174,2.174,0,0,1-.383-1.294,2.3,2.3,0,0,1,.344-1.267,2.386,2.386,0,0,1,.936-.845,2.861,2.861,0,0,1,1.332-.306,2.849,2.849,0,0,1,1.4.325,2.258,2.258,0,0,1,.9.884,2.623,2.623,0,0,1,.312,1.3,2.23,2.23,0,0,1-.2.936,3.489,3.489,0,0,1-.487.786,4.259,4.259,0,0,1-.572.579V-4.8a4.253,4.253,0,0,1,.78.565,2.591,2.591,0,0,1,.592.806,2.611,2.611,0,0,1,.227,1.138,2.219,2.219,0,0,1-.37,1.242,2.531,2.531,0,0,1-1.04.89A3.549,3.549,0,0,1,72.449.169Zm.65-5.343a3.141,3.141,0,0,0,.728-.917A2.2,2.2,0,0,0,74.074-7.1a1.893,1.893,0,0,0-.188-.858,1.484,1.484,0,0,0-.552-.6,1.61,1.61,0,0,0-.871-.227,1.5,1.5,0,0,0-1.092.416,1.485,1.485,0,0,0-.429,1.118,1.465,1.465,0,0,0,.306.943,2.555,2.555,0,0,0,.8.65A9.821,9.821,0,0,0,73.1-5.174ZM72.462-.715a2.114,2.114,0,0,0,.968-.208,1.571,1.571,0,0,0,.637-.572,1.537,1.537,0,0,0,.228-.832,1.568,1.568,0,0,0-.208-.826,2.145,2.145,0,0,0-.552-.6,4.268,4.268,0,0,0-.8-.468q-.455-.208-.962-.4a3.17,3.17,0,0,0-.942.917,2.179,2.179,0,0,0-.37,1.241,1.62,1.62,0,0,0,.26.9,1.766,1.766,0,0,0,.721.63A2.276,2.276,0,0,0,72.462-.715Zm7.826.884a2.4,2.4,0,0,1-1.566-.546,3.463,3.463,0,0,1-1.034-1.651A8.972,8.972,0,0,1,77.324-4.8a8.782,8.782,0,0,1,.364-2.75,3.373,3.373,0,0,1,1.034-1.618A2.441,2.441,0,0,1,80.288-9.7a2.415,2.415,0,0,1,1.573.539A3.441,3.441,0,0,1,82.888-7.54,8.719,8.719,0,0,1,83.252-4.8a8.972,8.972,0,0,1-.364,2.769A3.489,3.489,0,0,1,81.861-.377,2.4,2.4,0,0,1,80.288.169Zm0-.962a1.3,1.3,0,0,0,.955-.416,2.85,2.85,0,0,0,.637-1.307A9.455,9.455,0,0,0,82.108-4.8a9.29,9.29,0,0,0-.228-2.269,2.79,2.79,0,0,0-.637-1.287,1.31,1.31,0,0,0-.955-.41,1.317,1.317,0,0,0-.949.41A2.751,2.751,0,0,0,78.7-7.066,9.29,9.29,0,0,0,78.468-4.8,9.455,9.455,0,0,0,78.7-2.516a2.81,2.81,0,0,0,.644,1.307A1.307,1.307,0,0,0,80.288-.793Zm7.865.962a2.4,2.4,0,0,1-1.566-.546,3.463,3.463,0,0,1-1.034-1.651A8.972,8.972,0,0,1,85.189-4.8a8.782,8.782,0,0,1,.364-2.75,3.373,3.373,0,0,1,1.034-1.618A2.441,2.441,0,0,1,88.153-9.7a2.415,2.415,0,0,1,1.573.539A3.441,3.441,0,0,1,90.753-7.54,8.719,8.719,0,0,1,91.117-4.8a8.972,8.972,0,0,1-.364,2.769A3.489,3.489,0,0,1,89.726-.377,2.4,2.4,0,0,1,88.153.169Zm0-.962a1.3,1.3,0,0,0,.956-.416,2.851,2.851,0,0,0,.637-1.307A9.455,9.455,0,0,0,89.973-4.8a9.29,9.29,0,0,0-.228-2.269,2.79,2.79,0,0,0-.637-1.287,1.31,1.31,0,0,0-.956-.41,1.317,1.317,0,0,0-.949.41,2.751,2.751,0,0,0-.644,1.287A9.29,9.29,0,0,0,86.333-4.8a9.455,9.455,0,0,0,.228,2.281A2.81,2.81,0,0,0,87.2-1.209,1.307,1.307,0,0,0,88.153-.793Zm5.421-9.243h10.192v.962h-9.2V1.053h-.988Zm9.75,0h.988V-.26a1.614,1.614,0,0,1-.13.722.883.883,0,0,1-.468.4,3.146,3.146,0,0,1-.89.143q-.566.026-1.45.026A1.358,1.358,0,0,0,101.3.715q-.065-.182-.136-.357a2.236,2.236,0,0,0-.149-.305q.442.013.851.013H103a.4.4,0,0,0,.254-.084.332.332,0,0,0,.071-.24Zm-9.2,4.8h9.672v.962H94.12Zm4.264-4.316h.975v4.8h-.975ZM110.019-4.94a8.576,8.576,0,0,1-.318,2.372,8.22,8.22,0,0,1-.9,2.061,10.256,10.256,0,0,1-1.365,1.755l-.78-.4a9.918,9.918,0,0,0,1.287-1.677,7.782,7.782,0,0,0,.839-1.924,7.939,7.939,0,0,0,.292-2.184,7.918,7.918,0,0,0-.292-2.19,7.925,7.925,0,0,0-.839-1.924,9.381,9.381,0,0,0-1.287-1.67l.78-.4A9.729,9.729,0,0,1,108.8-9.379a8.36,8.36,0,0,1,.9,2.06A8.556,8.556,0,0,1,110.019-4.94Z" transform="translate(947.229 1230.264)" fill="#2e2624"/><path d="M40,0h1.357a40,40,0,0,1,40,40v1.357a40,40,0,0,1-40,40H40a40,40,0,0,1-40-40V40A40,40,0,0,1,40,0Z" transform="translate(811.626 1149.002)" fill="#2e2624"/><path d="M3.072-10.816A10.359,10.359,0,0,1,3.76-9.152H2.752a12.4,12.4,0,0,1-1.76-.08c.048.576.064.912.064,1.36v1.2A7.4,7.4,0,0,1,.96-5.44H2.736V-7.52H13.264v2H15.04A8.616,8.616,0,0,1,14.96-6.7V-7.872c0-.576.016-.928.048-1.344a14.7,14.7,0,0,1-1.728.064H12.224c.24-.4.256-.448.976-1.84l-1.552-.5c.816-.128,1.312-.224,1.936-.368.384-.1.432-.1.688-.144l-1.1-1.552a16.414,16.414,0,0,1-3.232.72,64.678,64.678,0,0,1-7.248.432c-.288,0-.72,0-1.264-.016A9.164,9.164,0,0,1,2-10.816ZM5.52-9.152a16.9,16.9,0,0,0-.688-1.728c1.2-.064,1.824-.1,1.872-.112.24.576.448,1.168.656,1.84Zm3.52,0A11.839,11.839,0,0,0,8.4-11.12c.512-.064.928-.1,1.184-.128.592-.048.992-.1,1.168-.112.16-.016.272-.032.688-.1a13.513,13.513,0,0,1-1.056,2.3Zm2.928,2.736a7.667,7.667,0,0,1-1.392.08H4.768a15.186,15.186,0,0,1-1.632-.08v1.648c.288-.032.32-.032.784-.064A12.776,12.776,0,0,0,6.5-1.9,18.744,18.744,0,0,1,.784-.368a7.513,7.513,0,0,1,.88,1.712A20.492,20.492,0,0,0,7.984-.832,14.872,14.872,0,0,0,10.192.256a18.213,18.213,0,0,0,4.336,1.056A6.727,6.727,0,0,1,15.36-.464,17.777,17.777,0,0,1,9.6-1.872a15.424,15.424,0,0,0,2-1.76,19.065,19.065,0,0,1,1.408-1.552ZM10.416-4.848a10.145,10.145,0,0,1-2.4,2.1,7.4,7.4,0,0,1-2.192-2.1ZM25.76-7.3v.688H24.032c-.752,0-1.088-.016-1.52-.048a12.057,12.057,0,0,1,.064,1.472V-2.7a5.314,5.314,0,0,1-.688-.064v1.52a5.314,5.314,0,0,1,.688-.064v.624A15.616,15.616,0,0,1,22.5,1.28H24.16A19.461,19.461,0,0,1,24.1-.688v-.624h4.928v.688c0,.32-.112.368-.736.368a11.212,11.212,0,0,1-1.456-.112,6.291,6.291,0,0,1,.288,1.456c.816.032,1.04.048,1.3.048,1.744,0,2.128-.256,2.128-1.44V-1.312a6.428,6.428,0,0,1,.912.08V-2.784a3.865,3.865,0,0,1-.912.08V-5.1a11.387,11.387,0,0,1,.08-1.568c-.368.032-.864.064-1.488.064H27.28V-7.3h2.848a6.922,6.922,0,0,1,1.3.08V-8.672a6.432,6.432,0,0,1-1.28.08H29.008V-9.28h.7a7.417,7.417,0,0,1,1.12.064v-1.312a6.93,6.93,0,0,1-1.1.064h-.72v-.64h1.008a8.407,8.407,0,0,1,1.168.064v-1.408a5.769,5.769,0,0,1-1.168.08H29.008a3.8,3.8,0,0,1,.112-1.056H27.408a3.906,3.906,0,0,1,.08,1.056H25.52a3.427,3.427,0,0,1,.1-1.056H23.9a3.489,3.489,0,0,1,.1,1.056h-.656a6.587,6.587,0,0,1-1.232-.08v1.408A8.357,8.357,0,0,1,23.3-11.1H24v.64h-.432a7.117,7.117,0,0,1-1.136-.064v1.312a7.377,7.377,0,0,1,1.136-.064H24v.688h-.72a7.548,7.548,0,0,1-1.312-.08v1.456A7.548,7.548,0,0,1,23.28-7.3Zm0,4.592H24.1v-.784H25.76Zm1.52,0v-.784h1.744V-2.7ZM25.76-4.64H24.1v-.736H25.76Zm1.52,0v-.736h1.744v.736ZM25.52-8.592V-9.28h1.968v.688Zm0-1.872v-.64h1.968v.64Zm-8.336-1.024a10.087,10.087,0,0,1,1.312-.064h1.728a10.246,10.246,0,0,1,1.312.064v-1.6a7.328,7.328,0,0,1-1.312.08H18.5a7.328,7.328,0,0,1-1.312-.08Zm-.5,2.3a9.052,9.052,0,0,1,1.248-.064h2.656a5.724,5.724,0,0,1,1.184.064v-1.632a8.206,8.206,0,0,1-1.248.064H17.936a6.774,6.774,0,0,1-1.248-.08Zm.56,2.224a8.4,8.4,0,0,1,1.024-.048h2.272a8.743,8.743,0,0,1,.992.048V-8.448a7.312,7.312,0,0,1-.992.048H18.272a8.216,8.216,0,0,1-1.024-.048Zm0,2.24a8.467,8.467,0,0,1,1.008-.048h2.256a7.539,7.539,0,0,1,1.024.048V-6.256a7.476,7.476,0,0,1-.992.048H18.272a8.216,8.216,0,0,1-1.024-.048ZM18.624,1.3V.512H20.16v.5h1.456a10.466,10.466,0,0,1-.048-1.12V-2.7a7.961,7.961,0,0,1,.048-1.216,5.235,5.235,0,0,1-1.008.064H18.224c-.5,0-.7-.016-1.136-.048a8.25,8.25,0,0,1,.08,1.312v2.32a11.614,11.614,0,0,1-.1,1.568Zm-.048-3.808h1.6V-.9h-1.6ZM39.232-1.328c.352-.112.816-.24,1.52-.4L44.144-2.5V-.56a11.6,11.6,0,0,1-.1,1.9h1.936a11.732,11.732,0,0,1-.1-1.888V-2.88l.16-.032A11.688,11.688,0,0,1,47.584-3.2l-.336-1.824a9.758,9.758,0,0,1-1.36.4v-6.944a11.308,11.308,0,0,1,.1-1.84H44.048a10.95,10.95,0,0,1,.1,1.856V-4.24L40.4-3.408a10.715,10.715,0,0,1-1.472.224,9.33,9.33,0,0,1,.448-.9,8.5,8.5,0,0,1-2.064-2.448h.576a9.306,9.306,0,0,1,1.264.064V-8.128a8.1,8.1,0,0,1-1.232.064h-.752v-3.808a9.552,9.552,0,0,1,.08-1.552H35.424a9.9,9.9,0,0,1,.08,1.568v3.792H34.432a7.946,7.946,0,0,1-1.44-.08v1.7a8.278,8.278,0,0,1,1.44-.08h.832a13.491,13.491,0,0,1-.848,1.808,10.521,10.521,0,0,1-1.728,2.368A4.819,4.819,0,0,1,33.5-.7a11.052,11.052,0,0,0,2.08-3.6c-.032.528-.064,1.28-.064,1.92V-.32a10.361,10.361,0,0,1-.112,1.7h1.856a9.464,9.464,0,0,1-.1-1.664v-2.64c0-.512-.016-.736-.1-1.824A11.837,11.837,0,0,0,38.688-2.5c.08-.256.1-.336.176-.544ZM32.88-11.936a12.91,12.91,0,0,1,.992,3.424l1.344-.576a19.46,19.46,0,0,0-.976-3.456Zm5.5-.64a13.31,13.31,0,0,1-1.1,3.456l1.168.608a19.362,19.362,0,0,0,1.28-3.472ZM39.9-11.12a13.516,13.516,0,0,1,2.832,2.464L43.824-10a15.541,15.541,0,0,0-2.8-2.352Zm-.5,3.952A14,14,0,0,1,42.224-4.7L43.312-6a14.6,14.6,0,0,0-2.784-2.352Z" transform="translate(827.897 1195.545)" fill="#fff"/><g transform="translate(1103.808 1149)"><g transform="translate(119.712 8.3)"><g transform="translate(20.92 0)"><path d="M20.928.768c10.24,0,16.7-6.336,16.7-15.1v-.128C37.632-23.1,31.36-26.5,24.9-27.52L36.928-39.168v-7.424H5.568v8.448H24.256L12.8-26.5l1.6,6.208h4.16c5.824,0,9.408,2.24,9.408,6.208v.128c0,3.584-2.88,5.952-6.912,5.952-4.8,0-8.192-2.048-11.392-5.7L2.88-7.3C6.848-2.56,12.608.768,20.928.768Z" transform="translate(-11 51.963)" fill="#2e2624"/><path d="M1.3-17.182H20.724v2.574H1.3ZM8.338-11h8.8v2.552h-8.8Zm7.832,0h2.772l-.011.209q-.011.209-.011.5a3.881,3.881,0,0,1-.022.462q-.132,2.552-.275,4.367T18.3-2.431a11.63,11.63,0,0,1-.418,1.947,3.189,3.189,0,0,1-.572,1.1,2.661,2.661,0,0,1-1.045.792,5.282,5.282,0,0,1-1.309.308q-.66.066-1.7.066T11.11,1.738A5.118,5.118,0,0,0,10.8.429a5.694,5.694,0,0,0-.638-1.287q1.144.088,2.178.11t1.518.022a2.729,2.729,0,0,0,.594-.055.983.983,0,0,0,.44-.231,2.661,2.661,0,0,0,.583-1.375,25.353,25.353,0,0,0,.4-3.08q.165-2.013.3-5.093ZM6.446-14.982H9.24q-.066,1.87-.209,3.784a30.713,30.713,0,0,1-.517,3.773,18.268,18.268,0,0,1-1.1,3.564A12.889,12.889,0,0,1,5.456-.671,11.874,11.874,0,0,1,2.332,1.936,5.931,5.931,0,0,0,1.5.8,7.825,7.825,0,0,0,.418-.2,10.846,10.846,0,0,0,3.267-2.464,10.445,10.445,0,0,0,5.016-5.236,14.174,14.174,0,0,0,5.94-8.371a27.719,27.719,0,0,0,.374-3.311Q6.4-13.354,6.446-14.982Zm18.414-2.31H42.108v2.618H27.5V1.958H24.86Zm15.994,0h2.662v16.17A4.247,4.247,0,0,1,43.252.539a1.866,1.866,0,0,1-.946.935,4.736,4.736,0,0,1-1.705.407q-1.023.077-2.5.077a6.744,6.744,0,0,0-.22-.858Q37.73.616,37.532.143a7.975,7.975,0,0,0-.4-.825q.638.044,1.287.055t1.155.011h.7a.724.724,0,0,0,.44-.143.532.532,0,0,0,.132-.407ZM26.29-9.108H42.152v2.6H26.29Zm6.424-6.754h2.64V-7.81h-2.64Z" transform="translate(29.962 49.963)" fill="#2e2624"/></g><path d="M9.035-4.94a8.556,8.556,0,0,1,.319-2.379,8.36,8.36,0,0,1,.9-2.06,9.729,9.729,0,0,1,1.365-1.749l.78.4a9.381,9.381,0,0,0-1.287,1.67,7.925,7.925,0,0,0-.839,1.924,7.918,7.918,0,0,0-.292,2.19,7.939,7.939,0,0,0,.292,2.184,7.782,7.782,0,0,0,.839,1.924A9.918,9.918,0,0,0,12.4.845l-.78.4A10.256,10.256,0,0,1,10.257-.507a8.22,8.22,0,0,1-.9-2.061A8.576,8.576,0,0,1,9.035-4.94Zm10.582-5.616.819-.351a11.313,11.313,0,0,1,.7,1.137,6.661,6.661,0,0,1,.474,1.059l-.858.4A6.567,6.567,0,0,0,20.3-9.4,9.152,9.152,0,0,0,19.617-10.556Zm4.836-.377.975.364q-.312.572-.67,1.183t-.67,1.053l-.819-.325q.208-.312.429-.708t.422-.806A8.147,8.147,0,0,0,24.453-10.933ZM20.826-4.264H21.8a12.389,12.389,0,0,1-.26,1.651,6.6,6.6,0,0,1-.527,1.482A4.541,4.541,0,0,1,20.1.111a4.942,4.942,0,0,1-1.456.942,2.739,2.739,0,0,0-.267-.39,2.4,2.4,0,0,0-.332-.351A4.379,4.379,0,0,0,19.357-.5a3.772,3.772,0,0,0,.806-1.072,5.466,5.466,0,0,0,.448-1.281A11.271,11.271,0,0,0,20.826-4.264Zm2.054-.117h.949V-.39a.623.623,0,0,0,.052.318q.052.072.26.072h.871a.238.238,0,0,0,.214-.111,1.173,1.173,0,0,0,.1-.462q.032-.351.045-1.053a1.1,1.1,0,0,0,.24.15,3.051,3.051,0,0,0,.319.13l.286.1a7.406,7.406,0,0,1-.15,1.307A1.141,1.141,0,0,1,25.733.7a.961.961,0,0,1-.617.182H24a1.644,1.644,0,0,1-.689-.117.633.633,0,0,1-.338-.4,2.542,2.542,0,0,1-.091-.76ZM20.41-7.423v2.535h4.108V-7.423Zm-.936-.871H25.48V-4.03H19.474ZM16.406-9.841h.962V1.014h-.962ZM14.287-7.254h4.706v.91H14.287Zm2.171.351.611.26q-.195.689-.481,1.424T15.97-3.763a15.162,15.162,0,0,1-.7,1.352,7.543,7.543,0,0,1-.747,1.072,3.685,3.685,0,0,0-.227-.455q-.149-.26-.28-.442a6.6,6.6,0,0,0,.715-.936q.351-.546.682-1.183t.6-1.293A11.244,11.244,0,0,0,16.458-6.9Zm1.885-3.835.676.754a13.374,13.374,0,0,1-1.365.442q-.767.208-1.58.358t-1.579.253a1.691,1.691,0,0,0-.117-.371q-.091-.214-.169-.37.728-.13,1.5-.286t1.463-.358A8.656,8.656,0,0,0,18.343-10.738ZM17.316-5.59q.13.117.383.371t.552.546q.3.293.54.553t.344.377l-.585.767q-.117-.195-.331-.494t-.475-.637q-.26-.338-.494-.624t-.39-.455Zm15.249-4.667h2.73v.923h-2.73Zm2.132,0h1.066a26.464,26.464,0,0,0,.39,2.8,12.132,12.132,0,0,0,.722,2.4,7.376,7.376,0,0,0,1.157,1.9A5.491,5.491,0,0,0,39.7-1.82a1.443,1.443,0,0,0-.26.2q-.143.13-.28.273t-.228.26a6.169,6.169,0,0,1-1.7-1.437A7.98,7.98,0,0,1,36.062-4.5a13.026,13.026,0,0,1-.741-2.444A26.748,26.748,0,0,1,34.9-9.789H34.7Zm.052,2.509,1,.156a12.94,12.94,0,0,1-1.384,3.835A8.271,8.271,0,0,1,31.98-1.092a1.945,1.945,0,0,0-.2-.227q-.137-.137-.292-.273t-.273-.228a6.714,6.714,0,0,0,2.295-2.418A11.61,11.61,0,0,0,34.749-7.748ZM30.706-5.785v4.6h-.949V-4.875h-1.82v-.91Zm0,4.173a2.822,2.822,0,0,0,1.3,1.066,5.525,5.525,0,0,0,1.963.39q.533.026,1.294.033t1.6-.006Q37.7-.143,38.48-.169t1.365-.065a1.513,1.513,0,0,0-.13.286q-.065.182-.117.37T39.52.754q-.533.026-1.261.039t-1.508.02q-.78.006-1.514,0T33.969.793A6.552,6.552,0,0,1,31.792.377,3.7,3.7,0,0,1,30.264-.767Q29.8-.351,29.3.072T28.275.936l-.507-1q.468-.312,1.007-.721t1.046-.826ZM28.08-10.023l.715-.585a9.5,9.5,0,0,1,.871.63q.442.358.813.721a6.106,6.106,0,0,1,.6.676l-.78.65a4.185,4.185,0,0,0-.566-.689q-.37-.377-.806-.748A10.5,10.5,0,0,0,28.08-10.023ZM44.369.169a4.267,4.267,0,0,1-1.306-.182,3.72,3.72,0,0,1-.994-.481,4.19,4.19,0,0,1-.741-.65l.611-.767a4.59,4.59,0,0,0,.982.76,2.668,2.668,0,0,0,1.371.332A2.253,2.253,0,0,0,45.3-1.033a1.638,1.638,0,0,0,.683-.611,1.746,1.746,0,0,0,.247-.942,1.792,1.792,0,0,0-.279-1,1.81,1.81,0,0,0-.93-.669,5.2,5.2,0,0,0-1.755-.24v-.91a4.118,4.118,0,0,0,1.56-.24,1.692,1.692,0,0,0,.826-.657,1.739,1.739,0,0,0,.253-.923,1.447,1.447,0,0,0-.429-1.1,1.643,1.643,0,0,0-1.183-.41,2.293,2.293,0,0,0-1.072.26,3.652,3.652,0,0,0-.9.663l-.637-.754a5.215,5.215,0,0,1,1.189-.812A3.254,3.254,0,0,1,44.33-9.7a3.511,3.511,0,0,1,1.437.28,2.261,2.261,0,0,1,.988.813,2.257,2.257,0,0,1,.357,1.287,2.2,2.2,0,0,1-.468,1.443,2.751,2.751,0,0,1-1.222.845v.065a2.829,2.829,0,0,1,1.014.455,2.449,2.449,0,0,1,.728.819,2.327,2.327,0,0,1,.273,1.144,2.524,2.524,0,0,1-.416,1.456,2.706,2.706,0,0,1-1.1.936A3.582,3.582,0,0,1,44.369.169Zm7.865,0a4.267,4.267,0,0,1-1.306-.182,3.72,3.72,0,0,1-.994-.481,4.19,4.19,0,0,1-.741-.65l.611-.767a4.59,4.59,0,0,0,.982.76,2.668,2.668,0,0,0,1.371.332,2.253,2.253,0,0,0,1.007-.214,1.638,1.638,0,0,0,.683-.611,1.746,1.746,0,0,0,.247-.942,1.792,1.792,0,0,0-.279-1,1.81,1.81,0,0,0-.93-.669,5.2,5.2,0,0,0-1.755-.24v-.91a4.118,4.118,0,0,0,1.56-.24,1.692,1.692,0,0,0,.826-.657,1.739,1.739,0,0,0,.253-.923,1.447,1.447,0,0,0-.429-1.1,1.643,1.643,0,0,0-1.183-.41,2.293,2.293,0,0,0-1.072.26,3.652,3.652,0,0,0-.9.663l-.637-.754a5.215,5.215,0,0,1,1.189-.812A3.254,3.254,0,0,1,52.195-9.7a3.511,3.511,0,0,1,1.437.28,2.261,2.261,0,0,1,.988.813,2.257,2.257,0,0,1,.357,1.287,2.2,2.2,0,0,1-.468,1.443,2.751,2.751,0,0,1-1.222.845v.065a2.829,2.829,0,0,1,1.014.455,2.449,2.449,0,0,1,.728.819A2.327,2.327,0,0,1,55.3-2.548a2.524,2.524,0,0,1-.416,1.456,2.706,2.706,0,0,1-1.1.936A3.582,3.582,0,0,1,52.234.169Zm5.421,2.3-.286-.7a2.391,2.391,0,0,0,.962-.741,1.667,1.667,0,0,0,.338-1.066l-.13-1.066.585.871a.751.751,0,0,1-.279.2.866.866,0,0,1-.319.058.914.914,0,0,1-.611-.221.759.759,0,0,1-.26-.611.751.751,0,0,1,.267-.611.957.957,0,0,1,.631-.221.855.855,0,0,1,.734.371,1.719,1.719,0,0,1,.267,1.02,2.7,2.7,0,0,1-.514,1.638A3.294,3.294,0,0,1,57.655,2.47Zm6.9-2.3a2.4,2.4,0,0,1-1.566-.546,3.463,3.463,0,0,1-1.034-1.651A8.972,8.972,0,0,1,61.594-4.8a8.782,8.782,0,0,1,.364-2.75,3.373,3.373,0,0,1,1.034-1.618A2.441,2.441,0,0,1,64.558-9.7a2.415,2.415,0,0,1,1.573.539A3.441,3.441,0,0,1,67.158-7.54,8.719,8.719,0,0,1,67.522-4.8a8.972,8.972,0,0,1-.364,2.769A3.489,3.489,0,0,1,66.131-.377,2.4,2.4,0,0,1,64.558.169Zm0-.962a1.3,1.3,0,0,0,.956-.416,2.851,2.851,0,0,0,.637-1.307A9.455,9.455,0,0,0,66.378-4.8a9.29,9.29,0,0,0-.228-2.269,2.79,2.79,0,0,0-.637-1.287,1.31,1.31,0,0,0-.956-.41,1.317,1.317,0,0,0-.949.41,2.751,2.751,0,0,0-.644,1.287A9.29,9.29,0,0,0,62.738-4.8a9.455,9.455,0,0,0,.228,2.281,2.81,2.81,0,0,0,.644,1.307A1.307,1.307,0,0,0,64.558-.793Zm7.865.962a2.4,2.4,0,0,1-1.566-.546,3.463,3.463,0,0,1-1.034-1.651A8.972,8.972,0,0,1,69.459-4.8a8.782,8.782,0,0,1,.364-2.75,3.373,3.373,0,0,1,1.034-1.618A2.441,2.441,0,0,1,72.423-9.7,2.415,2.415,0,0,1,74-9.159,3.441,3.441,0,0,1,75.023-7.54,8.719,8.719,0,0,1,75.387-4.8a8.972,8.972,0,0,1-.364,2.769A3.489,3.489,0,0,1,74-.377,2.4,2.4,0,0,1,72.423.169Zm0-.962a1.3,1.3,0,0,0,.955-.416,2.85,2.85,0,0,0,.637-1.307A9.455,9.455,0,0,0,74.243-4.8a9.29,9.29,0,0,0-.228-2.269,2.79,2.79,0,0,0-.637-1.287,1.31,1.31,0,0,0-.955-.41,1.317,1.317,0,0,0-.949.41,2.751,2.751,0,0,0-.644,1.287A9.29,9.29,0,0,0,70.6-4.8a9.455,9.455,0,0,0,.228,2.281,2.81,2.81,0,0,0,.644,1.307A1.307,1.307,0,0,0,72.423-.793Zm7.865.962a2.4,2.4,0,0,1-1.566-.546,3.463,3.463,0,0,1-1.034-1.651A8.972,8.972,0,0,1,77.324-4.8a8.782,8.782,0,0,1,.364-2.75,3.373,3.373,0,0,1,1.034-1.618A2.441,2.441,0,0,1,80.288-9.7a2.415,2.415,0,0,1,1.573.539A3.441,3.441,0,0,1,82.888-7.54,8.719,8.719,0,0,1,83.252-4.8a8.972,8.972,0,0,1-.364,2.769A3.489,3.489,0,0,1,81.861-.377,2.4,2.4,0,0,1,80.288.169Zm0-.962a1.3,1.3,0,0,0,.955-.416,2.85,2.85,0,0,0,.637-1.307A9.455,9.455,0,0,0,82.108-4.8a9.29,9.29,0,0,0-.228-2.269,2.79,2.79,0,0,0-.637-1.287,1.31,1.31,0,0,0-.955-.41,1.317,1.317,0,0,0-.949.41A2.751,2.751,0,0,0,78.7-7.066,9.29,9.29,0,0,0,78.468-4.8,9.455,9.455,0,0,0,78.7-2.516a2.81,2.81,0,0,0,.644,1.307A1.307,1.307,0,0,0,80.288-.793Zm5.421-9.243H95.9v.962H86.7V1.053h-.988Zm9.75,0h.988V-.26a1.614,1.614,0,0,1-.13.722.883.883,0,0,1-.468.4,3.146,3.146,0,0,1-.89.143q-.565.026-1.45.026a1.358,1.358,0,0,0-.078-.312q-.065-.182-.136-.357a2.236,2.236,0,0,0-.149-.305q.442.013.852.013h1.137a.4.4,0,0,0,.254-.084.332.332,0,0,0,.071-.24Zm-9.2,4.8h9.672v.962H86.255Zm4.264-4.316h.975v4.8h-.975ZM102.154-4.94a8.576,8.576,0,0,1-.319,2.372,8.22,8.22,0,0,1-.9,2.061,10.256,10.256,0,0,1-1.365,1.755l-.78-.4a9.918,9.918,0,0,0,1.287-1.677,7.782,7.782,0,0,0,.839-1.924,7.939,7.939,0,0,0,.292-2.184,7.918,7.918,0,0,0-.292-2.19,7.925,7.925,0,0,0-.839-1.924,9.381,9.381,0,0,0-1.287-1.67l.78-.4a9.729,9.729,0,0,1,1.365,1.749,8.36,8.36,0,0,1,.9,2.06A8.556,8.556,0,0,1,102.154-4.94Z" transform="translate(-2 72.964)" fill="#2e2624"/></g><path d="M40,0h1.357a40,40,0,0,1,40,40v1.357a40,40,0,0,1-40,40H40a40,40,0,0,1-40-40V40A40,40,0,0,1,40,0Z" transform="translate(40.098)" fill="#2e2624"/><path d="M7.04-10.96a12.644,12.644,0,0,1-.528,3.232A11.845,11.845,0,0,1,3.776-2.992,12.639,12.639,0,0,1,.56-.48,4.488,4.488,0,0,1,1.872,1.2,15.984,15.984,0,0,0,5.84-2.416,13.422,13.422,0,0,0,8.128-7.248a10.342,10.342,0,0,0,.816,2.272,12.185,12.185,0,0,0,1.408,2.368,16.123,16.123,0,0,0,3.888,3.76A6.79,6.79,0,0,1,15.6-.656a11.45,11.45,0,0,1-2.368-1.728,12.944,12.944,0,0,1-2.56-3.072A12.388,12.388,0,0,1,8.96-11.792,7.55,7.55,0,0,1,9.008-12.8a8.718,8.718,0,0,1-1.456.08H5.008a9.742,9.742,0,0,1-1.5-.08v1.92c.624-.048,1.1-.08,1.536-.08ZM23.184-3.088V-.72c0,.32-.112.368-.816.368a14.564,14.564,0,0,1-1.984-.16,6.071,6.071,0,0,1,.528,1.7c.832.048,1.36.064,1.568.064,1.44,0,1.984-.128,2.256-.528a1.545,1.545,0,0,0,.208-1.008v-2.8H29.1a15.806,15.806,0,0,1,1.984.1V-4.768a13.179,13.179,0,0,1-1.968.112H24.944v-.016a22.4,22.4,0,0,0,3.2-2.336c.3-.256.3-.256.576-.48l-.88-.976a7.231,7.231,0,0,1-1.216.064h-5.3a11.668,11.668,0,0,1-1.616-.08v1.6a15.851,15.851,0,0,1,1.6-.064h4.4a8.473,8.473,0,0,1-1.888,1.3h-.688a7.485,7.485,0,0,1,.048.88v.112H18.832A13.577,13.577,0,0,1,16.9-4.768v1.776a15.588,15.588,0,0,1,1.952-.1Zm-4.272-7.9a15.388,15.388,0,0,1-1.888-.064,10.516,10.516,0,0,1,.064,1.328v1.472a7.015,7.015,0,0,1-.08,1.232h1.744V-9.5H29.184v2.48h1.744a9.7,9.7,0,0,1-.08-1.216V-9.728a10.042,10.042,0,0,1,.064-1.328,19.259,19.259,0,0,1-1.968.064h-.72a16.763,16.763,0,0,0,1.2-1.92l-1.728-.48a10.6,10.6,0,0,1-1.312,2.4h-1.36a12.66,12.66,0,0,0-1.1-2.48l-1.664.464a9.358,9.358,0,0,1,.976,2.016h-1.7A11.8,11.8,0,0,0,20.08-13.28l-1.616.48a9.269,9.269,0,0,1,1.2,1.808Zm20.1,3.44V-6H35.232a11.809,11.809,0,0,1-1.744-.1V-4.32a13.145,13.145,0,0,1,1.728-.1h3.792V-.832H34.992a17.289,17.289,0,0,1-1.984-.1V.912A15.775,15.775,0,0,1,34.992.8H45.1a14.758,14.758,0,0,1,1.92.112V-.928a14.989,14.989,0,0,1-1.888.1H40.784V-4.416h4.032a12.677,12.677,0,0,1,1.76.1V-6.1a11.371,11.371,0,0,1-1.744.1H40.784V-7.552h1.632a10.936,10.936,0,0,1,1.568.08v-.816a16.313,16.313,0,0,0,2.8,1.408,8.167,8.167,0,0,1,.864-1.76,13.253,13.253,0,0,1-4.24-2.16,9.464,9.464,0,0,1-2.464-2.464H38.96a12.345,12.345,0,0,1-6.528,4.688,7.109,7.109,0,0,1,.928,1.648A17.266,17.266,0,0,0,35.968-8.24v.768a11.211,11.211,0,0,1,1.568-.08Zm-1.856-1.5a11.288,11.288,0,0,0,2.8-2.688,12.623,12.623,0,0,0,2.88,2.688c-.24.016-.24.016-.384.016l-4.96-.016ZM34.816-3.632A11.652,11.652,0,0,1,36.08-.976l1.6-.64A18.543,18.543,0,0,0,36.4-4.272Zm8.624-.624A13.369,13.369,0,0,1,42.176-1.5l1.5.56c.544-.928.608-1.04.656-1.136.592-1.168.592-1.168.8-1.536Z" transform="translate(56.369 46.543)" fill="#fff"/><g transform="translate(0 25.569)"><path d="M11.622,0A11.622,11.622,0,1,1,0,11.622,11.622,11.622,0,0,1,11.622,0Z" fill="#2e2624"/><path d="M4.24-1.728H6.512V-4.752H9.568V-6.96H6.512V-9.984H4.24V-6.96H1.2v2.208H4.24Z" transform="translate(5.811 17.327)" fill="#fff"/></g></g><path d="M5.5-6.49a.8.8,0,0,1-.583-.242.8.8,0,0,1-.242-.583A.8.8,0,0,1,4.917-7.9.8.8,0,0,1,5.5-8.14a.8.8,0,0,1,.583.242.8.8,0,0,1,.242.583.8.8,0,0,1-.242.583A.8.8,0,0,1,5.5-6.49ZM5.5-4.5l3.63-3.63.319.319L5.819-4.18,9.449-.55,9.13-.231,5.5-3.861,1.859-.22,1.54-.539,5.181-4.18,1.551-7.81l.319-.319ZM3.19-4.18a.8.8,0,0,1-.242.583.8.8,0,0,1-.583.242A.8.8,0,0,1,1.782-3.6.8.8,0,0,1,1.54-4.18a.8.8,0,0,1,.242-.583.8.8,0,0,1,.583-.242.8.8,0,0,1,.583.242A.8.8,0,0,1,3.19-4.18Zm4.62,0a.8.8,0,0,1,.242-.583.8.8,0,0,1,.583-.242.8.8,0,0,1,.583.242.8.8,0,0,1,.242.583.8.8,0,0,1-.242.583.8.8,0,0,1-.583.242A.8.8,0,0,1,8.052-3.6.8.8,0,0,1,7.81-4.18ZM5.5-1.87a.8.8,0,0,1,.583.242.8.8,0,0,1,.242.583.8.8,0,0,1-.242.583A.8.8,0,0,1,5.5-.22a.8.8,0,0,1-.583-.242.8.8,0,0,1-.242-.583.8.8,0,0,1,.242-.583A.8.8,0,0,1,5.5-1.87Z" transform="translate(1048.182 1183.949)" fill="#2e2624"/></g></svg>