<svg xmlns="http://www.w3.org/2000/svg" width="325" height="90.469" viewBox="0 0 325 90.469"><g transform="translate(-25 -903)"><text transform="translate(25 922)" fill="#2e2624" font-size="16" font-family="NotoSansJP-Bold, Noto Sans JP" font-weight="700"><tspan x="0" y="0">費用</tspan></text><rect width="140" height="29" rx="14.5" transform="translate(77 903)" fill="#2e2624"/><text transform="translate(125 923)" fill="#fff" font-size="14" font-family="HiraginoSans-W6, Hiragino Sans"><tspan x="0" y="0">授業料</tspan></text><g transform="translate(45.659 -2434.006)"><rect width="103.341" height="29" rx="14.5" transform="translate(199 3337.006)" fill="#2e2624"/><text transform="translate(230 3357)" fill="#fff" font-size="14" font-family="HiraginoSans-W6, Hiragino Sans"><tspan x="0" y="0">入学金</tspan></text></g><g transform="translate(89 947.773)"><text transform="translate(-9 23.837)" fill="#2e2624" font-size="40" font-family="GothamSSm-Bold, Gotham SSm" font-weight="700"><tspan x="0" y="0">29.8</tspan></text><text transform="translate(87.5 22.837)" fill="#2e2624" font-size="17" font-family="NotoSansJP-Bold, Noto Sans JP" font-weight="700" letter-spacing="0.05em"><tspan x="0" y="0">万円</tspan></text></g><text transform="translate(91 990.469)" fill="#2e2624" font-size="12" font-family="NotoSansJP-Regular, Noto Sans JP" letter-spacing="0.05em"><tspan x="0" y="0">（税込327,800円）</tspan></text><g transform="translate(243 935.469)"><g transform="translate(20)"><text transform="translate(2 36.142)" fill="#2e2624" font-size="40" font-family="GothamSSm-Bold, Gotham SSm" font-weight="700"><tspan x="0" y="0">3</tspan></text><text transform="translate(29.5 35.142)" fill="#2e2624" font-size="17" font-family="NotoSansJP-Bold, Noto Sans JP" font-weight="700" letter-spacing="0.05em"><tspan x="0" y="0">万円</tspan></text></g><text transform="translate(4 54.784)" fill="#2e2624" font-size="12" font-family="NotoSansJP-Regular, Noto Sans JP" letter-spacing="0.05em"><tspan x="0" y="0">（税込33,000円）</tspan></text></g><g transform="translate(0 -7)"><circle cx="10" cy="10" r="10" transform="translate(224 955.469)" fill="#2e2624"/><text transform="translate(230 970.471)" fill="#fff" font-size="14" font-family="GothamSSm-Bold, Gotham SSm" font-weight="700"><tspan x="0" y="0">+</tspan></text></g><text transform="translate(177 951.725)" fill="#2e2624" font-size="10" font-family="NotoSansJP-Regular, Noto Sans JP"><tspan x="0" y="0">※</tspan></text></g></svg>