<svg xmlns="http://www.w3.org/2000/svg" width="63.94" height="15.04"><path d="M0 14.8h3.06V9.1h7.04V6.3H3.06V3.04h7.96V.24H0Zm13.8 0h10.4V12h-7.34V.24H13.8Zm19.26.24a7.525 7.525 0 0 0 7.74-7.52v-.04A7.446 7.446 0 0 0 33.1 0a7.525 7.525 0 0 0-7.74 7.52v.04a7.446 7.446 0 0 0 7.7 7.48Zm.04-2.82a4.544 4.544 0 0 1-4.52-4.7v-.04a4.477 4.477 0 0 1 4.48-4.66 4.544 4.544 0 0 1 4.52 4.7v.04a4.477 4.477 0 0 1-4.48 4.66Zm13.82 2.68h2.68l3.34-9.7 3.34 9.7h2.68L63.94.24h-3.22l-3.1 10.04L54.3.2h-2.64l-3.32 10.08L45.22.24h-3.3Z" fill="#e84830"/></svg>