<svg xmlns="http://www.w3.org/2000/svg" width="86.12" height="29.32"><path d="m30.16 24.96-2.88-2.44a14.364 14.364 0 0 0 2.48-8.04v-.08c0-7.96-6.2-14.4-14.84-14.4S0 6.52 0 14.48v.08c0 7.96 6.2 14.4 14.84 14.4a15.26 15.26 0 0 0 8.32-2.4l3.08 2.76Zm-15.24-1.68a8.507 8.507 0 0 1-8.48-8.8v-.08a8.374 8.374 0 0 1 8.4-8.72 8.507 8.507 0 0 1 8.48 8.8v.08a9.812 9.812 0 0 1-.76 3.84l-4.6-4.16-3.92 4.4 4.56 3.88a8.414 8.414 0 0 1-3.68.76ZM39 28.48h6.08V.28h-4.2l-8.04 2.4 1.28 5.04L39 6.52Zm24.32.48c7.48 0 12.48-6.36 12.48-14.48v-.08c0-8.12-5-14.4-12.4-14.4-7.44 0-12.48 6.36-12.48 14.48v.08c0 8.12 4.92 14.4 12.4 14.4Zm.08-5.56c-3.72 0-6.16-3.8-6.16-8.92v-.08c0-5.12 2.4-8.84 6.08-8.84s6.16 3.84 6.16 8.92v.08c0 5.08-2.36 8.84-6.08 8.84Zm16.24 5.08h6.48v-6.4h-6.48Z" fill="#333"/></svg>