<svg xmlns="http://www.w3.org/2000/svg" width="66.04" height="29.32"><path d="m30.16 24.96-2.88-2.44a14.364 14.364 0 0 0 2.48-8.04v-.08c0-7.96-6.2-14.4-14.84-14.4S0 6.52 0 14.48v.08c0 7.96 6.2 14.4 14.84 14.4a15.26 15.26 0 0 0 8.32-2.4l3.08 2.76Zm-15.24-1.68a8.507 8.507 0 0 1-8.48-8.8v-.08a8.374 8.374 0 0 1 8.4-8.72 8.507 8.507 0 0 1 8.48 8.8v.08a9.812 9.812 0 0 1-.76 3.84l-4.6-4.16-3.92 4.4 4.56 3.88a8.414 8.414 0 0 1-3.68.76Zm29.16 5.68c6.44 0 10.64-3.76 10.64-9.68v-.08c0-6.32-4.36-8.96-9.8-8.96a13.7 13.7 0 0 0-3.68.48l.32-4.84h11.92V.48h-17.2l-.8 13.8 3.56 2.36a12.025 12.025 0 0 1 4.68-1.04c2.92 0 4.96 1.4 4.96 3.8v.08c0 2.48-1.8 3.88-4.68 3.88-2.48 0-4.56-1.12-6.68-3.04l-3.72 4.44a14.4 14.4 0 0 0 10.48 4.2Zm15.48-.48h6.48v-6.4h-6.48Z" fill="#333"/></svg>