<svg xmlns="http://www.w3.org/2000/svg" width="174.672" height="14.863"><path d="M5.968 12.336a5.993 5.993 0 0 0 4.768-2.064L9.168 8.688a4.271 4.271 0 0 1-3.12 1.392 3.559 3.559 0 0 1-3.472-3.76v-.032A3.551 3.551 0 0 1 6.048 2.56a4.361 4.361 0 0 1 3.04 1.344l1.568-1.808A6 6 0 0 0 6.064.304 5.911 5.911 0 0 0 0 6.32v.032a5.872 5.872 0 0 0 5.968 5.984Zm10.88 0a4.652 4.652 0 0 0 4.816-4.624V7.68a4.614 4.614 0 0 0-4.768-4.592 4.662 4.662 0 0 0-4.816 4.624v.032a4.6 4.6 0 0 0 4.768 4.592Zm.048-2.08a2.443 2.443 0 0 1-2.416-2.544V7.68a2.345 2.345 0 0 1 2.368-2.5 2.429 2.429 0 0 1 2.416 2.528v.036a2.358 2.358 0 0 1-2.368 2.512Zm6.768 4.544h2.432v-3.856a3.468 3.468 0 0 0 2.82 1.376c2.112 0 4.064-1.648 4.064-4.608V7.68c0-2.96-1.984-4.592-4.064-4.592a3.329 3.329 0 0 0-2.82 1.488V3.244h-2.432Zm4.64-4.56a2.335 2.335 0 0 1-2.24-2.528V7.68a2.335 2.335 0 0 1 2.24-2.528 2.335 2.335 0 0 1 2.24 2.528v.032a2.316 2.316 0 0 1-2.24 2.532Zm10.192-.832-2.112-6.164h-2.576l3.536 8.932a.932.932 0 0 1-.96.656 2.391 2.391 0 0 1-1.1-.336l-.816 1.76a4.205 4.205 0 0 0 2.208.608c1.5 0 2.24-.688 2.928-2.5l3.44-9.12h-2.528Zm6.208 2.736h2.432V8.832c0-2.16 1.072-3.2 2.768-3.2h.128V3.088a2.833 2.833 0 0 0-2.9 2V3.244H44.7Zm7.12-9.952h2.56V.016h-2.56Zm.08 9.952h2.412v-8.9H51.9Zm8.96 2.688a5.188 5.188 0 0 0 3.792-1.188 4.722 4.722 0 0 0 1.136-3.472V3.244H63.36v1.2a3.635 3.635 0 0 0-2.912-1.36 3.93 3.93 0 0 0-3.968 4.144v.032a3.926 3.926 0 0 0 3.968 4.164 3.535 3.535 0 0 0 2.944-1.488v.48c0 1.632-.848 2.48-2.592 2.48a5.845 5.845 0 0 1-3.04-.832l-.832 1.824a8.318 8.318 0 0 0 3.936.944Zm.272-5.424a2.106 2.106 0 0 1-2.22-2.144v-.032a2.1 2.1 0 0 1 2.22-2.128 2.129 2.129 0 0 1 2.256 2.128v.032a2.142 2.142 0 0 1-2.256 2.144Zm7.088 2.736h2.432V7.168c0-1.232.656-1.888 1.664-1.888s1.6.656 1.6 1.888v4.976h2.432V6.4c0-2.048-1.136-3.312-3.056-3.312a3.176 3.176 0 0 0-2.64 1.44V0h-2.432Zm13.492.144a3.7 3.7 0 0 0 1.952-.5V9.844a2.665 2.665 0 0 1-1.252.3c-.592 0-.864-.288-.864-.912v-3.9h2.144V3.244h-2.144v-2.3h-2.436v2.3h-1.068v2.08h1.068v4.3c0 2.056 1.06 2.664 2.6 2.664Zm9.4-.144h2.4V4.432l3.328 5.04h.072l3.36-5.088v7.76h2.44V.496h-2.64l-3.16 5.04-3.152-5.04h-2.648Zm14.58 0h8.832V9.952h-6.4V7.376h5.568V5.184h-5.568v-2.5h6.32V.492h-8.752Zm11.28 0h2.448V8.352h2.128l2.576 3.792h2.88l-2.912-4.208a3.591 3.591 0 0 0 2.544-3.6v-.032a3.615 3.615 0 0 0-.976-2.624 4.644 4.644 0 0 0-3.392-1.184h-5.3Zm2.448-5.968V2.72h2.64c1.3 0 2.1.592 2.1 1.712v.032c0 1.024-.768 1.712-2.048 1.712Zm15.152 6.16a5.993 5.993 0 0 0 4.768-2.064l-1.568-1.584a4.271 4.271 0 0 1-3.12 1.392 3.559 3.559 0 0 1-3.472-3.76v-.032a3.551 3.551 0 0 1 3.472-3.728 4.361 4.361 0 0 1 3.04 1.344l1.568-1.808a6 6 0 0 0-4.592-1.792 5.911 5.911 0 0 0-6.064 6.016v.032a5.872 5.872 0 0 0 5.968 5.984Zm12.208-.192h2.464V.496h-2.464Zm5.28 0h2.432V7.168c0-1.232.656-1.888 1.664-1.888s1.6.656 1.6 1.888v4.976h2.432V6.4c0-2.048-1.136-3.312-3.056-3.312a3.176 3.176 0 0 0-2.64 1.44V3.244h-2.432Zm14.672.192a4.461 4.461 0 0 0 3.632-1.632l-1.424-1.424a2.912 2.912 0 0 1-2.1.976 2.362 2.362 0 0 1-2.328-2.544V7.68a2.341 2.341 0 0 1 2.24-2.5 2.665 2.665 0 0 1 2.06 1.012l1.5-1.6a4.4 4.4 0 0 0-3.552-1.5 4.563 4.563 0 0 0-4.648 4.62v.032a4.53 4.53 0 0 0 4.62 4.592Zm5.344-.192h2.592V9.552h-2.592Z" fill="#fff"/></svg>