<svg xmlns="http://www.w3.org/2000/svg" width="12.32" height="101.008"><path d="M.192.004v2.464H11.84V.004Zm0 5.28v2.432h4.976c1.232 0 1.888.656 1.888 1.664s-.656 1.6-1.888 1.6H.192v2.424h5.744c2.048 0 3.312-1.136 3.312-3.056a3.176 3.176 0 0 0-1.44-2.64h1.284V5.276ZM.048 18.772a3.7 3.7 0 0 0 .5 1.952h1.944a2.665 2.665 0 0 1-.3-1.248c0-.592.288-.864.912-.864h3.9v2.144h2.088v-2.152h2.3v-2.432h-2.3v-1.068h-2.08v1.072h-4.3c-2.056 0-2.664 1.056-2.664 2.592ZM0 26.74a4.444 4.444 0 0 0 1.648 3.632L2.88 28.98a2.965 2.965 0 0 1-.928-2.208 2.119 2.119 0 0 1 1.84-2.24v6.256c.224.016.448.032.64.032 2.528 0 4.816-1.376 4.816-4.32a4.417 4.417 0 0 0-4.624-4.384h-.032A4.436 4.436 0 0 0 0 26.736Zm5.312-2.24a2.058 2.058 0 0 1 1.984 2 2 2 0 0 1-1.984 1.948Zm-5.12 8.348v2.432h3.312c2.16 0 3.2 1.072 3.2 2.768v.128h2.544a2.833 2.833 0 0 0-2-2.9h1.844v-2.432Zm-.064 9.808v2.192l8.964 3.536v-2.528l-6.08-2.1 6.08-2.06V39.12Zm10.016 7.408v2.56h2.176v-2.56Zm-9.952.08v2.416h8.9v-2.416ZM0 59.312a4.444 4.444 0 0 0 1.648 3.632l1.232-1.392a2.965 2.965 0 0 1-.928-2.208 2.119 2.119 0 0 1 1.84-2.24v6.256c.224.016.448.032.64.032 2.528 0 4.816-1.376 4.816-4.32a4.417 4.417 0 0 0-4.624-4.384h-.032A4.436 4.436 0 0 0 0 59.312Zm5.312-2.24a2.058 2.058 0 0 1 1.984 2 2 2 0 0 1-1.984 1.952ZM.128 67.056v2.176l5.584 1.792-5.584 1.76v2.192l8.96 2.8V75.36l-5.552-1.536L9.12 72.08v-2.076l-5.568-1.748 5.54-1.488v-2.464ZM0 89.488c0 3.1 2.656 5.168 6.016 5.168h.032c3.376 0 5.984-2.064 5.984-5.136 0-3.088-2.656-5.168-6.016-5.168h-.032C2.608 84.352 0 86.384 0 89.488Zm2.208.032c0-1.6 1.648-2.64 3.808-2.64h.032c2.16 0 3.776 1.024 3.776 2.608s-1.664 2.64-3.808 2.64h-.032c-2.144 0-3.776-1.008-3.776-2.608ZM.192 98.576v2.428H11.92v-1.68l-.992-3.312-2.016.512.512 2.048Z" fill="#333"/></svg>