<svg xmlns="http://www.w3.org/2000/svg" width="42.88" height="15.24"><path d="M0 14.8h3.06V9.1h7.04V6.3H3.06V3.04h7.96V.24H0Zm10.94 0h3.14l1.36-3.32h6.3l1.36 3.32h3.22L20.06.14h-2.84Zm5.6-6.04 2.06-4.94 2.04 4.94Zm26.34 4.3-1.52-1.3a7.447 7.447 0 0 0 1.32-4.24v-.04A7.446 7.446 0 0 0 34.98 0a7.525 7.525 0 0 0-7.74 7.52v.04a7.446 7.446 0 0 0 7.7 7.48 7.861 7.861 0 0 0 4.34-1.28l1.64 1.48Zm-7.9-.84a4.544 4.544 0 0 1-4.52-4.7v-.04a4.477 4.477 0 0 1 4.48-4.66 4.544 4.544 0 0 1 4.52 4.7v.04A5.1 5.1 0 0 1 39 9.72l-2.42-2.2-1.96 2.2 2.4 2.06a4.774 4.774 0 0 1-2.04.44Z" fill="#e84830"/></svg>