<svg xmlns="http://www.w3.org/2000/svg" width="67.32" height="29.32"><path d="m30.16 24.96-2.88-2.44a14.364 14.364 0 0 0 2.48-8.04v-.08c0-7.96-6.2-14.4-14.84-14.4S0 6.52 0 14.48v.08c0 7.96 6.2 14.4 14.84 14.4a15.26 15.26 0 0 0 8.32-2.4l3.08 2.76Zm-15.24-1.68a8.507 8.507 0 0 1-8.48-8.8v-.08a8.374 8.374 0 0 1 8.4-8.72 8.507 8.507 0 0 1 8.48 8.8v.08a9.812 9.812 0 0 1-.76 3.84l-4.6-4.16-3.92 4.4 4.56 3.88a8.414 8.414 0 0 1-3.68.76Zm30.52 5.68c6.08 0 10.68-3.96 10.68-9.68v-.08c0-5.84-4.28-8.92-9.84-8.92a9.8 9.8 0 0 0-5.8 1.8c.2-2.44 1.44-6.48 5.64-6.48a8.625 8.625 0 0 1 5.72 2.24l3.24-4.76A12.97 12.97 0 0 0 46.32 0c-8.36 0-12.28 6.64-12.28 15.28v.08c0 5.56 1.28 8.56 3.32 10.6 1.96 1.96 4.44 3 8.08 3Zm-.24-5.28c-3.04 0-4.88-1.8-4.88-4.16v-.08c0-2.36 1.76-4.04 4.8-4.04S50 17.12 50 19.48v.08c0 2.4-1.76 4.12-4.8 4.12Zm15.64 4.8h6.48v-6.4h-6.48Z" fill="#333"/></svg>