<svg data-name="icon_ about" xmlns="http://www.w3.org/2000/svg" width="67.866" height="45"><defs><clipPath id="a"><path data-name="長方形 4337" fill="#e84830" d="M0 0h67.866v45H0z"/></clipPath></defs><g data-name="グループ 6920"><g data-name="グループ 6919" clip-path="url(#a)" fill="#e84830"><path data-name="パス 13797" d="M40.645 40.33a15.946 15.946 0 1 0 22.551-22.552 15.81 15.81 0 0 0-4.092-2.877l4.294-14.9h-4.974L40.645 17.778a15.947 15.947 0 0 0 0 22.552"/><path data-name="パス 13798" d="M4.67 40.33a15.946 15.946 0 1 0 22.551-22.552 15.771 15.771 0 0 0-4.092-2.877l4.295-14.9h-4.975L4.67 17.778a15.947 15.947 0 0 0 0 22.552"/></g></g></svg>