<svg xmlns="http://www.w3.org/2000/svg" width="106.718" height="27.071"><g fill="#333"><path data-name="パス 13935" d="M71.978 27.071c6.984 0 11.628-5.976 11.628-13.532v-.072c0-7.6-4.644-13.464-11.556-13.464-6.948-.004-11.624 5.972-11.624 13.536v.072c0 7.592 4.568 13.46 11.552 13.46Zm.072-4.968c-3.6 0-5.94-3.708-5.94-8.568v-.072c0-4.86 2.3-8.5 5.868-8.5s5.94 3.744 5.94 8.568v.072c0 4.828-2.268 8.5-5.868 8.5Zm15.376 4.536h19.3v-4.788H95.09l4.5-3.528c4.644-3.636 6.876-5.832 6.876-10.152v-.072c0-4.86-3.6-8.028-8.964-8.028-4.68 0-7.164 1.908-9.72 5.436l3.888 3.1c1.944-2.412 3.384-3.6 5.472-3.6a3.373 3.373 0 0 1 3.672 3.564c0 2.2-1.3 3.672-4.608 6.444l-8.78 7.232Z"/><path data-name="パス 13934" d="M5.544 21.819c2.808 0 4.788-1.458 4.788-4.032v-.036c0-2.25-1.494-3.222-4.176-3.906-2.3-.594-2.88-.9-2.88-1.8v-.036c0-.666.612-1.224 1.764-1.224a6.008 6.008 0 0 1 3.438 1.314l1.458-2.088a7.545 7.545 0 0 0-4.842-1.656c-2.668 0-4.568 1.566-4.568 3.906v.036c0 2.574 1.674 3.33 4.356 4 2.232.558 2.7.954 2.7 1.728v.036c0 .81-.756 1.332-1.98 1.332a6.03 6.03 0 0 1-3.96-1.62L0 19.731a8.253 8.253 0 0 0 5.544 2.088Zm10.296-.18h2.772V11.091h4.014V8.539H11.808v2.556h4.032Zm9.18 0h9.936v-2.466h-7.2v-2.9h6.264v-2.464h-6.264v-2.808h7.11V8.539H25.02Zm12.69 0h2.754v-4h2.286c2.916 0 5.276-1.544 5.276-4.568v-.032c0-2.664-1.89-4.5-5-4.5h-5.31Zm2.754-6.462v-4.138h2.322c1.494 0 2.448.72 2.448 2.052v.036a2.121 2.121 0 0 1-2.394 2.052Z"/></g></svg>