<svg xmlns="http://www.w3.org/2000/svg" width="357.939" height="40"><defs><clipPath id="a"><path data-name="長方形 4229" fill="none" d="M0 0h357.939v40H0z"/></clipPath></defs><g data-name="グループ 6770"><path data-name="パス 13593" d="M81.2 33.058V16.65l-7.076 10.735h-.142l-7-10.628v16.3h-5.458V7.927h5.959l6.606 10.625 6.6-10.625h5.961v25.131Z" fill="#2e2624"/><path data-name="パス 13594" d="M92.685 33.058V7.927h18.921v4.918H98.143v5.1h11.848v4.919H98.143v5.278h13.643v4.919Z" fill="#2e2624"/><g data-name="グループ 6769"><g data-name="グループ 6768" clip-path="url(#a)"><path data-name="パス 13595" d="m132 33.058-5.385-8.043h-4.344v8.043h-5.531V7.927h11.49a10.232 10.232 0 0 1 6.981 2.19 7.69 7.69 0 0 1 2.5 6.1v.072a7.879 7.879 0 0 1-1.491 4.972 8.626 8.626 0 0 1-3.894 2.818l6.138 8.976Zm.108-16.551a3.2 3.2 0 0 0-1.149-2.693 5.073 5.073 0 0 0-3.195-.9h-5.493v7.215h5.6a4.585 4.585 0 0 0 3.141-.969 3.285 3.285 0 0 0 1.095-2.585Z" fill="#2e2624"/><path data-name="パス 13596" d="M162.766 30.868a11.973 11.973 0 0 1-2.28 1.418 11.747 11.747 0 0 1-2.71.9 16.373 16.373 0 0 1-3.3.305 13.014 13.014 0 0 1-5.135-1 12.38 12.38 0 0 1-6.785-6.858 13.253 13.253 0 0 1-.969-5.061v-.071a13.064 13.064 0 0 1 3.661-9.175 12.535 12.535 0 0 1 4.13-2.8 13.435 13.435 0 0 1 5.31-1.026 16.761 16.761 0 0 1 3.214.286 13.587 13.587 0 0 1 2.639.79 11.6 11.6 0 0 1 2.189 1.221 14.9 14.9 0 0 1 1.866 1.579l-3.518 4.058a13.3 13.3 0 0 0-3-2.083 7.649 7.649 0 0 0-3.429-.754 6.975 6.975 0 0 0-5.242 2.3 7.89 7.89 0 0 0-1.507 2.495 8.46 8.46 0 0 0-.539 3.034v.073a8.586 8.586 0 0 0 .539 3.05 7.987 7.987 0 0 0 1.49 2.514 6.906 6.906 0 0 0 5.259 2.333 7.7 7.7 0 0 0 3.645-.79 14.124 14.124 0 0 0 2.961-2.153L164.776 29a18.2 18.2 0 0 1-2.01 1.868" fill="#2e2624"/><path data-name="パス 13597" d="M185.5 33.058V7.927h17.88v1.687h-16.009v9.945h14.395v1.686h-14.395V31.37h16.19v1.688Z" fill="#2e2624"/><path data-name="パス 13598" d="M224.421 33.059v-4.093a16.9 16.9 0 0 1-1.346 1.723 8.391 8.391 0 0 1-3.7 2.423 7.883 7.883 0 0 1-2.495.377 8.57 8.57 0 0 1-3.249-.647 8.788 8.788 0 0 1-2.853-1.866 9.218 9.218 0 0 1-2.029-3 9.915 9.915 0 0 1-.773-4V23.9a9.933 9.933 0 0 1 .773-4 9.432 9.432 0 0 1 2.029-3.015 8.893 8.893 0 0 1 2.853-1.9 8.567 8.567 0 0 1 5.762-.3 7.988 7.988 0 0 1 2.064.968 9.362 9.362 0 0 1 1.652 1.4 13.14 13.14 0 0 1 1.31 1.653V6.85h1.759v26.209Zm.108-9.192a8 8 0 0 0-.63-3.213 7.605 7.605 0 0 0-4.067-4.075 7.068 7.068 0 0 0-2.788-.579 7.379 7.379 0 0 0-2.826.538 6.639 6.639 0 0 0-2.286 1.545 7.183 7.183 0 0 0-1.529 2.459 9.131 9.131 0 0 0-.558 3.284v.074a8.9 8.9 0 0 0 .576 3.268 7.419 7.419 0 0 0 1.566 2.494 7.014 7.014 0 0 0 5.057 2.136 7.068 7.068 0 0 0 2.788-.574 7.542 7.542 0 0 0 2.394-1.616 7.954 7.954 0 0 0 1.673-2.478 7.86 7.86 0 0 0 .63-3.195Z" fill="#2e2624"/><path data-name="パス 13599" d="M246.429 33.058v-3.411a8.533 8.533 0 0 1-2.513 2.728 6.961 6.961 0 0 1-4.092 1.113 8.11 8.11 0 0 1-3.088-.556 6.446 6.446 0 0 1-3.751-3.949 9.1 9.1 0 0 1-.485-3.034v-11.2h1.758v10.876a6.607 6.607 0 0 0 1.508 4.542 5.443 5.443 0 0 0 4.308 1.706 6.426 6.426 0 0 0 2.5-.485 6.25 6.25 0 0 0 2.029-1.346 6.125 6.125 0 0 0 1.346-2.065 7 7 0 0 0 .484-2.639V14.747h1.76v18.311Z" fill="#2e2624"/><path data-name="パス 13600" d="M267.2 32.448a8.36 8.36 0 0 1-4.291 1.04 8.821 8.821 0 0 1-3.679-.771 9.548 9.548 0 0 1-2.958-2.064 9.412 9.412 0 0 1-1.958-3.016 9.574 9.574 0 0 1-.7-3.662V23.9a9.583 9.583 0 0 1 .7-3.663 9.8 9.8 0 0 1 1.958-3.05 9.248 9.248 0 0 1 2.958-2.1 8.807 8.807 0 0 1 3.679-.772 9.272 9.272 0 0 1 2.351.276 8.959 8.959 0 0 1 1.956.75 9.622 9.622 0 0 1 1.634 1.09 16.525 16.525 0 0 1 1.383 1.294l-1.257 1.293a14.025 14.025 0 0 0-2.62-2.118 6.449 6.449 0 0 0-3.482-.9 7.031 7.031 0 0 0-2.927.607 7.247 7.247 0 0 0-2.334 1.662 7.912 7.912 0 0 0-1.562 2.484 8.178 8.178 0 0 0-.574 3.073v.074a8.125 8.125 0 0 0 2.208 5.612 7.467 7.467 0 0 0 2.388 1.678 7.153 7.153 0 0 0 2.943.608 6.816 6.816 0 0 0 3.465-.879 10.741 10.741 0 0 0 2.675-2.173l1.22 1.076a12.97 12.97 0 0 1-3.176 2.623" fill="#2e2624"/><path data-name="パス 13601" d="M287.931 33.058V30a9.028 9.028 0 0 1-1.131 1.28 7.691 7.691 0 0 1-1.527 1.113 8.7 8.7 0 0 1-1.956.79 8.874 8.874 0 0 1-2.386.305 9.212 9.212 0 0 1-2.55-.359 7.324 7.324 0 0 1-2.262-1.076 5.75 5.75 0 0 1-1.632-1.795 4.893 4.893 0 0 1-.629-2.514v-.072a5.349 5.349 0 0 1 .591-2.55 5.445 5.445 0 0 1 1.634-1.866 7.624 7.624 0 0 1 2.514-1.149 12.6 12.6 0 0 1 3.266-.395 22.539 22.539 0 0 1 3.339.215 25.47 25.47 0 0 1 2.729.575v-.785a5.245 5.245 0 0 0-1.6-4.177 6.528 6.528 0 0 0-4.434-1.393 10.858 10.858 0 0 0-3.087.414 15.189 15.189 0 0 0-2.657 1.059l-.646-1.545a18.428 18.428 0 0 1 3.052-1.174 12.527 12.527 0 0 1 3.446-.442 8.2 8.2 0 0 1 5.6 1.8 6.786 6.786 0 0 1 2.046 5.385v11.414Zm.035-8.943q-1.147-.288-2.693-.555a20.667 20.667 0 0 0-3.517-.268 7.387 7.387 0 0 0-4.469 1.162 3.663 3.663 0 0 0-1.563 3.092v.072a3.563 3.563 0 0 0 .431 1.77 4.055 4.055 0 0 0 1.167 1.3 5.541 5.541 0 0 0 1.706.823 7.117 7.117 0 0 0 2.01.285 8.5 8.5 0 0 0 2.657-.411 7.3 7.3 0 0 0 2.207-1.143 5.515 5.515 0 0 0 1.508-1.77 4.758 4.758 0 0 0 .556-2.288Z" fill="#2e2624"/><path data-name="パス 13602" d="M303.638 33.219a6.947 6.947 0 0 1-1.561.161 6.835 6.835 0 0 1-2.013-.287 4.221 4.221 0 0 1-2.728-2.495 5.816 5.816 0 0 1-.4-2.244V16.362h-2.656v-1.615h2.656V8.9h1.764v5.852h6.424v1.615H298.7v11.78a3.284 3.284 0 0 0 1.022 2.758 4.2 4.2 0 0 0 2.638.788 5.915 5.915 0 0 0 1.293-.136 8.151 8.151 0 0 0 1.4-.474v1.651a7.7 7.7 0 0 1-1.418.485" fill="#2e2624"/><path data-name="パス 13603" d="M310.369 7.567h2.19v2.4h-2.19Zm.215 7.18h1.76v18.311h-1.76Z" fill="#2e2624"/><path data-name="パス 13604" d="M336.127 27.566a9.605 9.605 0 0 1-1.974 3.05 9.475 9.475 0 0 1-3 2.1 9.124 9.124 0 0 1-3.77.771 9.007 9.007 0 0 1-3.752-.771 9.632 9.632 0 0 1-2.961-2.064 9.306 9.306 0 0 1-1.957-3.016 9.629 9.629 0 0 1-.7-3.662V23.9a9.6 9.6 0 0 1 2.676-6.713 9.466 9.466 0 0 1 3-2.1 9.13 9.13 0 0 1 3.77-.771 9 9 0 0 1 3.752.771 9.654 9.654 0 0 1 2.962 2.064 9.3 9.3 0 0 1 1.957 3.016 9.649 9.649 0 0 1 .7 3.662v.071a9.657 9.657 0 0 1-.7 3.663m-1.171-3.663a8.268 8.268 0 0 0-.577-3.092 7.715 7.715 0 0 0-1.605-2.519 7.446 7.446 0 0 0-2.417-1.679 7.584 7.584 0 0 0-5.988.016 7.43 7.43 0 0 0-2.381 1.681 7.659 7.659 0 0 0-1.552 2.484 8.305 8.305 0 0 0-.558 3.038v.071a8.278 8.278 0 0 0 .577 3.091 7.76 7.76 0 0 0 1.606 2.521 7.423 7.423 0 0 0 2.417 1.678 7.579 7.579 0 0 0 5.988-.017 7.406 7.406 0 0 0 2.381-1.68 7.624 7.624 0 0 0 1.55-2.484 8.263 8.263 0 0 0 .559-3.038Z" fill="#2e2624"/><path data-name="パス 13605" d="M356.178 33.058V22.18a6.6 6.6 0 0 0-1.508-4.541 5.443 5.443 0 0 0-4.307-1.707 6.39 6.39 0 0 0-2.513.485 6.256 6.256 0 0 0-2.011 1.347 6.129 6.129 0 0 0-1.347 2.063 7.006 7.006 0 0 0-.485 2.639v10.592h-1.758V14.747h1.758v3.41a8.539 8.539 0 0 1 2.513-2.727 6.962 6.962 0 0 1 4.093-1.113 8.1 8.1 0 0 1 3.087.556 6.568 6.568 0 0 1 2.317 1.562 6.644 6.644 0 0 1 1.436 2.387 9.094 9.094 0 0 1 .485 3.034v11.2Z" fill="#2e2624"/><path data-name="パス 13606" d="M37.487 40a1.378 1.378 0 0 1-1.377-1.377V14.15L9.087 31.753a1.377 1.377 0 1 1-1.5-2.307l29.149-18.988a1.377 1.377 0 0 1 2.128 1.154v27.011A1.378 1.378 0 0 1 37.487 40" fill="#2e2624"/><path data-name="パス 13607" d="M8.337 21.741a1.377 1.377 0 0 1-.753-2.53L36.736.223a1.377 1.377 0 1 1 1.5 2.307L9.087 21.518a1.372 1.372 0 0 1-.75.223" fill="#2e2624"/><path data-name="パス 13608" d="M1.377 40A1.378 1.378 0 0 1 0 38.623V1.377A1.377 1.377 0 0 1 2.119.217L13.55 7.538a1.376 1.376 0 1 1-1.484 2.318L2.754 3.893v34.73A1.378 1.378 0 0 1 1.377 40" fill="#e84730"/></g></g></g></svg>