<svg xmlns="http://www.w3.org/2000/svg" width="100.48" height="15.04"><path d="M0 14.8h3.06v-4.44H5.6c3.24 0 5.86-1.72 5.86-5.08v-.04c0-2.96-2.1-5-5.56-5H0Zm3.06-7.18v-4.6h2.58c1.66 0 2.72.8 2.72 2.28v.04c0 1.3-1 2.28-2.66 2.28Zm11 7.18h3.06v-4.74h2.66L23 14.8h3.6l-3.64-5.26a4.488 4.488 0 0 0 3.18-4.5V5a4.518 4.518 0 0 0-1.22-3.28A5.805 5.805 0 0 0 20.68.24h-6.62Zm3.06-7.46V3.02h3.3c1.62 0 2.62.74 2.62 2.14v.04c0 1.28-.96 2.14-2.56 2.14Zm19.18 7.7a7.525 7.525 0 0 0 7.74-7.52v-.04A7.446 7.446 0 0 0 36.34 0a7.525 7.525 0 0 0-7.74 7.52v.04a7.446 7.446 0 0 0 7.7 7.48Zm.04-2.82a4.544 4.544 0 0 1-4.52-4.7v-.04a4.477 4.477 0 0 1 4.48-4.66 4.544 4.544 0 0 1 4.52 4.7v.04a4.477 4.477 0 0 1-4.48 4.66Zm17.56 2.82a7.491 7.491 0 0 0 5.96-2.58l-1.96-1.98a5.339 5.339 0 0 1-3.9 1.74 4.449 4.449 0 0 1-4.34-4.7v-.04A4.438 4.438 0 0 1 54 2.82a5.451 5.451 0 0 1 3.8 1.68l1.96-2.26A7.5 7.5 0 0 0 54.02 0a7.389 7.389 0 0 0-7.58 7.52v.04a7.34 7.34 0 0 0 7.46 7.48Zm8.72-.24h11.04v-2.74h-8V8.84h6.96V6.1h-6.96V2.98h7.9V.24H62.62Zm19.26.2c3.12 0 5.32-1.62 5.32-4.48v-.04c0-2.5-1.66-3.58-4.64-4.34-2.56-.66-3.2-1-3.2-2V4.1c0-.74.68-1.36 1.96-1.36a6.676 6.676 0 0 1 3.82 1.46l1.62-2.32A8.383 8.383 0 0 0 81.38.04c-2.96 0-5.08 1.74-5.08 4.34v.04c0 2.86 1.86 3.7 4.84 4.44 2.48.62 3 1.06 3 1.92v.04c0 .9-.84 1.48-2.2 1.48a6.7 6.7 0 0 1-4.4-1.8l-1.82 2.18A9.17 9.17 0 0 0 81.88 15Zm13.28 0c3.12 0 5.32-1.62 5.32-4.48v-.04c0-2.5-1.66-3.58-4.64-4.34-2.56-.66-3.2-1-3.2-2V4.1c0-.74.68-1.36 1.96-1.36a6.676 6.676 0 0 1 3.82 1.46l1.62-2.32A8.383 8.383 0 0 0 94.66.04c-2.96 0-5.08 1.74-5.08 4.34v.04c0 2.86 1.86 3.7 4.84 4.44 2.48.62 3 1.06 3 1.92v.04c0 .9-.84 1.48-2.2 1.48a6.7 6.7 0 0 1-4.4-1.8L89 12.68A9.17 9.17 0 0 0 95.16 15Z" fill="#e84830"/></svg>