<svg xmlns="http://www.w3.org/2000/svg" width="65.76" height="29.32"><path d="m30.16 24.96-2.88-2.44a14.364 14.364 0 0 0 2.48-8.04v-.08c0-7.96-6.2-14.4-14.84-14.4S0 6.52 0 14.48v.08c0 7.96 6.2 14.4 14.84 14.4a15.26 15.26 0 0 0 8.32-2.4l3.08 2.76Zm-15.24-1.68a8.507 8.507 0 0 1-8.48-8.8v-.08a8.374 8.374 0 0 1 8.4-8.72 8.507 8.507 0 0 1 8.48 8.8v.08a9.812 9.812 0 0 1-.76 3.84l-4.6-4.16-3.92 4.4 4.56 3.88a8.414 8.414 0 0 1-3.68.76Zm18.92 5.2h20.72v-5.32h-12.2l4.56-3.52c4.96-3.84 7.36-6.16 7.36-10.84v-.08c0-5.24-3.84-8.64-9.64-8.64-5 0-7.68 2.04-10.44 5.8l4.32 3.48C40.6 6.8 42.08 5.6 44.24 5.6A3.435 3.435 0 0 1 48 9.24c0 2.32-1.36 3.84-4.84 6.72l-9.32 7.64Zm25.44 0h6.48v-6.4h-6.48Z" fill="#333"/></svg>