<svg xmlns="http://www.w3.org/2000/svg" width="68.4" height="29.32"><path d="m30.16 24.96-2.88-2.44a14.364 14.364 0 0 0 2.48-8.04v-.08c0-7.96-6.2-14.4-14.84-14.4S0 6.52 0 14.48v.08c0 7.96 6.2 14.4 14.84 14.4a15.26 15.26 0 0 0 8.32-2.4l3.08 2.76Zm-15.24-1.68a8.507 8.507 0 0 1-8.48-8.8v-.08a8.374 8.374 0 0 1 8.4-8.72 8.507 8.507 0 0 1 8.48 8.8v.08a9.812 9.812 0 0 1-.76 3.84l-4.6-4.16-3.92 4.4 4.56 3.88a8.414 8.414 0 0 1-3.68.76Zm32.88 5.2h5.88v-6.04h3.76v-5h-3.76V.28h-5.2l-15.36 17.8 1 4.36H47.8Zm-7.44-11.04 7.44-8.72v8.72Zm21.56 11.04h6.48v-6.4h-6.48Z" fill="#333"/></svg>