<svg xmlns="http://www.w3.org/2000/svg" width="12.32" height="104.88"><path d="M.192 0v2.46H11.84V0Zm0 5.28v2.432h4.976c1.232 0 1.888.656 1.888 1.664s-.656 1.6-1.888 1.6H.192v2.432h5.744c2.048 0 3.312-1.136 3.312-3.056a3.176 3.176 0 0 0-1.44-2.64h1.284V5.28ZM.048 18.768a3.7 3.7 0 0 0 .5 1.952h1.944a2.665 2.665 0 0 1-.3-1.248c0-.592.288-.864.912-.864h3.9v2.144h2.088v-2.144h2.3v-2.432h-2.3v-1.072h-2.08v1.072h-4.3c-2.056 0-2.664 1.056-2.664 2.592ZM0 26.736a4.444 4.444 0 0 0 1.648 3.632l1.232-1.392a2.965 2.965 0 0 1-.928-2.208 2.119 2.119 0 0 1 1.84-2.24v6.256c.224.016.448.032.64.032 2.528 0 4.816-1.376 4.816-4.32a4.417 4.417 0 0 0-4.624-4.384h-.032A4.436 4.436 0 0 0 0 26.736Zm5.312-2.24a2.058 2.058 0 0 1 1.984 2 2 2 0 0 1-1.984 1.952Zm-5.12 8.352v2.432h3.312c2.16 0 3.2 1.072 3.2 2.768v.128h2.544a2.833 2.833 0 0 0-2-2.9h1.844v-2.432ZM.128 42.66v2.192l8.964 3.532V45.86l-6.08-2.1 6.08-2.064V39.12Zm10.016 7.4v2.564h2.176V50.06Zm-9.952.084v2.416h8.9v-2.416ZM0 59.312a4.444 4.444 0 0 0 1.648 3.632l1.232-1.392a2.965 2.965 0 0 1-.928-2.208 2.119 2.119 0 0 1 1.84-2.24v6.256c.224.016.448.032.64.032 2.528 0 4.816-1.376 4.816-4.32a4.417 4.417 0 0 0-4.624-4.384h-.032A4.436 4.436 0 0 0 0 59.312Zm5.312-2.24a2.058 2.058 0 0 1 1.984 2 2 2 0 0 1-1.984 1.952ZM.128 67.06v2.176l5.584 1.788-5.584 1.76v2.192l8.96 2.8V75.36l-5.552-1.536L9.12 72.08V70l-5.568-1.74 5.54-1.492v-2.464ZM0 89.488c0 3.1 2.656 5.168 6.016 5.168h.032c3.376 0 5.984-2.064 5.984-5.136 0-3.088-2.656-5.168-6.016-5.168h-.032C2.608 84.352 0 86.384 0 89.488Zm2.208.032c0-1.6 1.648-2.64 3.808-2.64h.032c2.16 0 3.776 1.024 3.776 2.608s-1.664 2.64-3.808 2.64h-.032c-2.144 0-3.776-1.008-3.776-2.608ZM0 100.704c0 2.56 1.584 4.176 3.776 4.176h.032c2.16 0 3.008-1.568 3.264-3.184l2.912 3.008h1.856V96.86H9.728v4.672l-2.912-2.86-1.552.4v1.04c0 1.456-.56 2.352-1.552 2.352H3.68a1.544 1.544 0 0 1-1.488-1.728 3.584 3.584 0 0 1 1.424-2.848l-1.6-1.7A5.6 5.6 0 0 0 0 100.704Z" fill="#333"/></svg>