<svg xmlns="http://www.w3.org/2000/svg" width="608.79" height="316.219" viewBox="0 0 608.79 316.219"><g transform="translate(-409 -1169)"><g transform="translate(-296 -1042.718)"><g transform="translate(842 2451)"><path d="M2.822-26.588H29.478v3.6H6.494V2.958H2.822Zm24.922,0H31.45v25.16A5.856,5.856,0,0,1,31.059.935a2.731,2.731,0,0,1-1.411,1.343,7.448,7.448,0,0,1-2.533.544q-1.547.1-3.859.1a6.494,6.494,0,0,0-.289-1.173q-.221-.663-.493-1.326A9.851,9.851,0,0,0,21.93-.714q1.02.068,2.04.068h2.924a.927.927,0,0,0,.663-.187.869.869,0,0,0,.187-.629ZM4.794-13.974H29.546v3.6H4.794ZM15.062-24.65h3.672v12.478H15.062ZM49.14-7.6a13.506,13.506,0,0,1,.52-3.84,12.9,12.9,0,0,1,1.42-3.2,13.763,13.763,0,0,1,2.02-2.54l1.7.78a14.927,14.927,0,0,0-1.86,2.43,12.076,12.076,0,0,0-1.29,2.91,12.1,12.1,0,0,0-.47,3.46,12.124,12.124,0,0,0,.47,3.45,11.849,11.849,0,0,0,1.29,2.91A15.926,15.926,0,0,0,54.8,1.2l-1.7.78A14.541,14.541,0,0,1,51.08-.57a12.719,12.719,0,0,1-1.42-3.19A13.506,13.506,0,0,1,49.14-7.6Zm16.5-8.54,1.78-.76a16.78,16.78,0,0,1,1.08,1.73,9.47,9.47,0,0,1,.74,1.65l-1.9.86a8.807,8.807,0,0,0-.67-1.68A17.505,17.505,0,0,0,65.64-16.14ZM73-16.96l2.2.74q-.52.92-1.07,1.83T73.1-12.82l-1.8-.68q.3-.48.62-1.08t.61-1.22A10.878,10.878,0,0,0,73-16.96ZM67.36-6.56h2.12a20.913,20.913,0,0,1-.35,2.6,9.706,9.706,0,0,1-.76,2.3A6.928,6.928,0,0,1,66.98.27a7.5,7.5,0,0,1-2.3,1.49,5.177,5.177,0,0,0-.56-.88,5.542,5.542,0,0,0-.72-.8,6.411,6.411,0,0,0,1.96-1.19,5.172,5.172,0,0,0,1.15-1.54,7.163,7.163,0,0,0,.59-1.84A19.713,19.713,0,0,0,67.36-6.56ZM70.7-6.8h2.08v5.7a1.482,1.482,0,0,0,.06.55q.06.11.28.11h.86a.276.276,0,0,0,.25-.17,2.057,2.057,0,0,0,.13-.69q.04-.52.06-1.58a2.275,2.275,0,0,0,.53.34,7.135,7.135,0,0,0,.69.29q.36.13.62.21a10.406,10.406,0,0,1-.3,2.15,1.88,1.88,0,0,1-.65,1.07,1.9,1.9,0,0,1-1.11.3H72.76a2.73,2.73,0,0,1-1.28-.24,1.287,1.287,0,0,1-.61-.8,5.424,5.424,0,0,1-.17-1.52Zm-3.06-4.24V-8h5.34v-3.04ZM65.6-12.92h9.52v6.8H65.6Zm-5.06-2.22h2.1V1.72h-2.1ZM57.56-11.3h7.32v2H57.56Zm3.1.78,1.28.56q-.3,1.08-.71,2.23t-.9,2.28q-.49,1.13-1.04,2.12a12.07,12.07,0,0,1-1.13,1.71,6.183,6.183,0,0,0-.45-1.05q-.31-.59-.57-.99A10.63,10.63,0,0,0,58.2-5.08q.52-.82.99-1.75t.85-1.88A17.713,17.713,0,0,0,60.66-10.52Zm2.96-6.18,1.46,1.64a22.259,22.259,0,0,1-2.21.7q-1.21.32-2.47.55t-2.44.39a4.607,4.607,0,0,0-.24-.84,5.829,5.829,0,0,0-.36-.8q1.12-.2,2.27-.44t2.19-.56Q62.86-16.38,63.62-16.7ZM62.58-8.58a7.044,7.044,0,0,1,.56.52l.82.82q.44.44.79.82t.49.56L64.02-4.18q-.18-.34-.48-.82t-.66-1l-.68-.98q-.32-.46-.56-.76ZM85.8-16.04H90v2.02H85.8Zm3.08,0h2.28a39.193,39.193,0,0,0,.48,4.13,17.948,17.948,0,0,0,1,3.62,10.893,10.893,0,0,0,1.71,2.92,8.01,8.01,0,0,0,2.59,2.05q-.24.18-.56.46t-.62.6q-.3.32-.5.58a9.84,9.84,0,0,1-2.65-2.31,11.983,11.983,0,0,1-1.77-3.1,20.163,20.163,0,0,1-1.05-3.75,39.164,39.164,0,0,1-.53-4.24h-.38Zm-.02,4.08,2.2.32a20.017,20.017,0,0,1-2.05,5.89A12.175,12.175,0,0,1,85.4-1.66a5.093,5.093,0,0,0-.45-.52q-.29-.3-.62-.61a5.284,5.284,0,0,0-.59-.49A9.341,9.341,0,0,0,87.11-6.8,16.512,16.512,0,0,0,88.86-11.96Zm-5.7,2.84v7.3h-2.1v-5.3H78.6v-2Zm0,6.36a3.758,3.758,0,0,0,1.81,1.5,8.4,8.4,0,0,0,2.77.56q.86.02,2.06.03t2.53-.01q1.33-.02,2.59-.07t2.24-.13a5.655,5.655,0,0,0-.26.64q-.14.4-.25.81t-.17.73q-.9.06-2.04.08t-2.35.03q-1.21.01-2.35,0t-2.02-.05A10.211,10.211,0,0,1,84.51.77,5.572,5.572,0,0,1,82.2-.92q-.66.6-1.37,1.21T79.3,1.56L78.22-.68q.7-.42,1.48-.97t1.5-1.11ZM78.68-15.18l1.6-1.28a13.181,13.181,0,0,1,1.27.94q.65.54,1.22,1.09a7.47,7.47,0,0,1,.91,1.03L81.98-12a7.216,7.216,0,0,0-.85-1.03q-.55-.57-1.19-1.14A14.661,14.661,0,0,0,78.68-15.18ZM105.26-7.6a13.506,13.506,0,0,1-.52,3.84,12.72,12.72,0,0,1-1.42,3.19,14.541,14.541,0,0,1-2.02,2.55L99.6,1.2a15.927,15.927,0,0,0,1.86-2.44,11.849,11.849,0,0,0,1.29-2.91,12.124,12.124,0,0,0,.47-3.45,12.1,12.1,0,0,0-.47-3.46,12.076,12.076,0,0,0-1.29-2.91A14.927,14.927,0,0,0,99.6-16.4l1.7-.78a13.763,13.763,0,0,1,2.02,2.54,12.9,12.9,0,0,1,1.42,3.2A13.506,13.506,0,0,1,105.26-7.6Z" transform="translate(275 64.717)" fill="#e84830"/><path d="M-1.26-16.96H1.22v3.18H-1.26Zm-7.32,1.72H8.56v4.3H6.08v-2.2H-6.2v2.2H-8.58Zm1.8,3.7H6.96V-9.6H-6.78ZM-8.74-5.22H8.84v2.08H-8.74ZM-6.46-8.4h13v1.92h-13ZM1.18-4.8A6.7,6.7,0,0,0,4.04-1.7,12.881,12.881,0,0,0,9.12-.26a7.413,7.413,0,0,0-.77,1,10.8,10.8,0,0,0-.65,1.1A14.886,14.886,0,0,1,3.76.71,8.794,8.794,0,0,1,.95-1.31,10.537,10.537,0,0,1-.96-4.34Zm-2.5-7.88H1.1v5.56A10.485,10.485,0,0,1,.89-5.04,6.777,6.777,0,0,1,.13-3.03,7.356,7.356,0,0,1-1.41-1.18,11.268,11.268,0,0,1-3.92.45,21.063,21.063,0,0,1-7.62,1.8a4.819,4.819,0,0,0-.39-.63Q-8.26.82-8.55.46a4.537,4.537,0,0,0-.57-.6A21.234,21.234,0,0,0-5.63-1.22a9.27,9.27,0,0,0,2.26-1.3A5.425,5.425,0,0,0-2.08-3.99a5.232,5.232,0,0,0,.6-1.56,8.09,8.09,0,0,0,.16-1.61Zm-.6,18.7L-.46,7.44q-.84.24-1.87.44t-2.09.32q-1.06.12-2.04.18a5.658,5.658,0,0,0-.21-.73A3.38,3.38,0,0,0-7,6.94q.92-.1,1.85-.23t1.78-.31A13.506,13.506,0,0,0-1.92,6.02Zm8.66.02L8.2,7.44a15.813,15.813,0,0,1-2,.47q-1.1.19-2.25.31t-2.21.2a4.673,4.673,0,0,0-.22-.75q-.16-.43-.3-.73.98-.08,2-.22T5.17,6.4Q6.1,6.22,6.74,6.04Zm-14.4.42,2.58.64q-.02.24-.48.32V8.4a10.339,10.339,0,0,1-.18,1.79,8.187,8.187,0,0,1-.65,2.02,6.074,6.074,0,0,1-1.39,1.87,3.909,3.909,0,0,0-.44-.53q-.28-.29-.58-.56a2.956,2.956,0,0,0-.56-.41,4.337,4.337,0,0,0,1.11-1.4,5.515,5.515,0,0,0,.47-1.49,8.948,8.948,0,0,0,.12-1.41Zm8.3.02,2.56.58q-.02.28-.48.34V8.42a7.338,7.338,0,0,1-.2,1.59,5.466,5.466,0,0,1-.76,1.76A5.251,5.251,0,0,1,.14,13.32a2.942,2.942,0,0,0-.38-.55q-.26-.31-.54-.6a2.271,2.271,0,0,0-.54-.43,4.223,4.223,0,0,0,1.25-1.1A3.53,3.53,0,0,0,.49,9.46,4.777,4.777,0,0,0,.64,8.3ZM-6.72,9H-.06v1.74H-6.72ZM1.52,9H9v1.74H1.52Zm-5.6.58h2.12v3.24H-4.08Zm8.4,0H6.46v3.26H4.32Zm-8.6,7.28v.88H4.44v-.88Zm0,2.24v.88H4.44V19.1Zm0-4.46v.86H4.44v-.86ZM-6.6,13.2H6.86v8.2H-6.6Zm7.72,9.26,2-1.14q1.08.38,2.19.81t2.12.86q1.01.43,1.71.77l-2.8,1.08q-.56-.32-1.4-.74t-1.81-.85Q2.16,22.82,1.12,22.46ZM-3.3,21.24l2.18,1A15.11,15.11,0,0,1-3,23.26q-1.08.5-2.22.91t-2.16.69q-.22-.24-.53-.57t-.65-.66a7.152,7.152,0,0,0-.6-.53q1.06-.2,2.15-.48a20.778,20.778,0,0,0,2.06-.64A11.9,11.9,0,0,0-3.3,21.24Z" transform="translate(-15 42.717)" fill="#e84830"/><path d="M12.852,0H23.188V-49.844h-7.14L1.972-45.628,4.148-37.06l8.7-2.176ZM48.416-8.636c-4.148,0-7.276-1.428-10.88-4.352L32.028-5.032A23.636,23.636,0,0,0,48.212.816c13.872,0,21.488-10.948,21.488-27v-.136c0-9.724-2.312-15.164-5.848-18.7-3.74-3.672-7.616-5.3-14.212-5.3-11.084,0-18.768,7.344-18.768,17.272v.136C30.872-22.984,37.808-17,48.484-17A14.359,14.359,0,0,0,58.82-20.808h.068C58.616-16.252,56.3-8.636,48.416-8.636ZM50.184-25.7c-5.508,0-8.908-3.128-8.908-7.684v-.136c0-4.556,3.128-7.888,8.7-7.888s8.976,3.332,8.976,7.888v.136C58.956-29.036,55.76-25.7,50.184-25.7ZM92.276-8.636c-4.148,0-7.276-1.428-10.88-4.352L75.888-5.032A23.636,23.636,0,0,0,92.072.816c13.872,0,21.488-10.948,21.488-27v-.136c0-9.724-2.312-15.164-5.848-18.7-3.74-3.672-7.616-5.3-14.212-5.3-11.084,0-18.768,7.344-18.768,17.272v.136C74.732-22.984,81.668-17,92.344-17a14.359,14.359,0,0,0,10.336-3.808h.068C102.476-16.252,100.164-8.636,92.276-8.636ZM94.044-25.7c-5.508,0-8.908-3.128-8.908-7.684v-.136c0-4.556,3.128-7.888,8.7-7.888s8.976,3.332,8.976,7.888v.136C102.816-29.036,99.62-25.7,94.044-25.7ZM116.756,11.22c8.16-.2,12.648-3.876,12.648-12.92v-9.316H118.388V0H122.6c.34,3.944-1.972,6.392-6.732,6.936ZM134.5,0h36.448V-9.044H148.988l8.5-6.664c8.772-6.868,12.988-11.016,12.988-19.176v-.136c0-9.18-6.8-15.164-16.932-15.164-8.84,0-13.532,3.6-18.36,10.268l7.344,5.848c3.672-4.556,6.392-6.8,10.336-6.8,4.012,0,6.936,2.38,6.936,6.732,0,4.148-2.448,6.936-8.7,12.172L134.5-8.3Zm63.308.816c13.192,0,21.964-11.288,21.964-25.568v-.136c0-14.348-8.772-25.432-21.828-25.432-13.124,0-21.964,11.288-21.964,25.568v.136C175.984-10.268,184.62.816,197.812.816Zm.136-9.384c-6.8,0-11.22-7-11.22-16.184v-.136c0-9.18,4.352-16.048,11.084-16.048s11.22,7.072,11.22,16.184v.136C209.032-15.5,204.748-8.568,197.948-8.568ZM246.5.816c13.192,0,21.964-11.288,21.964-25.568v-.136c0-14.348-8.772-25.432-21.828-25.432-13.124,0-21.964,11.288-21.964,25.568v.136C224.672-10.268,233.308.816,246.5.816Zm.136-9.384c-6.8,0-11.22-7-11.22-16.184v-.136c0-9.18,4.352-16.048,11.084-16.048s11.22,7.072,11.22,16.184v.136C257.72-15.5,253.436-8.568,246.636-8.568Z" transform="translate(0 65.717)" fill="#e84830"/></g></g><g transform="translate(-71 -1015)"><g transform="translate(170 -134.141)"><path d="M-51.29-17.292h17.248v2.618H-48.65V1.958h-2.64Zm15.994,0h2.662v16.17A4.247,4.247,0,0,1-32.9.539a1.866,1.866,0,0,1-.946.935,4.736,4.736,0,0,1-1.7.407q-1.023.077-2.5.077a6.745,6.745,0,0,0-.22-.858q-.154-.484-.352-.957a7.975,7.975,0,0,0-.4-.825q.638.044,1.287.055t1.155.011h.7a.724.724,0,0,0,.44-.143.532.532,0,0,0,.132-.407ZM-49.86-9.108H-34v2.6H-49.86Zm6.424-6.754h2.64V-7.81h-2.64ZM-16.69-7.6a13.46,13.46,0,0,1,.54-3.92,12.985,12.985,0,0,1,1.44-3.2,14.357,14.357,0,0,1,1.96-2.48l1.9.84a14.723,14.723,0,0,0-1.81,2.37,12.221,12.221,0,0,0-1.29,2.89,12.008,12.008,0,0,0-.48,3.5,12.036,12.036,0,0,0,.48,3.49,11.984,11.984,0,0,0,1.29,2.89,15.751,15.751,0,0,0,1.81,2.38l-1.9.84A14.357,14.357,0,0,1-14.71-.48a12.985,12.985,0,0,1-1.44-3.2A13.46,13.46,0,0,1-16.69-7.6ZM-.11-16.1l1.98-.86a18.019,18.019,0,0,1,1.09,1.73,7.857,7.857,0,0,1,.73,1.67l-2.1.94A10.1,10.1,0,0,0,.9-14.3,20.386,20.386,0,0,0-.11-16.1Zm7.34-.92,2.46.82q-.54.94-1.08,1.84T7.59-12.8l-2.02-.76q.3-.48.61-1.08t.59-1.22A12.251,12.251,0,0,0,7.23-17.02ZM1.57-6.54H3.93a22.28,22.28,0,0,1-.34,2.6,9.858,9.858,0,0,1-.74,2.31A6.622,6.622,0,0,1,1.46.31,7.927,7.927,0,0,1-.85,1.82a4.52,4.52,0,0,0-.61-1,6.634,6.634,0,0,0-.81-.9A6.156,6.156,0,0,0-.34-1.24,4.919,4.919,0,0,0,.78-2.75a6.832,6.832,0,0,0,.55-1.78Q1.49-5.48,1.57-6.54Zm3.4-.3H7.29V-1.3a1.864,1.864,0,0,0,.05.57q.05.11.25.11h.64a.256.256,0,0,0,.24-.16,2.165,2.165,0,0,0,.12-.67q.04-.51.06-1.57a2.507,2.507,0,0,0,.59.38,7.181,7.181,0,0,0,.77.32q.4.14.68.22A9.421,9.421,0,0,1,10.36.11a2.079,2.079,0,0,1-.7,1.11,1.974,1.974,0,0,1-1.17.32H7.17A2.8,2.8,0,0,1,5.8,1.27,1.427,1.427,0,0,1,5.15.39a6.138,6.138,0,0,1-.18-1.67ZM2.21-10.9v2.72H7.17V-10.9ZM-.07-13H9.55v6.92H-.07Zm-5.18-2.12h2.32V1.78H-5.25Zm-2.88,3.76H-.79v2.22H-8.13Zm3,.9,1.4.6q-.28,1.08-.68,2.24t-.88,2.29Q-5.77-4.2-6.31-3.2A12.273,12.273,0,0,1-7.43-1.46a9.484,9.484,0,0,0-.51-1.17q-.33-.65-.61-1.11A11.545,11.545,0,0,0-7.52-5.15q.51-.81.97-1.73t.82-1.84Q-5.37-9.64-5.13-10.46Zm2.98-6.32,1.62,1.84q-1.02.38-2.24.7t-2.49.55q-1.27.23-2.43.39a6.061,6.061,0,0,0-.28-.93,8.154,8.154,0,0,0-.4-.91q1.1-.18,2.25-.43t2.18-.57Q-2.91-16.46-2.15-16.78Zm-.82,8.2a6.857,6.857,0,0,1,.55.51q.37.37.8.81t.77.81q.34.37.5.53l-1.38,1.9q-.18-.38-.47-.86t-.62-1q-.33-.52-.65-.99t-.56-.77Zm23.1-7.58h4.24v2.28H20.13Zm3.02,0h2.52a38.232,38.232,0,0,0,.44,4.08,18.014,18.014,0,0,0,.96,3.59,10.49,10.49,0,0,0,1.68,2.91,8.07,8.07,0,0,0,2.62,2.06,5.528,5.528,0,0,0-.65.52q-.35.32-.68.67a6.992,6.992,0,0,0-.55.65,9.617,9.617,0,0,1-2.68-2.35,12.226,12.226,0,0,1-1.75-3.13,19.962,19.962,0,0,1-1.02-3.74,38.6,38.6,0,0,1-.49-4.18h-.4Zm-.06,4.18,2.46.34a19.95,19.95,0,0,1-2.02,5.9,11.943,11.943,0,0,1-3.58,4.08,6.323,6.323,0,0,0-.51-.58q-.33-.34-.7-.69a6.377,6.377,0,0,0-.65-.55A9.067,9.067,0,0,0,21.4-6.92,15.655,15.655,0,0,0,23.09-11.98ZM17.59-9.2v7.38H15.25V-6.98H12.93V-9.2Zm0,6.34a3.635,3.635,0,0,0,1.74,1.44,7.847,7.847,0,0,0,2.68.52q.88.04,2.09.05t2.55-.01q1.34-.02,2.63-.08t2.29-.14q-.12.28-.28.72T31,.54a7.736,7.736,0,0,0-.19.82q-.9.06-2.06.09t-2.38.04q-1.22.01-2.36-.01t-2.04-.06A10.2,10.2,0,0,1,18.83.85,5.656,5.656,0,0,1,16.53-.8q-.66.56-1.35,1.16T13.67,1.6L12.49-.9q.7-.42,1.46-.92t1.46-1.04ZM12.95-15.08l1.78-1.44a13.226,13.226,0,0,1,1.26.93q.64.53,1.2,1.08a8.726,8.726,0,0,1,.9,1.01l-1.9,1.6a6.792,6.792,0,0,0-.83-1.04q-.53-.56-1.17-1.13T12.95-15.08ZM39.79-7.6a13.46,13.46,0,0,1-.54,3.92,13.218,13.218,0,0,1-1.43,3.2A13.5,13.5,0,0,1,35.85,2l-1.9-.84a15.751,15.751,0,0,0,1.81-2.38,11.984,11.984,0,0,0,1.29-2.89,12.036,12.036,0,0,0,.48-3.49,12.008,12.008,0,0,0-.48-3.5,12.221,12.221,0,0,0-1.29-2.89,14.722,14.722,0,0,0-1.81-2.37l1.9-.84a13.5,13.5,0,0,1,1.97,2.48,13.218,13.218,0,0,1,1.43,3.2A13.46,13.46,0,0,1,39.79-7.6Z" transform="translate(879 2358.141)" fill="#333"/><path d="M14.124.528c7.3,0,12.1-4.268,12.1-11v-.088c0-7.128-4.972-10.208-11.176-10.208a15.579,15.579,0,0,0-4.4.616l.4-5.94H24.816v-5.94H5.236L4.312-16.28l3.96,2.64a13.83,13.83,0,0,1,5.456-1.232c3.476,0,5.852,1.672,5.852,4.532v.088c0,2.948-2.156,4.664-5.544,4.664-2.86,0-5.28-1.32-7.744-3.564L2.2-4.268A16.474,16.474,0,0,0,14.124.528ZM45.452,0H51.92V-6.952h4.356v-5.5H51.92v-19.8H46.2l-17.644,20.5,1.144,4.8H45.452ZM36.52-12.452l8.932-10.516v10.516ZM59.444,0H67.1L81.444-26.928v-5.1H58.52v5.852H73.788Zm19.8,7.26c5.28-.132,8.184-2.508,8.184-8.36V-7.128H80.3V0h2.728c.22,2.552-1.276,4.136-4.356,4.488ZM102.916.44c7.04,0,12.32-3.476,12.32-9.372V-9.02c0-3.828-1.98-5.9-5.28-7.568a7.687,7.687,0,0,0,4.18-7.04v-.088c0-4.972-4.532-8.756-11.22-8.756-6.732,0-11.264,3.828-11.264,8.756v.088a7.647,7.647,0,0,0,4.224,7.04c-3.432,1.54-5.324,3.828-5.324,7.744v.088C90.552-3.212,95.832.44,102.916.44Zm0-19.316c-2.9,0-4.84-1.716-4.84-4.092v-.088c0-2.068,1.848-3.828,4.84-3.828s4.8,1.8,4.8,3.872v.088C107.712-20.548,105.776-18.876,102.916-18.876Zm0,13.728c-3.652,0-5.808-1.848-5.808-4.136v-.088c0-2.552,2.464-4.092,5.808-4.092,3.3,0,5.764,1.54,5.764,4.092v.088C108.68-6.952,106.524-5.148,102.916-5.148ZM132.088.528c8.536,0,14.212-7.3,14.212-16.544V-16.1c0-9.284-5.676-16.456-14.124-16.456-8.492,0-14.212,7.3-14.212,16.544v.088C117.964-6.644,123.552.528,132.088.528Zm.088-6.072c-4.4,0-7.26-4.532-7.26-10.472V-16.1c0-5.94,2.816-10.384,7.172-10.384s7.26,4.576,7.26,10.472v.088C139.348-10.032,136.576-5.544,132.176-5.544ZM163.592.528c8.536,0,14.212-7.3,14.212-16.544V-16.1c0-9.284-5.676-16.456-14.124-16.456-8.492,0-14.212,7.3-14.212,16.544v.088C149.468-6.644,155.056.528,163.592.528Zm.088-6.072c-4.4,0-7.26-4.532-7.26-10.472V-16.1c0-5.94,2.816-10.384,7.172-10.384s7.26,4.576,7.26,10.472v.088C170.852-10.032,168.08-5.544,163.68-5.544Z" transform="translate(647 2359.141)" fill="#333"/></g><g transform="translate(-345 66)"><rect width="325" height="50" rx="5" transform="translate(825 2118)" fill="#333"/><path d="M5,2A3,3,0,0,0,2,5V45a3,3,0,0,0,3,3H320a3,3,0,0,0,3-3V5a3,3,0,0,0-3-3H5M5,0H320a5,5,0,0,1,5,5V45a5,5,0,0,1-5,5H5a5,5,0,0,1-5-5V5A5,5,0,0,1,5,0Z" transform="translate(825 2118)" fill="#333"/><path d="M-142.5,0V-17.784h3.936l3.024,8.352q.288.792.552,1.668t.528,1.716h.12q.288-.84.552-1.716t.5-1.668l2.976-8.352h3.936V0h-3.24V-7.416q0-.864.072-1.9t.18-2.076q.108-1.044.2-1.86h-.1l-1.464,4.176-2.736,7.464h-2.04l-2.76-7.464-1.416-4.176h-.1q.1.816.192,1.86t.18,2.076q.084,1.032.084,1.9V0Zm21.672,0V-17.784h10.9v2.976h-7.344v4.1h6.216v2.976h-6.216v4.752h7.608V0Zm15.96,0V-17.784H-98.7a10.987,10.987,0,0,1,3.408.492,4.738,4.738,0,0,1,2.4,1.68A5.276,5.276,0,0,1-92-12.384a5.476,5.476,0,0,1-.888,3.228,5.137,5.137,0,0,1-2.4,1.848A9.341,9.341,0,0,1-98.7-6.72h-2.616V0Zm3.552-9.528h2.3a4.132,4.132,0,0,0,2.628-.72,2.572,2.572,0,0,0,.9-2.136,2.176,2.176,0,0,0-.9-2,4.992,4.992,0,0,0-2.628-.564h-2.3ZM-95.22,0l-4.128-7.632,2.5-2.208L-91.236,0Zm15.144.336A8.356,8.356,0,0,1-83.22-.252,7.248,7.248,0,0,1-85.8-2.016,8.379,8.379,0,0,1-87.552-4.9a11.145,11.145,0,0,1-.636-3.912,11.057,11.057,0,0,1,.648-3.924,8.569,8.569,0,0,1,1.788-2.916,7.672,7.672,0,0,1,2.64-1.824,8.2,8.2,0,0,1,3.18-.624,6.551,6.551,0,0,1,3.036.684,7.688,7.688,0,0,1,2.172,1.6l-1.848,2.256a5.783,5.783,0,0,0-1.476-1.08,3.947,3.947,0,0,0-1.812-.408,4.167,4.167,0,0,0-2.412.732,4.808,4.808,0,0,0-1.668,2.1,8.155,8.155,0,0,0-.6,3.288A8.78,8.78,0,0,0-83.976-5.6,4.717,4.717,0,0,0-82.368-3.48a4.089,4.089,0,0,0,2.436.744,4.208,4.208,0,0,0,2.052-.492,6.07,6.07,0,0,0,1.6-1.26l1.9,2.208a7.418,7.418,0,0,1-2.52,1.956A7.409,7.409,0,0,1-80.076.336ZM-63.708,0V-17.784h10.9v2.976h-7.344v4.1h6.216v2.976h-6.216v4.752h7.608V0Zm19.992.336A5.062,5.062,0,0,1-46.632-.5,5.373,5.373,0,0,1-48.54-2.928a9.68,9.68,0,0,1-.672-3.792,8.158,8.158,0,0,1,.8-3.756,6.292,6.292,0,0,1,2.1-2.436,4.852,4.852,0,0,1,2.736-.864,4.181,4.181,0,0,1,1.908.4,6.556,6.556,0,0,1,1.5,1.068l-.12-2.112v-4.728h3.528V0h-2.88L-39.9-1.392H-40A7.338,7.338,0,0,1-41.7-.168,4.279,4.279,0,0,1-43.716.336Zm.912-2.9a2.8,2.8,0,0,0,1.332-.324A3.812,3.812,0,0,0-40.284-3.96v-5.9a3.671,3.671,0,0,0-1.236-.78,3.781,3.781,0,0,0-1.284-.228,2.281,2.281,0,0,0-1.38.468,3.2,3.2,0,0,0-1.02,1.38,5.826,5.826,0,0,0-.384,2.256,7.193,7.193,0,0,0,.324,2.328,2.863,2.863,0,0,0,.948,1.4A2.448,2.448,0,0,0-42.8-2.568ZM-27.78.336a3.572,3.572,0,0,1-3.168-1.428,6.926,6.926,0,0,1-.984-3.972V-13.44h3.5V-5.5a3.855,3.855,0,0,0,.456,2.184,1.691,1.691,0,0,0,1.464.624,2.57,2.57,0,0,0,1.428-.4A5.374,5.374,0,0,0-23.8-4.368V-13.44h3.528V0h-2.88l-.264-1.944h-.1A7.831,7.831,0,0,1-25.38-.288,4.469,4.469,0,0,1-27.78.336Zm18.192,0A6.667,6.667,0,0,1-12.924-.5a6.044,6.044,0,0,1-2.352-2.412,7.794,7.794,0,0,1-.864-3.8,7.235,7.235,0,0,1,.948-3.8,6.455,6.455,0,0,1,2.52-2.412,7.1,7.1,0,0,1,3.4-.84,5.463,5.463,0,0,1,2.208.42,6.271,6.271,0,0,1,1.7,1.092l-1.68,2.232a3.6,3.6,0,0,0-.984-.648A2.653,2.653,0,0,0-9.084-10.9a3.208,3.208,0,0,0-1.812.516,3.321,3.321,0,0,0-1.2,1.452,5.356,5.356,0,0,0-.42,2.208,5.356,5.356,0,0,0,.42,2.208A3.385,3.385,0,0,0-10.92-3.06,2.972,2.972,0,0,0-9.2-2.544a3.27,3.27,0,0,0,1.392-.312,5.643,5.643,0,0,0,1.224-.768L-5.2-1.3A6.269,6.269,0,0,1-7.32-.06,7.021,7.021,0,0,1-9.588.336Zm11.016,0A4.1,4.1,0,0,1-.648-.18,3.568,3.568,0,0,1-2.04-1.608a4.277,4.277,0,0,1-.492-2.064A3.743,3.743,0,0,1-.684-7,14.035,14.035,0,0,1,5.2-8.616,3.372,3.372,0,0,0,4.956-9.8a1.776,1.776,0,0,0-.708-.828,2.468,2.468,0,0,0-1.332-.312,5,5,0,0,0-1.848.36A11.812,11.812,0,0,0-.78-9.648L-2.028-12a11.979,11.979,0,0,1,1.68-.888,12.557,12.557,0,0,1,1.872-.636,8.191,8.191,0,0,1,2.04-.252A5.589,5.589,0,0,1,6.42-13.1a4.15,4.15,0,0,1,1.728,1.992,8.166,8.166,0,0,1,.576,3.264V0H5.844L5.6-1.44h-.12A8.6,8.6,0,0,1,3.612-.168,4.815,4.815,0,0,1,1.428.336ZM2.6-2.424A2.7,2.7,0,0,0,3.96-2.772,5.907,5.907,0,0,0,5.2-3.744V-6.432A11.42,11.42,0,0,0,2.6-5.88a3.218,3.218,0,0,0-1.368.852A1.67,1.67,0,0,0,.828-3.936,1.331,1.331,0,0,0,1.32-2.784,2.122,2.122,0,0,0,2.6-2.424ZM17.844.336A4.661,4.661,0,0,1,15.276-.3,3.557,3.557,0,0,1,13.86-2.064a7.289,7.289,0,0,1-.432-2.616v-5.976h-1.9v-2.616l2.088-.168.408-3.624h2.9v3.624h3.336v2.784H16.932V-4.7a2.549,2.549,0,0,0,.48,1.7,1.715,1.715,0,0,0,1.368.552,2.7,2.7,0,0,0,.7-.1q.36-.1.624-.192l.6,2.568Q20.148,0,19.44.168A6.932,6.932,0,0,1,17.844.336ZM24.228,0V-13.44h3.528V0ZM26-15.624a2.092,2.092,0,0,1-1.488-.516,1.829,1.829,0,0,1-.552-1.4,1.838,1.838,0,0,1,.552-1.392A2.063,2.063,0,0,1,26-19.464a2.083,2.083,0,0,1,1.464.528,1.8,1.8,0,0,1,.576,1.392,1.79,1.79,0,0,1-.576,1.4A2.112,2.112,0,0,1,26-15.624ZM38.34.336A6.279,6.279,0,0,1,35.184-.5,6.4,6.4,0,0,1,32.8-2.916a7.46,7.46,0,0,1-.912-3.8,7.46,7.46,0,0,1,.912-3.8,6.4,6.4,0,0,1,2.388-2.412,6.279,6.279,0,0,1,3.156-.84,6.24,6.24,0,0,1,2.424.48,6.447,6.447,0,0,1,2.064,1.38,6.445,6.445,0,0,1,1.44,2.208A7.931,7.931,0,0,1,44.8-6.72a7.46,7.46,0,0,1-.912,3.8A6.4,6.4,0,0,1,41.5-.5,6.279,6.279,0,0,1,38.34.336Zm0-2.88a2.378,2.378,0,0,0,1.548-.516,3.134,3.134,0,0,0,.96-1.452,6.761,6.761,0,0,0,.324-2.208,6.761,6.761,0,0,0-.324-2.208,3.134,3.134,0,0,0-.96-1.452A2.378,2.378,0,0,0,38.34-10.9a2.378,2.378,0,0,0-1.548.516,3.134,3.134,0,0,0-.96,1.452,6.761,6.761,0,0,0-.324,2.208,6.761,6.761,0,0,0,.324,2.208,3.134,3.134,0,0,0,.96,1.452A2.378,2.378,0,0,0,38.34-2.544ZM48.948,0V-13.44h2.88l.264,1.776h.072a10.275,10.275,0,0,1,1.944-1.488,4.674,4.674,0,0,1,2.424-.624A3.572,3.572,0,0,1,59.7-12.348a6.926,6.926,0,0,1,.984,3.972V0H57.156V-7.944a3.941,3.941,0,0,0-.444-2.184,1.658,1.658,0,0,0-1.452-.624,2.63,2.63,0,0,0-1.428.384A8.04,8.04,0,0,0,52.476-9.24V0ZM71.772-13.512H92.82v5.256H90.012v-2.76H74.484v2.76H71.772Zm3.48,4.344H87.9V-6.5H75.252ZM90.012-20.52l1.944,2.328q-2.04.384-4.4.684t-4.9.516q-2.532.216-5.076.36t-4.944.192a5.62,5.62,0,0,0-.228-1.248,12.415,12.415,0,0,0-.4-1.2q2.376-.072,4.86-.216t4.872-.348q2.388-.2,4.5-.48T90.012-20.52ZM74.124-15.984l2.5-.7a13.394,13.394,0,0,1,.828,1.44,8.057,8.057,0,0,1,.564,1.392l-2.664.768a7.034,7.034,0,0,0-.48-1.416A16.105,16.105,0,0,0,74.124-15.984Zm6.336-.5L83-17.064q.36.744.684,1.608a7.572,7.572,0,0,1,.42,1.512l-2.712.672a8.956,8.956,0,0,0-.348-1.56A17.111,17.111,0,0,0,80.46-16.488Zm7.608-.624,3.048.72q-.408.768-.84,1.512t-.864,1.4q-.432.66-.792,1.164l-2.376-.672q.336-.6.684-1.308t.648-1.452Q87.876-16.488,88.068-17.112ZM86.844-9.168h.6l.5-.1,1.968,1.176a13.883,13.883,0,0,1-2.8,4.068,16.262,16.262,0,0,1-3.948,2.892A25.184,25.184,0,0,1,78.336.792,38.685,38.685,0,0,1,72.9,1.92a6.585,6.585,0,0,0-.432-.852q-.288-.492-.624-.96a6.158,6.158,0,0,0-.624-.756,43.4,43.4,0,0,0,5.256-.864,23.034,23.034,0,0,0,4.536-1.524,13.349,13.349,0,0,0,3.528-2.34,9.646,9.646,0,0,0,2.3-3.312ZM78.108-7.2a11.916,11.916,0,0,0,3.564,3.108,21.408,21.408,0,0,0,5.16,2.124A36.071,36.071,0,0,0,93.276-.84a5.375,5.375,0,0,0-.648.816q-.336.5-.636,1a9.626,9.626,0,0,0-.492.9A33.69,33.69,0,0,1,84.924.408,20.994,20.994,0,0,1,79.6-2.244a16.628,16.628,0,0,1-4.008-3.948Zm27.1-11.52H118.38v2.04H105.2ZM104.58-12.7h14.232v2.184H104.58Zm-.024,9.072h14.3v2.256h-14.3ZM107-6.552h9.6v1.8H107ZM105.66-15.72h12.192v1.992H105.66Zm2.064-4.68h2.568v8.664h-2.568Zm5.352,0h2.592v8.664h-2.592Zm-2.64,8.808h2.352V-2.3h-2.352Zm4.608,1.944h2.592V-.384a3.514,3.514,0,0,1-.216,1.392,1.6,1.6,0,0,1-.816.768,4.485,4.485,0,0,1-1.5.324q-.9.06-2.124.06a5.731,5.731,0,0,0-.24-1.128,9.545,9.545,0,0,0-.408-1.1q.7.024,1.38.036t.924.012a.544.544,0,0,0,.324-.108.38.38,0,0,0,.084-.276Zm-9.312,0H115.98v1.992h-7.824V2.16h-2.424ZM97.26-12.864h6.6v2.184h-6.6Zm.12-6.768h6.384v2.16H97.38ZM97.26-9.5h6.6V-7.32h-6.6ZM96.2-16.32h8.376v2.28H96.2ZM98.6-6.1h5.352V1.2H98.6V-1.08h2.952V-3.816H98.6Zm-1.416,0h2.376V2.136H97.188ZM125.244-20.28h2.64V2.088h-2.64Zm-3.648,7.9h9.84V-9.7H121.6Zm3.12,1.416,1.608.792q-.312,1.2-.72,2.532t-.912,2.652q-.5,1.32-1.056,2.484A12.912,12.912,0,0,1,122.46-.48a7.483,7.483,0,0,0-.348-1q-.228-.54-.48-1.068t-.468-.912a13.218,13.218,0,0,0,1.4-2.2q.684-1.308,1.26-2.712A20.536,20.536,0,0,0,124.716-10.968Zm3.144,1.392q.192.192.564.6t.828.924q.456.516.876,1.032t.768.924a7.413,7.413,0,0,1,.492.624l-1.752,2.256q-.24-.528-.624-1.236t-.84-1.464q-.456-.756-.888-1.428t-.744-1.1Zm-6.288-8.856,2.016-.528a19.3,19.3,0,0,1,.564,1.872q.252,1.008.42,1.968t.24,1.728l-2.16.576a13.832,13.832,0,0,0-.18-1.74q-.156-.972-.384-1.992A19.245,19.245,0,0,0,121.572-18.432Zm7.9-.648,2.424.528q-.288.984-.624,2.016t-.672,1.98q-.336.948-.624,1.668l-1.824-.528q.264-.768.516-1.764t.468-2.028Q129.348-18.24,129.468-19.08Zm9.1-1.32h2.688V2.136h-2.688ZM131.388-5.376l12.336-2.208.432,2.664L131.82-2.688Zm1.344-11.76,1.416-1.944q.672.384,1.4.888t1.392,1.032a7.477,7.477,0,0,1,1.044.984l-1.488,2.16a6.891,6.891,0,0,0-1-1.032q-.636-.552-1.356-1.1T132.732-17.136Zm-1.08,6.048L133-13.152a16.2,16.2,0,0,1,1.488.852q.768.492,1.464.984a7.6,7.6,0,0,1,1.128.948l-1.464,2.3a7.67,7.67,0,0,0-1.056-1q-.672-.54-1.428-1.08A16.793,16.793,0,0,0,131.652-11.088Z" transform="translate(989 2152)" fill="#fff"/></g></g><rect width="123" height="150" transform="translate(659 1233)" fill="#e84830" opacity="0.1"/><g transform="translate(-219 -1004)"><g transform="translate(39 -9)"><path d="M11.648-22.848a11.334,11.334,0,0,0-.3-1.28q-.176-.576-.336-1.152l4.512-.736q.064.48.144,1.2a12.245,12.245,0,0,0,.208,1.3q.064.448.288,1.664t.544,2.944q.32,1.728.72,3.728t.784,4.032q.384,2.032.752,3.856t.64,3.232q.272,1.408.4,2.08.16.7.384,1.536t.448,1.6l-4.64.832q-.128-.9-.192-1.712a10.608,10.608,0,0,0-.224-1.52q-.128-.64-.368-1.968t-.576-3.12q-.336-1.792-.72-3.808l-.768-4.032q-.384-2.016-.72-3.776t-.592-3.056Q11.776-22.3,11.648-22.848ZM2.912-18.784q.768-.032,1.5-.08t1.472-.144l1.984-.272q1.28-.176,2.944-.416t3.44-.528l3.44-.56q1.664-.272,2.96-.5l2.032-.352,1.6-.336q.832-.176,1.408-.336l.768,4.192q-.512.032-1.376.16t-1.568.224q-.864.128-2.256.352l-3.088.5q-1.7.272-3.456.544t-3.36.544q-1.6.272-2.816.464L6.72-15.04q-.768.16-1.44.3t-1.5.368Zm.032,9.408q.64-.032,1.616-.144t1.712-.208q.864-.128,2.3-.352t3.248-.512l3.728-.592q1.92-.3,3.744-.624t3.328-.576l2.432-.416q.928-.192,1.776-.384t1.488-.384l.864,4.224a15.014,15.014,0,0,0-1.552.176q-.912.144-1.84.3-1.024.16-2.56.416l-3.376.56q-1.84.3-3.76.608t-3.68.608q-1.76.3-3.168.528T7.04-5.76q-1.024.192-1.84.352t-1.36.32ZM45.44-20.32q.1.544.24,1.168t.272,1.264q.288.928.688,2.4t.88,3.232Q48-10.5,48.5-8.688t.976,3.456q.48,1.648.832,2.912t.544,1.936A3.967,3.967,0,0,1,51.1.384q.128.512.3,1.024t.3.832L47.36,3.328q-.1-.672-.224-1.408A9.7,9.7,0,0,0,46.784.512q-.192-.7-.544-2.032t-.8-3.024q-.448-1.7-.944-3.52t-.944-3.568Q43.1-13.376,42.7-14.8t-.656-2.224a8.546,8.546,0,0,0-.4-1.216q-.24-.576-.5-1.056ZM60.8-15.392a23.31,23.31,0,0,1-1.3,2.4q-.816,1.344-1.776,2.752t-1.92,2.672q-.96,1.264-1.824,2.192l-3.52-1.76a20.2,20.2,0,0,0,1.76-1.792q.928-1.056,1.744-2.128a12.2,12.2,0,0,0,1.2-1.84q-.352.064-1.328.256t-2.352.48l-2.992.624q-1.616.336-3.248.688t-3.1.656q-1.472.3-2.592.544t-1.7.368l-.992-3.84q.768-.064,1.472-.16t1.472-.224l1.36-.224q.976-.16,2.336-.416t2.928-.56q1.568-.3,3.168-.608t3.008-.576q1.408-.272,2.464-.48t1.536-.336a5.623,5.623,0,0,0,.864-.208,5.485,5.485,0,0,0,.768-.3Zm20.64-3.616q.224.512.592,1.456t.784,2.016q.416,1.072.736,2.032t.512,1.5l-3.84,1.344a13.354,13.354,0,0,0-.448-1.536q-.32-.928-.7-1.968t-.768-2q-.384-.96-.672-1.6Zm11.808,2.336q-.256.768-.432,1.312t-.336,1.024a30.674,30.674,0,0,1-1.664,4.848A21.4,21.4,0,0,1,88.128-4.96,23.839,23.839,0,0,1,83.056-.08a25.135,25.135,0,0,1-5.648,3.056L74.048-.448A21.691,21.691,0,0,0,77.76-1.872,23.911,23.911,0,0,0,81.536-4.16a16.712,16.712,0,0,0,3.136-2.976,16.569,16.569,0,0,0,1.936-3.152A23,23,0,0,0,88.016-14.1a23.693,23.693,0,0,0,.752-4.016Zm-19.232-.64q.32.608.72,1.568t.816,2.016q.416,1.056.816,2.048t.624,1.664l-3.9,1.472q-.192-.64-.56-1.664t-.816-2.16q-.448-1.136-.848-2.1a14.685,14.685,0,0,0-.688-1.472Zm33.792-8.032q.768.448,1.76,1.056L111.6-23.04q1.04.64,1.952,1.232t1.552,1.04l-2.4,3.552q-.64-.48-1.568-1.088t-1.92-1.248q-.992-.64-1.968-1.232t-1.776-1.04Zm-5.952,22.72q1.824-.32,3.664-.784a32.607,32.607,0,0,0,3.68-1.168,30.784,30.784,0,0,0,3.568-1.632,35.97,35.97,0,0,0,5.072-3.456,33.478,33.478,0,0,0,4.224-4.1,27.645,27.645,0,0,0,3.152-4.448l2.464,4.352a33.854,33.854,0,0,1-5.52,6.272,42.786,42.786,0,0,1-7.216,5.216A31.732,31.732,0,0,1,111.376-.64q-1.936.8-3.808,1.392a26.649,26.649,0,0,1-3.312.848Zm1.024-15.424q.8.448,1.808,1.04t2.032,1.232q1.024.64,1.936,1.216t1.52,1.024L107.84-9.952q-.7-.48-1.6-1.072t-1.9-1.248q-1.008-.656-1.984-1.232t-1.808-.992Zm51.968,2.784a3.4,3.4,0,0,0-.192.7q-.064.384-.128.64-.1.672-.272,1.856t-.384,2.608q-.208,1.424-.432,2.864t-.4,2.624q-.176,1.184-.3,1.888h-4.384q.128-.672.288-1.712t.368-2.272q.208-1.232.384-2.48t.3-2.3q.128-1.056.16-1.7h-8.64q-.768,0-1.648.048t-1.552.112v-4.224q.416.064.992.1l1.168.064q.592.032,1.008.032h8.192q.352,0,.832-.032a8.49,8.49,0,0,0,.928-.112,1.449,1.449,0,0,0,.608-.208ZM135.072-3.648q.64.064,1.488.112t1.68.048h16.768q.608,0,1.568-.032t1.568-.1V.512q-.32-.032-.88-.048L156.112.432q-.592-.016-1.04-.016H138.24q-.832,0-1.536.016t-1.632.08ZM188.16-25.536q.416.576.88,1.376t.912,1.6q.448.8.736,1.408l-2.56,1.12q-.512-.992-1.184-2.256a22.426,22.426,0,0,0-1.312-2.192Zm3.776-1.44q.416.608.912,1.424t.944,1.6q.448.784.736,1.328l-2.56,1.088q-.48-.992-1.2-2.24t-1.36-2.144ZM169.344-9.952q.544-1.344,1.04-2.832t.88-3.072q.384-1.584.688-3.152a28.923,28.923,0,0,0,.432-3.1l4.672.96q-.128.448-.288,1.056t-.288,1.184q-.128.576-.192.96-.16.832-.448,2.016t-.672,2.512q-.384,1.328-.784,2.656t-.816,2.448q-.576,1.536-1.36,3.2t-1.664,3.2q-.88,1.536-1.712,2.752l-4.48-1.888a34.169,34.169,0,0,0,2.864-4.384A35.044,35.044,0,0,0,169.344-9.952Zm15.808-.672q-.48-1.28-1.056-2.72t-1.216-2.88q-.64-1.44-1.248-2.72t-1.12-2.208l4.256-1.376q.48.928,1.12,2.24t1.28,2.768q.64,1.456,1.248,2.9t1.088,2.592q.416,1.056.912,2.5t1.024,2.992q.528,1.552.992,3.024t.784,2.656L188.48.672q-.416-1.888-.96-3.84t-1.136-3.84Q185.792-8.9,185.152-10.624ZM212-19.008q.224.512.592,1.456t.784,2.016q.416,1.072.736,2.032t.512,1.5l-3.84,1.344a13.356,13.356,0,0,0-.448-1.536q-.32-.928-.7-1.968t-.768-2q-.384-.96-.672-1.6Zm11.808,2.336q-.256.768-.432,1.312t-.336,1.024a30.674,30.674,0,0,1-1.664,4.848,21.394,21.394,0,0,1-2.688,4.528,23.839,23.839,0,0,1-5.072,4.88,25.135,25.135,0,0,1-5.648,3.056l-3.36-3.424a21.691,21.691,0,0,0,3.712-1.424A23.91,23.91,0,0,0,212.1-4.16a16.712,16.712,0,0,0,3.136-2.976,16.57,16.57,0,0,0,1.936-3.152,23,23,0,0,0,1.408-3.808,23.7,23.7,0,0,0,.752-4.016Zm-19.232-.64q.32.608.72,1.568t.816,2.016q.416,1.056.816,2.048t.624,1.664l-3.9,1.472q-.192-.64-.56-1.664t-.816-2.16q-.448-1.136-.848-2.1a14.681,14.681,0,0,0-.688-1.472ZM257.248-19.9q-.256.448-.544,1.072t-.512,1.232a32.506,32.506,0,0,1-1.168,3.216,33.767,33.767,0,0,1-1.856,3.744,28.437,28.437,0,0,1-2.544,3.728,30.341,30.341,0,0,1-5.36,4.992A34.045,34.045,0,0,1,237.7,2.112L233.92-1.28a30.707,30.707,0,0,0,5.632-2.208A25.3,25.3,0,0,0,243.68-6.16a24.173,24.173,0,0,0,3.136-3.024,17.362,17.362,0,0,0,2.048-2.832,28.283,28.283,0,0,0,1.6-3.152,13.573,13.573,0,0,0,.9-2.752H240.576l1.472-3.616H251.2a11.741,11.741,0,0,0,1.488-.1,6.335,6.335,0,0,0,1.3-.288ZM246.816-24.96q-.576.832-1.12,1.792t-.832,1.472a34.667,34.667,0,0,1-2.672,3.984,35.639,35.639,0,0,1-3.6,4,36.645,36.645,0,0,1-4.288,3.536l-3.616-2.656a30.877,30.877,0,0,0,3.728-2.688,26.373,26.373,0,0,0,2.8-2.736,26.6,26.6,0,0,0,2.032-2.624q.848-1.264,1.456-2.256a11.375,11.375,0,0,0,.8-1.584,14.693,14.693,0,0,0,.64-1.776Z" transform="translate(895 2367)" fill="#e84830"/><g transform="translate(-153 -392)"><path d="M-6.02-17.556v1.148H5.908v-1.148Zm0-3.164v1.12H5.908v-1.12ZM-9.24-22.9H9.268v8.68H-9.24Zm-3.3,9.688H12.488v2.66H-12.544ZM.308-9.52H9.464v2.576H.308Zm-8.54.084h6.356v2.324H-8.232Zm0,3.528h6.356v2.324H-8.232ZM3.724-7.2a11.576,11.576,0,0,0,3.6,4.424A15.025,15.025,0,0,0,13.1-.14q-.308.308-.7.77a10.46,10.46,0,0,0-.728.966q-.336.5-.56.9A15.766,15.766,0,0,1,5-.868,16.229,16.229,0,0,1,1.036-6.44ZM8.456-9.52h.616l.56-.084L11.7-8.82a17.075,17.075,0,0,1-2.38,5.11A15.813,15.813,0,0,1,5.7.014,19.321,19.321,0,0,1,1.092,2.492,9.2,9.2,0,0,0,.28,1.106,9.041,9.041,0,0,0-.728-.14,15.443,15.443,0,0,0,2.366-1.484,13.728,13.728,0,0,0,5.04-3.472,13.314,13.314,0,0,0,7.126-6.02a11.342,11.342,0,0,0,1.33-3ZM-12.8-1.848q1.428-.084,3.192-.21t3.724-.28q1.96-.154,3.948-.322V.084Q-4.76.336-7.546.6t-5,.462Zm9.212-10.5H-.392V2.52H-3.584Zm-6.748.056H-7.28V-.84h-3.052Zm-2.1,26.052h24.92v3.472h-24.92ZM1.96,15.16a27.311,27.311,0,0,0,2.324,5.964,18.782,18.782,0,0,0,3.682,4.844A16.557,16.557,0,0,0,13.1,29.244a7.752,7.752,0,0,0-.882.924q-.462.56-.9,1.162t-.714,1.078a18.683,18.683,0,0,1-5.53-3.892A21.688,21.688,0,0,1,1.2,22.958a39.968,39.968,0,0,1-2.632-7.014ZM-1.9,6.228H1.764q-.028,2.128-.126,4.494t-.434,4.8a30.256,30.256,0,0,1-1.078,4.83,20.657,20.657,0,0,1-2.072,4.592,18.611,18.611,0,0,1-3.416,4.1,21.268,21.268,0,0,1-5.082,3.36,10.236,10.236,0,0,0-1.092-1.484,8.63,8.63,0,0,0-1.428-1.344A19.152,19.152,0,0,0-8.176,26.6a16.222,16.222,0,0,0,3.15-3.668,17.3,17.3,0,0,0,1.862-4.116,24.043,24.043,0,0,0,.882-4.326q.238-2.184.294-4.284T-1.9,6.228Z" transform="translate(813 2730)" fill="#e84830"/><path d="M-63.47,0h19.14L-8.47-67.32V-80.08H-65.78v14.63h38.17ZM31.79,1.32c21.34,0,35.53-18.26,35.53-41.36v-.22c0-23.21-14.19-41.14-35.31-41.14C10.78-81.4-3.52-63.14-3.52-40.04v.22C-3.52-16.61,10.45,1.32,31.79,1.32Zm.22-15.18c-11,0-18.15-11.33-18.15-26.18v-.22c0-14.85,7.04-25.96,17.93-25.96S49.94-54.78,49.94-40.04v.22C49.94-25.08,43.01-13.86,32.01-13.86Z" transform="translate(900 2761)" fill="#e84830"/><path d="M17.4-28.028c8.162,0,13.629-6.468,13.629-14.322V-42.5c0-7.854-5.39-14.168-13.475-14.168S3.927-50.281,3.927-42.35v.154C3.927-34.342,9.394-28.028,17.4-28.028Zm14.553-2.079L9.548,0h9.24L37.345-25.949,59.752-56.056h-9.24ZM17.4-49.665c3.311,0,5.467,3.388,5.467,7.315v.154c0,3.773-1.848,7.084-5.313,7.084-3.234,0-5.467-3.311-5.467-7.238V-42.5C12.089-46.354,13.937-49.665,17.4-49.665ZM51.744.616c8.085,0,13.629-6.468,13.629-14.322v-.154c0-7.777-5.467-14.168-13.475-14.168-8.162,0-13.629,6.468-13.629,14.322v.154C38.269-5.7,43.659.616,51.744.616ZM51.9-6.391c-3.311,0-5.467-3.388-5.467-7.315v-.154c0-3.773,1.848-7.084,5.313-7.084,3.234,0,5.467,3.311,5.467,7.238v.154C57.211-9.779,55.363-6.391,51.9-6.391Z" transform="translate(972 2762)" fill="#e84830"/></g><g transform="translate(277 -37.141)"><path d="M1.6-15.72H17.28v2.38H4V1.78H1.6Zm14.54,0h2.42v14.7A3.861,3.861,0,0,1,18.32.49a1.7,1.7,0,0,1-.86.85,4.305,4.305,0,0,1-1.55.37q-.93.07-2.27.07a6.131,6.131,0,0,0-.2-.78Q13.3.56,13.12.13a7.251,7.251,0,0,0-.36-.75q.58.04,1.17.05t1.05.01h.64a.658.658,0,0,0,.4-.13.484.484,0,0,0,.12-.37ZM2.9-8.28H17.32v2.36H2.9Zm5.84-6.14h2.4V-7.1H8.74Z" transform="translate(836 2363.141)" fill="#333"/><path d="M-3.225-9.405v.615h6.39v-.615Zm0-1.695v.6h6.39v-.6ZM-4.95-12.27H4.965v4.65H-4.95ZM-6.72-7.08H6.69v1.425H-6.72ZM.165-5.1H5.07v1.38H.165Zm-4.575.045H-1V-3.81H-4.41Zm0,1.89H-1V-1.92H-4.41Zm6.4-.69a6.2,6.2,0,0,0,1.928,2.37,8.049,8.049,0,0,0,3.1,1.41Q6.855.09,6.645.338a5.6,5.6,0,0,0-.39.518q-.18.27-.3.48a8.446,8.446,0,0,1-3.277-1.8A8.694,8.694,0,0,1,.555-3.45ZM4.53-5.1h.33l.3-.045,1.11.42A9.147,9.147,0,0,1,5-1.988a8.471,8.471,0,0,1-1.943,2A10.351,10.351,0,0,1,.585,1.335,4.929,4.929,0,0,0,.15.593,4.843,4.843,0,0,0-.39-.075,8.273,8.273,0,0,0,1.267-.8,7.354,7.354,0,0,0,2.7-1.86,7.133,7.133,0,0,0,3.818-3.225,6.076,6.076,0,0,0,4.53-4.83ZM-6.855-.99q.765-.045,1.71-.112t2-.15q1.05-.082,2.115-.173V.045Q-2.55.18-4.042.323T-6.72.57ZM-1.92-6.615H-.21V1.35H-1.92Zm-3.615.03H-3.9V-.45H-5.535ZM-6.66,7.3H6.69V9.16H-6.66Zm7.71.75a14.631,14.631,0,0,0,1.245,3.2,10.061,10.061,0,0,0,1.972,2.6A8.87,8.87,0,0,0,7.02,15.6a4.153,4.153,0,0,0-.472.495q-.248.3-.48.622t-.382.578A10.009,10.009,0,0,1,2.722,15.2,11.618,11.618,0,0,1,.645,12.227,21.412,21.412,0,0,1-.765,8.47ZM-1.02,3.265H.945Q.93,4.4.878,5.672T.645,8.245a16.209,16.209,0,0,1-.577,2.588,11.066,11.066,0,0,1-1.11,2.46,9.97,9.97,0,0,1-1.83,2.2,11.393,11.393,0,0,1-2.723,1.8,5.483,5.483,0,0,0-.585-.8,4.623,4.623,0,0,0-.765-.72,10.26,10.26,0,0,0,2.565-1.6,8.69,8.69,0,0,0,1.688-1.965,9.269,9.269,0,0,0,1-2.2A12.88,12.88,0,0,0-1.222,7.69q.128-1.17.158-2.3T-1.02,3.265Z" transform="translate(653 2348.141)" fill="#333"/><path d="M13.08.48c6.4,0,10.44-3.96,10.44-9.44v-.08c0-5.4-3.92-7.52-7.96-8.16l7.52-7.28v-4.64H3.48v5.28H15.16L8-16.56l1,3.88h2.6c3.64,0,5.88,1.4,5.88,3.88v.08c0,2.24-1.8,3.72-4.32,3.72-3,0-5.12-1.28-7.12-3.56l-4.24,4A13.99,13.99,0,0,0,13.08.48ZM40.96,0h5.88V-6.32H50.8v-5H46.84v-18h-5.2L25.6-10.68l1.04,4.36H40.96ZM32.84-11.32l8.12-9.56v9.56ZM64.32.4c6.4,0,11.2-3.16,11.2-8.52V-8.2c0-3.48-1.8-5.36-4.8-6.88a6.988,6.988,0,0,0,3.8-6.4v-.08c0-4.52-4.12-7.96-10.2-7.96-6.12,0-10.24,3.48-10.24,7.96v.08a6.952,6.952,0,0,0,3.84,6.4c-3.12,1.4-4.84,3.48-4.84,7.04v.08C53.08-2.92,57.88.4,64.32.4Zm0-17.56c-2.64,0-4.4-1.56-4.4-3.72v-.08c0-1.88,1.68-3.48,4.4-3.48s4.36,1.64,4.36,3.52v.08C68.68-18.68,66.92-17.16,64.32-17.16Zm0,12.48c-3.32,0-5.28-1.68-5.28-3.76v-.08c0-2.32,2.24-3.72,5.28-3.72,3,0,5.24,1.4,5.24,3.72v.08C69.56-6.32,67.6-4.68,64.32-4.68ZM77.4,6.6c4.8-.12,7.44-2.28,7.44-7.6V-6.48H78.36V0h2.48c.2,2.32-1.16,3.76-3.96,4.08ZM99.88.48c6.28,0,11.04-4.08,11.04-10v-.12c0-6-4.44-9.24-10.2-9.24a9.411,9.411,0,0,0-6.2,2.16h-.04c.2-2.8,1.52-7.32,6.12-7.32a8.9,8.9,0,0,1,6,2.4l3.24-4.76a13.316,13.316,0,0,0-9.04-3.2c-8.6,0-12.72,6.88-12.72,15.88v.08c0,5.8,1.32,8.88,3.44,11.04A11.173,11.173,0,0,0,99.88.48Zm-.24-5.24c-3.24,0-5.24-1.96-5.24-4.52v-.08c0-2.52,1.92-4.4,5.16-4.4,3.28,0,5.24,1.88,5.24,4.4v.12C104.8-6.68,102.92-4.76,99.64-4.76ZM126.72.48c7.76,0,12.92-6.64,12.92-15.04v-.08c0-8.44-5.16-14.96-12.84-14.96-7.72,0-12.92,6.64-12.92,15.04v.08C113.88-6.04,118.96.48,126.72.48Zm.08-5.52c-4,0-6.6-4.12-6.6-9.52v-.08c0-5.4,2.56-9.44,6.52-9.44s6.6,4.16,6.6,9.52v.08C133.32-9.12,130.8-5.04,126.8-5.04ZM155.36.48c7.76,0,12.92-6.64,12.92-15.04v-.08c0-8.44-5.16-14.96-12.84-14.96-7.72,0-12.92,6.64-12.92,15.04v.08C142.52-6.04,147.6.48,155.36.48Zm.08-5.52c-4,0-6.6-4.12-6.6-9.52v-.08c0-5.4,2.56-9.44,6.52-9.44s6.6,4.16,6.6,9.52v.08C161.96-9.12,159.44-5.04,155.44-5.04Z" transform="translate(663 2364.141)" fill="#333"/></g></g><path d="M7-8.26a1.011,1.011,0,0,1-.742-.308A1.011,1.011,0,0,1,5.95-9.31a1.011,1.011,0,0,1,.308-.742A1.011,1.011,0,0,1,7-10.36a1.011,1.011,0,0,1,.742.308,1.011,1.011,0,0,1,.308.742,1.011,1.011,0,0,1-.308.742A1.011,1.011,0,0,1,7-8.26ZM7-5.726l4.62-4.62.406.406L7.406-5.32,12.026-.7l-.406.406L7-4.914,2.366-.28,1.96-.686,6.594-5.32,1.974-9.94l.406-.406ZM4.06-5.32a1.011,1.011,0,0,1-.308.742,1.011,1.011,0,0,1-.742.308,1.011,1.011,0,0,1-.742-.308A1.011,1.011,0,0,1,1.96-5.32a1.011,1.011,0,0,1,.308-.742A1.011,1.011,0,0,1,3.01-6.37a1.011,1.011,0,0,1,.742.308A1.011,1.011,0,0,1,4.06-5.32Zm5.88,0a1.011,1.011,0,0,1,.308-.742,1.011,1.011,0,0,1,.742-.308,1.011,1.011,0,0,1,.742.308,1.011,1.011,0,0,1,.308.742,1.011,1.011,0,0,1-.308.742,1.011,1.011,0,0,1-.742.308,1.011,1.011,0,0,1-.742-.308A1.011,1.011,0,0,1,9.94-5.32ZM7-2.38a1.011,1.011,0,0,1,.742.308,1.011,1.011,0,0,1,.308.742,1.011,1.011,0,0,1-.308.742A1.011,1.011,0,0,1,7-.28a1.011,1.011,0,0,1-.742-.308A1.011,1.011,0,0,1,5.95-1.33a1.011,1.011,0,0,1,.308-.742A1.011,1.011,0,0,1,7-2.38ZM15.232,0V-1.064h2.3V-8.722H15.694v-.812a7.788,7.788,0,0,0,1.2-.308,5.9,5.9,0,0,0,.931-.42h.98v9.2H20.86V0Z" transform="translate(863 2296)" fill="#333"/><path d="M7-8.26a1.011,1.011,0,0,1-.742-.308A1.011,1.011,0,0,1,5.95-9.31a1.011,1.011,0,0,1,.308-.742A1.011,1.011,0,0,1,7-10.36a1.011,1.011,0,0,1,.742.308,1.011,1.011,0,0,1,.308.742,1.011,1.011,0,0,1-.308.742A1.011,1.011,0,0,1,7-8.26ZM7-5.726l4.62-4.62.406.406L7.406-5.32,12.026-.7l-.406.406L7-4.914,2.366-.28,1.96-.686,6.594-5.32,1.974-9.94l.406-.406ZM4.06-5.32a1.011,1.011,0,0,1-.308.742,1.011,1.011,0,0,1-.742.308,1.011,1.011,0,0,1-.742-.308A1.011,1.011,0,0,1,1.96-5.32a1.011,1.011,0,0,1,.308-.742A1.011,1.011,0,0,1,3.01-6.37a1.011,1.011,0,0,1,.742.308A1.011,1.011,0,0,1,4.06-5.32Zm5.88,0a1.011,1.011,0,0,1,.308-.742,1.011,1.011,0,0,1,.742-.308,1.011,1.011,0,0,1,.742.308,1.011,1.011,0,0,1,.308.742,1.011,1.011,0,0,1-.308.742,1.011,1.011,0,0,1-.742.308,1.011,1.011,0,0,1-.742-.308A1.011,1.011,0,0,1,9.94-5.32ZM7-2.38a1.011,1.011,0,0,1,.742.308,1.011,1.011,0,0,1,.308.742,1.011,1.011,0,0,1-.308.742A1.011,1.011,0,0,1,7-.28a1.011,1.011,0,0,1-.742-.308A1.011,1.011,0,0,1,5.95-1.33a1.011,1.011,0,0,1,.308-.742A1.011,1.011,0,0,1,7-2.38ZM14.616,0V-.756a31.75,31.75,0,0,0,2.653-2.576A10.228,10.228,0,0,0,18.816-5.5a4.206,4.206,0,0,0,.5-1.883,2.586,2.586,0,0,0-.2-1.05,1.566,1.566,0,0,0-.623-.721,2,2,0,0,0-1.064-.259,2.169,2.169,0,0,0-1.169.336,3.86,3.86,0,0,0-.959.854l-.742-.728a5.345,5.345,0,0,1,1.33-1.092,3.371,3.371,0,0,1,1.694-.406,3.213,3.213,0,0,1,1.589.371,2.609,2.609,0,0,1,1.036,1.05,3.263,3.263,0,0,1,.371,1.589,4.708,4.708,0,0,1-.511,2.072,10.677,10.677,0,0,1-1.414,2.135,25.353,25.353,0,0,1-2.107,2.219q.406-.028.847-.063t.833-.035H21.07V0Z" transform="translate(1042 2443)" fill="#333"/></g><path d="M129.5,0,259,72H0Z" transform="translate(850 1455) rotate(180)" fill="#e84830" opacity="0.1"/><path d="M600,92.256a1,1,0,0,1-.831-1.555l9.63-14.445-9.63-14.445a1,1,0,1,1,1.664-1.109l10,15a1,1,0,0,1,0,1.109l-10,15A1,1,0,0,1,600,92.256Z" transform="translate(361.5 1223.244)" fill="#333"/><path d="M610,92.256a1,1,0,0,1-.833-.445l-10-15a1,1,0,0,1,0-1.109l10-15a1,1,0,1,1,1.664,1.109L601.2,76.256l9.63,14.445A1,1,0,0,1,610,92.256Z" transform="translate(120 1223.244)" fill="#333"/></g></svg>