<svg xmlns="http://www.w3.org/2000/svg" width="236" height="550" viewBox="0 0 236 550"><g transform="translate(-70 -2547)"><g transform="translate(71 2547)"><rect width="235" height="130" rx="20" fill="#ffe632" opacity="0.15"/><path d="M20,2A18,18,0,0,0,2,20v90a18,18,0,0,0,18,18H215a18,18,0,0,0,18-18V20A18,18,0,0,0,215,2H20m0-2H215a20,20,0,0,1,20,20v90a20,20,0,0,1-20,20H20A20,20,0,0,1,0,110V20A20,20,0,0,1,20,0Z" fill="#ffe632" opacity="0.996"/></g><path d="M-43.792-9.968q-.056-.294-.126-.546t-.154-.49l1.778-.294q.028.21.063.511t.077.553q.042.182.133.707t.238,1.281q.147.756.322,1.638t.35,1.778q.175.9.329,1.694t.273,1.4q.119.6.175.868.07.308.161.665t.189.679L-41.79.8Q-41.846.42-41.881.07a5.392,5.392,0,0,0-.1-.658q-.042-.252-.147-.826t-.259-1.358l-.329-1.673q-.175-.889-.343-1.771l-.315-1.652q-.147-.77-.259-1.323T-43.792-9.968Zm-3.85,1.848q.308-.028.616-.049t.644-.049l.875-.119q.567-.077,1.288-.189l1.5-.231q.777-.119,1.505-.238t1.3-.217q.574-.1.9-.168t.665-.133q.329-.077.567-.147l.308,1.666q-.21.014-.56.063l-.658.091q-.364.056-.973.154l-1.344.217q-.735.119-1.512.238t-1.484.238q-.707.119-1.246.2t-.819.14q-.308.056-.595.119t-.637.147Zm-.014,4.088q.28-.014.679-.056t.707-.084l1.015-.154,1.435-.224q.8-.126,1.645-.266l1.645-.273q.8-.133,1.463-.252T-38-5.53q.406-.07.756-.154t.616-.154l.336,1.652a5.905,5.905,0,0,0-.644.077q-.378.063-.77.133-.462.07-1.141.182l-1.484.245q-.805.133-1.645.266t-1.617.266q-.777.133-1.393.231t-.966.168q-.434.084-.777.147a4.946,4.946,0,0,0-.567.133Zm18.2-4.774q.042.238.1.49t.112.532q.112.378.287,1.015t.392,1.407q.217.77.434,1.575t.427,1.54q.21.735.364,1.288t.238.833a2.334,2.334,0,0,1,.112.336q.056.21.126.413t.126.343l-1.708.434a5.84,5.84,0,0,0-.091-.588Q-28.6.5-28.686.224t-.238-.861q-.154-.581-.357-1.337t-.42-1.568q-.217-.812-.42-1.582T-30.492-6.5q-.168-.609-.28-.945a3.988,3.988,0,0,0-.168-.5q-.1-.238-.21-.448Zm6.72,2.1q-.224.448-.574,1.029t-.777,1.19q-.427.609-.847,1.148t-.784.931l-1.386-.7a9.484,9.484,0,0,0,.8-.812q.42-.476.791-.959a6.506,6.506,0,0,0,.567-.847l-.581.119-1.057.217-1.344.273q-.728.147-1.463.3t-1.4.287q-.665.133-1.162.238t-.735.161l-.378-1.5q.322-.028.616-.07t.63-.1l.588-.105q.434-.077,1.043-.189t1.3-.245l1.4-.266q.707-.133,1.337-.259l1.092-.217q.462-.091.658-.133.168-.042.35-.1a2.791,2.791,0,0,0,.308-.112ZM-9.87-10.794q-.014.28-.028.616t-.014.728v2.632a16.6,16.6,0,0,1-.105,2.009,8.555,8.555,0,0,1-.3,1.477,4.781,4.781,0,0,1-.5,1.113,6.48,6.48,0,0,1-.693.917,5.2,5.2,0,0,1-1.043.917,8.148,8.148,0,0,1-1.2.672,11.311,11.311,0,0,1-1.127.441l-1.3-1.386a8.336,8.336,0,0,0,1.869-.665A5.177,5.177,0,0,0-12.824-2.45a4.473,4.473,0,0,0,.595-.826,3.615,3.615,0,0,0,.35-.938,7.384,7.384,0,0,0,.161-1.176q.042-.658.042-1.526V-9.45q0-.392-.021-.728t-.063-.616Zm-6.482.112q-.014.238-.035.49t-.021.56v4.718q0,.266.021.6t.035.574h-1.834q.028-.182.049-.525t.021-.665v-4.7q0-.182-.014-.5t-.042-.553ZM6.272-9.464q-.1.112-.252.308a3.39,3.39,0,0,0-.238.336,12.754,12.754,0,0,1-.84,1.239,16.862,16.862,0,0,1-1.19,1.407A9.06,9.06,0,0,1,2.38-4.97l-1.3-1.036a6.84,6.84,0,0,0,.854-.623q.42-.357.791-.742a8.043,8.043,0,0,0,.644-.749,5.621,5.621,0,0,0,.427-.644H-3.7q-.434,0-.819.028t-.861.07V-10.43q.392.056.819.1t.861.042H3.99q.182,0,.434-.014t.5-.042a3.066,3.066,0,0,0,.357-.056ZM.6-7.6Q.6-6.538.553-5.558A10.991,10.991,0,0,1,.308-3.7,6.51,6.51,0,0,1-.308-2.044,5.959,5.959,0,0,1-1.449-.567,8.019,8.019,0,0,1-3.29.714L-4.76-.476A6.245,6.245,0,0,0-4.067-.77a4.38,4.38,0,0,0,.721-.448A5.06,5.06,0,0,0-2.2-2.233a4.085,4.085,0,0,0,.665-1.176A6.023,6.023,0,0,0-1.218-4.8a14.411,14.411,0,0,0,.084-1.6q0-.308-.014-.6a4.98,4.98,0,0,0-.07-.609Zm17.654-2.6a.81.81,0,0,0,.245.6.81.81,0,0,0,.595.245.833.833,0,0,0,.6-.245.8.8,0,0,0,.252-.6.8.8,0,0,0-.252-.6.833.833,0,0,0-.6-.245.81.81,0,0,0-.595.245A.81.81,0,0,0,18.256-10.206Zm-.8,0a1.591,1.591,0,0,1,.224-.826,1.71,1.71,0,0,1,.6-.6,1.554,1.554,0,0,1,.819-.224,1.58,1.58,0,0,1,.833.224,1.71,1.71,0,0,1,.595.6,1.591,1.591,0,0,1,.224.826,1.554,1.554,0,0,1-.224.819,1.729,1.729,0,0,1-.595.6,1.58,1.58,0,0,1-.833.224,1.554,1.554,0,0,1-.819-.224,1.729,1.729,0,0,1-.6-.6A1.554,1.554,0,0,1,17.458-10.206Zm1.554,1.064a3.081,3.081,0,0,0-.154.42q-.07.238-.126.462-.112.532-.294,1.176T18-5.747a12.086,12.086,0,0,1-.595,1.365,8.368,8.368,0,0,1-.777,1.246,10.736,10.736,0,0,1-1.449,1.547,10.88,10.88,0,0,1-1.848,1.3A12.342,12.342,0,0,1,11.046.7L9.674-.8a11.792,11.792,0,0,0,2.4-.833,8.6,8.6,0,0,0,1.764-1.127A9.7,9.7,0,0,0,15.162-4.1a6.824,6.824,0,0,0,.819-1.33,11.02,11.02,0,0,0,.567-1.456,8.522,8.522,0,0,0,.308-1.344H10.15q-.462,0-.889.014t-.693.042V-9.954q.21.028.49.056t.581.042q.3.014.525.014h6.622q.2,0,.469-.014a2.418,2.418,0,0,0,.525-.084Zm5.152-1.512a6.035,6.035,0,0,0,.665.056q.385.014.721.014h5.418q.336,0,.749-.014a6.208,6.208,0,0,0,.693-.056v1.638q-.266-.028-.672-.042t-.784-.014h-5.4q-.322,0-.707.014t-.679.042Zm9.394,3.962q-.07.126-.14.28a1.912,1.912,0,0,0-.1.252,15.418,15.418,0,0,1-.805,2.03,7.857,7.857,0,0,1-1.267,1.876,8.975,8.975,0,0,1-2.359,1.9A12.427,12.427,0,0,1,26.25.742L25-.672a10.708,10.708,0,0,0,2.8-.973,8.014,8.014,0,0,0,2.072-1.5,5.538,5.538,0,0,0,.952-1.3,7.106,7.106,0,0,0,.546-1.323H24.43q-.252,0-.693.014t-.861.056V-7.336l.84.056q.406.028.714.028h7.042a4.209,4.209,0,0,0,.574-.035,1.3,1.3,0,0,0,.392-.105Zm4.76-3.85q.364.252.854.623t1.008.791q.518.42.98.819a9,9,0,0,1,.756.721L40.642-6.3q-.266-.28-.693-.686t-.931-.833q-.5-.427-.994-.819a10.736,10.736,0,0,0-.882-.644Zm-1.6,9.352a15.017,15.017,0,0,0,2.114-.462,15.173,15.173,0,0,0,1.813-.665,15.54,15.54,0,0,0,1.5-.763,12.706,12.706,0,0,0,2.128-1.6,14.311,14.311,0,0,0,1.694-1.876,11.278,11.278,0,0,0,1.162-1.883L48.1-6.706A12.472,12.472,0,0,1,46.83-4.844a14.741,14.741,0,0,1-1.708,1.757,15.624,15.624,0,0,1-2.058,1.519q-.714.42-1.54.819a15.114,15.114,0,0,1-1.764.714,12.379,12.379,0,0,1-1.988.483ZM-42.49,9.3a13.074,13.074,0,0,0,1.421.133q.791.035,1.624.028t1.589-.056q.756-.049,1.316-.105v1.61q-.616.056-1.386.091t-1.575.035q-.805,0-1.575-.035t-1.4-.091Zm.952,5.908q-.084.364-.126.644a3.77,3.77,0,0,0-.042.56.946.946,0,0,0,.1.441.855.855,0,0,0,.35.343,2.113,2.113,0,0,0,.637.217,5.208,5.208,0,0,0,.98.077,16.332,16.332,0,0,0,1.771-.091,16.471,16.471,0,0,0,1.729-.287l.028,1.694a12.571,12.571,0,0,1-1.547.21q-.875.07-2.037.07a4.718,4.718,0,0,1-2.653-.595,1.892,1.892,0,0,1-.861-1.645,5.614,5.614,0,0,1,.063-.819q.063-.427.175-.945Zm-3.248-6.874q-.042.126-.112.357t-.126.455q-.056.224-.084.35-.056.308-.147.791t-.182,1.064q-.091.581-.168,1.183t-.133,1.162q-.056.56-.056.994,0,.294.021.6t.049.6q.112-.252.231-.532t.238-.553q.119-.273.217-.511l.8.616q-.2.56-.4,1.2T-45,17.334q-.161.574-.245.924-.028.154-.049.35a3.07,3.07,0,0,0-.021.308q0,.1.007.252t.021.294l-1.442.1a14.447,14.447,0,0,1-.378-1.925,18.955,18.955,0,0,1-.168-2.625q0-.784.07-1.589t.168-1.561q.1-.756.2-1.379t.168-1.043q.028-.28.07-.616t.056-.644Zm10.822,3.094q.392-.07.84-.189t.84-.231q.42-.126,1.113-.35t1.526-.455q.833-.231,1.7-.385a9.4,9.4,0,0,1,1.638-.154,5.253,5.253,0,0,1,2.24.462,3.835,3.835,0,0,1,1.589,1.337,3.733,3.733,0,0,1,.6,2.149,4.249,4.249,0,0,1-.364,1.771,4.521,4.521,0,0,1-1.043,1.442,6.312,6.312,0,0,1-1.645,1.092,10.516,10.516,0,0,1-2.184.728,15.556,15.556,0,0,1-2.632.343l-.728-1.652a17.128,17.128,0,0,0,2.646-.273,8.783,8.783,0,0,0,2.17-.679,3.927,3.927,0,0,0,1.47-1.148,2.652,2.652,0,0,0,.532-1.652,2.42,2.42,0,0,0-.315-1.232,2.213,2.213,0,0,0-.917-.861,3.14,3.14,0,0,0-1.47-.315,7.149,7.149,0,0,0-1.407.154q-.763.154-1.554.392t-1.533.511q-.742.273-1.358.532t-1.036.427ZM-17.3,9.06q-.042.224-.07.525t-.049.595l-.035.49q0,.448.007.959t.028,1.043q.021.532.063,1.064a11.528,11.528,0,0,0,.308,1.848,3.916,3.916,0,0,0,.525,1.246.927.927,0,0,0,.777.448.655.655,0,0,0,.483-.259,2.9,2.9,0,0,0,.434-.686,8.037,8.037,0,0,0,.364-.91q.161-.483.273-.931l1.26,1.5a10.364,10.364,0,0,1-.9,1.918,3.4,3.4,0,0,1-.931,1.029,1.8,1.8,0,0,1-1.008.315,2.254,2.254,0,0,1-1.393-.5,3.911,3.911,0,0,1-1.127-1.61,10.544,10.544,0,0,1-.672-2.975q-.07-.63-.1-1.344t-.042-1.358q-.007-.644-.007-1.064,0-.28-.021-.672a4.188,4.188,0,0,0-.091-.7Zm7.084.336a7.2,7.2,0,0,1,.756,1.148A12.84,12.84,0,0,1-8.8,11.986q.3.77.532,1.575t.378,1.575a13.978,13.978,0,0,1,.2,1.428l-1.638.644q-.084-.882-.273-1.883a18.054,18.054,0,0,0-.5-1.995,14.333,14.333,0,0,0-.728-1.883,6.646,6.646,0,0,0-.98-1.533Zm4.06.07q.42-.014.784-.035t.56-.035l1.043-.1q.637-.063,1.435-.133L-.63,9.011,1.246,8.85q.742-.056,1.456-.1l1.344-.091q.63-.042,1.12-.056v1.61q-.378,0-.875.014t-.98.049a4.843,4.843,0,0,0-.861.133,3.764,3.764,0,0,0-1.211.616,4.581,4.581,0,0,0-.959.987,4.79,4.79,0,0,0-.63,1.2,3.8,3.8,0,0,0-.224,1.267,3.013,3.013,0,0,0,.252,1.274,2.749,2.749,0,0,0,.693.931A3.867,3.867,0,0,0,1.4,17.32a5.991,5.991,0,0,0,1.26.378,9.494,9.494,0,0,0,1.372.154L3.458,19.56a8.174,8.174,0,0,1-1.68-.259,7.1,7.1,0,0,1-1.547-.6,5.131,5.131,0,0,1-1.267-.945A4.241,4.241,0,0,1-1.9,16.466a4.123,4.123,0,0,1-.315-1.652,5.137,5.137,0,0,1,.343-1.9,5.907,5.907,0,0,1,.861-1.519A5.132,5.132,0,0,1,.028,10.376q-.42.056-1,.119t-1.253.14q-.672.077-1.358.161t-1.309.189q-.623.105-1.1.2ZM14.966,9.41q-.154,1.078-.371,2.275a22.367,22.367,0,0,1-.581,2.415,13.373,13.373,0,0,1-.952,2.422,5.046,5.046,0,0,1-1.169,1.54,2.093,2.093,0,0,1-1.365.532,2.133,2.133,0,0,1-1.358-.5,3.528,3.528,0,0,1-1.015-1.407,5.223,5.223,0,0,1-.385-2.065,5.325,5.325,0,0,1,.49-2.254,6.185,6.185,0,0,1,1.351-1.89,6.307,6.307,0,0,1,2.016-1.3,6.579,6.579,0,0,1,2.5-.469,6.134,6.134,0,0,1,2.3.413,5.05,5.05,0,0,1,2.877,2.863,5.6,5.6,0,0,1,.392,2.1,5.5,5.5,0,0,1-.609,2.618,4.975,4.975,0,0,1-1.785,1.89,7.415,7.415,0,0,1-2.926.994L13.44,18.1q.392-.042.7-.1t.588-.112A4.991,4.991,0,0,0,16,17.418a4.022,4.022,0,0,0,1.043-.805,3.612,3.612,0,0,0,.707-1.134A3.889,3.889,0,0,0,18,14.03a4.407,4.407,0,0,0-.259-1.54,3.5,3.5,0,0,0-.763-1.225,3.432,3.432,0,0,0-1.225-.812,4.462,4.462,0,0,0-1.659-.287,4.68,4.68,0,0,0-4.4,2.856,3.749,3.749,0,0,0-.315,1.442A3.636,3.636,0,0,0,9.562,15.7a1.82,1.82,0,0,0,.455.742.83.83,0,0,0,.553.245.887.887,0,0,0,.616-.308,3.371,3.371,0,0,0,.609-.959,13.3,13.3,0,0,0,.609-1.659,21.593,21.593,0,0,0,.532-2.149,21.525,21.525,0,0,0,.322-2.247Zm13.076,1.834h5.1V12.6h-5.1Zm.014,3.332h5.1v1.358h-5.1Zm0,3.332h5.1V19.28h-5.1Zm-.728-10h6.524V20.036H32.34V9.34H28.77V20.106H27.328Zm-5.88,2.156H26.8V11.5H21.448Zm2.086-2.926h1.442V20.2H23.534Zm-.07,3.864.91.322q-.182.854-.441,1.757t-.595,1.771a17.332,17.332,0,0,1-.714,1.61,8.261,8.261,0,0,1-.8,1.288,4.924,4.924,0,0,0-.329-.721q-.217-.4-.4-.693a7.971,7.971,0,0,0,.735-1.085,14.285,14.285,0,0,0,.672-1.337q.315-.714.56-1.463T23.464,11.006Zm1.4,1.33a6.6,6.6,0,0,1,.455.483q.3.343.637.749t.623.749q.287.343.4.483l-.868,1.218q-.154-.294-.4-.7t-.532-.847q-.287-.441-.56-.819l-.455-.63Zm18.69-1.372.924-.98q.616.35,1.337.791t1.386.882a10.77,10.77,0,0,1,1.085.805L47.292,13.6a9.446,9.446,0,0,0-1.036-.84q-.644-.462-1.358-.938T43.554,10.964Zm.9,2.086h.756v2.1a2.953,2.953,0,0,0,.084.637,3.865,3.865,0,0,0,.287.8,4.076,4.076,0,0,0,.567.861,4.584,4.584,0,0,0,.924.819,6.575,6.575,0,0,0,1.358.693q-.2.252-.462.63a6.121,6.121,0,0,0-.406.644,4.988,4.988,0,0,1-1.246-.679,5.6,5.6,0,0,1-.931-.875,5.181,5.181,0,0,1-.616-.9,4.853,4.853,0,0,1-.329-.749,3.573,3.573,0,0,1-.35.749,5.306,5.306,0,0,1-.679.889,5.948,5.948,0,0,1-1.022.868,6.463,6.463,0,0,1-1.379.7,4.592,4.592,0,0,0-.231-.4q-.147-.231-.308-.455a2.971,2.971,0,0,0-.3-.364,6.565,6.565,0,0,0,1.463-.693,5.171,5.171,0,0,0,1.008-.84,4.264,4.264,0,0,0,.623-.868,3.491,3.491,0,0,0,.315-.812,2.914,2.914,0,0,0,.091-.651v-2.1Zm-.672-5.908h1.484a20.643,20.643,0,0,1-.217,2.282,6.392,6.392,0,0,1-.56,1.834,4.122,4.122,0,0,1-1.155,1.414,6.766,6.766,0,0,1-2.016,1.036,2.957,2.957,0,0,0-.343-.623,3.075,3.075,0,0,0-.483-.567,5.581,5.581,0,0,0,1.729-.819,3.252,3.252,0,0,0,.966-1.141,4.724,4.724,0,0,0,.441-1.5Q43.736,8.22,43.778,7.142ZM41.72,8.01l1.232.238a6.105,6.105,0,0,1-.378,1.421,3.394,3.394,0,0,1-.742,1.169l-1.176-.518A2.951,2.951,0,0,0,41.335,9.3,5.712,5.712,0,0,0,41.72,8.01Zm-.154,6.062,1.316.266a7.238,7.238,0,0,1-.469,1.575,3.508,3.508,0,0,1-.875,1.267l-1.218-.644a2.838,2.838,0,0,0,.791-1.064A6.21,6.21,0,0,0,41.566,14.072Zm5.11-6.146,1.456.462q-.35.616-.714,1.218t-.672,1.036l-1.12-.42a8,8,0,0,0,.4-.714q.2-.406.378-.826A7.333,7.333,0,0,0,46.676,7.926Zm.112,6.048,1.47.462q-.378.658-.763,1.316a10.082,10.082,0,0,1-.735,1.106l-1.148-.434q.21-.336.427-.763t.413-.875Q46.648,14.338,46.788,13.974ZM35.91,11.426H40.1v1.148H35.91ZM35.952,7.6h4.1V8.738h-4.1Zm-.042,5.712H40.1v1.148H35.91Zm-.672-3.85h5.32v1.2h-5.32Zm1.316,5.782H40.11v4.214H36.554v-1.2h2.268V16.452H36.554Zm-.672,0h1.274v4.788H35.882Z" transform="translate(160 2577)" fill="#333"/><g transform="translate(132 2610)"><path d="M133.381,1.265h.023a4.711,4.711,0,0,1-.021,9.422h-.022a4.711,4.711,0,0,1,.02-9.422Zm0,7.922a3.211,3.211,0,0,0,.014-6.422h-.016a3.211,3.211,0,0,0-.013,6.422Z" transform="translate(-84.066 -2.015)" fill="#333"/><path d="M115.165,54.2q-.035,0-.07,0a.75.75,0,0,1-.678-.816l1.451-15.738a2.666,2.666,0,0,0-5.248-.859l-.236.979,0,.015c-.264,1-.746,3.5-.751,3.529a.75.75,0,0,1-.653.6c-.953.107-2.817.261-4.068.348-.661.046-1.375.089-2.065.129-.656.039-1.276.076-1.822.114-.6.042-1.625.257-1.778,1.224a.75.75,0,1,1-1.481-.235,3.087,3.087,0,0,1,3.155-2.485c.554-.039,1.178-.076,1.838-.115.686-.041,1.4-.083,2.049-.128,1.026-.072,2.466-.189,3.46-.286.16-.81.464-2.309.665-3.073l.234-.971a4.166,4.166,0,0,1,8.2,1.346l-1.451,15.74A.75.75,0,0,1,115.165,54.2Z" transform="translate(-64.154 -22.61)" fill="#333"/><path d="M97.864,103.535a3.4,3.4,0,0,1-2.694-.981,1.49,1.49,0,0,1-.342-1.247c.851-4.278,2.068-10.49,2.7-13.915a3.715,3.715,0,0,1,1.5-2.374,5.55,5.55,0,0,1,2.728-.95l4.02-.428a.75.75,0,0,1,.159,1.492l-4.024.428H101.9c-.955.092-2.6.488-2.9,2.1-.63,3.424-1.844,9.622-2.7,13.9.058.1.451.467,1.559.467a2.7,2.7,0,0,0,2.218-1.329l1.822-6.963.708-2.763a2.368,2.368,0,0,1,2.294-1.78h5.547a.75.75,0,0,1,0,1.5h-5.547a.868.868,0,0,0-.841.653l-.709,2.766-1.824,6.972,0,.007a3.175,3.175,0,0,1-1.511,1.775A4.416,4.416,0,0,1,97.864,103.535Z" transform="translate(-62.253 -55.062)" fill="#333"/><path d="M135,70.587a.75.75,0,0,1,0-1.5l5.272-.011a1.974,1.974,0,0,0,1.969-1.8l1.3-14.188a.75.75,0,0,1,1.494.137l-1.3,14.188a3.482,3.482,0,0,1-3.46,3.164l-5.272.011Z" transform="translate(-87.661 -34.949)" fill="#333"/><path d="M100.486,71.871H90.078a.75.75,0,0,1,0-1.5h10.408a16.689,16.689,0,0,0,4.506-.619l.015,0a.75.75,0,0,1,.4,1.445l-.013,0A18.185,18.185,0,0,1,100.486,71.871Z" transform="translate(-58.729 -46.101)" fill="#333"/><path d="M0,9.7a.75.75,0,0,1-.75-.75V0A.75.75,0,0,1,0-.75.75.75,0,0,1,.75,0V8.949A.75.75,0,0,1,0,9.7Z" transform="translate(47.66 38.441)" fill="#333"/><path d="M7.389.75H0A.75.75,0,0,1-.75,0,.75.75,0,0,1,0-.75H7.389a.75.75,0,0,1,.75.75A.75.75,0,0,1,7.389.75Z" transform="translate(43.965 47.593)" fill="#333"/><path d="M15.4,1.265a4.711,4.711,0,0,1,.021,9.422H15.4a4.711,4.711,0,0,1-.021-9.422Zm0,7.922h.015A3.211,3.211,0,0,0,15.4,2.765h-.016A3.211,3.211,0,0,0,15.4,9.186Z" transform="translate(-8.082 -2.015)" fill="#333"/><path d="M15.156,54.2a.75.75,0,0,1-.746-.681L12.959,37.785a4.166,4.166,0,0,1,8.2-1.348l.234.971c.2.764.5,2.263.665,3.073.994.1,2.434.214,3.46.286.653.046,1.363.088,2.049.128.66.039,1.284.076,1.838.115A3.087,3.087,0,0,1,32.559,43.5a.75.75,0,0,1-1.481.235c-.153-.967-1.18-1.182-1.779-1.224-.546-.038-1.165-.075-1.822-.114-.69-.041-1.4-.083-2.065-.129-1.251-.088-3.115-.242-4.068-.348a.75.75,0,0,1-.653-.6c0-.025-.487-2.526-.751-3.529l0-.015-.236-.979a2.666,2.666,0,0,0-5.248.861L15.9,53.385a.75.75,0,0,1-.678.816C15.2,54.2,15.179,54.2,15.156,54.2Z" transform="translate(-9.535 -22.61)" fill="#333"/><path d="M38.292,103.535a4.417,4.417,0,0,1-2.155-.663,3.175,3.175,0,0,1-1.511-1.775l0-.007L32.8,94.122l-.71-2.77a.868.868,0,0,0-.841-.653H25.7a.75.75,0,0,1,0-1.5H31.25a2.368,2.368,0,0,1,2.294,1.78l.709,2.767,1.821,6.96a2.705,2.705,0,0,0,2.218,1.329c1.108,0,1.5-.364,1.559-.467-.851-4.282-2.066-10.48-2.7-13.9-.3-1.614-1.943-2.011-2.9-2.1H34.25l-4.024-.428a.75.75,0,0,1,.159-1.492l4.02.428a5.55,5.55,0,0,1,2.728.95,3.715,3.715,0,0,1,1.5,2.374c.63,3.426,1.847,9.637,2.7,13.915a1.489,1.489,0,0,1-.342,1.247A3.4,3.4,0,0,1,38.292,103.535Z" transform="translate(-17.27 -55.062)" fill="#333"/><path d="M11.3,70.587h0L6.03,70.576a3.482,3.482,0,0,1-3.46-3.164l-1.3-14.188a.75.75,0,0,1,1.494-.137l1.3,14.188a1.974,1.974,0,0,0,1.969,1.8l5.272.011a.75.75,0,0,1,0,1.5Z" transform="translate(-2.014 -34.949)" fill="#333"/><path d="M51.732,71.871H35.256a18.189,18.189,0,0,1-4.91-.675l-.011,0a.75.75,0,0,1,.4-1.445l.013,0a16.693,16.693,0,0,0,4.507.62H51.732a.75.75,0,0,1,0,1.5Z" transform="translate(-20.382 -46.101)" fill="#333"/><path d="M0,9.7a.75.75,0,0,1-.75-.75V0A.75.75,0,0,1,0-.75.75.75,0,0,1,.75,0V8.949A.75.75,0,0,1,0,9.7Z" transform="translate(8.972 38.441)" fill="#333"/><path d="M7.389.75H0A.75.75,0,0,1-.75,0,.75.75,0,0,1,0-.75H7.389a.75.75,0,0,1,.75.75A.75.75,0,0,1,7.389.75Z" transform="translate(5.278 47.593)" fill="#333"/></g><rect width="235" height="130" rx="20" transform="translate(70 2687)" fill="#ffe632" opacity="0.15"/><path d="M20,2A18,18,0,0,0,2,20v90a18,18,0,0,0,18,18H215a18,18,0,0,0,18-18V20A18,18,0,0,0,215,2H20m0-2H215a20,20,0,0,1,20,20v90a20,20,0,0,1-20,20H20A20,20,0,0,1,0,110V20A20,20,0,0,1,20,0Z" transform="translate(70 2687)" fill="#ffe632" opacity="0.996"/><path d="M-58.324-10.206a.81.81,0,0,0,.245.6.81.81,0,0,0,.6.245.833.833,0,0,0,.6-.245.8.8,0,0,0,.252-.6.8.8,0,0,0-.252-.6.833.833,0,0,0-.6-.245.81.81,0,0,0-.6.245A.81.81,0,0,0-58.324-10.206Zm-.8,0a1.591,1.591,0,0,1,.224-.826,1.71,1.71,0,0,1,.6-.6,1.554,1.554,0,0,1,.819-.224,1.58,1.58,0,0,1,.833.224,1.71,1.71,0,0,1,.6.6,1.591,1.591,0,0,1,.224.826,1.554,1.554,0,0,1-.224.819,1.729,1.729,0,0,1-.6.6,1.58,1.58,0,0,1-.833.224,1.554,1.554,0,0,1-.819-.224,1.729,1.729,0,0,1-.6-.6A1.554,1.554,0,0,1-59.122-10.206Zm1.554,1.064a3.081,3.081,0,0,0-.154.42q-.07.238-.126.462-.112.532-.294,1.176t-.434,1.337a12.086,12.086,0,0,1-.595,1.365,8.368,8.368,0,0,1-.777,1.246A10.736,10.736,0,0,1-61.4-1.589a10.88,10.88,0,0,1-1.848,1.3A12.342,12.342,0,0,1-65.534.7L-66.906-.8a11.792,11.792,0,0,0,2.4-.833,8.6,8.6,0,0,0,1.764-1.127A9.7,9.7,0,0,0-61.418-4.1a6.824,6.824,0,0,0,.819-1.33,11.021,11.021,0,0,0,.567-1.456,8.522,8.522,0,0,0,.308-1.344H-66.43q-.462,0-.889.014t-.693.042V-9.954q.21.028.49.056t.581.042q.3.014.525.014h6.622q.2,0,.469-.014A2.418,2.418,0,0,0-58.8-9.94Zm3.836-.7q.42.014.777.021t.637.007h8.26q.364,0,.728-.014-.014.294-.021.637t-.007.651v6.86q0,.2.007.5t.007.6q0,.3.007.525T-43.33.2h-1.736a2.064,2.064,0,0,0,.014-.343q0-.3.014-.7t.014-.763V-8.218h-7.014v7.14q0,.294.007.567t.007.469V.2h-1.722q0-.042.007-.245t.014-.5q.007-.3.007-.6V-9.191Q-53.718-9.548-53.732-9.842Zm9.338,7.672v1.6h-8.484v-1.6ZM-30.73-11.4q.182.252.385.6t.4.7q.2.35.336.616l-1.022.448q-.21-.434-.518-.987t-.588-.959Zm1.624-.616q.182.266.4.616t.42.693q.2.343.329.595l-1.022.448q-.21-.448-.525-.994a9.411,9.411,0,0,0-.609-.938ZM-29.568-8.4a3.5,3.5,0,0,0-.224.441q-.112.259-.2.5a12.6,12.6,0,0,1-.518,1.442,15.384,15.384,0,0,1-.819,1.645,12.441,12.441,0,0,1-1.113,1.631A13.043,13.043,0,0,1-34.762-.581a14.537,14.537,0,0,1-3.3,1.743L-39.55-.154a13.794,13.794,0,0,0,2.429-.959A10.579,10.579,0,0,0-35.308-2.3a12.029,12.029,0,0,0,1.4-1.344A9.027,9.027,0,0,0-33-4.928a12.34,12.34,0,0,0,.721-1.421A6.714,6.714,0,0,0-31.864-7.6h-4.844l.588-1.428h4.13a4.5,4.5,0,0,0,.623-.042,2.909,2.909,0,0,0,.511-.112Zm-4.592-2.184q-.238.35-.455.735t-.343.6a14.05,14.05,0,0,1-1.127,1.729,15.361,15.361,0,0,1-1.554,1.757A13.749,13.749,0,0,1-39.55-4.214L-40.964-5.25a11.3,11.3,0,0,0,1.631-1.155A11.325,11.325,0,0,0-38.1-7.63a12.326,12.326,0,0,0,.9-1.176q.371-.56.623-1.008a4.608,4.608,0,0,0,.329-.637,4.672,4.672,0,0,0,.259-.735Zm9.744-.07a6.035,6.035,0,0,0,.665.056q.385.014.721.014h5.418q.336,0,.749-.014a6.208,6.208,0,0,0,.693-.056v1.638q-.266-.028-.672-.042t-.784-.014h-5.4q-.322,0-.707.014t-.679.042Zm9.394,3.962q-.07.126-.14.28a1.912,1.912,0,0,0-.1.252,15.419,15.419,0,0,1-.805,2.03,7.857,7.857,0,0,1-1.267,1.876,8.975,8.975,0,0,1-2.359,1.9A12.427,12.427,0,0,1-22.33.742L-23.576-.672a10.708,10.708,0,0,0,2.8-.973A8.014,8.014,0,0,0-18.7-3.15a5.538,5.538,0,0,0,.952-1.3,7.106,7.106,0,0,0,.546-1.323H-24.15q-.252,0-.693.014T-25.7-5.7V-7.336l.84.056q.406.028.714.028h7.042a4.209,4.209,0,0,0,.574-.035,1.3,1.3,0,0,0,.392-.105Zm8.666-3.836-.273.665q-.147.357-.3.819-.126.378-.322.994T-7.686-6.7q-.238.735-.5,1.512t-.511,1.505q-.252.728-.462,1.323t-.364.945l-1.848.07q.182-.448.427-1.092t.511-1.414q.266-.77.532-1.575t.5-1.561q.238-.756.427-1.386t.3-1.022q.14-.518.2-.861t.1-.679Zm2.548,4.564Q-3.43-5.39-3-4.641t.861,1.568q.427.819.8,1.575t.609,1.33L-2.422.588Q-2.646-.028-3-.833t-.749-1.645q-.4-.84-.819-1.582a11.717,11.717,0,0,0-.8-1.246ZM-11.62-1.89q.49-.028,1.183-.077t1.491-.126q.8-.077,1.638-.168t1.638-.182q.8-.091,1.477-.175t1.155-.154l.392,1.6q-.5.07-1.225.154t-1.554.175q-.833.091-1.7.189L-8.82-.469q-.826.091-1.526.154T-11.522-.2q-.266.028-.6.077t-.672.091l-.294-1.848q.35.014.749.007T-11.62-1.89ZM.91-7.826H13.1v3h-1.47V-6.524H2.324V-4.83H.91Zm1.932,2.52H10.36V-3.92H2.842Zm8.652-6.622,1.022,1.218q-1.148.224-2.506.4t-2.821.3q-1.463.126-2.94.217T1.386-9.66a2.792,2.792,0,0,0-.126-.665q-.112-.371-.21-.623,1.386-.042,2.828-.133t2.828-.21q1.386-.119,2.611-.287T11.494-11.928ZM2.254-9.394,3.57-9.758a8.017,8.017,0,0,1,.511.875,4.722,4.722,0,0,1,.343.833l-1.386.406a4.951,4.951,0,0,0-.308-.847A7.753,7.753,0,0,0,2.254-9.394Zm3.71-.294L7.294-10a9.988,9.988,0,0,1,.42.973,4.512,4.512,0,0,1,.252.917l-1.4.35a6.312,6.312,0,0,0-.224-.938A7.631,7.631,0,0,0,5.964-9.688Zm4.536-.336,1.582.392q-.238.448-.5.889t-.525.847q-.259.406-.5.714L9.338-7.56q.21-.336.427-.763t.413-.875Q10.374-9.646,10.5-10.024ZM9.8-5.306h.322l.266-.056,1.008.616A8.085,8.085,0,0,1,9.758-2.387,9.616,9.616,0,0,1,7.448-.7,15.013,15.013,0,0,1,4.627.427a23.355,23.355,0,0,1-3.157.679A3.026,3.026,0,0,0,1.246.665Q1.092.406.924.161A2.83,2.83,0,0,0,.6-.238,25.334,25.334,0,0,0,3.654-.77a13.5,13.5,0,0,0,2.66-.924,8.413,8.413,0,0,0,2.1-1.4A5.721,5.721,0,0,0,9.8-5.054ZM4.424-4.3a7,7,0,0,0,2.1,1.932A12.518,12.518,0,0,0,9.576-1.043a20.978,20.978,0,0,0,3.794.721,4.017,4.017,0,0,0-.329.42q-.175.252-.329.518t-.266.476a20.572,20.572,0,0,1-3.864-.9,12.085,12.085,0,0,1-3.136-1.6A9.93,9.93,0,0,1,3.108-3.766Zm15.26-6.524h7.644V-9.73H19.684ZM19.32-7.336h8.246v1.148H19.32Zm-.028,5.264h8.3v1.19h-8.3ZM20.706-3.78H26.32v.952H20.706ZM19.95-9.086h7.084v1.05H19.95Zm1.26-2.772h1.344v5.04H21.21Zm3.136,0H25.7v5.04H24.346Zm-1.568,5.1h1.246v5.39H22.778Zm2.716,1.176h1.372V-.14a1.854,1.854,0,0,1-.119.749.868.868,0,0,1-.455.413,2.57,2.57,0,0,1-.84.168q-.5.028-1.218.028a3.022,3.022,0,0,0-.133-.6,5.728,5.728,0,0,0-.217-.581q.434.014.84.021t.532.007a.306.306,0,0,0,.2-.063.247.247,0,0,0,.042-.161Zm-5.46,0H26v1.05h-4.69V1.218H20.034Zm-4.97-1.9h3.822v1.148H15.064Zm.084-3.906H18.83v1.134H15.148Zm-.084,5.852h3.822V-4.4H15.064Zm-.616-3.934h4.83v1.19h-4.83ZM15.764-3.57h3.178V.63H15.764V-.56h1.918V-2.38H15.764Zm-.728,0h1.246V1.2H15.036ZM34.3-9.7a13.074,13.074,0,0,0,1.421.133q.791.035,1.624.028T38.934-9.6q.756-.049,1.316-.105v1.61q-.616.056-1.386.091t-1.575.035q-.805,0-1.575-.035t-1.4-.091Zm.952,5.908q-.084.364-.126.644a3.77,3.77,0,0,0-.042.56.946.946,0,0,0,.1.441.855.855,0,0,0,.35.343,2.113,2.113,0,0,0,.637.217,5.208,5.208,0,0,0,.98.077A16.332,16.332,0,0,0,38.927-1.6a16.471,16.471,0,0,0,1.729-.287L40.684-.2a12.571,12.571,0,0,1-1.547.21q-.875.07-2.037.07a4.718,4.718,0,0,1-2.653-.6,1.892,1.892,0,0,1-.861-1.645,5.614,5.614,0,0,1,.063-.819q.063-.427.175-.945ZM32-10.668q-.042.126-.112.357t-.126.455q-.056.224-.084.35-.056.308-.147.791t-.182,1.064q-.091.581-.168,1.183t-.133,1.162Q31-4.746,31-4.312q0,.294.021.6t.049.6q.112-.252.231-.532t.238-.553q.119-.273.217-.511l.8.616q-.2.56-.4,1.2t-.364,1.218q-.161.574-.245.924-.028.154-.049.35a3.07,3.07,0,0,0-.021.308q0,.1.007.252T31.5.462l-1.442.1a14.446,14.446,0,0,1-.378-1.925,18.955,18.955,0,0,1-.168-2.625q0-.784.07-1.589T29.75-7.14q.1-.756.2-1.379t.168-1.043q.028-.28.07-.616t.056-.644Zm17.864-.49q-.028.182-.049.455t-.042.567q-.021.294-.035.546v2.352q0,.588.042,1.372t.084,1.61q.042.826.084,1.547t.042,1.169a2.727,2.727,0,0,1-.14.868,1.9,1.9,0,0,1-.469.749A2.256,2.256,0,0,1,48.5.6a4.313,4.313,0,0,1-1.379.189,6.336,6.336,0,0,1-1.8-.238,2.717,2.717,0,0,1-1.288-.777,2.07,2.07,0,0,1-.483-1.435,2.131,2.131,0,0,1,.413-1.274,2.75,2.75,0,0,1,1.246-.91,5.589,5.589,0,0,1,2.079-.336,9.11,9.11,0,0,1,2.1.238,10.191,10.191,0,0,1,1.9.644,11.638,11.638,0,0,1,1.624.9,10.319,10.319,0,0,1,1.267.98L53.228.07a11.67,11.67,0,0,0-1.19-1.029,10.7,10.7,0,0,0-1.463-.931A8.282,8.282,0,0,0,48.9-2.555a6.768,6.768,0,0,0-1.82-.245,2.84,2.84,0,0,0-1.407.287.87.87,0,0,0-.5.777.8.8,0,0,0,.5.77,3.053,3.053,0,0,0,1.309.238,1.329,1.329,0,0,0,1.008-.329A1.466,1.466,0,0,0,48.3-2.086q0-.378-.028-1.029t-.056-1.414q-.028-.763-.056-1.477t-.028-1.232q0-.42-.007-.84T48.118-8.9V-9.59q-.014-.322-.035-.623t-.042-.546a2.313,2.313,0,0,0-.063-.4Zm-.98,2.716q.322,0,.9-.014t1.26-.042q.686-.028,1.386-.077t1.288-.105l.056,1.5q-.588.056-1.3.091t-1.393.063Q50.4-7,49.819-6.986t-.917.014ZM58.73-10.57q.28.028.6.049t.588.021q.224,0,.686-.014t1.036-.028L62.8-10.57q.581-.014,1.043-.042l.7-.042q.392-.028.623-.063a2.261,2.261,0,0,0,.357-.077l.826,1.134q-.224.14-.462.294t-.462.322q-.28.2-.686.525t-.868.714q-.462.385-.91.749l-.812.658a3.6,3.6,0,0,1,.763-.161q.371-.035.749-.035a4.8,4.8,0,0,1,2.107.448,3.75,3.75,0,0,1,1.477,1.225,3.027,3.027,0,0,1,.546,1.785,3.6,3.6,0,0,1-.567,1.988A3.829,3.829,0,0,1,65.541.245,6.581,6.581,0,0,1,62.79.756,4.991,4.991,0,0,1,61.075.483,2.754,2.754,0,0,1,59.9-.287a1.737,1.737,0,0,1-.427-1.169,1.878,1.878,0,0,1,.3-1.022,2.224,2.224,0,0,1,.847-.77,2.617,2.617,0,0,1,1.26-.294,3.1,3.1,0,0,1,1.6.385,2.649,2.649,0,0,1,1,1.029,3.109,3.109,0,0,1,.378,1.386l-1.456.21a2.135,2.135,0,0,0-.434-1.3,1.329,1.329,0,0,0-1.092-.5,1,1,0,0,0-.679.224.669.669,0,0,0-.259.518.758.758,0,0,0,.427.672A2.2,2.2,0,0,0,62.5-.672a5.938,5.938,0,0,0,2-.294A2.589,2.589,0,0,0,65.73-1.82a2.176,2.176,0,0,0,.42-1.344,1.791,1.791,0,0,0-.392-1.141,2.589,2.589,0,0,0-1.064-.777,3.9,3.9,0,0,0-1.512-.28,5.314,5.314,0,0,0-1.512.2,5.487,5.487,0,0,0-1.288.567,7.236,7.236,0,0,0-1.169.889q-.567.525-1.169,1.169L56.91-3.71q.392-.308.882-.714l.994-.826q.5-.42.952-.8t.756-.63q.294-.238.7-.574t.84-.7l.826-.693q.392-.329.644-.553-.21,0-.574.021t-.8.035q-.434.014-.868.035t-.8.042l-.6.035q-.266.014-.553.035a5.232,5.232,0,0,0-.525.063ZM-30.87,8.206q-.014.28-.028.616t-.014.728v2.632a16.6,16.6,0,0,1-.1,2.009,8.555,8.555,0,0,1-.3,1.477,4.781,4.781,0,0,1-.5,1.113,6.48,6.48,0,0,1-.693.917,5.2,5.2,0,0,1-1.043.917,8.148,8.148,0,0,1-1.2.672,11.312,11.312,0,0,1-1.127.441l-1.3-1.386a8.336,8.336,0,0,0,1.869-.665,5.177,5.177,0,0,0,1.491-1.127,4.473,4.473,0,0,0,.595-.826,3.616,3.616,0,0,0,.35-.938,7.384,7.384,0,0,0,.161-1.176q.042-.658.042-1.526V9.55q0-.392-.021-.728t-.063-.616Zm-6.482.112q-.014.238-.035.49t-.021.56v4.718q0,.266.021.6t.035.574h-1.834q.028-.182.049-.525t.021-.665v-4.7q0-.182-.014-.5t-.042-.553ZM-16.464,9.55l-.217.35a2.94,2.94,0,0,0-.231.448q-.28.658-.707,1.484a18.183,18.183,0,0,1-.966,1.645,13.673,13.673,0,0,1-1.141,1.505,19.927,19.927,0,0,1-1.715,1.729,20.573,20.573,0,0,1-1.981,1.568A13.981,13.981,0,0,1-25.55,19.5l-1.3-1.344a12.72,12.72,0,0,0,2.2-1.1,16.989,16.989,0,0,0,1.974-1.435A15.562,15.562,0,0,0-21.1,14.1a11.364,11.364,0,0,0,.9-1.155,13.233,13.233,0,0,0,.763-1.253,6.3,6.3,0,0,0,.49-1.148h-4.942q-.28,0-.6.021t-.588.042q-.266.021-.406.021V8.836q.168.028.469.049t.609.035q.308.014.518.014h5.068a6.626,6.626,0,0,0,.784-.042,2.623,2.623,0,0,0,.546-.112Zm-3.08,4.382q.56.448,1.169,1.022t1.211,1.19q.6.616,1.113,1.183t.861.987l-1.428,1.232q-.5-.7-1.176-1.47t-1.414-1.54q-.742-.77-1.5-1.442Zm10.752-4.9q-.056-.294-.126-.546T-9.072,8L-7.294,7.7q.028.21.063.511t.077.553q.042.182.133.707t.238,1.281q.147.756.322,1.638t.35,1.778q.175.9.329,1.694t.273,1.4q.119.6.175.868.07.308.161.665t.189.679L-6.79,19.8q-.056-.378-.091-.728a5.392,5.392,0,0,0-.1-.658q-.042-.252-.147-.826t-.259-1.358l-.329-1.673q-.175-.889-.343-1.771l-.315-1.652q-.147-.77-.259-1.323T-8.792,9.032Zm-3.85,1.848q.308-.028.616-.049t.644-.049l.875-.119q.567-.077,1.288-.189l1.5-.231q.777-.119,1.505-.238t1.3-.217q.574-.1.9-.168t.665-.133q.329-.077.567-.147l.308,1.666q-.21.014-.56.063l-.658.091q-.364.056-.973.154l-1.344.217q-.735.119-1.512.238t-1.484.238q-.707.119-1.246.2t-.819.14q-.308.056-.6.119t-.637.147Zm-.014,4.088q.28-.014.679-.056t.707-.084l1.015-.154,1.435-.224q.8-.126,1.645-.266l1.645-.273q.8-.133,1.463-.252T-3,13.47q.406-.07.756-.154t.616-.154l.336,1.652a5.905,5.905,0,0,0-.644.077q-.378.063-.77.133-.462.07-1.141.182l-1.484.245q-.8.133-1.645.266t-1.617.266q-.777.133-1.393.231t-.966.168q-.434.084-.777.147a4.945,4.945,0,0,0-.567.133ZM11.13,8.206q-.014.28-.028.616t-.014.728v2.632a16.6,16.6,0,0,1-.105,2.009,8.555,8.555,0,0,1-.3,1.477,4.781,4.781,0,0,1-.5,1.113,6.48,6.48,0,0,1-.693.917,5.2,5.2,0,0,1-1.043.917,8.148,8.148,0,0,1-1.2.672,11.312,11.312,0,0,1-1.127.441l-1.3-1.386a8.336,8.336,0,0,0,1.869-.665A5.177,5.177,0,0,0,8.176,16.55a4.473,4.473,0,0,0,.595-.826,3.615,3.615,0,0,0,.35-.938,7.384,7.384,0,0,0,.161-1.176q.042-.658.042-1.526V9.55q0-.392-.021-.728T9.24,8.206Zm-6.482.112q-.014.238-.035.49t-.021.56v4.718q0,.266.021.6t.035.574H2.814q.028-.182.049-.525t.021-.665q0-.182,0-.553t0-.861q0-.49,0-1t0-.98q0-.469,0-.819t0-.49q0-.182-.014-.5t-.042-.553Zm12.67.14q.364.252.854.623t1.008.791q.518.42.98.819a9.006,9.006,0,0,1,.756.721L19.642,12.7q-.266-.28-.693-.686t-.931-.833q-.5-.427-.994-.819a10.735,10.735,0,0,0-.882-.644Zm-1.6,9.352a15.017,15.017,0,0,0,2.114-.462,15.173,15.173,0,0,0,1.813-.665,15.54,15.54,0,0,0,1.5-.763,12.706,12.706,0,0,0,2.128-1.6,14.311,14.311,0,0,0,1.694-1.876,11.278,11.278,0,0,0,1.162-1.883l.966,1.736a12.472,12.472,0,0,1-1.274,1.862,14.741,14.741,0,0,1-1.708,1.757,15.624,15.624,0,0,1-2.058,1.519q-.714.42-1.54.819a15.114,15.114,0,0,1-1.764.714,12.379,12.379,0,0,1-1.988.483ZM38.85,7.6q.182.252.385.6t.4.7q.2.35.336.616l-1.022.448q-.21-.434-.518-.987t-.588-.959Zm1.624-.616q.182.266.4.616t.42.693q.2.343.329.595L40.6,9.34q-.21-.448-.525-.994a9.411,9.411,0,0,0-.609-.938ZM40.012,10.6a3.5,3.5,0,0,0-.224.441q-.112.259-.2.5a12.6,12.6,0,0,1-.518,1.442,15.384,15.384,0,0,1-.819,1.645,12.442,12.442,0,0,1-1.113,1.631,13.043,13.043,0,0,1-2.324,2.163,14.537,14.537,0,0,1-3.3,1.743L30.03,18.846a13.794,13.794,0,0,0,2.429-.959A10.579,10.579,0,0,0,34.272,16.7a12.029,12.029,0,0,0,1.4-1.344,9.027,9.027,0,0,0,.91-1.288,12.34,12.34,0,0,0,.721-1.421,6.714,6.714,0,0,0,.413-1.253H32.872L33.46,9.97h4.13a4.5,4.5,0,0,0,.623-.042,2.909,2.909,0,0,0,.511-.112ZM35.42,8.416q-.238.35-.455.735t-.343.6a14.05,14.05,0,0,1-1.127,1.729,15.361,15.361,0,0,1-1.554,1.757,13.749,13.749,0,0,1-1.911,1.554L28.616,13.75a11.241,11.241,0,0,0,2.863-2.38,12.326,12.326,0,0,0,.9-1.176q.371-.56.623-1.008a4.608,4.608,0,0,0,.329-.637,4.672,4.672,0,0,0,.259-.735Z" transform="translate(160 2716.719)" fill="#333"/><g transform="translate(141 2752.317)"><path d="M0,.759A.75.75,0,0,1-.75.009.75.75,0,0,1,0-.741L15.431-.75a.75.75,0,0,1,.75.75.75.75,0,0,1-.75.75L0,.759Z" transform="translate(16.098 11.659)" fill="#333"/><path d="M4.578,50.487A3.29,3.29,0,0,1,1.288,47.2L1.264,4.575A3.29,3.29,0,0,1,4.553,1.283l33.072-.019h0a3.291,3.291,0,0,1,3.291,3.289l0,12.837a.75.75,0,0,1-1.5,0l0-12.837a1.791,1.791,0,0,0-1.791-1.789h0L4.553,2.783A1.79,1.79,0,0,0,2.764,4.574L2.788,47.2a1.79,1.79,0,0,0,1.791,1.789l33.348-.019a1.79,1.79,0,0,0,1.789-1.792l0-9.244a.75.75,0,0,1,.75-.75h0a.75.75,0,0,1,.75.75l0,9.243a3.29,3.29,0,0,1-3.289,3.292L4.58,50.487Z" transform="translate(-2.014 -2.014)" fill="#333"/><path d="M22.771,35.454a.75.75,0,0,1-.57-.263L19.9,32.5a.75.75,0,1,1,1.14-.975L22.731,33.5l3.061-4.1a.75.75,0,0,1,1.2.9l-3.622,4.847a.75.75,0,0,1-.576.3Z" transform="translate(-14.427 -20.738)" fill="#333"/><path d="M0,.757A.75.75,0,0,1-.75.007.75.75,0,0,1,0-.743L12.225-.75a.75.75,0,0,1,.75.75.75.75,0,0,1-.75.75L0,.757Z" transform="translate(16.105 23.817)" fill="#333"/><path d="M22.792,72.572a.75.75,0,0,1-.57-.263l-2.3-2.688a.75.75,0,1,1,1.14-.975l1.689,1.975,3.061-4.1a.75.75,0,0,1,1.2.9L23.392,72.27a.75.75,0,0,1-.576.3Z" transform="translate(-14.441 -45.699)" fill="#333"/><path d="M0,.753A.75.75,0,0,1-.75,0,.75.75,0,0,1,0-.747l5.33,0A.75.75,0,0,1,6.08,0a.75.75,0,0,1-.75.75L0,.753Z" transform="translate(16.111 35.977)" fill="#333"/><path d="M22.812,109.689a.75.75,0,0,1-.57-.263l-2.3-2.688a.75.75,0,1,1,1.14-.975l1.689,1.975,3.061-4.1a.75.75,0,0,1,1.2.9l-3.622,4.847a.75.75,0,0,1-.576.3Z" transform="translate(-14.455 -70.659)" fill="#333"/><path d="M91.9,72.737a.75.75,0,0,1-.507-.2l-2.521-2.313a.75.75,0,1,1,1.014-1.105l1.968,1.806,13.9-15.175-3.459-3.174a.178.178,0,0,0-.251.011L87.76,68.185a.75.75,0,0,1-1.106-1.013l14.282-15.6a1.678,1.678,0,0,1,2.371-.1l4.011,3.681a.75.75,0,0,1,.046,1.059L92.455,72.493a.75.75,0,0,1-.521.243Z" transform="translate(-59.304 -35.481)" fill="#333"/><path d="M134.046,73.659a.75.75,0,0,1-.553-1.257l5.334-5.819a1.32,1.32,0,0,0-.081-1.862l-1.183-1.085a.75.75,0,1,1,1.014-1.106l1.183,1.085a2.822,2.822,0,0,1,.173,3.98l-5.334,5.82A.748.748,0,0,1,134.046,73.659Z" transform="translate(-90.802 -43.082)" fill="#333"/><path d="M81.3,108.123a1.6,1.6,0,0,1-1.5-2.149l2.16-5.911a.75.75,0,0,1,1.409.515l-2.16,5.911a.1.1,0,0,0,.135.124l5.7-2.664a.75.75,0,0,1,.635,1.359l-5.7,2.664A1.6,1.6,0,0,1,81.3,108.123Z" transform="translate(-54.76 -68.123)" fill="#333"/><path d="M143.557,47.4A.75.75,0,0,1,143,46.145l1.163-1.269a.16.16,0,0,0-.01-.226L142.352,43a.157.157,0,0,0-.115-.042.156.156,0,0,0-.11.051l-1.164,1.269a.75.75,0,0,1-1.106-1.014l1.163-1.269a1.66,1.66,0,0,1,2.345-.1l1.806,1.655a1.662,1.662,0,0,1,.1,2.345l-1.163,1.269A.748.748,0,0,1,143.557,47.4Z" transform="translate(-95.082 -29.041)" fill="#333"/></g><g transform="translate(71 2827)"><rect width="235" height="130" rx="20" fill="#ffe632" opacity="0.15"/><path d="M20,2A18,18,0,0,0,2,20v90a18,18,0,0,0,18,18H215a18,18,0,0,0,18-18V20A18,18,0,0,0,215,2H20m0-2H215a20,20,0,0,1,20,20v90a20,20,0,0,1-20,20H20A20,20,0,0,1,0,110V20A20,20,0,0,1,20,0Z" fill="#ffe632" opacity="0.996"/></g><path d="M-55.58-10.85h5.572v1.428H-55.58Zm-.56,3.962h6.622v1.414H-56.14Zm1.82.784,1.624.28q-.14.742-.308,1.519t-.35,1.54q-.182.763-.364,1.449t-.35,1.232l-1.358-.308q.168-.56.329-1.267t.315-1.477q.154-.77.273-1.533T-54.32-6.1ZM-56.5-.63q.77-.042,1.785-.112T-52.563-.9q1.141-.084,2.275-.154l.014,1.344q-1.05.1-2.114.2t-2.044.189q-.98.084-1.806.168ZM-52.276-3.3l1.288-.518a15.931,15.931,0,0,1,.707,1.5q.329.8.574,1.568A13.656,13.656,0,0,1-49.336.63l-1.386.56A11.047,11.047,0,0,0-51.051-.2q-.231-.777-.546-1.589A15.167,15.167,0,0,0-52.276-3.3Zm-10.052-7.168h6.076v1.3h-6.076Zm-.2,8.078h6.4v1.316h-6.4Zm2.548-9.45h1.414v4.032h-1.414Zm.14,4.018h1.12v3.948h.14V1.2h-1.4V-3.878h.14Zm-1.022,2.52v.952h3.22v-.952Zm0-1.946V-6.3h3.22v-.952ZM-62.02-8.316h5.6V-3.29h-5.6ZM-42.77-3.6h2.618V-2.59H-42.77Zm-.84-6.93h4.326v1.106H-43.61Zm-.322,3.08h8.484v1.176h-8.484Zm1.47,1.862h2.968v5h-2.968v-1.05h1.778v-2.9h-1.778Zm-.882,0h1.162V.238h-1.162Zm1.232-6.23h1.288v2.044h-1.288Zm5.25,6.118,1.218.266a13.585,13.585,0,0,1-1.736,3.9,9.977,9.977,0,0,1-2.7,2.765,1.864,1.864,0,0,0-.231-.308l-.329-.371a2.6,2.6,0,0,0-.308-.3A8.074,8.074,0,0,0-38.4-2.2,11.464,11.464,0,0,0-36.862-5.7Zm-6.426-3.514.966-.224a4.709,4.709,0,0,1,.287.938,7.334,7.334,0,0,1,.133.9l-1.036.252a4.6,4.6,0,0,0-.1-.9A9.709,9.709,0,0,0-43.288-9.212Zm5.488-1.554.994-.518a8.863,8.863,0,0,1,.826,1.141,8.019,8.019,0,0,1,.588,1.113l-1.05.588a6.577,6.577,0,0,0-.553-1.148A9.408,9.408,0,0,0-37.8-10.766ZM-40.754-9.45l1.162.224q-.168.49-.329.987t-.287.847l-.938-.224q.112-.392.231-.91A7.74,7.74,0,0,0-40.754-9.45Zm-7.6-1.848h4.788v1.316h-4.788ZM-47.18-8.33H-44.7V-7.1H-47.18Zm0,2.87H-44.7v1.232H-47.18Zm-.588-5.138h1.232v8.834h-1.232Zm2.31-.014h1.26V1.218h-1.26Zm-3.164,8.6q.742-.126,1.764-.308t2.086-.378l.112,1.274q-.966.21-1.932.413l-1.778.371Zm9.576-9.828h1.33q-.014,1.806.035,3.472t.133,3.087q.084,1.421.217,2.485a11.825,11.825,0,0,0,.3,1.659q.168.6.378.609.14,0,.238-.49a9.777,9.777,0,0,0,.14-1.372,2.993,2.993,0,0,0,.3.315,3.652,3.652,0,0,0,.378.308q.189.133.3.2A8.234,8.234,0,0,1-35.7.154a2.1,2.1,0,0,1-.5.826.8.8,0,0,1-.5.224,1.186,1.186,0,0,1-.973-.637,5.648,5.648,0,0,1-.658-1.778,21.245,21.245,0,0,1-.4-2.765q-.14-1.61-.21-3.6T-39.046-11.844Zm11.3,4.088h5.1V-6.4h-5.1Zm.014,3.332h5.1v1.358h-5.1Zm0,3.332h5.1V.28h-5.1Zm-.728-10h6.524V1.036H-23.45V-9.66h-3.57V1.106h-1.442Zm-5.88,2.156h5.348V-7.5h-5.348Zm2.086-2.926h1.442V1.2h-1.442Zm-.07,3.864.91.322q-.182.854-.441,1.757t-.595,1.771a17.331,17.331,0,0,1-.714,1.61,8.261,8.261,0,0,1-.8,1.288,4.924,4.924,0,0,0-.329-.721q-.217-.4-.4-.693a7.971,7.971,0,0,0,.735-1.085,14.284,14.284,0,0,0,.672-1.337q.315-.714.56-1.463T-32.326-7.994Zm1.4,1.33a6.6,6.6,0,0,1,.455.483q.3.343.637.749t.623.749q.287.343.4.483l-.868,1.218q-.154-.294-.4-.7t-.532-.847q-.287-.441-.56-.819l-.455-.63Zm18.69-1.372.924-.98q.616.35,1.337.791t1.386.882A10.769,10.769,0,0,1-7.5-6.538L-8.5-5.4a9.446,9.446,0,0,0-1.036-.84q-.644-.462-1.358-.938T-12.236-8.036Zm.9,2.086h.756v2.1a2.953,2.953,0,0,0,.084.637,3.866,3.866,0,0,0,.287.8,4.076,4.076,0,0,0,.567.861,4.584,4.584,0,0,0,.924.819,6.575,6.575,0,0,0,1.358.693q-.2.252-.462.63a6.12,6.12,0,0,0-.406.644A4.988,4.988,0,0,1-9.478.553a5.6,5.6,0,0,1-.931-.875,5.18,5.18,0,0,1-.616-.9,4.853,4.853,0,0,1-.329-.749,3.573,3.573,0,0,1-.35.749,5.306,5.306,0,0,1-.679.889A5.948,5.948,0,0,1-13.4.532a6.463,6.463,0,0,1-1.379.7,4.593,4.593,0,0,0-.231-.4Q-15.162.6-15.323.378a2.971,2.971,0,0,0-.3-.364,6.565,6.565,0,0,0,1.463-.693,5.171,5.171,0,0,0,1.008-.84,4.264,4.264,0,0,0,.623-.868,3.491,3.491,0,0,0,.315-.812,2.914,2.914,0,0,0,.091-.651v-2.1Zm-.672-5.908h1.484a20.643,20.643,0,0,1-.217,2.282,6.392,6.392,0,0,1-.56,1.834A4.122,4.122,0,0,1-12.46-6.328a6.766,6.766,0,0,1-2.016,1.036,2.957,2.957,0,0,0-.343-.623,3.075,3.075,0,0,0-.483-.567A5.581,5.581,0,0,0-13.573-7.3a3.252,3.252,0,0,0,.966-1.141,4.724,4.724,0,0,0,.441-1.5Q-12.054-10.78-12.012-11.858Zm-2.058.868,1.232.238a6.105,6.105,0,0,1-.378,1.421,3.394,3.394,0,0,1-.742,1.169l-1.176-.518A2.951,2.951,0,0,0-14.455-9.7,5.713,5.713,0,0,0-14.07-10.99Zm-.154,6.062,1.316.266a7.238,7.238,0,0,1-.469,1.575,3.508,3.508,0,0,1-.875,1.267l-1.218-.644a2.839,2.839,0,0,0,.791-1.064A6.21,6.21,0,0,0-14.224-4.928Zm5.11-6.146,1.456.462q-.35.616-.714,1.218t-.672,1.036l-1.12-.42a8,8,0,0,0,.4-.714q.2-.406.378-.826A7.333,7.333,0,0,0-9.114-11.074ZM-9-5.026l1.47.462q-.378.658-.763,1.316A10.082,10.082,0,0,1-9.03-2.142l-1.148-.434q.21-.336.427-.763t.413-.875Q-9.142-4.662-9-5.026ZM-19.88-7.574h4.186v1.148H-19.88Zm.042-3.822h4.1v1.134h-4.1Zm-.042,5.712h4.186v1.148H-19.88Zm-.672-3.85h5.32v1.2h-5.32Zm1.316,5.782h3.556V.462h-3.556v-1.2h2.268V-2.548h-2.268Zm-.672,0h1.274V1.036h-1.274ZM0-7.028A1.641,1.641,0,0,1,.861-6.8a1.77,1.77,0,0,1,.616.616,1.641,1.641,0,0,1,.231.861,1.652,1.652,0,0,1-.231.854,1.751,1.751,0,0,1-.616.623A1.641,1.641,0,0,1,0-3.612a1.652,1.652,0,0,1-.854-.231,1.733,1.733,0,0,1-.623-.623,1.652,1.652,0,0,1-.231-.854,1.641,1.641,0,0,1,.231-.861A1.751,1.751,0,0,1-.854-6.8,1.652,1.652,0,0,1,0-7.028ZM13.23-3.6h2.618V-2.59H13.23Zm-.84-6.93h4.326v1.106H12.39Zm-.322,3.08h8.484v1.176H12.068Zm1.47,1.862h2.968v5H13.538v-1.05h1.778v-2.9H13.538Zm-.882,0h1.162V.238H12.656Zm1.232-6.23h1.288v2.044H13.888ZM19.138-5.7l1.218.266a13.584,13.584,0,0,1-1.736,3.9,9.977,9.977,0,0,1-2.7,2.765,1.864,1.864,0,0,0-.231-.308L15.358.553a2.6,2.6,0,0,0-.308-.3A8.074,8.074,0,0,0,17.6-2.2,11.464,11.464,0,0,0,19.138-5.7ZM12.712-9.212l.966-.224a4.709,4.709,0,0,1,.287.938,7.334,7.334,0,0,1,.133.9l-1.036.252a4.6,4.6,0,0,0-.1-.9A9.71,9.71,0,0,0,12.712-9.212ZM18.2-10.766l.994-.518a8.864,8.864,0,0,1,.826,1.141,8.02,8.02,0,0,1,.588,1.113l-1.05.588a6.577,6.577,0,0,0-.553-1.148A9.409,9.409,0,0,0,18.2-10.766ZM15.246-9.45l1.162.224q-.168.49-.329.987t-.287.847l-.938-.224q.112-.392.231-.91A7.74,7.74,0,0,0,15.246-9.45ZM7.644-11.3h4.788v1.316H7.644ZM8.82-8.33H11.3V-7.1H8.82Zm0,2.87H11.3v1.232H8.82ZM8.232-10.6H9.464v8.834H8.232Zm2.31-.014H11.8V1.218h-1.26Zm-3.164,8.6q.742-.126,1.764-.308T11.228-2.7l.112,1.274q-.966.21-1.932.413L7.63-.644Zm9.576-9.828h1.33q-.014,1.806.035,3.472t.133,3.087q.084,1.421.217,2.485a11.825,11.825,0,0,0,.3,1.659q.168.6.378.609.14,0,.238-.49a9.777,9.777,0,0,0,.14-1.372,2.994,2.994,0,0,0,.3.315,3.652,3.652,0,0,0,.378.308q.189.133.3.2A8.234,8.234,0,0,1,20.3.154a2.1,2.1,0,0,1-.5.826.8.8,0,0,1-.5.224,1.186,1.186,0,0,1-.973-.637,5.649,5.649,0,0,1-.658-1.778,21.245,21.245,0,0,1-.4-2.765q-.14-1.61-.21-3.6T16.954-11.844Zm4.858,8.582H34.244V-2.03H21.812Zm.042-6.244H34.188v1.232H21.854Zm.574,2.478H33.656v1.176H22.428Zm.7,1.918H33v1.092h-9.87Zm4.1-1.33h1.5V1.218h-1.5ZM26-11.872h1.414v2.954H26Zm2.618,0h1.428V-9H28.616ZM26.922-2.73l1.19.546a8.917,8.917,0,0,1-1.6,1.344,13.387,13.387,0,0,1-2,1.106,14.739,14.739,0,0,1-2.142.77,3.085,3.085,0,0,0-.266-.427q-.168-.231-.35-.455a3.551,3.551,0,0,0-.35-.378,16.858,16.858,0,0,0,2.1-.6,12.784,12.784,0,0,0,1.946-.868A7.176,7.176,0,0,0,26.922-2.73Zm2.142-.028a6.743,6.743,0,0,0,1.043.812,9.1,9.1,0,0,0,1.344.707,13.936,13.936,0,0,0,1.54.553,16.63,16.63,0,0,0,1.617.392q-.154.154-.35.392t-.371.5q-.175.259-.287.455A12.352,12.352,0,0,1,31.969.511a12.825,12.825,0,0,1-1.547-.756,10.806,10.806,0,0,1-1.386-.945A7.975,7.975,0,0,1,27.9-2.3Zm2.772-8.974,1.568.378q-.322.574-.658,1.127t-.63.945L30.9-9.674a5.779,5.779,0,0,0,.357-.644q.175-.364.329-.735T31.836-11.732ZM29.988-8.75l1.582.378q-.28.49-.546.945t-.49.777L29.26-7q.2-.392.4-.875T29.988-8.75Zm-7.1-2.59,1.288-.434a11.321,11.321,0,0,1,.644,1.015,5.751,5.751,0,0,1,.462.987l-1.358.5a6.008,6.008,0,0,0-.427-1Q23.2-10.85,22.89-11.34Zm1.792,3.108,1.456-.238a6.839,6.839,0,0,1,.385.7A4.733,4.733,0,0,1,26.8-7.1l-1.526.28a5.091,5.091,0,0,0-.238-.686A6.65,6.65,0,0,0,24.682-8.232ZM42.266-.77h4.928V.56H42.266Zm-.7-3.92h6.37V1.148H46.48V-3.374H42.952V1.2H41.566Zm-.5-6.482H47.5V-9.8h-6.44Zm5.754,0h1.4l-.007.21q-.007.21-.021.336-.042,1.47-.1,2.4a10.611,10.611,0,0,1-.161,1.435,1.9,1.9,0,0,1-.273.728,1.273,1.273,0,0,1-.441.357,1.965,1.965,0,0,1-.567.147,4.792,4.792,0,0,1-.714.042q-.448,0-.952-.014a3.539,3.539,0,0,0-.147-.714,3,3,0,0,0-.287-.672q.448.042.847.049t.581.007a1.006,1.006,0,0,0,.266-.028.528.528,0,0,0,.2-.112,1.513,1.513,0,0,0,.168-.553q.07-.413.119-1.239t.091-2.17Zm-3.654.546h1.484a14.615,14.615,0,0,1-.259,1.694,6.238,6.238,0,0,1-.525,1.5A4.634,4.634,0,0,1,42.91-6.16a5.521,5.521,0,0,1-1.512.994,4.006,4.006,0,0,0-.4-.595,3.419,3.419,0,0,0-.5-.525,4.379,4.379,0,0,0,1.3-.8,3.5,3.5,0,0,0,.77-1.015,4.763,4.763,0,0,0,.4-1.19Q43.092-9.926,43.162-10.626ZM37.59-11.844l1.3.49q-.28.518-.581,1.092t-.6,1.085q-.3.511-.567.9l-1.008-.434a9.987,9.987,0,0,0,.532-.966q.266-.546.511-1.12T37.59-11.844Zm1.6,1.638,1.232.56q-.5.8-1.1,1.68t-1.19,1.687q-.6.8-1.127,1.421l-.882-.49q.392-.476.812-1.078t.833-1.26q.413-.658.777-1.309T39.186-10.206ZM35.42-8.638l.714-1.008a10.262,10.262,0,0,1,.77.7q.392.392.721.777a5.076,5.076,0,0,1,.511.693l-.784,1.162a4.6,4.6,0,0,0-.49-.749q-.322-.413-.7-.826T35.42-8.638Zm3.332,1.75.994-.42q.28.462.539,1t.448,1.043a6.215,6.215,0,0,1,.273.91l-1.064.476a7.288,7.288,0,0,0-.266-.924q-.182-.518-.42-1.071A9.8,9.8,0,0,0,38.752-6.888Zm-3.36,1.232q.952-.028,2.268-.084l2.674-.112-.014,1.19q-1.274.1-2.534.182t-2.268.154Zm3.668,2.2,1.064-.336q.266.588.518,1.3a10.049,10.049,0,0,1,.364,1.246l-1.12.392a9.966,9.966,0,0,0-.336-1.26Q39.312-2.842,39.06-3.458ZM36.05-3.7l1.246.224a16.417,16.417,0,0,1-.343,1.981A8.947,8.947,0,0,1,36.414.154q-.14-.084-.35-.189t-.427-.21a3.3,3.3,0,0,0-.385-.161,6.165,6.165,0,0,0,.511-1.512A17.627,17.627,0,0,0,36.05-3.7ZM37.6-5.012H38.92V1.232H37.6Zm18.34-5.334A10.889,10.889,0,0,1,54.53-8.512a16.237,16.237,0,0,1-1.953,1.757A17.081,17.081,0,0,1,50.3-5.278a2.782,2.782,0,0,0-.245-.413q-.161-.231-.336-.455a3.108,3.108,0,0,0-.343-.378A12.8,12.8,0,0,0,51.73-8.029a14.976,14.976,0,0,0,1.974-1.9,10.2,10.2,0,0,0,1.358-1.96h1.624A12.047,12.047,0,0,0,57.9-10.213a13.391,13.391,0,0,0,1.463,1.449,13.9,13.9,0,0,0,1.617,1.183,11.243,11.243,0,0,0,1.694.875,4.465,4.465,0,0,0-.532.651q-.252.371-.462.707a15.754,15.754,0,0,1-2.212-1.386,17.788,17.788,0,0,1-2.016-1.743A10.892,10.892,0,0,1,55.944-10.346Zm1.68,3.556h1.554V1.2H57.624Zm-4.872.07h1.54v1.806A13.969,13.969,0,0,1,54.2-3.36a6.66,6.66,0,0,1-.4,1.624,5.758,5.758,0,0,1-.917,1.568,6.184,6.184,0,0,1-1.659,1.386,2.948,2.948,0,0,0-.343-.371q-.217-.2-.455-.392a3.011,3.011,0,0,0-.448-.3,6.18,6.18,0,0,0,1.491-1.19,4.617,4.617,0,0,0,.826-1.3,5.551,5.551,0,0,0,.364-1.33,9.4,9.4,0,0,0,.091-1.288Z" transform="translate(160 2863.016)" fill="#333"/><g transform="translate(134 2883.224)"><path d="M74.163,11.5H74.15a3.812,3.812,0,0,1,.013-7.625h.013a3.812,3.812,0,0,1-.013,7.625Zm0-6.125A2.312,2.312,0,0,0,74.155,10h.008a2.312,2.312,0,0,0,.008-4.625Z" transform="translate(-48.108 -3.754)" fill="#333"/><path d="M86.123,47.309a.75.75,0,0,1-.447-1.353,2.053,2.053,0,0,0,.8-1.734v-.006c0-.042.218-4.2.218-5.791a2.591,2.591,0,0,0-1.94-2.7,18.083,18.083,0,0,0-4.506-.515.75.75,0,0,1,0-1.5h0a19.344,19.344,0,0,1,4.921.575A4.085,4.085,0,0,1,88.2,38.424c0,1.62-.209,5.657-.22,5.867a3.543,3.543,0,0,1-1.409,2.871A.747.747,0,0,1,86.123,47.309Z" transform="translate(-54.215 -23.662)" fill="#333"/><path d="M59.889,47.308a.747.747,0,0,1-.454-.154,3.3,3.3,0,0,1-1.324-2.772c0-.032,0-.063,0-.093-.012-.222-.219-4.249-.219-5.865a4.085,4.085,0,0,1,3.021-4.139,19.344,19.344,0,0,1,4.921-.575.75.75,0,1,1,0,1.5,18.084,18.084,0,0,0-4.506.515,2.591,2.591,0,0,0-1.94,2.7c0,1.589.215,5.75.218,5.791v.006q0,.051,0,.1a1.827,1.827,0,0,0,.735,1.635.75.75,0,0,1-.456,1.346Z" transform="translate(-39.793 -23.662)" fill="#333"/><path d="M75.45,71.011H72.073a1.965,1.965,0,0,1-1.963-1.963v-.381l-.252-17.955a.75.75,0,1,1,1.5-.021l.252,17.961s0,.007,0,.011v.386a.463.463,0,0,0,.463.463H75.45a.464.464,0,0,0,.463-.463v-.366q0-.009,0-.018l.435-17.981a.75.75,0,0,1,1.5.036l-.434,17.971v.357A1.965,1.965,0,0,1,75.45,71.011Z" transform="translate(-47.78 -34.497)" fill="#333"/><path d="M107,8.246h-.012A3.491,3.491,0,0,1,107,1.264h.013A3.491,3.491,0,0,1,107,8.246Zm0-5.482a1.991,1.991,0,0,0-.006,3.982H107A1.991,1.991,0,0,0,107,2.764Z" transform="translate(-70.229 -2.014)" fill="#333"/><path d="M117.859,40.15a.75.75,0,0,1-.475-1.331,2.075,2.075,0,0,0,.556-1.468V37.34c0-.037.216-3.758.216-5.176a2.267,2.267,0,0,0-1.68-2.34,15.971,15.971,0,0,0-4.034-.457.75.75,0,0,1,0-1.5h0a17.537,17.537,0,0,1,4.448.517,3.733,3.733,0,0,1,2.761,3.78c0,1.448-.206,5.044-.219,5.258a3.371,3.371,0,0,1-1.106,2.56A.747.747,0,0,1,117.859,40.15Z" transform="translate(-75.694 -19.763)" fill="#333"/><path d="M103.812,29.594a.75.75,0,0,1-.125-1.489c.385-.065.793-.118,1.215-.157.567-.052,1.166-.079,1.782-.081a.75.75,0,0,1,0,1.5c-.571,0-1.126.027-1.649.074-.383.035-.754.083-1.1.142A.755.755,0,0,1,103.812,29.594Z" transform="translate(-69.934 -19.763)" fill="#333"/><path d="M108.433,61.411H105.41a1.838,1.838,0,0,1-1.836-1.836v-.338l-.083-4a.75.75,0,0,1,1.5-.031l.083,4.006q0,.008,0,.016v.346a.336.336,0,0,0,.336.336h3.023a.336.336,0,0,0,.336-.336v-.328q0-.009,0-.018l.389-16.095a.75.75,0,1,1,1.5.036l-.389,16.085v.319A1.838,1.838,0,0,1,108.433,61.411Z" transform="translate(-70.22 -29.461)" fill="#333"/><path d="M42.556,8.246a3.491,3.491,0,0,1-.011-6.982h.012a3.491,3.491,0,0,1,.011,6.982Zm0-5.482H42.55a1.991,1.991,0,0,0,.006,3.982h.007a1.991,1.991,0,0,0-.006-3.982Z" transform="translate(-27.235 -2.014)" fill="#333"/><path d="M29.838,40.151a.747.747,0,0,1-.465-.162,3.309,3.309,0,0,1-1.223-2.567c-.012-.212-.219-3.81-.219-5.258a3.733,3.733,0,0,1,2.761-3.78,17.536,17.536,0,0,1,4.448-.517.75.75,0,1,1,0,1.5,15.969,15.969,0,0,0-4.034.458,2.267,2.267,0,0,0-1.679,2.339c0,1.418.215,5.139.217,5.176v.011a1.784,1.784,0,0,0,.655,1.462.75.75,0,0,1-.466,1.338Z" transform="translate(-19.807 -19.763)" fill="#333"/><path d="M51.29,29.594a.755.755,0,0,1-.127-.011c-.347-.059-.717-.107-1.1-.142-.523-.048-1.077-.073-1.649-.074a.75.75,0,0,1,0-1.5h0c.616,0,1.215.029,1.782.081.422.039.831.091,1.215.157a.75.75,0,0,1-.125,1.489Z" transform="translate(-32.973 -19.763)" fill="#333"/><path d="M43.774,61.411H40.751a1.838,1.838,0,0,1-1.836-1.836v-.319l-.389-16.085a.75.75,0,1,1,1.5-.036l.389,16.095q0,.009,0,.018v.328a.336.336,0,0,0,.336.336h3.023a.336.336,0,0,0,.336-.336V59.23q0-.008,0-.016l.083-4.006a.75.75,0,0,1,1.5.031l-.083,4v.338A1.838,1.838,0,0,1,43.774,61.411Z" transform="translate(-26.875 -29.461)" fill="#333"/><path d="M140.125,93.562a.75.75,0,0,1-.6-1.2l5.482-7.4a4.575,4.575,0,0,0,.877-3.3v-.071l-.326-12.966a.583.583,0,0,0-.637-.5,2.667,2.667,0,0,0-2.427,2.63l-.3,5.659a.75.75,0,0,1-1.5-.079l.3-5.669q0-.009,0-.018a4.144,4.144,0,0,1,3.77-4.015,2.083,2.083,0,0,1,2.285,1.86q0,.029,0,.057l.327,13.008s0,.01,0,.014v.078a6,6,0,0,1-1.151,4.178l-.014.019-5.49,7.407A.749.749,0,0,1,140.125,93.562Z" transform="translate(-94.162 -45.622)" fill="#333"/><path d="M98.551,118.446a.75.75,0,0,1-.75-.75v-2.774q0-.011,0-.023a8.035,8.035,0,0,1,1.519-4.718,8.689,8.689,0,0,1,6.135-3.973l3.883-4.611a3.371,3.371,0,0,1,4.706-.443,2.49,2.49,0,0,1,.421,3.436l-5.236,6.969a.75.75,0,1,1-1.2-.9l5.236-6.969a1,1,0,0,0-.168-1.372,1.879,1.879,0,0,0-2.612.246l-4.092,4.859a.729.729,0,0,1-.591.267,4.965,4.965,0,0,0-1.724.4,8.187,8.187,0,0,0-3.535,2.955,6.547,6.547,0,0,0-1.242,3.883V117.7A.75.75,0,0,1,98.551,118.446Z" transform="translate(-66.423 -68.155)" fill="#333"/><path d="M110.428,154.554a.75.75,0,0,1-.75-.75v-1.548a.642.642,0,0,0-.641-.642h0l-13.161,0a.642.642,0,0,0-.642.643l0,1.486a.75.75,0,0,1-1.5,0l0-1.486a2.142,2.142,0,0,1,2.142-2.146l13.161,0h0a2.142,2.142,0,0,1,2.141,2.142V153.8A.75.75,0,0,1,110.428,154.554Z" transform="translate(-63.708 -101.326)" fill="#333"/><path d="M8.523,93.562a.749.749,0,0,1-.6-.3L2.43,85.851l-.014-.019a6,6,0,0,1-1.151-4.178v-.078s0-.01,0-.014l.327-13.008q0-.029,0-.058a2.083,2.083,0,0,1,2.285-1.86,4.144,4.144,0,0,1,3.77,4.015q0,.009,0,.018l.3,5.669a.75.75,0,1,1-1.5.079l-.3-5.659a2.667,2.667,0,0,0-2.427-2.63.583.583,0,0,0-.637.5L2.766,81.663a4.575,4.575,0,0,0,.877,3.3l5.482,7.4a.75.75,0,0,1-.6,1.2Z" transform="translate(-2.014 -45.622)" fill="#333"/><path d="M31.745,118.446a.75.75,0,0,1-.75-.75v-2.763a6.547,6.547,0,0,0-1.242-3.883,8.187,8.187,0,0,0-3.535-2.956,4.965,4.965,0,0,0-1.724-.4.729.729,0,0,1-.591-.267l-4.093-4.859a1.879,1.879,0,0,0-2.611-.246,1,1,0,0,0-.168,1.372l5.236,6.969a.75.75,0,1,1-1.2.9l-5.236-6.969a2.491,2.491,0,0,1,.421-3.436,3.371,3.371,0,0,1,4.706.443l3.883,4.611a8.689,8.689,0,0,1,6.135,3.973,8.035,8.035,0,0,1,1.519,4.718q0,.011,0,.023V117.7A.75.75,0,0,1,31.745,118.446Z" transform="translate(-11.4 -68.155)" fill="#333"/><path d="M19.3,154.554a.75.75,0,0,1-.75-.75v-1.548a2.142,2.142,0,0,1,2.142-2.142h0l13.161,0A2.142,2.142,0,0,1,36,152.262l0,1.486a.75.75,0,0,1-.75.749h0a.75.75,0,0,1-.749-.751l0-1.486a.642.642,0,0,0-.642-.643l-13.161,0h0a.642.642,0,0,0-.642.642V153.8A.75.75,0,0,1,19.3,154.554Z" transform="translate(-13.548 -101.326)" fill="#333"/></g><g transform="translate(71 2967)"><rect width="235" height="130" rx="20" fill="#ffe632" opacity="0.15"/><path d="M20,2A18,18,0,0,0,2,20v90a18,18,0,0,0,18,18H215a18,18,0,0,0,18-18V20A18,18,0,0,0,215,2H20m0-2H215a20,20,0,0,1,20,20v90a20,20,0,0,1-20,20H20A20,20,0,0,1,0,110V20A20,20,0,0,1,20,0Z" fill="#ffe632" opacity="0.996"/></g><path d="M-64.792-9.968q-.056-.294-.126-.546t-.154-.49l1.778-.294q.028.21.063.511t.077.553q.042.182.133.707t.238,1.281q.147.756.322,1.638t.35,1.778q.175.9.329,1.694t.273,1.4q.119.6.175.868.07.308.161.665t.189.679L-62.79.8Q-62.846.42-62.881.07a5.392,5.392,0,0,0-.1-.658q-.042-.252-.147-.826t-.259-1.358l-.329-1.673q-.175-.889-.343-1.771l-.315-1.652q-.147-.77-.259-1.323T-64.792-9.968Zm-3.85,1.848q.308-.028.616-.049t.644-.049l.875-.119q.567-.077,1.288-.189l1.5-.231q.777-.119,1.505-.238t1.3-.217q.574-.1.9-.168t.665-.133q.329-.077.567-.147l.308,1.666q-.21.014-.56.063l-.658.091q-.364.056-.973.154l-1.344.217q-.735.119-1.512.238t-1.484.238q-.707.119-1.246.2t-.819.14q-.308.056-.6.119t-.637.147Zm-.014,4.088q.28-.014.679-.056t.707-.084l1.015-.154,1.435-.224q.8-.126,1.645-.266l1.645-.273q.8-.133,1.463-.252T-59-5.53q.406-.07.756-.154t.616-.154l.336,1.652a5.905,5.905,0,0,0-.644.077q-.378.063-.77.133-.462.07-1.141.182l-1.484.245q-.805.133-1.645.266t-1.617.266q-.777.133-1.393.231t-.966.168q-.434.084-.777.147a4.945,4.945,0,0,0-.567.133Zm18.2-4.774q.042.238.1.49t.112.532q.112.378.287,1.015t.392,1.407q.217.77.434,1.575t.427,1.54q.21.735.364,1.288t.238.833a2.335,2.335,0,0,1,.112.336q.056.21.126.413t.126.343l-1.708.434a5.841,5.841,0,0,0-.091-.588Q-49.6.5-49.686.224t-.238-.861q-.154-.581-.357-1.337t-.42-1.568q-.217-.812-.42-1.582T-51.492-6.5q-.168-.609-.28-.945a3.987,3.987,0,0,0-.168-.5q-.1-.238-.21-.448Zm6.72,2.1q-.224.448-.574,1.029t-.777,1.19q-.427.609-.847,1.148t-.784.931l-1.386-.7a9.483,9.483,0,0,0,.8-.812q.42-.476.791-.959a6.506,6.506,0,0,0,.567-.847l-.581.119-1.057.217-1.344.273q-.728.147-1.463.3t-1.4.287q-.665.133-1.162.238t-.735.161l-.378-1.5q.322-.028.616-.07t.63-.1l.588-.105q.434-.077,1.043-.189t1.3-.245l1.4-.266q.707-.133,1.337-.259l1.092-.217q.462-.091.658-.133.168-.042.35-.1a2.79,2.79,0,0,0,.308-.112Zm12.866-4.088q-.014.28-.028.616t-.014.728v2.632a16.6,16.6,0,0,1-.1,2.009,8.555,8.555,0,0,1-.3,1.477,4.781,4.781,0,0,1-.5,1.113,6.48,6.48,0,0,1-.693.917,5.2,5.2,0,0,1-1.043.917,8.148,8.148,0,0,1-1.2.672,11.312,11.312,0,0,1-1.127.441l-1.3-1.386a8.336,8.336,0,0,0,1.869-.665A5.177,5.177,0,0,0-33.824-2.45a4.473,4.473,0,0,0,.595-.826,3.616,3.616,0,0,0,.35-.938,7.384,7.384,0,0,0,.161-1.176q.042-.658.042-1.526V-9.45q0-.392-.021-.728t-.063-.616Zm-6.482.112q-.014.238-.035.49t-.021.56v4.718q0,.266.021.6t.035.574h-1.834q.028-.182.049-.525t.021-.665v-4.7q0-.182-.014-.5t-.042-.553Zm22.624,1.218q-.1.112-.252.308a3.39,3.39,0,0,0-.238.336,12.754,12.754,0,0,1-.84,1.239,16.862,16.862,0,0,1-1.19,1.407,9.06,9.06,0,0,1-1.372,1.2l-1.3-1.036a6.84,6.84,0,0,0,.854-.623q.42-.357.791-.742a8.043,8.043,0,0,0,.644-.749,5.621,5.621,0,0,0,.427-.644H-24.7q-.434,0-.819.028t-.861.07V-10.43q.392.056.819.1t.861.042h7.686q.182,0,.434-.014t.5-.042a3.066,3.066,0,0,0,.357-.056ZM-20.4-7.6q0,1.064-.049,2.044A10.991,10.991,0,0,1-20.692-3.7a6.51,6.51,0,0,1-.616,1.659A5.959,5.959,0,0,1-22.449-.567,8.019,8.019,0,0,1-24.29.714l-1.47-1.19a6.246,6.246,0,0,0,.693-.294,4.38,4.38,0,0,0,.721-.448A5.06,5.06,0,0,0-23.2-2.233a4.085,4.085,0,0,0,.665-1.176A6.023,6.023,0,0,0-22.218-4.8a14.412,14.412,0,0,0,.084-1.6q0-.308-.014-.6a4.98,4.98,0,0,0-.07-.609ZM-.728-9.464q-.1.112-.252.308a3.39,3.39,0,0,0-.238.336,12.754,12.754,0,0,1-.84,1.239,16.862,16.862,0,0,1-1.19,1.407A9.06,9.06,0,0,1-4.62-4.97l-1.3-1.036a6.84,6.84,0,0,0,.854-.623q.42-.357.791-.742a8.043,8.043,0,0,0,.644-.749,5.621,5.621,0,0,0,.427-.644H-10.7q-.434,0-.819.028t-.861.07V-10.43q.392.056.819.1t.861.042H-3.01q.182,0,.434-.014t.5-.042a3.066,3.066,0,0,0,.357-.056ZM-6.4-7.6q0,1.064-.049,2.044A10.991,10.991,0,0,1-6.692-3.7a6.51,6.51,0,0,1-.616,1.659A5.959,5.959,0,0,1-8.449-.567,8.019,8.019,0,0,1-10.29.714l-1.47-1.19a6.245,6.245,0,0,0,.693-.294,4.38,4.38,0,0,0,.721-.448A5.06,5.06,0,0,0-9.2-2.233a4.085,4.085,0,0,0,.665-1.176A6.023,6.023,0,0,0-8.218-4.8a14.412,14.412,0,0,0,.084-1.6q0-.308-.014-.6a4.98,4.98,0,0,0-.07-.609ZM6.986-8.246q.1.224.259.637t.336.882q.175.469.322.882t.217.651l-1.5.532a6.747,6.747,0,0,0-.2-.665q-.14-.413-.308-.868T5.782-7.07q-.168-.42-.28-.686Zm5.138.952q-.1.308-.168.525t-.126.413a14.845,14.845,0,0,1-.742,2.149A9.227,9.227,0,0,1,9.9-2.2,10.365,10.365,0,0,1,7.686-.091a11.283,11.283,0,0,1-2.45,1.323L3.92-.112A10.017,10.017,0,0,0,5.551-.749a10.077,10.077,0,0,0,1.631-1,7.517,7.517,0,0,0,1.358-1.3,7.079,7.079,0,0,0,.868-1.379,10.171,10.171,0,0,0,.63-1.659,9.79,9.79,0,0,0,.336-1.764ZM3.738-7.518q.126.266.3.679t.364.882q.189.469.357.9t.266.728L3.5-3.766q-.084-.266-.245-.721T2.9-5.432q-.2-.49-.371-.9a6.689,6.689,0,0,0-.3-.637Zm21.518-2.688a.81.81,0,0,0,.245.6.81.81,0,0,0,.595.245.833.833,0,0,0,.6-.245.8.8,0,0,0,.252-.6.8.8,0,0,0-.252-.6.833.833,0,0,0-.6-.245.81.81,0,0,0-.595.245A.81.81,0,0,0,25.256-10.206Zm-.8,0a1.591,1.591,0,0,1,.224-.826,1.71,1.71,0,0,1,.6-.6,1.554,1.554,0,0,1,.819-.224,1.58,1.58,0,0,1,.833.224,1.71,1.71,0,0,1,.595.6,1.591,1.591,0,0,1,.224.826,1.554,1.554,0,0,1-.224.819,1.729,1.729,0,0,1-.595.6,1.58,1.58,0,0,1-.833.224,1.554,1.554,0,0,1-.819-.224,1.729,1.729,0,0,1-.6-.6A1.554,1.554,0,0,1,24.458-10.206Zm1.554,1.064a3.081,3.081,0,0,0-.154.42q-.07.238-.126.462-.112.532-.294,1.176T25-5.747a12.086,12.086,0,0,1-.595,1.365,8.368,8.368,0,0,1-.777,1.246,10.736,10.736,0,0,1-1.449,1.547,10.88,10.88,0,0,1-1.848,1.3A12.342,12.342,0,0,1,18.046.7L16.674-.8a11.792,11.792,0,0,0,2.4-.833,8.6,8.6,0,0,0,1.764-1.127A9.7,9.7,0,0,0,22.162-4.1a6.824,6.824,0,0,0,.819-1.33,11.02,11.02,0,0,0,.567-1.456,8.522,8.522,0,0,0,.308-1.344H17.15q-.462,0-.889.014t-.693.042V-9.954q.21.028.49.056t.581.042q.3.014.525.014h6.622q.2,0,.469-.014a2.418,2.418,0,0,0,.525-.084ZM36.176-9.59q-.154,1.078-.371,2.275A22.366,22.366,0,0,1,35.224-4.9a13.372,13.372,0,0,1-.952,2.422A5.046,5.046,0,0,1,33.1-.938a2.093,2.093,0,0,1-1.365.532,2.133,2.133,0,0,1-1.358-.5,3.528,3.528,0,0,1-1.015-1.407,5.223,5.223,0,0,1-.385-2.065,5.325,5.325,0,0,1,.49-2.254,6.185,6.185,0,0,1,1.351-1.89,6.307,6.307,0,0,1,2.016-1.3,6.579,6.579,0,0,1,2.5-.469,6.134,6.134,0,0,1,2.3.413A5.125,5.125,0,0,1,39.4-8.729a5.1,5.1,0,0,1,1.12,1.715,5.6,5.6,0,0,1,.392,2.1A5.5,5.5,0,0,1,40.3-2.3a4.975,4.975,0,0,1-1.785,1.89,7.415,7.415,0,0,1-2.926.994L34.65-.9q.392-.042.7-.1t.588-.112a4.991,4.991,0,0,0,1.267-.476,4.022,4.022,0,0,0,1.043-.805,3.612,3.612,0,0,0,.707-1.134,3.889,3.889,0,0,0,.259-1.449,4.407,4.407,0,0,0-.259-1.54,3.5,3.5,0,0,0-.763-1.225,3.432,3.432,0,0,0-1.225-.812,4.462,4.462,0,0,0-1.659-.287,4.723,4.723,0,0,0-2.009.406,4.7,4.7,0,0,0-1.477,1.05,4.682,4.682,0,0,0-.917,1.4,3.749,3.749,0,0,0-.315,1.442A3.636,3.636,0,0,0,30.772-3.3a1.82,1.82,0,0,0,.455.742.83.83,0,0,0,.553.245.887.887,0,0,0,.616-.308,3.371,3.371,0,0,0,.609-.959,13.3,13.3,0,0,0,.609-1.659,21.593,21.593,0,0,0,.532-2.149,21.525,21.525,0,0,0,.322-2.247Zm12.04-2.254h1.54V-9.66h-1.54Zm-5.194,1.26H54.978v2.926H53.424v-1.61H44.506v1.61H43.022Zm1.232,2.576h9.6V-6.79h-9.6ZM42.882-3.6H55.2v1.3H42.882Zm1.6-2.226h9.128v1.218H44.478ZM49.8-3.318a4.851,4.851,0,0,0,2.03,2.205A9.018,9.018,0,0,0,55.384-.07a4.062,4.062,0,0,0-.5.63,5.834,5.834,0,0,0-.4.686,10.411,10.411,0,0,1-2.73-.791A6.21,6.21,0,0,1,49.791-.952a7.377,7.377,0,0,1-1.337-2.086ZM48.174-8.9H49.7v3.78a7.236,7.236,0,0,1-.147,1.449,5.181,5.181,0,0,1-.518,1.414A5.05,5.05,0,0,1,47.978-.938,7.824,7.824,0,0,1,46.214.238a14.508,14.508,0,0,1-2.632.98,3.392,3.392,0,0,0-.238-.392Q43.19.6,43,.378T42.658,0a14.794,14.794,0,0,0,2.485-.812,6.576,6.576,0,0,0,1.6-.966,3.972,3.972,0,0,0,.91-1.078,3.747,3.747,0,0,0,.413-1.134,6.444,6.444,0,0,0,.1-1.162Zm8.442-2.226H61.5v1.4H56.616Zm.126,3.99h4.62v1.386h-4.62Zm-.448,4.9q.672-.154,1.533-.378t1.827-.49q.966-.266,1.918-.532l.2,1.33q-1.316.392-2.667.791t-2.429.707ZM63.476-7.9v1.022H67.41V-7.9Zm0,2.17V-4.7H67.41V-5.726Zm0-4.34v1.008H67.41v-1.008Zm-1.4-1.232h6.8v7.84h-6.8Zm3.584,7.28h1.428V-.6a.754.754,0,0,0,.056.371q.056.077.252.077h.728a.219.219,0,0,0,.2-.112,1.253,1.253,0,0,0,.105-.469q.035-.357.049-1.057a2.7,2.7,0,0,0,.378.224,4.035,4.035,0,0,0,.462.2q.238.084.434.14A7.216,7.216,0,0,1,69.524.21a1.284,1.284,0,0,1-.448.721,1.356,1.356,0,0,1-.784.2H67.144A2.195,2.195,0,0,1,66.213.98a.841.841,0,0,1-.434-.539A3.6,3.6,0,0,1,65.66-.588Zm-2.464.35h1.47a10.68,10.68,0,0,1-.28,1.659,4.525,4.525,0,0,1-.609,1.386A3.982,3.982,0,0,1,62.636.483a6.939,6.939,0,0,1-1.862.819,2.658,2.658,0,0,0-.21-.413q-.14-.231-.3-.455A2.327,2.327,0,0,0,59.948.07a6.2,6.2,0,0,0,1.6-.616,3.106,3.106,0,0,0,.952-.826,3.015,3.015,0,0,0,.483-1.036A8.613,8.613,0,0,0,63.2-3.668Zm-4.816-6.9h1.442v8.232l-1.442.224Z" transform="translate(160 3002.301)" fill="#333"/><g transform="translate(141 3016.541)"><path d="M12.669,36.652a8.92,8.92,0,0,1,2.215.28l2.317.594a8.919,8.919,0,0,1,4.122,2.365l2.422,2.447,2.98-.527a2.848,2.848,0,0,1,1.025,5.6l-4.6.87a3.507,3.507,0,0,1-3.046-.884l-1.991-1.861L17.062,49.8l5.5,1.791a2.544,2.544,0,0,1,1.76,2.425q0,.013,0,.026l-.3,8.77c-.008,2.271-1.971,2.271-2.811,2.271h-.1A3.118,3.118,0,0,1,18,61.969V56.713l-6.933-2.208a3.776,3.776,0,0,1-2.6-4.051l.8-6.619-1.647.546L6.566,48.273a2.706,2.706,0,0,1-5.228-1.4l1.317-4.982A4.089,4.089,0,0,1,5,39.165l4.134-1.783A8.868,8.868,0,0,1,12.669,36.652ZM23.488,43.9a.75.75,0,0,1-.533-.222l-2.7-2.727a7.418,7.418,0,0,0-3.429-1.967l-2.317-.594a7.416,7.416,0,0,0-4.78.374L5.6,40.542A2.6,2.6,0,0,0,4.1,42.274L2.787,47.257a1.206,1.206,0,0,0,2.331.624l1.16-4.28a.75.75,0,0,1,.488-.516L9.919,42.04a.75.75,0,0,1,.98.8l-.947,7.793a2.275,2.275,0,0,0,1.567,2.44l7.455,2.375a.75.75,0,0,1,.522.715v5.8a1.616,1.616,0,0,0,1.614,1.614h.1a2.793,2.793,0,0,0,1.122-.163c.052-.032.189-.118.189-.621q0-.013,0-.026l.3-8.767a1.047,1.047,0,0,0-.725-.987l-6.162-2.007a.75.75,0,0,1-.5-.893l1.527-6.18a.75.75,0,0,1,1.24-.368L21.131,46.3a2.007,2.007,0,0,0,1.743.506l4.6-.87a1.348,1.348,0,0,0-.248-2.673,1.365,1.365,0,0,0-.237.021l-3.367.6A.75.75,0,0,1,23.488,43.9Z" transform="translate(-1.997 -25.938)" fill="#333"/><path d="M17.728,97.112a3.142,3.142,0,0,1-.744-.09,3.114,3.114,0,0,1-2.311-3.665l2.786-14.332a.75.75,0,1,1,1.472.286L16.145,93.649l0,.012a1.614,1.614,0,0,0,3.155.684l1.88-8.551a.75.75,0,1,1,1.465.322l-1.881,8.552a3.118,3.118,0,0,1-3.034,2.443Z" transform="translate(-11.031 -54.181)" fill="#333"/><path d="M4.34-.75A5.09,5.09,0,1,1-.75,4.34,5.1,5.1,0,0,1,4.34-.75Zm0,8.68A3.59,3.59,0,1,0,.75,4.34,3.594,3.594,0,0,0,4.34,7.93Z" transform="translate(11.453)" fill="#333"/><path d="M4.582,157.27a.75.75,0,0,1-.75-.75v-3.338a.75.75,0,0,1,.75-.75H15.367a.75.75,0,1,1,0,1.5H5.332v2.588A.75.75,0,0,1,4.582,157.27Z" transform="translate(-3.745 -104.231)" fill="#333"/><path d="M42.1,139.378a.75.75,0,0,1-.75-.75v-2.292a.75.75,0,0,1,.75-.75H52.276a.75.75,0,0,1,0,1.5H42.845v1.542A.75.75,0,0,1,42.1,139.378Z" transform="translate(-29.112 -92.839)" fill="#333"/><path d="M93.069,134.235a.75.75,0,0,1-.75-.75V119.868H81.229v1.983a.75.75,0,0,1-1.5,0v-2.733a.75.75,0,0,1,.75-.75H93.069a.75.75,0,0,1,.75.75v14.367A.75.75,0,0,1,93.069,134.235Z" transform="translate(-55.068 -81.196)" fill="#333"/><path d="M39.118,157.27a.75.75,0,0,1-.75-.75v-2.588H37.291a.75.75,0,0,1,0-1.5h1.827a.75.75,0,0,1,.75.75v3.338A.75.75,0,0,1,39.118,157.27Z" transform="translate(-25.863 -104.231)" fill="#333"/><path d="M75.583,145.878a.75.75,0,0,1-.75-.75v-8.042H72.939a.75.75,0,0,1,0-1.5h2.644a.75.75,0,0,1,.75.75v8.792A.75.75,0,0,1,75.583,145.878Z" transform="translate(-49.969 -92.839)" fill="#333"/></g><g transform="translate(236.769 2559)"><g transform="translate(52.231) rotate(90)"><rect width="32" height="506" rx="5" transform="translate(0 42) rotate(-90)" fill="#144176"/><path d="M24.586,1.414a2,2,0,0,1,2.828,0L48.586,22.586A2,2,0,0,1,47.172,26H4.828a2,2,0,0,1-1.414-3.414Z" transform="translate(523 0) rotate(90)" fill="#144176"/></g></g><path d="M11.324,7.576a5.667,5.667,0,0,0-.152-.64Q11.084,6.648,11,6.36l2.256-.368q.032.24.072.6a6.122,6.122,0,0,0,.1.648q.032.224.144.832t.272,1.472q.16.864.36,1.864t.392,2.016q.192,1.016.376,1.928t.32,1.616q.136.7.2,1.04.08.352.192.768t.224.8l-2.32.416q-.064-.448-.1-.856a5.3,5.3,0,0,0-.112-.76q-.064-.32-.184-.984t-.288-1.56q-.168-.9-.36-1.9l-.384-2.016-.36-1.888q-.168-.88-.3-1.528T11.324,7.576ZM6.956,9.608q.384-.016.752-.04T8.444,9.5l.992-.136q.64-.088,1.472-.208t1.72-.264l1.72-.28q.832-.136,1.48-.248l1.016-.176.8-.168q.416-.088.7-.168l.384,2.1q-.256.016-.688.08t-.784.112q-.432.064-1.128.176l-1.544.248q-.848.136-1.728.272t-1.68.272q-.8.136-1.408.232l-.912.144-.72.152q-.336.072-.752.184Zm.016,4.7q.32-.016.808-.072t.856-.1q.432-.064,1.152-.176l1.624-.256,1.864-.3q.96-.152,1.872-.312t1.664-.288l1.216-.208q.464-.1.888-.192t.744-.192l.432,2.112a7.507,7.507,0,0,0-.776.088q-.456.072-.92.152-.512.08-1.28.208l-1.688.28q-.92.152-1.88.3t-1.84.3q-.88.152-1.584.264t-1.1.192q-.512.1-.92.176t-.68.16ZM11.9,27.84q.048.272.12.584t.136.632q.144.464.344,1.2l.44,1.616q.24.88.488,1.784t.488,1.728q.24.824.416,1.456t.272.968a1.984,1.984,0,0,1,.128.384q.064.256.152.512t.152.416l-2.176.544q-.048-.336-.112-.7a4.852,4.852,0,0,0-.176-.7q-.1-.352-.272-1.016l-.4-1.512q-.224-.848-.472-1.76t-.472-1.784q-.224-.872-.424-1.584T10.2,29.488a4.273,4.273,0,0,0-.2-.608q-.12-.288-.248-.528ZM19.58,30.3a11.655,11.655,0,0,1-.648,1.2q-.408.672-.888,1.376t-.96,1.336q-.48.632-.912,1.1l-1.76-.88a10.1,10.1,0,0,0,.88-.9q.464-.528.872-1.064a6.1,6.1,0,0,0,.6-.92q-.176.032-.664.128t-1.176.24l-1.5.312q-.808.168-1.624.344t-1.552.328q-.736.152-1.3.272t-.848.184l-.5-1.92q.384-.032.736-.08t.736-.112l.68-.112q.488-.08,1.168-.208t1.464-.28q.784-.152,1.584-.3l1.5-.288,1.232-.24q.528-.1.768-.168a2.811,2.811,0,0,0,.432-.1,2.742,2.742,0,0,0,.384-.152Zm-1.232,14.28q-.016.336-.04.728t-.024.872q0,.416,0,1.008t0,1.176q0,.584,0,.984a18.3,18.3,0,0,1-.12,2.24,8.794,8.794,0,0,1-.36,1.68,5.962,5.962,0,0,1-.584,1.272,7.405,7.405,0,0,1-.792,1.048,6.545,6.545,0,0,1-1.216,1.032,9.663,9.663,0,0,1-1.384.768,12.928,12.928,0,0,1-1.288.5l-1.68-1.76a9.431,9.431,0,0,0,2.168-.76,5.985,5.985,0,0,0,1.688-1.256,5.073,5.073,0,0,0,.672-.928,4.1,4.1,0,0,0,.392-1.032,8.34,8.34,0,0,0,.192-1.288q.056-.72.056-1.648v-3.04q0-.48-.024-.872t-.072-.728Zm-7.424.128q-.016.288-.032.568t-.016.664v5.408q0,.3.016.7t.032.688H8.6q.016-.224.048-.64t.032-.768V45.944q0-.224-.016-.584t-.048-.648ZM20.78,65.168q-.128.16-.32.408t-.3.424a15.761,15.761,0,0,1-.976,1.432,20.166,20.166,0,0,1-1.344,1.6,10.1,10.1,0,0,1-1.52,1.352l-1.664-1.328a7.683,7.683,0,0,0,.944-.672,8.833,8.833,0,0,0,.856-.808q.392-.424.688-.808a4.9,4.9,0,0,0,.456-.688H9.26q-.5,0-.944.032t-1.008.08V63.968q.464.064.96.112t.992.048h8.624q.224,0,.544-.016t.632-.048a2.325,2.325,0,0,0,.456-.08Zm-6.528,2.16q0,1.184-.048,2.288a12.869,12.869,0,0,1-.264,2.12,7.624,7.624,0,0,1-.688,1.928,6.824,6.824,0,0,1-1.3,1.728A9.135,9.135,0,0,1,9.82,76.9l-1.872-1.52a6.274,6.274,0,0,0,.816-.344,5.855,5.855,0,0,0,.864-.536,5.692,5.692,0,0,0,1.24-1.12,4.605,4.605,0,0,0,.728-1.288,6.606,6.606,0,0,0,.352-1.52,15.615,15.615,0,0,0,.1-1.8q0-.368-.016-.712a4.633,4.633,0,0,0-.1-.728Zm-.4,18.728H19.58V87.8H13.852Zm0,3.792H19.58v1.728H13.852Zm0,3.776H19.58v1.744H13.852Zm-.912-11.36h7.536V96.2h-1.92V84.088H14.78V96.3H12.94ZM6.22,84.712h6.144V86.52H6.22Zm2.3-3.312h1.84V96.424H8.524Zm-.1,4.544,1.136.4q-.192.976-.48,2.008t-.656,2.016a18.348,18.348,0,0,1-.8,1.84,8.651,8.651,0,0,1-.912,1.464,5.945,5.945,0,0,0-.4-.92A8.848,8.848,0,0,0,5.8,91.88a8.838,8.838,0,0,0,.832-1.232,15.633,15.633,0,0,0,.744-1.5q.344-.792.616-1.616A14.566,14.566,0,0,0,8.428,85.944Zm1.808,1.408a6.77,6.77,0,0,1,.512.552q.336.392.712.856t.7.856q.328.392.456.552l-1.1,1.552q-.176-.352-.448-.832t-.592-.976q-.32-.5-.616-.944t-.5-.752ZM15.452,104.9l1.184-1.264q.688.384,1.512.88t1.584,1a14.434,14.434,0,0,1,1.24.9l-1.28,1.456a9.538,9.538,0,0,0-1.168-.96q-.736-.528-1.552-1.056T15.452,104.9Zm1.1,2.3h.96v2.432a3.321,3.321,0,0,0,.1.736,4.144,4.144,0,0,0,.328.888,4.016,4.016,0,0,0,.648.928,5.849,5.849,0,0,0,1.04.88,7.447,7.447,0,0,0,1.488.76q-.24.336-.576.816t-.528.816a5.582,5.582,0,0,1-1.352-.736,6.369,6.369,0,0,1-1.032-.952,6.107,6.107,0,0,1-.7-.992,4.516,4.516,0,0,1-.384-.856,4.461,4.461,0,0,1-.424.848,6.057,6.057,0,0,1-.776.984,6.908,6.908,0,0,1-1.128.944,7.27,7.27,0,0,1-1.48.76q-.112-.224-.3-.52t-.392-.576a6,6,0,0,0-.384-.472,7.248,7.248,0,0,0,1.592-.752,6.144,6.144,0,0,0,1.112-.9,4.767,4.767,0,0,0,.712-.944,3.586,3.586,0,0,0,.368-.9,3.275,3.275,0,0,0,.1-.752V107.2Zm-.864-6.8H17.58a24.162,24.162,0,0,1-.248,2.624,7.416,7.416,0,0,1-.64,2.12,4.8,4.8,0,0,1-1.328,1.64A7.832,7.832,0,0,1,13.036,108a3.612,3.612,0,0,0-.448-.808,3.73,3.73,0,0,0-.624-.712,6.256,6.256,0,0,0,1.984-.936,3.61,3.61,0,0,0,1.08-1.3,5.579,5.579,0,0,0,.488-1.7Q15.644,101.6,15.692,100.4Zm-2.352.96,1.568.3a7.11,7.11,0,0,1-.432,1.632,4.043,4.043,0,0,1-.848,1.36L12.14,104a3.743,3.743,0,0,0,.752-1.168A6.465,6.465,0,0,0,13.34,101.36Zm-.192,6.944,1.68.336a8.232,8.232,0,0,1-.536,1.816,4.6,4.6,0,0,1-.968,1.48l-1.568-.8a3.606,3.606,0,0,0,.872-1.232A7.1,7.1,0,0,0,13.148,108.3Zm5.84-7.056,1.84.576q-.4.72-.808,1.416t-.744,1.192l-1.44-.544q.208-.352.432-.816t.416-.944A8.737,8.737,0,0,0,18.988,101.248Zm.1,6.944,1.888.592-.872,1.488a13.458,13.458,0,0,1-.824,1.264l-1.488-.544a9.863,9.863,0,0,0,.48-.872q.24-.488.456-1T19.084,108.192Zm-12.352-2.88h4.832v1.456H6.732Zm.064-4.4h4.736v1.44H6.8ZM6.732,107.5h4.832v1.44H6.732Zm-.752-4.448h6.112v1.52H5.98Zm1.584,6.656H11.6v4.88H7.564v-1.52H9.948v-1.84H7.564Zm-.864,0H8.316v5.5H6.7Zm11.648,29.872q-.016.336-.04.728t-.024.872q0,.416,0,1.008t0,1.176q0,.584,0,.984a18.3,18.3,0,0,1-.12,2.24,8.794,8.794,0,0,1-.36,1.68,5.962,5.962,0,0,1-.584,1.272,7.406,7.406,0,0,1-.792,1.048,6.545,6.545,0,0,1-1.216,1.032,9.663,9.663,0,0,1-1.384.768,12.93,12.93,0,0,1-1.288.5l-1.68-1.76a9.431,9.431,0,0,0,2.168-.76,5.985,5.985,0,0,0,1.688-1.256,5.072,5.072,0,0,0,.672-.928,4.1,4.1,0,0,0,.392-1.032,8.34,8.34,0,0,0,.192-1.288q.056-.72.056-1.648v-3.04q0-.48-.024-.872t-.072-.728Zm-7.424.128q-.016.288-.032.568t-.016.664v5.408q0,.3.016.7t.032.688H8.6q.016-.224.048-.64t.032-.768v-5.392q0-.224-.016-.584t-.048-.648Zm7.92,20.44q-.1.144-.28.448a3.416,3.416,0,0,0-.28.56q-.336.752-.824,1.68t-1.1,1.864a18.441,18.441,0,0,1-1.3,1.752,26.685,26.685,0,0,1-1.976,1.992,21.648,21.648,0,0,1-2.272,1.808,17.421,17.421,0,0,1-2.44,1.416l-1.648-1.728A14.886,14.886,0,0,0,9.228,168.7a18.761,18.761,0,0,0,2.256-1.632,18.673,18.673,0,0,0,1.792-1.712,14.386,14.386,0,0,0,1-1.3,15.266,15.266,0,0,0,.84-1.368,6.937,6.937,0,0,0,.544-1.256H10.236q-.336,0-.7.024l-.7.048q-.328.024-.5.04v-2.272q.24.016.592.048t.712.048q.36.016.6.016h5.648a6.751,6.751,0,0,0,.968-.064,4.16,4.16,0,0,0,.68-.144Zm-3.584,4.976q.624.5,1.328,1.152t1.392,1.36q.688.7,1.272,1.352t.984,1.128L18.412,171.7q-.592-.816-1.352-1.7t-1.6-1.752q-.84-.872-1.7-1.656Zm-3.936,13.448a5.667,5.667,0,0,0-.152-.64q-.088-.288-.168-.576l2.256-.368q.032.24.072.6a6.122,6.122,0,0,0,.1.648q.032.224.144.832t.272,1.472q.16.864.36,1.864t.392,2.016q.192,1.016.376,1.928t.32,1.616q.136.7.2,1.04.08.352.192.768t.224.8l-2.32.416q-.064-.448-.1-.856a5.3,5.3,0,0,0-.112-.76q-.064-.32-.184-.984t-.288-1.56q-.168-.9-.36-1.9l-.384-2.016-.36-1.888q-.168-.88-.3-1.528T11.324,178.576Zm-4.368,2.032q.384-.016.752-.04t.736-.072l.992-.136q.64-.088,1.472-.208t1.72-.264l1.72-.28q.832-.136,1.48-.248l1.016-.176.8-.168q.416-.088.7-.168l.384,2.1q-.256.016-.688.08t-.784.112q-.432.064-1.128.176l-1.544.248q-.848.136-1.728.272t-1.68.272q-.8.136-1.408.232l-.912.144-.72.152q-.336.072-.752.184Zm.016,4.7q.32-.016.808-.072t.856-.1q.432-.064,1.152-.176l1.624-.256,1.864-.3q.96-.152,1.872-.312t1.664-.288l1.216-.208q.464-.1.888-.192t.744-.192l.432,2.112a7.505,7.505,0,0,0-.776.088q-.456.072-.92.152-.512.08-1.28.208l-1.688.28q-.92.152-1.88.3t-1.84.3q-.88.152-1.584.264t-1.1.192q-.512.1-.92.176t-.68.16Zm11.376,11.272q-.016.336-.04.728t-.024.872q0,.416,0,1.008t0,1.176q0,.584,0,.984a18.3,18.3,0,0,1-.12,2.24,8.794,8.794,0,0,1-.36,1.68,5.962,5.962,0,0,1-.584,1.272,7.406,7.406,0,0,1-.792,1.048,6.545,6.545,0,0,1-1.216,1.032,9.663,9.663,0,0,1-1.384.768,12.93,12.93,0,0,1-1.288.5l-1.68-1.76a9.431,9.431,0,0,0,2.168-.76,5.985,5.985,0,0,0,1.688-1.256,5.072,5.072,0,0,0,.672-.928,4.1,4.1,0,0,0,.392-1.032,8.34,8.34,0,0,0,.192-1.288q.056-.72.056-1.648v-3.04q0-.48-.024-.872t-.072-.728Zm-7.424.128q-.016.288-.032.568t-.016.664v5.408q0,.3.016.7t.032.688H8.6q.016-.224.048-.64t.032-.768v-5.392q0-.224-.016-.584t-.048-.648ZM9.356,215.84q.416.288.976.7t1.16.9q.6.488,1.128.952a11.163,11.163,0,0,1,.864.832L11.852,220.9q-.3-.336-.8-.8t-1.072-.96q-.576-.5-1.136-.944t-.992-.752Zm-2,10.656a16.944,16.944,0,0,0,2.352-.5,16.4,16.4,0,0,0,2.048-.736,18.618,18.618,0,0,0,1.728-.864,15.473,15.473,0,0,0,2.5-1.856,15.91,15.91,0,0,0,1.984-2.168,12.263,12.263,0,0,0,1.344-2.2l1.248,2.256a14.9,14.9,0,0,1-1.5,2.144,17.219,17.219,0,0,1-2.008,2.04,16.725,16.725,0,0,1-2.416,1.736,18.172,18.172,0,0,1-3.752,1.72,15.019,15.019,0,0,1-2.184.536Zm10.608,7.4q.208.288.44.688t.456.8q.224.4.368.7l-1.28.544q-.24-.5-.584-1.128a12.3,12.3,0,0,0-.664-1.1Zm1.888-.72q.208.288.456.7t.48.8a6.792,6.792,0,0,1,.36.68l-1.264.544q-.256-.512-.608-1.136a9.914,9.914,0,0,0-.688-1.072Zm-.448,4.24a4.433,4.433,0,0,0-.288.536,5.23,5.23,0,0,0-.24.616,15.213,15.213,0,0,1-.592,1.608,18.328,18.328,0,0,1-.928,1.864,13.876,13.876,0,0,1-1.28,1.872,14.7,14.7,0,0,1-2.664,2.5,17.023,17.023,0,0,1-3.784,2.016l-1.888-1.7a16.569,16.569,0,0,0,2.816-1.112,11.982,11.982,0,0,0,2.064-1.336,12.5,12.5,0,0,0,1.568-1.52,9.929,9.929,0,0,0,1.016-1.408,12.092,12.092,0,0,0,.8-1.568,8.074,8.074,0,0,0,.456-1.376H11.068L11.8,236.6h4.56a5.151,5.151,0,0,0,.76-.056,4.265,4.265,0,0,0,.632-.136Zm-5.216-2.528q-.288.416-.56.9l-.416.736a16.783,16.783,0,0,1-1.344,1.992,18.924,18.924,0,0,1-1.8,2,17.167,17.167,0,0,1-2.152,1.768l-1.792-1.344a13.854,13.854,0,0,0,1.856-1.328,13.592,13.592,0,0,0,1.392-1.368,14.325,14.325,0,0,0,1.024-1.312q.432-.632.72-1.144a5.3,5.3,0,0,0,.408-.776,5.258,5.258,0,0,0,.312-.888Zm-.224,37.632H20.38v1.808H13.964Zm-.624,4.5h7.6v1.808h-7.6Zm2,1.008,2.08.352q-.144.848-.336,1.728t-.392,1.736q-.2.856-.408,1.624t-.4,1.376l-1.712-.368q.176-.64.352-1.44t.336-1.664q.16-.864.288-1.728T15.34,278.024Zm-2.416,6.128q.9-.048,2.048-.128l2.456-.168q1.3-.088,2.584-.168l.016,1.712q-1.184.112-2.392.232t-2.312.216q-1.1.1-2.048.192Zm4.768-2.928,1.632-.656a18.432,18.432,0,0,1,.8,1.728q.368.912.648,1.792a12.62,12.62,0,0,1,.408,1.6l-1.776.7a11.629,11.629,0,0,0-.352-1.6q-.256-.9-.6-1.832A14.907,14.907,0,0,0,17.692,281.224ZM6.22,272.936h6.992v1.648H6.22ZM6,282.2h7.328v1.68H6Zm2.848-10.784h1.808V276.1H8.844Zm.192,4.688h1.408v4.448h.176v5.872H8.844v-5.872h.192ZM8.044,279v.944H11.5V279Zm0-2.192v.944H11.5v-.944Zm-1.472-1.344H13.02v5.824H6.572Zm6.1,24.424h2.88v1.248h-2.88Zm-1.008-8h4.912v1.392H11.66Zm-.32,3.536h9.7v1.488h-9.7Zm1.728,2.192H16.38v5.808H13.068v-1.312h1.824v-3.168H13.068Zm-1.12,0H13.4v6.736H11.948Zm1.36-7.168H14.94v2.384H13.308ZM19.34,297.5l1.536.336a15.263,15.263,0,0,1-2,4.456,11.6,11.6,0,0,1-3.1,3.16q-.1-.144-.3-.384t-.416-.48a5.264,5.264,0,0,0-.376-.384,9.1,9.1,0,0,0,2.9-2.752A12.553,12.553,0,0,0,19.34,297.5ZM12,293.52l1.232-.3a7.621,7.621,0,0,1,.3,1.048,5.989,5.989,0,0,1,.136,1l-1.3.32a7.481,7.481,0,0,0-.12-1A9.531,9.531,0,0,0,12,293.52Zm6.288-1.776,1.248-.656a9.6,9.6,0,0,1,.928,1.288,8.848,8.848,0,0,1,.656,1.272l-1.344.736a7.085,7.085,0,0,0-.608-1.3A12.767,12.767,0,0,0,18.284,291.744Zm-3.44,1.472,1.456.272q-.192.56-.368,1.1t-.32.936l-1.2-.272q.128-.432.248-1.008T14.844,293.216ZM6.2,291.008h5.52v1.7H6.2ZM7.6,294.432h2.8v1.552H7.6Zm0,3.264h2.8v1.568H7.6Zm-.752-5.776H8.4v10.048H6.844Zm2.592,0h1.616v13.52H9.436Zm-3.552,9.7q.864-.128,2.04-.336t2.408-.432l.128,1.616q-1.1.24-2.208.472T6.2,303.36Zm10.928-11.2h1.7q-.016,2.032.024,3.92t.136,3.5q.1,1.608.232,2.808a14.333,14.333,0,0,0,.312,1.88q.176.68.384.68.16,0,.248-.528a13.826,13.826,0,0,0,.136-1.488,4.24,4.24,0,0,0,.384.4,5.3,5.3,0,0,0,.48.4q.24.176.384.272a8.775,8.775,0,0,1-.5,1.984,2.371,2.371,0,0,1-.616.936,1,1,0,0,1-.592.248,1.387,1.387,0,0,1-1.136-.72,6.205,6.205,0,0,1-.76-2.016,24.8,24.8,0,0,1-.464-3.16q-.168-1.848-.24-4.152T16.812,290.416Zm-1.76,19.64q-.032.24-.056.536t-.04.6q-.016.32-.032.856t-.016,1.176v2.4q0,.672.032,1.5t.088,1.664q.056.84.1,1.568t.04,1.208a2.23,2.23,0,0,1-.352,1.224,2.379,2.379,0,0,1-1.048.872,4.2,4.2,0,0,1-1.752.32,5.014,5.014,0,0,1-2.912-.7,2.432,2.432,0,0,1-.52-3.4,3.1,3.1,0,0,1,1.36-.968,5.748,5.748,0,0,1,2.12-.352,10.308,10.308,0,0,1,2.456.28,10.909,10.909,0,0,1,2.088.728,12.916,12.916,0,0,1,1.68.944q.736.5,1.248.9l-1.152,1.792a14.149,14.149,0,0,0-1.288-1.072,11.193,11.193,0,0,0-1.552-.96,9.526,9.526,0,0,0-1.776-.7,7.247,7.247,0,0,0-1.976-.264,2.413,2.413,0,0,0-1.288.288.83.83,0,0,0-.456.7.786.786,0,0,0,.192.528,1.161,1.161,0,0,0,.56.336,3.243,3.243,0,0,0,.928.112,2.546,2.546,0,0,0,.744-.1.891.891,0,0,0,.488-.352,1.26,1.26,0,0,0,.176-.72q0-.352-.024-1.008t-.056-1.448q-.032-.792-.064-1.56t-.032-1.36q0-.576.008-1.208t.008-1.256q0-.624.008-1.144t.008-.856q0-.224-.024-.552a4.131,4.131,0,0,0-.072-.552Zm-6.64,1.5q.432.064.96.128t1.08.12q.552.056,1.048.08t.864.024q1.632,0,3.256-.1t3.368-.392l-.016,1.84q-.816.112-1.888.208t-2.28.152q-1.208.056-2.424.056-.5,0-1.224-.04t-1.448-.112q-.72-.072-1.248-.136Zm-.08,3.456q.384.064.912.128t1.08.1q.552.032,1.048.056t.816.024q1.488,0,2.7-.064t2.264-.16q1.056-.1,2.032-.224l-.016,1.888q-.832.1-1.608.16t-1.584.112q-.808.048-1.736.064t-2.08.016q-.464,0-1.152-.024t-1.4-.072q-.712-.048-1.256-.112ZM6.6,331.024q.48-.016.912-.04t.656-.04q.5-.032,1.224-.1t1.632-.152q.9-.08,1.928-.16t2.128-.176q.832-.08,1.656-.136t1.568-.1q.744-.04,1.3-.056l.016,2.048q-.432,0-.992.016t-1.112.056a5.534,5.534,0,0,0-.984.152,4.018,4.018,0,0,0-1.344.648,5.021,5.021,0,0,0-1.08,1.072,5.15,5.15,0,0,0-.712,1.328,4.206,4.206,0,0,0-.256,1.432,3.239,3.239,0,0,0,.28,1.384,3.046,3.046,0,0,0,.768,1.024,4.306,4.306,0,0,0,1.144.7,6.838,6.838,0,0,0,1.416.424,12.359,12.359,0,0,0,1.576.192l-.752,2.192a9.957,9.957,0,0,1-1.96-.32,8.286,8.286,0,0,1-1.784-.7,5.725,5.725,0,0,1-1.448-1.1,5,5,0,0,1-.976-1.488,4.727,4.727,0,0,1-.36-1.88,5.92,5.92,0,0,1,.368-2.12,6.768,6.768,0,0,1,.92-1.7,5.547,5.547,0,0,1,1.1-1.128q-.448.064-1.08.128t-1.36.152q-.728.088-1.48.184t-1.448.216q-.7.12-1.256.232ZM17.34,333.68q.208.288.44.68t.456.784q.224.392.384.712L17.4,336.4q-.3-.672-.584-1.184a9.634,9.634,0,0,0-.664-1.04Zm1.792-.736q.208.288.456.664t.488.768q.24.392.4.7l-1.2.576q-.32-.64-.616-1.136a11.263,11.263,0,0,0-.7-1.024Zm-5.856,15.224q-.08.432-.256,1.12a13.745,13.745,0,0,1-.512,1.552q-.256.592-.584,1.224a11.277,11.277,0,0,1-.664,1.128,2.687,2.687,0,0,1,.528-.168,6.382,6.382,0,0,1,.664-.112,5.4,5.4,0,0,1,.616-.04,2.46,2.46,0,0,1,1.672.576,2.144,2.144,0,0,1,.664,1.712q0,.32.008.784t.024.968q.016.5.032.984t.016.864h-1.92q.032-.272.04-.648t.016-.792q.008-.416.016-.808t.008-.712a1.232,1.232,0,0,0-.408-1.064,1.5,1.5,0,0,0-.9-.3,3.091,3.091,0,0,0-1.352.328,4.352,4.352,0,0,0-1.144.776q-.352.352-.712.784t-.776.976l-1.712-1.28a21.338,21.338,0,0,0,1.8-1.856,13.494,13.494,0,0,0,1.288-1.776,11.168,11.168,0,0,0,.864-1.76,9.684,9.684,0,0,0,.392-1.336,8.14,8.14,0,0,0,.184-1.3ZM7.26,349.64q.608.1,1.408.144t1.408.048q1.056,0,2.312-.048t2.552-.168q1.3-.12,2.464-.312l-.016,1.856q-.848.112-1.832.2t-2,.144q-1.016.056-1.944.08t-1.648.024q-.32,0-.792-.008t-.968-.032q-.5-.024-.944-.056Zm12.672,4.544q-.256.08-.6.2l-.688.24q-.344.12-.616.232-.768.3-1.816.736T14.028,356.6a9.775,9.775,0,0,0-1.216.752,3.209,3.209,0,0,0-.752.744,1.433,1.433,0,0,0-.256.824.888.888,0,0,0,.576.9,2.453,2.453,0,0,0,.72.176,9.425,9.425,0,0,0,1.024.048q1.024,0,2.256-.12t2.288-.328l-.064,2.064q-.512.064-1.3.136t-1.624.1q-.84.032-1.608.032a9.552,9.552,0,0,1-2.24-.24,3.151,3.151,0,0,1-1.56-.824,2.209,2.209,0,0,1-.568-1.608,3.027,3.027,0,0,1,.376-1.5,4.574,4.574,0,0,1,1-1.216,9.208,9.208,0,0,1,1.368-.984q.744-.44,1.464-.808.736-.384,1.328-.656t1.112-.488q.52-.216,1-.44.464-.208.9-.408t.88-.424ZM6.108,372.72H20.924v2.1H6.108Zm2.928,12.744,1.824.56a26.669,26.669,0,0,1-1.112,2.712,26.043,26.043,0,0,1-1.408,2.592,16.169,16.169,0,0,1-1.576,2.152q-.1-.24-.28-.616t-.392-.76a5.522,5.522,0,0,0-.384-.624,11.631,11.631,0,0,0,1.3-1.7A18.681,18.681,0,0,0,8.148,387.7,18.98,18.98,0,0,0,9.036,385.464ZM7.74,389.9l1.824-1.824v12.336H7.74Zm6.816-4.416h1.872v14.832H14.556Zm-4.064,2.784H20.86v1.824H10.492Zm1.952,7.76h6.144v1.712H12.444Zm4.672-6.736A19.855,19.855,0,0,0,18.188,392a19.517,19.517,0,0,0,1.456,2.544,12.045,12.045,0,0,0,1.664,1.992,5.973,5.973,0,0,0-.76.672,5.724,5.724,0,0,0-.68.816,13.913,13.913,0,0,1-1.648-2.3,21.884,21.884,0,0,1-1.408-2.9,31.668,31.668,0,0,1-1.072-3.144Zm-3.152-.16,1.392.384a27.316,27.316,0,0,1-1.1,3.264,21.864,21.864,0,0,1-1.472,2.96,12.855,12.855,0,0,1-1.76,2.336q-.16-.224-.4-.5t-.5-.536a5.616,5.616,0,0,0-.472-.416,10.713,10.713,0,0,0,1.752-2.024,18.843,18.843,0,0,0,1.488-2.624A19.7,19.7,0,0,0,13.964,389.128Zm-6.176,17.88H12.7v10.768H7.788V416.1h3.184v-7.424H7.788Zm-1.12,0H8.412V418.96H6.668Zm1.056,4.272H11.8v1.664H7.724Zm1.232-6.88,2.08.3q-.256.816-.552,1.616t-.536,1.36l-1.536-.352q.112-.416.216-.928t.2-1.04A9.221,9.221,0,0,0,8.956,404.4Zm5.856,2.48H19.5v1.76H14.812Zm4.016,0H20.6v.544a2.419,2.419,0,0,1-.016.32q-.064,2.7-.152,4.584t-.208,3.1a15.646,15.646,0,0,1-.28,1.912,2.574,2.574,0,0,1-.416,1.008,1.83,1.83,0,0,1-.688.64,3.165,3.165,0,0,1-.848.256,7.89,7.89,0,0,1-1.144.056q-.68-.008-1.384-.024a3.517,3.517,0,0,0-.192-.936,4.108,4.108,0,0,0-.432-.936q.768.064,1.432.08t.968.016a1.152,1.152,0,0,0,.392-.056.764.764,0,0,0,.3-.216,1.8,1.8,0,0,0,.344-.856,15.622,15.622,0,0,0,.232-1.832q.1-1.184.176-2.992t.144-4.3Zm-3.968-2.464,1.856.432a23.205,23.205,0,0,1-.744,2.336,22.567,22.567,0,0,1-.96,2.2,14.086,14.086,0,0,1-1.064,1.8,3.98,3.98,0,0,0-.456-.376q-.3-.216-.592-.424a4.205,4.205,0,0,0-.52-.32,10.888,10.888,0,0,0,1-1.592,15.583,15.583,0,0,0,.848-1.952A20.6,20.6,0,0,0,14.86,404.416Zm-.784,7.088,1.5-.848q.4.544.848,1.2t.848,1.28q.4.624.656,1.1l-1.632.992a12.225,12.225,0,0,0-.6-1.136q-.376-.64-.8-1.32T14.076,411.5Zm-1.408,14.312q.736.1,1.656.136t1.872.032q.952-.008,1.832-.064t1.52-.12v2.064q-.736.064-1.616.1t-1.808.04q-.928,0-1.816-.04t-1.64-.1Zm1.28,6.832q-.1.4-.144.712a4.15,4.15,0,0,0-.048.632.909.909,0,0,0,.128.472,1.049,1.049,0,0,0,.392.368,2.084,2.084,0,0,0,.688.224,6.286,6.286,0,0,0,1.032.072,18.443,18.443,0,0,0,2.016-.1q.944-.1,2-.312l.032,2.16a17.094,17.094,0,0,1-1.768.224q-1,.08-2.36.08a5.452,5.452,0,0,1-3.072-.7,2.216,2.216,0,0,1-1.008-1.928,6.849,6.849,0,0,1,.072-.968q.072-.5.2-1.112Zm-3.744-7.9a4.545,4.545,0,0,0-.144.448q-.08.288-.152.56t-.1.416q-.048.336-.152.872t-.208,1.2q-.1.664-.2,1.352t-.152,1.328q-.056.64-.056,1.12,0,.224.008.512a3.144,3.144,0,0,0,.056.528q.112-.272.24-.544t.256-.552q.128-.28.224-.536l.992.784q-.224.656-.456,1.408t-.416,1.416q-.184.664-.28,1.1-.032.176-.056.4a3.508,3.508,0,0,0-.024.352q0,.128.008.312t.024.344l-1.856.128a16.474,16.474,0,0,1-.432-2.216,22.014,22.014,0,0,1-.192-3.016q0-.9.08-1.824t.192-1.784q.112-.856.216-1.56T7.8,426.12q.032-.336.088-.76t.072-.808Zm.56,25.288a9.044,9.044,0,0,0,3.84,3.744,17.779,17.779,0,0,0,6.448,1.824,5.39,5.39,0,0,0-.44.552q-.232.328-.44.68t-.352.64a20.01,20.01,0,0,1-4.744-1.256,12.027,12.027,0,0,1-3.56-2.24,12.784,12.784,0,0,1-2.56-3.32Zm-3.376-1.744H17.644v1.872H7.388ZM6.6,444.512H20.332v1.9H6.6Zm5.84-2.112h2v6.736h-2Zm4.592,5.888h.4l.336-.08,1.36.768a11.316,11.316,0,0,1-1.928,3.392,11.951,11.951,0,0,1-2.792,2.44,16.36,16.36,0,0,1-3.456,1.64A25.19,25.19,0,0,1,7,457.44a3.535,3.535,0,0,0-.264-.624q-.184-.352-.392-.688a3.6,3.6,0,0,0-.4-.544,27.218,27.218,0,0,0,3.792-.776,14.491,14.491,0,0,0,3.224-1.328,9.513,9.513,0,0,0,2.488-2.016,8.146,8.146,0,0,0,1.584-2.84Zm-5.552,17.5h8.848v1.5H11.484Zm-.32,2.256h9.648v1.552H11.164Zm2.08,2.192h5.392v1.376H13.244Zm-1.36-6.176,1.456-.4q.192.432.4.968t.32.888l-1.536.5q-.1-.384-.28-.936T11.884,464.056Zm2.784-.272,1.488-.272q.144.48.264,1.032t.168.92L15,465.816q-.032-.384-.128-.968T14.668,463.784Zm4.608-2.3,1.072,1.408q-.9.192-1.976.328t-2.232.232q-1.152.1-2.312.152t-2.232.072a3.9,3.9,0,0,0-.16-.72,6.382,6.382,0,0,0-.256-.7q1.056-.048,2.168-.1t2.184-.152q1.072-.1,2.04-.224T19.276,461.48Zm-4.448,9.808a5.761,5.761,0,0,0,1.464,1.664,8.573,8.573,0,0,0,2.16,1.208,13.132,13.132,0,0,0,2.744.728,4.041,4.041,0,0,0-.624.744q-.32.472-.512.824a10.931,10.931,0,0,1-4.08-1.68,8.779,8.779,0,0,1-2.7-3.024Zm3.536-8.064,1.76.512q-.432.72-.912,1.456t-.864,1.232L17,465.96a9.047,9.047,0,0,0,.5-.864q.248-.48.472-.976T18.364,463.224Zm-.112,7.008H18.6l.32-.048,1.04.416a7.959,7.959,0,0,1-1.384,2.88,7.429,7.429,0,0,1-2.168,1.88,11.373,11.373,0,0,1-2.784,1.112,3.977,3.977,0,0,0-.272-.48q-.176-.272-.384-.536a3.338,3.338,0,0,0-.368-.408,10.9,10.9,0,0,0,2.576-.864,6.138,6.138,0,0,0,1.928-1.464,5.442,5.442,0,0,0,1.144-2.248ZM13.4,466.744h1.84q-.064,1.008-.2,2.08a19.377,19.377,0,0,1-.392,2.128A11.224,11.224,0,0,1,13.94,473a8.476,8.476,0,0,1-1.168,1.856,7.567,7.567,0,0,1-1.752,1.536,4.349,4.349,0,0,0-.544-.728,4.578,4.578,0,0,0-.7-.648,6.363,6.363,0,0,0,1.576-1.328,6.852,6.852,0,0,0,1.016-1.608,9.039,9.039,0,0,0,.584-1.768,18.066,18.066,0,0,0,.3-1.824Q13.356,467.576,13.4,466.744Zm-7.52,3.232q.96-.224,2.3-.576t2.7-.736l.24,1.744-2.56.744q-1.3.376-2.384.7Zm.208-5.536h4.9v1.76h-4.9Zm1.68-3.024h1.76v12.992a3.285,3.285,0,0,1-.136,1.048,1.143,1.143,0,0,1-.5.616,2.264,2.264,0,0,1-.888.3,8.183,8.183,0,0,1-1.336.064,5.122,5.122,0,0,0-.176-.872,6.074,6.074,0,0,0-.32-.9q.448.016.824.024a4.661,4.661,0,0,0,.52-.008.28.28,0,0,0,.2-.056.309.309,0,0,0,.056-.216Z" transform="translate(249 2566)" fill="#ffe632"/><path d="M9.582,20.1q-.482-.6-1.075-1.228t-1.2-1.227q-.607-.6-1.171-1.07L7.81,15.13q.567.464,1.222,1.092t1.256,1.269q.6.642,1.006,1.139Z" transform="translate(259 2671)" fill="#ffe632"/><path d="M9.582,20.1q-.482-.6-1.075-1.228t-1.2-1.227q-.607-.6-1.171-1.07L7.81,15.13q.567.464,1.222,1.092t1.256,1.269q.6.642,1.006,1.139Z" transform="translate(259 2803.87)" fill="#ffe632"/></g></svg>