<svg xmlns="http://www.w3.org/2000/svg" width="282" height="115.9" viewBox="0 0 282 115.9"><g transform="translate(-43 -1470)"><circle cx="42.5" cy="42.5" r="42.5" transform="translate(43 1478)" fill="#f8f8f8"/><g transform="translate(65 1500.91)"><path d="M911.215,24.927H872.6c.063,0-.137,0-.028,0,.069,0-.013,0-.026-.006l-.1-.029c.113.035-.03-.022-.065-.041-.077-.043.063.063,0,0-.018-.018-.037-.037-.055-.054s-.06-.073-.018-.018-.016-.03-.025-.045-.025-.045-.036-.069c.037.079.011.024,0-.027-.006-.026-.013-.052-.017-.078,0,.019,0,.089.009.026,0-.025,0-.018,0-.028s0-.007,0-.01c.01-.44,0-.882,0-1.322V2.262c0-.03,0-.061,0-.091,0-.01,0,0,0-.028-.009-.063-.006.008-.009.026,0-.026.011-.052.017-.078s.039-.123.011-.052.007-.013.012-.022c.019-.029.035-.059.054-.088-.031.048-.041.041,0,0,.019-.017.038-.036.055-.054.063-.062-.077.045,0,0,.034-.019.177-.076.065-.041A1.078,1.078,0,0,1,872.6,1.8c-.031,0-.111,0,0,.008.062,0,.124,0,.185,0h37.484c.308,0,.616.005.923,0h.025c.008,0,.1,0,.028,0s.032.008.051.012.051.015.076.022c-.054-.017-.052-.031,0,0,.029.019.059.035.088.054-.009-.006-.07-.063-.022-.015.032.032.117.141.057.051.017.026.087.165.066.11s.029.183.024.1c0-.063,0,.018,0,.043,0,.139,0,.279,0,.418V24.469c0,.031,0,.062,0,.093,0,.057,0,.068.008,0,0,.024-.05.186-.028.13s-.049.085-.066.11c.06-.091-.025.019-.057.051-.048.047.014-.01.022-.015-.029.019-.059.035-.088.054-.083.053.05,0-.048.017-.035.006-.068.018-.1.023.027,0,.117-.011,0-.008a.608.608,0,1,0,0,1.217,1.61,1.61,0,0,0,1.58-1.627c0-.175,0-.35,0-.525V2.6c0-.14,0-.28,0-.421A1.607,1.607,0,0,0,911.209.59c-.272-.006-.544,0-.816,0H872.765c-.092,0-.185,0-.277.006a1.61,1.61,0,0,0-1.471,1.63c0,.529,0,1.059,0,1.589V23.231c0,.441-.009.883,0,1.324a1.607,1.607,0,0,0,1.589,1.589c.084,0,.168,0,.253,0h38.356a.608.608,0,0,0,0-1.217" transform="translate(-871.013 -0.54)" fill="#333"/><path d="M965.471,145.1a.694.694,0,0,1-.005.075l.022-.162a.59.59,0,0,1-.039.139l.061-.145a.6.6,0,0,1-.073.121l.1-.123a.61.61,0,0,1-.089.089l.123-.1a.592.592,0,0,1-.121.072l.145-.061a.593.593,0,0,1-.139.039l.162-.022a.6.6,0,0,1-.149,0l.162.022a.59.59,0,0,1-.139-.039l.145.061a.594.594,0,0,1-.121-.072l.123.1a.61.61,0,0,1-.089-.089l.1.123a.594.594,0,0,1-.072-.121l.061.145a.593.593,0,0,1-.039-.139l.022.162a.6.6,0,0,1,0-.149l-.022.162a.593.593,0,0,1,.039-.139l-.061.145a.594.594,0,0,1,.072-.121l-.1.123a.607.607,0,0,1,.089-.089l-.123.1a.6.6,0,0,1,.121-.072l-.145.061a.591.591,0,0,1,.139-.039l-.162.022a.6.6,0,0,1,.149,0l-.162-.022a.594.594,0,0,1,.139.039l-.145-.061a.6.6,0,0,1,.121.072l-.123-.1a.613.613,0,0,1,.089.089l-.1-.123a.6.6,0,0,1,.073.121l-.061-.145a.59.59,0,0,1,.039.139l-.022-.162a.694.694,0,0,1,.005.075.631.631,0,0,0,.178.43.608.608,0,0,0,.86,0,.625.625,0,0,0,.178-.43,1.66,1.66,0,0,0-.027-.236.589.589,0,0,0-.021-.092,1.1,1.1,0,0,0-.139-.3,1.631,1.631,0,0,0-.14-.177,1.412,1.412,0,0,0-.18-.147,1.138,1.138,0,0,0-.62-.2.586.586,0,0,0-.09,0,1.52,1.52,0,0,0-.24.037,1.117,1.117,0,0,0-.542.337,1.582,1.582,0,0,0-.136.181,1.413,1.413,0,0,0-.1.215,1.146,1.146,0,0,0-.063.323,1.07,1.07,0,0,0,.034.339.618.618,0,0,0,.027.082,1.455,1.455,0,0,0,.1.215,1.554,1.554,0,0,0,.135.181.613.613,0,0,0,.063.067,1.117,1.117,0,0,0,.265.187,1.56,1.56,0,0,0,.213.086,1.453,1.453,0,0,0,.24.039,1.142,1.142,0,0,0,.333-.025.573.573,0,0,0,.1-.03,1.43,1.43,0,0,0,.222-.1,1.474,1.474,0,0,0,.192-.144.6.6,0,0,0,.07-.07,1.286,1.286,0,0,0,.246-.421.564.564,0,0,0,.027-.1,1.606,1.606,0,0,0,.03-.258.608.608,0,0,0-.608-.608.615.615,0,0,0-.43.178.639.639,0,0,0-.178.43" transform="translate(-956.814 -132.276)" fill="#333"/><path d="M1265.471,145.1a.636.636,0,0,1-.005.075l.022-.162a.587.587,0,0,1-.039.139l.062-.145a.606.606,0,0,1-.073.121l.1-.123a.6.6,0,0,1-.089.089l.123-.1a.6.6,0,0,1-.121.072l.145-.061a.59.59,0,0,1-.139.039l.162-.022a.6.6,0,0,1-.149,0l.162.022a.592.592,0,0,1-.139-.039l.145.061a.6.6,0,0,1-.121-.072l.123.1a.608.608,0,0,1-.089-.089l.1.123a.588.588,0,0,1-.072-.121l.061.145a.587.587,0,0,1-.039-.139l.022.162a.587.587,0,0,1,0-.149l-.022.162a.588.588,0,0,1,.039-.139l-.061.145a.588.588,0,0,1,.072-.121l-.1.123a.6.6,0,0,1,.089-.089l-.123.1a.6.6,0,0,1,.121-.072l-.145.061a.593.593,0,0,1,.139-.039l-.162.022a.6.6,0,0,1,.149,0l-.162-.022a.591.591,0,0,1,.139.039l-.145-.061a.6.6,0,0,1,.121.072l-.123-.1a.607.607,0,0,1,.089.089l-.1-.123a.606.606,0,0,1,.073.121l-.062-.145a.588.588,0,0,1,.039.139l-.022-.162a.637.637,0,0,1,.005.075.631.631,0,0,0,.178.43.608.608,0,0,0,.86,0,.625.625,0,0,0,.178-.43,1.668,1.668,0,0,0-.027-.236.6.6,0,0,0-.021-.092,1.1,1.1,0,0,0-.139-.3,1.625,1.625,0,0,0-.14-.177,1.415,1.415,0,0,0-.18-.147,1.138,1.138,0,0,0-.62-.2.584.584,0,0,0-.09,0,1.523,1.523,0,0,0-.241.037,1.117,1.117,0,0,0-.542.337,1.562,1.562,0,0,0-.136.181,1.4,1.4,0,0,0-.1.215,1.15,1.15,0,0,0-.063.323,1.076,1.076,0,0,0,.034.339.627.627,0,0,0,.026.082,1.456,1.456,0,0,0,.1.215,1.553,1.553,0,0,0,.135.181.612.612,0,0,0,.063.067,1.115,1.115,0,0,0,.265.187,1.55,1.55,0,0,0,.213.086,1.452,1.452,0,0,0,.24.039,1.143,1.143,0,0,0,.333-.025.571.571,0,0,0,.1-.03,1.43,1.43,0,0,0,.222-.1,1.462,1.462,0,0,0,.192-.144.618.618,0,0,0,.07-.07,1.287,1.287,0,0,0,.246-.421.564.564,0,0,0,.027-.1,1.606,1.606,0,0,0,.03-.258.624.624,0,0,0-.178-.43.608.608,0,0,0-.86,0,.639.639,0,0,0-.178.43" transform="translate(-1232.477 -132.276)" fill="#333"/><path d="M1205,68.027h6.518c.3,0,.6.007.905,0h.013a.618.618,0,0,0,.609-.608,2.235,2.235,0,0,1,.019-.28l-.022.162a2.127,2.127,0,0,1,.135-.5l-.061.145a2.077,2.077,0,0,1,.188-.351l.046-.065c.057-.083-.109.133-.014.019q.059-.071.125-.136t.136-.125c.114-.095-.1.071-.019.014l.065-.046a2.089,2.089,0,0,1,.351-.188l-.145.061a2.12,2.12,0,0,1,.5-.135l-.162.022a2.146,2.146,0,0,1,.28-.019.617.617,0,0,0,.609-.608V54.716c0-.491.008-.982,0-1.472,0-.007,0-.014,0-.021a.617.617,0,0,0-.609-.608,2.147,2.147,0,0,1-.28-.019l.162.022a2.12,2.12,0,0,1-.5-.135l.145.061a2.088,2.088,0,0,1-.351-.188l-.065-.046c-.083-.057.133.109.019.014q-.071-.059-.136-.125t-.125-.136c-.095-.114.071.1.014.019l-.046-.065a2.086,2.086,0,0,1-.188-.351l.061.145a2.127,2.127,0,0,1-.135-.5l.022.162a2.235,2.235,0,0,1-.019-.28.618.618,0,0,0-.609-.608h-6.518c-.3,0-.6-.007-.905,0H1205a.608.608,0,1,0,0,1.217h6.518c.3,0,.6.009.905,0h.013l-.608-.608a2.637,2.637,0,0,0,2.637,2.637l-.608-.608V63.9c0,.49-.012.982,0,1.472,0,.007,0,.014,0,.021l.608-.608a2.637,2.637,0,0,0-2.637,2.637l.608-.608h-6.518c-.3,0-.6-.007-.905,0H1205a.608.608,0,1,0,0,1.217" transform="translate(-1177.344 -46.479)" fill="#333"/><path d="M931.093,50.586h-6.518c-.3,0-.6-.007-.905,0h-.013a.618.618,0,0,0-.608.608,2.235,2.235,0,0,1-.019.28l.022-.162a2.115,2.115,0,0,1-.135.5l.061-.145a2.09,2.09,0,0,1-.188.351l-.046.065c-.057.083.109-.133.014-.019q-.059.071-.125.136t-.136.125c-.114.095.1-.071.019-.014l-.065.046a2.09,2.09,0,0,1-.351.188l.145-.061a2.117,2.117,0,0,1-.5.135l.162-.022a2.272,2.272,0,0,1-.28.019.618.618,0,0,0-.608.608V63.9c0,.491-.008.982,0,1.472,0,.007,0,.014,0,.021a.618.618,0,0,0,.608.608,2.27,2.27,0,0,1,.28.019L921.746,66a2.117,2.117,0,0,1,.5.135l-.145-.061a2.091,2.091,0,0,1,.351.188l.065.046c.083.057-.133-.109-.019-.014q.071.059.136.125t.125.136c.095.114-.071-.1-.014-.019l.046.065a2.1,2.1,0,0,1,.188.351l-.061-.145a2.115,2.115,0,0,1,.135.5l-.022-.162a2.235,2.235,0,0,1,.019.28.618.618,0,0,0,.608.608h6.518c.3,0,.6.007.905,0h.013a.608.608,0,0,0,0-1.217h-6.518c-.3,0-.6-.009-.905,0h-.013l.608.608a2.637,2.637,0,0,0-2.637-2.637l.608.608V54.716c0-.49.012-.982,0-1.472,0-.007,0-.014,0-.021l-.608.608a2.637,2.637,0,0,0,2.637-2.637l-.608.608h6.518c.3,0,.6.007.905,0h.013a.608.608,0,0,0,0-1.217" transform="translate(-916.96 -46.479)" fill="#333"/><path d="M871.028,289.24l.193,1.707.464,4.1.564,4.983.485,4.29c.079.7.154,1.391.236,2.087,0,.01,0,.02,0,.03a.623.623,0,0,0,.608.608H908.6c.474,0,.95.009,1.425,0h.061a.626.626,0,0,0,.608-.608l.209-1.707.5-4.1.612-4.983.527-4.29c.085-.691.213-1.391.256-2.087,0-.01,0-.02,0-.03a.61.61,0,0,0-.608-.608.627.627,0,0,0-.608.608l-.209,1.707-.5,4.1-.612,4.983-.527,4.29c-.085.692-.206,1.391-.256,2.087,0,.01,0,.02,0,.03l.608-.608h-35.02c-.474,0-.951-.017-1.425,0h-.061l.608.608L874,304.73l-.464-4.1-.564-4.983-.485-4.29c-.079-.7-.154-1.392-.236-2.087l0-.03a.623.623,0,0,0-.608-.608c-.3.013-.647.27-.608.608" transform="translate(-871.024 -265.216)" fill="#333"/><path d="M1045.936.613V22.821c0,.714-.025,1.433,0,2.146,0,.133.027.266.042.4q.087.749.173,1.5l.6,5.144q.327,2.826.654,5.652.2,1.7.394,3.4l.019.166a.623.623,0,0,0,.608.608h8.262a.627.627,0,0,0,.609-.608l.3-2.415.672-5.375.687-5.5c.121-.965.276-1.932.363-2.9.042-.466,0-.95,0-1.417V.662a.608.608,0,0,0-1.217,0V22.841c0,.707.028,1.421,0,2.128-.005.137-.03.274-.047.41l-.187,1.5-.644,5.15-.706,5.649-.423,3.383-.021.166.608-.608h-8.262l.609.608-.28-2.415-.622-5.375-.64-5.528c-.111-.956-.255-1.914-.333-2.874-.038-.471,0-.958,0-1.43V.613a.608.608,0,0,0-1.217,0" transform="translate(-1031.735 -0.004)" fill="#333"/><path d="M2.1,4.286a.5.5,0,0,1-.438-.257L-.437.243a.5.5,0,0,1,.194-.68.5.5,0,0,1,.68.194l2.1,3.786a.5.5,0,0,1-.437.743Z" transform="translate(18.79 9.167)" fill="#333"/><path d="M0,4.475a.5.5,0,0,1-.5-.5V0A.5.5,0,0,1,0-.5.5.5,0,0,1,.5,0V3.975A.5.5,0,0,1,0,4.475Z" transform="translate(20.893 12.952)" fill="#333"/><path d="M0,4.286a.5.5,0,0,1-.242-.063.5.5,0,0,1-.194-.68l2.1-3.786a.5.5,0,0,1,.68-.194.5.5,0,0,1,.194.68L.437,4.029A.5.5,0,0,1,0,4.286Z" transform="translate(20.893 9.167)" fill="#333"/><path d="M5.679.5H0A.5.5,0,0,1-.5,0,.5.5,0,0,1,0-.5H5.679a.5.5,0,0,1,.5.5A.5.5,0,0,1,5.679.5Z" transform="translate(18.054 12.952)" fill="#333"/><path d="M5.679.5H0A.5.5,0,0,1-.5,0,.5.5,0,0,1,0-.5H5.679a.5.5,0,0,1,.5.5A.5.5,0,0,1,5.679.5Z" transform="translate(18.054 15.224)" fill="#333"/></g><rect width="70" height="20" rx="10" transform="translate(51 1470)" fill="#fff"/><path d="M10,1a9,9,0,0,0,0,18H60A9,9,0,0,0,60,1H10m0-1H60a10,10,0,0,1,0,20H10A10,10,0,0,1,10,0Z" transform="translate(51 1470)" fill="#707070"/><path d="M-23.22-6.708h10.452V-4.14h-1.26V-5.592h-7.98V-4.14H-23.22Zm1.656,2.16h6.444V-3.36h-6.444Zm7.416-5.676.876,1.044q-.984.192-2.148.342t-2.418.258q-1.254.108-2.52.186t-2.454.114a2.393,2.393,0,0,0-.108-.57q-.1-.318-.18-.534,1.188-.036,2.424-.114t2.424-.18q1.188-.1,2.238-.246T-14.148-10.224Zm-7.92,2.172,1.128-.312a6.872,6.872,0,0,1,.438.75,4.047,4.047,0,0,1,.294.714l-1.188.348a4.243,4.243,0,0,0-.264-.726A6.645,6.645,0,0,0-22.068-8.052Zm3.18-.252,1.14-.264a8.56,8.56,0,0,1,.36.834,3.867,3.867,0,0,1,.216.786l-1.2.3a5.41,5.41,0,0,0-.192-.8A6.541,6.541,0,0,0-18.888-8.3ZM-15-8.592l1.356.336q-.2.384-.432.762t-.45.726q-.222.348-.426.612L-16-6.48q.18-.288.366-.654t.354-.75Q-15.108-8.268-15-8.592Zm-.6,4.044h.276L-15.1-4.6l.864.528a6.93,6.93,0,0,1-1.4,2.022A8.242,8.242,0,0,1-17.616-.6a12.869,12.869,0,0,1-2.418.966A20.018,20.018,0,0,1-22.74.948,2.594,2.594,0,0,0-22.932.57q-.132-.222-.276-.432A2.426,2.426,0,0,0-23.484-.2,21.714,21.714,0,0,0-20.868-.66a11.569,11.569,0,0,0,2.28-.792,7.211,7.211,0,0,0,1.8-1.2A4.9,4.9,0,0,0-15.6-4.332Zm-4.608.864a6,6,0,0,0,1.8,1.656A10.73,10.73,0,0,0-15.792-.894a17.981,17.981,0,0,0,3.252.618,3.444,3.444,0,0,0-.282.36q-.15.216-.282.444t-.228.408A17.633,17.633,0,0,1-16.644.162a10.359,10.359,0,0,1-2.688-1.368,8.511,8.511,0,0,1-2-2.022Zm13.08-5.592H-.576v.936H-7.128ZM-7.44-6.288H-.372V-5.3H-7.44Zm-.024,4.512H-.348v1.02H-7.464ZM-6.252-3.24H-1.44v.816H-6.252ZM-6.9-7.788H-.828v.9H-6.9Zm1.08-2.376h1.152v4.32H-5.82Zm2.688,0h1.164v4.32H-3.132ZM-4.476-5.8h1.068v4.62H-4.476Zm2.328,1.008H-.972V-.12a1.59,1.59,0,0,1-.1.642.744.744,0,0,1-.39.354,2.2,2.2,0,0,1-.72.144q-.432.024-1.044.024a2.59,2.59,0,0,0-.114-.51,4.909,4.909,0,0,0-.186-.5q.372.012.72.018l.456.006A.262.262,0,0,0-2.184.006a.211.211,0,0,0,.036-.138Zm-4.68,0h5.112v.9h-4.02V1.044H-6.828Zm-4.26-1.632h3.276v.984h-3.276Zm.072-3.348H-7.86V-8.8h-3.156Zm-.072,5.016h3.276v.984h-3.276Zm-.528-3.372h4.14V-7.1h-4.14Zm1.128,5.064h2.724V.54h-2.724V-.48h1.644V-2.04h-1.644Zm-.624,0h1.068V1.032h-1.068ZM3.072-4.824H8.928V-3.8H3.072ZM2.88-2.784H9.144v1.068H2.88ZM6.588-4.512h1.14V.816H6.588Zm-2.376.048h1.1V-2.2a4.1,4.1,0,0,1-.072.7A4.9,4.9,0,0,1,5-.63a3.834,3.834,0,0,1-.486.894,3.111,3.111,0,0,1-.792.756A4.441,4.441,0,0,0,3.33.63,3.645,3.645,0,0,0,2.88.276a2.544,2.544,0,0,0,.828-.792,3.01,3.01,0,0,0,.4-.912A3.436,3.436,0,0,0,4.212-2.2ZM1.62-8.04H4.74v.852H1.62Zm5.568,0H10.32v.852H7.188ZM9.816-9.684h1.26V-.492a2.318,2.318,0,0,1-.114.8.838.838,0,0,1-.414.456,2.138,2.138,0,0,1-.8.21,11.207,11.207,0,0,1-1.158.03A3.38,3.38,0,0,0,8.508.6Q8.448.372,8.37.132a2.436,2.436,0,0,0-.162-.4q.42.012.822.012h.546a.241.241,0,0,0,.186-.06A.282.282,0,0,0,9.816-.5Zm-8.076,0H5.556v4.2H1.74V-6.42h2.6V-8.76H1.74Zm8.724,0v.924H7.644V-6.4h2.82v.936H6.42V-9.684Zm-9.48,0h1.26V1.044H.984ZM18.516-.612h3.936V.552H18.516Zm-.648-3.336h5.256V1H21.852V-2.772h-2.76V1.044H17.868Zm-.792-2.2,1.65-.084q.93-.048,1.968-.114t2.07-.126l-.012,1.152q-.984.072-1.974.156t-1.9.144q-.912.06-1.656.12Zm3.84-1.632,1.032-.516q.384.5.75,1.086t.666,1.146a6.172,6.172,0,0,1,.444,1.02l-1.116.6a7.044,7.044,0,0,0-.408-1.038q-.276-.582-.63-1.182A12.547,12.547,0,0,0,20.916-7.776Zm-1.68-2.4,1.428.276q-.24.756-.528,1.56t-.588,1.548q-.3.744-.576,1.32L17.88-5.76q.192-.444.39-1T18.648-7.9q.18-.594.336-1.176T19.236-10.176ZM12.48-7.74h3.912v1.188H12.48Zm1.68-2.436,1.212.144q-.192.936-.414,1.98T14.49-5.958Q14.244-4.908,14-3.942t-.462,1.758l-1.044-.564q.2-.7.432-1.608t.45-1.926Q13.6-7.3,13.8-8.292T14.16-10.176ZM13.14-2.988l.708-.9q.636.384,1.326.876t1.29,1a6.232,6.232,0,0,1,.948.96L16.644-.024A8.422,8.422,0,0,0,15.714-1q-.582-.534-1.254-1.062A13.754,13.754,0,0,0,13.14-2.988ZM15.912-7.74h.216l.228-.036.756.132a19.679,19.679,0,0,1-.594,4.032A9.246,9.246,0,0,1,15.264-.774,6.486,6.486,0,0,1,13.3,1.092a4.853,4.853,0,0,0-.36-.546,3.716,3.716,0,0,0-.42-.486,4.939,4.939,0,0,0,1.728-1.578,8.287,8.287,0,0,0,1.134-2.544A17,17,0,0,0,15.912-7.5Z" transform="translate(86 1484)" fill="#333"/><ellipse cx="42" cy="42.5" rx="42" ry="42.5" transform="translate(142 1478)" fill="#f8f8f8"/><g transform="translate(166.79 1536.11)"><path d="M-9.8.336C-5.292.336-2.352-2.3-2.352-6.44V-6.5c0-4.424-3.052-6.272-6.86-6.272a9.587,9.587,0,0,0-2.576.336l.224-3.388H-3.22V-19.6H-15.26l-.56,9.66,2.492,1.652a8.417,8.417,0,0,1,3.276-.728c2.044,0,3.472.98,3.472,2.66V-6.3c0,1.736-1.26,2.716-3.276,2.716a6.861,6.861,0,0,1-4.676-2.128l-2.6,3.108A10.079,10.079,0,0,0-9.8.336Zm17.892,0c5.236,0,8.736-4.452,8.736-10.136v-.056c0-5.684-3.5-10.08-8.68-10.08C2.94-19.936-.588-15.484-.588-9.8v.056C-.588-4.06,2.856.336,8.092.336Zm.056-3.892c-2.6,0-4.312-2.66-4.312-6.244v-.056c0-3.584,1.68-6.188,4.256-6.188S12.4-13.356,12.4-9.8v.056C12.4-6.188,10.752-3.556,8.148-3.556Z" transform="translate(9.21 19.89)" fill="#e84830"/><path d="M3.852-6.3A3.077,3.077,0,0,0,6.93-9.522v-.036a3.028,3.028,0,0,0-3.042-3.186A3.067,3.067,0,0,0,.81-9.522v.036A3.028,3.028,0,0,0,3.852-6.3ZM5.04-9.486c0,.81-.4,1.548-1.152,1.548-.72,0-1.188-.738-1.188-1.584v-.036c0-.828.4-1.548,1.152-1.548.72,0,1.188.738,1.188,1.584Zm2.07,2.7L2.07,0H4.212L8.37-5.814,13.41-12.6H11.268ZM11.592.144A3.077,3.077,0,0,0,14.67-3.078v-.036A3.028,3.028,0,0,0,11.628-6.3,3.067,3.067,0,0,0,8.55-3.078v.036A3.028,3.028,0,0,0,11.592.144Zm.036-1.638c-.72,0-1.188-.738-1.188-1.584v-.036c0-.828.4-1.548,1.152-1.548.72,0,1.188.738,1.188,1.584v.036C12.78-2.232,12.384-1.494,11.628-1.494Z" transform="translate(28.21 18.89)" fill="#e84830"/></g><path d="M-18.711-7.191h3.888v.837h-3.888Zm.333,4.842h4.194V-1.5h-4.194Zm-.558,2.025H-13.8V.531h-5.139ZM-15.1-7.191h.189l.171-.036.648.279a5.483,5.483,0,0,1-.994,1.818,6.016,6.016,0,0,1-1.5,1.283,8.5,8.5,0,0,1-1.854.832,4.634,4.634,0,0,0-.243-.418,3.248,3.248,0,0,0-.288-.391A6.956,6.956,0,0,0-17.3-4.5a5.374,5.374,0,0,0,1.354-1.08A4.046,4.046,0,0,0-15.1-7.038Zm-2.277.729a4.289,4.289,0,0,0,1.431,1.652,6.205,6.205,0,0,0,2.268.967A2.764,2.764,0,0,0-14-3.47a3.367,3.367,0,0,0-.266.41,6.467,6.467,0,0,1-2.376-1.161,5.751,5.751,0,0,1-1.584-1.962Zm.585,2.97h.954V.225h-.954Zm-4.041-4.122L-20-7.3q-.18.333-.374.7t-.387.7q-.193.329-.365.581l-.648-.279a6.42,6.42,0,0,0,.342-.621q.171-.351.329-.72T-20.835-7.614Zm1.026,1.053.792.36q-.324.513-.706,1.08t-.765,1.085q-.382.517-.724.913l-.567-.315q.252-.306.522-.693t.535-.81q.266-.423.5-.842T-19.809-6.561ZM-22.23-5.553l.459-.648a6.6,6.6,0,0,1,.5.45q.252.252.463.5a3.263,3.263,0,0,1,.329.445l-.5.747a2.956,2.956,0,0,0-.315-.481q-.207-.266-.45-.531T-22.23-5.553Zm2.142,1.125.639-.27q.18.3.347.643t.288.671a4,4,0,0,1,.175.585l-.684.306a4.685,4.685,0,0,0-.171-.594q-.117-.333-.27-.689A6.3,6.3,0,0,0-20.088-4.428Zm-2.16.792q.612-.018,1.458-.054l1.719-.072L-19.08-3q-.819.063-1.629.117l-1.458.1Zm2.358,1.413.684-.216q.171.378.333.837a6.461,6.461,0,0,1,.234.8l-.72.252a6.407,6.407,0,0,0-.216-.81Q-19.728-1.827-19.89-2.223Zm-1.935-.153.8.144a10.553,10.553,0,0,1-.22,1.274A5.752,5.752,0,0,1-21.591.1q-.09-.054-.225-.122l-.274-.135a2.118,2.118,0,0,0-.247-.1,3.963,3.963,0,0,0,.328-.972A11.332,11.332,0,0,0-21.825-2.376Zm1-.846h.846V.792h-.846Zm10.377-.126h4.968V-2.6h-4.968Zm-.18,1.512h4.9V-1.1h-4.9Zm-.72,1.629h6.372V.6h-6.372ZM-8.685-4.05h.945V.3h-.945Zm-1.683-.036.864.2a6.45,6.45,0,0,1-.549,1.143,5.4,5.4,0,0,1-.693.927q-.09-.072-.229-.162t-.283-.176a2.061,2.061,0,0,0-.252-.13,3.813,3.813,0,0,0,.67-.815A4.7,4.7,0,0,0-10.368-4.086Zm-1.575-.963h7.02v.837h-7.02Zm-.612-1.872h7.182V-6.1h-7.182Zm3.087-.7H-8.5v1.188h-.972Zm-3,2.574h.927V-3.6q0,.468-.04,1.03a11.588,11.588,0,0,1-.144,1.157,7.2,7.2,0,0,1-.3,1.157A4.344,4.344,0,0,1-12.537.765a1.737,1.737,0,0,0-.212-.211q-.139-.122-.288-.234a2.1,2.1,0,0,0-.248-.166,3.668,3.668,0,0,0,.441-.9,6.439,6.439,0,0,0,.243-.99,9.424,9.424,0,0,0,.108-.981q.027-.481.027-.887Zm1.3-.972.873-.234a5.152,5.152,0,0,1,.288.576,2.753,2.753,0,0,1,.18.549l-.936.261a3.261,3.261,0,0,0-.149-.558A4.162,4.162,0,0,0-11.169-6.021Zm3.555-.315,1.1.234q-.189.342-.382.671t-.346.563l-.8-.243q.081-.18.162-.391t.158-.432A3.078,3.078,0,0,0-7.614-6.336Zm7.119-1.3H.486v1.98a1.063,1.063,0,0,1-.1.522.676.676,0,0,1-.373.279,2.387,2.387,0,0,1-.635.108q-.365.018-.851.018a2,2,0,0,0-.162-.423q-.117-.234-.225-.405l.477.018q.243.009.437,0l.266,0a.328.328,0,0,0,.153-.036.129.129,0,0,0,.036-.108ZM1.656-5.967l.918.414a5.491,5.491,0,0,1-1.2,1,9.051,9.051,0,0,1-1.516.756,13.773,13.773,0,0,1-1.715.54q-.9.221-1.786.374Q-3.708-3-3.812-3.155t-.22-.315q-.117-.157-.207-.257.909-.108,1.786-.3A14.136,14.136,0,0,0-.8-4.482,8.119,8.119,0,0,0,.612-5.117,3.956,3.956,0,0,0,1.656-5.967ZM-2.214-7.2l.936.3a5.319,5.319,0,0,1-.6.783,8.511,8.511,0,0,1-.729.706,6.9,6.9,0,0,1-.761.571q-.081-.09-.22-.216T-3.87-5.31q-.144-.126-.252-.207a5.654,5.654,0,0,0,1.071-.747A4.794,4.794,0,0,0-2.214-7.2Zm3.654.4.774-.477q.351.243.724.544t.7.6a5,5,0,0,1,.535.563l-.837.522a4.45,4.45,0,0,0-.5-.562q-.315-.31-.684-.625T1.44-6.8ZM-2.376-3.87H3.042V.747H2.061V-3.141h-3.51V.792h-.927Zm.459,1.233H2.457v.666H-1.917Zm0,1.206H2.457v.657H-1.917Zm0,1.2H2.457V.477H-1.917ZM8.6-7.083q-.036.153-.072.338T8.451-6.4q-.036.189-.09.445t-.1.522q-.049.266-.1.517-.09.378-.229.882t-.315,1.08q-.176.576-.4,1.161T6.736-.644A8.76,8.76,0,0,1,6.192.378L5.139-.036a6.841,6.841,0,0,0,.585-.945q.27-.522.495-1.08t.405-1.1q.18-.54.306-1t.2-.806q.126-.585.2-1.156A7.23,7.23,0,0,0,7.4-7.209ZM11.7-6.21a6.792,6.792,0,0,1,.441.72q.234.432.459.909t.4.922q.18.445.288.77l-1.017.468q-.09-.369-.252-.828t-.369-.936q-.207-.477-.441-.9a4.426,4.426,0,0,0-.477-.711ZM5.058-5.2q.234.018.459.014T5.976-5.2q.216-.009.531-.032l.68-.049q.365-.027.725-.059T8.577-5.4q.306-.023.5-.023a2.011,2.011,0,0,1,.81.153,1.176,1.176,0,0,1,.558.517,2.041,2.041,0,0,1,.207,1q0,.522-.049,1.143a11.037,11.037,0,0,1-.158,1.188,3.428,3.428,0,0,1-.306.945,1.242,1.242,0,0,1-.576.639,1.976,1.976,0,0,1-.855.171A4.083,4.083,0,0,1,8.163.3q-.3-.041-.522-.086L7.47-.846q.18.045.387.09t.4.067a2.823,2.823,0,0,0,.311.023.968.968,0,0,0,.41-.081.641.641,0,0,0,.292-.324,2.814,2.814,0,0,0,.22-.7,8.067,8.067,0,0,0,.126-.923q.04-.495.04-.945a1.158,1.158,0,0,0-.1-.558.517.517,0,0,0-.306-.243A1.666,1.666,0,0,0,8.757-4.5q-.207,0-.567.031T7.416-4.4q-.414.04-.765.085L6.1-4.239q-.18.027-.464.063T5.157-4.1ZM16.506-7.191q.315.1.8.207t1.008.207q.526.1,1,.175t.77.1l-.243.99q-.27-.036-.643-.1t-.8-.148q-.427-.081-.837-.167T16.8-6.089q-.342-.077-.549-.131ZM16.5-5.436q-.045.2-.094.5t-.1.621q-.05.324-.09.621l-.068.5a4.39,4.39,0,0,1,1.305-.7,4.521,4.521,0,0,1,1.422-.225,2.842,2.842,0,0,1,1.309.279,2.113,2.113,0,0,1,.837.734,1.8,1.8,0,0,1,.292.994,2.438,2.438,0,0,1-.265,1.13,2.2,2.2,0,0,1-.855.873,4.249,4.249,0,0,1-1.535.5,9.748,9.748,0,0,1-2.3.032L16.038-.639a8.165,8.165,0,0,0,2.3.031,2.8,2.8,0,0,0,1.391-.549,1.248,1.248,0,0,0,.468-.985.913.913,0,0,0-.18-.558,1.2,1.2,0,0,0-.5-.383,1.818,1.818,0,0,0-.733-.139,3.667,3.667,0,0,0-1.463.288,2.914,2.914,0,0,0-1.111.819,1.964,1.964,0,0,0-.189.252,1.864,1.864,0,0,0-.126.243l-.936-.225q.054-.261.108-.617t.108-.765q.054-.41.1-.828t.081-.814q.036-.4.054-.711ZM-32.652,5.592q-.036-.189-.081-.351t-.1-.315l1.143-.189q.018.135.041.328t.049.356q.027.117.085.454t.153.823q.095.486.207,1.053t.225,1.143q.112.576.212,1.089t.175.9q.077.387.112.558.045.2.1.427t.122.436l-1.161.207q-.036-.243-.059-.468a3.466,3.466,0,0,0-.067-.423q-.027-.162-.094-.531t-.167-.873l-.212-1.076q-.113-.571-.22-1.139l-.2-1.062q-.094-.495-.167-.85T-32.652,5.592ZM-35.127,6.78q.2-.018.4-.031t.414-.031l.563-.077q.365-.049.828-.122l.963-.148q.5-.076.968-.153t.837-.14q.369-.063.576-.108t.427-.086q.212-.049.365-.095l.2,1.071q-.135.009-.36.041l-.423.059-.625.1-.864.139q-.473.077-.972.153t-.954.153q-.454.077-.8.131t-.527.09q-.2.036-.382.076t-.41.095Zm-.009,2.628q.18-.009.437-.036t.455-.054l.653-.1.923-.144q.513-.081,1.057-.171l1.057-.175q.513-.086.941-.162l.689-.122q.261-.045.486-.1t.4-.1l.216,1.062a3.8,3.8,0,0,0-.414.049l-.495.086q-.3.045-.733.117l-.954.158q-.517.086-1.058.171t-1.039.171q-.5.086-.9.148t-.621.108l-.5.095a3.179,3.179,0,0,0-.365.085Zm11.7-3.069q.027.153.063.315T-23.3,7q.072.243.184.653t.252.9q.14.5.279,1.013t.274.99q.135.472.234.828t.153.535a1.5,1.5,0,0,1,.072.216q.036.135.081.266t.081.22l-1.1.279a3.754,3.754,0,0,0-.059-.378q-.041-.2-.094-.378t-.153-.554q-.1-.373-.229-.859l-.27-1.008q-.14-.522-.27-1.017t-.238-.886q-.108-.392-.18-.608a2.564,2.564,0,0,0-.108-.324q-.063-.153-.135-.288Zm4.32,1.35q-.144.288-.369.662t-.5.765q-.275.392-.544.738t-.5.6l-.891-.45a6.1,6.1,0,0,0,.513-.522q.27-.306.508-.616a4.182,4.182,0,0,0,.365-.544l-.373.076-.68.139-.864.175q-.468.095-.941.193t-.9.185q-.427.086-.747.153t-.472.1l-.243-.963q.207-.018.4-.045t.4-.063l.378-.068.67-.122q.391-.072.837-.158l.9-.171q.454-.085.859-.166l.7-.14q.3-.059.423-.086.108-.027.225-.063a1.794,1.794,0,0,0,.2-.072Zm5.607-.99q.063.144.167.41t.216.567q.112.3.207.567t.14.418L-13.743,9a4.337,4.337,0,0,0-.126-.428q-.09-.266-.2-.558t-.216-.562q-.108-.27-.18-.441Zm3.3.612-.108.337q-.045.139-.081.266A9.544,9.544,0,0,1-10.872,9.3a5.931,5.931,0,0,1-.765,1.292,6.663,6.663,0,0,1-1.422,1.354,7.253,7.253,0,0,1-1.575.851l-.846-.864a6.439,6.439,0,0,0,1.049-.41,6.478,6.478,0,0,0,1.049-.644,4.832,4.832,0,0,0,.873-.837,4.551,4.551,0,0,0,.558-.887,6.539,6.539,0,0,0,.4-1.066,6.293,6.293,0,0,0,.216-1.134ZM-15.6,7.167q.081.171.194.437t.234.567q.122.3.229.58t.171.468l-.981.36q-.054-.171-.157-.464t-.229-.608q-.126-.315-.239-.58a4.3,4.3,0,0,0-.194-.41Zm9.351-2.232q.216.117.5.288t.567.356l.545.351q.256.167.418.284l-.594.891q-.18-.126-.437-.3t-.536-.351q-.279-.18-.549-.346t-.486-.293Zm-1.575,6.4q.5-.09,1.026-.225a9.43,9.43,0,0,0,1.035-.333,8.244,8.244,0,0,0,.99-.459,10.392,10.392,0,0,0,1.413-.967A9.518,9.518,0,0,0-2.173,8.207,7.2,7.2,0,0,0-1.3,6.96l.621,1.089A9.31,9.31,0,0,1-2.2,9.809,11.9,11.9,0,0,1-4.221,11.28a9.1,9.1,0,0,1-1,.486q-.54.225-1.067.387t-.931.243Zm.2-4.356q.225.117.5.283t.567.347l.545.342q.257.162.418.279l-.585.909q-.189-.135-.441-.3l-.536-.351q-.284-.185-.558-.347t-.491-.27Zm14.4.738a1.284,1.284,0,0,0-.049.175q-.022.1-.032.166-.027.2-.076.536t-.108.747q-.059.409-.122.814t-.112.743q-.05.337-.086.526H5.085q.036-.171.086-.472t.108-.666q.059-.365.108-.729t.09-.675q.04-.31.049-.482H2.97q-.207,0-.436.009t-.41.027V7.365q.117.018.266.032t.3.018q.153,0,.27,0h2.43q.09,0,.211-.009t.234-.027a.479.479,0,0,0,.157-.045Zm-5.49,3.312q.18.018.4.031t.446.014H6.912q.162,0,.414-.009t.423-.027v1.044q-.09-.009-.243-.014t-.306,0H2.133q-.225,0-.414,0l-.432.014Zm14.7-6.156a3.61,3.61,0,0,1,.248.378q.13.225.256.45t.216.4l-.657.279q-.135-.279-.333-.635t-.378-.616Zm1.044-.4q.117.162.257.391t.27.45a3.82,3.82,0,0,1,.2.382l-.648.279q-.144-.288-.342-.635a5.79,5.79,0,0,0-.387-.6ZM10.791,9.228q.153-.369.292-.787t.252-.864q.112-.445.2-.887a8.188,8.188,0,0,0,.122-.864l1.17.243q-.027.126-.072.279t-.076.3q-.031.148-.049.256-.045.225-.126.558t-.189.711q-.108.378-.225.76t-.243.707q-.162.423-.378.882T11,11.41q-.247.428-.482.77L9.4,11.712a10.44,10.44,0,0,0,.8-1.229A9.932,9.932,0,0,0,10.791,9.228Zm4.446-.234q-.135-.351-.3-.751t-.342-.806q-.175-.4-.347-.761t-.315-.607l1.062-.351q.135.252.311.616t.36.769q.185.405.356.806t.3.734q.126.306.27.711t.293.837q.148.432.279.842t.221.733l-1.188.378q-.117-.513-.27-1.053t-.328-1.08Q15.417,9.471,15.237,8.994Zm7.254-2.3q.063.144.167.41t.216.567q.112.3.207.567t.14.418L22.257,9a4.337,4.337,0,0,0-.126-.428q-.09-.266-.2-.558t-.216-.562q-.108-.27-.18-.441Zm3.3.612-.108.337q-.045.139-.081.266A9.544,9.544,0,0,1,25.128,9.3a5.931,5.931,0,0,1-.765,1.292,6.663,6.663,0,0,1-1.422,1.354,7.253,7.253,0,0,1-1.575.851l-.846-.864a6.622,6.622,0,0,0,2.1-1.053,4.832,4.832,0,0,0,.873-.837,4.551,4.551,0,0,0,.558-.887,6.539,6.539,0,0,0,.4-1.066,6.293,6.293,0,0,0,.216-1.134ZM20.4,7.167q.081.171.194.437t.234.567q.121.3.229.58t.171.468l-.981.36q-.054-.171-.157-.464t-.229-.608q-.126-.315-.239-.58a4.3,4.3,0,0,0-.194-.41Zm14.625-.774a3.134,3.134,0,0,0-.279.6,8.719,8.719,0,0,1-.333.923,9.668,9.668,0,0,1-.527,1.062,7.531,7.531,0,0,1-.715,1.039,8.214,8.214,0,0,1-1.494,1.4,9.345,9.345,0,0,1-2.124,1.12l-.945-.846a8.854,8.854,0,0,0,1.557-.621,7.106,7.106,0,0,0,1.166-.756,7,7,0,0,0,.9-.864,5.4,5.4,0,0,0,.594-.828,7.749,7.749,0,0,0,.464-.918,4.42,4.42,0,0,0,.266-.81H30.429l.378-.909h2.655a2.9,2.9,0,0,0,.4-.027,1.42,1.42,0,0,0,.329-.081Zm-2.961-1.4q-.144.216-.288.468t-.216.387a9.936,9.936,0,0,1-.733,1.111,9.875,9.875,0,0,1-1,1.13,8.839,8.839,0,0,1-1.229,1l-.9-.666a8.07,8.07,0,0,0,1.04-.751,7.539,7.539,0,0,0,.792-.783,8.111,8.111,0,0,0,.58-.751q.243-.36.405-.657a3.236,3.236,0,0,0,.2-.4,3,3,0,0,0,.167-.473Z" transform="translate(184 1573)" fill="#333"/><g transform="translate(163 1500.91)"><path d="M79.993,1051.692v13.879c0,.039,0,.079,0,.118,0,.015,0,.115,0,.046,0,.092.017-.01.006-.028a.422.422,0,0,1-.048.169s.072-.127.007-.028c-.015.023-.031.049-.044.073-.045.078.018-.009.017-.021,0,.02-.064.061-.075.076-.042.062.117-.067.006,0-.024.014-.051.029-.073.044-.05.034-.026.048.028-.007a.326.326,0,0,1-.083.027c-.012,0-.084.017-.086.02.006-.013.151-.006.028-.006h-.046c-.274.006-.549,0-.824,0H48.849c-.069,0-.139,0-.209,0-.015,0-.229,0-.046,0-.092,0,.01.017.028.006a.425.425,0,0,1-.169-.048s.127.072.028.007c-.023-.016-.049-.03-.073-.044-.106-.063.024.017.021.017a.6.6,0,0,1-.09-.09s.08.127.017.021c-.014-.024-.029-.051-.044-.073-.034-.05-.048-.026.007.028a.325.325,0,0,1-.028-.083c0-.012-.017-.084-.02-.086.012.006.006.151.006.028,0-.016,0-.031,0-.047,0-.045,0-.09,0-.134v-13.861a.608.608,0,0,0-1.217,0V1065.6a1.613,1.613,0,0,0,1.445,1.655,7.957,7.957,0,0,0,.9.01H79.452a2.547,2.547,0,0,0,.518-.038,1.6,1.6,0,0,0,1.235-1.451c.005-.064,0-.129,0-.193v-13.895a.608.608,0,0,0-1.217,0" transform="translate(-43.242 -1048.831)" fill="#333"/><path d="M191.719,1052.139c.058.067.113.136.169.2s-.034-.043-.04-.053c.01.017.024.032.036.047l.08.108q.16.22.3.453a7.6,7.6,0,0,1,.5.985l-.061-.145a8.5,8.5,0,0,1,.578,2.131l-.022-.162a9.177,9.177,0,0,1,0,2.439l.022-.162a8.49,8.49,0,0,1-.58,2.137l.061-.146a7.626,7.626,0,0,1-.432.864q-.12.206-.254.4-.06.089-.124.176l-.064.086-.032.042c.117-.16.059-.076.03-.039a6.16,6.16,0,0,1-.606.664q-.162.153-.335.293c-.039.032-.144.109.024-.017l-.08.061q-.09.067-.183.13a4.973,4.973,0,0,1-.841.457l.145-.061a4.548,4.548,0,0,1-1.123.309l.162-.022a4.43,4.43,0,0,1-1.18,0l.162.022a4.548,4.548,0,0,1-1.122-.309l.145.061a4.954,4.954,0,0,1-.748-.4q-.089-.057-.175-.118a1.733,1.733,0,0,0-.181-.134s.132.1.064.049l-.039-.031-.078-.064q-.088-.073-.172-.15a6.076,6.076,0,0,1-.615-.649l-.066-.082a.347.347,0,0,1-.041-.052s.1.132.046.06-.1-.129-.142-.195q-.133-.189-.252-.386a7.576,7.576,0,0,1-.495-.97l.061.146a8.49,8.49,0,0,1-.58-2.137l.022.162a9.177,9.177,0,0,1,0-2.439l-.022.162a8.5,8.5,0,0,1,.578-2.131l-.061.145a7.6,7.6,0,0,1,.5-.985q.138-.226.292-.441l.08-.108.036-.047c.044-.058-.086.109-.041.053.059-.073.117-.145.178-.216a.648.648,0,0,0,.178-.43.608.608,0,0,0-1.039-.43,8.146,8.146,0,0,0-1.65,3.147,9.389,9.389,0,0,0-.259,3.66,8.987,8.987,0,0,0,1.014,3.212,6.981,6.981,0,0,0,2.006,2.291,5.235,5.235,0,0,0,2.682.978,5.065,5.065,0,0,0,2.781-.633,6.471,6.471,0,0,0,2.176-2.031,8.242,8.242,0,0,0,1.236-2.906,9.792,9.792,0,0,0,.08-3.72,8.328,8.328,0,0,0-1.291-3.284,8.143,8.143,0,0,0-.546-.713.611.611,0,0,0-.86,0,.624.624,0,0,0,0,.86" transform="translate(-167.572 -1048.848)" fill="#333"/><path d="M123.718,1109.456a.542.542,0,0,1,0,.061l.022-.162a.482.482,0,0,1-.031.113l.061-.145a.476.476,0,0,1-.059.1l.1-.123a.493.493,0,0,1-.073.073l.123-.1a.485.485,0,0,1-.1.059l.145-.061a.484.484,0,0,1-.113.031l.162-.022a.49.49,0,0,1-.121,0l.162.022a.485.485,0,0,1-.113-.031l.145.061a.483.483,0,0,1-.1-.059l.123.1a.486.486,0,0,1-.073-.073l.1.123a.475.475,0,0,1-.059-.1l.061.145a.482.482,0,0,1-.031-.113l.022.162a.489.489,0,0,1,0-.121l-.022.162a.48.48,0,0,1,.031-.113l-.061.145a.482.482,0,0,1,.059-.1l-.1.123a.492.492,0,0,1,.073-.073l-.123.1a.477.477,0,0,1,.1-.059l-.145.061a.485.485,0,0,1,.113-.031l-.162.022a.479.479,0,0,1,.121,0l-.162-.022a.484.484,0,0,1,.113.031l-.145-.061a.479.479,0,0,1,.1.059l-.123-.1a.5.5,0,0,1,.073.073l-.1-.123a.482.482,0,0,1,.059.1l-.061-.145a.48.48,0,0,1,.031.113l-.022-.162a.544.544,0,0,1,0,.061.631.631,0,0,0,.178.43.608.608,0,0,0,.86,0,.625.625,0,0,0,.178-.43,1.586,1.586,0,0,0-.026-.222.484.484,0,0,0-.017-.075,1.542,1.542,0,0,0-.085-.2.463.463,0,0,0-.039-.064,1.507,1.507,0,0,0-.132-.167,1.324,1.324,0,0,0-.169-.137,1,1,0,0,0-.26-.127.465.465,0,0,0-.073-.021,1.549,1.549,0,0,0-.227-.03.486.486,0,0,0-.073,0,1.429,1.429,0,0,0-.226.035,1.4,1.4,0,0,0-.2.081.5.5,0,0,0-.066.035,1,1,0,0,0-.225.187,1.458,1.458,0,0,0-.128.17,1.3,1.3,0,0,0-.091.2,1.047,1.047,0,0,0-.055.293.446.446,0,0,0,0,.079,1.551,1.551,0,0,0,.032.227.506.506,0,0,0,.022.067,1.356,1.356,0,0,0,.09.2,1.446,1.446,0,0,0,.128.17.485.485,0,0,0,.051.054,1.008,1.008,0,0,0,.238.17,1.421,1.421,0,0,0,.2.082,1.331,1.331,0,0,0,.225.035,1.042,1.042,0,0,0,.3-.024.486.486,0,0,0,.085-.024,1.328,1.328,0,0,0,.207-.092,1.351,1.351,0,0,0,.179-.135.508.508,0,0,0,.056-.056,1.172,1.172,0,0,0,.229-.392.464.464,0,0,0,.022-.079,1.493,1.493,0,0,0,.029-.24.625.625,0,0,0-.178-.43.609.609,0,0,0-.86,0,.639.639,0,0,0-.178.43" transform="translate(-112.874 -1101.506)" fill="#333"/><path d="M367.294,1109.456a.546.546,0,0,1,0,.061l.022-.162a.478.478,0,0,1-.032.113l.061-.145a.476.476,0,0,1-.059.1l.1-.123a.494.494,0,0,1-.073.073l.123-.1a.486.486,0,0,1-.1.059l.145-.061a.483.483,0,0,1-.113.031l.162-.022a.49.49,0,0,1-.121,0l.162.022a.486.486,0,0,1-.113-.031l.145.061a.483.483,0,0,1-.1-.059l.123.1a.485.485,0,0,1-.073-.073l.1.123a.473.473,0,0,1-.059-.1l.061.145a.483.483,0,0,1-.031-.113l.022.162a.492.492,0,0,1,0-.121l-.022.162a.482.482,0,0,1,.031-.113l-.061.145a.48.48,0,0,1,.059-.1l-.1.123a.491.491,0,0,1,.073-.073l-.123.1a.477.477,0,0,1,.1-.059l-.145.061a.486.486,0,0,1,.113-.031l-.162.022a.479.479,0,0,1,.121,0l-.162-.022a.483.483,0,0,1,.113.031l-.145-.061a.481.481,0,0,1,.1.059l-.123-.1a.5.5,0,0,1,.073.073l-.1-.123a.483.483,0,0,1,.059.1l-.061-.145a.476.476,0,0,1,.032.113l-.022-.162a.548.548,0,0,1,0,.061.631.631,0,0,0,.178.43.608.608,0,0,0,.86,0,.625.625,0,0,0,.178-.43,1.589,1.589,0,0,0-.026-.222.485.485,0,0,0-.017-.075,1.547,1.547,0,0,0-.085-.2.471.471,0,0,0-.039-.064,1.507,1.507,0,0,0-.132-.167,1.321,1.321,0,0,0-.169-.137,1,1,0,0,0-.26-.127.464.464,0,0,0-.073-.021,1.549,1.549,0,0,0-.227-.03.487.487,0,0,0-.073,0,1.429,1.429,0,0,0-.226.035,1.4,1.4,0,0,0-.2.081.5.5,0,0,0-.066.035,1,1,0,0,0-.225.187,1.454,1.454,0,0,0-.128.17,1.3,1.3,0,0,0-.091.2,1.048,1.048,0,0,0-.055.293.446.446,0,0,0,0,.079,1.545,1.545,0,0,0,.032.227.507.507,0,0,0,.022.067,1.36,1.36,0,0,0,.09.2,1.446,1.446,0,0,0,.128.17.484.484,0,0,0,.051.054,1.008,1.008,0,0,0,.238.17,1.423,1.423,0,0,0,.2.082,1.332,1.332,0,0,0,.225.035,1.042,1.042,0,0,0,.3-.024.486.486,0,0,0,.085-.024,1.331,1.331,0,0,0,.207-.092,1.353,1.353,0,0,0,.179-.135.5.5,0,0,0,.056-.056,1.173,1.173,0,0,0,.229-.392.467.467,0,0,0,.022-.079,1.494,1.494,0,0,0,.029-.24.625.625,0,0,0-.178-.43.609.609,0,0,0-.86,0,.639.639,0,0,0-.178.43" transform="translate(-336.691 -1101.506)" fill="#333"/><path d="M318.3,1065.665h6.038a.618.618,0,0,0,.608-.608,1.89,1.89,0,0,1,.015-.223l-.022.162a1.739,1.739,0,0,1,.114-.417l-.061.145a1.727,1.727,0,0,1,.145-.269c.015-.022.031-.043.045-.065.038-.059-.1.121-.038.05.035-.04.069-.08.106-.117s.07-.066.107-.1c.083-.073-.051.035-.051.038s.054-.039.064-.046a1.726,1.726,0,0,1,.28-.152l-.145.061a1.744,1.744,0,0,1,.417-.114l-.162.022a1.872,1.872,0,0,1,.223-.015.618.618,0,0,0,.608-.609v-8.667c0-.4.008-.8,0-1.2,0-.006,0-.011,0-.017a.608.608,0,1,0-1.217,0v8.667c0,.4-.011.8,0,1.2,0,.005,0,.011,0,.017l.608-.608a2.255,2.255,0,0,0-2.255,2.255l.608-.608H318.3a.608.608,0,1,0,0,1.217" transform="translate(-291.921 -1050.519)" fill="#333"/><path d="M87.618,1053.53v8.667c0,.4-.008.8,0,1.2,0,.005,0,.011,0,.017a.618.618,0,0,0,.608.609,1.872,1.872,0,0,1,.223.015l-.162-.022a1.739,1.739,0,0,1,.417.114l-.145-.061a1.723,1.723,0,0,1,.269.145c.022.015.043.031.065.045.059.038-.121-.1-.05-.038.04.035.08.069.117.106s.066.07.1.107c.073.083-.035-.051-.038-.051s.039.054.046.065a1.709,1.709,0,0,1,.152.28l-.061-.145a1.739,1.739,0,0,1,.114.417l-.022-.162a1.9,1.9,0,0,1,.015.223.618.618,0,0,0,.608.608h6.038a.608.608,0,1,0,0-1.217H89.873l.608.608a2.255,2.255,0,0,0-2.255-2.255l.608.608v-8.667c0-.4.008-.8,0-1.2,0-.006,0-.011,0-.017a.608.608,0,1,0-1.217,0" transform="translate(-80.507 -1050.519)" fill="#333"/><path d="M48.121,1263.859H79.645c.426,0,.852.006,1.278,0h.056a.608.608,0,0,0,0-1.217H49.454c-.426,0-.852-.006-1.278,0h-.056a.608.608,0,0,0,0,1.217" transform="translate(-43.657 -1243.226)" fill="#333"/><path d="M48.121,1321.2H79.645c.426,0,.852.006,1.278,0h.056a.608.608,0,1,0,0-1.217H49.454c-.426,0-.852-.006-1.278,0h-.056a.608.608,0,1,0,0,1.217" transform="translate(-43.657 -1295.91)" fill="#333"/><path d="M48.121,1292.527H79.645c.426,0,.852.006,1.278,0h.056a.608.608,0,1,0,0-1.217H49.454c-.426,0-.852-.006-1.278,0h-.056a.608.608,0,1,0,0,1.217" transform="translate(-43.657 -1269.568)" fill="#333"/><path d="M47.482,1218.626v7.257c0,.334-.007.668,0,1,0,0,0,.01,0,.015a.608.608,0,1,0,1.217,0v-7.257c0-.333.007-.668,0-1,0,0,0-.01,0-.015a.608.608,0,1,0-1.217,0" transform="translate(-43.627 -1202.222)" fill="#333"/><path d="M452.984,1218.626v7.257c0,.334-.007.668,0,1,0,0,0,.01,0,.015a.608.608,0,1,0,1.217,0v-7.257c0-.333.007-.668,0-1,0,0,0-.01,0-.015a.608.608,0,1,0-1.217,0" transform="translate(-416.234 -1202.222)" fill="#333"/><path d="M48.121,1320.86H79.645c.426,0,.852.006,1.278,0h.056a.608.608,0,1,0,0-1.217H49.454c-.426,0-.852-.006-1.278,0h-.056a.608.608,0,1,0,0,1.217" transform="translate(-43.657 -1295.602)" fill="#333"/><path d="M2.639,1031.435H1.459c-.009,0-.1-.007-.029,0s-.027-.008-.026-.008-.1-.031-.028,0-.034-.021-.045-.027c-.058-.029.006.012.017.02a.679.679,0,0,1-.057-.053.655.655,0,0,1-.053-.057c.058.073,0,0,.007-.006s-.041-.1-.013-.023-.006-.026,0-.028-.018-.1-.008-.026,0-.02,0-.029,0-.037,0-.055c0-.131,0-.263,0-.394v-5.807c0-.044,0-.088,0-.131,0-.009,0-.017,0-.026v0s0-.053,0-.056c0,.094.013.013,0,0s.031-.1,0-.028.011-.026.013-.023.052-.088.01-.025.009-.011.018-.02c.035-.032.119-.085.037-.038a.572.572,0,0,1,.068-.039c.085-.034-.089.025,0,0l.078-.02c-.017,0-.092,0-.025.007a.076.076,0,0,0,.028,0H39.342c.305,0,.611,0,.916,0h.068l.056,0c-.094,0-.013.013,0,0s.1.031.028,0,.026.011.023.013.088.052.025.01.011.009.019.018c.033.035.085.12.038.037a.585.585,0,0,1,.039.068c.034.085-.025-.089,0,0q.01.039.02.078c0-.017,0-.091-.007-.026,0,.011,0,.02,0,.03s0,.016,0,.025c0,.042,0,.085,0,.128v5.8c0,.134,0,.267,0,.4,0,.02,0,.04,0,.059,0,.06-.008.062.006,0-.008.035-.017.069-.027.1,0-.007.035-.09.01-.024a.525.525,0,0,1-.039.068c0-.008.063-.07.016-.019s-.142.108-.054.057c-.041.023-.138.057-.044.029-.046.013-.153.024-.05.02l-.1,0H39.2a.608.608,0,1,0,0,1.217,3.872,3.872,0,0,0,1.848-.19,1.487,1.487,0,0,0,.736-1.274c0-.093,0-.187,0-.281v-3.543c0-.861.023-1.725,0-2.585a1.482,1.482,0,0,0-1.48-1.456c-.089,0-.177,0-.266,0H2.238c-.254,0-.508-.005-.762,0A1.482,1.482,0,0,0,0,1024.782c-.007.293,0,.587,0,.88v5.3c0,.076,0,.152,0,.229a1.486,1.486,0,0,0,1,1.382,2.733,2.733,0,0,0,.905.074h.73a.608.608,0,1,0,0-1.217" transform="translate(0 -1023.32)" fill="#333"/><path d="M2.1,4.286a.5.5,0,0,1-.438-.257L-.437.243a.5.5,0,0,1,.194-.68.5.5,0,0,1,.68.194l2.1,3.786a.5.5,0,0,1-.437.743Z" transform="translate(18.743 4.598)" fill="#333"/><path d="M0,4.475a.5.5,0,0,1-.5-.5V0A.5.5,0,0,1,0-.5.5.5,0,0,1,.5,0V3.975A.5.5,0,0,1,0,4.475Z" transform="translate(20.846 8.384)" fill="#333"/><path d="M0,4.286a.5.5,0,0,1-.242-.063.5.5,0,0,1-.194-.68l2.1-3.786a.5.5,0,0,1,.68-.194.5.5,0,0,1,.194.68L.437,4.029A.5.5,0,0,1,0,4.286Z" transform="translate(20.846 4.598)" fill="#333"/><path d="M5.679.5H0A.5.5,0,0,1-.5,0,.5.5,0,0,1,0-.5H5.679a.5.5,0,0,1,.5.5A.5.5,0,0,1,5.679.5Z" transform="translate(18.007 8.384)" fill="#333"/><path d="M5.679.5H0A.5.5,0,0,1-.5,0,.5.5,0,0,1,0-.5H5.679a.5.5,0,0,1,.5.5A.5.5,0,0,1,5.679.5Z" transform="translate(18.007 10.655)" fill="#333"/></g><rect width="70" height="20" rx="10" transform="translate(149 1470)" fill="#fff"/><path d="M10,1a9,9,0,0,0,0,18H60A9,9,0,0,0,60,1H10m0-1H60a10,10,0,0,1,0,20H10A10,10,0,0,1,10,0Z" transform="translate(149 1470)" fill="#707070"/><path d="M-23.22-6.708h10.452V-4.14h-1.26V-5.592h-7.98V-4.14H-23.22Zm1.656,2.16h6.444V-3.36h-6.444Zm7.416-5.676.876,1.044q-.984.192-2.148.342t-2.418.258q-1.254.108-2.52.186t-2.454.114a2.393,2.393,0,0,0-.108-.57q-.1-.318-.18-.534,1.188-.036,2.424-.114t2.424-.18q1.188-.1,2.238-.246T-14.148-10.224Zm-7.92,2.172,1.128-.312a6.872,6.872,0,0,1,.438.75,4.047,4.047,0,0,1,.294.714l-1.188.348a4.243,4.243,0,0,0-.264-.726A6.645,6.645,0,0,0-22.068-8.052Zm3.18-.252,1.14-.264a8.56,8.56,0,0,1,.36.834,3.867,3.867,0,0,1,.216.786l-1.2.3a5.41,5.41,0,0,0-.192-.8A6.541,6.541,0,0,0-18.888-8.3ZM-15-8.592l1.356.336q-.2.384-.432.762t-.45.726q-.222.348-.426.612L-16-6.48q.18-.288.366-.654t.354-.75Q-15.108-8.268-15-8.592Zm-.6,4.044h.276L-15.1-4.6l.864.528a6.93,6.93,0,0,1-1.4,2.022A8.242,8.242,0,0,1-17.616-.6a12.869,12.869,0,0,1-2.418.966A20.018,20.018,0,0,1-22.74.948,2.594,2.594,0,0,0-22.932.57q-.132-.222-.276-.432A2.426,2.426,0,0,0-23.484-.2,21.714,21.714,0,0,0-20.868-.66a11.569,11.569,0,0,0,2.28-.792,7.211,7.211,0,0,0,1.8-1.2A4.9,4.9,0,0,0-15.6-4.332Zm-4.608.864a6,6,0,0,0,1.8,1.656A10.73,10.73,0,0,0-15.792-.894a17.981,17.981,0,0,0,3.252.618,3.444,3.444,0,0,0-.282.36q-.15.216-.282.444t-.228.408A17.633,17.633,0,0,1-16.644.162a10.359,10.359,0,0,1-2.688-1.368,8.511,8.511,0,0,1-2-2.022Zm13.08-5.592H-.576v.936H-7.128ZM-7.44-6.288H-.372V-5.3H-7.44Zm-.024,4.512H-.348v1.02H-7.464ZM-6.252-3.24H-1.44v.816H-6.252ZM-6.9-7.788H-.828v.9H-6.9Zm1.08-2.376h1.152v4.32H-5.82Zm2.688,0h1.164v4.32H-3.132ZM-4.476-5.8h1.068v4.62H-4.476Zm2.328,1.008H-.972V-.12a1.59,1.59,0,0,1-.1.642.744.744,0,0,1-.39.354,2.2,2.2,0,0,1-.72.144q-.432.024-1.044.024a2.59,2.59,0,0,0-.114-.51,4.909,4.909,0,0,0-.186-.5q.372.012.72.018l.456.006A.262.262,0,0,0-2.184.006a.211.211,0,0,0,.036-.138Zm-4.68,0h5.112v.9h-4.02V1.044H-6.828Zm-4.26-1.632h3.276v.984h-3.276Zm.072-3.348H-7.86V-8.8h-3.156Zm-.072,5.016h3.276v.984h-3.276Zm-.528-3.372h4.14V-7.1h-4.14Zm1.128,5.064h2.724V.54h-2.724V-.48h1.644V-2.04h-1.644Zm-.624,0h1.068V1.032h-1.068Zm17.844.1.732-.8q.432.168.894.4T9.24-2.9a6.882,6.882,0,0,1,.708.456l-.756.888a6.2,6.2,0,0,0-.7-.486q-.42-.258-.882-.5T6.732-2.964ZM5.424-.78l.744-.9q.588.156,1.218.372t1.242.462q.612.246,1.158.5t.954.48L10,1.14a11.654,11.654,0,0,0-1.3-.7Q7.932.084,7.074-.234T5.424-.78Zm1.5-9.384,1.26.216a14.113,14.113,0,0,1-1.2,2.13A9.4,9.4,0,0,1,5.2-5.868a2.865,2.865,0,0,0-.252-.294q-.156-.162-.318-.306A1.945,1.945,0,0,0,4.32-6.7,7.891,7.891,0,0,0,5.472-7.788a8.743,8.743,0,0,0,.87-1.2A7.609,7.609,0,0,0,6.924-10.164Zm.12,1.176H10.1v1.1H6.492Zm2.7,0H10l.216-.048L11-8.592A9.115,9.115,0,0,1,9.606-6.2,10.341,10.341,0,0,1,7.662-4.356,10.957,10.957,0,0,1,5.436-3.1a2.17,2.17,0,0,0-.21-.348q-.138-.192-.294-.378a2.249,2.249,0,0,0-.288-.294A9.862,9.862,0,0,0,6.768-5.2,9.049,9.049,0,0,0,8.562-6.786,6.386,6.386,0,0,0,9.744-8.76ZM6.9-8.112A7.853,7.853,0,0,0,8.118-6.438,9.348,9.348,0,0,0,9.81-5.022a8.9,8.9,0,0,0,1.986.978,3.165,3.165,0,0,0-.288.306q-.156.186-.3.384A3.183,3.183,0,0,0,10.98-3,9.536,9.536,0,0,1,8.94-4.152,10.3,10.3,0,0,1,7.2-5.778,10.685,10.685,0,0,1,5.868-7.752Zm-4.68-2.04,1.116.42q-.24.444-.5.936t-.516.93q-.258.438-.486.774L.972-7.464a8.56,8.56,0,0,0,.456-.828q.228-.468.438-.96T2.22-10.152Zm1.368,1.4,1.056.48q-.432.684-.942,1.44T2.682-5.382q-.51.69-.966,1.218L.96-4.584q.336-.408.7-.924t.714-1.08q.354-.564.666-1.122T3.588-8.748ZM.36-7.4l.612-.864a8.8,8.8,0,0,1,.66.6q.336.336.618.666a4.351,4.351,0,0,1,.438.594l-.672,1a3.941,3.941,0,0,0-.42-.642Q1.32-6.408,1-6.762T.36-7.4ZM3.216-5.9l.852-.36a9.44,9.44,0,0,1,.456.852q.216.456.378.882a5.31,5.31,0,0,1,.234.762l-.924.42A4.82,4.82,0,0,0,4-4.134q-.156-.438-.36-.906T3.216-5.9ZM.336-4.848q.816-.024,1.944-.072l2.292-.1L4.56-4q-1.092.084-2.172.156L.444-3.708ZM3.48-2.964l.912-.288q.228.5.444,1.116a8.615,8.615,0,0,1,.312,1.068l-.96.336A8.542,8.542,0,0,0,3.9-1.812Q3.7-2.436,3.48-2.964ZM.9-3.168l1.068.192a14.071,14.071,0,0,1-.294,1.7A7.669,7.669,0,0,1,1.212.132Q1.092.06.912-.03L.546-.21a2.824,2.824,0,0,0-.33-.138,5.284,5.284,0,0,0,.438-1.3A15.109,15.109,0,0,0,.9-3.168ZM2.232-4.3H3.36V1.056H2.232ZM17.376-6.06h1.368V-.48a1.8,1.8,0,0,1-.168.864,1.012,1.012,0,0,1-.588.444,4,4,0,0,1-1.056.18q-.636.036-1.524.036a4.152,4.152,0,0,0-.216-.66,6.414,6.414,0,0,0-.3-.648l.882.024q.438.012.78.012t.474-.012A.456.456,0,0,0,17.3-.3a.258.258,0,0,0,.078-.216ZM13.2-9.3h8.46v1.272H13.2Zm7.98,0h.348l.312-.084,1.008.744A17.564,17.564,0,0,1,21.618-7.3,19.315,19.315,0,0,1,20.172-6a14.879,14.879,0,0,1-1.488,1.068,2.3,2.3,0,0,0-.258-.312q-.162-.168-.33-.33t-.3-.27a11.339,11.339,0,0,0,.978-.69q.5-.39.954-.822t.834-.852a7.757,7.757,0,0,0,.618-.768Z" transform="translate(184 1484)" fill="#333"/><circle cx="42.5" cy="42.5" r="42.5" transform="translate(240 1478)" fill="#f8f8f8"/><g transform="translate(266.96 1536.11)"><path d="M-16.87,0h14.5V-3.724h-8.54l3.192-2.464c3.472-2.688,5.152-4.312,5.152-7.588v-.056c0-3.668-2.688-6.048-6.748-6.048-3.5,0-5.376,1.428-7.308,4.06l3.024,2.436c1.456-1.792,2.492-2.632,4-2.632a2.4,2.4,0,0,1,2.632,2.548c0,1.624-.952,2.688-3.388,4.7L-16.87-3.416ZM7.994.336C13.23.336,16.73-4.116,16.73-9.8v-.056c0-5.684-3.5-10.08-8.68-10.08C2.842-19.936-.686-15.484-.686-9.8v.056C-.686-4.06,2.758.336,7.994.336ZM8.05-3.556c-2.6,0-4.312-2.66-4.312-6.244v-.056c0-3.584,1.68-6.188,4.256-6.188s4.312,2.688,4.312,6.244v.056C12.306-6.188,10.654-3.556,8.05-3.556Z" transform="translate(8.04 18.89)" fill="#e84830"/><path d="M3.852-6.3A3.077,3.077,0,0,0,6.93-9.522v-.036a3.028,3.028,0,0,0-3.042-3.186A3.067,3.067,0,0,0,.81-9.522v.036A3.028,3.028,0,0,0,3.852-6.3ZM5.04-9.486c0,.81-.4,1.548-1.152,1.548-.72,0-1.188-.738-1.188-1.584v-.036c0-.828.4-1.548,1.152-1.548.72,0,1.188.738,1.188,1.584Zm2.07,2.7L2.07,0H4.212L8.37-5.814,13.41-12.6H11.268ZM11.592.144A3.077,3.077,0,0,0,14.67-3.078v-.036A3.028,3.028,0,0,0,11.628-6.3,3.067,3.067,0,0,0,8.55-3.078v.036A3.028,3.028,0,0,0,11.592.144Zm.036-1.638c-.72,0-1.188-.738-1.188-1.584v-.036c0-.828.4-1.548,1.152-1.548.72,0,1.188.738,1.188,1.584v.036C12.78-2.232,12.384-1.494,11.628-1.494Z" transform="translate(27.04 18.89)" fill="#e84830"/></g><path d="M-18.711-7.191h3.888v.837h-3.888Zm.333,4.842h4.194V-1.5h-4.194Zm-.558,2.025H-13.8V.531h-5.139ZM-15.1-7.191h.189l.171-.036.648.279a5.483,5.483,0,0,1-.994,1.818,6.016,6.016,0,0,1-1.5,1.283,8.5,8.5,0,0,1-1.854.832,4.634,4.634,0,0,0-.243-.418,3.248,3.248,0,0,0-.288-.391A6.956,6.956,0,0,0-17.3-4.5a5.374,5.374,0,0,0,1.354-1.08A4.046,4.046,0,0,0-15.1-7.038Zm-2.277.729a4.289,4.289,0,0,0,1.431,1.652,6.205,6.205,0,0,0,2.268.967A2.764,2.764,0,0,0-14-3.47a3.367,3.367,0,0,0-.266.41,6.467,6.467,0,0,1-2.376-1.161,5.751,5.751,0,0,1-1.584-1.962Zm.585,2.97h.954V.225h-.954Zm-4.041-4.122L-20-7.3q-.18.333-.374.7t-.387.7q-.193.329-.365.581l-.648-.279a6.42,6.42,0,0,0,.342-.621q.171-.351.329-.72T-20.835-7.614Zm1.026,1.053.792.36q-.324.513-.706,1.08t-.765,1.085q-.382.517-.724.913l-.567-.315q.252-.306.522-.693t.535-.81q.266-.423.5-.842T-19.809-6.561ZM-22.23-5.553l.459-.648a6.6,6.6,0,0,1,.5.45q.252.252.463.5a3.263,3.263,0,0,1,.329.445l-.5.747a2.956,2.956,0,0,0-.315-.481q-.207-.266-.45-.531T-22.23-5.553Zm2.142,1.125.639-.27q.18.3.347.643t.288.671a4,4,0,0,1,.175.585l-.684.306a4.685,4.685,0,0,0-.171-.594q-.117-.333-.27-.689A6.3,6.3,0,0,0-20.088-4.428Zm-2.16.792q.612-.018,1.458-.054l1.719-.072L-19.08-3q-.819.063-1.629.117l-1.458.1Zm2.358,1.413.684-.216q.171.378.333.837a6.461,6.461,0,0,1,.234.8l-.72.252a6.407,6.407,0,0,0-.216-.81Q-19.728-1.827-19.89-2.223Zm-1.935-.153.8.144a10.553,10.553,0,0,1-.22,1.274A5.752,5.752,0,0,1-21.591.1q-.09-.054-.225-.122l-.274-.135a2.118,2.118,0,0,0-.247-.1,3.963,3.963,0,0,0,.328-.972A11.332,11.332,0,0,0-21.825-2.376Zm1-.846h.846V.792h-.846Zm10.377-.126h4.968V-2.6h-4.968Zm-.18,1.512h4.9V-1.1h-4.9Zm-.72,1.629h6.372V.6h-6.372ZM-8.685-4.05h.945V.3h-.945Zm-1.683-.036.864.2a6.45,6.45,0,0,1-.549,1.143,5.4,5.4,0,0,1-.693.927q-.09-.072-.229-.162t-.283-.176a2.061,2.061,0,0,0-.252-.13,3.813,3.813,0,0,0,.67-.815A4.7,4.7,0,0,0-10.368-4.086Zm-1.575-.963h7.02v.837h-7.02Zm-.612-1.872h7.182V-6.1h-7.182Zm3.087-.7H-8.5v1.188h-.972Zm-3,2.574h.927V-3.6q0,.468-.04,1.03a11.588,11.588,0,0,1-.144,1.157,7.2,7.2,0,0,1-.3,1.157A4.344,4.344,0,0,1-12.537.765a1.737,1.737,0,0,0-.212-.211q-.139-.122-.288-.234a2.1,2.1,0,0,0-.248-.166,3.668,3.668,0,0,0,.441-.9,6.439,6.439,0,0,0,.243-.99,9.424,9.424,0,0,0,.108-.981q.027-.481.027-.887Zm1.3-.972.873-.234a5.152,5.152,0,0,1,.288.576,2.753,2.753,0,0,1,.18.549l-.936.261a3.261,3.261,0,0,0-.149-.558A4.162,4.162,0,0,0-11.169-6.021Zm3.555-.315,1.1.234q-.189.342-.382.671t-.346.563l-.8-.243q.081-.18.162-.391t.158-.432A3.078,3.078,0,0,0-7.614-6.336Zm7.119-1.3H.486v1.98a1.063,1.063,0,0,1-.1.522.676.676,0,0,1-.373.279,2.387,2.387,0,0,1-.635.108q-.365.018-.851.018a2,2,0,0,0-.162-.423q-.117-.234-.225-.405l.477.018q.243.009.437,0l.266,0a.328.328,0,0,0,.153-.036.129.129,0,0,0,.036-.108ZM1.656-5.967l.918.414a5.491,5.491,0,0,1-1.2,1,9.051,9.051,0,0,1-1.516.756,13.773,13.773,0,0,1-1.715.54q-.9.221-1.786.374Q-3.708-3-3.812-3.155t-.22-.315q-.117-.157-.207-.257.909-.108,1.786-.3A14.136,14.136,0,0,0-.8-4.482,8.119,8.119,0,0,0,.612-5.117,3.956,3.956,0,0,0,1.656-5.967ZM-2.214-7.2l.936.3a5.319,5.319,0,0,1-.6.783,8.511,8.511,0,0,1-.729.706,6.9,6.9,0,0,1-.761.571q-.081-.09-.22-.216T-3.87-5.31q-.144-.126-.252-.207a5.654,5.654,0,0,0,1.071-.747A4.794,4.794,0,0,0-2.214-7.2Zm3.654.4.774-.477q.351.243.724.544t.7.6a5,5,0,0,1,.535.563l-.837.522a4.45,4.45,0,0,0-.5-.562q-.315-.31-.684-.625T1.44-6.8ZM-2.376-3.87H3.042V.747H2.061V-3.141h-3.51V.792h-.927Zm.459,1.233H2.457v.666H-1.917Zm0,1.206H2.457v.657H-1.917Zm0,1.2H2.457V.477H-1.917ZM8.6-7.083q-.036.153-.072.338T8.451-6.4q-.036.189-.09.445t-.1.522q-.049.266-.1.517-.09.378-.229.882t-.315,1.08q-.176.576-.4,1.161T6.736-.644A8.76,8.76,0,0,1,6.192.378L5.139-.036a6.841,6.841,0,0,0,.585-.945q.27-.522.495-1.08t.405-1.1q.18-.54.306-1t.2-.806q.126-.585.2-1.156A7.23,7.23,0,0,0,7.4-7.209ZM11.7-6.21a6.792,6.792,0,0,1,.441.72q.234.432.459.909t.4.922q.18.445.288.77l-1.017.468q-.09-.369-.252-.828t-.369-.936q-.207-.477-.441-.9a4.426,4.426,0,0,0-.477-.711ZM5.058-5.2q.234.018.459.014T5.976-5.2q.216-.009.531-.032l.68-.049q.365-.027.725-.059T8.577-5.4q.306-.023.5-.023a2.011,2.011,0,0,1,.81.153,1.176,1.176,0,0,1,.558.517,2.041,2.041,0,0,1,.207,1q0,.522-.049,1.143a11.037,11.037,0,0,1-.158,1.188,3.428,3.428,0,0,1-.306.945,1.242,1.242,0,0,1-.576.639,1.976,1.976,0,0,1-.855.171A4.083,4.083,0,0,1,8.163.3q-.3-.041-.522-.086L7.47-.846q.18.045.387.09t.4.067a2.823,2.823,0,0,0,.311.023.968.968,0,0,0,.41-.081.641.641,0,0,0,.292-.324,2.814,2.814,0,0,0,.22-.7,8.067,8.067,0,0,0,.126-.923q.04-.495.04-.945a1.158,1.158,0,0,0-.1-.558.517.517,0,0,0-.306-.243A1.666,1.666,0,0,0,8.757-4.5q-.207,0-.567.031T7.416-4.4q-.414.04-.765.085L6.1-4.239q-.18.027-.464.063T5.157-4.1ZM16.506-7.191q.315.1.8.207t1.008.207q.526.1,1,.175t.77.1l-.243.99q-.27-.036-.643-.1t-.8-.148q-.427-.081-.837-.167T16.8-6.089q-.342-.077-.549-.131ZM16.5-5.436q-.045.2-.094.5t-.1.621q-.05.324-.09.621l-.068.5a4.39,4.39,0,0,1,1.305-.7,4.521,4.521,0,0,1,1.422-.225,2.842,2.842,0,0,1,1.309.279,2.113,2.113,0,0,1,.837.734,1.8,1.8,0,0,1,.292.994,2.438,2.438,0,0,1-.265,1.13,2.2,2.2,0,0,1-.855.873,4.249,4.249,0,0,1-1.535.5,9.748,9.748,0,0,1-2.3.032L16.038-.639a8.165,8.165,0,0,0,2.3.031,2.8,2.8,0,0,0,1.391-.549,1.248,1.248,0,0,0,.468-.985.913.913,0,0,0-.18-.558,1.2,1.2,0,0,0-.5-.383,1.818,1.818,0,0,0-.733-.139,3.667,3.667,0,0,0-1.463.288,2.914,2.914,0,0,0-1.111.819,1.964,1.964,0,0,0-.189.252,1.864,1.864,0,0,0-.126.243l-.936-.225q.054-.261.108-.617t.108-.765q.054-.41.1-.828t.081-.814q.036-.4.054-.711ZM-32.652,5.592q-.036-.189-.081-.351t-.1-.315l1.143-.189q.018.135.041.328t.049.356q.027.117.085.454t.153.823q.095.486.207,1.053t.225,1.143q.112.576.212,1.089t.175.9q.077.387.112.558.045.2.1.427t.122.436l-1.161.207q-.036-.243-.059-.468a3.466,3.466,0,0,0-.067-.423q-.027-.162-.094-.531t-.167-.873l-.212-1.076q-.113-.571-.22-1.139l-.2-1.062q-.094-.495-.167-.85T-32.652,5.592ZM-35.127,6.78q.2-.018.4-.031t.414-.031l.563-.077q.365-.049.828-.122l.963-.148q.5-.076.968-.153t.837-.14q.369-.063.576-.108t.427-.086q.212-.049.365-.095l.2,1.071q-.135.009-.36.041l-.423.059-.625.1-.864.139q-.473.077-.972.153t-.954.153q-.454.077-.8.131t-.527.09q-.2.036-.382.076t-.41.095Zm-.009,2.628q.18-.009.437-.036t.455-.054l.653-.1.923-.144q.513-.081,1.057-.171l1.057-.175q.513-.086.941-.162l.689-.122q.261-.045.486-.1t.4-.1l.216,1.062a3.8,3.8,0,0,0-.414.049l-.495.086q-.3.045-.733.117l-.954.158q-.517.086-1.058.171t-1.039.171q-.5.086-.9.148t-.621.108l-.5.095a3.179,3.179,0,0,0-.365.085Zm11.7-3.069q.027.153.063.315T-23.3,7q.072.243.184.653t.252.9q.14.5.279,1.013t.274.99q.135.472.234.828t.153.535a1.5,1.5,0,0,1,.072.216q.036.135.081.266t.081.22l-1.1.279a3.754,3.754,0,0,0-.059-.378q-.041-.2-.094-.378t-.153-.554q-.1-.373-.229-.859l-.27-1.008q-.14-.522-.27-1.017t-.238-.886q-.108-.392-.18-.608a2.564,2.564,0,0,0-.108-.324q-.063-.153-.135-.288Zm4.32,1.35q-.144.288-.369.662t-.5.765q-.275.392-.544.738t-.5.6l-.891-.45a6.1,6.1,0,0,0,.513-.522q.27-.306.508-.616a4.182,4.182,0,0,0,.365-.544l-.373.076-.68.139-.864.175q-.468.095-.941.193t-.9.185q-.427.086-.747.153t-.472.1l-.243-.963q.207-.018.4-.045t.4-.063l.378-.068.67-.122q.391-.072.837-.158l.9-.171q.454-.085.859-.166l.7-.14q.3-.059.423-.086.108-.027.225-.063a1.794,1.794,0,0,0,.2-.072Zm5.607-.99q.063.144.167.41t.216.567q.112.3.207.567t.14.418L-13.743,9a4.337,4.337,0,0,0-.126-.428q-.09-.266-.2-.558t-.216-.562q-.108-.27-.18-.441Zm3.3.612-.108.337q-.045.139-.081.266A9.544,9.544,0,0,1-10.872,9.3a5.931,5.931,0,0,1-.765,1.292,6.663,6.663,0,0,1-1.422,1.354,7.253,7.253,0,0,1-1.575.851l-.846-.864a6.439,6.439,0,0,0,1.049-.41,6.478,6.478,0,0,0,1.049-.644,4.832,4.832,0,0,0,.873-.837,4.551,4.551,0,0,0,.558-.887,6.539,6.539,0,0,0,.4-1.066,6.293,6.293,0,0,0,.216-1.134ZM-15.6,7.167q.081.171.194.437t.234.567q.122.3.229.58t.171.468l-.981.36q-.054-.171-.157-.464t-.229-.608q-.126-.315-.239-.58a4.3,4.3,0,0,0-.194-.41Zm9.351-2.232q.216.117.5.288t.567.356l.545.351q.256.167.418.284l-.594.891q-.18-.126-.437-.3t-.536-.351q-.279-.18-.549-.346t-.486-.293Zm-1.575,6.4q.5-.09,1.026-.225a9.43,9.43,0,0,0,1.035-.333,8.244,8.244,0,0,0,.99-.459,10.392,10.392,0,0,0,1.413-.967A9.518,9.518,0,0,0-2.173,8.207,7.2,7.2,0,0,0-1.3,6.96l.621,1.089A9.31,9.31,0,0,1-2.2,9.809,11.9,11.9,0,0,1-4.221,11.28a9.1,9.1,0,0,1-1,.486q-.54.225-1.067.387t-.931.243Zm.2-4.356q.225.117.5.283t.567.347l.545.342q.257.162.418.279l-.585.909q-.189-.135-.441-.3l-.536-.351q-.284-.185-.558-.347t-.491-.27Zm14.4.738a1.284,1.284,0,0,0-.049.175q-.022.1-.032.166-.027.2-.076.536t-.108.747q-.059.409-.122.814t-.112.743q-.05.337-.086.526H5.085q.036-.171.086-.472t.108-.666q.059-.365.108-.729t.09-.675q.04-.31.049-.482H2.97q-.207,0-.436.009t-.41.027V7.365q.117.018.266.032t.3.018q.153,0,.27,0h2.43q.09,0,.211-.009t.234-.027a.479.479,0,0,0,.157-.045Zm-5.49,3.312q.18.018.4.031t.446.014H6.912q.162,0,.414-.009t.423-.027v1.044q-.09-.009-.243-.014t-.306,0H2.133q-.225,0-.414,0l-.432.014Zm14.7-6.156a3.61,3.61,0,0,1,.248.378q.13.225.256.45t.216.4l-.657.279q-.135-.279-.333-.635t-.378-.616Zm1.044-.4q.117.162.257.391t.27.45a3.82,3.82,0,0,1,.2.382l-.648.279q-.144-.288-.342-.635a5.79,5.79,0,0,0-.387-.6ZM10.791,9.228q.153-.369.292-.787t.252-.864q.112-.445.2-.887a8.188,8.188,0,0,0,.122-.864l1.17.243q-.027.126-.072.279t-.076.3q-.031.148-.049.256-.045.225-.126.558t-.189.711q-.108.378-.225.76t-.243.707q-.162.423-.378.882T11,11.41q-.247.428-.482.77L9.4,11.712a10.44,10.44,0,0,0,.8-1.229A9.932,9.932,0,0,0,10.791,9.228Zm4.446-.234q-.135-.351-.3-.751t-.342-.806q-.175-.4-.347-.761t-.315-.607l1.062-.351q.135.252.311.616t.36.769q.185.405.356.806t.3.734q.126.306.27.711t.293.837q.148.432.279.842t.221.733l-1.188.378q-.117-.513-.27-1.053t-.328-1.08Q15.417,9.471,15.237,8.994Zm7.254-2.3q.063.144.167.41t.216.567q.112.3.207.567t.14.418L22.257,9a4.337,4.337,0,0,0-.126-.428q-.09-.266-.2-.558t-.216-.562q-.108-.27-.18-.441Zm3.3.612-.108.337q-.045.139-.081.266A9.544,9.544,0,0,1,25.128,9.3a5.931,5.931,0,0,1-.765,1.292,6.663,6.663,0,0,1-1.422,1.354,7.253,7.253,0,0,1-1.575.851l-.846-.864a6.622,6.622,0,0,0,2.1-1.053,4.832,4.832,0,0,0,.873-.837,4.551,4.551,0,0,0,.558-.887,6.539,6.539,0,0,0,.4-1.066,6.293,6.293,0,0,0,.216-1.134ZM20.4,7.167q.081.171.194.437t.234.567q.121.3.229.58t.171.468l-.981.36q-.054-.171-.157-.464t-.229-.608q-.126-.315-.239-.58a4.3,4.3,0,0,0-.194-.41Zm14.625-.774a3.134,3.134,0,0,0-.279.6,8.719,8.719,0,0,1-.333.923,9.668,9.668,0,0,1-.527,1.062,7.531,7.531,0,0,1-.715,1.039,8.214,8.214,0,0,1-1.494,1.4,9.345,9.345,0,0,1-2.124,1.12l-.945-.846a8.854,8.854,0,0,0,1.557-.621,7.106,7.106,0,0,0,1.166-.756,7,7,0,0,0,.9-.864,5.4,5.4,0,0,0,.594-.828,7.749,7.749,0,0,0,.464-.918,4.42,4.42,0,0,0,.266-.81H30.429l.378-.909h2.655a2.9,2.9,0,0,0,.4-.027,1.42,1.42,0,0,0,.329-.081Zm-2.961-1.4q-.144.216-.288.468t-.216.387a9.936,9.936,0,0,1-.733,1.111,9.875,9.875,0,0,1-1,1.13,8.839,8.839,0,0,1-1.229,1l-.9-.666a8.07,8.07,0,0,0,1.04-.751,7.539,7.539,0,0,0,.792-.783,8.111,8.111,0,0,0,.58-.751q.243-.36.405-.657a3.236,3.236,0,0,0,.2-.4,3,3,0,0,0,.167-.473Z" transform="translate(283 1573)" fill="#333"/><g transform="translate(262 1500.91)"><path d="M79.993,158.692V172.57c0,.039,0,.079,0,.118,0,.015,0,.115,0,.046,0,.091.017-.01.006-.028a.421.421,0,0,1-.048.169s.072-.127.007-.028c-.015.023-.031.05-.044.073-.045.078.018-.009.017-.021,0,.02-.064.061-.075.076-.042.062.117-.067.006,0-.024.014-.051.029-.073.045-.05.034-.026.048.028-.007a.32.32,0,0,1-.083.028c-.012,0-.084.017-.086.02.006-.012.151-.006.028-.006h-.046c-.274.006-.549,0-.824,0H48.849c-.069,0-.139,0-.209,0-.015,0-.229,0-.046,0-.092,0,.01.017.028.006a.419.419,0,0,1-.169-.048s.127.072.028.007c-.023-.015-.049-.03-.073-.045-.106-.063.024.017.021.017a.582.582,0,0,1-.09-.09s.08.127.017.021c-.014-.024-.029-.051-.044-.073-.034-.05-.048-.026.007.028a.325.325,0,0,1-.028-.083c0-.012-.017-.084-.02-.086.012.006.006.151.006.028,0-.016,0-.032,0-.047,0-.045,0-.09,0-.135V158.692a.608.608,0,1,0-1.217,0V172.6a1.613,1.613,0,0,0,1.445,1.655,7.939,7.939,0,0,0,.9.01H79.452a2.544,2.544,0,0,0,.518-.038,1.6,1.6,0,0,0,1.235-1.451c.005-.064,0-.129,0-.193V158.692a.608.608,0,1,0-1.217,0" transform="translate(-43.242 -155.83)" fill="#333"/><path d="M191.719,159.139c.058.067.113.136.169.2s-.034-.043-.04-.053c.01.017.024.032.036.047l.08.108q.16.221.3.453a7.6,7.6,0,0,1,.5.985l-.061-.145a8.5,8.5,0,0,1,.578,2.131l-.022-.162a9.176,9.176,0,0,1,0,2.439l.022-.162a8.487,8.487,0,0,1-.58,2.136l.061-.145a7.637,7.637,0,0,1-.432.864q-.12.206-.254.4-.06.089-.124.176l-.064.086-.032.042c.117-.16.059-.076.03-.039a6.168,6.168,0,0,1-.606.664q-.162.153-.335.293c-.039.032-.144.109.024-.017l-.08.06q-.09.067-.183.13a4.966,4.966,0,0,1-.841.457l.145-.061a4.543,4.543,0,0,1-1.123.309l.162-.022a4.435,4.435,0,0,1-1.18,0l.162.022a4.543,4.543,0,0,1-1.122-.309l.145.061a4.943,4.943,0,0,1-.748-.4q-.089-.057-.175-.118a1.7,1.7,0,0,0-.181-.134s.132.1.064.049l-.039-.031-.078-.064q-.088-.074-.172-.15a6.074,6.074,0,0,1-.615-.649l-.066-.082a.351.351,0,0,1-.041-.052s.1.132.046.06-.1-.129-.142-.195q-.133-.189-.252-.386a7.578,7.578,0,0,1-.495-.97l.061.145a8.487,8.487,0,0,1-.58-2.136l.022.162a9.175,9.175,0,0,1,0-2.439l-.022.162a8.495,8.495,0,0,1,.578-2.131l-.061.145a7.591,7.591,0,0,1,.5-.985q.138-.226.292-.441l.08-.108.036-.047c.044-.058-.086.109-.041.053.059-.073.117-.145.178-.216a.648.648,0,0,0,.178-.43.608.608,0,0,0-1.039-.43,8.147,8.147,0,0,0-1.65,3.147,9.39,9.39,0,0,0-.259,3.66,8.986,8.986,0,0,0,1.014,3.212,6.981,6.981,0,0,0,2.006,2.291,5.236,5.236,0,0,0,2.682.978,5.066,5.066,0,0,0,2.781-.633A6.471,6.471,0,0,0,193.1,168.9,8.241,8.241,0,0,0,194.337,166a9.792,9.792,0,0,0,.08-3.72,8.33,8.33,0,0,0-1.291-3.284,8.18,8.18,0,0,0-.546-.713.611.611,0,0,0-.86,0,.624.624,0,0,0,0,.86" transform="translate(-167.572 -155.848)" fill="#333"/><path d="M123.718,216.457a.54.54,0,0,1,0,.061l.022-.162a.481.481,0,0,1-.031.113l.061-.145a.482.482,0,0,1-.059.1l.1-.123a.5.5,0,0,1-.073.073l.123-.1a.486.486,0,0,1-.1.059l.145-.061a.484.484,0,0,1-.113.032l.162-.022a.489.489,0,0,1-.121,0l.162.022a.485.485,0,0,1-.113-.032l.145.061a.483.483,0,0,1-.1-.059l.123.1a.491.491,0,0,1-.073-.073l.1.123a.481.481,0,0,1-.059-.1l.061.145a.481.481,0,0,1-.031-.113l.022.162a.488.488,0,0,1,0-.121l-.022.162a.481.481,0,0,1,.031-.113l-.061.145a.484.484,0,0,1,.059-.1l-.1.123a.5.5,0,0,1,.073-.073l-.123.1a.484.484,0,0,1,.1-.059l-.145.061a.484.484,0,0,1,.113-.032l-.162.022a.487.487,0,0,1,.121,0l-.162-.022a.483.483,0,0,1,.113.032l-.145-.061a.486.486,0,0,1,.1.059l-.123-.1a.5.5,0,0,1,.073.073l-.1-.123a.484.484,0,0,1,.059.1l-.061-.145a.481.481,0,0,1,.031.113l-.022-.162a.54.54,0,0,1,0,.061.631.631,0,0,0,.178.43.608.608,0,0,0,.86,0,.625.625,0,0,0,.178-.43,1.586,1.586,0,0,0-.026-.222.481.481,0,0,0-.017-.075,1.539,1.539,0,0,0-.085-.2.469.469,0,0,0-.039-.064,1.519,1.519,0,0,0-.132-.167,1.323,1.323,0,0,0-.169-.137,1.01,1.01,0,0,0-.26-.127.461.461,0,0,0-.073-.021,1.553,1.553,0,0,0-.227-.029.49.49,0,0,0-.073,0,.962.962,0,0,0-.426.115.5.5,0,0,0-.066.035,1,1,0,0,0-.225.187,1.469,1.469,0,0,0-.128.17,1.309,1.309,0,0,0-.091.2,1.049,1.049,0,0,0-.055.293.446.446,0,0,0,0,.079,1.549,1.549,0,0,0,.032.227.507.507,0,0,0,.022.067,1.355,1.355,0,0,0,.09.2,1.447,1.447,0,0,0,.128.17.494.494,0,0,0,.051.054,1.013,1.013,0,0,0,.238.17,1.445,1.445,0,0,0,.2.082,1.361,1.361,0,0,0,.225.035,1.044,1.044,0,0,0,.3-.025.473.473,0,0,0,.085-.024,1.332,1.332,0,0,0,.207-.092,1.357,1.357,0,0,0,.179-.135.5.5,0,0,0,.056-.056,1.171,1.171,0,0,0,.229-.392.461.461,0,0,0,.022-.079,1.487,1.487,0,0,0,.029-.24.625.625,0,0,0-.178-.43.608.608,0,0,0-.86,0,.639.639,0,0,0-.178.43" transform="translate(-112.874 -208.506)" fill="#333"/><path d="M367.294,216.457a.544.544,0,0,1,0,.061l.022-.162a.476.476,0,0,1-.032.113l.061-.145a.482.482,0,0,1-.059.1l.1-.123a.5.5,0,0,1-.073.073l.123-.1a.487.487,0,0,1-.1.059l.145-.061a.484.484,0,0,1-.113.032l.162-.022a.489.489,0,0,1-.121,0l.162.022a.486.486,0,0,1-.113-.032l.145.061a.484.484,0,0,1-.1-.059l.123.1a.491.491,0,0,1-.073-.073l.1.123a.479.479,0,0,1-.059-.1l.061.145a.482.482,0,0,1-.031-.113l.022.162a.491.491,0,0,1,0-.121l-.022.162a.482.482,0,0,1,.031-.113l-.061.145a.482.482,0,0,1,.059-.1l-.1.123a.5.5,0,0,1,.073-.073l-.123.1a.484.484,0,0,1,.1-.059l-.145.061a.485.485,0,0,1,.113-.032l-.162.022a.487.487,0,0,1,.121,0l-.162-.022a.483.483,0,0,1,.113.032l-.145-.061a.488.488,0,0,1,.1.059l-.123-.1a.5.5,0,0,1,.073.073l-.1-.123a.485.485,0,0,1,.059.1l-.061-.145a.477.477,0,0,1,.032.113l-.022-.162a.544.544,0,0,1,0,.061.631.631,0,0,0,.178.43.608.608,0,0,0,.86,0,.625.625,0,0,0,.178-.43,1.588,1.588,0,0,0-.026-.222.482.482,0,0,0-.017-.075,1.544,1.544,0,0,0-.085-.2.477.477,0,0,0-.039-.064,1.519,1.519,0,0,0-.132-.167,1.32,1.32,0,0,0-.169-.137,1.011,1.011,0,0,0-.26-.127.461.461,0,0,0-.073-.021,1.553,1.553,0,0,0-.227-.029.491.491,0,0,0-.073,0,.962.962,0,0,0-.426.115.5.5,0,0,0-.066.035,1,1,0,0,0-.225.187,1.465,1.465,0,0,0-.128.17,1.305,1.305,0,0,0-.091.2,1.05,1.05,0,0,0-.055.293.446.446,0,0,0,0,.079,1.543,1.543,0,0,0,.032.227.508.508,0,0,0,.022.067,1.36,1.36,0,0,0,.09.2,1.447,1.447,0,0,0,.128.17.492.492,0,0,0,.051.054,1.013,1.013,0,0,0,.238.17,1.447,1.447,0,0,0,.2.082,1.362,1.362,0,0,0,.225.035,1.044,1.044,0,0,0,.3-.025.473.473,0,0,0,.085-.024,1.335,1.335,0,0,0,.207-.092,1.358,1.358,0,0,0,.179-.135.5.5,0,0,0,.056-.056,1.171,1.171,0,0,0,.229-.392.464.464,0,0,0,.022-.079,1.489,1.489,0,0,0,.029-.24.625.625,0,0,0-.178-.43.608.608,0,0,0-.86,0,.639.639,0,0,0-.178.43" transform="translate(-336.691 -208.506)" fill="#333"/><path d="M318.3,172.665h6.038a.618.618,0,0,0,.608-.608,1.891,1.891,0,0,1,.015-.223l-.022.162a1.741,1.741,0,0,1,.114-.418l-.061.145a1.732,1.732,0,0,1,.145-.269c.015-.022.031-.043.045-.065.038-.059-.1.121-.038.05.035-.04.069-.08.106-.117s.07-.066.107-.1c.083-.073-.051.035-.051.038s.054-.039.064-.046a1.714,1.714,0,0,1,.28-.152l-.145.061a1.738,1.738,0,0,1,.417-.114l-.162.022a1.921,1.921,0,0,1,.223-.015.618.618,0,0,0,.608-.608v-8.667c0-.4.008-.8,0-1.2,0-.006,0-.011,0-.017a.608.608,0,1,0-1.217,0V169.2c0,.4-.011.8,0,1.2,0,.005,0,.011,0,.017l.608-.608a2.255,2.255,0,0,0-2.255,2.255l.608-.608H318.3a.608.608,0,0,0,0,1.217" transform="translate(-291.921 -157.519)" fill="#333"/><path d="M87.618,160.53V169.2c0,.4-.008.8,0,1.2,0,.006,0,.011,0,.017a.618.618,0,0,0,.608.608,1.911,1.911,0,0,1,.223.015l-.162-.022a1.737,1.737,0,0,1,.417.114l-.145-.061a1.727,1.727,0,0,1,.269.144c.022.015.043.031.065.045.059.038-.121-.1-.05-.038.04.035.08.069.117.106s.066.071.1.107c.073.083-.035-.051-.038-.051s.039.054.046.064a1.714,1.714,0,0,1,.152.28l-.061-.145a1.742,1.742,0,0,1,.114.417l-.022-.162a1.9,1.9,0,0,1,.015.223.618.618,0,0,0,.608.608h6.038a.608.608,0,0,0,0-1.217H89.873l.608.608a2.255,2.255,0,0,0-2.255-2.255l.608.608v-8.667c0-.4.008-.8,0-1.2,0-.006,0-.011,0-.017a.608.608,0,0,0-1.217,0" transform="translate(-80.507 -157.519)" fill="#333"/><path d="M48.121,370.859H79.645c.426,0,.852.006,1.278,0h.056a.608.608,0,0,0,0-1.217H49.454c-.426,0-.852-.006-1.278,0h-.056a.608.608,0,0,0,0,1.217" transform="translate(-43.657 -350.226)" fill="#333"/><path d="M47.482,268.291v7.257c0,.334-.007.668,0,1,0,0,0,.01,0,.015a.608.608,0,0,0,1.217,0v-7.257c0-.334.007-.668,0-1,0,0,0-.01,0-.015a.608.608,0,1,0-1.217,0" transform="translate(-43.627 -256.538)" fill="#333"/><path d="M452.984,268.291v7.257c0,.334-.007.668,0,1,0,0,0,.01,0,.015a.608.608,0,0,0,1.217,0v-7.257c0-.334.007-.668,0-1,0,0,0-.01,0-.015a.608.608,0,0,0-1.217,0" transform="translate(-416.234 -256.538)" fill="#333"/><path d="M2.639,138.435H1.459c-.009,0-.1-.007-.029,0s-.027-.008-.026-.008-.1-.031-.028,0-.034-.021-.045-.027c-.058-.029.006.012.017.02a.967.967,0,0,1-.11-.11c.058.073,0,0,.007-.006s-.041-.1-.013-.023-.006-.026,0-.028-.018-.1-.008-.026,0-.02,0-.029,0-.037,0-.055c0-.131,0-.263,0-.394v-5.807c0-.044,0-.088,0-.131,0-.009,0-.017,0-.026v0s0-.053,0-.056c0,.094.013.013,0,0s.031-.1,0-.028.011-.026.013-.023.052-.088.01-.025.009-.011.018-.019c.035-.033.119-.085.037-.038a.585.585,0,0,1,.068-.039c.085-.034-.089.025,0,0l.078-.02c-.017,0-.092,0-.025.007a.083.083,0,0,0,.028,0H39.342c.305,0,.611,0,.916,0h.068l.056,0c-.094,0-.013.013,0,0s.1.031.028,0,.026.011.023.013.088.052.025.01.011.009.019.018c.033.035.085.119.038.037a.586.586,0,0,1,.039.068c.034.085-.025-.089,0,0,.007.026.013.052.02.078,0-.017,0-.091-.007-.025,0,.011,0,.02,0,.03s0,.016,0,.025c0,.043,0,.085,0,.128v5.8c0,.134,0,.267,0,.4,0,.02,0,.04,0,.059,0,.06-.008.062.006,0-.008.035-.017.069-.027.1,0-.007.035-.09.01-.024a.532.532,0,0,1-.039.068c0-.008.063-.07.016-.02s-.142.108-.054.057c-.041.023-.138.057-.044.029-.046.013-.153.024-.05.02l-.1,0H39.2a.608.608,0,0,0,0,1.217,3.872,3.872,0,0,0,1.848-.19,1.487,1.487,0,0,0,.736-1.274c0-.093,0-.187,0-.281v-3.543c0-.861.023-1.725,0-2.586a1.482,1.482,0,0,0-1.48-1.456c-.089,0-.177,0-.266,0H2.238c-.254,0-.508-.005-.762,0A1.482,1.482,0,0,0,0,131.782c-.007.293,0,.587,0,.88v5.3c0,.076,0,.153,0,.229a1.487,1.487,0,0,0,1,1.382,2.736,2.736,0,0,0,.905.074h.73a.608.608,0,0,0,0-1.217" transform="translate(0 -130.32)" fill="#333"/><path d="M2.1,4.286a.5.5,0,0,1-.438-.257L-.437.243a.5.5,0,0,1,.194-.68.5.5,0,0,1,.68.194l2.1,3.786a.5.5,0,0,1-.437.743Z" transform="translate(18.743 4.598)" fill="#333"/><path d="M0,4.475a.5.5,0,0,1-.5-.5V0A.5.5,0,0,1,0-.5.5.5,0,0,1,.5,0V3.975A.5.5,0,0,1,0,4.475Z" transform="translate(20.846 8.384)" fill="#333"/><path d="M0,4.286a.5.5,0,0,1-.242-.063.5.5,0,0,1-.194-.68l2.1-3.786a.5.5,0,0,1,.68-.194.5.5,0,0,1,.194.68L.437,4.029A.5.5,0,0,1,0,4.286Z" transform="translate(20.846 4.598)" fill="#333"/><path d="M5.679.5H0A.5.5,0,0,1-.5,0,.5.5,0,0,1,0-.5H5.679a.5.5,0,0,1,.5.5A.5.5,0,0,1,5.679.5Z" transform="translate(18.007 8.384)" fill="#333"/><path d="M5.679.5H0A.5.5,0,0,1-.5,0,.5.5,0,0,1,0-.5H5.679a.5.5,0,0,1,.5.5A.5.5,0,0,1,5.679.5Z" transform="translate(18.007 10.655)" fill="#333"/></g><rect width="70" height="20" rx="10" transform="translate(248 1470)" fill="#fff"/><path d="M10,1a9,9,0,0,0,0,18H60A9,9,0,0,0,60,1H10m0-1H60a10,10,0,0,1,0,20H10A10,10,0,0,1,10,0Z" transform="translate(248 1470)" fill="#707070"/><path d="M-26.472,0V-1.284h1.932v-5.88h-1.608v-.984a6.963,6.963,0,0,0,1.122-.294,4.508,4.508,0,0,0,.87-.426h1.176v7.584h1.7V0Zm9.024-10.212,1.32.336A14.206,14.206,0,0,1-16.9-8.142a13.693,13.693,0,0,1-.96,1.572A9.881,9.881,0,0,1-18.912-5.3q-.132-.108-.336-.27t-.408-.318a3.41,3.41,0,0,0-.372-.252A7.387,7.387,0,0,0-18.99-7.266a9.991,9.991,0,0,0,.882-1.4A10.463,10.463,0,0,0-17.448-10.212Zm.132,1.4h7.668V-7.56h-8.28ZM-18.084-6h8.16v1.2H-16.8v2.6h-1.284Zm-1.932,3.18H-9.024v1.236H-20.016Zm5.472-5.34h1.332v9.2h-1.332Zm10.32,5.328H-.84V-1.9H-4.224ZM-4.3-4.62H-.228V-.072H-4.3v-.96H-1.44V-3.66H-4.3Zm-.528,0H-3.66V.54H-4.824ZM-6.9-8h3.108v.876H-6.9Zm5.568,0H1.8v.876H-1.332Zm2.6-1.68h1.3V-.516a2.2,2.2,0,0,1-.132.84A.941.941,0,0,1,1.968.8,2.659,2.659,0,0,1,1.1,1q-.522.042-1.29.042A2.919,2.919,0,0,0-.282.618Q-.348.384-.438.138A2.74,2.74,0,0,0-.624-.276q.336.024.66.024H.984a.325.325,0,0,0,.228-.06.3.3,0,0,0,.06-.216Zm-8.064,0h3.8V-5.4h-3.8v-.936h2.6V-8.748h-2.6Zm8.736,0v.936H-.864v2.436H1.944v.936H-2.088V-9.684Zm-9.48,0h1.284V1.044H-7.536ZM6.3-10.164H7.608V-8.1H6.3ZM4.032-8.748h5.82v1.164H4.032Zm5.724,1.62h5.28V-5.9H9.756ZM5.8-5.772v1.188H8.088V-5.772ZM4.62-6.84H9.336V-3.5H4.62ZM6.384-3.948H7.62v3.66a1.983,1.983,0,0,1-.1.678A.783.783,0,0,1,7.14.8a1.715,1.715,0,0,1-.666.174q-.39.03-.906.03A3.343,3.343,0,0,0,5.418.42a3.607,3.607,0,0,0-.246-.576q.336.012.636.012h.4q.18,0,.18-.168ZM4.74-3l1.176.252a10.178,10.178,0,0,1-.5,1.65A6.759,6.759,0,0,1,4.692.276Q4.584.18,4.41.036t-.36-.27q-.186-.126-.318-.21a4.956,4.956,0,0,0,.606-1.164A9.049,9.049,0,0,0,4.74-3Zm3.228.24,1.008-.36A10.044,10.044,0,0,1,9.45-2.064a7.479,7.479,0,0,1,.318,1l-1.056.4a8.753,8.753,0,0,0-.306-1.02Q8.2-2.28,7.968-2.76ZM12.72-9.42l1-.456a6.014,6.014,0,0,1,.774.96,5.375,5.375,0,0,1,.522.972l-1.068.516a5.783,5.783,0,0,0-.492-.99A6.666,6.666,0,0,0,12.72-9.42Zm-1.5-.756h1.248V-7.26q0,.936-.084,2.022A14.07,14.07,0,0,1,12.03-3.03a9.7,9.7,0,0,1-.81,2.172A7.288,7.288,0,0,1,9.768,1.068,2.945,2.945,0,0,0,9.456.8Q9.264.66,9.054.522a2.5,2.5,0,0,0-.378-.21,6.557,6.557,0,0,0,1.386-1.77,8.7,8.7,0,0,0,.762-1.992,12.135,12.135,0,0,0,.324-2q.072-.978.072-1.794Zm.864,4.8h1.164V-.564a.358.358,0,0,0,.018.114.144.144,0,0,0,.054.078.292.292,0,0,0,.216.084h.312a.592.592,0,0,0,.144-.018A.228.228,0,0,0,14.1-.36a.292.292,0,0,0,.084-.114.586.586,0,0,0,.048-.174q.024-.18.036-.552t0-.84a2.671,2.671,0,0,0,.438.294,2.741,2.741,0,0,0,.5.222q-.012.324-.03.654t-.048.594a2.846,2.846,0,0,1-.066.4,1.137,1.137,0,0,1-.42.636.941.941,0,0,1-.324.132,1.727,1.727,0,0,1-.4.048h-.732a1.571,1.571,0,0,1-.45-.066,1.052,1.052,0,0,1-.39-.21.952.952,0,0,1-.156-.24,1.166,1.166,0,0,1-.084-.348A5.463,5.463,0,0,1,12.084-.5ZM16.176-2.8H26.832V-1.74H16.176Zm.036-5.352H26.784v1.056H16.212ZM16.7-6.024h9.624v1.008H16.7Zm.6,1.644h8.46v.936H17.3ZM20.82-5.52H22.1V1.044H20.82Zm-1.056-4.656h1.212v2.532H19.764Zm2.244,0h1.224v2.46H22.008ZM20.556-2.34l1.02.468A7.643,7.643,0,0,1,20.208-.72a11.475,11.475,0,0,1-1.716.948,12.633,12.633,0,0,1-1.836.66,2.644,2.644,0,0,0-.228-.366q-.144-.2-.3-.39a3.044,3.044,0,0,0-.3-.324,14.45,14.45,0,0,0,1.8-.51A10.958,10.958,0,0,0,19.3-1.446,6.151,6.151,0,0,0,20.556-2.34Zm1.836-.024a5.78,5.78,0,0,0,.894.7,7.8,7.8,0,0,0,1.152.606,11.945,11.945,0,0,0,1.32.474,14.254,14.254,0,0,0,1.386.336q-.132.132-.3.336T26.526.51q-.15.222-.246.39a10.588,10.588,0,0,1-1.4-.462A10.993,10.993,0,0,1,23.556-.21a9.262,9.262,0,0,1-1.188-.81,6.836,6.836,0,0,1-.972-.948Zm2.376-7.692,1.344.324q-.276.492-.564.966t-.54.81l-1.044-.336a4.954,4.954,0,0,0,.306-.552q.15-.312.282-.63T24.768-10.056ZM23.184-7.5l1.356.324q-.24.42-.468.81t-.42.666L22.56-6q.168-.336.342-.75T23.184-7.5ZM17.1-9.72l1.1-.372a9.7,9.7,0,0,1,.552.87,4.93,4.93,0,0,1,.4.846l-1.164.432a5.149,5.149,0,0,0-.366-.858Q17.364-9.3,17.1-9.72Zm1.536,2.664,1.248-.2a5.862,5.862,0,0,1,.33.6,4.057,4.057,0,0,1,.234.576l-1.308.24a4.364,4.364,0,0,0-.2-.588A5.7,5.7,0,0,0,18.636-7.056Z" transform="translate(283 1484)" fill="#333"/><path d="M600,71.406a.75.75,0,0,1-.53-1.28l4.17-4.17-4.17-4.17a.75.75,0,1,1,1.061-1.061l4.7,4.7a.75.75,0,0,1,0,1.061l-4.7,4.7A.748.748,0,0,1,600,71.406Z" transform="translate(-467.5 1454.93)" fill="#333"/><path d="M600,71.406a.75.75,0,0,1-.53-1.28l4.17-4.17-4.17-4.17a.75.75,0,1,1,1.061-1.061l4.7,4.7a.75.75,0,0,1,0,1.061l-4.7,4.7A.748.748,0,0,1,600,71.406Z" transform="translate(-369.5 1454.93)" fill="#333"/></g></svg>