<svg xmlns="http://www.w3.org/2000/svg" width="420.296" height="70" viewBox="0 0 420.296 70"><g transform="translate(-407 -3453.231)"><g transform="translate(495 3474.536)"><path d="M16.84,0h5.88V-6.32h3.96v-5H22.72v-18h-5.2L1.48-10.68,2.52-6.32H16.84ZM8.72-11.32l8.12-9.56v9.56ZM41.36-5.08a9.54,9.54,0,0,1-6.4-2.56L31.72-2.96A13.9,13.9,0,0,0,41.24.48C49.4.48,53.88-5.96,53.88-15.4v-.08c0-5.72-1.36-8.92-3.44-11-2.2-2.16-4.48-3.12-8.36-3.12-6.52,0-11.04,4.32-11.04,10.16v.08c0,5.84,4.08,9.36,10.36,9.36a8.446,8.446,0,0,0,6.08-2.24h.04C47.36-9.56,46-5.08,41.36-5.08ZM42.4-15.12c-3.24,0-5.24-1.84-5.24-4.52v-.08c0-2.68,1.84-4.64,5.12-4.64s5.28,1.96,5.28,4.64v.08C47.56-17.08,45.68-15.12,42.4-15.12ZM58.72,0H65.2V-6.48H58.72ZM81.28.4c6.4,0,11.2-3.16,11.2-8.52V-8.2c0-3.48-1.8-5.36-4.8-6.88a6.988,6.988,0,0,0,3.8-6.4v-.08c0-4.52-4.12-7.96-10.2-7.96-6.12,0-10.24,3.48-10.24,7.96v.08a6.952,6.952,0,0,0,3.84,6.4c-3.12,1.4-4.84,3.48-4.84,7.04v.08C70.04-2.92,74.84.4,81.28.4Zm0-17.56c-2.64,0-4.4-1.56-4.4-3.72v-.08c0-1.88,1.68-3.48,4.4-3.48s4.36,1.64,4.36,3.52v.08C85.64-18.68,83.88-17.16,81.28-17.16Zm0,12.48C77.96-4.68,76-6.36,76-8.44v-.08c0-2.32,2.24-3.72,5.28-3.72,3,0,5.24,1.4,5.24,3.72v.08C86.52-6.32,84.56-4.68,81.28-4.68Z" transform="translate(-9 23.837)" fill="#fff"/><path d="M1-13.277H16.014v1.989H1ZM6.443-8.5h6.8v1.972h-6.8Zm6.052,0h2.142l-.009.161q-.009.162-.009.383A3,3,0,0,1,14.6-7.6q-.1,1.972-.212,3.375t-.247,2.346a8.986,8.986,0,0,1-.323,1.5,2.464,2.464,0,0,1-.442.85,2.056,2.056,0,0,1-.807.612,4.082,4.082,0,0,1-1.012.238q-.51.051-1.318.051T8.585,1.343A3.955,3.955,0,0,0,8.347.331a4.4,4.4,0,0,0-.493-.994q.884.068,1.683.085t1.173.017A2.108,2.108,0,0,0,11.169-.6a.76.76,0,0,0,.34-.179,2.057,2.057,0,0,0,.45-1.063,19.591,19.591,0,0,0,.306-2.38q.128-1.555.229-3.935ZM4.981-11.577H7.14q-.051,1.445-.161,2.924a23.733,23.733,0,0,1-.4,2.915,14.116,14.116,0,0,1-.85,2.754A9.959,9.959,0,0,1,4.216-.519,9.175,9.175,0,0,1,1.8,1.5,4.583,4.583,0,0,0,1.156.621,6.047,6.047,0,0,0,.323-.153,8.381,8.381,0,0,0,2.525-1.9,8.071,8.071,0,0,0,3.876-4.046,10.953,10.953,0,0,0,4.59-6.469a21.419,21.419,0,0,0,.289-2.559Q4.947-10.319,4.981-11.577ZM19.21-13.362H32.538v2.023H21.25V1.513H19.21Zm12.359,0h2.057v12.5a3.282,3.282,0,0,1-.2,1.284,1.442,1.442,0,0,1-.731.723,3.66,3.66,0,0,1-1.318.314q-.791.059-1.93.059a5.211,5.211,0,0,0-.17-.663Q29.155.476,29,.111A6.163,6.163,0,0,0,28.7-.527q.493.034.994.042t.892.009h.544a.56.56,0,0,0,.34-.111.411.411,0,0,0,.1-.314ZM20.315-7.038H32.572v2.006H20.315Zm4.964-5.219h2.04v6.222h-2.04Z" transform="translate(87.5 22.837)" fill="#fff"/></g><path d="M8.34-4.56a7.9,7.9,0,0,1,.294-2.2,7.717,7.717,0,0,1,.834-1.9,8.981,8.981,0,0,1,1.26-1.614l.72.372A8.659,8.659,0,0,0,10.26-8.358a7.316,7.316,0,0,0-.774,1.776,7.309,7.309,0,0,0-.27,2.022,7.328,7.328,0,0,0,.27,2.016A7.183,7.183,0,0,0,10.26-.768,9.155,9.155,0,0,0,11.448.78l-.72.372a9.467,9.467,0,0,1-1.26-1.62,7.588,7.588,0,0,1-.834-1.9A7.916,7.916,0,0,1,8.34-4.56Zm9.768-5.184.756-.324a10.442,10.442,0,0,1,.642,1.05,6.148,6.148,0,0,1,.438.978l-.792.372a6.062,6.062,0,0,0-.414-1.008A8.448,8.448,0,0,0,18.108-9.744Zm4.464-.348.9.336q-.288.528-.618,1.092t-.618.972l-.756-.3q.192-.288.4-.654t.39-.744A7.52,7.52,0,0,0,22.572-10.092ZM19.224-3.936h.9a11.435,11.435,0,0,1-.24,1.524A6.1,6.1,0,0,1,19.4-1.044,4.192,4.192,0,0,1,18.552.1a4.562,4.562,0,0,1-1.344.87,2.528,2.528,0,0,0-.246-.36,2.218,2.218,0,0,0-.306-.324,4.042,4.042,0,0,0,1.212-.75,3.482,3.482,0,0,0,.744-.99,5.045,5.045,0,0,0,.414-1.182A10.4,10.4,0,0,0,19.224-3.936Zm1.9-.108H22V-.36a.575.575,0,0,0,.048.294q.048.066.24.066h.8a.22.22,0,0,0,.2-.1,1.083,1.083,0,0,0,.1-.426q.03-.324.042-.972a1.014,1.014,0,0,0,.222.138,2.816,2.816,0,0,0,.294.12l.264.09A6.837,6.837,0,0,1,24.066.054a1.054,1.054,0,0,1-.312.594.887.887,0,0,1-.57.168H22.152a1.518,1.518,0,0,1-.636-.108A.585.585,0,0,1,21.2.342a2.346,2.346,0,0,1-.084-.7ZM18.84-6.852v2.34h3.792v-2.34Zm-.864-.8H23.52V-3.72H17.976ZM15.144-9.084h.888V.936h-.888ZM13.188-6.7h4.344v.84H13.188Zm2,.324.564.24q-.18.636-.444,1.314t-.57,1.344a14,14,0,0,1-.648,1.248,6.963,6.963,0,0,1-.69.99,3.4,3.4,0,0,0-.21-.42q-.138-.24-.258-.408a6.094,6.094,0,0,0,.66-.864q.324-.5.63-1.092t.558-1.194A10.379,10.379,0,0,0,15.192-6.372Zm1.74-3.54.624.7a12.346,12.346,0,0,1-1.26.408q-.708.192-1.458.33t-1.458.234a1.561,1.561,0,0,0-.108-.342q-.084-.2-.156-.342.672-.12,1.386-.264t1.35-.33A7.989,7.989,0,0,0,16.932-9.912ZM15.984-5.16q.12.108.354.342t.51.5q.276.27.5.51t.318.348l-.54.708q-.108-.18-.306-.456t-.438-.588q-.24-.312-.456-.576t-.36-.42ZM30.06-9.468h2.52v.852H30.06Zm1.968,0h.984a24.429,24.429,0,0,0,.36,2.586,11.2,11.2,0,0,0,.666,2.22A6.809,6.809,0,0,0,35.106-2.9,5.069,5.069,0,0,0,36.648-1.68a1.332,1.332,0,0,0-.24.18q-.132.12-.258.252t-.21.24a5.694,5.694,0,0,1-1.566-1.326,7.366,7.366,0,0,1-1.086-1.824A12.023,12.023,0,0,1,32.6-6.414a24.691,24.691,0,0,1-.384-2.622h-.192Zm.048,2.316L33-7.008a11.944,11.944,0,0,1-1.278,3.54,7.635,7.635,0,0,1-2.2,2.46,1.8,1.8,0,0,0-.186-.21q-.126-.126-.27-.252t-.252-.21A6.2,6.2,0,0,0,30.93-3.912,10.717,10.717,0,0,0,32.076-7.152ZM28.344-5.34v4.248h-.876V-4.5h-1.68v-.84Zm0,3.852a2.6,2.6,0,0,0,1.2.984,5.1,5.1,0,0,0,1.812.36q.492.024,1.194.03T34.026-.12Q34.8-.132,35.52-.156t1.26-.06a1.4,1.4,0,0,0-.12.264q-.06.168-.108.342T36.48.7q-.492.024-1.164.036T33.924.75q-.72.006-1.4,0T31.356.732a6.048,6.048,0,0,1-2.01-.384,3.416,3.416,0,0,1-1.41-1.056q-.432.384-.888.774t-.948.8L25.632-.06q.432-.288.93-.666t.966-.762ZM25.92-9.252l.66-.54a8.774,8.774,0,0,1,.8.582q.408.33.75.666a5.636,5.636,0,0,1,.558.624l-.72.6a3.863,3.863,0,0,0-.522-.636q-.342-.348-.744-.69A9.7,9.7,0,0,0,25.92-9.252ZM40.944.156a3.939,3.939,0,0,1-1.206-.168,3.567,3.567,0,0,1-.912-.432,5.279,5.279,0,0,1-.7-.564l.552-.72a4.641,4.641,0,0,0,.558.474,2.7,2.7,0,0,0,.7.36,2.726,2.726,0,0,0,.9.138,1.816,1.816,0,0,0,.942-.252,1.814,1.814,0,0,0,.678-.72,2.3,2.3,0,0,0,.252-1.1,2.071,2.071,0,0,0-.5-1.47,1.727,1.727,0,0,0-1.326-.534,1.994,1.994,0,0,0-.756.132,4.209,4.209,0,0,0-.708.384l-.588-.372.288-4.1h4.272v.936H40.08l-.228,2.544a2.607,2.607,0,0,1,.606-.258,2.621,2.621,0,0,1,.714-.09A2.986,2.986,0,0,1,42.5-5.37a2.231,2.231,0,0,1,.96.918,3.163,3.163,0,0,1,.36,1.6,3.053,3.053,0,0,1-.414,1.632A2.808,2.808,0,0,1,42.336-.2,2.9,2.9,0,0,1,40.944.156ZM49.14,0V-6q0-.324.024-.792t.036-.8h-.048q-.168.312-.342.642t-.366.654l-2,3h4.908v.876H45.3v-.72L48.96-8.8h1.212V0ZM54.7,0q.06-1.248.21-2.3a12.812,12.812,0,0,1,.438-1.98,11.19,11.19,0,0,1,.738-1.806,14,14,0,0,1,1.1-1.776H52.908V-8.8h5.508v.66a13.743,13.743,0,0,0-1.254,1.908,9.459,9.459,0,0,0-.756,1.86,12.865,12.865,0,0,0-.4,2.01Q55.884-1.3,55.836,0ZM60.48,2.28l-.264-.648A2.207,2.207,0,0,0,61.1.948a1.539,1.539,0,0,0,.312-.984L61.3-1.02l.54.8a.693.693,0,0,1-.258.186.8.8,0,0,1-.294.054.844.844,0,0,1-.564-.2.7.7,0,0,1-.24-.564.693.693,0,0,1,.246-.564.883.883,0,0,1,.582-.2.79.79,0,0,1,.678.342,1.587,1.587,0,0,1,.246.942,2.492,2.492,0,0,1-.474,1.512A3.04,3.04,0,0,1,60.48,2.28Zm6.4-2.124a3.365,3.365,0,0,1-1.452-.3,2.427,2.427,0,0,1-1-.828,2.1,2.1,0,0,1-.36-1.212A2.367,2.367,0,0,1,64.3-3.246a2.749,2.749,0,0,1,.606-.816,3.894,3.894,0,0,1,.768-.558v-.048a3.441,3.441,0,0,1-.834-.834A2.007,2.007,0,0,1,64.488-6.7a2.127,2.127,0,0,1,.318-1.17,2.2,2.2,0,0,1,.864-.78,2.641,2.641,0,0,1,1.23-.282,2.63,2.63,0,0,1,1.3.3,2.084,2.084,0,0,1,.828.816,2.422,2.422,0,0,1,.288,1.2,2.059,2.059,0,0,1-.186.864,3.221,3.221,0,0,1-.45.726,3.931,3.931,0,0,1-.528.534v.06a3.926,3.926,0,0,1,.72.522,2.392,2.392,0,0,1,.546.744,2.41,2.41,0,0,1,.21,1.05,2.048,2.048,0,0,1-.342,1.146,2.336,2.336,0,0,1-.96.822A3.276,3.276,0,0,1,66.876.156Zm.6-4.932a2.9,2.9,0,0,0,.672-.846,2.034,2.034,0,0,0,.228-.93,1.747,1.747,0,0,0-.174-.792,1.37,1.37,0,0,0-.51-.558,1.486,1.486,0,0,0-.8-.21,1.388,1.388,0,0,0-1.008.384,1.371,1.371,0,0,0-.4,1.032,1.352,1.352,0,0,0,.282.87,2.358,2.358,0,0,0,.738.6A9.064,9.064,0,0,0,67.476-4.776ZM66.888-.66a1.951,1.951,0,0,0,.894-.192,1.45,1.45,0,0,0,.588-.528,1.419,1.419,0,0,0,.21-.768,1.447,1.447,0,0,0-.192-.762,1.98,1.98,0,0,0-.51-.558A3.94,3.94,0,0,0,67.14-3.9q-.42-.192-.888-.372a2.926,2.926,0,0,0-.87.846A2.011,2.011,0,0,0,65.04-2.28a1.5,1.5,0,0,0,.24.828,1.63,1.63,0,0,0,.666.582A2.1,2.1,0,0,0,66.888-.66Zm7.224.816a2.219,2.219,0,0,1-1.446-.5,3.2,3.2,0,0,1-.954-1.524,8.282,8.282,0,0,1-.336-2.556,8.107,8.107,0,0,1,.336-2.538,3.114,3.114,0,0,1,.954-1.494,2.253,2.253,0,0,1,1.446-.492,2.229,2.229,0,0,1,1.452.5,3.176,3.176,0,0,1,.948,1.494,8.049,8.049,0,0,1,.336,2.532,8.282,8.282,0,0,1-.336,2.556,3.221,3.221,0,0,1-.948,1.524A2.212,2.212,0,0,1,74.112.156Zm0-.888a1.2,1.2,0,0,0,.882-.384,2.631,2.631,0,0,0,.588-1.206,8.728,8.728,0,0,0,.21-2.106,8.576,8.576,0,0,0-.21-2.094,2.576,2.576,0,0,0-.588-1.188,1.209,1.209,0,0,0-.882-.378,1.215,1.215,0,0,0-.876.378,2.539,2.539,0,0,0-.594,1.188,8.576,8.576,0,0,0-.21,2.094,8.728,8.728,0,0,0,.21,2.106,2.594,2.594,0,0,0,.594,1.206A1.206,1.206,0,0,0,74.112-.732Zm7.26.888a2.219,2.219,0,0,1-1.446-.5,3.2,3.2,0,0,1-.954-1.524,8.282,8.282,0,0,1-.336-2.556,8.107,8.107,0,0,1,.336-2.538,3.114,3.114,0,0,1,.954-1.494,2.253,2.253,0,0,1,1.446-.492,2.229,2.229,0,0,1,1.452.5,3.176,3.176,0,0,1,.948,1.494,8.049,8.049,0,0,1,.336,2.532,8.282,8.282,0,0,1-.336,2.556,3.221,3.221,0,0,1-.948,1.524A2.212,2.212,0,0,1,81.372.156Zm0-.888a1.2,1.2,0,0,0,.882-.384,2.631,2.631,0,0,0,.588-1.206,8.728,8.728,0,0,0,.21-2.106,8.576,8.576,0,0,0-.21-2.094,2.576,2.576,0,0,0-.588-1.188,1.209,1.209,0,0,0-.882-.378,1.215,1.215,0,0,0-.876.378A2.539,2.539,0,0,0,79.9-6.522a8.576,8.576,0,0,0-.21,2.094,8.728,8.728,0,0,0,.21,2.106A2.594,2.594,0,0,0,80.5-1.116,1.206,1.206,0,0,0,81.372-.732Zm5-8.532h9.408v.888h-8.5V.972h-.912Zm9,0h.912V-.24a1.49,1.49,0,0,1-.12.666.815.815,0,0,1-.432.366,2.9,2.9,0,0,1-.822.132q-.522.024-1.338.024A1.254,1.254,0,0,0,93.5.66q-.06-.168-.126-.33A2.063,2.063,0,0,0,93.24.048q.408.012.786.012h1.05a.366.366,0,0,0,.234-.078.307.307,0,0,0,.066-.222Zm-8.5,4.428h8.928v.888H86.88ZM90.816-8.82h.9v4.428h-.9Zm10.74,4.26a7.916,7.916,0,0,1-.294,2.19,7.588,7.588,0,0,1-.834,1.9,9.467,9.467,0,0,1-1.26,1.62L98.448.78A9.155,9.155,0,0,0,99.636-.768a7.183,7.183,0,0,0,.774-1.776,7.328,7.328,0,0,0,.27-2.016,7.309,7.309,0,0,0-.27-2.022,7.315,7.315,0,0,0-.774-1.776A8.659,8.659,0,0,0,98.448-9.9l.72-.372a8.981,8.981,0,0,1,1.26,1.614,7.717,7.717,0,0,1,.834,1.9A7.9,7.9,0,0,1,101.556-4.56Z" transform="translate(497 3517.231)" fill="#fff"/><rect width="70" height="70" rx="35" transform="translate(407 3453.231)" fill="#4c5e74"/><path d="M13.385-.39A5.145,5.145,0,0,0,12.852.663a1.322,1.322,0,0,1-.144.321.214.214,0,0,1-.178.068q-.041,0-.267-.027A14.527,14.527,0,0,1,7.048-.67,17.421,17.421,0,0,1,1.935.978,1.5,1.5,0,0,1,1.641,1Q1.477,1,1.333.643A4.091,4.091,0,0,0,.772-.349,17.175,17.175,0,0,0,5.783-1.627,9.217,9.217,0,0,1,3.91-4.061l-.9.014a.216.216,0,0,1-.137-.027A.235.235,0,0,1,2.857-4.2V-5.223q0-.109.027-.13a.255.255,0,0,1,.13-.021l1.9.027H9.44a1.318,1.318,0,0,0,.376-.041.66.66,0,0,1,.178-.055q.171,0,.663.492.4.383.4.581,0,.123-.171.226a1.886,1.886,0,0,0-.458.472A10.313,10.313,0,0,1,8.374-1.538,16.518,16.518,0,0,0,13.385-.39ZM8.976-4.074H5.421A6.431,6.431,0,0,0,7.062-2.311,7.255,7.255,0,0,0,8.976-4.074ZM4.218-9.235a11.025,11.025,0,0,1,.759,1.524H6.528A8.618,8.618,0,0,0,6.05-9.017a.22.22,0,0,1-.027-.1q0-.082.171-.137l.854-.267a.663.663,0,0,1,.144-.027q.075,0,.137.109a8.344,8.344,0,0,1,.588,1.723h.937A12.277,12.277,0,0,0,9.666-9.14a3.541,3.541,0,0,0,.205-.684q.636.185,1.217.417.212.082.212.212,0,.082-.15.239a1.837,1.837,0,0,0-.308.431q-.28.533-.451.813h.6l1.832-.027q.116,0,.137.027a.235.235,0,0,1,.021.123l-.027.7v.813l.027,1.306a.205.205,0,0,1-.024.126.222.222,0,0,1-.133.024H11.7q-.116,0-.137-.027a.235.235,0,0,1-.021-.123V-6.392H2.468v1.627q0,.109-.027.13a.255.255,0,0,1-.13.021H1.2q-.116,0-.137-.027a.235.235,0,0,1-.021-.123l.027-1.319v-.7l-.027-.8q0-.109.027-.13a.255.255,0,0,1,.13-.021l1.832.027h.506A7.264,7.264,0,0,0,3-8.777a.234.234,0,0,1-.055-.109q0-.055.164-.109l.813-.328a.425.425,0,0,1,.144-.034Q4.149-9.358,4.218-9.235Zm6.747-2.5a6.685,6.685,0,0,1,1,.95.5.5,0,0,1,.157.294q0,.144-.226.144a4.416,4.416,0,0,0-.67.055q-2.454.349-4.143.5-2.379.226-4.806.314H2.167a.221.221,0,0,1-.205-.089A2.659,2.659,0,0,1,1.839-9.9,4.472,4.472,0,0,0,1.4-10.78q2.536-.021,5.25-.253,1.9-.171,3.138-.39A11.014,11.014,0,0,0,10.965-11.73ZM24.862-.212a.567.567,0,0,0,.39-.1.4.4,0,0,0,.075-.28V-1.23H21.164V-.6L21.191.95q0,.144-.15.144h-.984q-.15,0-.15-.144l.027-1.511v-.656L19.3-1.2q-.109,0-.137-.034a.276.276,0,0,1-.021-.137V-2.14a.222.222,0,0,1,.024-.133A.222.222,0,0,1,19.3-2.3l.2.007q.205.014.431.021V-3.89l-.027-1.531q0-.109.027-.13a.235.235,0,0,1,.123-.021l1.736.027h.745V-6.2H21.253l-1.894.027q-.109,0-.13-.034a.276.276,0,0,1-.021-.137v-.731q0-.109.027-.13a.235.235,0,0,1,.123-.021l1.894.027v-.7q-.52.007-.923.021l-.287.007q-.109,0-.13-.027a.235.235,0,0,1-.021-.123v-.663q0-.137.15-.137l1.21.027v-.69q-.684.007-1.2.021l-.267.007h-.089q-.109,0-.13-.027a.3.3,0,0,1-.021-.137v-.677q0-.109.027-.13a.235.235,0,0,1,.123-.021l1.559.027v-.226a4.3,4.3,0,0,0-.089-1.046q.861.048,1.271.1.212.021.212.109a.535.535,0,0,1-.068.226,1.644,1.644,0,0,0-.082.656v.185h1.388v-.226a4.3,4.3,0,0,0-.089-1.046q.868.048,1.278.1.212.021.212.109a.631.631,0,0,1-.082.253,1.575,1.575,0,0,0-.075.629v.185l1.818-.027q.116,0,.137.027a.235.235,0,0,1,.021.123v.677a.232.232,0,0,1-.027.144.255.255,0,0,1-.13.021l-1.818-.027v.69l1.47-.027q.157,0,.157.137v.663q0,.109-.034.13a.214.214,0,0,1-.123.021l-.2-.007q-.581-.014-1.271-.021v.7h.212l1.9-.027q.144,0,.144.15v.731a.26.26,0,0,1-.024.144q-.024.027-.12.027l-1.9-.027H23.755v.656h.923l1.75-.027q.116,0,.137.027a.235.235,0,0,1,.021.123l-.027,1.654v1.5q.314-.007.588-.021l.2-.007q.109,0,.13.027a.255.255,0,0,1,.021.13v.766a.26.26,0,0,1-.024.144q-.024.027-.126.027l-.772-.014q.027.636.027.841A1.438,1.438,0,0,1,26.277.7,1.043,1.043,0,0,1,25.7.937a8.665,8.665,0,0,1-1.08.055q-.328,0-.39-.068A1.018,1.018,0,0,1,24.1.561,2.939,2.939,0,0,0,23.8-.253Q24.377-.212,24.862-.212ZM23.741-2.27h1.586v-.738H23.741ZM25.327-4.58H23.741v.731h1.586ZM21.164-2.27h1.388v-.738H21.164Zm0-1.579h1.388V-4.58H21.164ZM22.5-7.2h1.388v-.7H22.5Zm0-1.593h1.388v-.69H22.5ZM18.854.711q0,.116-.027.137A.235.235,0,0,1,18.7.868h-.95q-.116,0-.137-.027A.255.255,0,0,1,17.6.711V.321h-1.23V.964a.216.216,0,0,1-.027.137.255.255,0,0,1-.13.021h-.937a.232.232,0,0,1-.144-.027.255.255,0,0,1-.021-.13l.027-2.1v-.9l-.027-1.312q0-.116.034-.137a.255.255,0,0,1,.13-.021l1.278.027h.861L18.7-3.5q.109,0,.13.027a.255.255,0,0,1,.021.13L18.826-2.27V-1.3ZM17.6-2.311h-1.23v1.47H17.6ZM16.27-9.256h1.285l1.483-.027a.216.216,0,0,1,.137.027.255.255,0,0,1,.021.13v.991q0,.123-.034.15a.214.214,0,0,1-.123.021l-1.483-.027H16.27l-1.483.027q-.116,0-.137-.034a.276.276,0,0,1-.021-.137v-.991q0-.116.027-.137a.255.255,0,0,1,.13-.021Zm.28-1.914h.937l1.258-.027q.123,0,.144.027a.186.186,0,0,1,.027.123v.923q0,.116-.034.137a.276.276,0,0,1-.137.021l-1.258-.027H16.55l-1.278.027q-.109,0-.13-.027a.255.255,0,0,1-.021-.13v-.923q0-.109.027-.13a.235.235,0,0,1,.123-.021Zm.055,3.9h.752l1.176-.027a.249.249,0,0,1,.15.027.255.255,0,0,1,.021.13v.909q0,.109-.034.13a.276.276,0,0,1-.137.021L17.356-6.1H16.6l-1.189.027a.216.216,0,0,1-.137-.027.235.235,0,0,1-.021-.123v-.909q0-.116.027-.137a.255.255,0,0,1,.13-.021Zm0,1.894h.752l1.176-.034a.249.249,0,0,1,.15.027.255.255,0,0,1,.021.13v.9q0,.116-.034.137a.276.276,0,0,1-.137.021l-1.176-.027H16.6L15.415-4.2a.216.216,0,0,1-.137-.027.255.255,0,0,1-.021-.13v-.9a.216.216,0,0,1,.027-.137.255.255,0,0,1,.13-.021ZM31.049-11.73q.759.021,1.422.1.226.021.226.144a.824.824,0,0,1-.089.294,5.281,5.281,0,0,0-.1,1.408v2.632h.109l1.511-.027q.116,0,.137.027a.255.255,0,0,1,.021.13v.991q0,.144-.157.144L32.71-5.92A13.309,13.309,0,0,0,34.6-3.5a4.223,4.223,0,0,0-.561.923q-.123.253-.2.253t-.219-.212a11.723,11.723,0,0,1-1.135-2L32.58.95q0,.109-.034.137a.255.255,0,0,1-.13.021H31.261q-.109,0-.13-.027A.255.255,0,0,1,31.11.95q0-.055.021-.841.055-2.427.075-4.293A13.29,13.29,0,0,1,29.511-1q-.178.226-.253.226t-.164-.239a3.051,3.051,0,0,0-.506-1.019,12.072,12.072,0,0,0,2.256-3.89h-.253l-1.524.027q-.157,0-.157-.144v-.991q0-.116.027-.137a.255.255,0,0,1,.13-.021l1.524.027h.574v-2.6A14.633,14.633,0,0,0,31.049-11.73ZM36.36-3.486,38.5-3.9V-9.509a15.443,15.443,0,0,0-.116-2.126q.82.021,1.49.1.212.027.212.157A1.176,1.176,0,0,1,40-11.1a7.317,7.317,0,0,0-.082,1.552v5.366q.52-.109.923-.212.068-.014.232-.062l.1-.021a.377.377,0,0,1,.075-.014q.055,0,.082.15l.164,1.094q.007.055.007.068,0,.075-.144.1-.041.014-.444.089-.485.089-1,.191V-1.5l.027,2.42a.216.216,0,0,1-.027.137.255.255,0,0,1-.13.021H38.623q-.109,0-.13-.034a.214.214,0,0,1-.021-.123L38.5-1.483V-2.522l-1.921.383q-.786.15-1.36.273-.123.021-.321.062l-.123.027a.468.468,0,0,1-.089.014q-.082,0-.1-.123l-.178-1.107a.576.576,0,0,1-.014-.1q0-.062.137-.089.034-.007.267-.041Q35.479-3.315,36.36-3.486Zm-.677-4a9.358,9.358,0,0,1,1.935,1.791.269.269,0,0,1,.068.13q0,.048-.109.164l-.69.684q-.116.109-.164.109t-.116-.082a11.492,11.492,0,0,0-1.846-1.9.535.535,0,0,1-.1-.116q0-.041.109-.15l.643-.615q.1-.1.13-.1T35.684-7.485Zm.376-3.24a9.543,9.543,0,0,1,1.976,1.784.173.173,0,0,1,.062.116q0,.055-.1.15l-.67.656q-.13.123-.171.123t-.1-.082A9.6,9.6,0,0,0,35.15-9.816q-.075-.048-.075-.1a.237.237,0,0,1,.1-.157l.615-.588q.123-.109.157-.109A.214.214,0,0,1,36.06-10.726ZM32.771-8.135a12.394,12.394,0,0,0,.643-2.112,4.692,4.692,0,0,0,.089-.6q.834.28,1.06.39.157.082.157.171a.141.141,0,0,1-.082.137.552.552,0,0,0-.171.314,17.758,17.758,0,0,1-.643,1.777q-.123.294-.212.294a.764.764,0,0,1-.28-.13A3.912,3.912,0,0,0,32.771-8.135Zm-2.7-2.488a11.573,11.573,0,0,1,.752,2.352.293.293,0,0,1,.014.075q0,.1-.191.178l-.6.226a.66.66,0,0,1-.171.048q-.062,0-.082-.137a10.792,10.792,0,0,0-.711-2.338.315.315,0,0,1-.027-.109q0-.075.178-.144l.588-.239a.414.414,0,0,1,.137-.041Q30.01-10.753,30.071-10.623Z" transform="translate(421 3493.231)" fill="#fff"/><g transform="translate(-154 -67.168)"><g transform="translate(883 3529.399)"><g transform="translate(20)"><path d="M13.08.48c6.4,0,10.44-3.96,10.44-9.44v-.08c0-5.4-3.92-7.52-7.96-8.16l7.52-7.28v-4.64H3.48v5.28H15.16L8-16.56l1,3.88h2.6c3.64,0,5.88,1.4,5.88,3.88v.08c0,2.24-1.8,3.72-4.32,3.72-3,0-5.12-1.28-7.12-3.56l-4.24,4A13.99,13.99,0,0,0,13.08.48Z" transform="translate(2 36.142)" fill="#fff"/><path d="M1-13.277H16.014v1.989H1ZM6.443-8.5h6.8v1.972h-6.8Zm6.052,0h2.142l-.009.161q-.009.162-.009.383A3,3,0,0,1,14.6-7.6q-.1,1.972-.212,3.375t-.247,2.346a8.986,8.986,0,0,1-.323,1.5,2.464,2.464,0,0,1-.442.85,2.056,2.056,0,0,1-.807.612,4.082,4.082,0,0,1-1.012.238q-.51.051-1.318.051T8.585,1.343A3.955,3.955,0,0,0,8.347.331a4.4,4.4,0,0,0-.493-.994q.884.068,1.683.085t1.173.017A2.108,2.108,0,0,0,11.169-.6a.76.76,0,0,0,.34-.179,2.057,2.057,0,0,0,.45-1.063,19.591,19.591,0,0,0,.306-2.38q.128-1.555.229-3.935ZM4.981-11.577H7.14q-.051,1.445-.161,2.924a23.733,23.733,0,0,1-.4,2.915,14.116,14.116,0,0,1-.85,2.754A9.959,9.959,0,0,1,4.216-.519,9.175,9.175,0,0,1,1.8,1.5,4.583,4.583,0,0,0,1.156.621,6.047,6.047,0,0,0,.323-.153,8.381,8.381,0,0,0,2.525-1.9,8.071,8.071,0,0,0,3.876-4.046,10.953,10.953,0,0,0,4.59-6.469a21.419,21.419,0,0,0,.289-2.559Q4.947-10.319,4.981-11.577ZM19.21-13.362H32.538v2.023H21.25V1.513H19.21Zm12.359,0h2.057v12.5a3.282,3.282,0,0,1-.2,1.284,1.442,1.442,0,0,1-.731.723,3.66,3.66,0,0,1-1.318.314q-.791.059-1.93.059a5.211,5.211,0,0,0-.17-.663Q29.155.476,29,.111A6.163,6.163,0,0,0,28.7-.527q.493.034.994.042t.892.009h.544a.56.56,0,0,0,.34-.111.411.411,0,0,0,.1-.314ZM20.315-7.038H32.572v2.006H20.315Zm4.964-5.219h2.04v6.222h-2.04Z" transform="translate(29.5 35.142)" fill="#fff"/></g><path d="M8.34-4.56a7.9,7.9,0,0,1,.294-2.2,7.717,7.717,0,0,1,.834-1.9,8.981,8.981,0,0,1,1.26-1.614l.72.372A8.659,8.659,0,0,0,10.26-8.358a7.316,7.316,0,0,0-.774,1.776,7.309,7.309,0,0,0-.27,2.022,7.328,7.328,0,0,0,.27,2.016A7.183,7.183,0,0,0,10.26-.768,9.155,9.155,0,0,0,11.448.78l-.72.372a9.467,9.467,0,0,1-1.26-1.62,7.588,7.588,0,0,1-.834-1.9A7.916,7.916,0,0,1,8.34-4.56Zm9.768-5.184.756-.324a10.442,10.442,0,0,1,.642,1.05,6.148,6.148,0,0,1,.438.978l-.792.372a6.062,6.062,0,0,0-.414-1.008A8.448,8.448,0,0,0,18.108-9.744Zm4.464-.348.9.336q-.288.528-.618,1.092t-.618.972l-.756-.3q.192-.288.4-.654t.39-.744A7.52,7.52,0,0,0,22.572-10.092ZM19.224-3.936h.9a11.435,11.435,0,0,1-.24,1.524A6.1,6.1,0,0,1,19.4-1.044,4.192,4.192,0,0,1,18.552.1a4.562,4.562,0,0,1-1.344.87,2.528,2.528,0,0,0-.246-.36,2.218,2.218,0,0,0-.306-.324,4.042,4.042,0,0,0,1.212-.75,3.482,3.482,0,0,0,.744-.99,5.045,5.045,0,0,0,.414-1.182A10.4,10.4,0,0,0,19.224-3.936Zm1.9-.108H22V-.36a.575.575,0,0,0,.048.294q.048.066.24.066h.8a.22.22,0,0,0,.2-.1,1.083,1.083,0,0,0,.1-.426q.03-.324.042-.972a1.014,1.014,0,0,0,.222.138,2.816,2.816,0,0,0,.294.12l.264.09A6.837,6.837,0,0,1,24.066.054a1.054,1.054,0,0,1-.312.594.887.887,0,0,1-.57.168H22.152a1.518,1.518,0,0,1-.636-.108A.585.585,0,0,1,21.2.342a2.346,2.346,0,0,1-.084-.7ZM18.84-6.852v2.34h3.792v-2.34Zm-.864-.8H23.52V-3.72H17.976ZM15.144-9.084h.888V.936h-.888ZM13.188-6.7h4.344v.84H13.188Zm2,.324.564.24q-.18.636-.444,1.314t-.57,1.344a14,14,0,0,1-.648,1.248,6.963,6.963,0,0,1-.69.99,3.4,3.4,0,0,0-.21-.42q-.138-.24-.258-.408a6.094,6.094,0,0,0,.66-.864q.324-.5.63-1.092t.558-1.194A10.379,10.379,0,0,0,15.192-6.372Zm1.74-3.54.624.7a12.346,12.346,0,0,1-1.26.408q-.708.192-1.458.33t-1.458.234a1.561,1.561,0,0,0-.108-.342q-.084-.2-.156-.342.672-.12,1.386-.264t1.35-.33A7.989,7.989,0,0,0,16.932-9.912ZM15.984-5.16q.12.108.354.342t.51.5q.276.27.5.51t.318.348l-.54.708q-.108-.18-.306-.456t-.438-.588q-.24-.312-.456-.576t-.36-.42ZM30.06-9.468h2.52v.852H30.06Zm1.968,0h.984a24.429,24.429,0,0,0,.36,2.586,11.2,11.2,0,0,0,.666,2.22A6.809,6.809,0,0,0,35.106-2.9,5.069,5.069,0,0,0,36.648-1.68a1.332,1.332,0,0,0-.24.18q-.132.12-.258.252t-.21.24a5.694,5.694,0,0,1-1.566-1.326,7.366,7.366,0,0,1-1.086-1.824A12.023,12.023,0,0,1,32.6-6.414a24.691,24.691,0,0,1-.384-2.622h-.192Zm.048,2.316L33-7.008a11.944,11.944,0,0,1-1.278,3.54,7.635,7.635,0,0,1-2.2,2.46,1.8,1.8,0,0,0-.186-.21q-.126-.126-.27-.252t-.252-.21A6.2,6.2,0,0,0,30.93-3.912,10.717,10.717,0,0,0,32.076-7.152ZM28.344-5.34v4.248h-.876V-4.5h-1.68v-.84Zm0,3.852a2.6,2.6,0,0,0,1.2.984,5.1,5.1,0,0,0,1.812.36q.492.024,1.194.03T34.026-.12Q34.8-.132,35.52-.156t1.26-.06a1.4,1.4,0,0,0-.12.264q-.06.168-.108.342T36.48.7q-.492.024-1.164.036T33.924.75q-.72.006-1.4,0T31.356.732a6.048,6.048,0,0,1-2.01-.384,3.416,3.416,0,0,1-1.41-1.056q-.432.384-.888.774t-.948.8L25.632-.06q.432-.288.93-.666t.966-.762ZM25.92-9.252l.66-.54a8.774,8.774,0,0,1,.8.582q.408.33.75.666a5.636,5.636,0,0,1,.558.624l-.72.6a3.863,3.863,0,0,0-.522-.636q-.342-.348-.744-.69A9.7,9.7,0,0,0,25.92-9.252ZM40.956.156A3.939,3.939,0,0,1,39.75-.012a3.434,3.434,0,0,1-.918-.444,3.868,3.868,0,0,1-.684-.6l.564-.708a4.237,4.237,0,0,0,.906.7,2.463,2.463,0,0,0,1.266.306,2.08,2.08,0,0,0,.93-.2,1.512,1.512,0,0,0,.63-.564,1.612,1.612,0,0,0,.228-.87,1.654,1.654,0,0,0-.258-.924,1.671,1.671,0,0,0-.858-.618,4.8,4.8,0,0,0-1.62-.222v-.84a3.8,3.8,0,0,0,1.44-.222,1.562,1.562,0,0,0,.762-.606,1.605,1.605,0,0,0,.234-.852,1.336,1.336,0,0,0-.4-1.014,1.517,1.517,0,0,0-1.092-.378,2.117,2.117,0,0,0-.99.24,3.371,3.371,0,0,0-.834.612l-.588-.7a4.814,4.814,0,0,1,1.1-.75,3,3,0,0,1,1.35-.294,3.241,3.241,0,0,1,1.326.258,2.087,2.087,0,0,1,.912.75,2.083,2.083,0,0,1,.33,1.188,2.034,2.034,0,0,1-.432,1.332,2.539,2.539,0,0,1-1.128.78v.06a2.611,2.611,0,0,1,.936.42,2.26,2.26,0,0,1,.672.756,2.148,2.148,0,0,1,.252,1.056A2.33,2.33,0,0,1,43.4-1.008a2.5,2.5,0,0,1-1.02.864A3.307,3.307,0,0,1,40.956.156Zm7.26,0A3.939,3.939,0,0,1,47.01-.012a3.434,3.434,0,0,1-.918-.444,3.868,3.868,0,0,1-.684-.6l.564-.708a4.237,4.237,0,0,0,.906.7,2.463,2.463,0,0,0,1.266.306,2.08,2.08,0,0,0,.93-.2,1.512,1.512,0,0,0,.63-.564,1.612,1.612,0,0,0,.228-.87,1.654,1.654,0,0,0-.258-.924,1.671,1.671,0,0,0-.858-.618,4.8,4.8,0,0,0-1.62-.222v-.84a3.8,3.8,0,0,0,1.44-.222A1.562,1.562,0,0,0,49.4-5.82a1.605,1.605,0,0,0,.234-.852,1.336,1.336,0,0,0-.4-1.014,1.517,1.517,0,0,0-1.092-.378,2.117,2.117,0,0,0-.99.24,3.371,3.371,0,0,0-.834.612l-.588-.7a4.814,4.814,0,0,1,1.1-.75,3,3,0,0,1,1.35-.294,3.241,3.241,0,0,1,1.326.258,2.087,2.087,0,0,1,.912.75,2.083,2.083,0,0,1,.33,1.188,2.034,2.034,0,0,1-.432,1.332,2.539,2.539,0,0,1-1.128.78v.06a2.611,2.611,0,0,1,.936.42,2.26,2.26,0,0,1,.672.756,2.148,2.148,0,0,1,.252,1.056,2.33,2.33,0,0,1-.384,1.344,2.5,2.5,0,0,1-1.02.864A3.307,3.307,0,0,1,48.216.156Zm5,2.124-.264-.648a2.207,2.207,0,0,0,.888-.684,1.539,1.539,0,0,0,.312-.984l-.12-.984.54.8a.693.693,0,0,1-.258.186.8.8,0,0,1-.294.054.844.844,0,0,1-.564-.2.7.7,0,0,1-.24-.564.693.693,0,0,1,.246-.564.883.883,0,0,1,.582-.2.79.79,0,0,1,.678.342,1.587,1.587,0,0,1,.246.942A2.492,2.492,0,0,1,54.5,1.284,3.04,3.04,0,0,1,53.22,2.28ZM59.592.156a2.219,2.219,0,0,1-1.446-.5,3.2,3.2,0,0,1-.954-1.524,8.282,8.282,0,0,1-.336-2.556,8.107,8.107,0,0,1,.336-2.538,3.114,3.114,0,0,1,.954-1.494,2.253,2.253,0,0,1,1.446-.492,2.229,2.229,0,0,1,1.452.5,3.176,3.176,0,0,1,.948,1.494,8.049,8.049,0,0,1,.336,2.532,8.282,8.282,0,0,1-.336,2.556,3.221,3.221,0,0,1-.948,1.524A2.212,2.212,0,0,1,59.592.156Zm0-.888a1.2,1.2,0,0,0,.882-.384,2.631,2.631,0,0,0,.588-1.206,8.728,8.728,0,0,0,.21-2.106,8.576,8.576,0,0,0-.21-2.094,2.576,2.576,0,0,0-.588-1.188,1.209,1.209,0,0,0-.882-.378,1.215,1.215,0,0,0-.876.378,2.539,2.539,0,0,0-.594,1.188,8.576,8.576,0,0,0-.21,2.094,8.728,8.728,0,0,0,.21,2.106,2.594,2.594,0,0,0,.594,1.206A1.206,1.206,0,0,0,59.592-.732Zm7.26.888a2.219,2.219,0,0,1-1.446-.5,3.2,3.2,0,0,1-.954-1.524,8.282,8.282,0,0,1-.336-2.556,8.107,8.107,0,0,1,.336-2.538,3.114,3.114,0,0,1,.954-1.494,2.253,2.253,0,0,1,1.446-.492,2.229,2.229,0,0,1,1.452.5,3.176,3.176,0,0,1,.948,1.494,8.049,8.049,0,0,1,.336,2.532,8.282,8.282,0,0,1-.336,2.556A3.221,3.221,0,0,1,68.3-.348,2.212,2.212,0,0,1,66.852.156Zm0-.888a1.2,1.2,0,0,0,.882-.384,2.631,2.631,0,0,0,.588-1.206,8.728,8.728,0,0,0,.21-2.106,8.576,8.576,0,0,0-.21-2.094,2.576,2.576,0,0,0-.588-1.188,1.209,1.209,0,0,0-.882-.378,1.215,1.215,0,0,0-.876.378,2.539,2.539,0,0,0-.594,1.188,8.576,8.576,0,0,0-.21,2.094,8.728,8.728,0,0,0,.21,2.106,2.594,2.594,0,0,0,.594,1.206A1.206,1.206,0,0,0,66.852-.732Zm7.26.888a2.219,2.219,0,0,1-1.446-.5,3.2,3.2,0,0,1-.954-1.524,8.282,8.282,0,0,1-.336-2.556,8.107,8.107,0,0,1,.336-2.538,3.114,3.114,0,0,1,.954-1.494,2.253,2.253,0,0,1,1.446-.492,2.229,2.229,0,0,1,1.452.5,3.176,3.176,0,0,1,.948,1.494,8.049,8.049,0,0,1,.336,2.532,8.282,8.282,0,0,1-.336,2.556,3.221,3.221,0,0,1-.948,1.524A2.212,2.212,0,0,1,74.112.156Zm0-.888a1.2,1.2,0,0,0,.882-.384,2.631,2.631,0,0,0,.588-1.206,8.728,8.728,0,0,0,.21-2.106,8.576,8.576,0,0,0-.21-2.094,2.576,2.576,0,0,0-.588-1.188,1.209,1.209,0,0,0-.882-.378,1.215,1.215,0,0,0-.876.378,2.539,2.539,0,0,0-.594,1.188,8.576,8.576,0,0,0-.21,2.094,8.728,8.728,0,0,0,.21,2.106,2.594,2.594,0,0,0,.594,1.206A1.206,1.206,0,0,0,74.112-.732Zm5-8.532h9.408v.888h-8.5V.972h-.912Zm9,0h.912V-.24a1.49,1.49,0,0,1-.12.666.815.815,0,0,1-.432.366,2.9,2.9,0,0,1-.822.132q-.522.024-1.338.024A1.254,1.254,0,0,0,86.244.66q-.06-.168-.126-.33A2.063,2.063,0,0,0,85.98.048q.408.012.786.012h1.05a.366.366,0,0,0,.234-.078.307.307,0,0,0,.066-.222Zm-8.5,4.428h8.928v.888H79.62ZM83.556-8.82h.9v4.428h-.9ZM94.3-4.56A7.916,7.916,0,0,1,94-2.37a7.588,7.588,0,0,1-.834,1.9,9.467,9.467,0,0,1-1.26,1.62L91.188.78A9.155,9.155,0,0,0,92.376-.768a7.183,7.183,0,0,0,.774-1.776,7.328,7.328,0,0,0,.27-2.016,7.309,7.309,0,0,0-.27-2.022,7.315,7.315,0,0,0-.774-1.776A8.659,8.659,0,0,0,91.188-9.9l.72-.372a8.981,8.981,0,0,1,1.26,1.614A7.717,7.717,0,0,1,94-6.756,7.9,7.9,0,0,1,94.3-4.56Z" transform="translate(4 54.784)" fill="#fff"/></g><rect width="70" height="70" rx="35" transform="translate(818.5 3520.399)" fill="#4c5e74"/><path d="M.643-.431A9.633,9.633,0,0,0,4.874-4.409,11.263,11.263,0,0,0,6.269-9.488H4.532l-1.395.027a.249.249,0,0,1-.15-.027.235.235,0,0,1-.021-.123v-1.183q0-.109.034-.13a.276.276,0,0,1,.137-.021l1.395.027H6.323l1.4-.027q.185,0,.185.164-.014.191-.014.362a10.137,10.137,0,0,0,.1,1.2A11.047,11.047,0,0,0,13.439-.567a4.056,4.056,0,0,0-.827,1.06q-.164.321-.253.321a.9.9,0,0,1-.321-.185,12.113,12.113,0,0,1-4.8-6.938,11.568,11.568,0,0,1-2.092,4.2A11.478,11.478,0,0,1,2.085.656a1.71,1.71,0,0,1-.321.171q-.082,0-.294-.335A3.212,3.212,0,0,0,.643-.431ZM16.673-2.6l-1.75.027q-.109,0-.13-.027a.235.235,0,0,1-.021-.123v-1.08q0-.116.027-.137a.235.235,0,0,1,.123-.021l1.75.027h3.685q-.027-.786-.082-1.189l.813.082a9.076,9.076,0,0,0,1.271-1H19.339l-1.812.027q-.15,0-.15-.137v-.984q0-.109.027-.13a.235.235,0,0,1,.123-.021l1.812.027h3.794a1.153,1.153,0,0,0,.335-.027.773.773,0,0,1,.178-.055q.137,0,.608.444.39.41.39.6a.227.227,0,0,1-.171.226,3.751,3.751,0,0,0-.67.465,17.026,17.026,0,0,1-1.962,1.449v.226h3.5l1.75-.027a.216.216,0,0,1,.137.027.255.255,0,0,1,.021.13v1.08a.205.205,0,0,1-.024.126.222.222,0,0,1-.133.024L25.341-2.6h-3.5V-1.7l.027,1.217A1.316,1.316,0,0,1,21.424.67a1.953,1.953,0,0,1-.772.246,11.135,11.135,0,0,1-1.374.062.817.817,0,0,1-.4-.055A.905.905,0,0,1,18.73.574a4.051,4.051,0,0,0-.417-1.025q.834.082,1.5.082a.65.65,0,0,0,.438-.109.522.522,0,0,0,.109-.376V-2.6Zm.034-8.647.841-.308a.415.415,0,0,1,.15-.041q.075,0,.157.109a9.749,9.749,0,0,1,.937,1.456.385.385,0,0,1,.041.116q0,.048-.171.109l-.923.335h2.912a9.455,9.455,0,0,0-.8-1.75.233.233,0,0,1-.041-.1q0-.048.171-.109l.923-.28a.5.5,0,0,1,.13-.027q.082,0,.15.109a9.235,9.235,0,0,1,.772,1.627.4.4,0,0,1,.021.1q0,.055-.178.116l-.909.321h2.16a12.7,12.7,0,0,0,.684-1.415,4.67,4.67,0,0,0,.212-.738,6.861,6.861,0,0,1,1.381.417q.2.089.2.212a.265.265,0,0,1-.137.212.814.814,0,0,0-.267.321q-.294.547-.574.991h.362L26.756-9.5a.249.249,0,0,1,.15.027.235.235,0,0,1,.021.123l-.027.759v.643l.027,1.565q0,.123-.034.15a.276.276,0,0,1-.137.021h-1.1q-.116,0-.137-.034a.276.276,0,0,1-.021-.137V-8.23H16.536v1.846q0,.116-.027.137a.235.235,0,0,1-.123.021H15.278a.249.249,0,0,1-.15-.027.255.255,0,0,1-.021-.13l.027-1.579v-.52l-.027-.868q0-.109.034-.13a.276.276,0,0,1,.137-.021l1.846.027H17.5a7.211,7.211,0,0,0-.9-1.565.249.249,0,0,1-.048-.109Q16.557-11.2,16.707-11.252ZM30.953.588,29.162.615q-.123,0-.144-.027T28.991.479V-.588q0-.109.034-.13a.276.276,0,0,1,.137-.021l1.791.027h3.192V-3.767H31.473l-1.88.027a.232.232,0,0,1-.144-.027.235.235,0,0,1-.021-.123V-4.942q0-.109.027-.13a.3.3,0,0,1,.137-.021l1.88.027h2.673V-6.357H33.6l-1.723.021q-.15,0-.15-.144v-.827A17.665,17.665,0,0,1,29.579-6.2a1.057,1.057,0,0,1-.335.109q-.109,0-.28-.321a2.675,2.675,0,0,0-.67-.827,12.208,12.208,0,0,0,5.435-3.767,4.063,4.063,0,0,0,.554-.923,8.561,8.561,0,0,1,1.511.294q.253.075.253.226,0,.089-.137.2a.318.318,0,0,1-.082.055,11.613,11.613,0,0,0,5.906,3.65,3.233,3.233,0,0,0-.6,1q-.157.349-.267.349a1.465,1.465,0,0,1-.335-.1,15.958,15.958,0,0,1-2.242-1.066v.841q0,.144-.15.144L36.4-6.357h-.759v1.292h2.912l1.873-.027q.116,0,.137.027a.235.235,0,0,1,.021.123V-3.89q0,.157-.055.157l-.1-.007-1.873-.027H35.643V-.711h3.391l1.8-.027q.109,0,.13.027a.235.235,0,0,1,.021.123V.479q0,.137-.15.137l-1.8-.027Zm1.292-8.23q.26.014,1.354.014h2.8q1.087,0,1.354-.014a10.968,10.968,0,0,1-2.782-2.481A12.379,12.379,0,0,1,32.245-7.643Zm4.32,6.371a8.731,8.731,0,0,0,.909-1.586,3.646,3.646,0,0,0,.267-.738,6.1,6.1,0,0,1,1.176.444q.253.13.253.239T39-2.687a1.486,1.486,0,0,0-.321.444A10.2,10.2,0,0,1,37.939-1q-.144.185-.226.185a1.1,1.1,0,0,1-.321-.109A3.656,3.656,0,0,0,36.565-1.271Zm-4.491-2.16a10.9,10.9,0,0,1,1,1.853.315.315,0,0,1,.027.109q0,.062-.157.137L32.074-.9a.729.729,0,0,1-.185.055q-.048,0-.1-.116a8.291,8.291,0,0,0-.95-1.914.2.2,0,0,1-.055-.109q0-.048.164-.13l.8-.376a.523.523,0,0,1,.171-.055Q31.992-3.541,32.074-3.432Z" transform="translate(832.5 3560.399)" fill="#fff"/><g transform="translate(784 3542.399)"><circle cx="10" cy="10" r="10" fill="#fff"/><path d="M3.71-1.512H5.7V-4.158H8.372V-6.09H5.7V-8.736H3.71V-6.09H1.05v1.932H3.71Z" transform="translate(5 15.002)" fill="#011b39"/></g></g><path d="M5-5.9a.722.722,0,0,1-.53-.22.722.722,0,0,1-.22-.53.722.722,0,0,1,.22-.53A.722.722,0,0,1,5-7.4a.722.722,0,0,1,.53.22.722.722,0,0,1,.22.53.722.722,0,0,1-.22.53A.722.722,0,0,1,5-5.9ZM5-4.09l3.3-3.3.29.29L5.29-3.8,8.59-.5,8.3-.21,5-3.51,1.69-.2,1.4-.49,4.71-3.8,1.41-7.1l.29-.29ZM2.9-3.8a.722.722,0,0,1-.22.53.722.722,0,0,1-.53.22.722.722,0,0,1-.53-.22A.722.722,0,0,1,1.4-3.8a.722.722,0,0,1,.22-.53.722.722,0,0,1,.53-.22.722.722,0,0,1,.53.22A.722.722,0,0,1,2.9-3.8Zm4.2,0a.722.722,0,0,1,.22-.53.722.722,0,0,1,.53-.22.722.722,0,0,1,.53.22.722.722,0,0,1,.22.53.722.722,0,0,1-.22.53.722.722,0,0,1-.53.22.722.722,0,0,1-.53-.22A.722.722,0,0,1,7.1-3.8ZM5-1.7a.722.722,0,0,1,.53.22.722.722,0,0,1,.22.53.722.722,0,0,1-.22.53A.722.722,0,0,1,5-.2a.722.722,0,0,1-.53-.22.722.722,0,0,1-.22-.53.722.722,0,0,1,.22-.53A.722.722,0,0,1,5-1.7Z" transform="translate(583 3477.231)" fill="#fff"/></g></svg>