<svg xmlns="http://www.w3.org/2000/svg" viewBox="0 0 56.69 43.65"><defs><style>.cls-1{fill:#fff;}</style></defs><g id="レイヤー_2" data-name="レイヤー 2"><g id="イラスト_画像" data-name="イラスト&amp;画像"><g id="icon_tell"><path class="cls-1" d="M45,24.7c-4.35-4.34-5.38-7.51-5.44-11.1a3.19,3.19,0,0,0-6.38,0l0,3.26a.08.08,0,0,1-.08.08H23.63a.09.09,0,0,1-.08-.08V13.62a3.19,3.19,0,0,0-6.38,0c-.06,3.59-1.09,6.76-5.44,11.1C7.62,28.8,5.33,32.89,5.26,38c0,3.12,1.59,5.68,7.35,5.68H44.07c5.77,0,7.4-2.56,7.36-5.68C51.36,32.89,49.07,28.8,45,24.7ZM28.31,38.89a8.76,8.76,0,1,1,8.76-8.75A8.75,8.75,0,0,1,28.31,38.89Z"/><path class="cls-1" d="M56.6,16.77c-.35-4.38-2.44-8-6.39-11.07C46.57,2.87,37.88,0,28.34,0S10.12,2.87,6.47,5.7C2.53,8.77.44,12.39.08,16.77c-.23,2.91,0,3.9.62,4.71s1.81,1.4,3.87,1.4a14.19,14.19,0,0,0,3.52-.49c2.76-.69,4.69-1.89,5.29-3.3a2,2,0,0,0-.07-1.84c-.7-1.23-1.89-3.43-1.9-3.43-.52-1.14-.2-2,1.08-2.72C16,9,21.45,7.91,28.34,7.91S40.72,9,44.2,11.1c1.27.76,1.59,1.58,1.08,2.7,0,0-1.2,2.22-1.9,3.45a2,2,0,0,0-.07,1.84c.6,1.41,2.53,2.61,5.28,3.3,4.22,1.07,6.59.23,7.4-.91C56.57,20.67,56.84,19.68,56.6,16.77Z"/></g></g></g></svg>