<svg id="グループ_7325" data-name="グループ 7325" xmlns="http://www.w3.org/2000/svg" xmlns:xlink="http://www.w3.org/1999/xlink" width="19.587" height="18.88" viewBox="0 0 19.587 18.88">
  <defs>
    <clipPath id="clip-path">
      <rect id="長方形_4525" data-name="長方形 4525" width="19.587" height="18.88" fill="none"/>
    </clipPath>
  </defs>
  <g id="グループ_7324" data-name="グループ 7324" clip-path="url(#clip-path)">
    <path id="パス_13914" data-name="パス 13914" d="M9.116,30.083a9.283,9.283,0,1,1,3.732-17.855,1.082,1.082,0,1,1-.831,2,7.12,7.12,0,1,0,4.385,6.7,7.173,7.173,0,0,0-.094-1.3,1.082,1.082,0,0,1,2.136-.352,9.292,9.292,0,0,1-9.327,10.8" transform="translate(0 -11.205)" fill="#283042"/>
    <path id="パス_13915" data-name="パス 13915" d="M165.586,4.008,160.533,9.85l-2.822-3.629c-.61-.993-2.919.807-2.522,1.824l3.671,5.308c.977,1.467,2.349,1.156,3.153-.073,0,0,8.83-12.829,8.486-13.1-.849-.675-1.943.568-4.914,3.831" transform="translate(-150.923 0)" fill="#e84830"/>
  </g>
</svg>
