<svg xmlns="http://www.w3.org/2000/svg" width="109.86" height="15.04" viewBox="0 0 109.86 15.04">
  <path id="パス_13940" data-name="パス 13940" d="M-54.93,0h3.06V-4.44h2.54c3.24,0,5.86-1.72,5.86-5.08v-.04c0-2.96-2.1-5-5.56-5h-5.9Zm3.06-7.18v-4.6h2.58c1.66,0,2.72.8,2.72,2.28v.04c0,1.3-1,2.28-2.66,2.28Zm11,7.18h3.06V-4.74h2.66L-31.93,0h3.6l-3.64-5.26a4.488,4.488,0,0,0,3.18-4.5V-9.8a4.518,4.518,0,0,0-1.22-3.28,5.805,5.805,0,0,0-4.24-1.48h-6.62Zm3.06-7.46v-4.32h3.3c1.62,0,2.62.74,2.62,2.14v.04c0,1.28-.96,2.14-2.56,2.14ZM-18.63.24a7.525,7.525,0,0,0,7.74-7.52v-.04a7.446,7.446,0,0,0-7.7-7.48,7.525,7.525,0,0,0-7.74,7.52v.04A7.446,7.446,0,0,0-18.63.24Zm.04-2.82a4.544,4.544,0,0,1-4.52-4.7v-.04a4.477,4.477,0,0,1,4.48-4.66,4.544,4.544,0,0,1,4.52,4.7v.04A4.477,4.477,0,0,1-18.59-2.58ZM-.85.24a9.387,9.387,0,0,0,6.2-2.3V-8.34H-.95v2.66H2.37v2.22a5.326,5.326,0,0,1-3.12.92A4.473,4.473,0,0,1-5.27-7.28v-.04a4.5,4.5,0,0,1,4.3-4.66,5.5,5.5,0,0,1,3.86,1.5l1.94-2.34A8.016,8.016,0,0,0-.87-14.8,7.459,7.459,0,0,0-8.49-7.28v.04A7.269,7.269,0,0,0-.85.24ZM8.63,0h3.06V-4.74h2.66L17.57,0h3.6L17.53-5.26a4.488,4.488,0,0,0,3.18-4.5V-9.8a4.518,4.518,0,0,0-1.22-3.28,5.805,5.805,0,0,0-4.24-1.48H8.63Zm3.06-7.46v-4.32h3.3c1.62,0,2.62.74,2.62,2.14v.04c0,1.28-.96,2.14-2.56,2.14ZM22.57,0h3.14l1.36-3.32h6.3L34.73,0h3.22L31.69-14.66H28.85Zm5.6-6.04,2.06-4.94,2.04,4.94ZM40.43,0h3V-9.64l4.16,6.3h.08l4.2-6.36V0h3.06V-14.56h-3.3l-3.96,6.3-3.94-6.3h-3.3Z" transform="translate(54.93 14.8)" fill="#e84830"/>
</svg>
