<svg xmlns="http://www.w3.org/2000/svg" width="44.047" height="11.794" viewBox="0 0 44.047 11.794">
  <g transform="translate(-951.593 -333.033)">
    <path id="パス_13937" data-name="パス 13937" d="M-17.4.14C-15.218.14-13.678-.994-13.678-3v-.028c0-1.75-1.162-2.506-3.248-3.038-1.792-.462-2.24-.7-2.24-1.4V-7.49c0-.518.476-.952,1.372-.952A4.673,4.673,0,0,1-15.12-7.42l1.134-1.624a5.868,5.868,0,0,0-3.766-1.288c-2.072,0-3.556,1.218-3.556,3.038v.028c0,2,1.3,2.59,3.388,3.108,1.736.434,2.1.742,2.1,1.344v.028c0,.63-.588,1.036-1.54,1.036a4.69,4.69,0,0,1-3.08-1.26l-1.274,1.526A6.419,6.419,0,0,0-17.4.14Zm9.674.028A3.9,3.9,0,0,0-4.55-1.26L-5.8-2.506a2.548,2.548,0,0,1-1.834.854A2.067,2.067,0,0,1-9.674-3.878v-.028A2.049,2.049,0,0,1-7.714-6.09a2.332,2.332,0,0,1,1.806.882l1.316-1.4A3.854,3.854,0,0,0-7.7-7.924a3.993,3.993,0,0,0-4.074,4.046v.028A3.963,3.963,0,0,0-7.728.168ZM-2.548,0H-.42V-2.9C-.42-4.788.518-5.7,2-5.7h.112V-7.924A2.479,2.479,0,0,0-.42-6.174v-1.61H-2.548ZM7.644.168a4.07,4.07,0,0,0,4.214-4.046v-.028A4.037,4.037,0,0,0,7.686-7.924,4.079,4.079,0,0,0,3.472-3.878v.028A4.028,4.028,0,0,0,7.644.168Zm.042-1.82A2.138,2.138,0,0,1,5.572-3.878v-.028A2.052,2.052,0,0,1,7.644-6.09,2.126,2.126,0,0,1,9.758-3.878v.028A2.063,2.063,0,0,1,7.686-1.652ZM14.14,0h2.114V-10.626H14.14Zm4.886,0H21.14V-10.626H19.026Z" transform="translate(974 344.159)" fill="#333"/>
    <path id="パス_13937_-_アウトライン" data-name="パス 13937 - アウトライン" d="M7.644.668A4.732,4.732,0,0,1,4.311-.643,4.436,4.436,0,0,1,2.972-3.85v-.028A4.583,4.583,0,0,1,7.686-8.424a4.548,4.548,0,0,1,4.672,4.518v.028a4.458,4.458,0,0,1-1.35,3.221A4.777,4.777,0,0,1,7.644.668Zm.042-8.092A3.778,3.778,0,0,0,5.02-6.378a3.465,3.465,0,0,0-1.048,2.5v.028A3.518,3.518,0,0,0,7.644-.332,3.783,3.783,0,0,0,10.31-1.373a3.466,3.466,0,0,0,1.048-2.5v-.028A3.443,3.443,0,0,0,10.32-6.392,3.734,3.734,0,0,0,7.686-7.424ZM-7.728.668A4.534,4.534,0,0,1-10.983-.654a4.5,4.5,0,0,1-1.291-3.2v-.028a4.538,4.538,0,0,1,1.288-3.2A4.553,4.553,0,0,1-7.7-8.424,4.36,4.36,0,0,1-4.22-6.942l.306.342L-5.907-4.479l-.364-.385A1.837,1.837,0,0,0-7.714-5.59a1.549,1.549,0,0,0-1.46,1.684v.028A1.571,1.571,0,0,0-7.63-2.152a2.053,2.053,0,0,0,1.49-.717l.353-.335,1.926,1.926-.317.353A4.382,4.382,0,0,1-7.728.668ZM-7.7-7.424A3.561,3.561,0,0,0-10.273-6.38a3.544,3.544,0,0,0-1,2.5v.028A3.455,3.455,0,0,0-7.728-.332a3.361,3.361,0,0,0,2.476-.923l-.567-.567a2.816,2.816,0,0,1-1.811.67,2.553,2.553,0,0,1-2.544-2.726v-.028A2.552,2.552,0,0,1-7.714-6.59a2.648,2.648,0,0,1,1.787.672l.639-.679A3.423,3.423,0,0,0-7.7-7.424ZM-17.4.64a6.938,6.938,0,0,1-4.646-1.752l-.359-.322,1.9-2.28.384.32A4.167,4.167,0,0,0-17.36-2.25c.174,0,1.04-.026,1.04-.536v-.028c0-.2,0-.429-1.721-.859-1.985-.493-3.767-1.139-3.767-3.593v-.028c0-2.083,1.668-3.538,4.056-3.538a6.378,6.378,0,0,1,4.078,1.4l.367.293L-15-6.718l-.412-.3a4.2,4.2,0,0,0-2.382-.928c-.522,0-.872.182-.872.452v.028c0,.271,0,.435,1.865.916a6.259,6.259,0,0,1,2.608,1.167,2.923,2.923,0,0,1,1.016,2.355V-3C-13.178-.787-14.836.64-17.4.64Zm-3.606-2.19A5.97,5.97,0,0,0-17.4-.36a3.715,3.715,0,0,0,2.366-.706A2.358,2.358,0,0,0-14.178-3v-.028c0-1.345-.751-2.013-2.872-2.554-1.671-.431-2.616-.731-2.616-1.884V-7.49c0-.7.586-1.452,1.872-1.452a4.824,4.824,0,0,1,2.545.833l.573-.82a5.43,5.43,0,0,0-3.076-.9c-1.828,0-3.056,1.02-3.056,2.538v.028c0,1.6.928,2.106,3.008,2.623,1.68.42,2.48.8,2.48,1.829v.028a1.38,1.38,0,0,1-.633,1.168,2.507,2.507,0,0,1-1.407.368,4.926,4.926,0,0,1-3.007-1.067ZM21.64.5H18.526V-11.126H21.64Zm-2.114-1H20.64v-9.626H19.526ZM16.754.5H13.64V-11.126h3.114ZM14.64-.5h1.114v-9.626H14.64ZM.08.5H-3.048V-8.284H.08v.524a2.841,2.841,0,0,1,2.055-.663l.479.02V-5.2H2C.727-5.2.08-4.424.08-2.9Zm-2.128-1H-.92V-2.9A3.53,3.53,0,0,1-.136-5.342a2.665,2.665,0,0,1,1.75-.836V-7.4A2.023,2.023,0,0,0,.04-5.979l-.96-.195v-1.11H-2.048Zm9.734-.652A2.643,2.643,0,0,1,5.072-3.878v-.028A2.543,2.543,0,0,1,7.644-6.59a2.542,2.542,0,0,1,1.9.822,2.78,2.78,0,0,1,.716,1.89v.028a2.807,2.807,0,0,1-.68,1.878A2.491,2.491,0,0,1,7.686-1.152ZM7.644-5.59A1.567,1.567,0,0,0,6.072-3.906v.028A1.642,1.642,0,0,0,7.686-2.152a1.575,1.575,0,0,0,1.572-1.7v-.028A1.634,1.634,0,0,0,7.644-5.59Z" transform="translate(974 344.159)" fill="rgba(0,0,0,0)"/>
  </g>
</svg>
