<svg xmlns="http://www.w3.org/2000/svg" width="106.61" height="27.071" viewBox="0 0 106.61 27.071">
  <g id="img_flow_step3" transform="translate(-858.774 -12709.507)">
    <path id="パス_13937" data-name="パス 13937" d="M13.752.432C20.736.432,25.38-5.544,25.38-13.1v-.072c0-7.6-4.644-13.464-11.556-13.464C6.876-26.64,2.2-20.664,2.2-13.1v.072C2.2-5.436,6.768.432,13.752.432Zm.072-4.968c-3.6,0-5.94-3.708-5.94-8.568v-.072c0-4.86,2.3-8.5,5.868-8.5s5.94,3.744,5.94,8.568v.072C19.692-8.208,17.424-4.536,13.824-4.536ZM38.988.432c5.76,0,9.4-3.564,9.4-8.5v-.072c0-4.86-3.528-6.768-7.164-7.344l6.768-6.552v-4.176H30.348v4.752H40.86L34.416-14.9l.9,3.492h2.34c3.276,0,5.292,1.26,5.292,3.492v.072c0,2.016-1.62,3.348-3.888,3.348a8.064,8.064,0,0,1-6.408-3.2L28.836-4.1A12.591,12.591,0,0,0,38.988.432Z" transform="translate(917 12736.146)" fill="#333"/>
    <path id="パス_13936" data-name="パス 13936" d="M6.318.18c2.808,0,4.788-1.458,4.788-4.032v-.036c0-2.25-1.494-3.222-4.176-3.906-2.3-.594-2.88-.9-2.88-1.8V-9.63c0-.666.612-1.224,1.764-1.224A6.008,6.008,0,0,1,9.252-9.54l1.458-2.088a7.545,7.545,0,0,0-4.842-1.656C3.2-13.284,1.3-11.718,1.3-9.378v.036c0,2.574,1.674,3.33,4.356,4,2.232.558,2.7.954,2.7,1.728v.036c0,.81-.756,1.332-1.98,1.332a6.03,6.03,0,0,1-3.96-1.62L.774-1.908A8.253,8.253,0,0,0,6.318.18ZM16.614,0h2.772V-10.548H23.4V-13.1H12.582v2.556h4.032Zm9.18,0H35.73V-2.466h-7.2v-2.9h6.264V-7.83H28.53v-2.808h7.11V-13.1H25.794Zm12.69,0h2.754V-4h2.286C46.44-4,48.8-5.544,48.8-8.568V-8.6c0-2.664-1.89-4.5-5-4.5h-5.31Zm2.754-6.462V-10.6H43.56c1.494,0,2.448.72,2.448,2.052v.036a2.121,2.121,0,0,1-2.394,2.052Z" transform="translate(858 12731.146)" fill="#333"/>
  </g>
</svg>
