<svg xmlns="http://www.w3.org/2000/svg" width="38.758" height="43.764" viewBox="0 0 38.758 43.764">
  <g id="img_flow_step1_sp" transform="translate(-51.196 -14864.668)">
    <path id="パス_13982" data-name="パス 13982" d="M13.752.432C20.736.432,25.38-5.544,25.38-13.1v-.072c0-7.6-4.644-13.464-11.556-13.464C6.876-26.64,2.2-20.664,2.2-13.1v.072C2.2-5.436,6.768.432,13.752.432Zm.072-4.968c-3.6,0-5.94-3.708-5.94-8.568v-.072c0-4.86,2.3-8.5,5.868-8.5s5.94,3.744,5.94,8.568v.072C19.692-8.208,17.424-4.536,13.824-4.536ZM34.2,0h5.472V-26.388h-3.78L28.44-24.156l1.152,4.536L34.2-20.772Z" transform="translate(49 14908)" fill="#333"/>
    <path id="パス_13983" data-name="パス 13983" d="M4.914.14C7.1.14,8.638-.994,8.638-3v-.028c0-1.75-1.162-2.506-3.248-3.038-1.792-.462-2.24-.7-2.24-1.4V-7.49c0-.518.476-.952,1.372-.952A4.673,4.673,0,0,1,7.2-7.42L8.33-9.044a5.868,5.868,0,0,0-3.766-1.288c-2.072,0-3.556,1.218-3.556,3.038v.028c0,2,1.3,2.59,3.388,3.108,1.736.434,2.1.742,2.1,1.344v.028c0,.63-.588,1.036-1.54,1.036a4.69,4.69,0,0,1-3.08-1.26L.6-1.484A6.419,6.419,0,0,0,4.914.14ZM12.922,0h2.156V-8.2H18.2v-1.988H9.786V-8.2h3.136Zm7.14,0H27.79V-1.918h-5.6V-4.172h4.872V-6.09H22.19V-8.274h5.53v-1.918H20.062Zm9.87,0h2.142V-3.108h1.778c2.268,0,4.1-1.2,4.1-3.556v-.028c0-2.072-1.47-3.5-3.892-3.5h-4.13Zm2.142-5.026v-3.22H33.88c1.162,0,1.9.56,1.9,1.6v.028a1.649,1.649,0,0,1-1.862,1.6Z" transform="translate(52 14875)" fill="#333"/>
  </g>
</svg>
