<svg xmlns="http://www.w3.org/2000/svg" width="272.06" height="73.601" viewBox="0 0 272.06 73.601">
  <g id="グループ_7347" data-name="グループ 7347" transform="translate(-51.456 -13043.572)">
    <g id="グループ_7230" data-name="グループ 7230" transform="translate(-13 -12)">
      <g id="グループ_7228" data-name="グループ 7228" transform="translate(50 13040.893)">
        <path id="パス_13942" data-name="パス 13942" d="M12.852,0H23.188V-49.844h-7.14L1.972-45.628,4.148-37.06l8.7-2.176ZM40.8,0H51.136V-49.844H44L29.92-45.628,32.1-37.06l8.7-2.176ZM59.024,11.22c8.16-.2,12.648-3.876,12.648-12.92v-9.316H60.656V0h4.216c.34,3.944-1.972,6.392-6.732,6.936ZM83.844,0H94.18V-49.844H87.04L72.964-45.628,75.14-37.06l8.7-2.176Zm39.3.816c10.676,0,18.768-6.936,18.768-17v-.2c0-10.2-7.548-15.708-17.34-15.708a16,16,0,0,0-10.54,3.672h-.068c.34-4.76,2.584-12.444,10.4-12.444,4.216,0,6.936,1.5,10.2,4.08l5.508-8.092a22.637,22.637,0,0,0-15.368-5.44c-14.62,0-21.624,11.7-21.624,27v.136c0,9.86,2.244,15.1,5.848,18.768C112.4-1.02,116.824.816,123.148.816Zm-.408-8.908c-5.508,0-8.908-3.332-8.908-7.684v-.136c0-4.284,3.264-7.48,8.772-7.48,5.576,0,8.908,3.2,8.908,7.48v.2C131.512-11.356,128.316-8.092,122.74-8.092ZM149.668,0H161.5l22.168-41.616V-49.5H148.24v9.044h23.6Z" transform="translate(52.953 65)" fill="#e84830"/>
        <path id="パス_13943" data-name="パス 13943" d="M-10.656-9.936v-6.048h6v6.048Zm-8.5-6.048h5.664v6.048h-5.664Zm17.376-2.832H-22.032V2.064h2.88V-7.1h14.5V-1.3c0,.408-.168.552-.624.576-.48,0-2.04.024-3.408-.072A11.665,11.665,0,0,1-7.656,2.064c2.136,0,3.576-.048,4.536-.528C-2.112,1.08-1.776.288-1.776-1.272ZM10.92-8.088a7.262,7.262,0,0,0,5.664,2.64c2.568,0,4.92-1.44,6.528-4.416l-2.64-1.44c-.912,1.7-2.28,2.88-3.816,2.88a4.391,4.391,0,0,1-3.576-1.728,7.262,7.262,0,0,0-5.664-2.64c-2.568,0-4.92,1.44-6.528,4.416l2.64,1.44c.912-1.7,2.28-2.88,3.816-2.88A4.425,4.425,0,0,1,10.92-8.088Z" transform="translate(263.404 62.772)" fill="#e84830"/>
        <path id="パス_13944" data-name="パス 13944" d="M-13.37-3.8A6.59,6.59,0,0,0-11.4,1l.95-.42A6.213,6.213,0,0,1-12.24-3.8a6.213,6.213,0,0,1,1.79-4.38l-.95-.42A6.59,6.59,0,0,0-13.37-3.8Zm7.67.84c-.19-.22-1.01-1.09-1.28-1.31v-.29h1.07V-5.67H-6.98V-7.08a10.427,10.427,0,0,0,1.19-.38l-.79-.91a14.3,14.3,0,0,1-3.1.83,4.122,4.122,0,0,1,.33.91c.39-.05.8-.12,1.22-.2v1.16H-9.56v1.11h1.27A9.772,9.772,0,0,1-9.77-1.88,5.9,5.9,0,0,1-9.22-.75,8.887,8.887,0,0,0-8.13-2.73V.86h1.15v-3.9a8.762,8.762,0,0,1,.6,1.01Zm3.74-1.13H-4.43V-5.45h2.47Zm.21,3.76c-.13,0-.15-.03-.15-.33V-3.05H-.77V-6.48h-.92c.29-.42.65-1.02.98-1.6l-1.22-.39a10.745,10.745,0,0,1-.82,1.71l.78.28H-4.32l.64-.28a7.679,7.679,0,0,0-.91-1.7l-.98.43a9,9,0,0,1,.78,1.55h-.77v3.43h.8C-4.87-1.74-5.15-.67-6.64-.06a3.451,3.451,0,0,1,.69.94c1.8-.81,2.22-2.21,2.36-3.93h.55v2.4C-3.04.39-2.85.74-1.96.74h.66C-.58.74-.31.36-.21-1.07a3.087,3.087,0,0,1-1.01-.45C-1.24-.48-1.28-.33-1.43-.33ZM1.94-6.96H3.82v1.37H1.94ZM2.96-3.71c.02-.27.04-.55.06-.82H4.97V-8.01H.86v3.48h1C1.78-2.87,1.58-1.07.27.01a3.124,3.124,0,0,1,.79.87A5.673,5.673,0,0,0,2.82-2.67H3.93A6.112,6.112,0,0,1,3.62-.28a.36.36,0,0,1-.33.13A8.057,8.057,0,0,1,2.31-.2,2.439,2.439,0,0,1,2.61.83,7.379,7.379,0,0,0,3.82.8,1.046,1.046,0,0,0,4.57.43c.27-.34.38-1.3.48-3.71,0-.14.01-.43.01-.43ZM6.88-7.26H5.72v5.63H6.88ZM8.07-8.27v7.7c0,.18-.08.24-.27.24-.21,0-.85,0-1.5-.02A4.345,4.345,0,0,1,6.71.88,5.312,5.312,0,0,0,8.7.65c.41-.19.55-.52.55-1.22v-7.7Zm5.3,4.47A6.59,6.59,0,0,0,11.4-8.6l-.95.42A6.213,6.213,0,0,1,12.24-3.8,6.213,6.213,0,0,1,10.45.58L11.4,1A6.59,6.59,0,0,0,13.37-3.8Z" transform="translate(252.953 36.67)" fill="#e84830"/>
        <path id="パス_13945" data-name="パス 13945" d="M-13.2-6.213c.076-.8.114-1.6.133-2.318h7.619v2.318ZM-5.453-13v2.318h-7.619V-13Zm2.394-2.2h-12.35v6.251c0,2.888-.266,6.517-3.135,8.968A8.924,8.924,0,0,1-16.8,1.653a10.22,10.22,0,0,0,3.211-5.681h8.132v2.755c0,.4-.152.551-.608.551-.418,0-2.014.019-3.344-.057A9.7,9.7,0,0,1-8.455,1.6a11.494,11.494,0,0,0,4.2-.437c.874-.38,1.2-1.026,1.2-2.394Zm18.6,5.909H11.78V-10.45h3.762Zm0,2.717H11.78V-7.733h3.762Zm0,2.774H11.78V-4.978h3.762Zm-5.8-8.341V-2.128H17.67V-12.141H14.307c.152-.4.3-.836.456-1.292H18.05v-1.919H9.177v1.919h3.192c-.076.418-.152.874-.228,1.292ZM2.7-12.768H7.239v1.311H9.12v-3.059h-3.1v-1.539H3.914v1.539H.874v3.059H2.7ZM6.118-1.2h-2.3V-2.945h2.3Zm-2.261-3.5a13.814,13.814,0,0,0,1.6-1.235c.57.437,1.14.855,1.615,1.235Zm2.28-5.054A8.12,8.12,0,0,1,5.206-8.4L3.895-9.253c.133-.171.266-.323.4-.494Zm1.9,5.852.038.038L9.348-5.434a29.847,29.847,0,0,0-2.584-1.9,11.056,11.056,0,0,0,1.881-3.42l-1.273-.589-.342.1H5.263a7.5,7.5,0,0,0,.437-.874l-1.843-.456A9.137,9.137,0,0,1,.38-8.607,8.523,8.523,0,0,1,1.8-7.3a8.7,8.7,0,0,0,.817-.646l1.254.874a11.268,11.268,0,0,1-3.5,2A6.522,6.522,0,0,1,1.52-3.458l.4-.171V1.292h1.9V.532H8.037A13.4,13.4,0,0,1,9.082,1.615,13.511,13.511,0,0,0,13.129-.912l-1.824-1.14A10.768,10.768,0,0,1,8.037.038ZM13.965-.931a20.936,20.936,0,0,1,2.964,2.6L18.677.513A23.919,23.919,0,0,0,15.6-1.957Z" transform="translate(33 61.67)" fill="#e84830"/>
      </g>
    </g>
    <path id="パス_13946" data-name="パス 13946" d="M-54.33-4.56a7.973,7.973,0,0,0,2.388,5.712l.72-.372a7.509,7.509,0,0,1-2.232-5.34A7.509,7.509,0,0,1-51.222-9.9l-.72-.372A7.973,7.973,0,0,0-54.33-4.56ZM-49.614,0h4.824V-.912h-1.764v-7.9h-.84a5.3,5.3,0,0,1-1.824.636v.7h1.56V-.912h-1.956Zm6.132,0h5.532V-.948h-2.436c-.444,0-.984.048-1.44.084,2.064-1.956,3.444-3.744,3.444-5.5a2.413,2.413,0,0,0-2.556-2.6,3.364,3.364,0,0,0-2.592,1.3l.636.624a2.463,2.463,0,0,1,1.824-1.02,1.546,1.546,0,0,1,1.62,1.74c0,1.512-1.272,3.264-4.032,5.676Zm7.032,2.28A2.67,2.67,0,0,0-34.7-.228c0-.8-.348-1.3-.924-1.3a.78.78,0,0,0-.828.768.752.752,0,0,0,.8.768A.492.492,0,0,0-35.514,0a1.8,1.8,0,0,1-1.2,1.632ZM-33.486,0h5.532V-.948H-30.39c-.444,0-.984.048-1.44.084,2.064-1.956,3.444-3.744,3.444-5.5a2.413,2.413,0,0,0-2.556-2.6,3.364,3.364,0,0,0-2.592,1.3l.636.624a2.463,2.463,0,0,1,1.824-1.02,1.546,1.546,0,0,1,1.62,1.74c0,1.512-1.272,3.264-4.032,5.676Zm9.48.156c1.656,0,2.76-1,2.76-2.28a2.567,2.567,0,0,0-1.488-2.3v-.06a2.884,2.884,0,0,0,1.176-2.124A2.225,2.225,0,0,0-23.97-8.928,2.238,2.238,0,0,0-26.382-6.7a2.445,2.445,0,0,0,1.188,2.028v.06a2.817,2.817,0,0,0-1.62,2.424A2.523,2.523,0,0,0-24.006.156Zm.6-4.932c-1.032-.408-1.98-.864-1.98-1.92a1.355,1.355,0,0,1,1.4-1.428,1.458,1.458,0,0,1,1.488,1.572A2.36,2.36,0,0,1-23.406-4.776ZM-23.982-.66a1.687,1.687,0,0,1-1.836-1.62,2.391,2.391,0,0,1,1.2-1.992c1.248.5,2.328.948,2.328,2.124A1.524,1.524,0,0,1-23.982-.66Zm6.456.816a2.561,2.561,0,0,0,2.82-2.508,2.263,2.263,0,0,0-1.86-2.232v-.048a2.2,2.2,0,0,0,1.56-2.124,2.26,2.26,0,0,0-2.556-2.208,3.522,3.522,0,0,0-2.46,1.056l.588.7a2.568,2.568,0,0,1,1.824-.852,1.35,1.35,0,0,1,1.488,1.392c0,.948-.624,1.68-2.436,1.68v.84c2.028,0,2.736.708,2.736,1.752A1.622,1.622,0,0,1-17.61-.756a2.908,2.908,0,0,1-2.184-1.008l-.552.72A3.641,3.641,0,0,0-17.526.156Zm9.9-4.992V-8.352h3.648v3.516Zm-4.392-3.516H-8.5v3.516h-3.516Zm8.94-.864h-9.828V.924h.888V-3.948h8.04V-.276c0,.228-.084.3-.3.3S-5.286.048-6.1.012A3.837,3.837,0,0,1-5.766.9,7.556,7.556,0,0,0-3.63.744c.408-.156.552-.444.552-1.02ZM7.9-10.044a12.634,12.634,0,0,1-1.08,2.076l.744.3A20.366,20.366,0,0,0,8.8-9.732ZM5.3-8.016a8.883,8.883,0,0,0-1.068-2l-.744.312A9.184,9.184,0,0,1,4.518-7.644ZM3.042-3.468C2.8-3.744,1.782-4.8,1.41-5.112v-.732h1.5v-.84H1.41V-8.712a9.949,9.949,0,0,0,1.524-.48L2.31-9.864a17.573,17.573,0,0,1-3.792.96,3.359,3.359,0,0,1,.276.7c.552-.084,1.164-.18,1.752-.3v1.824H-1.41v.84H.426A12.392,12.392,0,0,1-1.638-2.088a4.128,4.128,0,0,1,.444.816A12.747,12.747,0,0,0,.546-4.416v5.3H1.41V-4.248A13.743,13.743,0,0,1,2.5-2.76ZM4.206-6.852H7.962v2.34H4.206ZM7.626-.036c-.264,0-.3-.048-.3-.348V-3.72H8.85V-7.632h-5.5V-3.72H4.578c-.192,1.7-.672,3.2-2.544,3.96a2.819,2.819,0,0,1,.54.684C4.65.012,5.238-1.7,5.454-3.72h1.02V-.384C6.474.5,6.666.768,7.494.768h1.02c.708,0,.936-.408,1.02-1.944a2.211,2.211,0,0,1-.78-.36c-.024,1.308-.084,1.5-.336,1.5Zm7.212-9.4v.84h2.184c.06.528.12,1.032.2,1.524l-.384-.06A7.832,7.832,0,0,1,13.6-1.692a5.233,5.233,0,0,1,.7.66,8.574,8.574,0,0,0,3.18-4.86,7.28,7.28,0,0,0,3.192,4.86,4.138,4.138,0,0,1,.708-.672c-2.4-1.236-3.336-4.068-3.624-7.728ZM13.47-7.9a9.131,9.131,0,0,0-2.088-1.848l-.66.54a8.279,8.279,0,0,1,2.04,1.9ZM13.134-5.34H10.59v.84h1.668v3.036A20.038,20.038,0,0,1,10.434-.1l.48.9C11.55.288,12.15-.228,12.726-.732a4.276,4.276,0,0,0,3.4,1.416C17.442.732,19.9.708,21.21.66A4.06,4.06,0,0,1,21.5-.252c-1.4.1-4.068.132-5.376.084a3.493,3.493,0,0,1-2.988-1.344Zm14.5,1.116a3.6,3.6,0,0,0,2.7,1.284,3.584,3.584,0,0,0,3.132-2.1L32.61-5.5a2.647,2.647,0,0,1-2.268,1.584A2.77,2.77,0,0,1,28.3-4.9,3.6,3.6,0,0,0,25.6-6.18a3.584,3.584,0,0,0-3.132,2.1l.852.456A2.647,2.647,0,0,1,25.59-5.208,2.751,2.751,0,0,1,27.63-4.224ZM34.1,2.148h.8L38.49-9.528H37.7Zm7.848-5.82a15.066,15.066,0,0,0,.132-2.016h5.484v2.016Zm5.616-4.86V-6.54H42.078V-8.532Zm.924-.876H41.178v3.672c0,1.908-.192,4.344-2.1,6.024a3.377,3.377,0,0,1,.66.648A6.769,6.769,0,0,0,41.8-2.8h5.76V-.4c0,.264-.1.348-.372.36s-1.236.012-2.232-.024a4.257,4.257,0,0,1,.372.924A9.649,9.649,0,0,0,47.862.7c.444-.144.624-.456.624-1.08ZM54.33-4.56a7.973,7.973,0,0,0-2.388-5.712l-.72.372a7.509,7.509,0,0,1,2.232,5.34A7.509,7.509,0,0,1,51.222.78l.72.372A7.973,7.973,0,0,0,54.33-4.56Z" transform="translate(261 13114.893)" fill="#333"/>
  </g>
</svg>
