<svg xmlns="http://www.w3.org/2000/svg" width="417.656" height="104.04" viewBox="0 0 417.656 104.04">
  <g id="グループ_7483" data-name="グループ 7483" transform="translate(-964.864 -12086.764)">
    <path id="パス_13937" data-name="パス 13937" d="M18.9,0H34.1V-73.3H23.6L2.9-67.1,6.1-54.5l12.8-3.2ZM60,0H75.2V-73.3H64.7L44-67.1l3.2,12.6L60-57.7ZM86.8,16.5c12-.3,18.6-5.7,18.6-19V-16.2H89.2V0h6.2c.5,5.8-2.9,9.4-9.9,10.2ZM123.3,0h15.2V-73.3H128l-20.7,6.2,3.2,12.6,12.8-3.2Zm57.8,1.2c15.7,0,27.6-10.2,27.6-25v-.3c0-15-11.1-23.1-25.5-23.1a23.528,23.528,0,0,0-15.5,5.4h-.1c.5-7,3.8-18.3,15.3-18.3,6.2,0,10.2,2.2,15,6L206-66c-6.4-5.1-12.8-8-22.6-8-21.5,0-31.8,17.2-31.8,39.7v.2c0,14.5,3.3,22.2,8.6,27.6C165.3-1.5,171.8,1.2,181.1,1.2Zm-.6-13.1c-8.1,0-13.1-4.9-13.1-11.3v-.2c0-6.3,4.8-11,12.9-11,8.2,0,13.1,4.7,13.1,11v.3C193.4-16.7,188.7-11.9,180.5-11.9ZM220.1,0h17.4l32.6-61.2V-72.8H218v13.3h34.7Z" transform="translate(1037 12160.764)" fill="#e84830"/>
    <path id="パス_13938" data-name="パス 13938" d="M-17.76-16.56V-26.64h10v10.08ZM-31.92-26.64h9.44v10.08h-9.44Zm28.96-4.72H-36.72V3.44h4.8V-11.84H-7.76v9.68c0,.68-.28.92-1.04.96-.8,0-3.4.04-5.68-.12a19.442,19.442,0,0,1,1.72,4.76c3.56,0,5.96-.08,7.56-.88C-3.52,1.8-2.96.48-2.96-2.12ZM18.2-13.48a12.1,12.1,0,0,0,9.44,4.4c4.28,0,8.2-2.4,10.88-7.36l-4.4-2.4c-1.52,2.84-3.8,4.8-6.36,4.8-2.76,0-4.24-1.04-5.96-2.88a12.1,12.1,0,0,0-9.44-4.4c-4.28,0-8.2,2.4-10.88,7.36l4.4,2.4c1.52-2.84,3.8-4.8,6.36-4.8C15.04-16.36,16.48-15.28,18.2-13.48Z" transform="translate(1344 12158.764)" fill="#e84830"/>
    <path id="パス_13939" data-name="パス 13939" d="M-18.718-5.32A9.226,9.226,0,0,0-15.96,1.4l1.33-.588A8.7,8.7,0,0,1-17.136-5.32a8.7,8.7,0,0,1,2.506-6.132l-1.33-.588A9.226,9.226,0,0,0-18.718-5.32ZM-7.98-4.144c-.266-.308-1.414-1.526-1.792-1.834v-.406h1.5V-7.938h-1.5V-9.912a14.6,14.6,0,0,0,1.666-.532l-1.106-1.274a20.013,20.013,0,0,1-4.34,1.162,5.771,5.771,0,0,1,.462,1.274c.546-.07,1.12-.168,1.708-.28v1.624h-2v1.554h1.778a13.681,13.681,0,0,1-2.072,3.752,8.264,8.264,0,0,1,.77,1.582,12.441,12.441,0,0,0,1.526-2.772V1.2h1.61v-5.46a12.268,12.268,0,0,1,.84,1.414Zm5.236-1.582H-6.2v-1.9h3.458ZM-2.45-.462c-.182,0-.21-.042-.21-.462V-4.27h1.582v-4.8H-2.366c.406-.588.91-1.428,1.372-2.24L-2.7-11.858A15.043,15.043,0,0,1-3.85-9.464l1.092.392h-3.29l.9-.392a10.75,10.75,0,0,0-1.274-2.38l-1.372.6a12.6,12.6,0,0,1,1.092,2.17H-7.784v4.8h1.12C-6.818-2.436-7.21-.938-9.3-.084A4.832,4.832,0,0,1-8.33,1.232C-5.81.1-5.222-1.862-5.026-4.27h.77V-.91c0,1.456.266,1.946,1.512,1.946h.924C-.812,1.036-.434.5-.294-1.5a4.322,4.322,0,0,1-1.414-.63C-1.736-.672-1.792-.462-2-.462ZM2.716-9.744H5.348v1.918H2.716Zm1.428,4.55c.028-.378.056-.77.084-1.148h2.73v-4.872H1.2v4.872H2.6C2.492-4.018,2.212-1.5.378.014A4.374,4.374,0,0,1,1.484,1.232a7.942,7.942,0,0,0,2.464-4.97H5.5C5.4-1.526,5.278-.63,5.068-.392a.5.5,0,0,1-.462.182A11.28,11.28,0,0,1,3.234-.28a3.414,3.414,0,0,1,.42,1.442A10.331,10.331,0,0,0,5.348,1.12,1.465,1.465,0,0,0,6.4.6c.378-.476.532-1.82.672-5.194,0-.2.014-.6.014-.6Zm5.488-4.97H8.008v7.882H9.632ZM11.3-11.578V-.8c0,.252-.112.336-.378.336-.294,0-1.19,0-2.1-.028a6.084,6.084,0,0,1,.574,1.722A7.436,7.436,0,0,0,12.18.91c.574-.266.77-.728.77-1.708v-10.78Zm7.42,6.258a9.226,9.226,0,0,0-2.758-6.72l-1.33.588A8.7,8.7,0,0,1,17.136-5.32,8.7,8.7,0,0,1,14.63.812l1.33.588A9.226,9.226,0,0,0,18.718-5.32Z" transform="translate(1328 12120.764)" fill="#e84830"/>
    <path id="パス_13940" data-name="パス 13940" d="M-25.02-11.772c.144-1.512.216-3.024.252-4.392h14.436v4.392Zm14.688-12.852v4.392H-24.768v-4.392ZM-5.8-28.8H-29.2v11.844c0,5.472-.5,12.348-5.94,16.992a16.908,16.908,0,0,1,3.312,3.1A19.365,19.365,0,0,0-25.74-7.632h15.408v5.22c0,.756-.288,1.044-1.152,1.044-.792,0-3.816.036-6.336-.108a18.378,18.378,0,0,1,1.8,4.5c3.708,0,6.228-.072,7.956-.828C-6.408,1.476-5.8.252-5.8-2.34ZM29.448-17.6H22.32v-2.2h7.128Zm0,5.148H22.32v-2.2h7.128Zm0,5.256H22.32V-9.432h7.128ZM18.468-23V-4.032H33.48V-23H27.108c.288-.756.576-1.584.864-2.448H34.2v-3.636H17.388v3.636h6.048C23.292-24.66,23.148-23.8,23-23ZM5.112-24.192h8.6v2.484H17.28v-5.8H11.412V-30.42h-4V-27.5H1.656v5.8H5.112Zm6.48,21.924H7.236V-5.58h4.356ZM7.308-8.892a26.174,26.174,0,0,0,3.024-2.34c1.08.828,2.16,1.62,3.06,2.34Zm4.32-9.576a15.386,15.386,0,0,1-1.764,2.556L7.38-17.532c.252-.324.5-.612.756-.936Zm3.6,11.088.072.072L17.712-10.3a56.553,56.553,0,0,0-4.9-3.6,20.948,20.948,0,0,0,3.564-6.48l-2.412-1.116-.648.18H9.972a14.209,14.209,0,0,0,.828-1.656l-3.492-.864A17.312,17.312,0,0,1,.72-16.308a16.15,16.15,0,0,1,2.7,2.484,16.487,16.487,0,0,0,1.548-1.224l2.376,1.656A21.351,21.351,0,0,1,.72-9.612a12.357,12.357,0,0,1,2.16,3.06l.756-.324V2.448h3.6V1.008h7.992a25.393,25.393,0,0,1,1.98,2.052,25.6,25.6,0,0,0,7.668-4.788L21.42-3.888A20.4,20.4,0,0,1,15.228.072ZM26.46-1.764a39.669,39.669,0,0,1,5.616,4.932l3.312-2.2a45.319,45.319,0,0,0-5.832-4.68Z" transform="translate(1000 12158.764)" fill="#e84830"/>
    <path id="パス_13941" data-name="パス 13941" d="M-72.44-6.08a10.63,10.63,0,0,0,3.184,7.616l.96-.5a10.012,10.012,0,0,1-2.976-7.12A10.012,10.012,0,0,1-68.3-13.2l-.96-.5A10.63,10.63,0,0,0-72.44-6.08ZM-66.152,0h6.432V-1.216h-2.352V-11.744h-1.12a7.065,7.065,0,0,1-2.432.848v.928h2.08v8.752h-2.608Zm8.176,0H-50.6V-1.264h-3.248c-.592,0-1.312.064-1.92.112,2.752-2.608,4.592-4.992,4.592-7.328a3.218,3.218,0,0,0-3.408-3.472,4.486,4.486,0,0,0-3.456,1.728l.848.832a3.284,3.284,0,0,1,2.432-1.36,2.062,2.062,0,0,1,2.16,2.32c0,2.016-1.7,4.352-5.376,7.568ZM-48.6,3.04A3.56,3.56,0,0,0-46.264-.3c0-1.072-.464-1.728-1.232-1.728a1.04,1.04,0,0,0-1.1,1.024A1,1,0,0,0-47.528.016.656.656,0,0,0-47.352,0a2.4,2.4,0,0,1-1.6,2.176ZM-44.648,0h7.376V-1.264H-40.52c-.592,0-1.312.064-1.92.112,2.752-2.608,4.592-4.992,4.592-7.328a3.218,3.218,0,0,0-3.408-3.472,4.486,4.486,0,0,0-3.456,1.728l.848.832a3.284,3.284,0,0,1,2.432-1.36,2.062,2.062,0,0,1,2.16,2.32c0,2.016-1.7,4.352-5.376,7.568Zm12.64.208c2.208,0,3.68-1.328,3.68-3.04A3.422,3.422,0,0,0-30.312-5.9v-.08a3.846,3.846,0,0,0,1.568-2.832A2.966,2.966,0,0,0-31.96-11.9a2.984,2.984,0,0,0-3.216,2.976,3.261,3.261,0,0,0,1.584,2.7v.08a3.757,3.757,0,0,0-2.16,3.232C-35.752-1.1-34.168.208-32.008.208Zm.8-6.576c-1.376-.544-2.64-1.152-2.64-2.56a1.806,1.806,0,0,1,1.872-1.9,1.944,1.944,0,0,1,1.984,2.1A3.146,3.146,0,0,1-31.208-6.368ZM-31.976-.88a2.249,2.249,0,0,1-2.448-2.16,3.188,3.188,0,0,1,1.6-2.656c1.664.672,3.1,1.264,3.1,2.832A2.032,2.032,0,0,1-31.976-.88ZM-23.368.208c2.08,0,3.76-1.248,3.76-3.344a3.017,3.017,0,0,0-2.48-2.976v-.064a2.929,2.929,0,0,0,2.08-2.832c0-1.856-1.44-2.944-3.408-2.944a4.7,4.7,0,0,0-3.28,1.408l.784.928a3.424,3.424,0,0,1,2.432-1.136A1.8,1.8,0,0,1-21.5-8.9c0,1.264-.832,2.24-3.248,2.24v1.12c2.7,0,3.648.944,3.648,2.336A2.163,2.163,0,0,1-23.48-1.008a3.877,3.877,0,0,1-2.912-1.344l-.736.96A4.855,4.855,0,0,0-23.368.208Zm13.2-6.656v-4.688H-5.3v4.688Zm-5.856-4.688h4.688v4.688h-4.688ZM-4.1-12.288h-13.1V1.232h1.184v-6.5H-5.3v4.9c0,.3-.112.4-.4.4-.3.016-1.344.032-2.432-.016A5.116,5.116,0,0,1-7.688,1.2,10.075,10.075,0,0,0-4.84.992C-4.3.784-4.1.4-4.1-.368Zm14.64-1.1A16.845,16.845,0,0,1,9.1-10.624l.992.4a27.154,27.154,0,0,0,1.648-2.752Zm-3.472,2.7A11.844,11.844,0,0,0,5.64-13.36l-.992.416a12.245,12.245,0,0,1,1.376,2.752ZM4.056-4.624C3.736-4.992,2.376-6.4,1.88-6.816v-.976h2v-1.12h-2v-2.7a13.266,13.266,0,0,0,2.032-.64l-.832-.9a23.43,23.43,0,0,1-5.056,1.28,4.479,4.479,0,0,1,.368.928c.736-.112,1.552-.24,2.336-.4v2.432H-1.88v1.12H.568A16.523,16.523,0,0,1-2.184-2.784,5.5,5.5,0,0,1-1.592-1.7,17,17,0,0,0,.728-5.888V1.184H1.88V-5.664A18.324,18.324,0,0,1,3.336-3.68ZM5.608-9.136h5.008v3.12H5.608Zm4.56,9.088c-.352,0-.4-.064-.4-.464V-4.96H11.8v-5.216H4.472V-4.96H6.1C5.848-2.688,5.208-.688,2.712.32a3.759,3.759,0,0,1,.72.912C6.2.016,6.984-2.272,7.272-4.96h1.36V-.512c0,1.184.256,1.536,1.36,1.536h1.36c.944,0,1.248-.544,1.36-2.592a2.948,2.948,0,0,1-1.04-.48c-.032,1.744-.112,2-.448,2Zm9.616-12.528v1.12H22.7c.08.7.16,1.376.272,2.032l-.512-.08c-.64,3.264-1.984,5.76-4.32,7.248a6.978,6.978,0,0,1,.928.88,11.432,11.432,0,0,0,4.24-6.48c.72,2.912,2.016,5.168,4.256,6.48a5.517,5.517,0,0,1,.944-.9c-3.2-1.648-4.448-5.424-4.832-10.3ZM17.96-10.528a12.175,12.175,0,0,0-2.784-2.464l-.88.72a11.039,11.039,0,0,1,2.72,2.528ZM17.512-7.12H14.12V-6h2.224v4.048A26.717,26.717,0,0,1,13.912-.128l.64,1.2C15.4.384,16.2-.3,16.968-.976A5.7,5.7,0,0,0,21.5.912c1.76.064,5.04.032,6.784-.032a5.414,5.414,0,0,1,.384-1.216c-1.872.128-5.424.176-7.168.112-1.84-.08-3.232-.624-3.984-1.792ZM36.84-5.632a4.8,4.8,0,0,0,3.6,1.712,4.779,4.779,0,0,0,4.176-2.8L43.48-7.328a3.53,3.53,0,0,1-3.024,2.112,3.694,3.694,0,0,1-2.72-1.312,4.8,4.8,0,0,0-3.6-1.712,4.779,4.779,0,0,0-4.176,2.8l1.136.608A3.529,3.529,0,0,1,34.12-6.944,3.667,3.667,0,0,1,36.84-5.632Zm8.624,8.5h1.072L51.32-12.7H50.264ZM55.928-4.9A20.088,20.088,0,0,0,56.1-7.584h7.312V-4.9Zm7.488-6.48V-8.72H56.1v-2.656Zm1.232-1.168H54.9v4.9c0,2.544-.256,5.792-2.8,8.032a4.5,4.5,0,0,1,.88.864,9.025,9.025,0,0,0,2.752-4.976h7.68v3.2c0,.352-.128.464-.5.48-.368,0-1.648.016-2.976-.032a5.675,5.675,0,0,1,.5,1.232A12.866,12.866,0,0,0,63.816.928c.592-.192.832-.608.832-1.44ZM72.44-6.08A10.63,10.63,0,0,0,69.256-13.7l-.96.5a10.012,10.012,0,0,1,2.976,7.12A10.012,10.012,0,0,1,68.3,1.04l.96.5A10.63,10.63,0,0,0,72.44-6.08Z" transform="translate(1280 12187.764)" fill="#333"/>
  </g>
</svg>
