<svg xmlns="http://www.w3.org/2000/svg" width="141.24" height="15.04" viewBox="0 0 141.24 15.04">
  <path id="txt_philosophy" d="M-69.87,0h3.06V-4.44h2.54c3.24,0,5.86-1.72,5.86-5.08v-.04c0-2.96-2.1-5-5.56-5h-5.9Zm3.06-7.18v-4.6h2.58c1.66,0,2.72.8,2.72,2.28v.04c0,1.3-1,2.28-2.66,2.28Zm11,7.18h3.06V-5.9h6.12V0h3.08V-14.56h-3.08v5.82h-6.12v-5.82h-3.06Zm16.1,0h3.08V-14.56h-3.08Zm6.94,0h10.4V-2.8h-7.34V-14.56h-3.06Zm19.26.24A7.525,7.525,0,0,0-5.77-7.28v-.04a7.446,7.446,0,0,0-7.7-7.48,7.525,7.525,0,0,0-7.74,7.52v.04A7.446,7.446,0,0,0-13.51.24Zm.04-2.82a4.544,4.544,0,0,1-4.52-4.7v-.04a4.477,4.477,0,0,1,4.48-4.66,4.544,4.544,0,0,1,4.52,4.7v.04A4.477,4.477,0,0,1-13.47-2.58ZM2.35.2C5.47.2,7.67-1.42,7.67-4.28v-.04c0-2.5-1.66-3.58-4.64-4.34-2.56-.66-3.2-1-3.2-2v-.04c0-.74.68-1.36,1.96-1.36A6.676,6.676,0,0,1,5.61-10.6l1.62-2.32a8.383,8.383,0,0,0-5.38-1.84c-2.96,0-5.08,1.74-5.08,4.34v.04c0,2.86,1.86,3.7,4.84,4.44,2.48.62,3,1.06,3,1.92v.04c0,.9-.84,1.48-2.2,1.48a6.7,6.7,0,0,1-4.4-1.8L-3.81-2.12A9.17,9.17,0,0,0,2.35.2ZM17.71.24a7.525,7.525,0,0,0,7.74-7.52v-.04a7.446,7.446,0,0,0-7.7-7.48,7.525,7.525,0,0,0-7.74,7.52v.04A7.446,7.446,0,0,0,17.71.24Zm.04-2.82a4.544,4.544,0,0,1-4.52-4.7v-.04a4.477,4.477,0,0,1,4.48-4.66,4.544,4.544,0,0,1,4.52,4.7v.04A4.477,4.477,0,0,1,17.75-2.58ZM28.51,0h3.06V-4.44h2.54c3.24,0,5.86-1.72,5.86-5.08v-.04c0-2.96-2.1-5-5.56-5h-5.9Zm3.06-7.18v-4.6h2.58c1.66,0,2.72.8,2.72,2.28v.04c0,1.3-1,2.28-2.66,2.28ZM42.57,0h3.06V-5.9h6.12V0h3.08V-14.56H51.75v5.82H45.63v-5.82H42.57ZM62.65,0h3.08V-5.8l5.64-8.76h-3.5L64.21-8.6l-3.58-5.96h-3.6l5.62,8.82Z" transform="translate(69.87 14.8)" fill="#e84830"/>
</svg>
