<svg xmlns="http://www.w3.org/2000/svg" width="12.32" height="104.88" viewBox="0 0 12.32 104.88">
  <path id="txt_interview_03" d="M-52.16,0H-49.7V-11.648H-52.16Zm5.28,0h2.432V-4.976c0-1.232.656-1.888,1.664-1.888s1.6.656,1.6,1.888V0h2.432V-5.744c0-2.048-1.136-3.312-3.056-3.312a3.176,3.176,0,0,0-2.64,1.44V-8.9H-46.88Zm13.488.144a3.7,3.7,0,0,0,1.952-.5V-2.3a2.665,2.665,0,0,1-1.248.3c-.592,0-.864-.288-.864-.912v-3.9h2.144V-8.9h-2.144v-2.3h-2.432v2.3h-1.072v2.08h1.072v4.3C-35.984-.464-34.928.144-33.392.144Zm7.968.048a4.444,4.444,0,0,0,3.632-1.648l-1.392-1.232a2.965,2.965,0,0,1-2.208.928,2.119,2.119,0,0,1-2.24-1.84h6.256c.016-.224.032-.448.032-.64,0-2.528-1.376-4.816-4.32-4.816a4.417,4.417,0,0,0-4.384,4.624V-4.4A4.436,4.436,0,0,0-25.424.192Zm-2.24-5.312a2.058,2.058,0,0,1,2-1.984A2,2,0,0,1-23.712-5.12ZM-19.312,0h2.432V-3.312c0-2.16,1.072-3.2,2.768-3.2h.128V-9.056a2.833,2.833,0,0,0-2.9,2V-8.9h-2.432ZM-9.5.064h2.192L-3.776-8.9H-6.3l-2.1,6.08L-10.464-8.9H-13.04ZM-2.1-9.952H.464v-2.176H-2.1ZM-2.016,0H.4V-8.9H-2.016ZM7.152.192a4.444,4.444,0,0,0,3.632-1.648L9.392-2.688a2.965,2.965,0,0,1-2.208.928A2.119,2.119,0,0,1,4.944-3.6H11.2c.016-.224.032-.448.032-.64,0-2.528-1.376-4.816-4.32-4.816A4.417,4.417,0,0,0,2.528-4.432V-4.4A4.436,4.436,0,0,0,7.152.192ZM4.912-5.12a2.058,2.058,0,0,1,2-1.984A2,2,0,0,1,8.864-5.12ZM14.9.064h2.176L18.864-5.52,20.624.064h2.192l2.8-8.96H23.2L21.664-3.344,19.92-8.928H17.84L16.1-3.36,14.608-8.9H12.144ZM37.328.192c3.1,0,5.168-2.656,5.168-6.016v-.032c0-3.376-2.064-5.984-5.136-5.984-3.088,0-5.168,2.656-5.168,6.016v.032C32.192-2.416,34.224.192,37.328.192Zm.032-2.208c-1.6,0-2.64-1.648-2.64-3.808v-.032c0-2.16,1.024-3.776,2.608-3.776s2.64,1.664,2.64,3.808v.032C39.968-3.648,38.96-2.016,37.36-2.016ZM48.544.192c2.56,0,4.176-1.584,4.176-3.776v-.032c0-2.16-1.568-3.008-3.184-3.264l3.008-2.912v-1.856H44.7v2.112h4.672L46.512-6.624l.4,1.552h1.04c1.456,0,2.352.56,2.352,1.552v.032A1.544,1.544,0,0,1,48.576-2a3.584,3.584,0,0,1-2.848-1.424l-1.7,1.6A5.6,5.6,0,0,0,48.544.192Z" transform="translate(0.192 52.16) rotate(90)" fill="#333"/>
</svg>
