<svg xmlns="http://www.w3.org/2000/svg" width="153.104" height="14.863" viewBox="0 0 153.104 14.863">
  <path id="txt_recturer_eng" d="M1.488,0h2.4V-7.712l3.328,5.04H7.28L10.64-7.76V0h2.448V-11.648h-2.64L7.28-6.608l-3.152-5.04H1.488ZM18.336.176a3.448,3.448,0,0,0,2.72-1.168V0h2.352V-5.184A3.859,3.859,0,0,0,22.448-8a4.148,4.148,0,0,0-2.992-.992,7.842,7.842,0,0,0-3.44.72l.608,1.856a6.591,6.591,0,0,1,2.48-.5c1.3,0,1.968.592,1.968,1.68v.16a6.748,6.748,0,0,0-2.224-.352c-2.112,0-3.6.9-3.6,2.832v.032A2.789,2.789,0,0,0,18.336.176Zm.72-1.7c-.848,0-1.456-.416-1.456-1.136v-.032c0-.816.688-1.28,1.808-1.28a4.376,4.376,0,0,1,1.7.336v.48C21.1-2.192,20.272-1.52,19.056-1.52ZM28.864.16c1.92,0,3.392-.9,3.392-2.848V-2.72c0-1.632-1.456-2.224-2.7-2.624-.976-.336-1.856-.576-1.856-1.1V-6.48c0-.384.352-.672.992-.672a5.3,5.3,0,0,1,2.432.832L32.048-8a6.152,6.152,0,0,0-3.3-1.024c-1.792,0-3.248,1.008-3.248,2.8v.032c0,1.712,1.424,2.288,2.688,2.656.992.3,1.872.5,1.872,1.072v.032c0,.432-.368.72-1.136.72a5.017,5.017,0,0,1-2.816-1.072L25.056-1.168A6.265,6.265,0,0,0,28.864.16Zm7.92.016A3.448,3.448,0,0,0,39.5-.992V0h2.352V-5.184A3.859,3.859,0,0,0,40.9-8,4.148,4.148,0,0,0,37.9-8.992a7.842,7.842,0,0,0-3.44.72l.608,1.856a6.591,6.591,0,0,1,2.48-.5c1.3,0,1.968.592,1.968,1.68v.16A6.748,6.748,0,0,0,37.3-5.424c-2.112,0-3.6.9-3.6,2.832v.032A2.789,2.789,0,0,0,36.784.176Zm.72-1.7c-.848,0-1.456-.416-1.456-1.136v-.032c0-.816.688-1.28,1.808-1.28a4.376,4.376,0,0,1,1.7.336v.48C39.552-2.192,38.72-1.52,37.5-1.52ZM47.776-2.736,45.664-8.9H43.088L46.624.032a.932.932,0,0,1-.96.656,2.391,2.391,0,0,1-1.1-.336l-.816,1.76a4.205,4.205,0,0,0,2.208.608c1.5,0,2.24-.688,2.928-2.5L52.32-8.9H49.792ZM57.84.192a4.652,4.652,0,0,0,4.816-4.624v-.032a4.614,4.614,0,0,0-4.768-4.592,4.662,4.662,0,0,0-4.816,4.624V-4.4A4.6,4.6,0,0,0,57.84.192Zm.048-2.08a2.443,2.443,0,0,1-2.416-2.544v-.032a2.345,2.345,0,0,1,2.368-2.5,2.429,2.429,0,0,1,2.416,2.528V-4.4A2.358,2.358,0,0,1,57.888-1.888ZM67.76.16c1.92,0,3.392-.9,3.392-2.848V-2.72c0-1.632-1.456-2.224-2.7-2.624-.976-.336-1.856-.576-1.856-1.1V-6.48c0-.384.352-.672.992-.672a5.3,5.3,0,0,1,2.432.832L70.944-8a6.152,6.152,0,0,0-3.3-1.024c-1.792,0-3.248,1.008-3.248,2.8v.032c0,1.712,1.424,2.288,2.688,2.656.992.3,1.872.5,1.872,1.072v.032c0,.432-.368.72-1.136.72a5.017,5.017,0,0,1-2.816-1.072L63.952-1.168A6.265,6.265,0,0,0,67.76.16ZM73.136,0h2.432V-4.976c0-1.232.656-1.888,1.664-1.888s1.6.656,1.6,1.888V0h2.432V-5.744c0-2.048-1.136-3.312-3.056-3.312a3.176,3.176,0,0,0-2.64,1.44v-4.528H73.136ZM83.664-9.952h2.56v-2.176h-2.56ZM83.744,0H86.16V-8.9H83.744ZM94.112,0H96.56V-4.56h5.632V-6.8H96.56V-9.408h6.368v-2.24H94.112Zm13.744.176A3.15,3.15,0,0,0,110.5-1.28V0h2.432V-8.9H110.5V-3.92c0,1.232-.656,1.888-1.664,1.888s-1.6-.656-1.6-1.888V-8.9h-2.416v5.744C104.816-1.1,105.936.176,107.856.176ZM115.36,0h2.432V-2.672l.96-1.024L121.1,0h2.816l-3.536-5.36L123.808-8.9H120.9l-3.1,3.376v-6.624H115.36Zm12.768.176a3.15,3.15,0,0,0,2.64-1.456V0H133.2V-8.9h-2.432V-3.92c0,1.232-.656,1.888-1.664,1.888s-1.6-.656-1.6-1.888V-8.9h-2.416v5.744C125.088-1.1,126.208.176,128.128.176Zm11.168,0a3.329,3.329,0,0,0,2.816-1.488V0h2.432V-12.144h-2.432V-7.7a3.457,3.457,0,0,0-2.816-1.36c-2.112,0-4.064,1.632-4.064,4.592v.032C135.232-1.456,137.216.176,139.3.176ZM139.9-1.9a2.335,2.335,0,0,1-2.24-2.528v-.032a2.316,2.316,0,0,1,2.24-2.528,2.335,2.335,0,0,1,2.24,2.528v.032A2.335,2.335,0,0,1,139.9-1.9ZM149.52.176a3.448,3.448,0,0,0,2.72-1.168V0h2.352V-5.184A3.859,3.859,0,0,0,153.632-8a4.148,4.148,0,0,0-2.992-.992,7.842,7.842,0,0,0-3.44.72l.608,1.856a6.591,6.591,0,0,1,2.48-.5c1.3,0,1.968.592,1.968,1.68v.16a6.748,6.748,0,0,0-2.224-.352c-2.112,0-3.6.9-3.6,2.832v.032A2.789,2.789,0,0,0,149.52.176Zm.72-1.7c-.848,0-1.456-.416-1.456-1.136v-.032c0-.816.688-1.28,1.808-1.28a4.376,4.376,0,0,1,1.7.336v.48C152.288-2.192,151.456-1.52,150.24-1.52Z" transform="translate(-1.488 12.144)" fill="#fff"/>
</svg>
