<svg xmlns="http://www.w3.org/2000/svg" width="67.32" height="29.32" viewBox="0 0 67.32 29.32">
  <path id="txt_q6" d="M32.28-3.52,29.4-5.96A14.364,14.364,0,0,0,31.88-14v-.08c0-7.96-6.2-14.4-14.84-14.4S2.12-21.96,2.12-14v.08C2.12-5.96,8.32.48,16.96.48a15.26,15.26,0,0,0,8.32-2.4L28.36.84ZM17.04-5.2A8.507,8.507,0,0,1,8.56-14v-.08a8.374,8.374,0,0,1,8.4-8.72A8.507,8.507,0,0,1,25.44-14v.08a9.812,9.812,0,0,1-.76,3.84l-4.6-4.16-3.92,4.4,4.56,3.88A8.414,8.414,0,0,1,17.04-5.2ZM47.56.48c6.08,0,10.68-3.96,10.68-9.68v-.08c0-5.84-4.28-8.92-9.84-8.92a9.8,9.8,0,0,0-5.8,1.8c.2-2.44,1.44-6.48,5.64-6.48a8.625,8.625,0,0,1,5.72,2.24L57.2-25.4a12.97,12.97,0,0,0-8.76-3.08c-8.36,0-12.28,6.64-12.28,15.28v.08c0,5.56,1.28,8.56,3.32,10.6C41.44-.56,43.92.48,47.56.48ZM47.32-4.8c-3.04,0-4.88-1.8-4.88-4.16v-.08c0-2.36,1.76-4.04,4.8-4.04S52.12-11.36,52.12-9v.08C52.12-6.52,50.36-4.8,47.32-4.8ZM62.96,0h6.48V-6.4H62.96Z" transform="translate(-2.12 28.48)" fill="#333"/>
</svg>
