<svg xmlns="http://www.w3.org/2000/svg" width="65.68" height="29.32" viewBox="0 0 65.68 29.32">
  <path id="txt_q3" d="M32.28-3.52,29.4-5.96A14.364,14.364,0,0,0,31.88-14v-.08c0-7.96-6.2-14.4-14.84-14.4S2.12-21.96,2.12-14v.08C2.12-5.96,8.32.48,16.96.48a15.26,15.26,0,0,0,8.32-2.4L28.36.84ZM17.04-5.2A8.507,8.507,0,0,1,8.56-14v-.08a8.374,8.374,0,0,1,8.4-8.72A8.507,8.507,0,0,1,25.44-14v.08a9.812,9.812,0,0,1-.76,3.84l-4.6-4.16-3.92,4.4,4.56,3.88A8.414,8.414,0,0,1,17.04-5.2ZM46.44.48c6.24,0,10.08-3.88,10.08-9.16v-.08c0-5.2-3.72-7.2-7.52-7.84l7.08-6.76V-28H37.16v5.28h11L41.48-16l.96,3.92H45c3.44,0,5.48,1.28,5.48,3.56v.08c0,2.08-1.64,3.4-3.96,3.4-2.84,0-4.84-1.2-6.76-3.36L35.52-4.36A13.586,13.586,0,0,0,46.44.48ZM61.32,0H67.8V-6.4H61.32Z" transform="translate(-2.12 28.48)" fill="#333"/>
</svg>
