<svg xmlns="http://www.w3.org/2000/svg" width="66.04" height="29.32" viewBox="0 0 66.04 29.32">
  <path id="txt_q8" d="M32.28-3.52,29.4-5.96A14.364,14.364,0,0,0,31.88-14v-.08c0-7.96-6.2-14.4-14.84-14.4S2.12-21.96,2.12-14v.08C2.12-5.96,8.32.48,16.96.48a15.26,15.26,0,0,0,8.32-2.4L28.36.84ZM17.04-5.2A8.507,8.507,0,0,1,8.56-14v-.08a8.374,8.374,0,0,1,8.4-8.72A8.507,8.507,0,0,1,25.44-14v.08a9.812,9.812,0,0,1-.76,3.84l-4.6-4.16-3.92,4.4,4.56,3.88A8.414,8.414,0,0,1,17.04-5.2ZM46.6.4c6.2,0,10.8-3.04,10.8-8.24v-.08c0-3.32-1.68-5.12-4.52-6.6a6.662,6.662,0,0,0,3.56-6.12v-.08c0-4.32-3.92-7.68-9.84-7.68s-9.84,3.4-9.84,7.68v.08a6.662,6.662,0,0,0,3.56,6.12c-2.96,1.36-4.52,3.36-4.52,6.76v.08C35.8-2.8,40.4.4,46.6.4Zm0-16.96c-2.44,0-4-1.48-4-3.44v-.08c0-1.72,1.48-3.24,4-3.24s4,1.56,4,3.28v.08C50.6-18,49.04-16.56,46.6-16.56Zm0,11.88c-3.04,0-4.84-1.56-4.84-3.48v-.08c0-2.16,2.04-3.44,4.84-3.44s4.84,1.28,4.84,3.44v.08C51.44-6.2,49.64-4.68,46.6-4.68ZM61.68,0h6.48V-6.4H61.68Z" transform="translate(-2.12 28.48)" fill="#333"/>
</svg>
