<svg xmlns="http://www.w3.org/2000/svg" width="57.72" height="29.32" viewBox="0 0 57.72 29.32">
  <path id="txt_q1" d="M32.28-3.52,29.4-5.96A14.364,14.364,0,0,0,31.88-14v-.08c0-7.96-6.2-14.4-14.84-14.4S2.12-21.96,2.12-14v.08C2.12-5.96,8.32.48,16.96.48a15.26,15.26,0,0,0,8.32-2.4L28.36.84ZM17.04-5.2A8.507,8.507,0,0,1,8.56-14v-.08a8.374,8.374,0,0,1,8.4-8.72A8.507,8.507,0,0,1,25.44-14v.08a9.812,9.812,0,0,1-.76,3.84l-4.6-4.16-3.92,4.4,4.56,3.88A8.414,8.414,0,0,1,17.04-5.2ZM41.12,0H47.2V-28.2H43l-8.04,2.4,1.28,5.04,4.88-1.2ZM53.36,0h6.48V-6.4H53.36Z" transform="translate(-2.12 28.48)" fill="#333"/>
</svg>
