<svg xmlns="http://www.w3.org/2000/svg" width="12.32" height="101.008" viewBox="0 0 12.32 101.008">
  <path id="txt_interview_01" d="M-50.5,0h2.464V-11.648H-50.5Zm5.28,0h2.432V-4.976c0-1.232.656-1.888,1.664-1.888s1.6.656,1.6,1.888V0H-37.1V-5.744c0-2.048-1.136-3.312-3.056-3.312a3.176,3.176,0,0,0-2.64,1.44V-8.9h-2.432Zm13.488.144a3.7,3.7,0,0,0,1.952-.5V-2.3a2.665,2.665,0,0,1-1.248.3c-.592,0-.864-.288-.864-.912v-3.9h2.144V-8.9H-31.9v-2.3h-2.432v2.3H-35.4v2.08h1.072v4.3C-34.328-.464-33.272.144-31.736.144Zm7.968.048a4.444,4.444,0,0,0,3.632-1.648l-1.392-1.232a2.965,2.965,0,0,1-2.208.928,2.119,2.119,0,0,1-2.24-1.84h6.256c.016-.224.032-.448.032-.64,0-2.528-1.376-4.816-4.32-4.816a4.417,4.417,0,0,0-4.384,4.624V-4.4A4.436,4.436,0,0,0-23.768.192Zm-2.24-5.312a2.058,2.058,0,0,1,2-1.984A2,2,0,0,1-22.056-5.12ZM-17.656,0h2.432V-3.312c0-2.16,1.072-3.2,2.768-3.2h.128V-9.056a2.833,2.833,0,0,0-2.9,2V-8.9h-2.432Zm9.808.064h2.192L-2.12-8.9H-4.648l-2.1,6.08L-8.808-8.9h-2.576ZM-.44-9.952H2.12v-2.176H-.44ZM-.36,0H2.056V-8.9H-.36ZM8.808.192A4.444,4.444,0,0,0,12.44-1.456L11.048-2.688A2.965,2.965,0,0,1,8.84-1.76,2.119,2.119,0,0,1,6.6-3.6h6.256c.016-.224.032-.448.032-.64,0-2.528-1.376-4.816-4.32-4.816A4.417,4.417,0,0,0,4.184-4.432V-4.4A4.436,4.436,0,0,0,8.808.192ZM6.568-5.12a2.058,2.058,0,0,1,2-1.984A2,2,0,0,1,10.52-5.12ZM16.552.064h2.176L20.52-5.52,22.28.064h2.192l2.8-8.96H24.856L23.32-3.344,21.576-8.928H19.5L17.752-3.36,16.264-8.9H13.8ZM38.984.192c3.1,0,5.168-2.656,5.168-6.016v-.032c0-3.376-2.064-5.984-5.136-5.984-3.088,0-5.168,2.656-5.168,6.016v.032C33.848-2.416,35.88.192,38.984.192Zm.032-2.208c-1.6,0-2.64-1.648-2.64-3.808v-.032c0-2.16,1.024-3.776,2.608-3.776s2.64,1.664,2.64,3.808v.032C41.624-3.648,40.616-2.016,39.016-2.016ZM48.072,0H50.5V-11.728h-1.68l-3.312.992.512,2.016,2.048-.512Z" transform="translate(0.192 50.504) rotate(90)" fill="#333"/>
</svg>
