<svg xmlns="http://www.w3.org/2000/svg" width="63.94" height="15.04" viewBox="0 0 63.94 15.04">
  <path id="txt_flow" d="M-31.41,0h3.06V-5.7h7.04V-8.5h-7.04v-3.26h7.96v-2.8H-31.41Zm13.8,0h10.4V-2.8h-7.34V-14.56h-3.06ZM1.65.24A7.525,7.525,0,0,0,9.39-7.28v-.04a7.446,7.446,0,0,0-7.7-7.48A7.525,7.525,0,0,0-6.05-7.28v.04A7.446,7.446,0,0,0,1.65.24Zm.04-2.82a4.544,4.544,0,0,1-4.52-4.7v-.04a4.477,4.477,0,0,1,4.48-4.66,4.544,4.544,0,0,1,4.52,4.7v.04A4.477,4.477,0,0,1,1.69-2.58ZM15.51.1h2.68l3.34-9.7L24.87.1h2.68l4.98-14.66H29.31L26.21-4.52,22.89-14.6H20.25L16.93-4.52,13.81-14.56h-3.3Z" transform="translate(31.41 14.8)" fill="#e84830"/>
</svg>
