<svg xmlns="http://www.w3.org/2000/svg" width="100.48" height="15.04" viewBox="0 0 100.48 15.04">
  <path id="txt_process" d="M-49.88,0h3.06V-4.44h2.54c3.24,0,5.86-1.72,5.86-5.08v-.04c0-2.96-2.1-5-5.56-5h-5.9Zm3.06-7.18v-4.6h2.58c1.66,0,2.72.8,2.72,2.28v.04c0,1.3-1,2.28-2.66,2.28Zm11,7.18h3.06V-4.74h2.66L-26.88,0h3.6l-3.64-5.26a4.488,4.488,0,0,0,3.18-4.5V-9.8a4.518,4.518,0,0,0-1.22-3.28,5.805,5.805,0,0,0-4.24-1.48h-6.62Zm3.06-7.46v-4.32h3.3c1.62,0,2.62.74,2.62,2.14v.04c0,1.28-.96,2.14-2.56,2.14ZM-13.58.24A7.525,7.525,0,0,0-5.84-7.28v-.04a7.446,7.446,0,0,0-7.7-7.48,7.525,7.525,0,0,0-7.74,7.52v.04A7.446,7.446,0,0,0-13.58.24Zm.04-2.82a4.544,4.544,0,0,1-4.52-4.7v-.04a4.477,4.477,0,0,1,4.48-4.66,4.544,4.544,0,0,1,4.52,4.7v.04A4.477,4.477,0,0,1-13.54-2.58ZM4.02.24A7.491,7.491,0,0,0,9.98-2.34L8.02-4.32a5.339,5.339,0,0,1-3.9,1.74A4.449,4.449,0,0,1-.22-7.28v-.04a4.438,4.438,0,0,1,4.34-4.66,5.451,5.451,0,0,1,3.8,1.68l1.96-2.26A7.5,7.5,0,0,0,4.14-14.8,7.389,7.389,0,0,0-3.44-7.28v.04A7.34,7.34,0,0,0,4.02.24ZM12.74,0H23.78V-2.74h-8V-5.96h6.96V-8.7H15.78v-3.12h7.9v-2.74H12.74ZM32,.2c3.12,0,5.32-1.62,5.32-4.48v-.04c0-2.5-1.66-3.58-4.64-4.34-2.56-.66-3.2-1-3.2-2v-.04c0-.74.68-1.36,1.96-1.36a6.676,6.676,0,0,1,3.82,1.46l1.62-2.32a8.383,8.383,0,0,0-5.38-1.84c-2.96,0-5.08,1.74-5.08,4.34v.04c0,2.86,1.86,3.7,4.84,4.44,2.48.62,3,1.06,3,1.92v.04c0,.9-.84,1.48-2.2,1.48a6.7,6.7,0,0,1-4.4-1.8L25.84-2.12A9.17,9.17,0,0,0,32,.2ZM45.28.2C48.4.2,50.6-1.42,50.6-4.28v-.04c0-2.5-1.66-3.58-4.64-4.34-2.56-.66-3.2-1-3.2-2v-.04c0-.74.68-1.36,1.96-1.36a6.676,6.676,0,0,1,3.82,1.46l1.62-2.32a8.383,8.383,0,0,0-5.38-1.84c-2.96,0-5.08,1.74-5.08,4.34v.04c0,2.86,1.86,3.7,4.84,4.44,2.48.62,3,1.06,3,1.92v.04c0,.9-.84,1.48-2.2,1.48a6.7,6.7,0,0,1-4.4-1.8L39.12-2.12A9.17,9.17,0,0,0,45.28.2Z" transform="translate(49.88 14.8)" fill="#e84830"/>
</svg>
