<svg xmlns="http://www.w3.org/2000/svg" width="174.672" height="14.863" viewBox="0 0 174.672 14.863">
  <path id="txt_copyright" d="M-81.448.192A5.993,5.993,0,0,0-76.68-1.872l-1.568-1.584a4.271,4.271,0,0,1-3.12,1.392,3.559,3.559,0,0,1-3.472-3.76v-.032a3.551,3.551,0,0,1,3.472-3.728,4.361,4.361,0,0,1,3.04,1.344l1.568-1.808a6,6,0,0,0-4.592-1.792,5.911,5.911,0,0,0-6.064,6.016v.032A5.872,5.872,0,0,0-81.448.192Zm10.88,0a4.652,4.652,0,0,0,4.816-4.624v-.032A4.614,4.614,0,0,0-70.52-9.056a4.662,4.662,0,0,0-4.816,4.624V-4.4A4.6,4.6,0,0,0-70.568.192Zm.048-2.08a2.443,2.443,0,0,1-2.416-2.544v-.032a2.345,2.345,0,0,1,2.368-2.5,2.429,2.429,0,0,1,2.416,2.528V-4.4A2.358,2.358,0,0,1-70.52-1.888Zm6.768,4.544h2.432V-1.2A3.468,3.468,0,0,0-58.5.176c2.112,0,4.064-1.648,4.064-4.608v-.032c0-2.96-1.984-4.592-4.064-4.592A3.329,3.329,0,0,0-61.32-7.568V-8.9h-2.432Zm4.64-4.56a2.335,2.335,0,0,1-2.24-2.528v-.032a2.335,2.335,0,0,1,2.24-2.528,2.335,2.335,0,0,1,2.24,2.528v.032A2.316,2.316,0,0,1-59.112-1.9Zm10.192-.832L-51.032-8.9h-2.576L-50.072.032a.932.932,0,0,1-.96.656,2.391,2.391,0,0,1-1.1-.336l-.816,1.76a4.205,4.205,0,0,0,2.208.608c1.5,0,2.24-.688,2.928-2.5l3.44-9.12H-46.9ZM-42.712,0h2.432V-3.312c0-2.16,1.072-3.2,2.768-3.2h.128V-9.056a2.833,2.833,0,0,0-2.9,2V-8.9h-2.432Zm7.12-9.952h2.56v-2.176h-2.56ZM-35.512,0H-33.1V-8.9h-2.416Zm8.96,2.688A5.188,5.188,0,0,0-22.76,1.5a4.722,4.722,0,0,0,1.136-3.472V-8.9h-2.432v1.2a3.635,3.635,0,0,0-2.912-1.36,3.93,3.93,0,0,0-3.968,4.144v.032A3.926,3.926,0,0,0-26.968-.72a3.535,3.535,0,0,0,2.944-1.488v.48c0,1.632-.848,2.48-2.592,2.48a5.845,5.845,0,0,1-3.04-.832l-.832,1.824A8.318,8.318,0,0,0-26.552,2.688Zm.272-5.424A2.106,2.106,0,0,1-28.5-4.88v-.032A2.1,2.1,0,0,1-26.28-7.04a2.129,2.129,0,0,1,2.256,2.128v.032A2.142,2.142,0,0,1-26.28-2.736ZM-19.192,0h2.432V-4.976c0-1.232.656-1.888,1.664-1.888s1.6.656,1.6,1.888V0h2.432V-5.744c0-2.048-1.136-3.312-3.056-3.312a3.176,3.176,0,0,0-2.64,1.44v-4.528h-2.432ZM-5.7.144a3.7,3.7,0,0,0,1.952-.5V-2.3A2.665,2.665,0,0,1-5-2c-.592,0-.864-.288-.864-.912v-3.9H-3.72V-8.9H-5.864v-2.3H-8.3v2.3H-9.368v2.08H-8.3v4.3C-8.3-.464-7.24.144-5.7.144ZM3.7,0H6.1V-7.712l3.328,5.04H9.5l3.36-5.088V0H15.3V-11.648h-2.64L9.5-6.608l-3.152-5.04H3.7ZM18.28,0h8.832V-2.192h-6.4V-4.768H26.28V-6.96H20.712v-2.5h6.32v-2.192H18.28ZM29.56,0h2.448V-3.792h2.128L36.712,0h2.88L36.68-4.208a3.591,3.591,0,0,0,2.544-3.6V-7.84a3.615,3.615,0,0,0-.976-2.624,4.644,4.644,0,0,0-3.392-1.184h-5.3Zm2.448-5.968V-9.424h2.64c1.3,0,2.1.592,2.1,1.712v.032c0,1.024-.768,1.712-2.048,1.712ZM47.16.192a5.993,5.993,0,0,0,4.768-2.064L50.36-3.456a4.271,4.271,0,0,1-3.12,1.392,3.559,3.559,0,0,1-3.472-3.76v-.032A3.551,3.551,0,0,1,47.24-9.584,4.361,4.361,0,0,1,50.28-8.24l1.568-1.808a6,6,0,0,0-4.592-1.792,5.911,5.911,0,0,0-6.064,6.016v.032A5.872,5.872,0,0,0,47.16.192ZM59.368,0h2.464V-11.648H59.368Zm5.28,0H67.08V-4.976c0-1.232.656-1.888,1.664-1.888s1.6.656,1.6,1.888V0h2.432V-5.744c0-2.048-1.136-3.312-3.056-3.312a3.176,3.176,0,0,0-2.64,1.44V-8.9H64.648ZM79.32.192A4.461,4.461,0,0,0,82.952-1.44L81.528-2.864a2.912,2.912,0,0,1-2.1.976A2.362,2.362,0,0,1,77.1-4.432v-.032a2.341,2.341,0,0,1,2.24-2.5A2.665,2.665,0,0,1,81.4-5.952l1.5-1.6a4.4,4.4,0,0,0-3.552-1.5A4.563,4.563,0,0,0,74.7-4.432V-4.4A4.53,4.53,0,0,0,79.32.192ZM84.664,0h2.592V-2.592H84.664Z" transform="translate(87.416 12.144)" fill="#fff"/>
</svg>
