<svg xmlns="http://www.w3.org/2000/svg" width="12.32" height="104.928" viewBox="0 0 12.32 104.928">
  <path id="txt_interview_02" d="M-52.168,0H-49.7V-11.648h-2.464Zm5.28,0h2.432V-4.976c0-1.232.656-1.888,1.664-1.888s1.6.656,1.6,1.888V0h2.432V-5.744c0-2.048-1.136-3.312-3.056-3.312a3.176,3.176,0,0,0-2.64,1.44V-8.9h-2.432ZM-33.4.144a3.7,3.7,0,0,0,1.952-.5V-2.3A2.665,2.665,0,0,1-32.7-2c-.592,0-.864-.288-.864-.912v-3.9h2.144V-8.9H-33.56v-2.3h-2.432v2.3h-1.072v2.08h1.072v4.3C-35.992-.464-34.936.144-33.4.144Zm7.968.048A4.444,4.444,0,0,0-21.8-1.456l-1.392-1.232A2.965,2.965,0,0,1-25.4-1.76,2.119,2.119,0,0,1-27.64-3.6h6.256c.016-.224.032-.448.032-.64,0-2.528-1.376-4.816-4.32-4.816a4.417,4.417,0,0,0-4.384,4.624V-4.4A4.436,4.436,0,0,0-25.432.192Zm-2.24-5.312a2.058,2.058,0,0,1,2-1.984A2,2,0,0,1-23.72-5.12ZM-19.32,0h2.432V-3.312c0-2.16,1.072-3.2,2.768-3.2h.128V-9.056a2.833,2.833,0,0,0-2.9,2V-8.9H-19.32Zm9.808.064H-7.32L-3.784-8.9H-6.312l-2.1,6.08L-10.472-8.9h-2.576ZM-2.1-9.952H.456v-2.176H-2.1ZM-2.024,0H.392V-8.9H-2.024ZM7.144.192a4.444,4.444,0,0,0,3.632-1.648L9.384-2.688a2.965,2.965,0,0,1-2.208.928A2.119,2.119,0,0,1,4.936-3.6h6.256c.016-.224.032-.448.032-.64,0-2.528-1.376-4.816-4.32-4.816A4.417,4.417,0,0,0,2.52-4.432V-4.4A4.436,4.436,0,0,0,7.144.192ZM4.9-5.12A2.058,2.058,0,0,1,6.9-7.1,2,2,0,0,1,8.856-5.12ZM14.888.064h2.176L18.856-5.52,20.616.064h2.192l2.8-8.96H23.192L21.656-3.344,19.912-8.928h-2.08L16.088-3.36,14.6-8.9H12.136ZM37.32.192c3.1,0,5.168-2.656,5.168-6.016v-.032c0-3.376-2.064-5.984-5.136-5.984-3.088,0-5.168,2.656-5.168,6.016v.032C32.184-2.416,34.216.192,37.32.192Zm.032-2.208c-1.6,0-2.64-1.648-2.64-3.808v-.032c0-2.16,1.024-3.776,2.608-3.776s2.64,1.664,2.64,3.808v.032C39.96-3.648,38.952-2.016,37.352-2.016ZM44.184,0H52.76V-2.128H47.592l2-1.568c2.064-1.616,3.056-2.592,3.056-4.512V-8.24c0-2.16-1.6-3.568-3.984-3.568a4.807,4.807,0,0,0-4.32,2.416l1.728,1.376c.864-1.072,1.5-1.6,2.432-1.6a1.5,1.5,0,0,1,1.632,1.584c0,.976-.576,1.632-2.048,2.864l-3.9,3.216Z" transform="translate(0.192 52.168) rotate(90)" fill="#333"/>
</svg>
