<svg xmlns="http://www.w3.org/2000/svg" width="66.92" height="29.32" viewBox="0 0 66.92 29.32">
  <path id="txt_q9" d="M32.28-3.52,29.4-5.96A14.364,14.364,0,0,0,31.88-14v-.08c0-7.96-6.2-14.4-14.84-14.4S2.12-21.96,2.12-14v.08C2.12-5.96,8.32.48,16.96.48a15.26,15.26,0,0,0,8.32-2.4L28.36.84ZM17.04-5.2A8.507,8.507,0,0,1,8.56-14v-.08a8.374,8.374,0,0,1,8.4-8.72A8.507,8.507,0,0,1,25.44-14v.08a9.812,9.812,0,0,1-.76,3.84l-4.6-4.16-3.92,4.4,4.56,3.88A8.414,8.414,0,0,1,17.04-5.2Zm29.2.08a9.063,9.063,0,0,1-6.12-2.4L36.88-2.84A13.526,13.526,0,0,0,46.08.48c7.96,0,12.24-6.2,12.24-15.28v-.08c0-5.52-1.32-8.56-3.32-10.56-2.12-2.12-4.32-3.04-8.08-3.04-6.32,0-10.68,4.16-10.68,9.8v.08c0,5.68,3.92,9.04,10,9.04a8.534,8.534,0,0,0,5.68-1.92C51.68-9.08,50.48-5.12,46.24-5.12Zm1-9.56c-3.04,0-4.88-1.72-4.88-4.2v-.08c0-2.48,1.72-4.24,4.76-4.24,3.08,0,4.92,1.8,4.92,4.28v.08C52.04-16.44,50.28-14.68,47.24-14.68ZM62.56,0h6.48V-6.4H62.56Z" transform="translate(-2.12 28.48)" fill="#333"/>
</svg>
