<svg xmlns="http://www.w3.org/2000/svg" width="42.88" height="15.24" viewBox="0 0 42.88 15.24">
  <path id="txt_faq" d="M-21.01,0h3.06V-5.7h7.04V-8.5h-7.04v-3.26h7.96v-2.8H-21.01Zm10.94,0h3.14l1.36-3.32H.73L2.09,0H5.31L-.95-14.66H-3.79Zm5.6-6.04,2.06-4.94L-.37-6.04Zm26.34,4.3-1.52-1.3a7.447,7.447,0,0,0,1.32-4.24v-.04a7.446,7.446,0,0,0-7.7-7.48A7.525,7.525,0,0,0,6.23-7.28v.04A7.446,7.446,0,0,0,13.93.24a7.861,7.861,0,0,0,4.34-1.28L19.91.44Zm-7.9-.84a4.544,4.544,0,0,1-4.52-4.7v-.04a4.477,4.477,0,0,1,4.48-4.66,4.544,4.544,0,0,1,4.52,4.7v.04a5.1,5.1,0,0,1-.46,2.16l-2.42-2.2-1.96,2.2,2.4,2.06A4.774,4.774,0,0,1,13.97-2.58Z" transform="translate(21.01 14.8)" fill="#e84830"/>
</svg>
