<svg xmlns="http://www.w3.org/2000/svg" width="86.12" height="29.32" viewBox="0 0 86.12 29.32">
  <path id="txt_q10" d="M32.28-3.52,29.4-5.96A14.364,14.364,0,0,0,31.88-14v-.08c0-7.96-6.2-14.4-14.84-14.4S2.12-21.96,2.12-14v.08C2.12-5.96,8.32.48,16.96.48a15.26,15.26,0,0,0,8.32-2.4L28.36.84ZM17.04-5.2A8.507,8.507,0,0,1,8.56-14v-.08a8.374,8.374,0,0,1,8.4-8.72A8.507,8.507,0,0,1,25.44-14v.08a9.812,9.812,0,0,1-.76,3.84l-4.6-4.16-3.92,4.4,4.56,3.88A8.414,8.414,0,0,1,17.04-5.2ZM41.12,0H47.2V-28.2H43l-8.04,2.4,1.28,5.04,4.88-1.2ZM65.44.48C72.92.48,77.92-5.88,77.92-14v-.08c0-8.12-5-14.4-12.4-14.4-7.44,0-12.48,6.36-12.48,14.48v.08C53.04-5.8,57.96.48,65.44.48Zm.08-5.56c-3.72,0-6.16-3.8-6.16-8.92v-.08c0-5.12,2.4-8.84,6.08-8.84S71.6-19.08,71.6-14v.08C71.6-8.84,69.24-5.08,65.52-5.08ZM81.76,0h6.48V-6.4H81.76Z" transform="translate(-2.12 28.48)" fill="#333"/>
</svg>
