<svg xmlns="http://www.w3.org/2000/svg" width="66.04" height="29.32" viewBox="0 0 66.04 29.32">
  <path id="txt_q5" d="M32.28-3.52,29.4-5.96A14.364,14.364,0,0,0,31.88-14v-.08c0-7.96-6.2-14.4-14.84-14.4S2.12-21.96,2.12-14v.08C2.12-5.96,8.32.48,16.96.48a15.26,15.26,0,0,0,8.32-2.4L28.36.84ZM17.04-5.2A8.507,8.507,0,0,1,8.56-14v-.08a8.374,8.374,0,0,1,8.4-8.72A8.507,8.507,0,0,1,25.44-14v.08a9.812,9.812,0,0,1-.76,3.84l-4.6-4.16-3.92,4.4,4.56,3.88A8.414,8.414,0,0,1,17.04-5.2ZM46.2.48c6.44,0,10.64-3.76,10.64-9.68v-.08c0-6.32-4.36-8.96-9.8-8.96a13.7,13.7,0,0,0-3.68.48l.32-4.84H55.6V-28H38.4l-.8,13.8,3.56,2.36a12.025,12.025,0,0,1,4.68-1.04c2.92,0,4.96,1.4,4.96,3.8V-9c0,2.48-1.8,3.88-4.68,3.88-2.48,0-4.56-1.12-6.68-3.04L35.72-3.72A14.4,14.4,0,0,0,46.2.48ZM61.68,0h6.48V-6.4H61.68Z" transform="translate(-2.12 28.48)" fill="#333"/>
</svg>
