<svg xmlns="http://www.w3.org/2000/svg" width="34.743" height="24.679" viewBox="0 0 34.743 24.679"><g transform="translate(-664.476 -14430.575)"><rect width="33.243" height="23.178" rx="2.78" transform="translate(665.226 14431.325)" fill="none" stroke="#fff" stroke-linecap="round" stroke-linejoin="round" stroke-width="1.5"/><path d="M3.266,32.905c-.731,0-.9-.414-.369-.92L17.6,17.9a1.4,1.4,0,0,1,1.92,0l14.7,14.081c.528.506.362.92-.369.92Z" transform="translate(663.29 14421.598)" fill="#011b39" stroke="#707070" stroke-width="1.5"/><path d="M3.266,32.905c-.731,0-.9-.414-.369-.92L17.6,17.9a1.4,1.4,0,0,1,1.92,0l14.7,14.081c.528.506.362.92-.369.92Z" transform="translate(663.29 14421.598)" fill="none" stroke="#fff" stroke-linecap="round" stroke-linejoin="round" stroke-width="1.5"/><path d="M33.849,1.226c.731,0,.9.414.369.92l-14.7,14.081a1.4,1.4,0,0,1-1.92,0L2.9,2.146c-.528-.506-.362-.92.369-.92Z" transform="translate(663.29 14430.1)" fill="#011b39" stroke="#707070" stroke-width="1.5"/><path d="M33.849,1.226c.731,0,.9.414.369.92l-14.7,14.081a1.4,1.4,0,0,1-1.92,0L2.9,2.146c-.528-.506-.362-.92.369-.92Z" transform="translate(663.29 14430.1)" fill="none" stroke="#fff" stroke-linecap="round" stroke-linejoin="round" stroke-width="1.5"/></g></svg>