<svg xmlns="http://www.w3.org/2000/svg" viewBox="0 0 163.3 57.41"><defs><style>.cls-1{fill:#c83015;}.cls-2{fill:#1d2d44;}.cls-3{fill:#b4d6d3;}.cls-4{fill:#221f20;}</style></defs><g id="レイヤー_2" data-name="レイヤー 2"><g id="イラスト"><g id="footer_logo"><path class="cls-1" d="M62.09,31.05H50.6a19.56,19.56,0,1,0-39.11,0H0a31,31,0,1,1,62.09,0Z"/><path class="cls-2" d="M112.7,31.05H101.21a19.56,19.56,0,1,0-39.12,0H50.6a31.05,31.05,0,0,1,62.1,0Z"/><path class="cls-3" d="M163.3,31.05H151.81a19.56,19.56,0,1,0-39.11,0H101.21a31,31,0,1,1,62.09,0Z"/><path class="cls-4" d="M98.12,54.47H92V46.29h6.13v1.5h-4.6v1.88H98V51.1H93.52V53h4.6Z"/><path class="cls-4" d="M105.77,46.3v8.17h-1.43v-.79a2.08,2.08,0,0,1-1.85.92,2.83,2.83,0,0,1-3-3,2.76,2.76,0,0,1,2.93-3,2.38,2.38,0,0,1,1.89.92V46.3Zm-4.83,5.28a1.66,1.66,0,1,0,3.31,0,1.64,1.64,0,0,0-1.67-1.68A1.59,1.59,0,0,0,100.94,51.58Z"/><path class="cls-4" d="M109.05,48.71v3a1.38,1.38,0,0,0,1.4,1.55,1.52,1.52,0,0,0,1.47-1.62V48.71h1.41v5.77h-1.27L112,53.7a2.6,2.6,0,0,1-2,.86c-1.38,0-2.38-1-2.38-2.82v-3Z"/><path class="cls-4" d="M120.12,53.73a3,3,0,0,1-2.22.92,3.05,3.05,0,1,1,0-6.1,2.73,2.73,0,0,1,2.08.85l-.9,1a1.73,1.73,0,0,0-1.16-.46,1.62,1.62,0,0,0-1.65,1.71,1.57,1.57,0,0,0,1.63,1.68,1.72,1.72,0,0,0,1.26-.48Z"/><path class="cls-4" d="M125.86,48.71h1.41v5.76h-1.41v-.84a2.21,2.21,0,0,1-1.87,1,3,3,0,0,1,0-6.08,2.11,2.11,0,0,1,1.83.93Zm-3.41,2.87a1.65,1.65,0,0,0,1.7,1.76,1.75,1.75,0,0,0,0-3.5A1.64,1.64,0,0,0,122.45,51.58Z"/><path class="cls-4" d="M131.66,54.54a2.14,2.14,0,0,1-2.4-2.1V50h-.37V48.72h.37V46.27h1.43v2.45h.53V50h-.54v2.49a.9.9,0,0,0,1,.82Z"/><path class="cls-4" d="M134.38,46.35v1.34H133V46.35ZM133,48.69v5.78h1.42V48.69Z"/><path class="cls-4" d="M142,51.6a3,3,0,1,1-3-3A2.92,2.92,0,0,1,142,51.6Zm-4.57,0a1.57,1.57,0,1,0,3.13,0A1.62,1.62,0,0,0,139,49.89,1.59,1.59,0,0,0,137.43,51.6Z"/><path class="cls-4" d="M147.81,54.47v-3a1.38,1.38,0,0,0-1.39-1.55,1.41,1.41,0,0,0-1.47,1.5v3.06h-1.42V48.7h1.37v.66a2.47,2.47,0,0,1,1.89-.74c1.36,0,2.45,1,2.45,2.82v3Z"/><path class="cls-4" d="M47.28,51c.24,1.78,1.92,3.07,4.43,3.07a6,6,0,0,0,3.85-1.34L57.84,55a8.83,8.83,0,0,1-6.19,2.34c-6.06,0-8.12-4-8.12-7.77A7.83,7.83,0,1,1,59.06,51Zm8.51-2.95a4.05,4.05,0,0,0-4.29-2.94,4.14,4.14,0,0,0-4.16,2.94Z"/><path class="cls-4" d="M70.11,45.75c-1.93,0-4.19,1-4.19,3.77v7.83H62.24V42.5h3.68v1.72a4.37,4.37,0,0,1,4.19-2.11Z"/><path class="cls-4" d="M84.64,55.07a7.87,7.87,0,0,1-5.76,2.34c-4.69,0-7.65-3.24-7.65-7.83a7.84,7.84,0,0,1,7.65-7.82,7.94,7.94,0,0,1,5.4,2L82,46.12a4.78,4.78,0,0,0-3.1-1,4.25,4.25,0,0,0-4.14,4.5A4.1,4.1,0,0,0,78.88,54a4.89,4.89,0,0,0,3.37-1.27Z"/><path class="cls-4" d="M33.37,41.34A7.72,7.72,0,0,0,27.58,44a7.72,7.72,0,0,0-13.52,5.11v8.28H18V49.07a3.85,3.85,0,0,1,7.69,0v8.28h3.88V49.07a3.85,3.85,0,0,1,7.69,0v8.28h3.88V49.07A7.73,7.73,0,0,0,33.37,41.34Z"/></g></g></g></svg>