<svg xmlns="http://www.w3.org/2000/svg" viewBox="0 0 51.95 51.95"><defs><style>.cls-1{fill:#7ac7c6;}.cls-2{fill:none;stroke:#fff;stroke-linecap:round;stroke-linejoin:round;stroke-width:1.5px;}</style></defs><g id="レイヤー_2" data-name="レイヤー 2"><g id="イラスト"><g id="icon03"><circle class="cls-1" cx="25.97" cy="25.97" r="25.97"/><rect class="cls-2" x="17.12" y="18.2" width="17.71" height="11.81" rx="1.24"/><path class="cls-2" d="M17.49,18.56l5.93,5.55,1.47,1.37a1.58,1.58,0,0,0,2.16,0l1.47-1.37,5.93-5.55"/><line class="cls-2" x1="23.42" y1="24.11" x2="17.49" y2="29.66"/><line class="cls-2" x1="34.45" y1="29.66" x2="28.52" y2="24.11"/><path class="cls-2" d="M20.89,36.57a5.71,5.71,0,0,1-.66,3.49,2.84,2.84,0,0,1-1.58,1.19c-.5.19-.37,1-.11,1H33.4c.27,0,.4-.86-.11-1a2.9,2.9,0,0,1-1.58-1.19,5.78,5.78,0,0,1-.66-3.49"/><path class="cls-2" d="M41.58,14.43V33.79H10.36V14.43Zm2-2.78H8.39a.81.81,0,0,0-.81.82V35.75a.82.82,0,0,0,.81.82H43.56a.81.81,0,0,0,.8-.82V12.47a.81.81,0,0,0-.8-.82Z"/></g></g></g></svg>