<?xml version="1.0" encoding="utf-8"?>
<!-- Generator: Adobe Illustrator 26.5.0, SVG Export Plug-In . SVG Version: 6.00 Build 0)  -->
<svg version="1.1" id="_レイヤー_2" xmlns="http://www.w3.org/2000/svg" xmlns:xlink="http://www.w3.org/1999/xlink" x="0px"
	 y="0px" viewBox="0 0 200 48.5" style="enable-background:new 0 0 200 48.5;" xml:space="preserve">
<style type="text/css">
	.st0{fill:#261A71;}
	.st1{fill:#FABF00;}
	.st2{fill:#1E1E1E;}
</style>
<g id="_レイヤー_1-2">
	<g>
		<path class="st0" d="M45.5,48.5c-0.9,0-1.7-0.8-1.7-1.7V17.2L11,38.5C10.2,39,9.2,38.8,8.7,38c-0.5-0.8-0.3-1.8,0.5-2.3l35.4-23
			c0.5-0.3,1.2-0.4,1.7-0.1s0.9,0.9,0.9,1.5v32.8C47.1,47.8,46.4,48.5,45.5,48.5z"/>
		<path class="st0" d="M10.1,26.4c-0.6,0-1.1-0.3-1.4-0.8c-0.5-0.8-0.3-1.8,0.5-2.3l35.4-23c0.8-0.5,1.8-0.3,2.3,0.5
			s0.3,1.8-0.5,2.3L11,26.1C10.7,26.3,10.4,26.4,10.1,26.4z"/>
		<path class="st1" d="M1.7,48.5c-0.9,0-1.7-0.8-1.7-1.7V1.7c0-0.6,0.3-1.2,0.9-1.5c0.5-0.3,1.2-0.3,1.7,0.1l13.9,8.9
			c0.8,0.5,1,1.5,0.5,2.3c-0.5,0.8-1.5,1-2.3,0.5L3.3,4.7v42.1C3.3,47.8,2.6,48.5,1.7,48.5z"/>
	</g>
	<g>
		<path class="st2" d="M74.8,9.6H82l8,12.9l8-12.9h7.2v30.5h-6.7V20.2l-8.6,13h-0.2l-8.5-12.9v19.8h-6.6L74.8,9.6L74.8,9.6z"/>
		<path class="st2" d="M112.6,9.6h23v6h-16.3v6.2h14.4v6h-14.4v6.4h16.5v6h-23.2L112.6,9.6L112.6,9.6z"/>
		<path class="st2" d="M141.7,9.6h13.9c3.9,0,6.9,1.1,8.9,3.1c1.7,1.7,2.6,4.1,2.6,7v0.1c0,4.9-2.7,8-6.5,9.5l7.4,10.9h-7.8
			l-6.5-9.8h-5.3v9.8h-6.7L141.7,9.6L141.7,9.6z M155.2,24.4c3.3,0,5.1-1.7,5.1-4.3V20c0-2.9-2-4.4-5.3-4.4h-6.7v8.8H155.2
			L155.2,24.4z"/>
		<path class="st2" d="M171.9,24.9L171.9,24.9c0-8.8,6.5-15.9,15.9-15.9c5.8,0,9.2,1.9,12,4.7l-4.3,4.9c-2.4-2.1-4.8-3.4-7.8-3.4
			c-5.1,0-8.8,4.3-8.8,9.5v0.1c0,5.2,3.6,9.6,8.8,9.6c3.5,0,5.6-1.4,8-3.6l4.3,4.3c-3.1,3.3-6.6,5.4-12.5,5.4
			C178.5,40.6,171.9,33.7,171.9,24.9z"/>
	</g>
</g>
</svg>
