<svg xmlns="http://www.w3.org/2000/svg" width="50" height="50" viewBox="0 0 50 50">
  <g id="グループ_7796" data-name="グループ 7796" transform="translate(-315)">
    <circle id="楕円形_362" data-name="楕円形 362" cx="25" cy="25" r="25" transform="translate(315)" fill="#efd774"/>
    <path id="パス_14314" data-name="パス 14314" d="M-10.308,0H-8.46V-7.032h2.676v-1.7H-13v1.7h2.688ZM-.324.144A4.515,4.515,0,0,0,4.32-4.368v-.024A4.468,4.468,0,0,0-.3-8.88,4.515,4.515,0,0,0-4.944-4.368v.024A4.468,4.468,0,0,0-.324.144ZM-.3-1.548a2.726,2.726,0,0,1-2.712-2.82v-.024a2.686,2.686,0,0,1,2.688-2.8,2.726,2.726,0,0,1,2.712,2.82v.024A2.686,2.686,0,0,1-.3-1.548ZM6.156,0H7.992V-2.664H9.516c1.944,0,3.516-1.032,3.516-3.048v-.024c0-1.776-1.26-3-3.336-3H6.156ZM7.992-4.308v-2.76H9.54c1,0,1.632.48,1.632,1.368v.024a1.414,1.414,0,0,1-1.6,1.368Z" transform="translate(339.85 30.309)" fill="#002a5c"/>
  </g>
</svg>
