<svg xmlns="http://www.w3.org/2000/svg" width="296.454" height="35" viewBox="0 0 296.454 35">
  <g id="グループ_7506" data-name="グループ 7506" transform="translate(12409.979 -621.306)">
    <path id="パス_13958" data-name="パス 13958" d="M230.4,34.365h5.214l5.781,9.3,5.78-9.3h5.215v21.99h-4.806V42L241.4,51.392h-.126l-6.126-9.3V56.355H230.4Z" transform="translate(-12593.878 593.877)" fill="#fff"/>
    <path id="パス_13960" data-name="パス 13960" d="M365.5,34.365H382.09v4.3H370.31V43.13h10.366v4.3H370.31v4.618h11.937v4.3H365.5Z" transform="translate(-12701.709 593.877)" fill="#fff"/>
    <path id="パス_13961" data-name="パス 13961" d="M469.786,34.365h10.052a8.763,8.763,0,0,1,6.408,2.231,6.9,6.9,0,0,1,1.885,5.026v.063A6.829,6.829,0,0,1,483.42,48.5l5.371,7.853h-5.654l-4.712-7.037h-3.8v7.037h-4.838Zm9.738,10.681c2.356,0,3.707-1.257,3.707-3.11v-.063c0-2.073-1.445-3.141-3.8-3.141h-4.806v6.314Z" transform="translate(-12784.942 593.877)" fill="#fff"/>
    <path id="パス_13962" data-name="パス 13962" d="M577.491,43.933V43.87A11.176,11.176,0,0,1,588.957,32.5a11.346,11.346,0,0,1,8.671,3.393l-3.079,3.55a8.116,8.116,0,0,0-5.623-2.481c-3.707,0-6.377,3.078-6.377,6.848v.063c0,3.77,2.607,6.911,6.377,6.911,2.513,0,4.052-1.005,5.78-2.576l3.079,3.11a11.241,11.241,0,0,1-9.016,3.926,11.1,11.1,0,0,1-11.278-11.309" transform="translate(-12870.908 595.367)" fill="#fff"/>
    <path id="パス_13963" data-name="パス 13963" d="M721.206,34.365h15.643v1.508h-14.01v8.639h12.6V46.02h-12.6v8.827h14.168v1.508h-15.8Z" transform="translate(-12985.616 593.877)" fill="#fff"/>
    <path id="パス_13964" data-name="パス 13964" d="M818.635,44.68v-.063a8.014,8.014,0,0,1,7.792-8.387,7.707,7.707,0,0,1,6.6,3.832V29.7h1.539V52.628h-1.539V49.047c-1.383,2.1-3.425,3.958-6.6,3.958a7.957,7.957,0,0,1-7.792-8.325m14.483-.031v-.063a6.69,6.69,0,0,0-6.535-6.88c-3.487,0-6.283,2.545-6.283,6.849v.062c0,4.21,2.922,6.911,6.283,6.911a6.711,6.711,0,0,0,6.535-6.88" transform="translate(-13063.38 597.604)" fill="#fff"/>
    <path id="パス_13965" data-name="パス 13965" d="M924.942,73.737v-9.8h1.539v9.518c0,3.3,1.854,5.466,5.09,5.466a5.493,5.493,0,0,0,5.56-5.718V63.936h1.539V79.957h-1.539V76.973a6.273,6.273,0,0,1-5.78,3.361c-4.053,0-6.409-2.764-6.409-6.6" transform="translate(-13148.229 570.275)" fill="#fff"/>
    <path id="パス_13966" data-name="パス 13966" d="M1016.459,70.519v-.063a8.32,8.32,0,0,1,8.168-8.387,8.408,8.408,0,0,1,6.408,2.953l-1.1,1.131a7.217,7.217,0,0,0-5.34-2.639,6.62,6.62,0,0,0-6.471,6.88v.062a6.737,6.737,0,0,0,6.6,6.943,7.159,7.159,0,0,0,5.372-2.67l1.068.942a8.216,8.216,0,0,1-14.7-5.152" transform="translate(-13221.274 571.765)" fill="#fff"/>
    <path id="パス_13967" data-name="パス 13967" d="M1104.243,74.312v-.063c0-3.33,2.858-5.214,7-5.214a19.3,19.3,0,0,1,5.31.691v-.691c0-3.236-1.98-4.9-5.278-4.9a10.737,10.737,0,0,0-5.026,1.288l-.565-1.351a12.869,12.869,0,0,1,5.686-1.383,6.923,6.923,0,0,1,5.058,1.759,6.084,6.084,0,0,1,1.633,4.524v9.99h-1.507v-2.67a7.287,7.287,0,0,1-6.126,3.047c-2.985,0-6.189-1.7-6.189-5.026m12.345-1.351V71.14a21.222,21.222,0,0,0-5.434-.723c-3.393,0-5.278,1.508-5.278,3.738v.063c0,2.324,2.2,3.675,4.65,3.675,3.266,0,6.062-2.011,6.062-4.932" transform="translate(-13291.34 571.27)" fill="#fff"/>
    <path id="パス_13968" data-name="パス 13968" d="M1195.126,55.593V45.1H1192.8V43.687h2.325v-5.12h1.539v5.12h5.622V45.1h-5.622V55.436c0,2.293,1.351,3.11,3.2,3.11a5.365,5.365,0,0,0,2.356-.566v1.445a5.887,5.887,0,0,1-2.608.566c-2.481,0-4.491-1.351-4.491-4.4" transform="translate(-13362.023 590.523)" fill="#fff"/>
    <path id="パス_13969" data-name="パス 13969" d="M1262.532,32.807h1.917v2.105h-1.917Zm.188,6.283h1.539V55.111h-1.539Z" transform="translate(-13417.681 595.12)" fill="#fff"/>
    <path id="パス_13970" data-name="パス 13970" d="M1295.682,70.519v-.063a8.278,8.278,0,0,1,8.262-8.387,8.191,8.191,0,0,1,8.2,8.325v.062a8.278,8.278,0,0,1-8.262,8.388,8.192,8.192,0,0,1-8.2-8.325m14.8,0v-.063a6.717,6.717,0,0,0-6.6-6.942,6.61,6.61,0,0,0-6.535,6.88v.062a6.717,6.717,0,0,0,6.6,6.943,6.609,6.609,0,0,0,6.534-6.88" transform="translate(-13444.14 571.765)" fill="#fff"/>
    <path id="パス_13971" data-name="パス 13971" d="M1400.742,62.446h1.539V65.43a6.275,6.275,0,0,1,5.781-3.361c4.052,0,6.408,2.764,6.408,6.6v9.8h-1.539V68.948c0-3.3-1.853-5.466-5.089-5.466a5.493,5.493,0,0,0-5.561,5.718v9.267h-1.539Z" transform="translate(-13527.994 571.765)" fill="#fff"/>
    <path id="パス_13959" data-name="パス 13959" d="M56.885,70.419a1.2,1.2,0,0,1-1.2-1.2V47.8L32.033,63.2a1.2,1.2,0,0,1-1.314-2.019L56.228,44.571a1.2,1.2,0,0,1,1.861,1.009V69.215a1.2,1.2,0,0,1-1.2,1.2" transform="translate(-12434.061 585.886)" fill="#fff"/>
    <path id="パス_13957" data-name="パス 13957" d="M31.376,19.023a1.2,1.2,0,0,1-.658-2.214L56.227.2a1.2,1.2,0,0,1,1.314,2.019L32.032,18.829a1.2,1.2,0,0,1-.656.195" transform="translate(-12434.06 621.306)" fill="#fff"/>
    <path id="パス_13956" data-name="パス 13956" d="M1.2,35A1.2,1.2,0,0,1,0,33.8V1.2A1.2,1.2,0,0,1,1.854.19l10,6.405a1.2,1.2,0,1,1-1.3,2.028L2.408,3.406V33.8A1.2,1.2,0,0,1,1.2,35" transform="translate(-12409.979 621.306)" fill="#e84730"/>
  </g>
</svg>
