<svg xmlns="http://www.w3.org/2000/svg" width="1088.504" height="91.028" viewBox="0 0 1088.504 91.028"><g transform="translate(-410 -6347.572)"><g transform="translate(-70 4153)"><g transform="translate(170 -134.141)"><path d="M-44.175-15.72h15.68v2.38h-13.28V1.78h-2.4Zm14.54,0h2.42v14.7a3.861,3.861,0,0,1-.24,1.51,1.7,1.7,0,0,1-.86.85,4.305,4.305,0,0,1-1.55.37q-.93.07-2.27.07a6.132,6.132,0,0,0-.2-.78q-.14-.44-.32-.87a7.25,7.25,0,0,0-.36-.75q.58.04,1.17.05t1.05.01h.64a.658.658,0,0,0,.4-.13.484.484,0,0,0,.12-.37Zm-13.24,7.44h14.42v2.36h-14.42Zm5.84-6.14h2.4V-7.1h-2.4ZM-13.5-6.46a11.441,11.441,0,0,1,.459-3.332,11.037,11.037,0,0,1,1.224-2.72,12.2,12.2,0,0,1,1.666-2.108l1.615.714a12.514,12.514,0,0,0-1.538,2.014,10.388,10.388,0,0,0-1.1,2.457,10.207,10.207,0,0,0-.408,2.975,10.23,10.23,0,0,0,.408,2.967,10.187,10.187,0,0,0,1.1,2.457A13.389,13.389,0,0,0-8.54.986l-1.615.714A12.2,12.2,0,0,1-11.821-.408a11.037,11.037,0,0,1-1.224-2.72A11.441,11.441,0,0,1-13.5-6.46ZM.589-13.685l1.683-.731a15.316,15.316,0,0,1,.927,1.47,6.678,6.678,0,0,1,.62,1.42l-1.785.8a8.588,8.588,0,0,0-.587-1.428A17.329,17.329,0,0,0,.589-13.685Zm6.239-.782,2.091.7q-.459.8-.918,1.564T7.134-10.88l-1.717-.646q.255-.408.519-.918t.5-1.037A10.414,10.414,0,0,0,6.828-14.467ZM2.017-5.559H4.023a18.938,18.938,0,0,1-.289,2.21,8.38,8.38,0,0,1-.629,1.964A5.629,5.629,0,0,1,1.924.264,6.738,6.738,0,0,1-.04,1.547,3.842,3.842,0,0,0-.558.7a5.638,5.638,0,0,0-.688-.765A5.232,5.232,0,0,0,.394-1.054a4.181,4.181,0,0,0,.952-1.284,5.807,5.807,0,0,0,.467-1.513Q1.949-4.658,2.017-5.559Zm2.89-.255H6.879v4.709a1.584,1.584,0,0,0,.042.485q.042.094.212.094h.544a.218.218,0,0,0,.2-.136,1.841,1.841,0,0,0,.1-.57q.034-.433.051-1.335a2.131,2.131,0,0,0,.5.323,6.1,6.1,0,0,0,.655.272q.34.119.578.187A8.008,8.008,0,0,1,9.489.094a1.767,1.767,0,0,1-.6.944,1.678,1.678,0,0,1-.995.272H6.777a2.377,2.377,0,0,1-1.165-.23A1.213,1.213,0,0,1,5.06.331a5.217,5.217,0,0,1-.153-1.42ZM2.561-9.265v2.312H6.777V-9.265ZM.623-11.05H8.8v5.882H.623Zm-4.4-1.8h1.972V1.513H-3.78Zm-2.448,3.2H.011v1.887H-6.228Zm2.55.765,1.19.51q-.238.918-.578,1.9t-.748,1.946q-.408.961-.867,1.811a10.432,10.432,0,0,1-.952,1.479,8.061,8.061,0,0,0-.433-.995q-.28-.553-.518-.944a9.813,9.813,0,0,0,.875-1.2q.434-.688.825-1.47t.7-1.564Q-3.882-8.194-3.678-8.891Zm2.533-5.372L.232-12.7q-.867.323-1.9.6t-2.117.467q-1.08.2-2.066.332a5.151,5.151,0,0,0-.238-.791,6.931,6.931,0,0,0-.34-.773q.935-.153,1.913-.365t1.853-.485Q-1.791-13.991-1.145-14.263Zm-.7,6.97a5.828,5.828,0,0,1,.468.433q.314.315.68.689t.655.688q.289.315.425.451L-.788-3.417q-.153-.323-.4-.731T-1.714-5q-.28-.442-.552-.842t-.476-.655Zm19.635-6.443h3.6V-11.8h-3.6Zm2.567,0H22.5a32.5,32.5,0,0,0,.374,3.468,15.312,15.312,0,0,0,.816,3.052A8.917,8.917,0,0,0,25.12-4.743a6.86,6.86,0,0,0,2.227,1.751,4.7,4.7,0,0,0-.552.442q-.3.272-.578.57a5.943,5.943,0,0,0-.467.553,8.175,8.175,0,0,1-2.278-2,10.392,10.392,0,0,1-1.487-2.66,16.967,16.967,0,0,1-.867-3.179,32.809,32.809,0,0,1-.416-3.553h-.34Zm-.051,3.553,2.091.289a16.957,16.957,0,0,1-1.717,5.015A10.151,10.151,0,0,1,17.64-1.411a5.375,5.375,0,0,0-.434-.493q-.281-.289-.595-.587a5.42,5.42,0,0,0-.552-.467,7.707,7.707,0,0,0,2.813-2.924A13.307,13.307,0,0,0,20.309-10.183ZM15.634-7.82v6.273H13.645V-5.933H11.673V-7.82Zm0,5.389a3.09,3.09,0,0,0,1.479,1.224,6.67,6.67,0,0,0,2.278.442q.748.034,1.777.043t2.167-.008Q24.474-.748,25.57-.8t1.947-.119q-.1.238-.238.612t-.247.765a6.576,6.576,0,0,0-.162.7q-.765.051-1.751.077T23.1,1.266q-1.037.009-2.006-.008t-1.734-.051A8.668,8.668,0,0,1,16.688.723a4.808,4.808,0,0,1-1.955-1.4q-.561.476-1.148.986T12.3,1.36l-1-2.125q.595-.357,1.241-.782t1.241-.884ZM11.69-12.818,13.2-14.042a11.242,11.242,0,0,1,1.071.791q.544.451,1.02.918a7.417,7.417,0,0,1,.765.859l-1.615,1.36A5.774,5.774,0,0,0,13.738-11q-.451-.476-.995-.96T11.69-12.818ZM34.5-6.46a11.441,11.441,0,0,1-.459,3.332,11.236,11.236,0,0,1-1.215,2.72A11.471,11.471,0,0,1,31.155,1.7L29.54.986a13.389,13.389,0,0,0,1.539-2.023,10.187,10.187,0,0,0,1.1-2.457,10.23,10.23,0,0,0,.408-2.967,10.207,10.207,0,0,0-.408-2.975,10.388,10.388,0,0,0-1.1-2.457,12.514,12.514,0,0,0-1.539-2.014l1.615-.714a11.471,11.471,0,0,1,1.674,2.108,11.236,11.236,0,0,1,1.215,2.72A11.441,11.441,0,0,1,34.5-6.46Z" transform="translate(525 2411.141)" fill="#333"/><path d="M13.08.48c6.4,0,10.44-3.96,10.44-9.44v-.08c0-5.4-3.92-7.52-7.96-8.16l7.52-7.28v-4.64H3.48v5.28H15.16L8-16.56l1,3.88h2.6c3.64,0,5.88,1.4,5.88,3.88v.08c0,2.24-1.8,3.72-4.32,3.72-3,0-5.12-1.28-7.12-3.56l-4.24,4A13.99,13.99,0,0,0,13.08.48ZM26.32,0H47.76V-5.32H34.84l5-3.92c5.16-4.04,7.64-6.48,7.64-11.28v-.08c0-5.4-4-8.92-9.96-8.92-5.2,0-7.96,2.12-10.8,6.04l4.32,3.44c2.16-2.68,3.76-4,6.08-4a3.748,3.748,0,0,1,4.08,3.96c0,2.44-1.44,4.08-5.12,7.16L26.32-4.88Zm25.6,0h6.96L71.92-24.48v-4.64H51.08v5.32H64.96Zm18,6.6c4.8-.12,7.44-2.28,7.44-7.6V-6.48H70.88V0h2.48c.2,2.32-1.16,3.76-3.96,4.08ZM91.44.4c6.4,0,11.2-3.16,11.2-8.52V-8.2c0-3.48-1.8-5.36-4.8-6.88a6.988,6.988,0,0,0,3.8-6.4v-.08c0-4.52-4.12-7.96-10.2-7.96-6.12,0-10.24,3.48-10.24,7.96v.08a6.952,6.952,0,0,0,3.84,6.4c-3.12,1.4-4.84,3.48-4.84,7.04v.08C80.2-2.92,85,.4,91.44.4Zm0-17.56c-2.64,0-4.4-1.56-4.4-3.72v-.08c0-1.88,1.68-3.48,4.4-3.48s4.36,1.64,4.36,3.52v.08C95.8-18.68,94.04-17.16,91.44-17.16Zm0,12.48c-3.32,0-5.28-1.68-5.28-3.76v-.08c0-2.32,2.24-3.72,5.28-3.72,3,0,5.24,1.4,5.24,3.72v.08C96.68-6.32,94.72-4.68,91.44-4.68ZM117.96.48c7.76,0,12.92-6.64,12.92-15.04v-.08c0-8.44-5.16-14.96-12.84-14.96-7.72,0-12.92,6.64-12.92,15.04v.08C105.12-6.04,110.2.48,117.96.48Zm.08-5.52c-4,0-6.6-4.12-6.6-9.52v-.08c0-5.4,2.56-9.44,6.52-9.44s6.6,4.16,6.6,9.52v.08C124.56-9.12,122.04-5.04,118.04-5.04ZM146.6.48c7.76,0,12.92-6.64,12.92-15.04v-.08c0-8.44-5.16-14.96-12.84-14.96-7.72,0-12.92,6.64-12.92,15.04v.08C133.76-6.04,138.84.48,146.6.48Zm.08-5.52c-4,0-6.6-4.12-6.6-9.52v-.08c0-5.4,2.56-9.44,6.52-9.44s6.6,4.16,6.6,9.52v.08C153.2-9.12,150.68-5.04,146.68-5.04Z" transform="translate(314 2413.141)" fill="#333"/></g><g transform="translate(-345 66)"><rect width="255" height="40" rx="5" transform="translate(825 2132)" fill="#333"/><path d="M-112.812,0V-14.079h3.116l2.394,6.612q.228.627.437,1.32t.418,1.359h.1q.228-.665.437-1.359t.4-1.32l2.356-6.612h3.116V0h-2.565V-5.871q0-.684.057-1.5t.143-1.644q.085-.826.161-1.472h-.076l-1.159,3.306-2.166,5.909h-1.615l-2.185-5.909-1.121-3.306h-.076q.076.646.152,1.472t.143,1.644q.067.817.066,1.5V0Zm17.157,0V-14.079h8.626v2.356h-5.814v3.249h4.921v2.356h-4.921v3.762h6.023V0ZM-83.02,0V-14.079h4.883a8.7,8.7,0,0,1,2.7.39,3.751,3.751,0,0,1,1.9,1.33,4.177,4.177,0,0,1,.7,2.556,4.335,4.335,0,0,1-.7,2.556,4.067,4.067,0,0,1-1.9,1.463,7.4,7.4,0,0,1-2.7.465h-2.071V0Zm2.812-7.543h1.824a3.271,3.271,0,0,0,2.081-.57A2.036,2.036,0,0,0-75.591-9.8a1.722,1.722,0,0,0-.712-1.586,3.952,3.952,0,0,0-2.081-.447h-1.824ZM-75.382,0-78.65-6.042l1.976-1.748L-72.228,0Zm11.989.266A6.615,6.615,0,0,1-65.882-.2a5.738,5.738,0,0,1-2.042-1.4,6.633,6.633,0,0,1-1.387-2.28,8.823,8.823,0,0,1-.5-3.1A8.754,8.754,0,0,1-69.3-10.08a6.784,6.784,0,0,1,1.415-2.308,6.074,6.074,0,0,1,2.09-1.444,6.489,6.489,0,0,1,2.517-.494,5.187,5.187,0,0,1,2.4.541,6.086,6.086,0,0,1,1.72,1.264l-1.463,1.786a4.578,4.578,0,0,0-1.168-.855,3.125,3.125,0,0,0-1.435-.323,3.3,3.3,0,0,0-1.909.58,3.806,3.806,0,0,0-1.321,1.663,6.456,6.456,0,0,0-.475,2.6,6.95,6.95,0,0,0,.447,2.632,3.735,3.735,0,0,0,1.273,1.681,3.237,3.237,0,0,0,1.929.589,3.331,3.331,0,0,0,1.625-.39,4.805,4.805,0,0,0,1.264-1l1.5,1.748A5.872,5.872,0,0,1-60.885-.257,5.866,5.866,0,0,1-63.393.266ZM-50.435,0V-14.079h8.626v2.356h-5.814v3.249H-42.7v2.356h-4.921v3.762H-41.6V0Zm15.827.266A4.007,4.007,0,0,1-36.917-.4a4.253,4.253,0,0,1-1.511-1.919,7.664,7.664,0,0,1-.532-3,6.459,6.459,0,0,1,.636-2.973,4.981,4.981,0,0,1,1.663-1.929,3.842,3.842,0,0,1,2.166-.684,3.31,3.31,0,0,1,1.51.314,5.19,5.19,0,0,1,1.187.845l-.095-1.672v-3.743H-29.1V0h-2.28l-.209-1.1h-.076a5.809,5.809,0,0,1-1.349.969A3.387,3.387,0,0,1-34.608.266Zm.722-2.3a2.219,2.219,0,0,0,1.055-.256,3.017,3.017,0,0,0,.941-.846V-7.809a2.906,2.906,0,0,0-.979-.618,2.993,2.993,0,0,0-1.016-.181,1.806,1.806,0,0,0-1.092.37,2.536,2.536,0,0,0-.807,1.093,4.612,4.612,0,0,0-.3,1.786,5.694,5.694,0,0,0,.257,1.843,2.267,2.267,0,0,0,.75,1.112A1.938,1.938,0,0,0-33.886-2.033Zm11.894,2.3A2.828,2.828,0,0,1-24.5-.865a5.483,5.483,0,0,1-.779-3.145V-10.64h2.774v6.289a3.052,3.052,0,0,0,.361,1.729,1.339,1.339,0,0,0,1.159.494,2.035,2.035,0,0,0,1.131-.313,4.254,4.254,0,0,0,1.017-1.017V-10.64h2.793V0h-2.28l-.209-1.539h-.076A6.2,6.2,0,0,1-20.092-.228,3.538,3.538,0,0,1-21.992.266Zm14.4,0A5.278,5.278,0,0,1-10.231-.4a4.785,4.785,0,0,1-1.862-1.91,6.17,6.17,0,0,1-.684-3.012,5.728,5.728,0,0,1,.75-3.011,5.111,5.111,0,0,1,1.995-1.91,5.617,5.617,0,0,1,2.689-.665,4.325,4.325,0,0,1,1.748.332,4.964,4.964,0,0,1,1.349.865l-1.33,1.767a2.853,2.853,0,0,0-.779-.513,2.1,2.1,0,0,0-.836-.171,2.54,2.54,0,0,0-1.435.408,2.629,2.629,0,0,0-.95,1.15A4.24,4.24,0,0,0-9.908-5.32a4.24,4.24,0,0,0,.333,1.748,2.68,2.68,0,0,0,.931,1.15,2.353,2.353,0,0,0,1.359.408,2.589,2.589,0,0,0,1.1-.247,4.467,4.467,0,0,0,.969-.608l1.1,1.843a4.963,4.963,0,0,1-1.681.979A5.558,5.558,0,0,1-7.59.266Zm8.721,0A3.245,3.245,0,0,1-.513-.143a2.825,2.825,0,0,1-1.1-1.13A3.386,3.386,0,0,1-2-2.907,2.963,2.963,0,0,1-.541-5.538,11.111,11.111,0,0,1,4.114-6.821a2.67,2.67,0,0,0-.19-.94,1.406,1.406,0,0,0-.56-.656,1.954,1.954,0,0,0-1.055-.247,3.955,3.955,0,0,0-1.463.285,9.351,9.351,0,0,0-1.463.741L-1.605-9.5a9.483,9.483,0,0,1,1.33-.7,9.941,9.941,0,0,1,1.482-.5,6.484,6.484,0,0,1,1.615-.2,4.425,4.425,0,0,1,2.261.532A3.285,3.285,0,0,1,6.451-8.8a6.465,6.465,0,0,1,.456,2.584V0H4.627l-.19-1.14H4.342A6.8,6.8,0,0,1,2.86-.133,3.812,3.812,0,0,1,1.131.266Zm.931-2.185a2.133,2.133,0,0,0,1.073-.275,4.676,4.676,0,0,0,.979-.77V-5.092a9.041,9.041,0,0,0-2.052.437,2.548,2.548,0,0,0-1.083.674,1.322,1.322,0,0,0-.323.865,1.054,1.054,0,0,0,.389.912A1.68,1.68,0,0,0,2.062-1.919ZM14.127.266a3.69,3.69,0,0,1-2.033-.5,2.816,2.816,0,0,1-1.121-1.4,5.771,5.771,0,0,1-.342-2.071V-8.436H9.13v-2.071l1.653-.133.323-2.869h2.3v2.869h2.641v2.2H13.4v4.712a2.018,2.018,0,0,0,.38,1.349,1.358,1.358,0,0,0,1.083.437,2.136,2.136,0,0,0,.551-.076q.285-.076.494-.152l.475,2.033q-.437.133-1,.266A5.488,5.488,0,0,1,14.127.266ZM19.181,0V-10.64h2.793V0Zm1.406-12.369a1.656,1.656,0,0,1-1.178-.408,1.448,1.448,0,0,1-.437-1.111,1.455,1.455,0,0,1,.437-1.1,1.633,1.633,0,0,1,1.178-.418,1.649,1.649,0,0,1,1.159.418,1.424,1.424,0,0,1,.456,1.1,1.417,1.417,0,0,1-.456,1.111A1.672,1.672,0,0,1,20.587-12.369ZM30.353.266a4.971,4.971,0,0,1-2.5-.665,5.068,5.068,0,0,1-1.89-1.91,5.906,5.906,0,0,1-.722-3.012,5.906,5.906,0,0,1,.722-3.011,5.068,5.068,0,0,1,1.89-1.91,4.971,4.971,0,0,1,2.5-.665,4.94,4.94,0,0,1,1.919.38,5.1,5.1,0,0,1,1.634,1.092,5.1,5.1,0,0,1,1.14,1.748,6.279,6.279,0,0,1,.418,2.365,5.906,5.906,0,0,1-.722,3.012A5.068,5.068,0,0,1,32.851-.4,4.971,4.971,0,0,1,30.353.266Zm0-2.28a1.883,1.883,0,0,0,1.226-.408,2.481,2.481,0,0,0,.76-1.15,5.352,5.352,0,0,0,.257-1.748,5.352,5.352,0,0,0-.257-1.748,2.481,2.481,0,0,0-.76-1.15,1.883,1.883,0,0,0-1.226-.408,1.883,1.883,0,0,0-1.226.408,2.481,2.481,0,0,0-.76,1.15,5.352,5.352,0,0,0-.257,1.748,5.352,5.352,0,0,0,.257,1.748,2.481,2.481,0,0,0,.76,1.15A1.883,1.883,0,0,0,30.353-2.014ZM38.75,0V-10.64h2.28l.209,1.406H41.3a8.134,8.134,0,0,1,1.539-1.178,3.7,3.7,0,0,1,1.919-.494,2.828,2.828,0,0,1,2.508,1.13,5.483,5.483,0,0,1,.779,3.145V0H45.248V-6.289A3.12,3.12,0,0,0,44.9-8.018a1.313,1.313,0,0,0-1.149-.494,2.082,2.082,0,0,0-1.131.3,6.365,6.365,0,0,0-1.074.893V0ZM56.819-10.7H73.482v4.161H71.259V-8.721H58.966v2.185H56.819Zm2.755,3.439H69.587v2.109H59.574Zm11.685-8.987L72.8-14.4q-1.615.3-3.486.541t-3.876.409q-2,.171-4.019.285t-3.914.152A4.449,4.449,0,0,0,57.323-14a9.828,9.828,0,0,0-.313-.95q1.881-.057,3.847-.171t3.857-.275q1.89-.161,3.563-.38T71.259-16.245ZM58.681-12.654l1.976-.551a10.6,10.6,0,0,1,.656,1.14,6.378,6.378,0,0,1,.446,1.1l-2.109.608a5.568,5.568,0,0,0-.38-1.121A12.751,12.751,0,0,0,58.681-12.654Zm5.016-.4,2.014-.456q.285.589.542,1.273a5.994,5.994,0,0,1,.332,1.2l-2.147.532a7.091,7.091,0,0,0-.275-1.235A13.546,13.546,0,0,0,63.7-13.053Zm6.023-.494,2.413.57q-.323.608-.665,1.2t-.684,1.111q-.342.522-.627.922l-1.881-.532q.266-.475.541-1.036t.513-1.149Q69.568-13.053,69.72-13.547Zm-.969,6.289h.475l.4-.076,1.558.931A10.99,10.99,0,0,1,68.97-3.183a12.874,12.874,0,0,1-3.125,2.29A19.937,19.937,0,0,1,62.016.627a30.626,30.626,0,0,1-4.3.893A5.214,5.214,0,0,0,57.37.845q-.228-.39-.494-.76a4.875,4.875,0,0,0-.494-.6A34.362,34.362,0,0,0,60.543-1.2,18.235,18.235,0,0,0,64.134-2.4a10.568,10.568,0,0,0,2.793-1.852,7.636,7.636,0,0,0,1.824-2.622ZM61.835-5.7A9.433,9.433,0,0,0,64.657-3.24a16.948,16.948,0,0,0,4.085,1.682,28.556,28.556,0,0,0,5.1.893,4.255,4.255,0,0,0-.513.646q-.266.4-.5.789a7.62,7.62,0,0,0-.389.712A26.671,26.671,0,0,1,67.231.323a16.62,16.62,0,0,1-4.218-2.1A13.164,13.164,0,0,1,59.84-4.9Zm21.451-9.12H93.717v1.615H83.286Zm-.494,4.769H94.059v1.729H82.792Zm-.019,7.182H94.1v1.786H82.773Zm1.938-2.318h7.6v1.425h-7.6Zm-1.064-7.258H93.3v1.577H83.647Zm1.634-3.7h2.033v6.859H85.281Zm4.237,0H91.57v6.859H89.518Zm-2.09,6.973H89.29v7.353H87.428Zm3.648,1.539h2.052V-.3A2.782,2.782,0,0,1,92.957.8a1.268,1.268,0,0,1-.646.608,3.551,3.551,0,0,1-1.187.257q-.712.047-1.682.047a4.536,4.536,0,0,0-.19-.893,7.555,7.555,0,0,0-.323-.874q.551.019,1.092.029t.732.009A.43.43,0,0,0,91.01-.1a.3.3,0,0,0,.066-.219Zm-7.372,0h8.113v1.577H85.623V1.71H83.7ZM77-10.184h5.225v1.729H77Zm.1-5.358h5.054v1.71H77.092ZM77-7.524h5.225V-5.8H77Zm-.836-5.4h6.631v1.8H76.161Zm1.9,8.094H82.3V.95H78.061V-.855H80.4V-3.021H78.061Zm-1.121,0h1.881V1.691H76.94ZM99.151-16.055h2.09V1.653h-2.09ZM96.263-9.8h7.79v2.128h-7.79Zm2.47,1.121,1.273.627q-.247.95-.57,2t-.722,2.1q-.4,1.045-.836,1.967A10.221,10.221,0,0,1,96.947-.38a5.924,5.924,0,0,0-.275-.789q-.181-.427-.38-.846t-.371-.722a10.464,10.464,0,0,0,1.112-1.739q.542-1.036,1-2.147A16.258,16.258,0,0,0,98.733-8.683Zm2.489,1.1q.152.152.447.475t.655.732q.361.409.694.817t.608.732a5.87,5.87,0,0,1,.389.494l-1.387,1.786q-.19-.418-.494-.979t-.665-1.159q-.361-.6-.7-1.131t-.589-.874Zm-4.978-7.011,1.6-.418a15.282,15.282,0,0,1,.446,1.482q.2.8.333,1.558t.19,1.368l-1.71.456a10.949,10.949,0,0,0-.143-1.377q-.123-.769-.3-1.577A15.238,15.238,0,0,0,96.244-14.592Zm6.251-.513,1.919.418q-.228.779-.494,1.6t-.532,1.568q-.266.75-.494,1.321l-1.444-.418q.209-.608.409-1.4t.371-1.605Q102.4-14.44,102.5-15.105Zm7.2-1.045h2.128V1.691H109.7ZM104.015-4.256,113.781-6l.342,2.109-9.766,1.767Zm1.064-9.31,1.121-1.539q.532.3,1.111.7t1.1.817a5.919,5.919,0,0,1,.826.779l-1.178,1.71a5.455,5.455,0,0,0-.789-.817q-.5-.437-1.073-.874T105.079-13.566Zm-.855,4.788,1.064-1.634a12.828,12.828,0,0,1,1.178.674q.608.39,1.159.779a6.018,6.018,0,0,1,.893.75l-1.159,1.824a6.072,6.072,0,0,0-.836-.789q-.532-.427-1.131-.855A13.3,13.3,0,0,0,104.224-8.778Z" transform="translate(952 2160)" fill="#fff"/></g></g><g transform="translate(889 4012.859)"><path d="M-44.175-15.72h15.68v2.38h-13.28V1.78h-2.4Zm14.54,0h2.42v14.7a3.861,3.861,0,0,1-.24,1.51,1.7,1.7,0,0,1-.86.85,4.305,4.305,0,0,1-1.55.37q-.93.07-2.27.07a6.132,6.132,0,0,0-.2-.78q-.14-.44-.32-.87a7.25,7.25,0,0,0-.36-.75q.58.04,1.17.05t1.05.01h.64a.658.658,0,0,0,.4-.13.484.484,0,0,0,.12-.37Zm-13.24,7.44h14.42v2.36h-14.42Zm5.84-6.14h2.4V-7.1h-2.4ZM-13.5-6.46a11.441,11.441,0,0,1,.459-3.332,11.037,11.037,0,0,1,1.224-2.72,12.2,12.2,0,0,1,1.666-2.108l1.615.714a12.514,12.514,0,0,0-1.538,2.014,10.388,10.388,0,0,0-1.1,2.457,10.207,10.207,0,0,0-.408,2.975,10.23,10.23,0,0,0,.408,2.967,10.187,10.187,0,0,0,1.1,2.457A13.389,13.389,0,0,0-8.54.986l-1.615.714A12.2,12.2,0,0,1-11.821-.408a11.037,11.037,0,0,1-1.224-2.72A11.441,11.441,0,0,1-13.5-6.46ZM.589-13.685l1.683-.731a15.316,15.316,0,0,1,.927,1.47,6.678,6.678,0,0,1,.62,1.42l-1.785.8a8.588,8.588,0,0,0-.587-1.428A17.329,17.329,0,0,0,.589-13.685Zm6.239-.782,2.091.7q-.459.8-.918,1.564T7.134-10.88l-1.717-.646q.255-.408.519-.918t.5-1.037A10.414,10.414,0,0,0,6.828-14.467ZM2.017-5.559H4.023a18.938,18.938,0,0,1-.289,2.21,8.38,8.38,0,0,1-.629,1.964A5.629,5.629,0,0,1,1.924.264,6.738,6.738,0,0,1-.04,1.547,3.842,3.842,0,0,0-.558.7a5.638,5.638,0,0,0-.688-.765A5.232,5.232,0,0,0,.394-1.054a4.181,4.181,0,0,0,.952-1.284,5.807,5.807,0,0,0,.467-1.513Q1.949-4.658,2.017-5.559Zm2.89-.255H6.879v4.709a1.584,1.584,0,0,0,.042.485q.042.094.212.094h.544a.218.218,0,0,0,.2-.136,1.841,1.841,0,0,0,.1-.57q.034-.433.051-1.335a2.131,2.131,0,0,0,.5.323,6.1,6.1,0,0,0,.655.272q.34.119.578.187A8.008,8.008,0,0,1,9.489.094a1.767,1.767,0,0,1-.6.944,1.678,1.678,0,0,1-.995.272H6.777a2.377,2.377,0,0,1-1.165-.23A1.213,1.213,0,0,1,5.06.331a5.217,5.217,0,0,1-.153-1.42ZM2.561-9.265v2.312H6.777V-9.265ZM.623-11.05H8.8v5.882H.623Zm-4.4-1.8h1.972V1.513H-3.78Zm-2.448,3.2H.011v1.887H-6.228Zm2.55.765,1.19.51q-.238.918-.578,1.9t-.748,1.946q-.408.961-.867,1.811a10.432,10.432,0,0,1-.952,1.479,8.061,8.061,0,0,0-.433-.995q-.28-.553-.518-.944a9.813,9.813,0,0,0,.875-1.2q.434-.688.825-1.47t.7-1.564Q-3.882-8.194-3.678-8.891Zm2.533-5.372L.232-12.7q-.867.323-1.9.6t-2.117.467q-1.08.2-2.066.332a5.151,5.151,0,0,0-.238-.791,6.931,6.931,0,0,0-.34-.773q.935-.153,1.913-.365t1.853-.485Q-1.791-13.991-1.145-14.263Zm-.7,6.97a5.828,5.828,0,0,1,.468.433q.314.315.68.689t.655.688q.289.315.425.451L-.788-3.417q-.153-.323-.4-.731T-1.714-5q-.28-.442-.552-.842t-.476-.655Zm19.635-6.443h3.6V-11.8h-3.6Zm2.567,0H22.5a32.5,32.5,0,0,0,.374,3.468,15.312,15.312,0,0,0,.816,3.052A8.917,8.917,0,0,0,25.12-4.743a6.86,6.86,0,0,0,2.227,1.751,4.7,4.7,0,0,0-.552.442q-.3.272-.578.57a5.943,5.943,0,0,0-.467.553,8.175,8.175,0,0,1-2.278-2,10.392,10.392,0,0,1-1.487-2.66,16.967,16.967,0,0,1-.867-3.179,32.809,32.809,0,0,1-.416-3.553h-.34Zm-.051,3.553,2.091.289a16.957,16.957,0,0,1-1.717,5.015A10.151,10.151,0,0,1,17.64-1.411a5.375,5.375,0,0,0-.434-.493q-.281-.289-.595-.587a5.42,5.42,0,0,0-.552-.467,7.707,7.707,0,0,0,2.813-2.924A13.307,13.307,0,0,0,20.309-10.183ZM15.634-7.82v6.273H13.645V-5.933H11.673V-7.82Zm0,5.389a3.09,3.09,0,0,0,1.479,1.224,6.67,6.67,0,0,0,2.278.442q.748.034,1.777.043t2.167-.008Q24.474-.748,25.57-.8t1.947-.119q-.1.238-.238.612t-.247.765a6.576,6.576,0,0,0-.162.7q-.765.051-1.751.077T23.1,1.266q-1.037.009-2.006-.008t-1.734-.051A8.668,8.668,0,0,1,16.688.723a4.808,4.808,0,0,1-1.955-1.4q-.561.476-1.148.986T12.3,1.36l-1-2.125q.595-.357,1.241-.782t1.241-.884ZM11.69-12.818,13.2-14.042a11.242,11.242,0,0,1,1.071.791q.544.451,1.02.918a7.417,7.417,0,0,1,.765.859l-1.615,1.36A5.774,5.774,0,0,0,13.738-11q-.451-.476-.995-.96T11.69-12.818ZM34.5-6.46a11.441,11.441,0,0,1-.459,3.332,11.236,11.236,0,0,1-1.215,2.72A11.471,11.471,0,0,1,31.155,1.7L29.54.986a13.389,13.389,0,0,0,1.539-2.023,10.187,10.187,0,0,0,1.1-2.457,10.23,10.23,0,0,0,.408-2.967,10.207,10.207,0,0,0-.408-2.975,10.388,10.388,0,0,0-1.1-2.457,12.514,12.514,0,0,0-1.539-2.014l1.615-.714a11.471,11.471,0,0,1,1.674,2.108,11.236,11.236,0,0,1,1.215,2.72A11.441,11.441,0,0,1,34.5-6.46Z" transform="translate(575 2411.141)" fill="#e84830"/><path d="M11.718,0h9.424V-45.446h-6.51L1.8-41.6,3.782-33.79l7.936-1.984ZM35.96,0h9.424V-45.446h-6.51L26.04-41.6l1.984,7.812,7.936-1.984ZM68.386-7.874c-3.782,0-6.634-1.3-9.92-3.968L53.444-4.588A21.551,21.551,0,0,0,68.2.744c12.648,0,19.592-9.982,19.592-24.614v-.124c0-8.866-2.108-13.826-5.332-17.05C79.05-44.392,75.516-45.88,69.5-45.88c-10.106,0-17.112,6.7-17.112,15.748v.124c0,9.052,6.324,14.508,16.058,14.508a13.092,13.092,0,0,0,9.424-3.472h.062C77.686-14.818,75.578-7.874,68.386-7.874ZM70-23.436c-5.022,0-8.122-2.852-8.122-7.006v-.124c0-4.154,2.852-7.192,7.936-7.192S78-34.72,78-30.566v.124C78-26.474,75.082-23.436,70-23.436ZM90.706,10.23c7.44-.186,11.532-3.534,11.532-11.78v-8.494H92.194V0h3.844c.31,3.6-1.8,5.828-6.138,6.324ZM106.888,0H140.12V-8.246H120.094l7.75-6.076c8-6.262,11.842-10.044,11.842-17.484v-.124c0-8.37-6.2-13.826-15.438-13.826-8.06,0-12.338,3.286-16.74,9.362l6.7,5.332c3.348-4.154,5.828-6.2,9.424-6.2,3.658,0,6.324,2.17,6.324,6.138,0,3.782-2.232,6.324-7.936,11.1L106.888-7.564ZM164.61.744c12.028,0,20.026-10.292,20.026-23.312v-.124c0-13.082-8-23.188-19.9-23.188-11.966,0-20.026,10.292-20.026,23.312v.124C144.708-9.362,152.582.744,164.61.744Zm.124-8.556c-6.2,0-10.23-6.386-10.23-14.756v-.124c0-8.37,3.968-14.632,10.106-14.632s10.23,6.448,10.23,14.756v.124C174.84-14.136,170.934-7.812,164.734-7.812ZM209,.744c12.028,0,20.026-10.292,20.026-23.312v-.124c0-13.082-8-23.188-19.9-23.188-11.966,0-20.026,10.292-20.026,23.312v.124C189.1-9.362,196.974.744,209,.744Zm.124-8.556c-6.2,0-10.23-6.386-10.23-14.756v-.124c0-8.37,3.968-14.632,10.106-14.632s10.23,6.448,10.23,14.756v.124C219.232-14.136,215.326-7.812,209.126-7.812Z" transform="translate(295 2413.141)" fill="#e84830"/></g><path d="M-11.76-16.96h2.48v3.18h-2.48Zm-7.32,1.72H-1.94v4.3H-4.42v-2.2H-16.7v2.2h-2.38Zm1.8,3.7H-3.54V-9.6H-17.28Zm-1.96,6.32H-1.66v2.08H-19.24Zm2.28-3.18h13v1.92h-13Zm7.64,3.6A6.7,6.7,0,0,0-6.46-1.7,12.881,12.881,0,0,0-1.38-.26a7.413,7.413,0,0,0-.77,1,10.8,10.8,0,0,0-.65,1.1A14.886,14.886,0,0,1-6.74.71,8.794,8.794,0,0,1-9.55-1.31a10.537,10.537,0,0,1-1.91-3.03Zm-2.5-7.88H-9.4v5.56a10.485,10.485,0,0,1-.21,2.08,6.777,6.777,0,0,1-.76,2.01,7.356,7.356,0,0,1-1.54,1.85A11.268,11.268,0,0,1-14.42.45a21.063,21.063,0,0,1-3.7,1.35,4.82,4.82,0,0,0-.39-.63q-.25-.35-.54-.71a4.537,4.537,0,0,0-.57-.6,21.234,21.234,0,0,0,3.49-1.08,9.27,9.27,0,0,0,2.26-1.3,5.425,5.425,0,0,0,1.29-1.47,5.232,5.232,0,0,0,.6-1.56,8.09,8.09,0,0,0,.16-1.61Zm20.4-4.3,1.46,1.42q-.84.24-1.87.44t-2.09.32q-1.06.12-2.04.18a5.658,5.658,0,0,0-.21-.73,3.38,3.38,0,0,0-.33-.71q.92-.1,1.85-.23t1.78-.31A13.506,13.506,0,0,0,8.58-16.98Zm8.66.02,1.46,1.4a15.813,15.813,0,0,1-2,.47q-1.1.19-2.25.31t-2.21.2a4.673,4.673,0,0,0-.22-.75q-.16-.43-.3-.73.98-.08,2-.22t1.95-.32Q16.6-16.78,17.24-16.96Zm-14.4.42,2.58.64q-.02.24-.48.32v.98a10.339,10.339,0,0,1-.18,1.79,8.187,8.187,0,0,1-.65,2.02A6.074,6.074,0,0,1,2.72-8.92a3.909,3.909,0,0,0-.44-.53Q2-9.74,1.7-10.01a2.956,2.956,0,0,0-.56-.41,4.337,4.337,0,0,0,1.11-1.4,5.515,5.515,0,0,0,.47-1.49,8.948,8.948,0,0,0,.12-1.41Zm8.3.02,2.56.58q-.02.28-.48.34v1.02a7.338,7.338,0,0,1-.2,1.59,5.466,5.466,0,0,1-.76,1.76,5.251,5.251,0,0,1-1.62,1.55,2.942,2.942,0,0,0-.38-.55q-.26-.31-.54-.6a2.271,2.271,0,0,0-.54-.43,4.223,4.223,0,0,0,1.25-1.1,3.53,3.53,0,0,0,.56-1.18,4.777,4.777,0,0,0,.15-1.16ZM3.78-14h6.66v1.74H3.78Zm8.24,0H19.5v1.74H12.02Zm-5.6.58H8.54v3.24H6.42Zm8.4,0h2.14v3.26H14.82ZM6.22-6.14v.88h8.72v-.88Zm0,2.24v.88h8.72V-3.9Zm0-4.46v.86h8.72v-.86ZM3.9-9.8H17.36v8.2H3.9ZM11.62-.54l2-1.14q1.08.38,2.19.81t2.12.86q1.01.43,1.71.77l-2.8,1.08q-.56-.32-1.4-.74T13.63.25Q12.66-.18,11.62-.54ZM7.2-1.76l2.18,1A15.11,15.11,0,0,1,7.5.26q-1.08.5-2.22.91t-2.16.69q-.22-.24-.53-.57T1.94.63A7.152,7.152,0,0,0,1.34.1Q2.4-.1,3.49-.38a20.778,20.778,0,0,0,2.06-.64A11.9,11.9,0,0,0,7.2-1.76Z" transform="translate(1204 6368)" fill="#e84830"/><path d="M9.828-19.278a9.563,9.563,0,0,0-.257-1.08q-.149-.486-.284-.972l3.807-.621q.054.4.122,1.012a10.332,10.332,0,0,0,.175,1.094q.054.378.243,1.4t.459,2.484q.27,1.458.608,3.146t.661,3.4Q15.687-7.7,16-6.156t.54,2.727q.23,1.188.337,1.755.135.594.324,1.3t.378,1.35l-3.915.7Q13.554.918,13.5.23a8.95,8.95,0,0,0-.189-1.282Q13.2-1.593,13-2.714t-.486-2.633q-.284-1.512-.608-3.213l-.648-3.4q-.324-1.7-.608-3.186t-.5-2.579Q9.936-18.819,9.828-19.278ZM2.457-15.849q.648-.027,1.269-.068t1.242-.122l1.674-.229q1.08-.149,2.484-.351t2.9-.445l2.9-.472q1.4-.229,2.5-.418l1.715-.3,1.35-.283q.7-.149,1.188-.284l.648,3.537q-.432.027-1.161.135t-1.323.189q-.729.108-1.9.3l-2.606.418q-1.431.229-2.916.459t-2.835.459q-1.35.23-2.376.392L5.67-12.69q-.648.135-1.215.256t-1.269.311Zm.027,7.938q.54-.027,1.364-.122t1.444-.175q.729-.108,1.944-.3t2.741-.432l3.146-.5q1.62-.257,3.159-.526t2.808-.486l2.052-.351q.783-.162,1.5-.324t1.256-.324l.729,3.564a12.668,12.668,0,0,0-1.31.149q-.769.121-1.552.257-.864.135-2.16.351l-2.849.472q-1.553.257-3.172.513t-3.105.513q-1.485.257-2.673.446T5.94-4.86q-.864.162-1.553.3t-1.148.27ZM36.45-17.145q.081.459.2.986t.229,1.066q.243.783.581,2.025t.743,2.727q.405,1.485.823,3.01t.824,2.916q.405,1.391.7,2.457t.459,1.634a3.348,3.348,0,0,1,.216.648q.108.432.257.864t.257.7l-3.672.918q-.081-.567-.189-1.188a8.188,8.188,0,0,0-.3-1.188q-.162-.594-.459-1.715T36.45-3.834q-.378-1.431-.8-2.97t-.8-3.011q-.378-1.471-.716-2.673t-.553-1.876a7.211,7.211,0,0,0-.338-1.026q-.2-.486-.418-.891Zm12.96,4.158a19.669,19.669,0,0,1-1.094,2.025q-.689,1.134-1.5,2.322T45.2-6.386q-.81,1.066-1.539,1.85l-2.97-1.485a17.048,17.048,0,0,0,1.485-1.512q.783-.891,1.471-1.8a10.29,10.29,0,0,0,1.013-1.552q-.3.054-1.121.216t-1.984.4l-2.525.526q-1.364.284-2.74.58T33.669-8.6q-1.242.257-2.187.459t-1.431.311l-.837-3.24q.648-.054,1.242-.135t1.242-.189l1.148-.189q.823-.135,1.971-.351t2.471-.472q1.323-.256,2.673-.513t2.538-.486q1.188-.229,2.079-.4t1.3-.284a4.744,4.744,0,0,0,.729-.175,4.628,4.628,0,0,0,.648-.257Zm15.525-3.051q.189.432.5,1.229t.661,1.7q.351.9.621,1.715t.432,1.269l-3.24,1.134a11.268,11.268,0,0,0-.378-1.3q-.27-.783-.594-1.66t-.648-1.687q-.324-.81-.567-1.35ZM74.9-14.067q-.216.648-.364,1.107t-.284.864a25.881,25.881,0,0,1-1.4,4.09,18.052,18.052,0,0,1-2.268,3.821A20.114,20.114,0,0,1,66.3-.068a21.208,21.208,0,0,1-4.766,2.579L58.7-.378a18.3,18.3,0,0,0,3.132-1.2A20.175,20.175,0,0,0,65.016-3.51a14.1,14.1,0,0,0,2.646-2.511A13.98,13.98,0,0,0,69.3-8.681a19.408,19.408,0,0,0,1.188-3.213,19.992,19.992,0,0,0,.634-3.389Zm-16.227-.54q.27.513.608,1.323t.688,1.7q.351.891.688,1.728t.527,1.4L57.888-7.209q-.162-.54-.472-1.4t-.689-1.823q-.378-.958-.715-1.768a12.388,12.388,0,0,0-.58-1.242Zm26.622-6.777q.648.378,1.485.891l1.715,1.053q.877.54,1.647,1.039t1.31.878l-2.025,3q-.54-.4-1.323-.918T86.481-16.5q-.837-.54-1.66-1.04t-1.5-.878ZM80.271-2.214q1.539-.27,3.091-.662a27.512,27.512,0,0,0,3.105-.985,25.974,25.974,0,0,0,3.01-1.377,30.35,30.35,0,0,0,4.28-2.916,28.248,28.248,0,0,0,3.564-3.456,23.326,23.326,0,0,0,2.66-3.753l2.079,3.672A28.564,28.564,0,0,1,97.4-6.4,36.1,36.1,0,0,1,91.314-2,26.773,26.773,0,0,1,88.3-.54Q86.67.135,85.09.635A22.485,22.485,0,0,1,82.3,1.35Zm.864-13.014q.675.378,1.526.877t1.715,1.04q.864.54,1.633,1.026t1.283.864L85.32-8.4q-.594-.4-1.35-.9t-1.607-1.053q-.85-.554-1.674-1.04t-1.526-.837Zm41.958,2.349a2.864,2.864,0,0,0-.162.594q-.054.324-.108.54-.081.567-.229,1.566t-.324,2.2q-.176,1.2-.365,2.417t-.338,2.214q-.148,1-.257,1.593h-3.7q.108-.567.243-1.445t.311-1.917q.175-1.039.324-2.093t.257-1.944q.108-.891.135-1.431h-7.29q-.648,0-1.39.041t-1.31.094v-3.564q.351.054.837.081l.986.054q.5.027.85.027h6.912q.3,0,.7-.027a7.163,7.163,0,0,0,.783-.095,1.222,1.222,0,0,0,.513-.176Zm-16.686,9.8q.54.054,1.256.095t1.418.041h14.148q.513,0,1.323-.027t1.323-.081V.432q-.27-.027-.743-.04L124.16.365q-.5-.014-.878-.014h-14.2q-.7,0-1.3.014t-1.377.067Zm42.9-18.468q.351.486.743,1.161t.77,1.35q.378.675.621,1.188l-2.16.945q-.432-.837-1-1.9a18.923,18.923,0,0,0-1.107-1.85Zm3.186-1.215q.351.513.77,1.2t.8,1.35q.378.661.621,1.121l-2.16.918q-.405-.837-1.012-1.89t-1.147-1.809ZM133.434-8.4q.459-1.134.877-2.389t.743-2.592q.324-1.336.581-2.66A24.4,24.4,0,0,0,136-18.657l3.942.81q-.108.378-.243.891t-.243,1q-.108.486-.162.81-.135.7-.378,1.7t-.567,2.12q-.324,1.121-.662,2.241T137-7.02q-.486,1.3-1.148,2.7t-1.4,2.7Q133.7-.324,133,.7l-3.78-1.593a28.83,28.83,0,0,0,2.417-3.7A29.568,29.568,0,0,0,133.434-8.4Zm13.338-.567q-.405-1.08-.891-2.3t-1.026-2.43q-.54-1.215-1.053-2.295t-.945-1.863l3.591-1.161q.405.783.945,1.89t1.08,2.335q.54,1.229,1.053,2.443t.918,2.187q.351.891.77,2.106t.864,2.525q.445,1.309.837,2.551t.661,2.241l-4,1.3q-.351-1.593-.81-3.24t-.958-3.24Q147.312-7.506,146.772-8.964Zm20.763-7.074q.189.432.5,1.229t.661,1.7q.351.9.621,1.715t.432,1.269l-3.24,1.134a11.263,11.263,0,0,0-.378-1.3q-.27-.783-.594-1.66t-.648-1.687q-.324-.81-.567-1.35Zm9.963,1.971q-.216.648-.364,1.107t-.284.864a25.881,25.881,0,0,1-1.4,4.09,18.052,18.052,0,0,1-2.268,3.821A20.114,20.114,0,0,1,168.9-.068a21.208,21.208,0,0,1-4.766,2.579L161.3-.378a18.3,18.3,0,0,0,3.132-1.2,20.175,20.175,0,0,0,3.186-1.931,14.1,14.1,0,0,0,2.646-2.511,13.981,13.981,0,0,0,1.633-2.66,19.407,19.407,0,0,0,1.188-3.213,19.989,19.989,0,0,0,.634-3.389Zm-16.227-.54q.27.513.607,1.323t.688,1.7q.351.891.689,1.728t.527,1.4l-3.294,1.242q-.162-.54-.473-1.4t-.688-1.823q-.378-.958-.715-1.768a12.389,12.389,0,0,0-.581-1.242Zm42.552-2.187q-.216.378-.459.9t-.432,1.04a27.425,27.425,0,0,1-.986,2.714,28.5,28.5,0,0,1-1.566,3.159,23.994,23.994,0,0,1-2.146,3.145,25.6,25.6,0,0,1-4.523,4.212,28.726,28.726,0,0,1-6.385,3.4L184.14-1.08a25.909,25.909,0,0,0,4.752-1.863A21.348,21.348,0,0,0,192.375-5.2a20.4,20.4,0,0,0,2.646-2.551,14.65,14.65,0,0,0,1.728-2.39,23.867,23.867,0,0,0,1.35-2.66,11.451,11.451,0,0,0,.756-2.322h-9.1L191-18.171h7.722a9.906,9.906,0,0,0,1.256-.081,5.345,5.345,0,0,0,1.093-.243Zm-8.8-4.266q-.486.7-.945,1.512t-.7,1.242a29.25,29.25,0,0,1-2.255,3.362,30.072,30.072,0,0,1-3.038,3.375,30.919,30.919,0,0,1-3.618,2.984l-3.051-2.241a26.051,26.051,0,0,0,3.145-2.268,22.252,22.252,0,0,0,2.363-2.309,22.443,22.443,0,0,0,1.714-2.214q.716-1.067,1.229-1.9a9.6,9.6,0,0,0,.675-1.337,12.4,12.4,0,0,0,.54-1.5Z" transform="translate(930.05 6427.5)" fill="#e84830"/><path d="M10.656,0H29.97L66.156-67.932V-80.808H8.325v14.763H46.842Zm92.8,1.332c21.534,0,35.853-18.426,35.853-41.736v-.222c0-23.421-14.319-41.514-35.631-41.514-21.423,0-35.853,18.426-35.853,41.736v.222C67.821-16.761,81.918,1.332,103.452,1.332Zm.222-15.318c-11.1,0-18.315-11.433-18.315-26.418v-.222c0-14.985,7.1-26.2,18.093-26.2S121.767-55.278,121.767-40.4v.222C121.767-25.308,114.774-13.986,103.674-13.986Z" transform="translate(747.05 6432.5)" fill="#e84830"/><path d="M9.266-14.924c4.346,0,7.257-3.444,7.257-7.626v-.082c0-4.182-2.87-7.544-7.175-7.544s-7.257,3.4-7.257,7.626v.082C2.091-18.286,5-14.924,9.266-14.924Zm7.749-1.107L5.084,0H10l9.881-13.817L31.816-29.848H26.9ZM9.266-26.445c1.763,0,2.911,1.8,2.911,3.9v.082c0,2.009-.984,3.772-2.829,3.772-1.722,0-2.911-1.763-2.911-3.854v-.082C6.437-24.682,7.421-26.445,9.266-26.445ZM27.552.328c4.3,0,7.257-3.444,7.257-7.626V-7.38c0-4.141-2.911-7.544-7.175-7.544-4.346,0-7.257,3.444-7.257,7.626v.082C20.377-3.034,23.247.328,27.552.328ZM27.634-3.4c-1.763,0-2.911-1.8-2.911-3.9V-7.38c0-2.009.984-3.772,2.829-3.772,1.722,0,2.911,1.763,2.911,3.854v.082C30.463-5.207,29.479-3.4,27.634-3.4Z" transform="translate(890.05 6430.5)" fill="#e84830"/><path d="M-5.16-15.048v.984H5.064v-.984Zm0-2.712v.96H5.064v-.96Zm-2.76-1.872H7.944v7.44H-7.92Zm-2.832,8.3H10.7v2.28H-10.752ZM.264-8.16H8.112v2.208H.264Zm-7.32.072h5.448V-6.1H-7.056Zm0,3.024h5.448v1.992H-7.056Zm10.248-1.1A9.922,9.922,0,0,0,6.276-2.376,12.878,12.878,0,0,0,11.232-.12q-.264.264-.6.66a8.966,8.966,0,0,0-.624.828q-.288.432-.48.768A13.514,13.514,0,0,1,4.284-.744,13.91,13.91,0,0,1,.888-5.52ZM7.248-8.16h.528l.48-.072,1.776.672a14.636,14.636,0,0,1-2.04,4.38A13.554,13.554,0,0,1,4.884.012,16.561,16.561,0,0,1,.936,2.136,7.886,7.886,0,0,0,.24.948,7.749,7.749,0,0,0-.624-.12,13.237,13.237,0,0,0,2.028-1.272a11.766,11.766,0,0,0,2.292-1.7A11.412,11.412,0,0,0,6.108-5.16a9.721,9.721,0,0,0,1.14-2.568ZM-10.968-1.584q1.224-.072,2.736-.18T-5.04-2q1.68-.132,3.384-.276V.072Q-4.08.288-6.468.516t-4.284.4Zm7.9-9H-.336V2.16H-3.072Zm-5.784.048H-6.24V-.72H-8.856Zm-1.8,23.616H10.7v2.976h-21.36ZM1.68,14.28a23.409,23.409,0,0,0,1.992,5.112,16.1,16.1,0,0,0,3.156,4.152,14.191,14.191,0,0,0,4.4,2.808,6.645,6.645,0,0,0-.756.792q-.4.48-.768,1t-.612.924a16.014,16.014,0,0,1-4.74-3.336,18.589,18.589,0,0,1-3.324-4.764,34.259,34.259,0,0,1-2.256-6.012ZM-1.632,6.624H1.512Q1.488,8.448,1.4,10.476t-.372,4.116a25.934,25.934,0,0,1-.924,4.14,17.706,17.706,0,0,1-1.776,3.936A15.952,15.952,0,0,1-4.6,26.184a18.229,18.229,0,0,1-4.356,2.88,8.773,8.773,0,0,0-.936-1.272,7.4,7.4,0,0,0-1.224-1.152,16.416,16.416,0,0,0,4.1-2.556,13.9,13.9,0,0,0,2.7-3.144,14.831,14.831,0,0,0,1.6-3.528A20.608,20.608,0,0,0-1.956,13.7q.2-1.872.252-3.672T-1.632,6.624Z" transform="translate(738.498 6402.338)" fill="#e84830"/><g transform="translate(877.875 6346.415)"><path d="M1.6-15.72H17.28v2.38H4V1.78H1.6Zm14.54,0h2.42v14.7A3.861,3.861,0,0,1,18.32.49a1.7,1.7,0,0,1-.86.85,4.305,4.305,0,0,1-1.55.37q-.93.07-2.27.07a6.131,6.131,0,0,0-.2-.78Q13.3.56,13.12.13a7.251,7.251,0,0,0-.36-.75q.58.04,1.17.05t1.05.01h.64a.658.658,0,0,0,.4-.13.484.484,0,0,0,.12-.37ZM2.9-8.28H17.32v2.36H2.9Zm5.84-6.14h2.4V-7.1H8.74Z" transform="translate(235.271 38.206)" fill="#333"/><path d="M-3.225-9.405v.615h6.39v-.615Zm0-1.695v.6h6.39v-.6ZM-4.95-12.27H4.965v4.65H-4.95ZM-6.72-7.08H6.69v1.425H-6.72ZM.165-5.1H5.07v1.38H.165Zm-4.575.045H-1V-3.81H-4.41Zm0,1.89H-1V-1.92H-4.41Zm6.4-.69a6.2,6.2,0,0,0,1.928,2.37,8.049,8.049,0,0,0,3.1,1.41Q6.855.09,6.645.338a5.6,5.6,0,0,0-.39.518q-.18.27-.3.48a8.446,8.446,0,0,1-3.277-1.8A8.694,8.694,0,0,1,.555-3.45ZM4.53-5.1h.33l.3-.045,1.11.42A9.147,9.147,0,0,1,5-1.988a8.471,8.471,0,0,1-1.943,2A10.351,10.351,0,0,1,.585,1.335,4.929,4.929,0,0,0,.15.593,4.843,4.843,0,0,0-.39-.075,8.273,8.273,0,0,0,1.267-.8,7.354,7.354,0,0,0,2.7-1.86,7.133,7.133,0,0,0,3.818-3.225,6.076,6.076,0,0,0,4.53-4.83ZM-6.855-.99q.765-.045,1.71-.112t2-.15q1.05-.082,2.115-.173V.045Q-2.55.18-4.042.323T-6.72.57ZM-1.92-6.615H-.21V1.35H-1.92Zm-3.615.03H-3.9V-.45H-5.535ZM-6.66,7.3H6.69V9.16H-6.66Zm7.71.75a14.631,14.631,0,0,0,1.245,3.2,10.061,10.061,0,0,0,1.972,2.6A8.87,8.87,0,0,0,7.02,15.6a4.153,4.153,0,0,0-.472.495q-.248.3-.48.622t-.382.578A10.009,10.009,0,0,1,2.722,15.2,11.618,11.618,0,0,1,.645,12.227,21.412,21.412,0,0,1-.765,8.47ZM-1.02,3.265H.945Q.93,4.4.878,5.672T.645,8.245a16.209,16.209,0,0,1-.577,2.588,11.066,11.066,0,0,1-1.11,2.46,9.97,9.97,0,0,1-1.83,2.2,11.393,11.393,0,0,1-2.723,1.8,5.483,5.483,0,0,0-.585-.8,4.623,4.623,0,0,0-.765-.72,10.26,10.26,0,0,0,2.565-1.6,8.69,8.69,0,0,0,1.688-1.965,9.269,9.269,0,0,0,1-2.2A12.88,12.88,0,0,0-1.222,7.69q.128-1.17.158-2.3T-1.02,3.265Z" transform="translate(52.405 24.085)" fill="#333"/><path d="M2.2,0H23.64V-5.32H10.72l5-3.92c5.16-4.04,7.64-6.48,7.64-11.28v-.08c0-5.4-4-8.92-9.96-8.92-5.2,0-7.96,2.12-10.8,6.04l4.32,3.44c2.16-2.68,3.76-4,6.08-4a3.748,3.748,0,0,1,4.08,3.96c0,2.44-1.44,4.08-5.12,7.16L2.2-4.88ZM39.44.48c7.76,0,12.92-6.64,12.92-15.04v-.08c0-8.44-5.16-14.96-12.84-14.96-7.72,0-12.92,6.64-12.92,15.04v.08C26.6-6.04,31.68.48,39.44.48Zm.08-5.52c-4,0-6.6-4.12-6.6-9.52v-.08c0-5.4,2.56-9.44,6.52-9.44s6.6,4.16,6.6,9.52v.08C46.04-9.12,43.52-5.04,39.52-5.04ZM66.08.4c6.4,0,11.2-3.16,11.2-8.52V-8.2c0-3.48-1.8-5.36-4.8-6.88a6.988,6.988,0,0,0,3.8-6.4v-.08c0-4.52-4.12-7.96-10.2-7.96-6.12,0-10.24,3.48-10.24,7.96v.08a6.952,6.952,0,0,0,3.84,6.4c-3.12,1.4-4.84,3.48-4.84,7.04v.08C54.84-2.92,59.64.4,66.08.4Zm0-17.56c-2.64,0-4.4-1.56-4.4-3.72v-.08c0-1.88,1.68-3.48,4.4-3.48s4.36,1.64,4.36,3.52v.08C70.44-18.68,68.68-17.16,66.08-17.16Zm0,12.48c-3.32,0-5.28-1.68-5.28-3.76v-.08c0-2.32,2.24-3.72,5.28-3.72,3,0,5.24,1.4,5.24,3.72v.08C71.32-6.32,69.36-4.68,66.08-4.68ZM79.16,6.6c4.8-.12,7.44-2.28,7.44-7.6V-6.48H80.12V0H82.6c.2,2.32-1.16,3.76-3.96,4.08ZM101.64.48c6.28,0,11.04-4.08,11.04-10v-.12c0-6-4.44-9.24-10.2-9.24a9.411,9.411,0,0,0-6.2,2.16h-.04c.2-2.8,1.52-7.32,6.12-7.32a8.9,8.9,0,0,1,6,2.4l3.24-4.76a13.316,13.316,0,0,0-9.04-3.2c-8.6,0-12.72,6.88-12.72,15.88v.08c0,5.8,1.32,8.88,3.44,11.04A11.173,11.173,0,0,0,101.64.48Zm-.24-5.24c-3.24,0-5.24-1.96-5.24-4.52v-.08c0-2.52,1.92-4.4,5.16-4.4,3.28,0,5.24,1.88,5.24,4.4v.12C106.56-6.68,104.68-4.76,101.4-4.76ZM128.48.48c7.76,0,12.92-6.64,12.92-15.04v-.08c0-8.44-5.16-14.96-12.84-14.96-7.72,0-12.92,6.64-12.92,15.04v.08C115.64-6.04,120.72.48,128.48.48Zm.08-5.52c-4,0-6.6-4.12-6.6-9.52v-.08c0-5.4,2.56-9.44,6.52-9.44s6.6,4.16,6.6,9.52v.08C135.08-9.12,132.56-5.04,128.56-5.04ZM157.12.48c7.76,0,12.92-6.64,12.92-15.04v-.08c0-8.44-5.16-14.96-12.84-14.96-7.72,0-12.92,6.64-12.92,15.04v.08C144.28-6.04,149.36.48,157.12.48Zm.08-5.52c-4,0-6.6-4.12-6.6-9.52v-.08c0-5.4,2.56-9.44,6.52-9.44s6.6,4.16,6.6,9.52v.08C163.72-9.12,161.2-5.04,157.2-5.04Z" transform="translate(62.405 41.085)" fill="#333"/></g><path d="M-7689.115,1226.863l-.482-1.941,47.474-11.8,11.8-47.472,1.941.482-12.089,48.641Z" transform="translate(5257.43 129.25) rotate(-45)" fill="#e84830"/><path d="M-7689.115,1226.863l-.482-1.941,47.474-11.8,11.8-47.472,1.941.482-12.089,48.641Z" transform="translate(5714.932 129.25) rotate(-45)" fill="#e84830"/></g></svg>