<svg xmlns="http://www.w3.org/2000/svg" width="1000" height="320" viewBox="0 0 1000 320"><g transform="translate(-460 -2000)"><rect width="230" height="320" rx="20" transform="translate(460 2000)" fill="#ffe632" opacity="0.15"/><rect width="230" height="320" rx="20" transform="translate(717 2000)" fill="#ffe632" opacity="0.15"/><rect width="230" height="320" rx="20" transform="translate(973 2000)" fill="#ffe632" opacity="0.15"/><rect width="230" height="320" rx="20" transform="translate(1230 2000)" fill="#ffe632" opacity="0.15"/><path d="M-50.048-11.392q-.064-.336-.144-.624t-.176-.56l2.032-.336q.032.24.072.584t.088.632q.048.208.152.808t.272,1.464q.168.864.368,1.872t.4,2.032q.2,1.024.376,1.936t.312,1.6q.136.688.2.992.08.352.184.76t.216.776L-47.76.912q-.064-.432-.1-.832a6.163,6.163,0,0,0-.12-.752q-.048-.288-.168-.944t-.3-1.552l-.376-1.912q-.2-1.016-.392-2.024l-.36-1.888q-.168-.88-.3-1.512T-50.048-11.392Zm-4.4,2.112q.352-.032.7-.056t.736-.056l1-.136q.648-.088,1.472-.216l1.712-.264q.888-.136,1.72-.272t1.488-.248q.656-.112,1.024-.192.384-.064.76-.152t.648-.168l.352,1.9q-.24.016-.64.072l-.752.1q-.416.064-1.112.176l-1.536.248q-.84.136-1.728.272t-1.7.272q-.808.136-1.424.232t-.936.16q-.352.064-.68.136t-.728.168Zm-.016,4.672q.32-.016.776-.064t.808-.1q.432-.064,1.16-.176t1.64-.256q.912-.144,1.88-.3l1.88-.312q.912-.152,1.672-.288t1.224-.216q.464-.08.864-.176t.7-.176l.384,1.888a6.749,6.749,0,0,0-.736.088q-.432.072-.88.152-.528.08-1.3.208l-1.7.28q-.92.152-1.88.3t-1.848.3q-.888.152-1.592.264t-1.1.192q-.5.1-.888.168a5.652,5.652,0,0,0-.648.152Zm20.8-5.456q.048.272.112.56t.128.608q.128.432.328,1.16t.448,1.608q.248.88.5,1.8t.488,1.76q.24.84.416,1.472t.272.952a2.668,2.668,0,0,1,.128.384q.064.24.144.472t.144.392l-1.952.5a6.674,6.674,0,0,0-.1-.672q-.072-.352-.168-.672t-.272-.984q-.176-.664-.408-1.528t-.48-1.792q-.248-.928-.48-1.808t-.424-1.576q-.192-.7-.32-1.08a4.558,4.558,0,0,0-.192-.576q-.112-.272-.24-.512Zm7.68,2.4q-.256.512-.656,1.176t-.888,1.36q-.488.7-.968,1.312t-.9,1.064l-1.584-.8a10.839,10.839,0,0,0,.912-.928q.48-.544.9-1.1a7.435,7.435,0,0,0,.648-.968l-.664.136-1.208.248-1.536.312q-.832.168-1.672.344t-1.6.328q-.76.152-1.328.272t-.84.184l-.432-1.712q.368-.032.7-.08t.72-.112l.672-.12q.5-.088,1.192-.216t1.488-.28q.792-.152,1.6-.3t1.528-.3l1.248-.248q.528-.1.752-.152.192-.048.4-.112a3.189,3.189,0,0,0,.352-.128Zm14.7-4.672q-.016.32-.032.7t-.016.832v3.008a18.971,18.971,0,0,1-.12,2.3,9.777,9.777,0,0,1-.344,1.688,5.464,5.464,0,0,1-.568,1.272,7.405,7.405,0,0,1-.792,1.048A5.938,5.938,0,0,1-14.344-.44,9.311,9.311,0,0,1-15.72.328a12.927,12.927,0,0,1-1.288.5L-18.5-.752a9.527,9.527,0,0,0,2.136-.76,5.916,5.916,0,0,0,1.7-1.288,5.112,5.112,0,0,0,.68-.944,4.132,4.132,0,0,0,.4-1.072,8.439,8.439,0,0,0,.184-1.344q.048-.752.048-1.744v-2.9q0-.448-.024-.832t-.072-.7Zm-7.408.128q-.016.272-.04.56t-.024.64v5.392q0,.3.024.688t.04.656h-2.1q.032-.208.056-.6t.024-.76v-5.376q0-.208-.016-.568t-.048-.632ZM7.168-10.816q-.112.128-.288.352a3.875,3.875,0,0,0-.272.384,14.576,14.576,0,0,1-.96,1.416,19.271,19.271,0,0,1-1.36,1.608A10.354,10.354,0,0,1,2.72-5.68L1.232-6.864a7.818,7.818,0,0,0,.976-.712q.48-.408.9-.848a9.192,9.192,0,0,0,.736-.856,6.424,6.424,0,0,0,.488-.736h-8.56q-.5,0-.936.032t-.984.08V-11.92q.448.064.936.112t.984.048H4.56q.208,0,.5-.016t.568-.048a3.5,3.5,0,0,0,.408-.064ZM.688-8.688q0,1.216-.056,2.336a12.561,12.561,0,0,1-.28,2.12,7.44,7.44,0,0,1-.7,1.9,6.81,6.81,0,0,1-1.3,1.688A9.165,9.165,0,0,1-3.76.816L-5.44-.544A7.138,7.138,0,0,0-4.648-.88a5.006,5.006,0,0,0,.824-.512,5.783,5.783,0,0,0,1.312-1.16A4.669,4.669,0,0,0-1.752-3.9a6.884,6.884,0,0,0,.36-1.584,16.47,16.47,0,0,0,.1-1.832q0-.352-.016-.68a5.691,5.691,0,0,0-.08-.7Zm20.176-2.976a.926.926,0,0,0,.28.68.926.926,0,0,0,.68.28.952.952,0,0,0,.688-.28.913.913,0,0,0,.288-.68.913.913,0,0,0-.288-.68.953.953,0,0,0-.688-.28.926.926,0,0,0-.68.28A.926.926,0,0,0,20.864-11.664Zm-.912,0a1.818,1.818,0,0,1,.256-.944,1.954,1.954,0,0,1,.68-.688,1.776,1.776,0,0,1,.936-.256,1.806,1.806,0,0,1,.952.256,1.954,1.954,0,0,1,.68.688,1.818,1.818,0,0,1,.256.944,1.776,1.776,0,0,1-.256.936,1.976,1.976,0,0,1-.68.68,1.806,1.806,0,0,1-.952.256,1.776,1.776,0,0,1-.936-.256,1.976,1.976,0,0,1-.68-.68A1.776,1.776,0,0,1,19.952-11.664Zm1.776,1.216a3.521,3.521,0,0,0-.176.48q-.08.272-.144.528-.128.608-.336,1.344t-.5,1.528a13.813,13.813,0,0,1-.68,1.56,9.563,9.563,0,0,1-.888,1.424,12.27,12.27,0,0,1-1.656,1.768A12.434,12.434,0,0,1,15.24-.328,14.105,14.105,0,0,1,12.624.8L11.056-.912A13.477,13.477,0,0,0,13.8-1.864a9.832,9.832,0,0,0,2.016-1.288,11.09,11.09,0,0,0,1.512-1.536,7.8,7.8,0,0,0,.936-1.52,12.6,12.6,0,0,0,.648-1.664,9.739,9.739,0,0,0,.352-1.536H11.6q-.528,0-1.016.016t-.792.048v-2.032q.24.032.56.064t.664.048q.344.016.6.016h7.568q.224,0,.536-.016a2.764,2.764,0,0,0,.6-.1Zm5.888-1.728a6.9,6.9,0,0,0,.76.064q.44.016.824.016h6.192q.384,0,.856-.016a7.094,7.094,0,0,0,.792-.064V-10.3q-.3-.032-.768-.048t-.9-.016H29.2q-.368,0-.808.016t-.776.048ZM38.352-7.648q-.08.144-.16.32a2.185,2.185,0,0,0-.112.288,17.622,17.622,0,0,1-.92,2.32,8.979,8.979,0,0,1-1.448,2.144A10.257,10.257,0,0,1,33.016-.4,14.2,14.2,0,0,1,30,.848L28.576-.768a12.238,12.238,0,0,0,3.2-1.112A9.159,9.159,0,0,0,34.144-3.6a6.33,6.33,0,0,0,1.088-1.48,8.122,8.122,0,0,0,.624-1.512H27.92q-.288,0-.792.016t-.984.064V-8.384l.96.064q.464.032.816.032h8.048a4.81,4.81,0,0,0,.656-.04,1.486,1.486,0,0,0,.448-.12Zm5.44-4.4q.416.288.976.712t1.152.9q.592.48,1.12.936a10.292,10.292,0,0,1,.864.824L46.448-7.2q-.3-.32-.792-.784t-1.064-.952q-.576-.488-1.136-.936a12.27,12.27,0,0,0-1.008-.736ZM41.968-1.36a17.163,17.163,0,0,0,2.416-.528,17.341,17.341,0,0,0,2.072-.76,17.76,17.76,0,0,0,1.72-.872,14.522,14.522,0,0,0,2.432-1.832A16.356,16.356,0,0,0,52.544-7.5a12.889,12.889,0,0,0,1.328-2.152l1.1,1.984A14.254,14.254,0,0,1,53.52-5.536a16.847,16.847,0,0,1-1.952,2.008,17.856,17.856,0,0,1-2.352,1.736q-.816.48-1.76.936A17.273,17.273,0,0,1,45.44-.04a14.147,14.147,0,0,1-2.272.552ZM-48.56,12.912a14.942,14.942,0,0,0,1.624.152q.9.04,1.856.032t1.816-.064q.864-.056,1.5-.12v1.84q-.7.064-1.584.1t-1.8.04q-.92,0-1.8-.04t-1.6-.1Zm1.088,6.752q-.1.416-.144.736a4.308,4.308,0,0,0-.048.64,1.081,1.081,0,0,0,.12.5.977.977,0,0,0,.4.392,2.414,2.414,0,0,0,.728.248,5.952,5.952,0,0,0,1.12.088,18.665,18.665,0,0,0,2.024-.1A18.825,18.825,0,0,0-41.3,21.84l.032,1.936a14.367,14.367,0,0,1-1.768.24q-1,.08-2.328.08a5.392,5.392,0,0,1-3.032-.68,2.162,2.162,0,0,1-.984-1.88A6.417,6.417,0,0,1-49.3,20.6q.072-.488.2-1.08Zm-3.712-7.856q-.048.144-.128.408t-.144.52q-.064.256-.1.4-.064.352-.168.9t-.208,1.216q-.1.664-.192,1.352t-.152,1.328q-.064.64-.064,1.136,0,.336.024.688t.056.688q.128-.288.264-.608t.272-.632q.136-.312.248-.584l.912.7q-.224.64-.456,1.376t-.416,1.392q-.184.656-.28,1.056-.032.176-.056.4a3.508,3.508,0,0,0-.024.352q0,.112.008.288t.024.336l-1.648.112a16.511,16.511,0,0,1-.432-2.2,21.663,21.663,0,0,1-.192-3q0-.9.08-1.816t.192-1.784q.112-.864.224-1.576t.192-1.192q.032-.32.08-.7t.064-.736Zm12.368,3.536q.448-.08.96-.216t.96-.264q.48-.144,1.272-.4t1.744-.52q.952-.264,1.944-.44a10.738,10.738,0,0,1,1.872-.176,6,6,0,0,1,2.56.528,4.383,4.383,0,0,1,1.816,1.528,4.266,4.266,0,0,1,.68,2.456,4.856,4.856,0,0,1-.416,2.024,5.167,5.167,0,0,1-1.192,1.648A7.213,7.213,0,0,1-28.5,22.76a12.019,12.019,0,0,1-2.5.832A17.778,17.778,0,0,1-34,23.984l-.832-1.888a19.575,19.575,0,0,0,3.024-.312,10.038,10.038,0,0,0,2.48-.776,4.488,4.488,0,0,0,1.68-1.312,3.031,3.031,0,0,0,.608-1.888A2.766,2.766,0,0,0-27.4,16.4a2.529,2.529,0,0,0-1.048-.984,3.588,3.588,0,0,0-1.68-.36,8.17,8.17,0,0,0-1.608.176q-.872.176-1.776.448t-1.752.584q-.848.312-1.552.608T-38,17.36Zm19.04-2.7q-.048.256-.08.6t-.056.68l-.04.56q0,.512.008,1.1t.032,1.192q.024.608.072,1.216a13.176,13.176,0,0,0,.352,2.112,4.475,4.475,0,0,0,.6,1.424,1.059,1.059,0,0,0,.888.512.749.749,0,0,0,.552-.3,3.314,3.314,0,0,0,.5-.784,9.185,9.185,0,0,0,.416-1.04q.184-.552.312-1.064l1.44,1.712a11.844,11.844,0,0,1-1.032,2.192,3.886,3.886,0,0,1-1.064,1.176,2.053,2.053,0,0,1-1.152.36,2.576,2.576,0,0,1-1.592-.568,4.469,4.469,0,0,1-1.288-1.84,12.05,12.05,0,0,1-.768-3.4q-.08-.72-.12-1.536t-.048-1.552q-.008-.736-.008-1.216,0-.32-.024-.768a4.786,4.786,0,0,0-.1-.8Zm8.1.384a8.225,8.225,0,0,1,.864,1.312,14.674,14.674,0,0,1,.76,1.648q.344.88.608,1.8t.432,1.8a15.975,15.975,0,0,1,.232,1.632l-1.872.736q-.1-1.008-.312-2.152a20.632,20.632,0,0,0-.568-2.28,16.38,16.38,0,0,0-.832-2.152,7.6,7.6,0,0,0-1.12-1.752Zm4.64.08q.48-.016.9-.04t.64-.04l1.192-.12q.728-.072,1.64-.152t1.952-.168L1.424,12.4q.848-.064,1.664-.12l1.536-.1q.72-.048,1.28-.064v1.84q-.432,0-1,.016t-1.12.056a5.535,5.535,0,0,0-.984.152,4.3,4.3,0,0,0-1.384.7,5.236,5.236,0,0,0-1.1,1.128A5.474,5.474,0,0,0-.4,17.384a4.342,4.342,0,0,0-.256,1.448,3.443,3.443,0,0,0,.288,1.456,3.142,3.142,0,0,0,.792,1.064A4.419,4.419,0,0,0,1.6,22.08a6.847,6.847,0,0,0,1.44.432,10.85,10.85,0,0,0,1.568.176L3.952,24.64a9.342,9.342,0,0,1-1.92-.3,8.117,8.117,0,0,1-1.768-.688,5.863,5.863,0,0,1-1.448-1.08A4.846,4.846,0,0,1-2.168,21.1a4.711,4.711,0,0,1-.36-1.888,5.87,5.87,0,0,1,.392-2.176A6.751,6.751,0,0,1-1.152,15.3a5.865,5.865,0,0,1,1.184-1.16q-.48.064-1.144.136t-1.432.16q-.768.088-1.552.184t-1.5.216q-.712.12-1.256.232ZM17.1,13.04q-.176,1.232-.424,2.6a25.562,25.562,0,0,1-.664,2.76,15.283,15.283,0,0,1-1.088,2.768,5.766,5.766,0,0,1-1.336,1.76,2.392,2.392,0,0,1-1.56.608,2.437,2.437,0,0,1-1.552-.576,4.031,4.031,0,0,1-1.16-1.608,5.969,5.969,0,0,1-.44-2.36,6.086,6.086,0,0,1,.56-2.576,7.069,7.069,0,0,1,1.544-2.16,7.208,7.208,0,0,1,2.3-1.48,7.519,7.519,0,0,1,2.856-.536,7.011,7.011,0,0,1,2.632.472,5.772,5.772,0,0,1,3.288,3.272,6.4,6.4,0,0,1,.448,2.4,6.287,6.287,0,0,1-.7,2.992,5.686,5.686,0,0,1-2.04,2.16,8.474,8.474,0,0,1-3.344,1.136l-1.072-1.7q.448-.048.8-.112t.672-.128a5.7,5.7,0,0,0,1.448-.544,4.6,4.6,0,0,0,1.192-.92,4.129,4.129,0,0,0,.808-1.3,4.444,4.444,0,0,0,.3-1.656,5.037,5.037,0,0,0-.3-1.76,4,4,0,0,0-.872-1.4,3.922,3.922,0,0,0-1.4-.928,5.1,5.1,0,0,0-1.9-.328,5.348,5.348,0,0,0-5.032,3.264,4.285,4.285,0,0,0-.36,1.648,4.155,4.155,0,0,0,.208,1.416,2.08,2.08,0,0,0,.52.848.949.949,0,0,0,.632.28,1.014,1.014,0,0,0,.7-.352,3.852,3.852,0,0,0,.7-1.1,15.2,15.2,0,0,0,.7-1.9,24.678,24.678,0,0,0,.608-2.456,24.6,24.6,0,0,0,.368-2.568Zm14.944,2.1h5.824v1.552H32.048Zm.016,3.808h5.824V20.5H32.064Zm0,3.808h5.824V24.32H32.064Zm-.832-11.424h7.456V25.184H36.96V12.96H32.88v12.3H31.232Zm-6.72,2.464h6.112v1.632H24.512ZM26.9,10.448h1.648V25.376H26.9Zm-.08,4.416,1.04.368q-.208.976-.5,2.008t-.68,2.024a19.808,19.808,0,0,1-.816,1.84,9.441,9.441,0,0,1-.912,1.472,5.627,5.627,0,0,0-.376-.824q-.248-.456-.456-.792a9.11,9.11,0,0,0,.84-1.24,16.325,16.325,0,0,0,.768-1.528q.36-.816.64-1.672T26.816,14.864Zm1.6,1.52a7.546,7.546,0,0,1,.52.552q.344.392.728.856t.712.856q.328.392.456.552l-.992,1.392q-.176-.336-.456-.8t-.608-.968q-.328-.5-.64-.936l-.52-.72Zm21.36-1.568,1.056-1.12q.7.4,1.528.9t1.584,1.008a12.308,12.308,0,0,1,1.24.92l-1.136,1.3a10.8,10.8,0,0,0-1.184-.96q-.736-.528-1.552-1.072T49.776,14.816ZM50.8,17.2h.864v2.4a3.375,3.375,0,0,0,.1.728,4.418,4.418,0,0,0,.328.912,4.658,4.658,0,0,0,.648.984,5.239,5.239,0,0,0,1.056.936,7.514,7.514,0,0,0,1.552.792q-.224.288-.528.72a6.994,6.994,0,0,0-.464.736,5.7,5.7,0,0,1-1.424-.776,6.4,6.4,0,0,1-1.064-1,5.921,5.921,0,0,1-.7-1.032,5.546,5.546,0,0,1-.376-.856,4.084,4.084,0,0,1-.4.856,6.064,6.064,0,0,1-.776,1.016,6.8,6.8,0,0,1-1.168.992,7.387,7.387,0,0,1-1.576.8,5.248,5.248,0,0,0-.264-.456q-.168-.264-.352-.52a3.4,3.4,0,0,0-.344-.416,7.5,7.5,0,0,0,1.672-.792,5.91,5.91,0,0,0,1.152-.96,4.873,4.873,0,0,0,.712-.992,3.989,3.989,0,0,0,.36-.928,3.33,3.33,0,0,0,.1-.744V17.2Zm-.768-6.752h1.7a23.593,23.593,0,0,1-.248,2.608,7.3,7.3,0,0,1-.64,2.1,4.711,4.711,0,0,1-1.32,1.616,7.733,7.733,0,0,1-2.3,1.184,3.379,3.379,0,0,0-.392-.712,3.514,3.514,0,0,0-.552-.648,6.379,6.379,0,0,0,1.976-.936,3.717,3.717,0,0,0,1.1-1.3,5.4,5.4,0,0,0,.5-1.712Q49.984,11.68,50.032,10.448Zm-2.352.992,1.408.272a6.977,6.977,0,0,1-.432,1.624,3.879,3.879,0,0,1-.848,1.336l-1.344-.592a3.373,3.373,0,0,0,.776-1.16A6.529,6.529,0,0,0,47.68,11.44ZM47.5,18.368l1.5.3a8.272,8.272,0,0,1-.536,1.8,4.009,4.009,0,0,1-1,1.448l-1.392-.736a3.244,3.244,0,0,0,.9-1.216A7.1,7.1,0,0,0,47.5,18.368Zm5.84-7.024,1.664.528q-.4.7-.816,1.392t-.768,1.184l-1.28-.48a9.147,9.147,0,0,0,.456-.816q.232-.464.432-.944A8.38,8.38,0,0,0,53.344,11.344Zm.128,6.912,1.68.528q-.432.752-.872,1.5a11.522,11.522,0,0,1-.84,1.264l-1.312-.5q.24-.384.488-.872t.472-1Q53.312,18.672,53.472,18.256ZM41.04,15.344h4.784v1.312H41.04Zm.048-4.368h4.688v1.3H41.088ZM41.04,17.5h4.784v1.312H41.04Zm-.768-4.4h6.08V14.48h-6.08Zm1.5,6.608H45.84v4.816H41.776V23.152h2.592V21.088H41.776Zm-.768,0h1.456v5.472H41.008Z" transform="translate(575 2046)" fill="#333"/><path d="M-66.656-11.664a.926.926,0,0,0,.28.68.926.926,0,0,0,.68.28.953.953,0,0,0,.688-.28.913.913,0,0,0,.288-.68.913.913,0,0,0-.288-.68.953.953,0,0,0-.688-.28.926.926,0,0,0-.68.28A.926.926,0,0,0-66.656-11.664Zm-.912,0a1.818,1.818,0,0,1,.256-.944,1.954,1.954,0,0,1,.68-.688,1.776,1.776,0,0,1,.936-.256,1.806,1.806,0,0,1,.952.256,1.954,1.954,0,0,1,.68.688,1.818,1.818,0,0,1,.256.944,1.776,1.776,0,0,1-.256.936,1.976,1.976,0,0,1-.68.68,1.806,1.806,0,0,1-.952.256,1.776,1.776,0,0,1-.936-.256,1.976,1.976,0,0,1-.68-.68A1.776,1.776,0,0,1-67.568-11.664Zm1.776,1.216a3.523,3.523,0,0,0-.176.48q-.08.272-.144.528-.128.608-.336,1.344t-.5,1.528a13.814,13.814,0,0,1-.68,1.56,9.564,9.564,0,0,1-.888,1.424,12.27,12.27,0,0,1-1.656,1.768A12.434,12.434,0,0,1-72.28-.328,14.105,14.105,0,0,1-74.9.8L-76.464-.912a13.477,13.477,0,0,0,2.744-.952A9.832,9.832,0,0,0-71.7-3.152a11.091,11.091,0,0,0,1.512-1.536,7.8,7.8,0,0,0,.936-1.52,12.6,12.6,0,0,0,.648-1.664,9.74,9.74,0,0,0,.352-1.536H-75.92q-.528,0-1.016.016t-.792.048v-2.032q.24.032.56.064t.664.048q.344.016.6.016h7.568q.224,0,.536-.016a2.764,2.764,0,0,0,.6-.1Zm4.384-.8q.48.016.888.024t.728.008h9.44q.416,0,.832-.016-.016.336-.024.728t-.008.744q0,.192,0,.664t0,1.128q0,.656,0,1.4t0,1.488q0,.744,0,1.4t0,1.12q0,.464,0,.64,0,.224.008.568t.008.688q0,.344.008.6t.008.288H-51.5a2.36,2.36,0,0,0,.016-.392q0-.344.016-.8t.016-.872V-9.392h-8.016v8.16q0,.336.008.648t.008.536V.224h-1.968q0-.048.008-.28t.016-.576q.008-.344.008-.688V-10.5Q-61.392-10.912-61.408-11.248ZM-50.736-2.48V-.656h-9.7V-2.48ZM-35.12-13.024q.208.288.44.688t.456.8q.224.4.384.7l-1.168.512q-.24-.5-.592-1.128t-.672-1.1Zm1.856-.7q.208.3.456.7t.48.792q.232.392.376.68l-1.168.512q-.24-.512-.6-1.136a10.755,10.755,0,0,0-.7-1.072ZM-33.792-9.6a3.994,3.994,0,0,0-.256.5q-.128.3-.224.568a14.4,14.4,0,0,1-.592,1.648A17.581,17.581,0,0,1-35.8-5a14.218,14.218,0,0,1-1.272,1.864A14.906,14.906,0,0,1-39.728-.664,16.613,16.613,0,0,1-43.5,1.328l-1.7-1.5a15.765,15.765,0,0,0,2.776-1.1,12.09,12.09,0,0,0,2.072-1.352,13.747,13.747,0,0,0,1.6-1.536,10.316,10.316,0,0,0,1.04-1.472,14.1,14.1,0,0,0,.824-1.624,7.673,7.673,0,0,0,.472-1.432h-5.536l.672-1.632h4.72a5.149,5.149,0,0,0,.712-.048,3.325,3.325,0,0,0,.584-.128Zm-5.248-2.5q-.272.4-.52.84t-.392.68A16.057,16.057,0,0,1-41.24-8.6a17.556,17.556,0,0,1-1.776,2.008A15.714,15.714,0,0,1-45.2-4.816L-46.816-6a12.917,12.917,0,0,0,1.864-1.32,12.943,12.943,0,0,0,1.408-1.4,14.086,14.086,0,0,0,1.024-1.344q.424-.64.712-1.152a5.267,5.267,0,0,0,.376-.728,5.339,5.339,0,0,0,.3-.84Zm11.136-.08a6.9,6.9,0,0,0,.76.064q.44.016.824.016h6.192q.384,0,.856-.016a7.1,7.1,0,0,0,.792-.064V-10.3q-.3-.032-.768-.048t-.9-.016H-26.32q-.368,0-.808.016t-.776.048Zm10.736,4.528q-.08.144-.16.32a2.184,2.184,0,0,0-.112.288,17.622,17.622,0,0,1-.92,2.32,8.979,8.979,0,0,1-1.448,2.144A10.257,10.257,0,0,1-22.5-.4,14.2,14.2,0,0,1-25.52.848L-26.944-.768a12.238,12.238,0,0,0,3.2-1.112A9.159,9.159,0,0,0-21.376-3.6a6.33,6.33,0,0,0,1.088-1.48,8.122,8.122,0,0,0,.624-1.512H-27.6q-.288,0-.792.016t-.984.064V-8.384l.96.064q.464.032.816.032h8.048a4.81,4.81,0,0,0,.656-.04,1.486,1.486,0,0,0,.448-.12Zm9.9-4.384-.312.76q-.168.408-.344.936Q-8.064-9.9-8.288-9.2t-.5,1.544q-.272.84-.568,1.728t-.584,1.72q-.288.832-.528,1.512t-.416,1.08l-2.112.08q.208-.512.488-1.248T-11.92-4.4q.3-.88.608-1.8t.576-1.784q.272-.864.488-1.584t.344-1.168q.16-.592.232-.984t.12-.776Zm2.912,5.216q.432.656.928,1.512t.984,1.792q.488.936.912,1.8t.7,1.52L-2.768.672q-.256-.7-.656-1.624t-.856-1.88q-.456-.96-.936-1.808a13.39,13.39,0,0,0-.912-1.424ZM-13.28-2.16q.56-.032,1.352-.088t1.7-.144q.912-.088,1.872-.192t1.872-.208q.912-.1,1.688-.2t1.32-.176l.448,1.824q-.576.08-1.4.176t-1.776.2q-.952.1-1.944.216l-1.936.216q-.944.1-1.744.176t-1.344.136q-.3.032-.688.088t-.768.1l-.336-2.112q.4.016.856.008T-13.28-2.16ZM1.04-8.944H14.976V-5.52H13.3V-7.456H2.656V-5.52H1.04Zm2.208,2.88H11.84V-4.48H3.248Zm9.888-7.568L14.3-12.24q-1.312.256-2.864.456t-3.224.344q-1.672.144-3.36.248t-3.272.152a3.191,3.191,0,0,0-.144-.76q-.128-.424-.24-.712,1.584-.048,3.232-.152t3.232-.24q1.584-.136,2.984-.328T13.136-13.632Zm-10.56,2.9,1.5-.416a9.162,9.162,0,0,1,.584,1,5.4,5.4,0,0,1,.392.952l-1.584.464A5.658,5.658,0,0,0,3.12-9.7,8.86,8.86,0,0,0,2.576-10.736Zm4.24-.336,1.52-.352a11.414,11.414,0,0,1,.48,1.112A5.156,5.156,0,0,1,9.1-9.264l-1.6.4a7.214,7.214,0,0,0-.256-1.072A8.722,8.722,0,0,0,6.816-11.072ZM12-11.456l1.808.448q-.272.512-.576,1.016t-.6.968q-.3.464-.568.816L10.672-8.64q.24-.384.488-.872t.472-1Q11.856-11.024,12-11.456Zm-.8,5.392h.368l.3-.064,1.152.7a9.239,9.239,0,0,1-1.872,2.7A10.99,10.99,0,0,1,8.512-.8,17.158,17.158,0,0,1,5.288.488a26.691,26.691,0,0,1-3.608.776,3.458,3.458,0,0,0-.256-.5q-.176-.3-.368-.576A3.235,3.235,0,0,0,.688-.272,28.953,28.953,0,0,0,4.176-.88a15.426,15.426,0,0,0,3.04-1.056,9.615,9.615,0,0,0,2.4-1.6A6.538,6.538,0,0,0,11.2-5.776ZM5.056-4.912A8,8,0,0,0,7.456-2.7a14.307,14.307,0,0,0,3.488,1.512,23.975,23.975,0,0,0,4.336.824,4.591,4.591,0,0,0-.376.48Q14.7.4,14.528.7t-.3.544A23.511,23.511,0,0,1,9.808.216,13.812,13.812,0,0,1,6.224-1.608,11.349,11.349,0,0,1,3.552-4.3ZM22.5-12.368h8.736v1.248H22.5ZM22.08-8.384H31.5v1.312H22.08Zm-.032,6.016h9.488v1.36H22.048ZM23.664-4.32H30.08v1.088H23.664ZM22.8-10.384h8.1v1.2H22.8Zm1.44-3.168h1.536v5.76H24.24Zm3.584,0h1.552v5.76H27.824ZM26.032-7.728h1.424v6.16H26.032Zm3.1,1.344H30.7V-.16A2.119,2.119,0,0,1,30.568.7a.992.992,0,0,1-.52.472,2.937,2.937,0,0,1-.96.192q-.576.032-1.392.032a3.454,3.454,0,0,0-.152-.68A6.546,6.546,0,0,0,27.3.048q.5.016.96.024t.608.008a.35.35,0,0,0,.224-.072.282.282,0,0,0,.048-.184Zm-6.24,0h6.816v1.2h-5.36V1.392H22.9ZM17.216-8.56h4.368v1.312H17.216Zm.1-4.464H21.52v1.3H17.312Zm-.1,6.688h4.368v1.312H17.216Zm-.7-4.5h5.52v1.36h-5.52Zm1.5,6.752h3.632V.72H18.016V-.64h2.192V-2.72H18.016Zm-.832,0h1.424V1.376H17.184ZM39.2-11.088a14.942,14.942,0,0,0,1.624.152q.9.04,1.856.032t1.816-.064q.864-.056,1.5-.12v1.84q-.7.064-1.584.1t-1.8.04q-.92,0-1.8-.04t-1.6-.1Zm1.088,6.752q-.1.416-.144.736a4.308,4.308,0,0,0-.048.64,1.081,1.081,0,0,0,.12.5.977.977,0,0,0,.4.392,2.414,2.414,0,0,0,.728.248,5.952,5.952,0,0,0,1.12.088,18.665,18.665,0,0,0,2.024-.1,18.824,18.824,0,0,0,1.976-.328L46.5-.224a14.367,14.367,0,0,1-1.768.24Q43.728.1,42.4.1a5.392,5.392,0,0,1-3.032-.68,2.162,2.162,0,0,1-.984-1.88,6.417,6.417,0,0,1,.072-.936q.072-.488.2-1.08Zm-3.712-7.856q-.048.144-.128.408t-.144.52q-.064.256-.1.4-.064.352-.168.9t-.208,1.216q-.1.664-.192,1.352t-.152,1.328q-.064.64-.064,1.136,0,.336.024.688t.056.688q.128-.288.264-.608t.272-.632q.136-.312.248-.584l.912.7q-.224.64-.456,1.376T36.328-1.9q-.184.656-.28,1.056-.032.176-.056.4a3.508,3.508,0,0,0-.024.352q0,.112.008.288T36,.528L34.352.64a16.511,16.511,0,0,1-.432-2.2,21.663,21.663,0,0,1-.192-3q0-.9.08-1.816T34-8.16q.112-.864.224-1.576t.192-1.192q.032-.32.08-.7t.064-.736Zm20.416-.56q-.032.208-.056.52t-.048.648q-.024.336-.04.624v2.688q0,.672.048,1.568t.1,1.84q.048.944.1,1.768t.048,1.336a3.116,3.116,0,0,1-.16.992,2.17,2.17,0,0,1-.536.856A2.578,2.578,0,0,1,55.432.68,4.93,4.93,0,0,1,53.856.9,7.241,7.241,0,0,1,51.8.624a3.1,3.1,0,0,1-1.472-.888,2.365,2.365,0,0,1-.552-1.64,2.436,2.436,0,0,1,.472-1.456A3.143,3.143,0,0,1,51.672-4.4a6.387,6.387,0,0,1,2.376-.384,10.411,10.411,0,0,1,2.4.272,11.647,11.647,0,0,1,2.168.736,13.3,13.3,0,0,1,1.856,1.024,11.793,11.793,0,0,1,1.448,1.12L60.832.08A13.337,13.337,0,0,0,59.472-1.1,12.233,12.233,0,0,0,57.8-2.16a9.466,9.466,0,0,0-1.912-.76,7.735,7.735,0,0,0-2.08-.28,3.245,3.245,0,0,0-1.608.328.994.994,0,0,0-.568.888.914.914,0,0,0,.568.88,3.489,3.489,0,0,0,1.5.272,1.519,1.519,0,0,0,1.152-.376A1.676,1.676,0,0,0,55.2-2.384q0-.432-.032-1.176T55.1-5.176q-.032-.872-.064-1.688t-.032-1.408q0-.48-.008-.96t-.008-.936v-.792q-.016-.368-.04-.712T54.9-12.3a2.643,2.643,0,0,0-.072-.456Zm-1.12,3.1q.368,0,1.024-.016t1.44-.048q.784-.032,1.584-.088t1.472-.12l.064,1.712q-.672.064-1.48.1t-1.592.072Q57.6-8,56.936-7.984t-1.048.016ZM67.12-12.08q.32.032.688.056T68.48-12q.256,0,.784-.016t1.184-.032l1.32-.032q.664-.016,1.192-.048l.8-.048q.448-.032.712-.072a2.583,2.583,0,0,0,.408-.088l.944,1.3q-.256.16-.528.336t-.528.368q-.32.224-.784.6t-.992.816q-.528.44-1.04.856l-.928.752A4.112,4.112,0,0,1,71.9-7.5q.424-.04.856-.04a5.484,5.484,0,0,1,2.408.512,4.286,4.286,0,0,1,1.688,1.4,3.46,3.46,0,0,1,.624,2.04,4.111,4.111,0,0,1-.648,2.272A4.375,4.375,0,0,1,74.9.28,7.521,7.521,0,0,1,71.76.864,5.7,5.7,0,0,1,69.8.552a3.147,3.147,0,0,1-1.344-.88,1.985,1.985,0,0,1-.488-1.336,2.146,2.146,0,0,1,.344-1.168,2.541,2.541,0,0,1,.968-.88,2.99,2.99,0,0,1,1.44-.336,3.544,3.544,0,0,1,1.832.44A3.028,3.028,0,0,1,73.7-2.432a3.553,3.553,0,0,1,.432,1.584l-1.664.24a2.44,2.44,0,0,0-.5-1.488,1.519,1.519,0,0,0-1.248-.576,1.144,1.144,0,0,0-.776.256.765.765,0,0,0-.3.592.866.866,0,0,0,.488.768,2.518,2.518,0,0,0,1.288.288A6.786,6.786,0,0,0,73.7-1.1,2.959,2.959,0,0,0,75.12-2.08a2.487,2.487,0,0,0,.48-1.536,2.047,2.047,0,0,0-.448-1.3,2.959,2.959,0,0,0-1.216-.888,4.455,4.455,0,0,0-1.728-.32A6.073,6.073,0,0,0,70.48-5.9a6.271,6.271,0,0,0-1.472.648,8.27,8.27,0,0,0-1.336,1.016q-.648.6-1.336,1.336L65.04-4.24q.448-.352,1.008-.816L67.184-6q.576-.48,1.088-.912t.864-.72q.336-.272.8-.656t.96-.8l.944-.792q.448-.376.736-.632-.24,0-.656.024t-.912.04q-.5.016-.992.04t-.92.048l-.68.04q-.3.016-.632.04a5.979,5.979,0,0,0-.6.072ZM-35.28,11.664q-.016.32-.032.7t-.016.832v3.008a18.971,18.971,0,0,1-.12,2.3,9.777,9.777,0,0,1-.344,1.688,5.464,5.464,0,0,1-.568,1.272,7.406,7.406,0,0,1-.792,1.048,5.938,5.938,0,0,1-1.192,1.048,9.311,9.311,0,0,1-1.376.768,12.927,12.927,0,0,1-1.288.5L-42.5,23.248a9.527,9.527,0,0,0,2.136-.76,5.916,5.916,0,0,0,1.7-1.288,5.112,5.112,0,0,0,.68-.944,4.132,4.132,0,0,0,.4-1.072,8.439,8.439,0,0,0,.184-1.344q.048-.752.048-1.744V13.2q0-.448-.024-.832t-.072-.7Zm-7.408.128q-.016.272-.04.56t-.024.64v5.392q0,.3.024.688t.04.656h-2.1q.032-.208.056-.6t.024-.76V12.992q0-.208-.016-.568t-.048-.632ZM-18.816,13.2l-.248.4a3.36,3.36,0,0,0-.264.512q-.32.752-.808,1.7a20.781,20.781,0,0,1-1.1,1.88,15.626,15.626,0,0,1-1.3,1.72,22.773,22.773,0,0,1-1.96,1.976,23.512,23.512,0,0,1-2.264,1.792,15.978,15.978,0,0,1-2.432,1.4l-1.488-1.536a14.538,14.538,0,0,0,2.512-1.256,19.416,19.416,0,0,0,2.256-1.64A17.786,17.786,0,0,0-24.112,18.4a12.988,12.988,0,0,0,1.032-1.32,15.124,15.124,0,0,0,.872-1.432,7.2,7.2,0,0,0,.56-1.312H-27.3q-.32,0-.688.024t-.672.048q-.3.024-.464.024V12.384q.192.032.536.056t.7.04q.352.016.592.016H-21.5a7.572,7.572,0,0,0,.9-.048,3,3,0,0,0,.624-.128Zm-3.52,5.008q.64.512,1.336,1.168t1.384,1.36q.688.7,1.272,1.352t.984,1.128l-1.632,1.408q-.576-.8-1.344-1.68t-1.616-1.76q-.848-.88-1.712-1.648Zm12.288-5.6q-.064-.336-.144-.624t-.176-.56l2.032-.336q.032.24.072.584t.088.632q.048.208.152.808t.272,1.464q.168.864.368,1.872t.4,2.032q.2,1.024.376,1.936t.312,1.6q.136.688.2.992.08.352.184.76t.216.776l-2.064.368q-.064-.432-.1-.832a6.162,6.162,0,0,0-.12-.752q-.048-.288-.168-.944t-.3-1.552l-.376-1.912q-.2-1.016-.392-2.024l-.36-1.888q-.168-.88-.3-1.512T-10.048,12.608Zm-4.4,2.112q.352-.032.7-.056t.736-.056l1-.136q.648-.088,1.472-.216l1.712-.264q.888-.136,1.72-.272t1.488-.248q.656-.112,1.024-.192.384-.064.76-.152t.648-.168l.352,1.9q-.24.016-.64.072l-.752.1q-.416.064-1.112.176l-1.536.248q-.84.136-1.728.272t-1.7.272q-.808.136-1.424.232t-.936.16q-.352.064-.68.136t-.728.168Zm-.016,4.672q.32-.016.776-.064t.808-.1q.432-.064,1.16-.176t1.64-.256q.912-.144,1.88-.3l1.88-.312q.912-.152,1.672-.288t1.224-.216q.464-.08.864-.176t.7-.176l.384,1.888a6.749,6.749,0,0,0-.736.088q-.432.072-.88.152-.528.08-1.3.208l-1.7.28q-.92.152-1.88.3t-1.848.3q-.888.152-1.592.264t-1.1.192q-.5.1-.888.168a5.653,5.653,0,0,0-.648.152ZM12.72,11.664q-.016.32-.032.7t-.016.832v3.008a18.971,18.971,0,0,1-.12,2.3,9.777,9.777,0,0,1-.344,1.688,5.464,5.464,0,0,1-.568,1.272,7.405,7.405,0,0,1-.792,1.048A5.938,5.938,0,0,1,9.656,23.56a9.311,9.311,0,0,1-1.376.768,12.927,12.927,0,0,1-1.288.5L5.5,23.248a9.527,9.527,0,0,0,2.136-.76,5.916,5.916,0,0,0,1.7-1.288,5.112,5.112,0,0,0,.68-.944,4.132,4.132,0,0,0,.4-1.072,8.439,8.439,0,0,0,.184-1.344q.048-.752.048-1.744V13.2q0-.448-.024-.832t-.072-.7Zm-7.408.128q-.016.272-.04.56t-.024.64v5.392q0,.3.024.688t.04.656h-2.1q.032-.208.056-.6t.024-.76q0-.208,0-.632t0-.984q0-.56,0-1.144t0-1.12q0-.536,0-.936t0-.56q0-.208-.016-.568t-.048-.632Zm14.48.16q.416.288.976.712t1.152.9q.592.48,1.12.936a10.292,10.292,0,0,1,.864.824L22.448,16.8q-.3-.32-.792-.784t-1.064-.952q-.576-.488-1.136-.936a12.269,12.269,0,0,0-1.008-.736ZM17.968,22.64a17.163,17.163,0,0,0,2.416-.528,17.34,17.34,0,0,0,2.072-.76,17.76,17.76,0,0,0,1.72-.872,14.521,14.521,0,0,0,2.432-1.832A16.355,16.355,0,0,0,28.544,16.5a12.889,12.889,0,0,0,1.328-2.152l1.1,1.984a14.254,14.254,0,0,1-1.456,2.128,16.847,16.847,0,0,1-1.952,2.008,17.856,17.856,0,0,1-2.352,1.736q-.816.48-1.76.936a17.273,17.273,0,0,1-2.016.816,14.148,14.148,0,0,1-2.272.552ZM44.4,10.976q.208.288.44.688t.456.8q.224.4.384.7l-1.168.512q-.24-.5-.592-1.128t-.672-1.1Zm1.856-.7q.208.3.456.7t.48.792q.232.392.376.68L46.4,12.96q-.24-.512-.6-1.136a10.755,10.755,0,0,0-.7-1.072ZM45.728,14.4a3.994,3.994,0,0,0-.256.5q-.128.3-.224.568a14.4,14.4,0,0,1-.592,1.648A17.581,17.581,0,0,1,43.72,19a14.218,14.218,0,0,1-1.272,1.864,14.906,14.906,0,0,1-2.656,2.472,16.613,16.613,0,0,1-3.776,1.992l-1.7-1.5a15.765,15.765,0,0,0,2.776-1.1,12.09,12.09,0,0,0,2.072-1.352,13.747,13.747,0,0,0,1.6-1.536,10.316,10.316,0,0,0,1.04-1.472,14.1,14.1,0,0,0,.824-1.624,7.673,7.673,0,0,0,.472-1.432H37.568l.672-1.632h4.72a5.149,5.149,0,0,0,.712-.048,3.325,3.325,0,0,0,.584-.128ZM40.48,11.9q-.272.4-.52.84t-.392.68A16.057,16.057,0,0,1,38.28,15.4,17.556,17.556,0,0,1,36.5,17.408a15.714,15.714,0,0,1-2.184,1.776L32.7,18a12.847,12.847,0,0,0,3.272-2.72A14.086,14.086,0,0,0,37,13.936q.424-.64.712-1.152a5.267,5.267,0,0,0,.376-.728,5.339,5.339,0,0,0,.3-.84Z" transform="translate(832 2046)" fill="#333"/><path d="M-63.52-12.4h6.368v1.632H-63.52Zm-.64,4.528h7.568v1.616H-64.16Zm2.08.9,1.856.32q-.16.848-.352,1.736t-.4,1.76q-.208.872-.416,1.656t-.4,1.408l-1.552-.352q.192-.64.376-1.448t.36-1.688q.176-.88.312-1.752T-62.08-6.976Zm-2.5,6.256q.88-.048,2.04-.128t2.464-.176q1.3-.1,2.6-.176l.016,1.536q-1.2.112-2.416.232t-2.336.216q-1.12.1-2.064.192Zm4.832-3.056,1.472-.592a18.207,18.207,0,0,1,.808,1.712q.376.912.656,1.792A15.607,15.607,0,0,1-56.384.72l-1.584.64a12.625,12.625,0,0,0-.376-1.592q-.264-.888-.624-1.816A17.333,17.333,0,0,0-59.744-3.776Zm-11.488-8.192h6.944v1.488h-6.944Zm-.224,9.232h7.312v1.5h-7.312Zm2.912-10.8h1.616v4.608h-1.616Zm.16,4.592h1.28v4.512h.16V1.376h-1.6V-4.432h.16Zm-1.168,2.88v1.088h3.68V-6.064Zm0-2.224V-7.2h3.68V-8.288ZM-70.88-9.5h6.4V-3.76h-6.4Zm22,5.392h2.992V-2.96H-48.88Zm-.96-7.92H-44.9v1.264H-49.84Zm-.368,3.52h9.7v1.344h-9.7Zm1.68,2.128h3.392V-.672h-3.392v-1.2H-46.5V-5.184h-2.032Zm-1.008,0h1.328V.272h-1.328Zm1.408-7.12h1.472v2.336h-1.472Zm6,6.992,1.392.3A15.525,15.525,0,0,1-42.72-1.752a11.4,11.4,0,0,1-3.088,3.16,2.131,2.131,0,0,0-.264-.352l-.376-.424A2.969,2.969,0,0,0-46.8.288a9.227,9.227,0,0,0,2.912-2.8A13.1,13.1,0,0,0-42.128-6.512Zm-7.344-4.016,1.1-.256a5.382,5.382,0,0,1,.328,1.072,8.381,8.381,0,0,1,.152,1.024l-1.184.288a5.261,5.261,0,0,0-.12-1.024A11.1,11.1,0,0,0-49.472-10.528ZM-43.2-12.3l1.136-.592a10.13,10.13,0,0,1,.944,1.3,9.165,9.165,0,0,1,.672,1.272l-1.2.672a7.516,7.516,0,0,0-.632-1.312A10.753,10.753,0,0,0-43.2-12.3Zm-3.376,1.5,1.328.256q-.192.56-.376,1.128t-.328.968L-47.024-8.7q.128-.448.264-1.04A8.847,8.847,0,0,0-46.576-10.8Zm-8.688-2.112h5.472v1.5h-5.472ZM-53.92-9.52h2.832v1.408H-53.92Zm0,3.28h2.832v1.408H-53.92Zm-.672-5.872h1.408v10.1h-1.408Zm2.64-.016h1.44V1.392h-1.44ZM-55.568-2.3q.848-.144,2.016-.352t2.384-.432l.128,1.456q-1.1.24-2.208.472t-2.032.424Zm10.944-11.232h1.52q-.016,2.064.04,3.968t.152,3.528q.1,1.624.248,2.84a13.515,13.515,0,0,0,.344,1.9q.192.68.432.7.16,0,.272-.56a11.173,11.173,0,0,0,.16-1.568,3.421,3.421,0,0,0,.344.36,4.174,4.174,0,0,0,.432.352q.216.152.344.232A9.411,9.411,0,0,1-40.8.176a2.4,2.4,0,0,1-.576.944.917.917,0,0,1-.576.256A1.356,1.356,0,0,1-43.064.648a6.455,6.455,0,0,1-.752-2.032,24.281,24.281,0,0,1-.456-3.16q-.16-1.84-.24-4.112T-44.624-13.536Zm12.912,4.672h5.824v1.552h-5.824Zm.016,3.808h5.824V-3.5H-31.7Zm0,3.808h5.824V.32H-31.7Zm-.832-11.424h7.456V1.184H-26.8V-11.04h-4.08v12.3h-1.648Zm-6.72,2.464h6.112v1.632h-6.112Zm2.384-3.344h1.648V1.376h-1.648Zm-.08,4.416,1.04.368q-.208.976-.5,2.008t-.68,2.024A19.808,19.808,0,0,1-37.9-2.9a9.441,9.441,0,0,1-.912,1.472,5.627,5.627,0,0,0-.376-.824q-.248-.456-.456-.792a9.11,9.11,0,0,0,.84-1.24,16.326,16.326,0,0,0,.768-1.528q.36-.816.64-1.672T-36.944-9.136Zm1.6,1.52a7.545,7.545,0,0,1,.52.552q.344.392.728.856t.712.856q.328.392.456.552l-.992,1.392q-.176-.336-.456-.8t-.608-.968q-.328-.5-.64-.936l-.52-.72Zm21.36-1.568,1.056-1.12q.7.4,1.528.9t1.584,1.008a12.308,12.308,0,0,1,1.24.92l-1.136,1.3a10.8,10.8,0,0,0-1.184-.96q-.736-.528-1.552-1.072T-13.984-9.184ZM-12.96-6.8h.864v2.4a3.375,3.375,0,0,0,.1.728,4.418,4.418,0,0,0,.328.912,4.659,4.659,0,0,0,.648.984A5.239,5.239,0,0,0-9.968-.84a7.514,7.514,0,0,0,1.552.792q-.224.288-.528.72a7,7,0,0,0-.464.736A5.7,5.7,0,0,1-10.832.632a6.4,6.4,0,0,1-1.064-1A5.921,5.921,0,0,1-12.6-1.4a5.546,5.546,0,0,1-.376-.856,4.084,4.084,0,0,1-.4.856,6.064,6.064,0,0,1-.776,1.016A6.8,6.8,0,0,1-15.32.608a7.387,7.387,0,0,1-1.576.8A5.249,5.249,0,0,0-17.16.952q-.168-.264-.352-.52a3.4,3.4,0,0,0-.344-.416,7.5,7.5,0,0,0,1.672-.792,5.91,5.91,0,0,0,1.152-.96,4.873,4.873,0,0,0,.712-.992,3.989,3.989,0,0,0,.36-.928,3.33,3.33,0,0,0,.1-.744V-6.8Zm-.768-6.752h1.7a23.592,23.592,0,0,1-.248,2.608,7.3,7.3,0,0,1-.64,2.1,4.711,4.711,0,0,1-1.32,1.616,7.733,7.733,0,0,1-2.3,1.184,3.379,3.379,0,0,0-.392-.712,3.514,3.514,0,0,0-.552-.648,6.379,6.379,0,0,0,1.976-.936,3.717,3.717,0,0,0,1.1-1.3,5.4,5.4,0,0,0,.5-1.712Q-13.776-12.32-13.728-13.552Zm-2.352.992,1.408.272a6.977,6.977,0,0,1-.432,1.624,3.879,3.879,0,0,1-.848,1.336L-17.3-9.92a3.373,3.373,0,0,0,.776-1.16A6.528,6.528,0,0,0-16.08-12.56Zm-.176,6.928,1.5.3a8.272,8.272,0,0,1-.536,1.8,4.009,4.009,0,0,1-1,1.448l-1.392-.736a3.244,3.244,0,0,0,.9-1.216A7.1,7.1,0,0,0-16.256-5.632Zm5.84-7.024,1.664.528q-.4.7-.816,1.392t-.768,1.184l-1.28-.48a9.147,9.147,0,0,0,.456-.816q.232-.464.432-.944A8.381,8.381,0,0,0-10.416-12.656Zm.128,6.912,1.68.528q-.432.752-.872,1.5a11.523,11.523,0,0,1-.84,1.264l-1.312-.5q.24-.384.488-.872t.472-1Q-10.448-5.328-10.288-5.744ZM-22.72-8.656h4.784v1.312H-22.72Zm.048-4.368h4.688v1.3h-4.688ZM-22.72-6.5h4.784v1.312H-22.72Zm-.768-4.4h6.08V-9.52h-6.08Zm1.5,6.608h4.064V.528h-4.064V-.848h2.592V-2.912h-2.592Zm-.768,0H-21.3V1.184h-1.456ZM0-8.032a1.876,1.876,0,0,1,.984.264,2.022,2.022,0,0,1,.7.7,1.876,1.876,0,0,1,.264.984,1.888,1.888,0,0,1-.264.976,2,2,0,0,1-.7.712A1.876,1.876,0,0,1,0-4.128a1.888,1.888,0,0,1-.976-.264A1.981,1.981,0,0,1-1.688-5.1a1.888,1.888,0,0,1-.264-.976,1.876,1.876,0,0,1,.264-.984,2,2,0,0,1,.712-.7A1.888,1.888,0,0,1,0-8.032Zm15.12,3.92h2.992V-2.96H15.12Zm-.96-7.92H19.1v1.264H14.16Zm-.368,3.52h9.7v1.344h-9.7Zm1.68,2.128h3.392V-.672H15.472v-1.2H17.5V-5.184H15.472Zm-1.008,0h1.328V.272H14.464Zm1.408-7.12h1.472v2.336H15.872Zm6,6.992,1.392.3A15.525,15.525,0,0,1,21.28-1.752a11.4,11.4,0,0,1-3.088,3.16,2.131,2.131,0,0,0-.264-.352L17.552.632A2.969,2.969,0,0,0,17.2.288a9.227,9.227,0,0,0,2.912-2.8A13.1,13.1,0,0,0,21.872-6.512Zm-7.344-4.016,1.1-.256a5.382,5.382,0,0,1,.328,1.072,8.382,8.382,0,0,1,.152,1.024L14.928-8.4a5.261,5.261,0,0,0-.12-1.024A11.1,11.1,0,0,0,14.528-10.528ZM20.8-12.3l1.136-.592a10.13,10.13,0,0,1,.944,1.3,9.165,9.165,0,0,1,.672,1.272l-1.2.672a7.516,7.516,0,0,0-.632-1.312A10.753,10.753,0,0,0,20.8-12.3Zm-3.376,1.5,1.328.256q-.192.56-.376,1.128t-.328.968L16.976-8.7q.128-.448.264-1.04A8.846,8.846,0,0,0,17.424-10.8ZM8.736-12.912h5.472v1.5H8.736ZM10.08-9.52h2.832v1.408H10.08Zm0,3.28h2.832v1.408H10.08Zm-.672-5.872h1.408v10.1H9.408Zm2.64-.016h1.44V1.392h-1.44ZM8.432-2.3q.848-.144,2.016-.352t2.384-.432l.128,1.456q-1.1.24-2.208.472T8.72-.736ZM19.376-13.536H20.9q-.016,2.064.04,3.968t.152,3.528q.1,1.624.248,2.84a13.515,13.515,0,0,0,.344,1.9q.192.68.432.7.16,0,.272-.56a11.173,11.173,0,0,0,.16-1.568,3.421,3.421,0,0,0,.344.36,4.174,4.174,0,0,0,.432.352q.216.152.344.232A9.411,9.411,0,0,1,23.2.176a2.4,2.4,0,0,1-.576.944.917.917,0,0,1-.576.256A1.356,1.356,0,0,1,20.936.648a6.455,6.455,0,0,1-.752-2.032,24.281,24.281,0,0,1-.456-3.16q-.16-1.84-.24-4.112T19.376-13.536Zm5.552,9.808H39.136V-2.32H24.928Zm.048-7.136h14.1v1.408h-14.1Zm.656,2.832H38.464v1.344H25.632Zm.8,2.192h11.28v1.248H26.432ZM31.12-7.36h1.712V1.392H31.12Zm-1.408-6.208h1.616v3.376H29.712Zm2.992,0h1.632v3.28H32.7ZM30.768-3.12l1.36.624A10.19,10.19,0,0,1,30.3-.96,15.3,15.3,0,0,1,28.016.3a16.844,16.844,0,0,1-2.448.88,3.526,3.526,0,0,0-.3-.488q-.192-.264-.4-.52a4.058,4.058,0,0,0-.4-.432,19.267,19.267,0,0,0,2.4-.68,14.611,14.611,0,0,0,2.224-.992A8.2,8.2,0,0,0,30.768-3.12Zm2.448-.032a7.706,7.706,0,0,0,1.192.928,10.4,10.4,0,0,0,1.536.808,15.927,15.927,0,0,0,1.76.632,19.005,19.005,0,0,0,1.848.448q-.176.176-.4.448T38.728.68q-.2.3-.328.52A14.117,14.117,0,0,1,36.536.584,14.657,14.657,0,0,1,34.768-.28a12.35,12.35,0,0,1-1.584-1.08,9.115,9.115,0,0,1-1.3-1.264Zm3.168-10.256,1.792.432q-.368.656-.752,1.288t-.72,1.08l-1.392-.448a6.6,6.6,0,0,0,.408-.736q.2-.416.376-.84T36.384-13.408ZM34.272-10l1.808.432q-.32.56-.624,1.08T34.9-7.6L33.44-8q.224-.448.456-1T34.272-10ZM26.16-12.96l1.472-.5a12.938,12.938,0,0,1,.736,1.16,6.573,6.573,0,0,1,.528,1.128l-1.552.576a6.866,6.866,0,0,0-.488-1.144Q26.512-12.4,26.16-12.96Zm2.048,3.552,1.664-.272a7.815,7.815,0,0,1,.44.8,5.409,5.409,0,0,1,.312.768l-1.744.32a5.819,5.819,0,0,0-.272-.784A7.6,7.6,0,0,0,28.208-9.408ZM48.3-.88h5.632V.64H48.3Zm-.8-4.48h7.28V1.312H53.12V-3.856H49.088V1.376H47.5Zm-.576-7.408h7.36V-11.2h-7.36Zm6.576,0h1.6l-.008.24q-.008.24-.024.384-.048,1.68-.112,2.744a12.127,12.127,0,0,1-.184,1.64,2.167,2.167,0,0,1-.312.832,1.455,1.455,0,0,1-.5.408,2.245,2.245,0,0,1-.648.168A5.476,5.476,0,0,1,52.5-6.3q-.512,0-1.088-.016a4.045,4.045,0,0,0-.168-.816,3.428,3.428,0,0,0-.328-.768q.512.048.968.056t.664.008a1.149,1.149,0,0,0,.3-.032A.6.6,0,0,0,53.072-8a1.729,1.729,0,0,0,.192-.632q.08-.472.136-1.416t.1-2.48Zm-4.176.624h1.7a16.7,16.7,0,0,1-.3,1.936,7.129,7.129,0,0,1-.6,1.72A5.3,5.3,0,0,1,49.04-7.04,6.309,6.309,0,0,1,47.312-5.9a4.578,4.578,0,0,0-.456-.68,3.908,3.908,0,0,0-.568-.6,5,5,0,0,0,1.48-.912,4,4,0,0,0,.88-1.16,5.443,5.443,0,0,0,.456-1.36Q49.248-11.344,49.328-12.144ZM42.96-13.536l1.488.56q-.32.592-.664,1.248t-.688,1.24q-.344.584-.648,1.032l-1.152-.5a11.414,11.414,0,0,0,.608-1.1q.3-.624.584-1.28T42.96-13.536Zm1.824,1.872,1.408.64q-.576.912-1.256,1.92t-1.36,1.928q-.68.92-1.288,1.624l-1.008-.56q.448-.544.928-1.232t.952-1.44q.472-.752.888-1.5T44.784-11.664Zm-4.3,1.792.816-1.152a11.729,11.729,0,0,1,.88.8q.448.448.824.888a5.8,5.8,0,0,1,.584.792l-.9,1.328a5.255,5.255,0,0,0-.56-.856q-.368-.472-.8-.944T40.48-9.872Zm3.808,2,1.136-.48q.32.528.616,1.144t.512,1.192a7.1,7.1,0,0,1,.312,1.04l-1.216.544a8.329,8.329,0,0,0-.3-1.056q-.208-.592-.48-1.224A11.2,11.2,0,0,0,44.288-7.872Zm-3.84,1.408q1.088-.032,2.592-.1L46.1-6.688l-.016,1.36q-1.456.112-2.9.208t-2.592.176ZM44.64-3.952l1.216-.384q.3.672.592,1.488a11.486,11.486,0,0,1,.416,1.424l-1.28.448a11.389,11.389,0,0,0-.384-1.44Q44.928-3.248,44.64-3.952ZM41.2-4.224l1.424.256A18.762,18.762,0,0,1,42.232-1.7a10.225,10.225,0,0,1-.616,1.88q-.16-.1-.4-.216t-.488-.24a3.765,3.765,0,0,0-.44-.184,7.046,7.046,0,0,0,.584-1.728A20.144,20.144,0,0,0,41.2-4.224Zm1.776-1.5h1.5V1.408h-1.5Zm20.96-6.1a12.445,12.445,0,0,1-1.616,2.1A18.557,18.557,0,0,1,60.088-7.72a19.521,19.521,0,0,1-2.6,1.688,3.179,3.179,0,0,0-.28-.472q-.184-.264-.384-.52a3.552,3.552,0,0,0-.392-.432,14.631,14.631,0,0,0,2.688-1.72,17.115,17.115,0,0,0,2.256-2.168,11.658,11.658,0,0,0,1.552-2.24h1.856a13.768,13.768,0,0,0,1.392,1.912,15.3,15.3,0,0,0,1.672,1.656A15.89,15.89,0,0,0,69.7-8.664a12.849,12.849,0,0,0,1.936,1,5.1,5.1,0,0,0-.608.744q-.288.424-.528.808A18,18,0,0,1,67.968-7.7a20.33,20.33,0,0,1-2.3-1.992A12.448,12.448,0,0,1,63.936-11.824Zm1.92,4.064h1.776V1.376H65.856Zm-5.568.08h1.76v2.064a15.965,15.965,0,0,1-.1,1.776,7.611,7.611,0,0,1-.456,1.856A6.58,6.58,0,0,1,60.44-.192a7.068,7.068,0,0,1-1.9,1.584,3.369,3.369,0,0,0-.392-.424Q57.9.736,57.632.52A3.44,3.44,0,0,0,57.12.176a7.063,7.063,0,0,0,1.7-1.36,5.277,5.277,0,0,0,.944-1.488,6.344,6.344,0,0,0,.416-1.52,10.74,10.74,0,0,0,.1-1.472Z" transform="translate(1088 2057)" fill="#333"/><path d="M-74.048-11.392q-.064-.336-.144-.624t-.176-.56l2.032-.336q.032.24.072.584t.088.632q.048.208.152.808t.272,1.464q.168.864.368,1.872t.4,2.032q.2,1.024.376,1.936t.312,1.6q.136.688.2.992.08.352.184.76t.216.776L-71.76.912q-.064-.432-.1-.832a6.161,6.161,0,0,0-.12-.752q-.048-.288-.168-.944t-.3-1.552l-.376-1.912q-.2-1.016-.392-2.024l-.36-1.888q-.168-.88-.3-1.512T-74.048-11.392Zm-4.4,2.112q.352-.032.7-.056t.736-.056l1-.136q.648-.088,1.472-.216l1.712-.264q.888-.136,1.72-.272t1.488-.248q.656-.112,1.024-.192.384-.064.76-.152t.648-.168l.352,1.9q-.24.016-.64.072l-.752.1q-.416.064-1.112.176l-1.536.248q-.84.136-1.728.272t-1.7.272q-.808.136-1.424.232t-.936.16q-.352.064-.68.136t-.728.168Zm-.016,4.672q.32-.016.776-.064t.808-.1q.432-.064,1.16-.176t1.64-.256q.912-.144,1.88-.3l1.88-.312q.912-.152,1.672-.288t1.224-.216q.464-.08.864-.176t.7-.176l.384,1.888a6.749,6.749,0,0,0-.736.088q-.432.072-.88.152-.528.08-1.3.208l-1.7.28q-.92.152-1.88.3t-1.848.3q-.888.152-1.592.264t-1.1.192q-.5.1-.888.168a5.652,5.652,0,0,0-.648.152Zm20.8-5.456q.048.272.112.56t.128.608q.128.432.328,1.16t.448,1.608q.248.88.5,1.8t.488,1.76q.24.84.416,1.472t.272.952a2.669,2.669,0,0,1,.128.384q.064.24.144.472t.144.392l-1.952.5a6.674,6.674,0,0,0-.1-.672q-.072-.352-.168-.672t-.272-.984q-.176-.664-.408-1.528t-.48-1.792q-.248-.928-.48-1.808t-.424-1.576q-.192-.7-.32-1.08a4.558,4.558,0,0,0-.192-.576q-.112-.272-.24-.512Zm7.68,2.4q-.256.512-.656,1.176t-.888,1.36q-.488.7-.968,1.312t-.9,1.064l-1.584-.8a10.839,10.839,0,0,0,.912-.928q.48-.544.9-1.1a7.435,7.435,0,0,0,.648-.968l-.664.136-1.208.248-1.536.312q-.832.168-1.672.344t-1.6.328q-.76.152-1.328.272t-.84.184l-.432-1.712q.368-.032.7-.08t.72-.112l.672-.12q.5-.088,1.192-.216t1.488-.28q.792-.152,1.6-.3t1.528-.3l1.248-.248q.528-.1.752-.152.192-.048.4-.112a3.189,3.189,0,0,0,.352-.128Zm14.7-4.672q-.016.32-.032.7t-.016.832v3.008a18.971,18.971,0,0,1-.12,2.3,9.777,9.777,0,0,1-.344,1.688,5.464,5.464,0,0,1-.568,1.272,7.406,7.406,0,0,1-.792,1.048A5.938,5.938,0,0,1-38.344-.44,9.311,9.311,0,0,1-39.72.328a12.927,12.927,0,0,1-1.288.5L-42.5-.752a9.527,9.527,0,0,0,2.136-.76,5.916,5.916,0,0,0,1.7-1.288,5.112,5.112,0,0,0,.68-.944,4.132,4.132,0,0,0,.4-1.072,8.439,8.439,0,0,0,.184-1.344q.048-.752.048-1.744v-2.9q0-.448-.024-.832t-.072-.7Zm-7.408.128q-.016.272-.04.56t-.024.64v5.392q0,.3.024.688t.04.656h-2.1q.032-.208.056-.6t.024-.76v-5.376q0-.208-.016-.568t-.048-.632Zm25.856,1.392q-.112.128-.288.352a3.874,3.874,0,0,0-.272.384,14.576,14.576,0,0,1-.96,1.416,19.271,19.271,0,0,1-1.36,1.608A10.354,10.354,0,0,1-21.28-5.68l-1.488-1.184a7.818,7.818,0,0,0,.976-.712q.48-.408.9-.848a9.192,9.192,0,0,0,.736-.856,6.424,6.424,0,0,0,.488-.736h-8.56q-.5,0-.936.032t-.984.08V-11.92q.448.064.936.112t.984.048h8.784q.208,0,.5-.016t.568-.048a3.5,3.5,0,0,0,.408-.064Zm-6.48,2.128q0,1.216-.056,2.336a12.561,12.561,0,0,1-.28,2.12,7.44,7.44,0,0,1-.7,1.9,6.81,6.81,0,0,1-1.3,1.688A9.165,9.165,0,0,1-27.76.816l-1.68-1.36a7.138,7.138,0,0,0,.792-.336,5.005,5.005,0,0,0,.824-.512,5.783,5.783,0,0,0,1.312-1.16,4.669,4.669,0,0,0,.76-1.344,6.884,6.884,0,0,0,.36-1.584,16.471,16.471,0,0,0,.1-1.832q0-.352-.016-.68a5.691,5.691,0,0,0-.08-.7Zm22.48-2.128q-.112.128-.288.352a3.875,3.875,0,0,0-.272.384,14.576,14.576,0,0,1-.96,1.416,19.271,19.271,0,0,1-1.36,1.608A10.354,10.354,0,0,1-5.28-5.68L-6.768-6.864a7.818,7.818,0,0,0,.976-.712q.48-.408.9-.848a9.192,9.192,0,0,0,.736-.856,6.424,6.424,0,0,0,.488-.736h-8.56q-.5,0-.936.032t-.984.08V-11.92q.448.064.936.112t.984.048H-3.44q.208,0,.5-.016t.568-.048a3.5,3.5,0,0,0,.408-.064Zm-6.48,2.128q0,1.216-.056,2.336a12.561,12.561,0,0,1-.28,2.12,7.44,7.44,0,0,1-.7,1.9,6.81,6.81,0,0,1-1.3,1.688A9.165,9.165,0,0,1-11.76.816l-1.68-1.36a7.138,7.138,0,0,0,.792-.336,5.006,5.006,0,0,0,.824-.512,5.783,5.783,0,0,0,1.312-1.16A4.669,4.669,0,0,0-9.752-3.9a6.884,6.884,0,0,0,.36-1.584,16.47,16.47,0,0,0,.1-1.832q0-.352-.016-.68a5.691,5.691,0,0,0-.08-.7Zm15.3-.736q.112.256.3.728t.384,1.008q.2.536.368,1.008t.248.744l-1.712.608a7.711,7.711,0,0,0-.224-.76q-.16-.472-.352-.992t-.384-1q-.192-.48-.32-.784Zm5.872,1.088q-.112.352-.192.6t-.144.472a16.966,16.966,0,0,1-.848,2.456,10.545,10.545,0,0,1-1.36,2.3A11.846,11.846,0,0,1,8.784-.1a12.9,12.9,0,0,1-2.8,1.512L4.48-.128A11.448,11.448,0,0,0,6.344-.856,11.516,11.516,0,0,0,8.208-2,8.591,8.591,0,0,0,9.76-3.488a8.091,8.091,0,0,0,.992-1.576,11.624,11.624,0,0,0,.72-1.9,11.188,11.188,0,0,0,.384-2.016ZM4.272-8.592q.144.3.344.776t.416,1.008q.216.536.408,1.032t.3.832L4-4.3q-.1-.3-.28-.824t-.408-1.08q-.224-.56-.424-1.032a7.644,7.644,0,0,0-.344-.728Zm24.592-3.072a.926.926,0,0,0,.28.68.926.926,0,0,0,.68.28.952.952,0,0,0,.688-.28.913.913,0,0,0,.288-.68.913.913,0,0,0-.288-.68.953.953,0,0,0-.688-.28.926.926,0,0,0-.68.28A.926.926,0,0,0,28.864-11.664Zm-.912,0a1.818,1.818,0,0,1,.256-.944,1.954,1.954,0,0,1,.68-.688,1.776,1.776,0,0,1,.936-.256,1.806,1.806,0,0,1,.952.256,1.954,1.954,0,0,1,.68.688,1.818,1.818,0,0,1,.256.944,1.776,1.776,0,0,1-.256.936,1.976,1.976,0,0,1-.68.68,1.806,1.806,0,0,1-.952.256,1.776,1.776,0,0,1-.936-.256,1.976,1.976,0,0,1-.68-.68A1.776,1.776,0,0,1,27.952-11.664Zm1.776,1.216a3.521,3.521,0,0,0-.176.48q-.08.272-.144.528-.128.608-.336,1.344t-.5,1.528a13.813,13.813,0,0,1-.68,1.56,9.563,9.563,0,0,1-.888,1.424,12.27,12.27,0,0,1-1.656,1.768A12.434,12.434,0,0,1,23.24-.328,14.105,14.105,0,0,1,20.624.8L19.056-.912A13.477,13.477,0,0,0,21.8-1.864a9.832,9.832,0,0,0,2.016-1.288,11.09,11.09,0,0,0,1.512-1.536,7.8,7.8,0,0,0,.936-1.52,12.6,12.6,0,0,0,.648-1.664,9.739,9.739,0,0,0,.352-1.536H19.6q-.528,0-1.016.016t-.792.048v-2.032q.24.032.56.064t.664.048q.344.016.6.016h7.568q.224,0,.536-.016a2.764,2.764,0,0,0,.6-.1Zm11.616-.512q-.176,1.232-.424,2.6a25.563,25.563,0,0,1-.664,2.76,15.283,15.283,0,0,1-1.088,2.768,5.766,5.766,0,0,1-1.336,1.76,2.392,2.392,0,0,1-1.56.608A2.437,2.437,0,0,1,34.72-1.04a4.031,4.031,0,0,1-1.16-1.608,5.969,5.969,0,0,1-.44-2.36,6.086,6.086,0,0,1,.56-2.576,7.069,7.069,0,0,1,1.544-2.16,7.208,7.208,0,0,1,2.3-1.48,7.519,7.519,0,0,1,2.856-.536,7.011,7.011,0,0,1,2.632.472,5.857,5.857,0,0,1,2.008,1.312,5.832,5.832,0,0,1,1.28,1.96,6.4,6.4,0,0,1,.448,2.4,6.287,6.287,0,0,1-.7,2.992,5.686,5.686,0,0,1-2.04,2.16A8.474,8.474,0,0,1,40.672.672L39.6-1.024q.448-.048.8-.112t.672-.128a5.7,5.7,0,0,0,1.448-.544,4.6,4.6,0,0,0,1.192-.92,4.129,4.129,0,0,0,.808-1.3,4.444,4.444,0,0,0,.3-1.656,5.037,5.037,0,0,0-.3-1.76,4,4,0,0,0-.872-1.4,3.923,3.923,0,0,0-1.4-.928,5.1,5.1,0,0,0-1.9-.328,5.4,5.4,0,0,0-2.3.464,5.376,5.376,0,0,0-1.688,1.2,5.351,5.351,0,0,0-1.048,1.6,4.285,4.285,0,0,0-.36,1.648,4.155,4.155,0,0,0,.208,1.416,2.08,2.08,0,0,0,.52.848.949.949,0,0,0,.632.28,1.014,1.014,0,0,0,.7-.352,3.852,3.852,0,0,0,.7-1.1,15.2,15.2,0,0,0,.7-1.9,24.679,24.679,0,0,0,.608-2.456,24.6,24.6,0,0,0,.368-2.568ZM55.1-13.536h1.76v2.5H55.1ZM49.168-12.1H62.832v3.344H61.056v-1.84H50.864v1.84h-1.7Zm1.408,2.944H61.552V-7.76H50.576Zm-1.568,5.04h14.08v1.488H49.008Zm1.824-2.544H61.264v1.392H50.832Zm6.08,2.864a5.545,5.545,0,0,0,2.32,2.52A10.307,10.307,0,0,0,63.3-.08a4.643,4.643,0,0,0-.568.72,6.667,6.667,0,0,0-.456.784,11.9,11.9,0,0,1-3.12-.9A7.1,7.1,0,0,1,56.9-1.088a8.431,8.431,0,0,1-1.528-2.384Zm-1.856-6.384H56.8v4.32A8.269,8.269,0,0,1,56.632-4.2a5.921,5.921,0,0,1-.592,1.616,5.771,5.771,0,0,1-1.208,1.512A8.941,8.941,0,0,1,52.816.272a16.581,16.581,0,0,1-3.008,1.12,3.876,3.876,0,0,0-.272-.448Q49.36.688,49.144.432T48.752,0a16.907,16.907,0,0,0,2.84-.928,7.516,7.516,0,0,0,1.832-1.1,4.54,4.54,0,0,0,1.04-1.232,4.282,4.282,0,0,0,.472-1.3,7.365,7.365,0,0,0,.12-1.328ZM64.7-12.72h5.584v1.6H64.7Zm.144,4.56h5.28v1.584h-5.28Zm-.512,5.6q.768-.176,1.752-.432t2.088-.56q1.1-.3,2.192-.608l.224,1.52q-1.5.448-3.048.9t-2.776.808Zm8.208-6.464v1.168h4.5V-9.024Zm0,2.48v1.168h4.5V-6.544Zm0-4.96v1.152h4.5V-11.5Zm-1.6-1.408H78.72v8.96H70.944Zm4.1,8.32h1.632v3.9a.862.862,0,0,0,.064.424q.064.088.288.088h.832A.251.251,0,0,0,78.08-.3,1.432,1.432,0,0,0,78.2-.84q.04-.408.056-1.208a3.082,3.082,0,0,0,.432.256,4.61,4.61,0,0,0,.528.224q.272.1.5.16A8.247,8.247,0,0,1,79.456.24a1.467,1.467,0,0,1-.512.824,1.55,1.55,0,0,1-.9.232H76.736a2.508,2.508,0,0,1-1.064-.176.961.961,0,0,1-.5-.616A4.108,4.108,0,0,1,75.04-.672Zm-2.816.4H73.9a12.207,12.207,0,0,1-.32,1.9,5.172,5.172,0,0,1-.7,1.584,4.551,4.551,0,0,1-1.3,1.264,7.93,7.93,0,0,1-2.128.936,3.038,3.038,0,0,0-.24-.472q-.16-.264-.344-.52a2.659,2.659,0,0,0-.36-.416,7.08,7.08,0,0,0,1.824-.7,3.55,3.55,0,0,0,1.088-.944,3.446,3.446,0,0,0,.552-1.184A9.844,9.844,0,0,0,72.224-4.192Zm-5.5-7.888h1.648v9.408l-1.648.256Z" transform="translate(1345 2057)" fill="#333"/><g transform="translate(7128.499 -1093.113)"><path d="M136,.765h.038a7.835,7.835,0,0,1,5.491,13.389,7.785,7.785,0,0,1-5.526,2.281h-.036A7.835,7.835,0,0,1,136,.765Zm0,13.17a5.335,5.335,0,0,0,.023-10.67h-.026a5.335,5.335,0,0,0-.022,10.67Z" transform="translate(-6655.022 3193.398)" fill="#333"/><path d="M126.205,67.6q-.058,0-.116-.005a1.25,1.25,0,0,1-1.13-1.359l2.412-26.165a4.43,4.43,0,0,0-8.719-1.428l-.392,1.628-.007.026c-.439,1.668-1.241,5.825-1.249,5.867a1.25,1.25,0,0,1-1.089,1.006c-1.584.177-4.683.434-6.763.579-1.1.077-2.285.147-3.433.215-1.091.065-2.121.126-3.029.189-.994.07-2.7.427-2.954,2.032a1.25,1.25,0,1,1-2.469-.392,4.5,4.5,0,0,1,2.013-3.121,6.734,6.734,0,0,1,3.234-1.013c.921-.065,1.958-.126,3.056-.191,1.141-.068,2.32-.137,3.406-.213,1.705-.119,4.1-.314,5.75-.475.266-1.347.771-3.836,1.1-5.107l.389-1.615a6.93,6.93,0,0,1,13.64,2.239L127.448,66.46A1.25,1.25,0,0,1,126.205,67.6Z" transform="translate(-6642.403 3180.346)" fill="#333"/><path d="M99.4,116.226a5.661,5.661,0,0,1-4.482-1.633,2.479,2.479,0,0,1-.57-2.076c1.414-7.112,3.438-17.438,4.485-23.134a6.18,6.18,0,0,1,2.49-3.949,9.229,9.229,0,0,1,4.536-1.58l6.685-.711a1.25,1.25,0,1,1,.265,2.486l-6.69.712H106.1c-1.586.153-4.321.811-4.815,3.494-1.047,5.694-3.066,16-4.481,23.116a1.184,1.184,0,0,0,.5.388,4.727,4.727,0,0,0,2.088.386c1.409,0,3.4-1.195,3.683-2.206l3.028-11.575,1.178-4.6a3.94,3.94,0,0,1,3.817-2.962h9.222a1.25,1.25,0,1,1,0,2.5H111.1a1.44,1.44,0,0,0-1.4,1.083l-1.178,4.6,0,.006L105.5,112.159l0,.012a5.282,5.282,0,0,1-2.513,2.953A7.345,7.345,0,0,1,99.4,116.226Z" transform="translate(-6641.198 3159.779)" fill="#333"/><path d="M135,82.139a1.25,1.25,0,0,1,0-2.5l8.765-.018a3.278,3.278,0,0,0,3.271-2.991L149.2,53.041a1.25,1.25,0,1,1,2.49.229l-2.166,23.589a5.792,5.792,0,0,1-5.755,5.263l-8.765.018Z" transform="translate(-6657.3 3172.526)" fill="#333"/><path d="M107.383,72.8h-17.3a1.25,1.25,0,0,1,0-2.5h17.3a27.744,27.744,0,0,0,7.49-1.03l.024-.007a1.25,1.25,0,0,1,.669,2.409l-.021.006A30.238,30.238,0,0,1,107.383,72.8Z" transform="translate(-6638.965 3165.459)" fill="#333"/><path d="M0,16.128a1.25,1.25,0,0,1-1.25-1.25V0A1.25,1.25,0,0,1,0-1.25,1.25,1.25,0,0,1,1.25,0V14.878A1.25,1.25,0,0,1,0,16.128Z" transform="translate(-6521.77 3259.324)" fill="#333"/><path d="M12.285,1.25H0A1.25,1.25,0,0,1-1.25,0,1.25,1.25,0,0,1,0-1.25H12.285A1.25,1.25,0,0,1,13.535,0,1.25,1.25,0,0,1,12.285,1.25Z" transform="translate(-6527.912 3274.539)" fill="#333"/><path d="M18.024.765a7.835,7.835,0,0,1,.034,15.67h-.036A7.835,7.835,0,0,1,17.987.765Zm0,13.17h.025a5.335,5.335,0,0,0-.023-10.67H18a5.335,5.335,0,0,0,.024,10.67Z" transform="translate(-6606.867 3193.398)" fill="#333"/><path d="M16.125,67.6a1.25,1.25,0,0,1-1.243-1.135L12.47,40.3a6.93,6.93,0,0,1,13.64-2.242l.389,1.615c.333,1.27.838,3.76,1.1,5.107,1.652.162,4.044.356,5.75.475,1.086.076,2.265.146,3.406.213,1.1.065,2.135.126,3.056.191a6.735,6.735,0,0,1,3.235,1.013,4.5,4.5,0,0,1,2.013,3.121,1.25,1.25,0,1,1-2.469.392c-.255-1.605-1.96-1.962-2.954-2.032-.907-.064-1.938-.125-3.029-.189-1.147-.068-2.334-.138-3.433-.215-2.08-.146-5.179-.4-6.763-.579a1.25,1.25,0,0,1-1.089-1.006c-.008-.042-.81-4.2-1.249-5.867l-.006-.026-.392-1.628A4.43,4.43,0,0,0,14.96,40.07l2.411,26.161a1.25,1.25,0,0,1-1.13,1.359C16.2,67.594,16.164,67.6,16.125,67.6Z" transform="translate(-6607.788 3180.346)" fill="#333"/><path d="M46.632,116.226a7.347,7.347,0,0,1-3.584-1.1,5.282,5.282,0,0,1-2.513-2.953l0-.012L37.5,100.574l0-.006-1.178-4.6a1.44,1.44,0,0,0-1.4-1.083H25.7a1.25,1.25,0,0,1,0-2.5h9.222a3.94,3.94,0,0,1,3.817,2.962l1.178,4.6,3.028,11.575c.281,1.012,2.274,2.206,3.684,2.206a4.725,4.725,0,0,0,2.087-.386,1.184,1.184,0,0,0,.5-.388c-1.416-7.12-3.434-17.422-4.481-23.116-.494-2.682-3.229-3.34-4.815-3.494h-.012l-6.69-.712a1.25,1.25,0,1,1,.265-2.486l6.685.711a9.23,9.23,0,0,1,4.536,1.58,6.18,6.18,0,0,1,2.49,3.949c1.047,5.7,3.071,16.022,4.485,23.135a2.479,2.479,0,0,1-.57,2.075A5.66,5.66,0,0,1,46.632,116.226Z" transform="translate(-6612.689 3159.779)" fill="#333"/><path d="M17.458,82.139h0L8.69,82.121a5.793,5.793,0,0,1-5.755-5.263L.769,53.269a1.25,1.25,0,0,1,2.49-.229L5.425,76.63A3.278,3.278,0,0,0,8.7,79.621l8.765.018a1.25,1.25,0,0,1,0,2.5Z" transform="translate(-6603.021 3172.526)" fill="#333"/><path d="M65.776,72.8H38.384a30.243,30.243,0,0,1-8.165-1.122l-.018-.005a1.25,1.25,0,0,1,.669-2.409l.021.006a27.749,27.749,0,0,0,7.493,1.03H65.776a1.25,1.25,0,0,1,0,2.5Z" transform="translate(-6614.662 3165.459)" fill="#333"/><path d="M0,16.128a1.25,1.25,0,0,1-1.25-1.25V0A1.25,1.25,0,0,1,0-1.25,1.25,1.25,0,0,1,1.25,0V14.878A1.25,1.25,0,0,1,0,16.128Z" transform="translate(-6586.09 3259.324)" fill="#333"/><path d="M12.285,1.25H0A1.25,1.25,0,0,1-1.25,0,1.25,1.25,0,0,1,0-1.25H12.285A1.25,1.25,0,0,1,13.535,0,1.25,1.25,0,0,1,12.285,1.25Z" transform="translate(-6592.232 3274.539)" fill="#333"/></g><g transform="translate(711.465 -971.014)"><path d="M0,1.264A1.25,1.25,0,0,1-1.25.015,1.25,1.25,0,0,1,0-1.236L25.655-1.25h0A1.25,1.25,0,0,1,26.905,0,1.25,1.25,0,0,1,25.656,1.25L0,1.264Z" transform="translate(112.778 3092.398)" fill="#333"/><path d="M6.277,82.606A5.473,5.473,0,0,1,.8,77.135L.764,6.272A5.473,5.473,0,0,1,6.235.8L61.218.764h0a5.474,5.474,0,0,1,5.474,5.471l0,21.342a1.25,1.25,0,1,1-2.5,0l0-21.342a2.974,2.974,0,0,0-2.975-2.972L6.236,3.3A2.973,2.973,0,0,0,3.264,6.27L3.3,77.134a2.973,2.973,0,0,0,2.973,2.972h0l55.442-.031A2.973,2.973,0,0,0,64.693,77.1l0-15.368a1.25,1.25,0,0,1,1.25-1.25h0a1.25,1.25,0,0,1,1.25,1.25l0,15.368a5.473,5.473,0,0,1-5.471,5.476l-55.442.031Z" transform="translate(84 3071)" fill="#333"/><path d="M24.294,39.166a1.25,1.25,0,0,1-.95-.438l-3.822-4.469a1.25,1.25,0,0,1,1.9-1.625l2.806,3.281,5.086-6.806a1.25,1.25,0,0,1,2,1.5L25.3,38.664a1.25,1.25,0,0,1-.96.5Z" transform="translate(75.593 3058.318)" fill="#333"/><path d="M0,1.261A1.25,1.25,0,0,1-1.25.012,1.25,1.25,0,0,1,0-1.239L20.325-1.25A1.25,1.25,0,0,1,21.576,0,1.25,1.25,0,0,1,20.327,1.25L0,1.261Z" transform="translate(112.789 3112.612)" fill="#333"/><path d="M24.315,76.283a1.25,1.25,0,0,1-.95-.438l-3.822-4.469a1.25,1.25,0,0,1,1.9-1.625l2.806,3.281,5.086-6.806a1.25,1.25,0,1,1,2,1.5l-6.022,8.058a1.25,1.25,0,0,1-.96.5Z" transform="translate(75.583 3041.412)" fill="#333"/><path d="M0,1.255A1.25,1.25,0,0,1-1.25.006,1.25,1.25,0,0,1,0-1.245L8.86-1.25A1.249,1.249,0,0,1,10.111,0,1.25,1.25,0,0,1,8.862,1.25L0,1.255Z" transform="translate(112.8 3132.829)" fill="#333"/><path d="M24.335,113.4a1.25,1.25,0,0,1-.95-.438l-3.822-4.469a1.25,1.25,0,1,1,1.9-1.625l2.806,3.281,5.086-6.806a1.25,1.25,0,1,1,2,1.5L25.337,112.9a1.25,1.25,0,0,1-.96.5Z" transform="translate(75.574 3024.506)" fill="#333"/><path d="M95.013,86.624a1.25,1.25,0,0,1-.845-.329l-4.191-3.846a1.25,1.25,0,0,1,1.69-1.842l3.269,3,23.1-25.225-5.749-5.275a.293.293,0,0,0-.413.018L88.129,79.056a1.25,1.25,0,1,1-1.844-1.688L110.03,51.437a2.793,2.793,0,0,1,3.947-.171l6.669,6.119a1.25,1.25,0,0,1,.077,1.765L95.935,86.219a1.25,1.25,0,0,1-.868.4Z" transform="translate(45.197 3048.333)" fill="#333"/><path d="M134.046,80.669a1.25,1.25,0,0,1-.921-2.095l8.868-9.675a2.192,2.192,0,0,0-.135-3.091L139.891,64a1.25,1.25,0,0,1,1.69-1.843l1.967,1.8a4.7,4.7,0,0,1,.288,6.622l-8.869,9.676A1.247,1.247,0,0,1,134.046,80.669Z" transform="translate(23.863 3043.185)" fill="#333"/><path d="M81.862,113.3a2.664,2.664,0,0,1-2.5-3.577l3.591-9.828a1.25,1.25,0,0,1,2.348.858l-3.591,9.828a.162.162,0,0,0,.22.2l9.473-4.429a1.25,1.25,0,0,1,1.059,2.265l-9.472,4.429A2.662,2.662,0,0,1,81.862,113.3Z" transform="translate(48.275 3026.224)" fill="#333"/><path d="M145.643,50.849a1.25,1.25,0,0,1-.921-2.095l1.934-2.109a.256.256,0,0,0,.068-.188.259.259,0,0,0-.085-.183l-3-2.751a.259.259,0,0,0-.19-.069.256.256,0,0,0-.181.084l-1.935,2.11a1.25,1.25,0,1,1-1.843-1.69l1.934-2.11a2.763,2.763,0,0,1,3.9-.17l3,2.752a2.763,2.763,0,0,1,.171,3.9l-1.934,2.11A1.247,1.247,0,0,1,145.643,50.849Z" transform="translate(20.964 3052.695)" fill="#333"/></g><g transform="translate(-323.997 -986.436)"><path d="M19.74,36.152a14.832,14.832,0,0,1,3.683.465l3.851.988a14.831,14.831,0,0,1,6.855,3.933l4.026,4.068,4.952-.875a4.738,4.738,0,0,1,1.705,9.321L37.17,55.5a5.833,5.833,0,0,1-5.067-1.47L28.8,50.935l-1.749,7.079,9.139,2.976a4.232,4.232,0,0,1,2.929,4.035q0,.022,0,.043l-.5,14.58c-.013,3.779-3.279,3.778-4.676,3.778h-.16a5.186,5.186,0,0,1-5.18-5.181V69.51L17.07,65.84A6.281,6.281,0,0,1,12.744,59.1l1.337-11-2.732.905L9.6,55.476A4.5,4.5,0,0,1,.9,53.148l2.19-8.283A6.8,6.8,0,0,1,6.993,40.33l6.873-2.965A14.748,14.748,0,0,1,19.74,36.152ZM37.727,48.2a1.25,1.25,0,0,1-.888-.371L32.352,43.3a12.33,12.33,0,0,0-5.7-3.27L22.8,39.039a12.327,12.327,0,0,0-7.946.622L7.983,42.625A4.317,4.317,0,0,0,5.5,45.5l-2.19,8.283a2,2,0,0,0,3.869,1.035l1.929-7.116a1.25,1.25,0,0,1,.813-.86l5.242-1.737A1.25,1.25,0,0,1,16.8,46.447L15.226,59.4a3.779,3.779,0,0,0,2.6,4.054l12.4,3.948a1.25,1.25,0,0,1,.871,1.191v9.649a2.683,2.683,0,0,0,2.68,2.681h.16a4.642,4.642,0,0,0,1.863-.271c.085-.053.312-.2.312-1.03q0-.022,0-.043l.5-14.576a1.738,1.738,0,0,0-1.2-1.639L25.168,60.031a1.25,1.25,0,0,1-.826-1.488L26.88,48.268a1.25,1.25,0,0,1,2.067-.613L33.81,52.2a3.333,3.333,0,0,0,2.9.84l7.642-1.446a2.238,2.238,0,0,0-.412-4.437,2.266,2.266,0,0,0-.393.035l-5.6.989A1.251,1.251,0,0,1,37.727,48.2Z" transform="translate(1635 3062.653)" fill="#333"/><path d="M19.3,109a5.226,5.226,0,0,1-1.238-.15,5.181,5.181,0,0,1-3.844-6.1L18.849,78.93a1.25,1.25,0,1,1,2.454.477L16.67,103.244l0,.021a2.681,2.681,0,0,0,5.239,1.136l3.126-14.216a1.25,1.25,0,0,1,2.442.537L24.347,104.94A5.187,5.187,0,0,1,19.3,109Z" transform="translate(1628.832 3043.37)" fill="#333"/><path d="M7.215-1.25A8.465,8.465,0,1,1-1.25,7.215,8.475,8.475,0,0,1,7.215-1.25Zm0,14.431A5.965,5.965,0,1,0,1.25,7.215,5.972,5.972,0,0,0,7.215,13.181Z" transform="translate(1656.038 3080.997)" fill="#333"/><path d="M4.582,159.981a1.25,1.25,0,0,1-1.25-1.25v-5.549a1.25,1.25,0,0,1,1.25-1.25h17.93a1.25,1.25,0,0,1,0,2.5H5.832v4.3A1.25,1.25,0,0,1,4.582,159.981Z" transform="translate(1633.806 3009.198)" fill="#333"/><path d="M42.1,141.4a1.25,1.25,0,0,1-1.25-1.25v-3.811a1.25,1.25,0,0,1,1.25-1.25H59.021a1.25,1.25,0,0,1,0,2.5H43.345v2.561A1.25,1.25,0,0,1,42.1,141.4Z" transform="translate(1616.487 3016.976)" fill="#333"/><path d="M101.412,144.254a1.25,1.25,0,0,1-1.25-1.25V120.368H81.729v3.294a1.25,1.25,0,0,1-2.5,0v-4.544a1.25,1.25,0,0,1,1.25-1.25h20.933a1.25,1.25,0,0,1,1.25,1.25V143A1.25,1.25,0,0,1,101.412,144.254Z" transform="translate(1598.765 3024.926)" fill="#333"/><path d="M40.328,159.981a1.25,1.25,0,0,1-1.25-1.25v-4.3H37.291a1.25,1.25,0,0,1,0-2.5h3.038a1.25,1.25,0,0,1,1.25,1.25v5.549A1.25,1.25,0,0,1,40.328,159.981Z" transform="translate(1618.705 3009.198)" fill="#333"/><path d="M77.334,152.2a1.25,1.25,0,0,1-1.25-1.25V137.586H72.939a1.25,1.25,0,0,1,0-2.5h4.4a1.25,1.25,0,0,1,1.25,1.25v14.618A1.25,1.25,0,0,1,77.334,152.2Z" transform="translate(1602.246 3016.976)" fill="#333"/></g><g transform="translate(-605.014 -986.453)"><path d="M76.192,16.055h-.022a6.341,6.341,0,0,1,.022-12.683h.022a6.341,6.341,0,0,1-.022,12.683Zm0-10.183a3.841,3.841,0,0,0-.013,7.683h.013a3.841,3.841,0,0,0,.013-7.683Z" transform="translate(1616.139 3077.835)" fill="#333"/><path d="M90.012,55.824a1.25,1.25,0,0,1-.745-2.255,3.411,3.411,0,0,0,1.334-2.88v-.011c0-.07.362-6.987.362-9.628a4.3,4.3,0,0,0-3.222-4.483,30.062,30.062,0,0,0-7.491-.856,1.25,1.25,0,0,1,0-2.5h0a32.164,32.164,0,0,1,8.182.955,6.8,6.8,0,0,1,5.025,6.883c0,2.69-.346,9.392-.365,9.753a5.894,5.894,0,0,1-2.343,4.776A1.244,1.244,0,0,1,90.012,55.824Z" transform="translate(1612.051 3064.506)" fill="#333"/><path d="M60.718,55.823a1.244,1.244,0,0,1-.757-.256,5.492,5.492,0,0,1-2.2-4.61c0-.053,0-.1-.006-.153-.018-.35-.365-7.061-.365-9.754a6.8,6.8,0,0,1,5.025-6.883,32.164,32.164,0,0,1,8.182-.955,1.25,1.25,0,1,1,.007,2.5,30.062,30.062,0,0,0-7.491.856,4.3,4.3,0,0,0-3.222,4.483c0,2.642.358,9.559.362,9.628v.011c0,.056,0,.114.007.174a3.034,3.034,0,0,0,1.221,2.717,1.25,1.25,0,0,1-.759,2.244Z" transform="translate(1621.707 3064.506)" fill="#333"/><path d="M78.658,84.47H73.043A3.27,3.27,0,0,1,69.777,81.2V80.57l-.419-29.852a1.25,1.25,0,1,1,2.5-.035l.419,29.86q0,.009,0,.018V81.2a.767.767,0,0,0,.766.767h5.615a.768.768,0,0,0,.767-.767v-.609q0-.015,0-.03l.723-29.893a1.25,1.25,0,0,1,2.5.06l-.722,29.878V81.2A3.27,3.27,0,0,1,78.658,84.47Z" transform="translate(1616.359 3057.252)" fill="#333"/><path d="M108.813,12.378h-.021A5.807,5.807,0,0,1,108.811.764h.021a5.807,5.807,0,0,1-.019,11.614Zm0-9.114a3.307,3.307,0,0,0-.01,6.614h.012a3.307,3.307,0,0,0,.011-6.614Z" transform="translate(1601.33 3079)" fill="#333"/><path d="M121.446,47.795a1.25,1.25,0,0,1-.791-2.218,3.446,3.446,0,0,0,.923-2.439v-.018c0-.062.36-6.248.36-8.605a3.766,3.766,0,0,0-2.79-3.887,26.548,26.548,0,0,0-6.706-.76,1.25,1.25,0,1,1,.007-2.5,29.159,29.159,0,0,1,7.4.859,6.209,6.209,0,0,1,4.593,6.288c0,2.407-.343,8.386-.363,8.741a5.607,5.607,0,0,1-1.84,4.258A1.245,1.245,0,0,1,121.446,47.795Z" transform="translate(1597.671 3067.116)" fill="#333"/><path d="M103.812,30.245a1.25,1.25,0,0,1-.208-2.482c.64-.109,1.319-.2,2.021-.261.942-.086,1.939-.131,2.962-.134h0a1.25,1.25,0,0,1,0,2.5c-.95,0-1.872.044-2.741.124-.637.058-1.253.138-1.829.236A1.259,1.259,0,0,1,103.812,30.245Z" transform="translate(1601.527 3067.116)" fill="#333"/><path d="M111.21,73.511h-5.026a3.058,3.058,0,0,1-3.055-3.055v-.562l-.138-6.647a1.25,1.25,0,1,1,2.5-.052l.138,6.66q0,.013,0,.026v.575a.556.556,0,0,0,.555.555h5.026a.556.556,0,0,0,.555-.555v-.545q0-.015,0-.03l.647-26.758a1.25,1.25,0,1,1,2.5.06l-.646,26.743v.53A3.059,3.059,0,0,1,111.21,73.511Z" transform="translate(1601.335 3060.624)" fill="#333"/><path d="M44.372,12.378A5.807,5.807,0,0,1,44.353.764h.02a5.807,5.807,0,0,1,.019,11.614Zm0-9.114h-.012a3.307,3.307,0,0,0,.01,6.614h.012a3.307,3.307,0,0,0-.01-6.614Z" transform="translate(1630.114 3079)" fill="#333"/><path d="M30.6,47.8a1.245,1.245,0,0,1-.774-.269,5.5,5.5,0,0,1-2.034-4.27c-.021-.358-.364-6.334-.364-8.741a6.209,6.209,0,0,1,4.593-6.287,29.156,29.156,0,0,1,7.4-.86,1.25,1.25,0,0,1,.007,2.5,26.546,26.546,0,0,0-6.706.761,3.766,3.766,0,0,0-2.79,3.887c0,2.357.357,8.543.36,8.605v.018a2.963,2.963,0,0,0,1.087,2.428A1.25,1.25,0,0,1,30.6,47.8Z" transform="translate(1635.088 3067.116)" fill="#333"/><path d="M53.194,30.245a1.258,1.258,0,0,1-.211-.018c-.576-.1-1.192-.177-1.829-.236-.869-.08-1.791-.121-2.741-.124a1.25,1.25,0,1,1,.007-2.5c1.024,0,2.02.048,2.962.134.7.064,1.381.152,2.021.261a1.25,1.25,0,0,1-.208,2.482Z" transform="translate(1626.273 3067.116)" fill="#333"/><path d="M46.754,73.511H41.728a3.059,3.059,0,0,1-3.055-3.055v-.53l-.646-26.743a1.25,1.25,0,1,1,2.5-.06l.647,26.758q0,.015,0,.03v.545a.556.556,0,0,0,.555.555h5.026a.556.556,0,0,0,.555-.555v-.575q0-.013,0-.026l.138-6.66a1.25,1.25,0,1,1,2.5.052l-.138,6.647v.562A3.058,3.058,0,0,1,46.754,73.511Z" transform="translate(1630.355 3060.624)" fill="#333"/><path d="M140.125,110.915a1.25,1.25,0,0,1-1-1.994l9.115-12.3c1.479-2.137,1.472-3.26,1.458-5.492v-.118l-.542-21.557a.966.966,0,0,0-1.055-.824A4.432,4.432,0,0,0,144.064,73l-.493,9.409a1.25,1.25,0,0,1-2.5-.131l.494-9.425q0-.015,0-.031a7.4,7.4,0,0,1,1.947-4.611,6.826,6.826,0,0,1,4.324-2.068,3.465,3.465,0,0,1,3.8,3.1q0,.048.006.1l.544,21.627c0,.008,0,.016,0,.024v.129c.015,2.41.026,4.152-1.915,6.949l-.023.032-9.127,12.315A1.248,1.248,0,0,1,140.125,110.915Z" transform="translate(1585.306 3049.804)" fill="#333"/><path d="M98.551,129.91a1.25,1.25,0,0,1-1.25-1.25v-4.612q0-.019,0-.038a13.361,13.361,0,0,1,2.525-7.845c3.91-5.506,8.524-6.45,10.2-6.607l6.455-7.665a5.607,5.607,0,0,1,7.828-.737,4.144,4.144,0,0,1,.7,5.717L116.3,118.46a1.25,1.25,0,0,1-2-1.5l8.705-11.586a1.651,1.651,0,0,0-.279-2.277,3.121,3.121,0,0,0-4.337.409l-6.8,8.079a1.216,1.216,0,0,1-.985.445,8.252,8.252,0,0,0-2.865.673,13.608,13.608,0,0,0-5.875,4.912,10.882,10.882,0,0,0-2.064,6.454v4.593A1.25,1.25,0,0,1,98.551,129.91Z" transform="translate(1603.878 3034.718)" fill="#333"/><path d="M120.993,157a1.25,1.25,0,0,1-1.25-1.25v-2.573a1.064,1.064,0,0,0-1.063-1.064h0l-21.881,0a1.065,1.065,0,0,0-1.065,1.067l0,2.471a1.25,1.25,0,0,1-1.247,1.253h0a1.25,1.25,0,0,1-1.25-1.247l0-2.471a3.565,3.565,0,0,1,3.564-3.571l21.881,0h0a3.564,3.564,0,0,1,3.563,3.564v2.573A1.25,1.25,0,0,1,120.993,157Z" transform="translate(1605.695 3012.51)" fill="#333"/><path d="M12.836,110.915a1.248,1.248,0,0,1-1.005-.506L2.7,98.094l-.023-.032c-1.94-2.8-1.93-4.538-1.915-6.949v-.129q0-.012,0-.024l.543-21.627q0-.048.006-.1a3.466,3.466,0,0,1,3.8-3.094,6.826,6.826,0,0,1,4.324,2.068,7.4,7.4,0,0,1,1.947,4.611q0,.015,0,.031l.494,9.425a1.25,1.25,0,0,1-2.5.131L8.9,73A4.432,4.432,0,0,0,4.864,68.63a.966.966,0,0,0-1.056.825L3.267,91.129c-.014,2.232-.021,3.356,1.458,5.492l9.115,12.3a1.25,1.25,0,0,1-1,1.994Z" transform="translate(1647 3049.804)" fill="#333"/><path d="M42.123,129.91a1.25,1.25,0,0,1-1.25-1.25v-4.593a10.882,10.882,0,0,0-2.064-6.454,13.557,13.557,0,0,0-6-4.962,7.966,7.966,0,0,0-2.736-.623,1.25,1.25,0,0,1-.99-.444l-6.8-8.079a3.121,3.121,0,0,0-4.337-.408,1.651,1.651,0,0,0-.279,2.277l8.7,11.586a1.25,1.25,0,0,1-2,1.5l-8.705-11.586a4.144,4.144,0,0,1,.7-5.717,5.607,5.607,0,0,1,7.828.737l6.455,7.665c1.676.157,6.29,1.1,10.2,6.607a13.361,13.361,0,0,1,2.525,7.845q0,.019,0,.038v4.612A1.25,1.25,0,0,1,42.123,129.91Z" transform="translate(1640.716 3034.718)" fill="#333"/><path d="M19.3,157a1.25,1.25,0,0,1-1.25-1.25v-2.573a3.569,3.569,0,0,1,3.564-3.564h0l21.881,0a3.564,3.564,0,0,1,3.564,3.572l0,2.471a1.25,1.25,0,0,1-1.25,1.248h0a1.25,1.25,0,0,1-1.248-1.252l0-2.471a1.064,1.064,0,0,0-1.064-1.067l-21.881,0h0a1.066,1.066,0,0,0-1.064,1.064v2.573A1.25,1.25,0,0,1,19.3,157Z" transform="translate(1639.278 3012.51)" fill="#333"/></g><path d="M20,2A18,18,0,0,0,2,20V300a18,18,0,0,0,18,18H210a18,18,0,0,0,18-18V20A18,18,0,0,0,210,2H20m0-2H210a20,20,0,0,1,20,20V300a20,20,0,0,1-20,20H20A20,20,0,0,1,0,300V20A20,20,0,0,1,20,0Z" transform="translate(460 2000)" fill="#ffe632" opacity="0.996"/><path d="M20,2A18,18,0,0,0,2,20V300a18,18,0,0,0,18,18H210a18,18,0,0,0,18-18V20A18,18,0,0,0,210,2H20m0-2H210a20,20,0,0,1,20,20V300a20,20,0,0,1-20,20H20A20,20,0,0,1,0,300V20A20,20,0,0,1,20,0Z" transform="translate(717 2000)" fill="#ffe632" opacity="0.996"/><path d="M20,2A18,18,0,0,0,2,20V300a18,18,0,0,0,18,18H210a18,18,0,0,0,18-18V20A18,18,0,0,0,210,2H20m0-2H210a20,20,0,0,1,20,20V300a20,20,0,0,1-20,20H20A20,20,0,0,1,0,300V20A20,20,0,0,1,20,0Z" transform="translate(973 2000)" fill="#ffe632" opacity="0.996"/><path d="M20,2A18,18,0,0,0,2,20V300a18,18,0,0,0,18,18H210a18,18,0,0,0,18-18V20A18,18,0,0,0,210,2H20m0-2H210a20,20,0,0,1,20,20V300a20,20,0,0,1-20,20H20A20,20,0,0,1,0,300V20A20,20,0,0,1,20,0Z" transform="translate(1230 2000)" fill="#ffe632" opacity="0.996"/><g transform="translate(0 -1028)"><rect width="50" height="910" rx="5" transform="translate(490 3305) rotate(-90)" fill="#144176"/><path d="M38.586,1.414a2,2,0,0,1,2.828,0L76.586,36.586A2,2,0,0,1,75.172,40H4.828a2,2,0,0,1-1.414-3.414Z" transform="translate(1430 3240) rotate(90)" fill="#144176"/></g><path d="M-266.02-14.28a7.079,7.079,0,0,0-.19-.8q-.11-.36-.21-.72l2.82-.46q.04.3.09.75a7.648,7.648,0,0,0,.13.81q.04.28.18,1.04t.34,1.84q.2,1.08.45,2.33t.49,2.52q.24,1.27.47,2.41t.4,2.02q.17.88.25,1.3.1.44.24.96t.28,1l-2.9.52q-.08-.56-.12-1.07a6.629,6.629,0,0,0-.14-.95q-.08-.4-.23-1.23t-.36-1.95q-.21-1.12-.45-2.38l-.48-2.52-.45-2.36q-.21-1.1-.37-1.91T-266.02-14.28Zm-5.46,2.54q.48-.02.94-.05t.92-.09l1.24-.17q.8-.11,1.84-.26t2.15-.33l2.15-.35q1.04-.17,1.85-.31l1.27-.22,1-.21q.52-.11.88-.21l.48,2.62q-.32.02-.86.1t-.98.14q-.54.08-1.41.22l-1.93.31q-1.06.17-2.16.34t-2.1.34q-1,.17-1.76.29l-1.14.18-.9.19q-.42.09-.94.23Zm.02,5.88q.4-.02,1.01-.09t1.07-.13q.54-.08,1.44-.22t2.03-.32l2.33-.37q1.2-.19,2.34-.39t2.08-.36l1.52-.26q.58-.12,1.11-.24t.93-.24l.54,2.64a9.384,9.384,0,0,0-.97.11q-.57.09-1.15.19-.64.1-1.6.26l-2.11.35q-1.15.19-2.35.38t-2.3.38q-1.1.19-1.98.33t-1.38.24q-.64.12-1.15.22t-.85.2Zm28.16-6.84q.06.34.15.73t.17.79q.18.58.43,1.5t.55,2.02q.3,1.1.61,2.23t.61,2.16q.3,1.03.52,1.82t.34,1.21a2.481,2.481,0,0,1,.16.48q.08.32.19.64t.19.52l-2.72.68q-.06-.42-.14-.88a6.064,6.064,0,0,0-.22-.88q-.12-.44-.34-1.27t-.5-1.89q-.28-1.06-.59-2.2t-.59-2.23q-.28-1.09-.53-1.98t-.41-1.39a5.342,5.342,0,0,0-.25-.76q-.15-.36-.31-.66Zm9.6,3.08a14.568,14.568,0,0,1-.81,1.5q-.51.84-1.11,1.72t-1.2,1.67q-.6.79-1.14,1.37l-2.2-1.1a12.629,12.629,0,0,0,1.1-1.12q.58-.66,1.09-1.33a7.623,7.623,0,0,0,.75-1.15q-.22.04-.83.16t-1.47.3l-1.87.39q-1.01.21-2.03.43t-1.94.41q-.92.19-1.62.34t-1.06.23l-.62-2.4q.48-.04.92-.1t.92-.14l.85-.14q.61-.1,1.46-.26t1.83-.35q.98-.19,1.98-.38l1.88-.36,1.54-.3q.66-.13.96-.21a3.514,3.514,0,0,0,.54-.13,3.428,3.428,0,0,0,.48-.19Zm20.46-5.9q-.02.42-.05.91t-.03,1.09v3.96a22.877,22.877,0,0,1-.15,2.8,10.993,10.993,0,0,1-.45,2.1,7.452,7.452,0,0,1-.73,1.59,9.256,9.256,0,0,1-.99,1.31,8.181,8.181,0,0,1-1.52,1.29,12.079,12.079,0,0,1-1.73.96,16.159,16.159,0,0,1-1.61.63l-2.1-2.2a11.788,11.788,0,0,0,2.71-.95,7.482,7.482,0,0,0,2.11-1.57,6.341,6.341,0,0,0,.84-1.16,5.129,5.129,0,0,0,.49-1.29,10.425,10.425,0,0,0,.24-1.61q.07-.9.07-2.06v-3.8q0-.6-.03-1.09t-.09-.91Zm-9.28.16q-.02.36-.04.71t-.02.83v6.76q0,.38.02.88t.04.86h-2.9q.02-.28.06-.8t.04-.96v-6.74q0-.28-.02-.73t-.06-.81Zm34.32,1.82q-.16.2-.4.51t-.38.53a19.7,19.7,0,0,1-1.22,1.79,25.209,25.209,0,0,1-1.68,2,12.622,12.622,0,0,1-1.9,1.69l-2.08-1.66a9.6,9.6,0,0,0,1.18-.84,11.041,11.041,0,0,0,1.07-1.01q.49-.53.86-1.01a6.122,6.122,0,0,0,.57-.86H-202.6q-.62,0-1.18.04t-1.26.1v-2.78q.58.08,1.2.14t1.24.06h10.78q.28,0,.68-.02t.79-.06a2.906,2.906,0,0,0,.57-.1Zm-8.16,2.7q0,1.48-.06,2.86a16.085,16.085,0,0,1-.33,2.65,9.531,9.531,0,0,1-.86,2.41,8.53,8.53,0,0,1-1.63,2.16,11.418,11.418,0,0,1-2.66,1.88l-2.34-1.9a7.844,7.844,0,0,0,1.02-.43,7.32,7.32,0,0,0,1.08-.67,7.115,7.115,0,0,0,1.55-1.4,5.756,5.756,0,0,0,.91-1.61,8.257,8.257,0,0,0,.44-1.9,19.518,19.518,0,0,0,.12-2.25q0-.46-.02-.89a5.792,5.792,0,0,0-.12-.91Zm21.5-.34h7.16V-9h-7.16Zm0,4.74h7.16v2.16h-7.16Zm0,4.72h7.16V.46h-7.16ZM-176-15.92h9.42V1.5h-2.4V-13.64h-4.72V1.62H-176Zm-8.4,3.06h7.68v2.26h-7.68Zm2.88-4.14h2.3V1.78h-2.3Zm-.12,5.68,1.42.5q-.24,1.22-.6,2.51t-.82,2.52a22.935,22.935,0,0,1-1,2.3,10.815,10.815,0,0,1-1.14,1.83,7.431,7.431,0,0,0-.5-1.15,11.06,11.06,0,0,0-.64-1.09,11.047,11.047,0,0,0,1.04-1.54,19.542,19.542,0,0,0,.93-1.87q.43-.99.77-2.02A18.206,18.206,0,0,0-181.64-11.32Zm2.26,1.76a8.462,8.462,0,0,1,.64.69q.42.49.89,1.07t.88,1.07q.41.49.57.69l-1.38,1.94q-.22-.44-.56-1.04t-.74-1.22q-.4-.62-.77-1.18t-.63-.94Zm28.52-1.82,1.48-1.58q.86.48,1.89,1.1t1.98,1.25a18.042,18.042,0,0,1,1.55,1.13l-1.6,1.82a11.923,11.923,0,0,0-1.46-1.2q-.92-.66-1.94-1.32T-150.86-11.38Zm1.38,2.88h1.2v3.04a4.151,4.151,0,0,0,.12.92,5.18,5.18,0,0,0,.41,1.11,5.02,5.02,0,0,0,.81,1.16,7.311,7.311,0,0,0,1.3,1.1,9.308,9.308,0,0,0,1.86.95q-.3.42-.72,1.02t-.66,1.02A6.978,6.978,0,0,1-146.85.9a7.962,7.962,0,0,1-1.29-1.19,7.634,7.634,0,0,1-.88-1.24,5.645,5.645,0,0,1-.48-1.07,5.577,5.577,0,0,1-.53,1.06A7.572,7.572,0,0,1-151-.31,8.636,8.636,0,0,1-152.41.87a9.087,9.087,0,0,1-1.85.95q-.14-.28-.37-.65t-.49-.72a7.5,7.5,0,0,0-.48-.59,9.06,9.06,0,0,0,1.99-.94,7.68,7.68,0,0,0,1.39-1.13,5.958,5.958,0,0,0,.89-1.18,4.482,4.482,0,0,0,.46-1.13,4.094,4.094,0,0,0,.13-.94V-8.5Zm-1.08-8.5h2.36a30.2,30.2,0,0,1-.31,3.28,9.271,9.271,0,0,1-.8,2.65,6,6,0,0,1-1.66,2.05,9.791,9.791,0,0,1-2.91,1.52,4.515,4.515,0,0,0-.56-1.01,4.662,4.662,0,0,0-.78-.89,7.821,7.821,0,0,0,2.48-1.17,4.513,4.513,0,0,0,1.35-1.62,6.974,6.974,0,0,0,.61-2.12Q-150.62-15.5-150.56-17Zm-2.94,1.2,1.96.38a8.888,8.888,0,0,1-.54,2.04,5.053,5.053,0,0,1-1.06,1.7L-155-12.5a4.679,4.679,0,0,0,.94-1.46A8.082,8.082,0,0,0-153.5-15.8Zm-.24,8.68,2.1.42a10.289,10.289,0,0,1-.67,2.27,5.748,5.748,0,0,1-1.21,1.85l-1.96-1a4.508,4.508,0,0,0,1.09-1.54A8.871,8.871,0,0,0-153.74-7.12Zm7.3-8.82,2.3.72q-.5.9-1.01,1.77t-.93,1.49l-1.8-.68q.26-.44.54-1.02t.52-1.18A10.921,10.921,0,0,0-146.44-15.94Zm.12,8.68,2.36.74-1.09,1.86a16.824,16.824,0,0,1-1.03,1.58l-1.86-.68a12.329,12.329,0,0,0,.6-1.09q.3-.61.57-1.25T-146.32-7.26Zm-15.44-3.6h6.04v1.82h-6.04Zm.08-5.5h5.92v1.8h-5.92Zm-.08,8.24h6.04v1.8h-6.04Zm-.94-5.56h7.64v1.9h-7.64Zm1.98,8.32h5.04V.74h-5.04v-1.9h2.98v-2.3h-2.98Zm-1.08,0h2.02V1.52h-2.02Zm25.6,6.74q-.6-.76-1.34-1.54t-1.5-1.53q-.76-.75-1.46-1.35l2.08-1.8q.72.58,1.54,1.37t1.57,1.59q.75.8,1.25,1.42Zm32.96-16.9q-.02.42-.05.91t-.03,1.09q0,.52,0,1.26t0,1.47q0,.73,0,1.23a22.877,22.877,0,0,1-.15,2.8,10.992,10.992,0,0,1-.45,2.1,7.453,7.453,0,0,1-.73,1.59,9.257,9.257,0,0,1-.99,1.31,8.181,8.181,0,0,1-1.52,1.29,12.079,12.079,0,0,1-1.73.96,16.159,16.159,0,0,1-1.61.63l-2.1-2.2a11.788,11.788,0,0,0,2.71-.95,7.482,7.482,0,0,0,2.11-1.57,6.341,6.341,0,0,0,.84-1.16,5.128,5.128,0,0,0,.49-1.29,10.425,10.425,0,0,0,.24-1.61q.07-.9.07-2.06v-3.8q0-.6-.03-1.09t-.09-.91Zm-9.28.16q-.02.36-.04.71t-.02.83v6.76q0,.38.02.88t.04.86h-2.9q.02-.28.06-.8t.04-.96v-6.74q0-.28-.02-.73t-.06-.81Zm31.9,1.8q-.12.18-.35.56a4.27,4.27,0,0,0-.35.7q-.42.94-1.03,2.1t-1.38,2.33a23.053,23.053,0,0,1-1.63,2.19,33.36,33.36,0,0,1-2.47,2.49A27.061,27.061,0,0,1-90.67-.93,21.776,21.776,0,0,1-93.72.84l-2.06-2.16a18.606,18.606,0,0,0,3.14-1.56,23.453,23.453,0,0,0,2.82-2.04,23.345,23.345,0,0,0,2.24-2.14,17.982,17.982,0,0,0,1.25-1.62,19.082,19.082,0,0,0,1.05-1.71,8.67,8.67,0,0,0,.68-1.57h-6.78q-.42,0-.88.03t-.87.06q-.41.03-.63.05v-2.84q.3.02.74.06t.89.06q.45.02.75.02h7.06a8.438,8.438,0,0,0,1.21-.08,5.2,5.2,0,0,0,.85-.18ZM-85.1-7.34q.78.62,1.66,1.44t1.74,1.7q.86.88,1.59,1.69t1.23,1.41L-81.16.88q-.74-1.02-1.69-2.12t-2-2.19Q-85.9-4.52-86.98-5.5Zm17.08-6.94a7.086,7.086,0,0,0-.19-.8q-.11-.36-.21-.72l2.82-.46q.04.3.09.75a7.652,7.652,0,0,0,.13.81q.04.28.18,1.04t.34,1.84q.2,1.08.45,2.33t.49,2.52q.24,1.27.47,2.41t.4,2.02q.17.88.25,1.3.1.44.24.96t.28,1l-2.9.52Q-65.26.68-65.3.17a6.63,6.63,0,0,0-.14-.95q-.08-.4-.23-1.23t-.36-1.95q-.21-1.12-.45-2.38l-.48-2.52-.45-2.36q-.21-1.1-.37-1.91T-68.02-14.28Zm-5.46,2.54q.48-.02.94-.05t.92-.09l1.24-.17q.8-.11,1.84-.26t2.15-.33l2.15-.35q1.04-.17,1.85-.31l1.27-.22,1-.21q.52-.11.88-.21l.48,2.62q-.32.02-.86.1t-.98.14q-.54.08-1.41.22l-1.93.31q-1.06.17-2.16.34t-2.1.34q-1,.17-1.76.29l-1.14.18-.9.19q-.42.09-.94.23Zm.02,5.88q.4-.02,1.01-.09t1.07-.13q.54-.08,1.44-.22t2.03-.32l2.33-.37q1.2-.19,2.34-.39t2.08-.36L-59.64-8q.58-.12,1.11-.24t.93-.24l.54,2.64a9.384,9.384,0,0,0-.97.11q-.57.09-1.15.19-.64.1-1.6.26l-2.11.35q-1.15.19-2.35.38t-2.3.38q-1.1.19-1.98.33t-1.38.24q-.64.12-1.15.22t-.85.2Zm36.22-9.66q-.02.42-.05.91t-.03,1.09q0,.52,0,1.26t0,1.47q0,.73,0,1.23a22.877,22.877,0,0,1-.15,2.8,10.992,10.992,0,0,1-.45,2.1,7.453,7.453,0,0,1-.73,1.59,9.257,9.257,0,0,1-.99,1.31A8.181,8.181,0,0,1-41.16-.47a12.079,12.079,0,0,1-1.73.96,16.159,16.159,0,0,1-1.61.63l-2.1-2.2a11.788,11.788,0,0,0,2.71-.95A7.482,7.482,0,0,0-41.78-3.6a6.341,6.341,0,0,0,.84-1.16,5.128,5.128,0,0,0,.49-1.29,10.424,10.424,0,0,0,.24-1.61q.07-.9.07-2.06v-3.8q0-.6-.03-1.09t-.09-.91Zm-9.28.16q-.02.36-.04.71t-.02.83v6.76q0,.38.02.88t.04.86h-2.9q.02-.28.06-.8t.04-.96v-6.74q0-.28-.02-.73t-.06-.81Zm20.04.16q.52.36,1.22.88t1.45,1.13q.75.61,1.41,1.19a13.952,13.952,0,0,1,1.08,1.04l-2.04,2.08q-.38-.42-1-1t-1.34-1.2q-.72-.62-1.42-1.18t-1.24-.94Zm-2.5,13.32a21.181,21.181,0,0,0,2.94-.62,20.5,20.5,0,0,0,2.56-.92A23.277,23.277,0,0,0-21.32-4.5,19.341,19.341,0,0,0-18.2-6.82a19.887,19.887,0,0,0,2.48-2.71,15.329,15.329,0,0,0,1.68-2.75l1.56,2.82a18.622,18.622,0,0,1-1.87,2.68,21.522,21.522,0,0,1-2.51,2.55,20.906,20.906,0,0,1-3.02,2.17,22.679,22.679,0,0,1-2.2,1.17,22.494,22.494,0,0,1-2.49.98A18.772,18.772,0,0,1-27.3.76ZM6.28-16.38q.26.36.55.86t.57,1q.28.5.46.88l-1.6.68q-.3-.62-.73-1.41a15.381,15.381,0,0,0-.83-1.37Zm2.36-.9q.26.36.57.87t.6,1a8.49,8.49,0,0,1,.45.85l-1.58.68q-.32-.64-.76-1.42a12.394,12.394,0,0,0-.86-1.34Zm-.56,5.3a5.54,5.54,0,0,0-.36.67,6.536,6.536,0,0,0-.3.77,19.018,19.018,0,0,1-.74,2.01A22.911,22.911,0,0,1,5.52-6.2a17.345,17.345,0,0,1-1.6,2.34A18.38,18.38,0,0,1,.59-.74,21.278,21.278,0,0,1-4.14,1.78L-6.5-.34A20.71,20.71,0,0,0-2.98-1.73,14.978,14.978,0,0,0-.4-3.4,15.623,15.623,0,0,0,1.56-5.3,12.411,12.411,0,0,0,2.83-7.06a15.113,15.113,0,0,0,1-1.96,10.093,10.093,0,0,0,.57-1.72H-2.34L-1.42-13h5.7a6.44,6.44,0,0,0,.95-.07,5.33,5.33,0,0,0,.79-.17ZM1.56-15.14q-.36.52-.7,1.12t-.52.92a20.979,20.979,0,0,1-1.68,2.49,23.656,23.656,0,0,1-2.25,2.5A21.459,21.459,0,0,1-6.28-5.9L-8.52-7.58A17.317,17.317,0,0,0-6.2-9.24a16.99,16.99,0,0,0,1.74-1.71,17.907,17.907,0,0,0,1.28-1.64q.54-.79.9-1.43a6.623,6.623,0,0,0,.51-.97,6.573,6.573,0,0,0,.39-1.11ZM16.4,1.38Q15.8.62,15.06-.16t-1.5-1.53q-.76-.75-1.46-1.35l2.08-1.8q.72.58,1.54,1.37t1.57,1.59q.75.8,1.25,1.42ZM43.88-15.6H51.9v2.26H43.88ZM43.1-9.98h9.5v2.26H43.1Zm2.5,1.26,2.6.44q-.18,1.06-.42,2.16t-.49,2.17q-.25,1.07-.51,2.03T46.28-.2L44.14-.66q.22-.8.44-1.8T45-4.54q.2-1.08.36-2.16T45.6-8.72ZM42.58-1.06q1.12-.06,2.56-.16l3.07-.21q1.63-.11,3.23-.21L51.46.5q-1.48.14-2.99.29t-2.89.27q-1.38.12-2.56.24Zm5.96-3.66,2.04-.82a23.038,23.038,0,0,1,1,2.16q.46,1.14.81,2.24a15.777,15.777,0,0,1,.51,2l-2.22.88a14.536,14.536,0,0,0-.44-2q-.32-1.12-.75-2.29A18.634,18.634,0,0,0,48.54-4.72ZM34.2-15.08h8.74v2.06H34.2ZM33.92-3.5h9.16v2.1H33.92Zm3.56-13.48h2.26v5.86H37.48Zm.24,5.86h1.76v5.56h.22V1.78H37.48V-5.56h.24ZM36.48-7.5v1.18H40.8V-7.5Zm0-2.74v1.18H40.8v-1.18Zm-1.84-1.68H42.7v7.28H34.64ZM64.26-5.14h3.6v1.56h-3.6ZM63-15.14h6.14v1.74H63Zm-.4,4.42H74.72v1.86H62.6Zm2.16,2.74H68.9V-.72H64.76V-2.36h2.28V-6.32H64.76Zm-1.4,0h1.82V.44H63.36Zm1.7-8.96H67.1v2.98H65.06ZM72.6-8.12l1.92.42a19.079,19.079,0,0,1-2.5,5.57,14.506,14.506,0,0,1-3.88,3.95,6.058,6.058,0,0,0-.37-.48q-.25-.3-.52-.6a6.585,6.585,0,0,0-.47-.48,11.37,11.37,0,0,0,3.63-3.44A15.691,15.691,0,0,0,72.6-8.12ZM63.42-13.1l1.54-.38a9.529,9.529,0,0,1,.37,1.31,7.486,7.486,0,0,1,.17,1.25l-1.62.4a9.35,9.35,0,0,0-.15-1.25A11.913,11.913,0,0,0,63.42-13.1Zm7.86-2.22,1.56-.82A12,12,0,0,1,74-14.53a11.059,11.059,0,0,1,.82,1.59l-1.68.92a8.857,8.857,0,0,0-.76-1.62A15.958,15.958,0,0,0,71.28-15.32Zm-4.3,1.84,1.82.34q-.24.7-.46,1.37t-.4,1.17l-1.5-.34q.16-.54.31-1.26T66.98-13.48Zm-10.8-2.76h6.9v2.12h-6.9Zm1.74,4.28h3.5v1.94h-3.5Zm0,4.08h3.5v1.96h-3.5Zm-.94-7.22h1.94V-2.54H56.98Zm3.24,0h2.02V1.8H60.22ZM55.78-2.98q1.08-.16,2.55-.42t3.01-.54l.16,2.02q-1.38.3-2.76.59T56.18-.8Zm13.66-14h2.12q-.02,2.54.03,4.9t.17,4.37q.12,2.01.29,3.51a17.917,17.917,0,0,0,.39,2.35q.22.85.48.85.2,0,.31-.66a17.283,17.283,0,0,0,.17-1.86,5.3,5.3,0,0,0,.48.5,6.62,6.62,0,0,0,.6.5q.3.22.48.34A10.969,10.969,0,0,1,74.33.3a2.964,2.964,0,0,1-.77,1.17,1.244,1.244,0,0,1-.74.31A1.734,1.734,0,0,1,71.4.88a7.756,7.756,0,0,1-.95-2.52,31.007,31.007,0,0,1-.58-3.95q-.21-2.31-.3-5.19T69.44-16.98Zm19.8.8q-.04.3-.07.67t-.05.75q-.02.4-.04,1.07t-.02,1.47v3q0,.84.04,1.87t.11,2.08q.07,1.05.12,1.96t.05,1.51a2.787,2.787,0,0,1-.44,1.53A2.973,2.973,0,0,1,87.63.82a5.248,5.248,0,0,1-2.19.4A6.268,6.268,0,0,1,81.8.34a2.845,2.845,0,0,1-1.24-2.46,2.861,2.861,0,0,1,.59-1.79,3.877,3.877,0,0,1,1.7-1.21,7.185,7.185,0,0,1,2.65-.44,12.886,12.886,0,0,1,3.07.35,13.637,13.637,0,0,1,2.61.91,16.143,16.143,0,0,1,2.1,1.18Q94.2-2.5,94.84-2L93.4.24A17.677,17.677,0,0,0,91.79-1.1a13.992,13.992,0,0,0-1.94-1.2,11.908,11.908,0,0,0-2.22-.87,9.058,9.058,0,0,0-2.47-.33,3.017,3.017,0,0,0-1.61.36,1.037,1.037,0,0,0-.57.88.982.982,0,0,0,.24.66,1.451,1.451,0,0,0,.7.42,4.054,4.054,0,0,0,1.16.14,3.182,3.182,0,0,0,.93-.12,1.114,1.114,0,0,0,.61-.44,1.575,1.575,0,0,0,.22-.9q0-.44-.03-1.26t-.07-1.81q-.04-.99-.08-1.95t-.04-1.7q0-.72.01-1.51t.01-1.57q0-.78.01-1.43t.01-1.07q0-.28-.03-.69a5.163,5.163,0,0,0-.09-.69Zm-8.3,1.88q.54.08,1.2.16t1.35.15q.69.07,1.31.1t1.08.03q2.04,0,4.07-.13t4.21-.49l-.02,2.3q-1.02.14-2.36.26t-2.85.19q-1.51.07-3.03.07-.62,0-1.53-.05t-1.81-.14q-.9-.09-1.56-.17Zm-.1,4.32q.48.08,1.14.16t1.35.12q.69.04,1.31.07t1.02.03q1.86,0,3.37-.08t2.83-.2q1.32-.12,2.54-.28L94.38-7.8q-1.04.12-2.01.2t-1.98.14q-1.01.06-2.17.08t-2.6.02q-.58,0-1.44-.03t-1.75-.09q-.89-.06-1.57-.14Zm19.84-3.74q.6-.02,1.14-.05t.82-.05q.62-.04,1.53-.13t2.04-.19q1.13-.1,2.41-.2t2.66-.22q1.04-.1,2.07-.17t1.96-.12q.93-.05,1.63-.07l.02,2.56q-.54,0-1.24.02t-1.39.07a6.919,6.919,0,0,0-1.23.19,5.022,5.022,0,0,0-1.68.81,6.277,6.277,0,0,0-1.35,1.34,6.437,6.437,0,0,0-.89,1.66,5.258,5.258,0,0,0-.32,1.79,4.049,4.049,0,0,0,.35,1.73,3.807,3.807,0,0,0,.96,1.28,5.382,5.382,0,0,0,1.43.88,8.55,8.55,0,0,0,1.77.53,15.448,15.448,0,0,0,1.97.24L114.4.92a12.448,12.448,0,0,1-2.45-.4,10.359,10.359,0,0,1-2.23-.88,7.155,7.155,0,0,1-1.81-1.37,6.247,6.247,0,0,1-1.22-1.86,5.909,5.909,0,0,1-.45-2.35,7.4,7.4,0,0,1,.46-2.65,8.46,8.46,0,0,1,1.15-2.12,6.933,6.933,0,0,1,1.37-1.41q-.56.08-1.35.16t-1.7.19q-.91.11-1.85.23t-1.81.27q-.87.15-1.57.29ZM114.1-10.4q.26.36.55.85t.57.98q.28.49.48.89L114.18-7q-.38-.84-.73-1.48a12.041,12.041,0,0,0-.83-1.3Zm2.24-.92q.26.36.57.83t.61.96q.3.49.5.87l-1.5.72q-.4-.8-.77-1.42a14.078,14.078,0,0,0-.87-1.28Zm14.68-4.72q-.1.54-.32,1.4a17.183,17.183,0,0,1-.64,1.94q-.32.74-.73,1.53a14.1,14.1,0,0,1-.83,1.41,3.359,3.359,0,0,1,.66-.21,7.977,7.977,0,0,1,.83-.14,6.738,6.738,0,0,1,.77-.05,3.075,3.075,0,0,1,2.09.72,2.68,2.68,0,0,1,.83,2.14q0,.4.01.98t.03,1.21q.02.63.04,1.23t.02,1.08h-2.4q.04-.34.05-.81t.02-.99q.01-.52.02-1.01t.01-.89a1.54,1.54,0,0,0-.51-1.33,1.88,1.88,0,0,0-1.13-.37,3.864,3.864,0,0,0-1.69.41,5.441,5.441,0,0,0-1.43.97q-.44.44-.89.98t-.97,1.22l-2.14-1.6a26.672,26.672,0,0,0,2.25-2.32,16.868,16.868,0,0,0,1.61-2.22,13.96,13.96,0,0,0,1.08-2.2,12.1,12.1,0,0,0,.49-1.67,10.177,10.177,0,0,0,.23-1.63ZM123.5-14.2q.76.12,1.76.18t1.76.06q1.32,0,2.89-.06t3.19-.21q1.62-.15,3.08-.39l-.02,2.32q-1.06.14-2.29.25t-2.5.18q-1.27.07-2.43.1t-2.06.03q-.4,0-.99-.01t-1.21-.04q-.62-.03-1.18-.07Zm15.84,5.68q-.32.1-.75.25l-.86.3q-.43.15-.77.29-.96.38-2.27.92T131.96-5.5a12.217,12.217,0,0,0-1.52.94,4.012,4.012,0,0,0-.94.93,1.792,1.792,0,0,0-.32,1.03,1.22,1.22,0,0,0,.18.69,1.224,1.224,0,0,0,.54.43,3.066,3.066,0,0,0,.9.22,11.786,11.786,0,0,0,1.28.06q1.28,0,2.82-.15t2.86-.41L137.68.82q-.64.08-1.62.17t-2.03.13q-1.05.04-2.01.04a11.94,11.94,0,0,1-2.8-.3,3.938,3.938,0,0,1-1.95-1.03,2.761,2.761,0,0,1-.71-2.01,3.784,3.784,0,0,1,.47-1.88,5.718,5.718,0,0,1,1.25-1.52,11.51,11.51,0,0,1,1.71-1.23q.93-.55,1.83-1.01.92-.48,1.66-.82t1.39-.61q.65-.27,1.25-.55.58-.26,1.12-.51t1.1-.53Zm4.72-.58h18.52v2.62H144.06Zm25.66-7.82,2.28.7a33.343,33.343,0,0,1-1.39,3.39,32.554,32.554,0,0,1-1.76,3.24,20.21,20.21,0,0,1-1.97,2.69q-.12-.3-.35-.77t-.49-.95a6.9,6.9,0,0,0-.48-.78,14.536,14.536,0,0,0,1.63-2.13,23.351,23.351,0,0,0,1.42-2.59A23.724,23.724,0,0,0,169.72-16.92Zm-1.62,5.54,2.28-2.28V1.76H168.1Zm8.52-5.52h2.34V1.64h-2.34Zm-5.08,3.48H184.5v2.28H171.54Zm2.44,9.7h7.68v2.14h-7.68Zm5.84-8.42a24.817,24.817,0,0,0,1.34,3.39,24.4,24.4,0,0,0,1.82,3.18,15.056,15.056,0,0,0,2.08,2.49,7.465,7.465,0,0,0-.95.84,7.153,7.153,0,0,0-.85,1.02A17.393,17.393,0,0,1,181.2-4.1a27.356,27.356,0,0,1-1.76-3.63,39.585,39.585,0,0,1-1.34-3.93Zm-3.94-.2,1.74.48a34.146,34.146,0,0,1-1.38,4.08,27.335,27.335,0,0,1-1.84,3.7,16.069,16.069,0,0,1-2.2,2.92q-.2-.28-.5-.63t-.63-.67a7.025,7.025,0,0,0-.59-.52,13.39,13.39,0,0,0,2.19-2.53,23.553,23.553,0,0,0,1.86-3.28A24.623,24.623,0,0,0,175.88-12.34Zm14.28-1.4h6.14V-.28h-6.14v-2.1h3.98v-9.28h-3.98Zm-1.4,0h2.18V1.2h-2.18Zm1.32,5.34h5.1v2.08h-5.1Zm1.54-8.6,2.6.38q-.32,1.02-.69,2.02t-.67,1.7l-1.92-.44q.14-.52.27-1.16t.25-1.3A11.527,11.527,0,0,0,191.62-17Zm7.32,3.1h5.86v2.2h-5.86Zm5.02,0h2.22v.68a3.023,3.023,0,0,1-.02.4q-.08,3.38-.19,5.73t-.26,3.88a19.56,19.56,0,0,1-.35,2.39,3.218,3.218,0,0,1-.52,1.26,2.288,2.288,0,0,1-.86.8,3.957,3.957,0,0,1-1.06.32,9.869,9.869,0,0,1-1.43.07q-.85-.01-1.73-.03a4.4,4.4,0,0,0-.24-1.17,5.134,5.134,0,0,0-.54-1.17q.96.08,1.79.1t1.21.02a1.44,1.44,0,0,0,.49-.07.955.955,0,0,0,.37-.27,2.245,2.245,0,0,0,.43-1.07,19.529,19.529,0,0,0,.29-2.29q.12-1.48.22-3.74t.18-5.38ZM199-16.98l2.32.54a29.008,29.008,0,0,1-.93,2.92,28.2,28.2,0,0,1-1.2,2.75,17.609,17.609,0,0,1-1.33,2.25,4.976,4.976,0,0,0-.57-.47q-.37-.27-.74-.53a5.255,5.255,0,0,0-.65-.4,13.614,13.614,0,0,0,1.25-1.99,19.481,19.481,0,0,0,1.06-2.44A25.747,25.747,0,0,0,199-16.98Zm-.98,8.86,1.88-1.06q.5.68,1.06,1.5t1.06,1.6q.5.78.82,1.38L200.8-3.46a15.278,15.278,0,0,0-.75-1.42q-.47-.8-1-1.65T198.02-8.12Zm20.24-5.86q.92.12,2.07.17t2.34.04q1.19-.01,2.29-.08t1.9-.15v2.58q-.92.08-2.02.13t-2.26.05q-1.16,0-2.27-.05t-2.05-.13Zm1.6,8.54q-.12.5-.18.89a5.189,5.189,0,0,0-.06.79,1.136,1.136,0,0,0,.16.59,1.312,1.312,0,0,0,.49.46,2.6,2.6,0,0,0,.86.28,7.858,7.858,0,0,0,1.29.09,23.054,23.054,0,0,0,2.52-.13q1.18-.13,2.5-.39l.04,2.7a21.355,21.355,0,0,1-2.21.28q-1.25.1-2.95.1a6.815,6.815,0,0,1-3.84-.87,2.77,2.77,0,0,1-1.26-2.41,8.561,8.561,0,0,1,.09-1.21q.09-.63.25-1.39Zm-4.68-9.88a5.681,5.681,0,0,0-.18.56q-.1.36-.19.7t-.13.52q-.06.42-.19,1.09t-.26,1.5q-.13.83-.25,1.69t-.19,1.66q-.07.8-.07,1.4,0,.28.01.64a3.931,3.931,0,0,0,.07.66q.14-.34.3-.68t.32-.69q.16-.35.28-.67l1.24.98q-.28.82-.57,1.76t-.52,1.77q-.23.83-.35,1.37-.04.22-.07.5a4.384,4.384,0,0,0-.03.44q0,.16.01.39t.03.43l-2.32.16a20.594,20.594,0,0,1-.54-2.77,27.517,27.517,0,0,1-.24-3.77q0-1.12.1-2.28t.24-2.23q.14-1.07.27-1.95t.23-1.46q.04-.42.11-.95t.09-1.01Zm22.7,7.86a11.3,11.3,0,0,0,4.8,4.68A22.224,22.224,0,0,0,250.74-.5a6.736,6.736,0,0,0-.55.69q-.29.41-.55.85t-.44.8A25.011,25.011,0,0,1,243.27.27a15.033,15.033,0,0,1-4.45-2.8,15.98,15.98,0,0,1-3.2-4.15Zm-4.22-2.18h12.82V-7.3H233.66Zm-.98-4.72h17.16v2.38H232.68Zm7.3-2.64h2.5v8.42h-2.5Zm5.74,7.36h.5l.42-.1,1.7.96a14.145,14.145,0,0,1-2.41,4.24,14.939,14.939,0,0,1-3.49,3.05A20.449,20.449,0,0,1,238.12.56a31.49,31.49,0,0,1-4.94,1.24,4.419,4.419,0,0,0-.33-.78q-.23-.44-.49-.86a4.505,4.505,0,0,0-.5-.68,34.021,34.021,0,0,0,4.74-.97,18.111,18.111,0,0,0,4.03-1.66,11.891,11.891,0,0,0,3.11-2.52,10.182,10.182,0,0,0,1.98-3.55Zm15.06-1.88h11.06v1.88H260.78Zm-.4,2.82h12.06v1.94H260.38Zm2.6,2.74h6.74v1.72h-6.74Zm-1.7-7.72,1.82-.5q.24.54.5,1.21t.4,1.11l-1.92.62q-.12-.48-.35-1.17T261.28-13.68Zm3.48-.34,1.86-.34q.18.6.33,1.29t.21,1.15l-1.98.44q-.04-.48-.16-1.21T264.76-14.02Zm5.76-2.88,1.34,1.76q-1.12.24-2.47.41t-2.79.29q-1.44.12-2.89.19t-2.79.09a4.872,4.872,0,0,0-.2-.9,7.973,7.973,0,0,0-.32-.88q1.32-.06,2.71-.13t2.73-.19q1.34-.12,2.55-.28T270.52-16.9ZM264.96-4.64a7.2,7.2,0,0,0,1.83,2.08,10.717,10.717,0,0,0,2.7,1.51,16.416,16.416,0,0,0,3.43.91,5.051,5.051,0,0,0-.78.93q-.4.59-.64,1.03a13.665,13.665,0,0,1-5.1-2.1,10.973,10.973,0,0,1-3.38-3.78Zm4.42-10.08,2.2.64q-.54.9-1.14,1.82t-1.08,1.54l-1.68-.58a11.3,11.3,0,0,0,.63-1.08q.31-.6.59-1.22T269.38-14.72Zm-.14,8.76h.44l.4-.06,1.3.52a9.949,9.949,0,0,1-1.73,3.6A9.287,9.287,0,0,1,266.94.45a14.217,14.217,0,0,1-3.48,1.39,4.967,4.967,0,0,0-.34-.6q-.22-.34-.48-.67a4.175,4.175,0,0,0-.46-.51,13.629,13.629,0,0,0,3.22-1.08,7.673,7.673,0,0,0,2.41-1.83,6.8,6.8,0,0,0,1.43-2.81Zm-6.06-4.36h2.3q-.08,1.26-.25,2.6a24.212,24.212,0,0,1-.49,2.66,14.03,14.03,0,0,1-.89,2.56,10.594,10.594,0,0,1-1.46,2.32,9.459,9.459,0,0,1-2.19,1.92,5.436,5.436,0,0,0-.68-.91,5.721,5.721,0,0,0-.88-.81,7.955,7.955,0,0,0,1.97-1.66,8.565,8.565,0,0,0,1.27-2.01,11.3,11.3,0,0,0,.73-2.21,22.587,22.587,0,0,0,.38-2.28Q263.12-9.28,263.18-10.32Zm-9.4,4.04q1.2-.28,2.87-.72t3.37-.92l.3,2.18-3.2.93q-1.62.47-2.98.87Zm.26-6.92h6.12V-11h-6.12Zm2.1-3.78h2.2V-.74a4.106,4.106,0,0,1-.17,1.31,1.429,1.429,0,0,1-.63.77,2.829,2.829,0,0,1-1.11.38,10.224,10.224,0,0,1-1.67.08,6.4,6.4,0,0,0-.22-1.09,7.592,7.592,0,0,0-.4-1.13q.56.02,1.03.03a5.833,5.833,0,0,0,.65-.01.35.35,0,0,0,.25-.07.386.386,0,0,0,.07-.27Z" transform="translate(960 2258)" fill="#ffe632"/></g></svg>