<svg data-name="グループ 7325" xmlns="http://www.w3.org/2000/svg" width="19.587" height="18.88"><defs><clipPath id="a"><path data-name="長方形 4525" fill="none" d="M0 0h19.587v18.88H0z"/></clipPath></defs><g data-name="グループ 7324" clip-path="url(#a)"><path data-name="パス 13914" d="M9.116 18.878a9.283 9.283 0 1 1 3.732-17.855 1.083 1.083 0 1 1-.831 2 7.12 7.12 0 1 0 4.385 6.7 7.173 7.173 0 0 0-.094-1.3 1.082 1.082 0 0 1 2.136-.352 9.292 9.292 0 0 1-9.327 10.8" fill="#283042"/><path data-name="パス 13915" d="M14.663 4.008 9.61 9.85 6.788 6.221c-.61-.993-2.919.807-2.522 1.824l3.671 5.308c.977 1.467 2.349 1.156 3.153-.073 0 0 8.83-12.829 8.486-13.1-.849-.675-1.943.568-4.914 3.831" fill="#e84830"/></g></svg>