<svg xmlns="http://www.w3.org/2000/svg" xmlns:xlink="http://www.w3.org/1999/xlink" width="840" height="118" viewBox="0 0 840 118"><defs><clipPath id="a"><rect width="67.866" height="45" fill="#e84830"/></clipPath></defs><g transform="translate(-540 -6829)"><g transform="translate(22 1536)"><path d="M-146.412-11.124h4.5V3.2h-4.5Zm-13.824,2.3h32.544v4.14h-32.544Zm13.824-21.744h4.5v5.8h-4.5Zm-12.816,4.176h30.492v4.068h-30.492Zm6.84,3.888,4.392.972a26.372,26.372,0,0,1-3.528,6.93,22.392,22.392,0,0,1-5,5.13,8.838,8.838,0,0,0-1.008-.99q-.648-.558-1.332-1.08a13.6,13.6,0,0,0-1.224-.846,17.233,17.233,0,0,0,4.716-4.3A18.451,18.451,0,0,0-152.388-22.5Zm13.824.072,4.356.9a21.181,21.181,0,0,1-3.528,6.606,20.8,20.8,0,0,1-5.148,4.7,8.52,8.52,0,0,0-.99-.972q-.63-.54-1.3-1.1a8.346,8.346,0,0,0-1.17-.846,15.935,15.935,0,0,0,4.824-3.87A15.387,15.387,0,0,0-138.564-22.428Zm-14.076,6.12,2.448-2.736q.828.468,1.8,1.134t1.854,1.314a12.5,12.5,0,0,1,1.422,1.188l-2.556,3.024q-.54-.54-1.386-1.242t-1.8-1.422Q-151.812-15.768-152.64-16.308Zm13,.4,2.844-2.88q1.3.792,2.862,1.836t3.006,2.088a22.444,22.444,0,0,1,2.34,1.908l-3.024,3.276a23.749,23.749,0,0,0-2.214-1.98q-1.386-1.116-2.934-2.214T-139.644-15.912Zm15.66,7.344h32.112V-5h-32.112Zm.108-16.128h31.9v3.528h-31.9Zm1.476,6.444h29.016v3.384H-122.4Zm1.764,4.968h25.6v3.132h-25.6Zm10.44-3.276h4.284V3.24H-110.2Zm-3.132-14.076h4.032V-23h-4.032Zm6.7,0h4.068v7.38h-4.068Zm-4.356,23.652,3.42,1.548a21.835,21.835,0,0,1-4.086,3.474,33.489,33.489,0,0,1-5.13,2.808,39.257,39.257,0,0,1-5.508,1.962,10.371,10.371,0,0,0-.774-1.206q-.486-.666-1.008-1.314a10.078,10.078,0,0,0-.99-1.08,49.127,49.127,0,0,0,5.382-1.476,31.509,31.509,0,0,0,4.95-2.124A18.215,18.215,0,0,0-110.988-6.984Zm5.94-.108a15.525,15.525,0,0,0,2.664,2.034,24.365,24.365,0,0,0,3.4,1.728,33.459,33.459,0,0,0,3.924,1.35,35.729,35.729,0,0,0,4.194.9q-.5.5-1.062,1.17a15.2,15.2,0,0,0-1.044,1.4q-.486.738-.81,1.35a31.114,31.114,0,0,1-4.23-1.386,32.421,32.421,0,0,1-3.942-1.926A27.719,27.719,0,0,1-105.48-2.88,20.508,20.508,0,0,1-108.4-5.724Zm6.7-23.22,4.5,1.08q-.828,1.476-1.692,2.862t-1.584,2.358l-3.528-1.08q.432-.72.864-1.638t.81-1.872Q-98.6-29.556-98.352-30.312Zm-4.752,7.7,4.572,1.08q-.756,1.26-1.44,2.43t-1.224,2l-3.672-1.008q.468-1.008.972-2.25A22.5,22.5,0,0,0-103.1-22.608ZM-121.32-29.16l3.708-1.26a25.445,25.445,0,0,1,1.584,2.574,17.153,17.153,0,0,1,1.152,2.5l-3.888,1.44a13.35,13.35,0,0,0-1.044-2.556Q-120.564-27.936-121.32-29.16Zm4.572,8.064,4.212-.684a17.182,17.182,0,0,1,.918,1.71,12.326,12.326,0,0,1,.666,1.674l-4.392.756a15.8,15.8,0,0,0-.576-1.692A13.571,13.571,0,0,0-116.748-21.1Zm34.236-2.952h25.056v4.212H-82.512Zm-1.512,10.584H-58.86v4.176H-84.024Zm-4.14,11.448H-55.62V2.2H-88.164ZM-74.2-30.6h4.536V.036H-74.2Zm-8.316.468,4.464,1.008a46,46,0,0,1-1.872,5.472,47.633,47.633,0,0,1-2.412,5.022,28.245,28.245,0,0,1-2.7,4.05,10.812,10.812,0,0,0-1.134-.882q-.7-.486-1.458-.954t-1.3-.756a18.884,18.884,0,0,0,2.646-3.6,33.944,33.944,0,0,0,2.16-4.5A43.406,43.406,0,0,0-82.512-30.132ZM-51.768-14a63,63,0,0,0,8.8-2.934,52.362,52.362,0,0,0,6.93-3.51,39.277,39.277,0,0,0,3.762-2.646q1.89-1.494,3.564-3.078A30.2,30.2,0,0,0-25.884-29.2L-22-25.488q-1.656,1.62-3.618,3.276T-29.7-19.044q-2.124,1.512-4.212,2.772-2.052,1.188-4.59,2.448t-5.346,2.376q-2.808,1.116-5.652,1.98Zm14.976-4.14,5.112-1.188v16.2q0,.792.036,1.728t.108,1.746a8.587,8.587,0,0,0,.18,1.242h-5.688q.072-.432.126-1.242t.09-1.746q.036-.936.036-1.728ZM-9.324-27.36q.936.648,2.2,1.584t2.61,2.034q1.35,1.1,2.538,2.142A25.113,25.113,0,0,1-.036-19.728l-3.672,3.744q-.684-.756-1.8-1.8t-2.412-2.16q-1.3-1.116-2.556-2.124t-2.232-1.692Zm-4.5,23.976A38.126,38.126,0,0,0-8.532-4.5,36.9,36.9,0,0,0-3.924-6.156,41.9,41.9,0,0,0-.036-8.1,34.814,34.814,0,0,0,5.58-12.276a35.8,35.8,0,0,0,4.464-4.878,27.593,27.593,0,0,0,3.024-4.95l2.808,5.076A33.519,33.519,0,0,1,12.51-12.2a38.74,38.74,0,0,1-4.518,4.59A37.631,37.631,0,0,1,2.556-3.708,40.821,40.821,0,0,1-1.4-1.6,40.489,40.489,0,0,1-5.886.162,33.789,33.789,0,0,1-10.8,1.368ZM33.444-16.848q1.656.936,3.618,2.214t3.978,2.646q2.016,1.368,3.8,2.664t3.006,2.3l-3.42,4.068q-1.188-1.08-2.934-2.5T37.728-8.37q-2.016-1.494-3.978-2.862t-3.51-2.34Zm16.92-6.12a10.6,10.6,0,0,0-.648,1.188,10.776,10.776,0,0,0-.54,1.368,36.9,36.9,0,0,1-1.458,3.69,40.664,40.664,0,0,1-2.178,4.14A36.508,36.508,0,0,1,42.66-8.46a38.962,38.962,0,0,1-6.138,6.012,32.844,32.844,0,0,1-8.766,4.824L23.58-1.26A32.033,32.033,0,0,0,30.132-4,28.747,28.747,0,0,0,34.938-7.38a34.332,34.332,0,0,0,3.546-3.6,25.18,25.18,0,0,0,2.322-3.15,31.349,31.349,0,0,0,1.908-3.492,16.715,16.715,0,0,0,1.134-3.114H31.68l1.656-4.1H43.56a13.491,13.491,0,0,0,1.71-.108,8.43,8.43,0,0,0,1.422-.288Zm-11.88-5.544q-.648.936-1.278,2.016t-.954,1.656a39.62,39.62,0,0,1-3.1,4.59,47.617,47.617,0,0,1-4.194,4.734,36.672,36.672,0,0,1-4.914,4.1L20.16-14.4a31.281,31.281,0,0,0,5.382-4.158,34.029,34.029,0,0,0,3.69-4.212,39.731,39.731,0,0,0,2.376-3.618,11.92,11.92,0,0,0,.918-1.746,14.992,14.992,0,0,0,.738-2Zm42.084-.648q.468.648,1.008,1.548t1.026,1.8q.486.9.846,1.584L80.532-23q-.54-1.116-1.314-2.538a27.685,27.685,0,0,0-1.494-2.466Zm4.248-1.62q.5.684,1.044,1.584t1.062,1.782a15.282,15.282,0,0,1,.81,1.53L84.888-24.66q-.576-1.152-1.368-2.556a22.311,22.311,0,0,0-1.548-2.412ZM65.052-27.612a18.394,18.394,0,0,0-.216,1.908q-.072,1.08-.072,1.836v18.18A1.87,1.87,0,0,0,65.34-4.1,4.568,4.568,0,0,0,67.1-3.42q.828.108,1.908.162T71.28-3.2q1.4,0,3.114-.09t3.456-.234q1.746-.144,3.294-.4t2.664-.54V.792q-1.692.252-3.924.414t-4.554.252q-2.322.09-4.338.09-1.764,0-3.33-.108t-2.718-.288A6.846,6.846,0,0,1,61.308-.63a4.928,4.928,0,0,1-1.3-3.618v-19.62q0-.4-.036-1.08t-.09-1.4a10.507,10.507,0,0,0-.162-1.26ZM62.676-16.56q1.728-.36,3.672-.882t3.924-1.134q1.98-.612,3.762-1.242T77.22-21.06a20.68,20.68,0,0,0,1.926-.828q.954-.468,2-1.116l1.944,4.572q-1.044.4-2.178.882t-2.034.81q-1.584.612-3.618,1.3t-4.23,1.35q-2.2.666-4.338,1.242t-3.978,1.008Zm54.648-.612a3.819,3.819,0,0,0-.216.792q-.072.432-.144.72-.108.756-.306,2.088t-.432,2.934q-.234,1.6-.486,3.222t-.45,2.952q-.2,1.332-.342,2.124h-4.932q.144-.756.324-1.926t.414-2.556q.234-1.386.432-2.79t.342-2.592q.144-1.188.18-1.908h-9.72q-.864,0-1.854.054t-1.746.126v-4.752q.468.072,1.116.108l1.314.072q.666.036,1.134.036h9.216q.4,0,.936-.036a9.551,9.551,0,0,0,1.044-.126,1.63,1.63,0,0,0,.684-.234ZM95.076-4.1q.72.072,1.674.126t1.89.054H117.5q.684,0,1.764-.036t1.764-.108V.576q-.36-.036-.99-.054l-1.3-.036q-.666-.018-1.17-.018H98.64q-.936,0-1.728.018t-1.836.09Zm34.236-12.564,1.656.09q1.008.054,2.106.09t2.034.036H154.44q1.26,0,2.376-.09t1.836-.126v5.652l-1.836-.108q-1.224-.072-2.376-.072H135.108q-1.548,0-3.168.054t-2.628.126Z" transform="translate(769 5365)" fill="#333"/><g transform="translate(0 -3)"><rect width="310" height="50" rx="25" transform="translate(960 5328)" fill="#fff"/><path d="M25,2a23.007,23.007,0,0,0-8.952,44.193A22.855,22.855,0,0,0,25,48H285a23.007,23.007,0,0,0,8.952-44.193A22.854,22.854,0,0,0,285,2H25m0-2H285a25,25,0,0,1,0,50H25A25,25,0,0,1,25,0Z" transform="translate(960 5328)" fill="#333"/><path d="M-134.28-9.008h14.032v3.5h-1.872v-1.84h-10.352V-5.5h-1.808Zm2.32,2.9h8.432v1.776h-8.432Zm9.84-7.568,1.3,1.552q-1.36.256-2.936.456t-3.264.344q-1.688.144-3.384.24t-3.3.128a3.747,3.747,0,0,0-.152-.832,8.274,8.274,0,0,0-.264-.8q1.584-.048,3.24-.144t3.248-.232q1.592-.136,3-.32T-122.12-13.68Zm-10.592,3.024,1.664-.464a8.931,8.931,0,0,1,.552.96,5.373,5.373,0,0,1,.376.928l-1.776.512a4.689,4.689,0,0,0-.32-.944A10.738,10.738,0,0,0-132.712-10.656Zm4.224-.336,1.7-.384q.24.5.456,1.072a5.048,5.048,0,0,1,.28,1.008l-1.808.448a5.97,5.97,0,0,0-.232-1.04A11.406,11.406,0,0,0-128.488-10.992Zm5.072-.416,2.032.48q-.272.512-.56,1.008t-.576.936q-.288.44-.528.776l-1.584-.448q.224-.4.456-.872t.432-.968Q-123.544-10.992-123.416-11.408Zm-.816,5.3h.4l.336-.064,1.312.784a9.255,9.255,0,0,1-1.864,2.712A10.841,10.841,0,0,1-126.68-.752,16.789,16.789,0,0,1-129.9.528a25.79,25.79,0,0,1-3.624.752,4.391,4.391,0,0,0-.288-.568q-.192-.328-.416-.64a4.105,4.105,0,0,0-.416-.5,28.936,28.936,0,0,0,3.5-.576,15.356,15.356,0,0,0,3.024-1.016,8.9,8.9,0,0,0,2.352-1.56,6.43,6.43,0,0,0,1.536-2.208ZM-130.056-4.8a7.944,7.944,0,0,0,2.376,2.072,14.272,14.272,0,0,0,3.44,1.416,24.048,24.048,0,0,0,4.3.752,3.583,3.583,0,0,0-.432.544q-.224.336-.424.664a6.419,6.419,0,0,0-.328.6,22.46,22.46,0,0,1-4.384-.976A14,14,0,0,1-129.064-1.5a11.086,11.086,0,0,1-2.672-2.632Zm17.264-7.68h8.784v1.36h-8.784Zm-.416,4.016h9.488v1.456h-9.488Zm-.016,6.048h9.536v1.5h-9.536Zm1.632-1.952h6.4v1.2h-6.4Zm-.9-6.112h8.128v1.328h-8.128Zm1.376-3.12h1.712v5.776h-1.712Zm3.568,0h1.728v5.776h-1.728Zm-1.76,5.872h1.568v6.192H-109.3Zm3.072,1.3h1.728V-.256a2.343,2.343,0,0,1-.144.928,1.068,1.068,0,0,1-.544.512,2.99,2.99,0,0,1-1,.216q-.6.04-1.416.04a3.82,3.82,0,0,0-.16-.752,6.363,6.363,0,0,0-.272-.736q.464.016.92.024t.616.008a.362.362,0,0,0,.216-.072.253.253,0,0,0,.056-.184Zm-6.208,0h6.832V-5.1h-5.216V1.44h-1.616Zm-5.648-2.144h4.4V-7.12h-4.4Zm.08-4.512h4.256v1.44h-4.256Zm-.08,6.752h4.4V-4.88h-4.4Zm-.7-4.544h5.584v1.52h-5.584Zm1.6,6.816h3.568V.8h-3.568V-.72h1.968V-2.544h-1.968Zm-.944,0h1.584V1.424h-1.584Zm18.192-6.624h11.136v1.872H-99.944Zm-.672,4.7h11.184v1.856h-11.184ZM-102.456-.9h14.464V.976h-14.464Zm6.208-12.7h2.016V.016h-2.016Zm-3.7.208,1.984.448a20.444,20.444,0,0,1-.832,2.432A21.169,21.169,0,0,1-99.864-8.28a12.553,12.553,0,0,1-1.2,1.8,4.8,4.8,0,0,0-.5-.392q-.312-.216-.648-.424t-.576-.336a8.393,8.393,0,0,0,1.176-1.6,15.085,15.085,0,0,0,.96-2A19.292,19.292,0,0,0-99.944-13.392Zm22.128,2.432q-.16,1.216-.416,2.592a25.215,25.215,0,0,1-.688,2.784A14.3,14.3,0,0,1-80.008-2.8,6.1,6.1,0,0,1-81.376-1,2.457,2.457,0,0,1-83-.368a2.532,2.532,0,0,1-1.624-.6,4.1,4.1,0,0,1-1.184-1.656,6.191,6.191,0,0,1-.44-2.4,6.267,6.267,0,0,1,.56-2.624,6.981,6.981,0,0,1,1.56-2.184,7.4,7.4,0,0,1,2.336-1.5,7.585,7.585,0,0,1,2.888-.544,7.12,7.12,0,0,1,2.68.48,6.032,6.032,0,0,1,2.04,1.328,5.764,5.764,0,0,1,1.3,1.984,6.613,6.613,0,0,1,.448,2.448,6.442,6.442,0,0,1-.688,3.008,5.687,5.687,0,0,1-2.04,2.192A8.747,8.747,0,0,1-78.536.752l-1.2-1.9q.464-.048.816-.112t.672-.144a6.089,6.089,0,0,0,1.432-.552,4.469,4.469,0,0,0,1.16-.9,3.92,3.92,0,0,0,.776-1.256A4.335,4.335,0,0,0-74.6-5.7a4.978,4.978,0,0,0-.288-1.728,3.89,3.89,0,0,0-.848-1.368,3.736,3.736,0,0,0-1.36-.9A5.04,5.04,0,0,0-78.936-10a5.275,5.275,0,0,0-2.256.456A5.281,5.281,0,0,0-82.84-8.368a5.163,5.163,0,0,0-1.016,1.552A4.147,4.147,0,0,0-84.2-5.232,4,4,0,0,0-84.008-3.9a2.022,2.022,0,0,0,.472.8.864.864,0,0,0,.6.264.935.935,0,0,0,.664-.344,3.838,3.838,0,0,0,.648-1.048A14.178,14.178,0,0,0-80.984-6a21.854,21.854,0,0,0,.624-2.464,25.078,25.078,0,0,0,.368-2.56Zm7.5-1.424h14.048v1.616H-70.312Zm1.04,2.608H-57v1.6H-69.272ZM-67.8-4.048h9.248v1.616H-67.8Zm.032-3.232h10.544v5.712H-59.16v-4.16h-8.608Zm-1.248,0h1.9v2a15.686,15.686,0,0,1-.1,1.664A11.235,11.235,0,0,1-67.56-1.8a8.5,8.5,0,0,1-.72,1.776,6.054,6.054,0,0,1-1.2,1.544,3.681,3.681,0,0,0-.416-.448q-.272-.256-.568-.5a4.994,4.994,0,0,0-.5-.368,5.106,5.106,0,0,0,1.3-1.776,7.211,7.211,0,0,0,.536-1.944,14.58,14.58,0,0,0,.12-1.784Zm4.736-6.32h1.936v4.672H-64.28Zm.048,6.848h1.872V-3.04h-1.872Zm15.216-3.072q.688.064,1.384.1t1.416.04q1.472,0,2.928-.128a21.046,21.046,0,0,0,2.688-.4v2q-1.248.176-2.7.28t-2.912.1q-.7,0-1.4-.024t-1.4-.072Zm6.08-2.7q-.032.224-.056.5t-.04.544q-.016.256-.032.688t-.016.968V-8.7q0,1.088.032,2.04t.08,1.76l.088,1.48q.04.672.04,1.248a3.782,3.782,0,0,1-.168,1.152,2.45,2.45,0,0,1-.536.928,2.384,2.384,0,0,1-.968.616,4.347,4.347,0,0,1-1.464.216A4.508,4.508,0,0,1-48.6.064a2.218,2.218,0,0,1-.96-1.936A2.431,2.431,0,0,1-49.128-3.3a2.818,2.818,0,0,1,1.232-.96,4.754,4.754,0,0,1,1.888-.344,8.244,8.244,0,0,1,2.064.24,7.989,7.989,0,0,1,1.7.64,8.724,8.724,0,0,1,1.368.872q.6.472,1.08.9l-1.1,1.68A17.517,17.517,0,0,0-42.68-1.76a7.856,7.856,0,0,0-1.72-.96,4.8,4.8,0,0,0-1.768-.336,2.1,2.1,0,0,0-1.1.256.8.8,0,0,0-.424.72.742.742,0,0,0,.432.7,2.273,2.273,0,0,0,1.056.224,1.556,1.556,0,0,0,.784-.168.92.92,0,0,0,.408-.5,2.313,2.313,0,0,0,.12-.792q0-.416-.032-1.088t-.072-1.5q-.04-.832-.072-1.736T-45.1-8.7q0-.912-.008-1.656t-.008-1.112q0-.176-.032-.5t-.08-.56Zm-7.808.176q-.048.16-.136.448t-.144.56q-.056.272-.088.416-.08.336-.176.9t-.2,1.28q-.1.712-.2,1.456t-.144,1.408q-.048.664-.048,1.144,0,.24.008.52a3.106,3.106,0,0,0,.056.52q.112-.288.232-.56t.248-.544q.128-.272.24-.544l.976.8q-.224.656-.456,1.376t-.416,1.36q-.184.64-.28,1.072-.032.16-.056.384a3.586,3.586,0,0,0-.024.368q0,.128.008.312t.024.344l-1.808.144a15.351,15.351,0,0,1-.448-2.168A20.629,20.629,0,0,1-53.768-4.3q0-.9.08-1.88t.184-1.9q.1-.912.216-1.672t.176-1.224q.048-.336.1-.76t.064-.808Zm21.712-1.28h5.312V-11.9h-3.408v8.5h-1.9ZM-21.688,0l.416-3.472h-1.376V-5.008H-21.1l.272-2.192H-22.28V-8.72h1.648l.384-3.088h1.376L-19.24-8.72h2.016l.4-3.088h1.376l-.368,3.088h1.44V-7.2h-1.632l-.272,2.192h1.536v1.536h-1.728L-16.872,0H-18.28l.416-3.472H-19.88L-20.3,0ZM-19.7-5.008h2.016l.272-2.192h-2.016ZM-12.568,0V-8.96h1.92l.176,1.2h.048a6.97,6.97,0,0,1,1.216-1,2.767,2.767,0,0,1,1.536-.424,2.645,2.645,0,0,1,1.544.408,2.626,2.626,0,0,1,.9,1.16A8.349,8.349,0,0,1-3.9-8.728,2.708,2.708,0,0,1-2.36-9.184a2.385,2.385,0,0,1,2.1.952A4.574,4.574,0,0,1,.408-5.584V0H-1.928V-5.3a2.57,2.57,0,0,0-.3-1.456,1.091,1.091,0,0,0-.944-.416,1.607,1.607,0,0,0-.808.248,4.5,4.5,0,0,0-.92.76V0H-7.256V-5.3a2.57,2.57,0,0,0-.3-1.456A1.091,1.091,0,0,0-8.5-7.168a1.67,1.67,0,0,0-.808.248,3.737,3.737,0,0,0-.9.76V0ZM6.76.224A4.566,4.566,0,0,1,4.5-.336,4.145,4.145,0,0,1,2.9-1.952,5.037,5.037,0,0,1,2.3-4.48,5.24,5.24,0,0,1,2.64-6.432a4.454,4.454,0,0,1,.944-1.48,4.274,4.274,0,0,1,1.344-.944,3.788,3.788,0,0,1,1.544-.328,3.654,3.654,0,0,1,2.064.552,3.426,3.426,0,0,1,1.256,1.52A5.475,5.475,0,0,1,10.216-4.9a5.732,5.732,0,0,1-.032.616,3.156,3.156,0,0,1-.08.472H4.584a2.8,2.8,0,0,0,.432,1.216,2.114,2.114,0,0,0,.864.744,2.79,2.79,0,0,0,1.2.248A3.373,3.373,0,0,0,8.1-1.752a4.442,4.442,0,0,0,.976-.456l.8,1.44a5.9,5.9,0,0,1-1.472.72A5.181,5.181,0,0,1,6.76.224ZM4.536-5.392H8.2a2.306,2.306,0,0,0-.408-1.432A1.515,1.515,0,0,0,6.5-7.36a1.883,1.883,0,0,0-.88.216,1.873,1.873,0,0,0-.7.656A2.691,2.691,0,0,0,4.536-5.392ZM12.152,0V-8.96h1.92l.176,1.584H14.3A3.946,3.946,0,0,1,15.464-8.72a2.4,2.4,0,0,1,1.376-.464,2.722,2.722,0,0,1,.616.056,2.828,2.828,0,0,1,.424.136L17.5-6.96q-.256-.064-.456-.1a2.637,2.637,0,0,0-.5-.04,1.9,1.9,0,0,0-1.08.4,2.947,2.947,0,0,0-.952,1.36V0ZM22.68.224a4.444,4.444,0,0,1-2.224-.56,4.029,4.029,0,0,1-1.568-1.608,5.2,5.2,0,0,1-.576-2.536,4.823,4.823,0,0,1,.632-2.536,4.3,4.3,0,0,1,1.68-1.608,4.73,4.73,0,0,1,2.264-.56,3.642,3.642,0,0,1,1.472.28,4.18,4.18,0,0,1,1.136.728l-1.12,1.488a2.4,2.4,0,0,0-.656-.432,1.769,1.769,0,0,0-.7-.144,2.139,2.139,0,0,0-1.208.344,2.214,2.214,0,0,0-.8.968,3.571,3.571,0,0,0-.28,1.472,3.571,3.571,0,0,0,.28,1.472,2.257,2.257,0,0,0,.784.968,1.982,1.982,0,0,0,1.144.344,2.18,2.18,0,0,0,.928-.208,3.762,3.762,0,0,0,.816-.512l.928,1.552a4.179,4.179,0,0,1-1.416.824A4.681,4.681,0,0,1,22.68.224Zm7.968,0a4.566,4.566,0,0,1-2.256-.56,4.145,4.145,0,0,1-1.608-1.616,5.037,5.037,0,0,1-.6-2.528,5.24,5.24,0,0,1,.344-1.952,4.454,4.454,0,0,1,.944-1.48,4.274,4.274,0,0,1,1.344-.944,3.788,3.788,0,0,1,1.544-.328,3.654,3.654,0,0,1,2.064.552,3.426,3.426,0,0,1,1.256,1.52A5.475,5.475,0,0,1,34.1-4.9a5.731,5.731,0,0,1-.032.616,3.157,3.157,0,0,1-.08.472h-5.52A2.8,2.8,0,0,0,28.9-2.592a2.114,2.114,0,0,0,.864.744,2.79,2.79,0,0,0,1.2.248,3.373,3.373,0,0,0,1.024-.152,4.442,4.442,0,0,0,.976-.456l.8,1.44a5.9,5.9,0,0,1-1.472.72A5.181,5.181,0,0,1,30.648.224ZM28.424-5.392h3.664a2.306,2.306,0,0,0-.408-1.432,1.515,1.515,0,0,0-1.288-.536,1.883,1.883,0,0,0-.88.216,1.873,1.873,0,0,0-.7.656A2.691,2.691,0,0,0,28.424-5.392ZM39.192.224a3.375,3.375,0,0,1-1.944-.56,3.582,3.582,0,0,1-1.272-1.616,6.453,6.453,0,0,1-.448-2.528,5.439,5.439,0,0,1,.536-2.5,4.2,4.2,0,0,1,1.4-1.624,3.235,3.235,0,0,1,1.824-.576,2.787,2.787,0,0,1,1.272.264,4.371,4.371,0,0,1,1,.712l-.08-1.408v-3.152h2.352V0h-1.92l-.176-.928h-.064a4.892,4.892,0,0,1-1.136.816A2.853,2.853,0,0,1,39.192.224ZM39.8-1.712a1.869,1.869,0,0,0,.888-.216,2.541,2.541,0,0,0,.792-.712V-6.576a2.447,2.447,0,0,0-.824-.52,2.52,2.52,0,0,0-.856-.152,1.521,1.521,0,0,0-.92.312,2.135,2.135,0,0,0-.68.92,3.884,3.884,0,0,0-.256,1.5A4.8,4.8,0,0,0,38.16-2.96a1.909,1.909,0,0,0,.632.936A1.632,1.632,0,0,0,39.8-1.712ZM49.016.224A2.382,2.382,0,0,1,46.9-.728a4.617,4.617,0,0,1-.656-2.648V-8.96h2.336v5.3a2.57,2.57,0,0,0,.3,1.456,1.127,1.127,0,0,0,.976.416,1.713,1.713,0,0,0,.952-.264,3.583,3.583,0,0,0,.856-.856V-8.96h2.352V0H52.1l-.176-1.3h-.064a5.221,5.221,0,0,1-1.248,1.1A2.979,2.979,0,0,1,49.016.224ZM61.032,1.472H55.72V-.256h3.408v-8.5h1.9ZM72.376-10.976q.48-.016.912-.04t.656-.04q.5-.032,1.224-.1t1.632-.152q.9-.08,1.928-.16t2.128-.176q.832-.08,1.656-.136t1.568-.1q.744-.04,1.3-.056L85.4-9.888q-.432,0-.992.016T83.3-9.816a5.535,5.535,0,0,0-.984.152,4.017,4.017,0,0,0-1.344.648,5.021,5.021,0,0,0-1.08,1.072,5.15,5.15,0,0,0-.712,1.328,4.206,4.206,0,0,0-.256,1.432A3.239,3.239,0,0,0,79.2-3.8a3.046,3.046,0,0,0,.768,1.024,4.306,4.306,0,0,0,1.144.7,6.84,6.84,0,0,0,1.416.424,12.358,12.358,0,0,0,1.576.192L83.352.736a9.958,9.958,0,0,1-1.96-.32,8.287,8.287,0,0,1-1.784-.7,5.725,5.725,0,0,1-1.448-1.1,5,5,0,0,1-.976-1.488,4.727,4.727,0,0,1-.36-1.88,5.92,5.92,0,0,1,.368-2.12,6.768,6.768,0,0,1,.92-1.7,5.546,5.546,0,0,1,1.1-1.128q-.448.064-1.08.128t-1.36.152q-.728.088-1.48.184t-1.448.216q-.7.12-1.256.232ZM83.112-8.32q.208.288.44.68t.456.784q.224.392.384.712L83.176-5.6q-.3-.672-.584-1.184a9.632,9.632,0,0,0-.664-1.04ZM84.9-9.056q.208.288.456.664t.488.768q.24.392.4.7l-1.2.576q-.32-.64-.616-1.136a11.264,11.264,0,0,0-.7-1.024Zm3.088-1.232h5.216v1.776H87.992ZM89.96-13.6h1.776V1.424H89.96Zm0,4.544,1.088.352q-.176.96-.432,1.984t-.584,2.008A19.035,19.035,0,0,1,89.32-2.88,9.4,9.4,0,0,1,88.5-1.408a5.87,5.87,0,0,0-.392-.88q-.264-.5-.488-.832a7.854,7.854,0,0,0,.752-1.232q.352-.7.664-1.5t.544-1.624Q89.816-8.3,89.96-9.056Zm1.7,1.2q.128.16.4.552t.576.84q.3.448.56.84t.352.552l-.992,1.488q-.128-.352-.336-.824t-.456-.976q-.248-.5-.48-.944L90.9-7.04ZM94.984-9.9h5.84v1.568h-5.84Zm2.864-2.016a8.946,8.946,0,0,1-1.1,1.3A12.782,12.782,0,0,1,95.3-9.368a11.106,11.106,0,0,1-1.624,1,6.02,6.02,0,0,0-.416-.832,8.929,8.929,0,0,0-.5-.768,8.828,8.828,0,0,0,1.656-.968,10.673,10.673,0,0,0,1.44-1.272,8.629,8.629,0,0,0,1.064-1.36h1.744a10.8,10.8,0,0,0,1.272,1.448,11.009,11.009,0,0,0,1.52,1.216,8.468,8.468,0,0,0,1.64.856,7.614,7.614,0,0,0-.528.808q-.272.472-.464.872a11.445,11.445,0,0,1-1.576-.968,13.794,13.794,0,0,1-1.5-1.256A10.411,10.411,0,0,1,97.848-11.92ZM95.4-5.84v1.5h5.008v-1.5ZM93.736-7.312h8.4v4.448h-8.4Zm3.248-1.6h1.728v4.1a8.928,8.928,0,0,1-.184,1.784,5.3,5.3,0,0,1-.712,1.752A5.684,5.684,0,0,1,96.3.288,9.2,9.2,0,0,1,93.72,1.52a2.474,2.474,0,0,0-.264-.48Q93.272.768,93.064.5A3.339,3.339,0,0,0,92.7.1a9.782,9.782,0,0,0,2.32-1.024A4.193,4.193,0,0,0,96.3-2.136a3.844,3.844,0,0,0,.552-1.336,7.244,7.244,0,0,0,.136-1.408ZM98.84-3.824A7.6,7.6,0,0,0,99.96-1.9a4.7,4.7,0,0,0,1.368,1.128A8.907,8.907,0,0,0,103-.1a4,4,0,0,0-.648.728,3.8,3.8,0,0,0-.472.872A9.63,9.63,0,0,1,100,.528,6.163,6.163,0,0,1,98.456-1a9.963,9.963,0,0,1-1.232-2.472Zm11.424.9h1.92V1.44h-1.92ZM110.248-13.6h1.9v4.624h-1.9Zm-.416,4.912,1.744.816q-.72.64-1.5,1.248t-1.44,1.04l-1.36-.736a10.64,10.64,0,0,0,.9-.72q.472-.416.912-.848A10.621,10.621,0,0,0,109.832-8.688Zm3.456,1.008L115-6.752q-.976.752-2.128,1.5t-2.3,1.432q-1.152.68-2.16,1.192l-1.264-.88q.752-.384,1.592-.888T110.4-5.456q.824-.56,1.568-1.128T113.288-7.68ZM105.88-6l1.248-1.088q.576.288,1.224.656t1.248.76a8.923,8.923,0,0,1,.984.728l-1.328,1.2a8.706,8.706,0,0,0-.92-.744q-.568-.408-1.216-.808T105.88-6Zm7.488,1.248,1.264-.96q.64.384,1.36.888t1.384,1.016a9.779,9.779,0,0,1,1.064.928l-1.344,1.1a11.5,11.5,0,0,0-1.008-.944q-.624-.528-1.336-1.064T113.368-4.752ZM113.1-1.3l1.472-.944q.624.32,1.36.744t1.424.872a12.948,12.948,0,0,1,1.136.816L116.9,1.28a9.011,9.011,0,0,0-1.032-.824q-.648-.456-1.384-.92T113.1-1.3Zm-8.848-2.576q1.136,0,2.568-.008L109.88-3.9q1.632-.008,3.368-.04t3.448-.048l-.1,1.456q-2.192.08-4.424.152t-4.24.128q-2.008.056-3.592.088Zm3.28,1.68,1.808.688a10.346,10.346,0,0,1-1.192,1.072,15.156,15.156,0,0,1-1.416.976q-.736.448-1.408.784a5.3,5.3,0,0,0-.432-.448q-.272-.256-.552-.5t-.488-.408a12.462,12.462,0,0,0,2.032-.952A8.351,8.351,0,0,0,107.528-2.192Zm-3.088-10.16h13.632V-10.7H104.44Zm-.144,2.64H118.28v3.328h-1.9V-8.112H106.12v1.728H104.3Zm22.16,5.6-.432-5.472-.08-2.384H128.6l-.08,2.384-.432,5.472Zm.816,4.256a1.367,1.367,0,0,1-1.008-.4,1.367,1.367,0,0,1-.4-1.008,1.387,1.387,0,0,1,.4-1.024,1.367,1.367,0,0,1,1.008-.4,1.367,1.367,0,0,1,1.008.4,1.386,1.386,0,0,1,.4,1.024,1.367,1.367,0,0,1-.4,1.008A1.367,1.367,0,0,1,127.272.144Z" transform="translate(1117 5358)" fill="#333"/></g></g><g transform="translate(540 6829)"><g transform="translate(0 0)"><g clip-path="url(#a)"><path d="M4.67,40.329A15.946,15.946,0,1,0,27.221,17.777,15.81,15.81,0,0,0,23.129,14.9L27.423,0H22.449L4.67,17.777a15.947,15.947,0,0,0,0,22.552" transform="translate(35.975 0.001)" fill="#e84830"/><path d="M35.393,40.329A15.946,15.946,0,1,0,57.944,17.777,15.771,15.771,0,0,0,53.852,14.9L58.147,0H53.172L35.393,17.777a15.947,15.947,0,0,0,0,22.552" transform="translate(-30.723 0.001)" fill="#e84830"/></g></g></g><g transform="translate(1312.134 6902)"><g transform="translate(0 0)"><g clip-path="url(#a)"><path d="M27.221,4.67A15.946,15.946,0,0,0,4.67,27.221,15.81,15.81,0,0,0,8.762,30.1L4.468,45H9.443L27.221,27.221a15.947,15.947,0,0,0,0-22.551" transform="translate(0 0)" fill="#e84830"/><path d="M57.944,4.67A15.946,15.946,0,1,0,35.393,27.221,15.771,15.771,0,0,0,39.485,30.1L35.19,45h4.975L57.944,27.221a15.947,15.947,0,0,0,0-22.551" transform="translate(5.252 0)" fill="#e84830"/></g></g></g></g></svg>