<svg xmlns="http://www.w3.org/2000/svg" width="272.06" height="73.601"><g data-name="グループ 7347"><g data-name="グループ 7230"><g data-name="グループ 7228" fill="#e84830"><path data-name="パス 13942" d="M51.349 50.321h10.336V.477h-7.14L40.469 4.693l2.176 8.568 8.7-2.176Zm27.948 0h10.336V.477h-7.136l-14.08 4.216 2.18 8.568 8.7-2.176Zm18.224 11.22c8.16-.2 12.648-3.876 12.648-12.92v-9.316H99.153v11.016h4.216c.34 3.944-1.972 6.392-6.732 6.936Zm24.82-11.22h10.336V.477h-7.14l-14.076 4.216 2.176 8.568 8.7-2.176Zm39.3.816c10.676 0 18.768-6.936 18.768-17v-.2c0-10.2-7.548-15.708-17.34-15.708a16 16 0 0 0-10.54 3.672h-.068c.34-4.76 2.584-12.444 10.4-12.444 4.216 0 6.936 1.5 10.2 4.08l5.508-8.092a22.637 22.637 0 0 0-15.368-5.44c-14.62 0-21.624 11.7-21.624 27v.136c0 9.86 2.244 15.1 5.848 18.768 3.472 3.392 7.896 5.228 14.22 5.228Zm-.408-8.908c-5.508 0-8.908-3.332-8.908-7.684v-.136c0-4.284 3.264-7.48 8.772-7.48 5.576 0 8.908 3.2 8.908 7.48v.2c.004 4.356-3.192 7.62-8.768 7.62Zm26.932 8.092h11.832l22.168-41.616V.821h-35.428v9.044h23.6Z"/><path data-name="パス 13943" d="M238.292 38.157v-6.048h6v6.048Zm-8.5-6.048h5.664v6.048h-5.664Zm17.376-2.832h-20.252v20.88h2.88v-9.164h14.5v5.8c0 .408-.168.552-.624.576-.48 0-2.04.024-3.408-.072a11.665 11.665 0 0 1 1.028 2.86c2.136 0 3.576-.048 4.536-.528 1.008-.456 1.344-1.248 1.344-2.808Zm12.7 10.728a7.262 7.262 0 0 0 5.664 2.64c2.568 0 4.92-1.44 6.528-4.416l-2.64-1.44c-.912 1.7-2.28 2.88-3.816 2.88a4.391 4.391 0 0 1-3.576-1.728 7.262 7.262 0 0 0-5.664-2.64c-2.568 0-4.92 1.44-6.528 4.416l2.64 1.44c.912-1.7 2.28-2.88 3.816-2.88a4.425 4.425 0 0 1 3.576 1.728Z"/><path data-name="パス 13944" d="M225.127 18.191a6.59 6.59 0 0 0 1.97 4.8l.95-.42a6.213 6.213 0 0 1-1.79-4.38 6.213 6.213 0 0 1 1.79-4.38l-.95-.42a6.59 6.59 0 0 0-1.97 4.8Zm7.67.84c-.19-.22-1.01-1.09-1.28-1.31v-.29h1.07v-1.11h-1.07v-1.41a10.427 10.427 0 0 0 1.19-.38l-.79-.91a14.3 14.3 0 0 1-3.1.83 4.122 4.122 0 0 1 .33.91c.39-.05.8-.12 1.22-.2v1.16h-1.43v1.11h1.27a9.772 9.772 0 0 1-1.48 2.68 5.9 5.9 0 0 1 .55 1.13 8.887 8.887 0 0 0 1.09-1.98v3.59h1.15v-3.9a8.762 8.762 0 0 1 .6 1.01Zm3.74-1.13h-2.47v-1.36h2.47Zm.21 3.76c-.13 0-.15-.03-.15-.33v-2.39h1.13v-3.43h-.92c.29-.42.65-1.02.98-1.6l-1.22-.39a10.745 10.745 0 0 1-.82 1.71l.78.28h-2.35l.64-.28a7.679 7.679 0 0 0-.91-1.7l-.98.43a9 9 0 0 1 .78 1.55h-.77v3.43h.8c-.11 1.31-.39 2.38-1.88 2.99a3.451 3.451 0 0 1 .69.94c1.8-.81 2.22-2.21 2.36-3.93h.55v2.4c0 1.04.19 1.39 1.08 1.39h.66c.72 0 .99-.38 1.09-1.81a3.087 3.087 0 0 1-1.01-.45c-.02 1.04-.06 1.19-.21 1.19Zm3.69-6.63h1.88v1.37h-1.88Zm1.02 3.25.06-.82h1.95v-3.48h-4.11v3.48h1c-.08 1.66-.28 3.46-1.59 4.54a3.124 3.124 0 0 1 .79.87 5.673 5.673 0 0 0 1.76-3.55h1.11a6.112 6.112 0 0 1-.31 2.39.36.36 0 0 1-.33.13 8.057 8.057 0 0 1-.98-.05 2.439 2.439 0 0 1 .3 1.03 7.379 7.379 0 0 0 1.21-.03 1.046 1.046 0 0 0 .75-.37c.27-.34.38-1.3.48-3.71 0-.14.01-.43.01-.43Zm3.92-3.55h-1.16v5.63h1.16Zm1.19-1.01v7.7c0 .18-.08.24-.27.24-.21 0-.85 0-1.5-.02a4.345 4.345 0 0 1 .41 1.23 5.312 5.312 0 0 0 1.99-.23c.41-.19.55-.52.55-1.22v-7.7Zm5.3 4.47a6.59 6.59 0 0 0-1.97-4.8l-.95.42a6.213 6.213 0 0 1 1.79 4.38 6.213 6.213 0 0 1-1.79 4.38l.95.42a6.59 6.59 0 0 0 1.97-4.8Z"/><path data-name="パス 13945" d="M5.344 40.778c.076-.8.114-1.6.133-2.318h7.619v2.318Zm7.747-6.787v2.318H5.472v-2.318Zm2.394-2.2H3.135v6.251c0 2.888-.266 6.517-3.135 8.968a8.924 8.924 0 0 1 1.744 1.634 10.22 10.22 0 0 0 3.211-5.681h8.132v2.755c0 .4-.152.551-.608.551-.418 0-2.014.019-3.344-.057a9.7 9.7 0 0 1 .954 2.379 11.494 11.494 0 0 0 4.2-.437c.874-.38 1.2-1.026 1.2-2.394Zm18.6 5.909h-3.761v-1.159h3.762Zm0 2.717h-3.761v-1.159h3.762Zm0 2.774h-3.761v-1.178h3.762Zm-5.8-8.341v10.013h7.929V34.85h-3.363c.152-.4.3-.836.456-1.292h3.287v-1.919h-8.873v1.919h3.192c-.076.418-.152.874-.228 1.292Zm-7.041-.627h4.539v1.311h1.881v-3.059h-3.1v-1.539h-2.106v1.539h-3.04v3.059h1.826Zm3.418 11.568h-2.3v-1.745h2.3Zm-2.261-3.5a13.814 13.814 0 0 0 1.6-1.235c.57.437 1.14.855 1.615 1.235Zm2.28-5.054a8.12 8.12 0 0 1-.931 1.354l-1.311-.853c.133-.171.266-.323.4-.494Zm1.9 5.852.038.038 1.273-1.57a29.847 29.847 0 0 0-2.584-1.9 11.056 11.056 0 0 0 1.881-3.42l-1.273-.589-.342.1h-1.767a7.5 7.5 0 0 0 .437-.874l-1.843-.456a9.137 9.137 0 0 1-3.477 3.966 8.523 8.523 0 0 1 1.42 1.307 8.7 8.7 0 0 0 .817-.646l1.254.874a11.268 11.268 0 0 1-3.5 2 6.522 6.522 0 0 1 1.149 1.614l.4-.171v4.921h1.9v-.76h4.217a13.4 13.4 0 0 1 1.045 1.083 13.511 13.511 0 0 0 4.047-2.527l-1.824-1.14a10.768 10.768 0 0 1-3.268 2.09Zm5.928 2.971a20.936 20.936 0 0 1 2.964 2.6l1.748-1.156a23.919 23.919 0 0 0-3.077-2.47Z"/></g></g><path data-name="パス 13946" d="M155.214 66.761a7.973 7.973 0 0 0 2.388 5.712l.72-.372a7.509 7.509 0 0 1-2.232-5.34 7.509 7.509 0 0 1 2.232-5.34l-.72-.372a7.973 7.973 0 0 0-2.388 5.712Zm4.716 4.56h4.824v-.912h-1.764v-7.9h-.84a5.3 5.3 0 0 1-1.824.636v.7h1.56v6.564h-1.956Zm6.132 0h5.532v-.948h-2.436c-.444 0-.984.048-1.44.084 2.064-1.956 3.444-3.744 3.444-5.5a2.413 2.413 0 0 0-2.556-2.6 3.364 3.364 0 0 0-2.592 1.3l.636.624a2.463 2.463 0 0 1 1.824-1.02 1.546 1.546 0 0 1 1.62 1.74c0 1.512-1.272 3.264-4.032 5.676Zm7.032 2.28a2.67 2.67 0 0 0 1.75-2.508c0-.8-.348-1.3-.924-1.3a.78.78 0 0 0-.828.768.752.752 0 0 0 .8.768.492.492 0 0 0 .138-.008 1.8 1.8 0 0 1-1.2 1.632Zm2.964-2.28h5.532v-.948h-2.436c-.444 0-.984.048-1.44.084 2.064-1.956 3.444-3.744 3.444-5.5a2.413 2.413 0 0 0-2.556-2.6 3.364 3.364 0 0 0-2.592 1.3l.636.624a2.463 2.463 0 0 1 1.824-1.02 1.546 1.546 0 0 1 1.62 1.74c0 1.512-1.272 3.264-4.032 5.676Zm9.48.156c1.656 0 2.76-1 2.76-2.28a2.567 2.567 0 0 0-1.488-2.3v-.06a2.884 2.884 0 0 0 1.176-2.124 2.225 2.225 0 0 0-2.412-2.32 2.238 2.238 0 0 0-2.412 2.228 2.445 2.445 0 0 0 1.188 2.028v.06a2.817 2.817 0 0 0-1.62 2.424 2.523 2.523 0 0 0 2.808 2.344Zm.6-4.932c-1.032-.408-1.98-.864-1.98-1.92a1.355 1.355 0 0 1 1.4-1.428 1.458 1.458 0 0 1 1.488 1.572 2.36 2.36 0 0 1-.908 1.776Zm-.576 4.116a1.687 1.687 0 0 1-1.836-1.62 2.391 2.391 0 0 1 1.2-1.992c1.248.5 2.328.948 2.328 2.124a1.524 1.524 0 0 1-1.692 1.488Zm6.456.816a2.561 2.561 0 0 0 2.82-2.508 2.263 2.263 0 0 0-1.86-2.232v-.048a2.2 2.2 0 0 0 1.56-2.124 2.26 2.26 0 0 0-2.556-2.208 3.522 3.522 0 0 0-2.46 1.056l.588.7a2.568 2.568 0 0 1 1.824-.852 1.35 1.35 0 0 1 1.488 1.392c0 .948-.624 1.68-2.436 1.68v.84c2.028 0 2.736.708 2.736 1.752a1.622 1.622 0 0 1-1.788 1.64 2.908 2.908 0 0 1-2.184-1.008l-.552.72a3.641 3.641 0 0 0 2.82 1.2Zm9.9-4.992v-3.516h3.648v3.516Zm-4.392-3.516h3.518v3.516h-3.516Zm8.94-.864h-9.828v10.14h.888v-4.872h8.04v3.672c0 .228-.084.3-.3.3s-1.008.024-1.822-.012a3.837 3.837 0 0 1 .334.888 7.556 7.556 0 0 0 2.136-.156c.408-.156.552-.444.552-1.02Zm10.978-.828a12.634 12.634 0 0 1-1.08 2.076l.744.3a20.366 20.366 0 0 0 1.236-2.064Zm-2.6 2.028a8.883 8.883 0 0 0-1.068-2l-.744.312a9.184 9.184 0 0 1 1.03 2.06Zm-2.258 4.548c-.242-.276-1.26-1.332-1.632-1.644v-.732h1.5v-.84h-1.5v-2.028a9.949 9.949 0 0 0 1.524-.48l-.624-.672a17.573 17.573 0 0 1-3.792.96 3.359 3.359 0 0 1 .276.7c.552-.084 1.164-.18 1.752-.3v1.824h-1.956v.84h1.836a12.392 12.392 0 0 1-2.064 3.752 4.128 4.128 0 0 1 .444.816 12.747 12.747 0 0 0 1.74-3.144v5.3h.864v-5.132a13.743 13.743 0 0 1 1.09 1.488Zm1.164-3.384h3.756v2.34h-3.756Zm3.42 6.816c-.264 0-.3-.048-.3-.348v-3.336h1.524v-3.912h-5.5v3.912h1.228c-.192 1.7-.672 3.2-2.544 3.96a2.819 2.819 0 0 1 .54.684c2.076-.912 2.664-2.624 2.88-4.644h1.02v3.336c0 .884.192 1.152 1.02 1.152h1.02c.708 0 .936-.408 1.02-1.944a2.211 2.211 0 0 1-.78-.36c-.024 1.308-.084 1.5-.336 1.5Zm7.212-9.4v.84h2.184c.06.528.12 1.032.2 1.524l-.384-.06a7.832 7.832 0 0 1-3.238 5.44 5.233 5.233 0 0 1 .7.66 8.574 8.574 0 0 0 3.18-4.86 7.28 7.28 0 0 0 3.192 4.86 4.138 4.138 0 0 1 .708-.672c-2.4-1.236-3.336-4.068-3.624-7.728Zm-1.368 1.536a9.131 9.131 0 0 0-2.088-1.848l-.66.54a8.279 8.279 0 0 1 2.04 1.9Zm-.336 2.56h-2.544v.84h1.668v3.036a20.038 20.038 0 0 1-1.824 1.364l.48.9a57.51 57.51 0 0 0 1.812-1.532 4.276 4.276 0 0 0 3.4 1.416c1.316.048 3.774.024 5.084-.024a4.06 4.06 0 0 1 .29-.912c-1.4.1-4.068.132-5.376.084a3.493 3.493 0 0 1-2.988-1.344Zm14.5 1.116a3.6 3.6 0 0 0 2.7 1.284 3.584 3.584 0 0 0 3.132-2.1l-.856-.46a2.647 2.647 0 0 1-2.268 1.584 2.77 2.77 0 0 1-2.042-.984 3.6 3.6 0 0 0-2.7-1.28 3.584 3.584 0 0 0-3.132 2.1l.852.456a2.647 2.647 0 0 1 2.27-1.584 2.751 2.751 0 0 1 2.04.984Zm6.466 6.372h.8l3.59-11.676h-.79Zm7.848-5.82a15.066 15.066 0 0 0 .132-2.016h5.484v2.016Zm5.616-4.86v1.992h-5.486v-1.992Zm.924-.876h-7.31v3.672c0 1.908-.192 4.344-2.1 6.024a3.377 3.377 0 0 1 .66.648 6.769 6.769 0 0 0 2.062-3.736h5.76v2.4c0 .264-.1.348-.372.36s-1.236.012-2.232-.024a4.257 4.257 0 0 1 .372.924 9.649 9.649 0 0 0 2.534-.16c.444-.144.624-.456.624-1.08Zm5.842 4.848a7.973 7.973 0 0 0-2.388-5.712l-.72.372a7.509 7.509 0 0 1 2.232 5.34 7.509 7.509 0 0 1-2.232 5.34l.72.372a7.973 7.973 0 0 0 2.388-5.712Z" fill="#333"/></g></svg>