<svg xmlns="http://www.w3.org/2000/svg" width="236.821" height="28.315" viewBox="0 0 236.821 28.315"><g transform="translate(-33.295 -8.345)"><path d="M14.735,0H19.88V-5.53h3.465V-9.905H19.88v-15.75H15.33L1.3-9.345,2.2-5.53h12.53ZM7.63-9.905l7.105-8.365v8.365Zm25.487-12.8H46.753v3.976H33.117Zm.028,6.664H46.893v3.864H33.145Zm-.112,6.552H46.669v3.948H33.033Zm-2.8-13.216h4.2v9.632q0,1.82-.21,3.948a28.316,28.316,0,0,1-.77,4.3A16.862,16.862,0,0,1,31.8-.728,12.066,12.066,0,0,1,28.945,2.66a9.9,9.9,0,0,0-.882-1.008q-.574-.588-1.2-1.12A9.814,9.814,0,0,0,25.781-.28a10.565,10.565,0,0,0,2.436-2.856,13.062,13.062,0,0,0,1.33-3.276,19.749,19.749,0,0,0,.56-3.416q.126-1.708.126-3.276Zm14.588,0h4.34v20.44a6.387,6.387,0,0,1-.448,2.66A3.028,3.028,0,0,1,47.2,1.848a7.651,7.651,0,0,1-2.674.658q-1.554.126-3.71.126a9.042,9.042,0,0,0-.392-1.4q-.28-.784-.616-1.568a9.486,9.486,0,0,0-.672-1.316q.9.056,1.89.084t1.792.028h1.134a.982.982,0,0,0,.672-.182.791.791,0,0,0,.2-.6ZM64.54.42c5.81,0,9.625-3.4,9.625-8.75V-8.4c0-5.67-3.955-8.12-8.89-8.12a12.393,12.393,0,0,0-3.5.49l.315-4.725H73.045V-25.48H57.47l-.735,12.53,3.15,2.1a11,11,0,0,1,4.34-.98c2.765,0,4.655,1.33,4.655,3.605v.07c0,2.345-1.715,3.71-4.41,3.71-2.275,0-4.2-1.05-6.16-2.835L55.055-3.395A13.1,13.1,0,0,0,64.54.42ZM80.423-22.372h20.216v24.7h-4.4v-20.58H84.623V2.324h-4.2Zm2.884,9.24H98.063V-9.1H83.307Zm0,9.492H98.063V.476H83.307Z" transform="translate(32 34)" fill="#e84830"/><path d="M12.285.35c5.46,0,9.31-2.835,9.31-7.84v-.07c0-4.375-2.905-6.265-8.12-7.6-4.48-1.155-5.6-1.75-5.6-3.5v-.07c0-1.3,1.19-2.38,3.43-2.38A11.683,11.683,0,0,1,17.99-18.55l2.835-4.06a14.671,14.671,0,0,0-9.415-3.22c-5.18,0-8.89,3.045-8.89,7.6v.07c0,5.005,3.255,6.475,8.47,7.77,4.34,1.085,5.25,1.855,5.25,3.36v.07c0,1.575-1.47,2.59-3.85,2.59a11.726,11.726,0,0,1-7.7-3.15L1.5-3.71A16.047,16.047,0,0,0,12.285.35ZM32.305,0h5.39V-20.51H45.5v-4.97H24.465v4.97h7.84ZM44.8,0h5.495l2.38-5.81H63.7L66.08,0h5.635L60.76-25.655H55.79Zm9.8-10.57,3.605-8.645,3.57,8.645ZM76.055,0H81.41V-8.3h4.655L91.7,0H98L91.63-9.2A7.855,7.855,0,0,0,97.2-17.08v-.07a7.907,7.907,0,0,0-2.135-5.74c-1.68-1.68-4.2-2.59-7.42-2.59H76.055ZM81.41-13.055v-7.56h5.775c2.835,0,4.585,1.3,4.585,3.745v.07c0,2.24-1.68,3.745-4.48,3.745ZM108.64,0h5.39V-20.51h7.805v-4.97H100.8v4.97h7.84Zm19.075-8.54h2.94l1.645-16.1v-.84h-6.23v.84ZM126.35,0h5.67V-5.67h-5.67Z" transform="translate(137.816 35.284)" fill="#e84830"/></g></svg>