<svg xmlns="http://www.w3.org/2000/svg" width="65.68" height="29.32"><path d="m30.16 24.96-2.88-2.44a14.364 14.364 0 0 0 2.48-8.04v-.08c0-7.96-6.2-14.4-14.84-14.4S0 6.52 0 14.48v.08c0 7.96 6.2 14.4 14.84 14.4a15.26 15.26 0 0 0 8.32-2.4l3.08 2.76Zm-15.24-1.68a8.507 8.507 0 0 1-8.48-8.8v-.08a8.374 8.374 0 0 1 8.4-8.72 8.507 8.507 0 0 1 8.48 8.8v.08a9.812 9.812 0 0 1-.76 3.84l-4.6-4.16-3.92 4.4 4.56 3.88a8.414 8.414 0 0 1-3.68.76Zm29.4 5.68c6.24 0 10.08-3.88 10.08-9.16v-.08c0-5.2-3.72-7.2-7.52-7.84l7.08-6.76V.48H35.04v5.28h11l-6.68 6.72.96 3.92h2.56c3.44 0 5.48 1.28 5.48 3.56v.08c0 2.08-1.64 3.4-3.96 3.4-2.84 0-4.84-1.2-6.76-3.36l-4.24 4.04a13.586 13.586 0 0 0 10.92 4.84Zm14.88-.48h6.48v-6.4H59.2Z" fill="#333"/></svg>