<svg xmlns="http://www.w3.org/2000/svg" width="153.104" height="14.863"><path d="M0 12.144h2.4V4.432l3.328 5.04h.064l3.36-5.088v7.76H11.6V.496H8.96l-3.168 5.04L2.64.496H0Zm16.848.176a3.448 3.448 0 0 0 2.72-1.168v.992h2.352V6.96a3.859 3.859 0 0 0-.96-2.816 4.148 4.148 0 0 0-2.992-.992 7.842 7.842 0 0 0-3.44.72l.608 1.856a6.591 6.591 0 0 1 2.48-.5c1.3 0 1.968.592 1.968 1.68v.16a6.748 6.748 0 0 0-2.224-.352c-2.112 0-3.6.9-3.6 2.832v.032a2.789 2.789 0 0 0 3.088 2.74Zm.72-1.7c-.848 0-1.456-.416-1.456-1.136v-.032c0-.816.688-1.28 1.808-1.28a4.376 4.376 0 0 1 1.7.336v.48c-.008.964-.836 1.636-2.052 1.636Zm9.808 1.684c1.92 0 3.392-.9 3.392-2.848v-.032c0-1.632-1.456-2.224-2.7-2.624-.976-.336-1.856-.576-1.856-1.1v-.036c0-.384.352-.672.992-.672a5.3 5.3 0 0 1 2.432.832l.924-1.68a6.152 6.152 0 0 0-3.3-1.024c-1.792 0-3.248 1.008-3.248 2.8v.032c0 1.712 1.424 2.288 2.688 2.656.992.3 1.872.5 1.872 1.072v.032c0 .432-.368.72-1.136.72A5.017 5.017 0 0 1 24.62 9.36l-1.052 1.616a6.265 6.265 0 0 0 3.808 1.328Zm7.92.016a3.448 3.448 0 0 0 2.716-1.168v.992h2.352V6.96a3.859 3.859 0 0 0-.952-2.816 4.148 4.148 0 0 0-3-.992 7.842 7.842 0 0 0-3.44.72l.608 1.856a6.591 6.591 0 0 1 2.48-.5c1.3 0 1.968.592 1.968 1.68v.16a6.748 6.748 0 0 0-2.216-.348c-2.112 0-3.6.9-3.6 2.832v.032a2.789 2.789 0 0 0 3.084 2.736Zm.72-1.7c-.848 0-1.456-.416-1.456-1.136v-.032c0-.816.688-1.28 1.808-1.28a4.376 4.376 0 0 1 1.7.336v.48c-.004.964-.836 1.636-2.056 1.636Zm10.272-1.212-2.112-6.164H41.6l3.536 8.932a.932.932 0 0 1-.96.656 2.391 2.391 0 0 1-1.1-.336l-.816 1.76a4.205 4.205 0 0 0 2.208.608c1.5 0 2.24-.688 2.928-2.5l3.436-9.12h-2.528Zm10.064 2.928a4.652 4.652 0 0 0 4.816-4.624V7.68A4.614 4.614 0 0 0 56.4 3.088a4.662 4.662 0 0 0-4.816 4.624v.032a4.6 4.6 0 0 0 4.768 4.592Zm.048-2.08a2.443 2.443 0 0 1-2.416-2.544V7.68a2.345 2.345 0 0 1 2.368-2.5 2.429 2.429 0 0 1 2.416 2.528v.036a2.358 2.358 0 0 1-2.368 2.512Zm9.872 2.048c1.92 0 3.392-.9 3.392-2.848v-.032c0-1.632-1.456-2.224-2.7-2.624-.976-.336-1.856-.576-1.856-1.1v-.036c0-.384.352-.672.992-.672a5.3 5.3 0 0 1 2.432.832l.924-1.68a6.152 6.152 0 0 0-3.3-1.024c-1.792 0-3.248 1.008-3.248 2.8v.032c0 1.712 1.424 2.288 2.688 2.656.992.3 1.872.5 1.872 1.072v.032c0 .432-.368.72-1.136.72a5.017 5.017 0 0 1-2.816-1.072l-1.052 1.616a6.265 6.265 0 0 0 3.808 1.328Zm5.376-.16h2.432V7.168c0-1.232.656-1.888 1.664-1.888s1.6.656 1.6 1.888v4.976h2.432V6.4c0-2.048-1.136-3.312-3.056-3.312a3.176 3.176 0 0 0-2.64 1.44V0h-2.432Zm10.528-9.952h2.56V.016h-2.56Zm.08 9.952h2.416v-8.9h-2.416Zm10.368 0h2.448v-4.56h5.632v-2.24h-5.632V2.736h6.368V.496h-8.816Zm13.744.176a3.15 3.15 0 0 0 2.644-1.456v1.28h2.432v-8.9h-2.432v4.98c0 1.232-.656 1.888-1.664 1.888s-1.6-.656-1.6-1.888v-4.98h-2.416v5.744c-.004 2.056 1.116 3.332 3.036 3.332Zm7.504-.176h2.432V9.472l.96-1.024 2.348 3.696h2.816l-3.536-5.36 3.428-3.54h-2.908l-3.1 3.376V-.004h-2.44Zm12.768.176a3.15 3.15 0 0 0 2.64-1.456v1.28h2.432v-8.9h-2.432v4.98c0 1.232-.656 1.888-1.664 1.888s-1.6-.656-1.6-1.888v-4.98H123.6v5.744c0 2.056 1.12 3.332 3.04 3.332Zm11.168 0a3.329 3.329 0 0 0 2.816-1.488v1.312h2.432V0h-2.432v4.444a3.457 3.457 0 0 0-2.816-1.36c-2.112 0-4.064 1.632-4.064 4.592v.032c0 2.98 1.984 4.612 4.068 4.612Zm.604-2.076a2.335 2.335 0 0 1-2.24-2.528v-.032a2.316 2.316 0 0 1 2.24-2.528 2.335 2.335 0 0 1 2.24 2.528v.032a2.335 2.335 0 0 1-2.24 2.528Zm9.62 2.076a3.448 3.448 0 0 0 2.72-1.168v.992h2.352V6.96a3.859 3.859 0 0 0-.96-2.816 4.148 4.148 0 0 0-2.992-.992 7.842 7.842 0 0 0-3.44.72l.608 1.856a6.591 6.591 0 0 1 2.48-.5c1.3 0 1.968.592 1.968 1.68v.16a6.748 6.748 0 0 0-2.224-.352c-2.112 0-3.6.9-3.6 2.832v.032a2.789 2.789 0 0 0 3.088 2.74Zm.72-1.7c-.848 0-1.456-.416-1.456-1.136v-.032c0-.816.688-1.28 1.808-1.28a4.376 4.376 0 0 1 1.7.336v.48c-.004.964-.836 1.636-2.052 1.636Z" fill="#fff"/></svg>