<svg xmlns="http://www.w3.org/2000/svg" width="66.04" height="29.32"><path d="m30.16 24.96-2.88-2.44a14.364 14.364 0 0 0 2.48-8.04v-.08c0-7.96-6.2-14.4-14.84-14.4S0 6.52 0 14.48v.08c0 7.96 6.2 14.4 14.84 14.4a15.26 15.26 0 0 0 8.32-2.4l3.08 2.76Zm-15.24-1.68a8.507 8.507 0 0 1-8.48-8.8v-.08a8.374 8.374 0 0 1 8.4-8.72 8.507 8.507 0 0 1 8.48 8.8v.08a9.812 9.812 0 0 1-.76 3.84l-4.6-4.16-3.92 4.4 4.56 3.88a8.414 8.414 0 0 1-3.68.76Zm29.56 5.6c6.2 0 10.8-3.04 10.8-8.24v-.08c0-3.32-1.68-5.12-4.52-6.6a6.662 6.662 0 0 0 3.56-6.12v-.08c0-4.32-3.92-7.68-9.84-7.68s-9.84 3.4-9.84 7.68v.08a6.662 6.662 0 0 0 3.56 6.12c-2.96 1.36-4.52 3.36-4.52 6.76v.08c0 4.88 4.6 8.08 10.8 8.08Zm0-16.96c-2.44 0-4-1.48-4-3.44V8.4c0-1.72 1.48-3.24 4-3.24s4 1.56 4 3.28v.08c0 1.96-1.56 3.4-4 3.4Zm0 11.88c-3.04 0-4.84-1.56-4.84-3.48v-.08c0-2.16 2.04-3.44 4.84-3.44s4.84 1.28 4.84 3.44v.08c0 1.96-1.8 3.48-4.84 3.48Zm15.08 4.68h6.48v-6.4h-6.48Z" fill="#333"/></svg>