<svg xmlns="http://www.w3.org/2000/svg" width="109.86" height="15.04"><path d="M0 14.8h3.06v-4.44H5.6c3.24 0 5.86-1.72 5.86-5.08v-.04c0-2.96-2.1-5-5.56-5H0Zm3.06-7.18v-4.6h2.58c1.66 0 2.72.8 2.72 2.28v.04c0 1.3-1 2.28-2.66 2.28Zm11 7.18h3.06v-4.74h2.66L23 14.8h3.6l-3.64-5.26a4.488 4.488 0 0 0 3.18-4.5V5a4.518 4.518 0 0 0-1.22-3.28A5.805 5.805 0 0 0 20.68.24h-6.62Zm3.06-7.46V3.02h3.3c1.62 0 2.62.74 2.62 2.14v.04c0 1.28-.96 2.14-2.56 2.14Zm19.18 7.7a7.525 7.525 0 0 0 7.74-7.52v-.04A7.446 7.446 0 0 0 36.34 0a7.525 7.525 0 0 0-7.74 7.52v.04a7.446 7.446 0 0 0 7.7 7.48Zm.04-2.82a4.544 4.544 0 0 1-4.52-4.7v-.04a4.477 4.477 0 0 1 4.48-4.66 4.544 4.544 0 0 1 4.52 4.7v.04a4.477 4.477 0 0 1-4.48 4.66Zm17.74 2.82a9.387 9.387 0 0 0 6.2-2.3V6.46h-6.3v2.66h3.32v2.22a5.326 5.326 0 0 1-3.12.92 4.473 4.473 0 0 1-4.52-4.74v-.04a4.5 4.5 0 0 1 4.3-4.66 5.5 5.5 0 0 1 3.86 1.5l1.94-2.34A8.016 8.016 0 0 0 54.06 0a7.459 7.459 0 0 0-7.62 7.52v.04a7.269 7.269 0 0 0 7.64 7.48Zm9.48-.24h3.06v-4.74h2.66l3.22 4.74h3.6l-3.64-5.26a4.488 4.488 0 0 0 3.18-4.5V5a4.518 4.518 0 0 0-1.22-3.28A5.805 5.805 0 0 0 70.18.24h-6.62Zm3.06-7.46V3.02h3.3c1.62 0 2.62.74 2.62 2.14v.04c0 1.28-.96 2.14-2.56 2.14ZM77.5 14.8h3.14L82 11.48h6.3l1.36 3.32h3.22L86.62.14h-2.84Zm5.6-6.04 2.06-4.94 2.04 4.94Zm12.26 6.04h3V5.16l4.16 6.3h.08l4.2-6.36v9.7h3.06V.24h-3.3l-3.96 6.3-3.94-6.3h-3.3Z" fill="#e84830"/></svg>