<svg xmlns="http://www.w3.org/2000/svg" width="66.92" height="29.32"><path d="m30.16 24.96-2.88-2.44a14.364 14.364 0 0 0 2.48-8.04v-.08c0-7.96-6.2-14.4-14.84-14.4S0 6.52 0 14.48v.08c0 7.96 6.2 14.4 14.84 14.4a15.26 15.26 0 0 0 8.32-2.4l3.08 2.76Zm-15.24-1.68a8.507 8.507 0 0 1-8.48-8.8v-.08a8.374 8.374 0 0 1 8.4-8.72 8.507 8.507 0 0 1 8.48 8.8v.08a9.812 9.812 0 0 1-.76 3.84l-4.6-4.16-3.92 4.4 4.56 3.88a8.414 8.414 0 0 1-3.68.76Zm29.2.08a9.063 9.063 0 0 1-6.12-2.4l-3.24 4.68a13.526 13.526 0 0 0 9.2 3.32c7.96 0 12.24-6.2 12.24-15.28v-.08c0-5.52-1.32-8.56-3.32-10.56C50.76.92 48.56 0 44.8 0c-6.32 0-10.68 4.16-10.68 9.8v.08c0 5.68 3.92 9.04 10 9.04A8.534 8.534 0 0 0 49.8 17c-.24 2.4-1.44 6.36-5.68 6.36Zm1-9.56c-3.04 0-4.88-1.72-4.88-4.2v-.08c0-2.48 1.72-4.24 4.76-4.24 3.08 0 4.92 1.8 4.92 4.28v.08c0 2.4-1.76 4.16-4.8 4.16Zm15.32 14.68h6.48v-6.4h-6.48Z" fill="#333"/></svg>