<svg xmlns="http://www.w3.org/2000/svg" width="141.24" height="15.04"><path d="M0 14.8h3.06v-4.44H5.6c3.24 0 5.86-1.72 5.86-5.08v-.04c0-2.96-2.1-5-5.56-5H0Zm3.06-7.18v-4.6h2.58c1.66 0 2.72.8 2.72 2.28v.04c0 1.3-1 2.28-2.66 2.28Zm11 7.18h3.06V8.9h6.12v5.9h3.08V.24h-3.08v5.82h-6.12V.24h-3.06Zm16.1 0h3.08V.24h-3.08Zm6.94 0h10.4V12h-7.34V.24H37.1Zm19.26.24a7.525 7.525 0 0 0 7.74-7.52v-.04A7.446 7.446 0 0 0 56.4 0a7.525 7.525 0 0 0-7.74 7.52v.04a7.446 7.446 0 0 0 7.7 7.48Zm.04-2.82a4.544 4.544 0 0 1-4.52-4.7v-.04a4.477 4.477 0 0 1 4.48-4.66 4.544 4.544 0 0 1 4.52 4.7v.04a4.477 4.477 0 0 1-4.48 4.66ZM72.22 15c3.12 0 5.32-1.62 5.32-4.48v-.04c0-2.5-1.66-3.58-4.64-4.34-2.56-.66-3.2-1-3.2-2V4.1c0-.74.68-1.36 1.96-1.36a6.676 6.676 0 0 1 3.82 1.46l1.62-2.32A8.383 8.383 0 0 0 71.72.04c-2.96 0-5.08 1.74-5.08 4.34v.04c0 2.86 1.86 3.7 4.84 4.44 2.48.62 3 1.06 3 1.92v.04c0 .9-.84 1.48-2.2 1.48a6.7 6.7 0 0 1-4.4-1.8l-1.82 2.18A9.17 9.17 0 0 0 72.22 15Zm15.36.04a7.525 7.525 0 0 0 7.74-7.52v-.04A7.446 7.446 0 0 0 87.62 0a7.525 7.525 0 0 0-7.74 7.52v.04a7.446 7.446 0 0 0 7.7 7.48Zm.04-2.82a4.544 4.544 0 0 1-4.52-4.7v-.04a4.477 4.477 0 0 1 4.48-4.66 4.544 4.544 0 0 1 4.52 4.7v.04a4.477 4.477 0 0 1-4.48 4.66Zm10.76 2.58h3.06v-4.44h2.54c3.24 0 5.86-1.72 5.86-5.08v-.04c0-2.96-2.1-5-5.56-5h-5.9Zm3.06-7.18v-4.6h2.58c1.66 0 2.72.8 2.72 2.28v.04c0 1.3-1 2.28-2.66 2.28Zm11 7.18h3.06V8.9h6.12v5.9h3.08V.24h-3.08v5.82h-6.12V.24h-3.06Zm20.08 0h3.08V9l5.64-8.76h-3.5l-3.66 5.96L130.5.24h-3.6l5.62 8.82Z" fill="#e84830"/></svg>