<svg xmlns="http://www.w3.org/2000/svg" width="12.32" height="104.928"><path d="M.192 0v2.468H11.84V.004Zm0 5.28v2.432h4.976c1.232 0 1.888.656 1.888 1.664s-.656 1.6-1.888 1.6H.192v2.432h5.744c2.048 0 3.312-1.136 3.312-3.056a3.176 3.176 0 0 0-1.44-2.64h1.284V5.28ZM.048 18.768a3.7 3.7 0 0 0 .5 1.952h1.944a2.665 2.665 0 0 1-.3-1.252c0-.592.288-.864.912-.864h3.9v2.144h2.088v-2.14h2.3v-2.432h-2.3v-1.072h-2.08v1.072h-4.3c-2.056 0-2.664 1.056-2.664 2.592ZM0 26.736a4.444 4.444 0 0 0 1.648 3.632l1.232-1.392a2.965 2.965 0 0 1-.928-2.208 2.119 2.119 0 0 1 1.84-2.24v6.256c.224.016.448.032.64.032 2.528 0 4.816-1.376 4.816-4.32a4.417 4.417 0 0 0-4.624-4.384h-.032A4.436 4.436 0 0 0 0 26.736Zm5.312-2.24a2.058 2.058 0 0 1 1.984 2 2 2 0 0 1-1.984 1.952Zm-5.12 8.352v2.432h3.312c2.16 0 3.2 1.072 3.2 2.768v.128h2.544a2.833 2.833 0 0 0-2-2.9h1.844v-2.428Zm-.064 9.808v2.192l8.964 3.536v-2.528l-6.08-2.1 6.08-2.06V39.12Zm10.016 7.412v2.556h2.176v-2.556Zm-9.952.076v2.416h8.9v-2.416ZM0 59.312a4.444 4.444 0 0 0 1.648 3.632l1.232-1.392a2.965 2.965 0 0 1-.928-2.208 2.119 2.119 0 0 1 1.84-2.24v6.256c.224.016.448.032.64.032 2.528 0 4.816-1.376 4.816-4.32a4.417 4.417 0 0 0-4.624-4.384h-.032A4.436 4.436 0 0 0 0 59.312Zm5.312-2.244a2.058 2.058 0 0 1 1.98 2 2 2 0 0 1-1.98 1.956ZM.128 67.056v2.176l5.584 1.792-5.584 1.76v2.192l8.96 2.8V75.36l-5.552-1.536L9.12 72.08V70l-5.568-1.744 5.54-1.488v-2.464ZM0 89.488c0 3.1 2.656 5.168 6.016 5.168h.032c3.376 0 5.984-2.064 5.984-5.136 0-3.088-2.656-5.168-6.016-5.168h-.032C2.608 84.352 0 86.384 0 89.488Zm2.208.032c0-1.6 1.648-2.64 3.808-2.64h.032c2.16 0 3.776 1.024 3.776 2.608s-1.664 2.64-3.808 2.64h-.032c-2.144 0-3.776-1.008-3.776-2.608ZM.192 96.352v8.576H2.32V99.76l1.568 2c1.616 2.064 2.592 3.056 4.512 3.056h.032c2.16 0 3.568-1.6 3.568-3.984a4.807 4.807 0 0 0-2.416-4.32L8.208 98.24c1.072.864 1.6 1.5 1.6 2.432a1.5 1.5 0 0 1-1.584 1.632c-.976 0-1.632-.576-2.864-2.048l-3.216-3.9Z" fill="#333"/></svg>